# https://github.com/mikedh/trimesh
v 0.00797925 0.05594892 0.41791421
v 0.02665105 0.05575173 0.41950496
v 0.01984511 0.05592701 0.41719500
v 0.03079638 0.05388930 0.39889516
v 0.00008056 0.05411937 0.40916135
v -0.00312643 0.05544497 0.41850106
v 0.05900600 0.04706408 0.41965479
v 0.03383708 0.05547784 0.41886566
v -0.01044312 0.05477670 0.41915285
v -0.04517361 0.04573848 0.41932765
v -0.05165885 0.04061134 0.41945751
v -0.02542094 0.03651402 0.41965479
v 0.03185350 0.05500675 0.40899403
v -0.01191595 0.05283758 0.40964332
v 0.04072616 0.05342918 0.39689736
v -0.04180033 0.04365695 0.41083700
v -0.03279701 0.04786383 0.41047740
v -0.02344923 0.05060268 0.41010531
v 0.05826957 0.03850790 0.41965479
v 0.05721246 -0.03319530 0.41965230
v 0.05803202 -0.04720727 0.41859346
v 0.04817350 -0.04422740 0.39414289
v 0.04794783 0.04787478 0.39530661
v 0.04541787 0.05483147 0.41669056
v 0.04118939 0.05444803 0.40632198
v -0.02257028 0.05311147 0.41848857
v -0.03133605 0.05121618 0.41904047
v -0.03836767 0.04899223 0.41919030
v -0.05724139 0.03172650 0.41958237
v -0.04908138 0.03771911 0.41112918
v -0.06015143 0.02288548 0.41962482
v -0.06169554 0.01302560 0.41964980
v -0.06233694 0.00231121 0.41965230
v -0.06223003 -0.00612446 0.41965230
v -0.05367807 0.02932726 0.41131398
v 0.03068948 -0.05555530 0.41816643
v -0.06162427 -0.01388090 0.41964980
v -0.05967632 -0.02446383 0.41962482
v -0.03013640 -0.05144702 0.41853602
v -0.01851997 -0.05373670 0.41842365
v 0.04446765 -0.05477747 0.41537201
v 0.03643830 -0.05336421 0.39588347
v 0.02748249 -0.04130230 0.39414289
v -0.05669501 0.01761592 0.41143385
v -0.05794217 0.00361490 0.41148379
v -0.05772837 -0.00875376 0.41147630
v 0.03260180 -0.05488702 0.40857699
v -0.00787752 -0.05502944 0.41805405
v 0.01100807 -0.05597160 0.41764451
v 0.01934624 -0.05588396 0.41694278
v -0.05662375 -0.01814255 0.41143135
v -0.05395125 -0.02861593 0.41132397
v -0.05505589 -0.03547402 0.41883569
v -0.04865379 -0.04303326 0.41859346
v -0.04157465 -0.04750307 0.41859346
v -0.03386600 -0.04740447 0.41056980
v -0.02397185 -0.05045007 0.41012529
v -0.01291368 -0.05273976 0.41001291
v -0.00549010 -0.05370383 0.40976069
v 0.02776756 -0.05386816 0.39924227
v -0.04438968 -0.04200345 0.41095188
v -0.04998409 -0.03658052 0.41116664
v 0.00302624 -0.05426256 0.40904148
v 0.00173156 -0.05569772 0.41765200
f 1 2 3
f 1 3 4
f 1 4 5
f 1 5 6
f 1 6 2
f 2 7 8
f 2 8 3
f 2 6 9
f 2 9 10
f 2 10 11
f 2 11 12
f 2 12 7
f 3 8 13
f 3 13 4
f 4 14 5
f 4 13 15
f 4 15 16
f 4 16 17
f 4 17 18
f 4 18 14
f 5 14 9
f 5 9 6
f 7 19 20
f 7 20 21
f 7 21 22
f 7 22 23
f 7 23 15
f 7 15 24
f 7 24 8
f 7 12 19
f 8 24 25
f 8 25 13
f 9 14 26
f 9 26 27
f 9 27 28
f 9 28 10
f 10 28 16
f 10 16 11
f 11 29 12
f 11 16 30
f 11 30 29
f 12 29 31
f 12 31 32
f 12 32 33
f 12 33 34
f 12 34 20
f 12 20 19
f 13 25 15
f 14 18 26
f 15 25 24
f 15 23 35
f 15 35 30
f 15 30 16
f 16 28 17
f 17 28 27
f 17 27 18
f 18 27 26
f 20 36 21
f 20 34 37
f 20 37 38
f 20 38 39
f 20 39 40
f 20 40 36
f 21 36 41
f 21 41 42
f 21 42 22
f 22 42 43
f 22 43 23
f 23 43 35
f 29 30 35
f 29 35 31
f 31 35 44
f 31 44 32
f 32 44 45
f 32 45 33
f 33 45 34
f 34 45 46
f 34 46 37
f 35 43 44
f 36 47 41
f 36 40 48
f 36 48 49
f 36 49 50
f 36 50 47
f 37 46 51
f 37 51 38
f 38 51 52
f 38 52 53
f 38 53 54
f 38 54 55
f 38 55 39
f 39 55 56
f 39 56 57
f 39 57 58
f 39 58 40
f 40 58 59
f 40 59 48
f 41 47 42
f 42 47 60
f 42 60 58
f 42 58 57
f 42 57 56
f 42 56 61
f 42 61 43
f 43 61 62
f 43 62 52
f 43 52 51
f 43 51 46
f 43 46 45
f 43 45 44
f 47 50 60
f 48 59 63
f 48 63 64
f 48 64 49
f 49 64 60
f 49 60 50
f 52 62 53
f 53 62 54
f 54 61 55
f 54 62 61
f 55 61 56
f 58 60 59
f 59 60 63
f 60 64 63

