# https://github.com/mikedh/trimesh
v 0.01780672 0.05592659 0.42133454
v -0.00212579 0.05547865 0.41994073
v 0.00549190 0.05539125 0.42555602
v 0.01459006 0.05468109 0.43189742
v 0.03065989 0.05539125 0.42355128
v 0.04640670 0.05437519 0.42345446
v 0.06265149 0.04564585 0.42366144
v 0.05714684 -0.03687315 0.41860202
v -0.06166760 0.01323041 0.41966364
v -0.01038951 0.05472480 0.42072694
v -0.00672871 0.05389447 0.43107783
v 0.00061981 0.05379614 0.43486697
v 0.02819692 0.05400373 0.43412918
v 0.03703937 0.05373060 0.43247330
v 0.04990600 0.05177497 0.43388547
v 0.06060576 0.04930584 0.43111455
v 0.07039031 0.03835866 0.43364176
v 0.07510091 0.02595841 0.43563649
v 0.06398392 0.03476423 0.42415720
v 0.06419926 -0.03245931 0.42438088
v 0.05830430 -0.04863972 0.42194548
v 0.03650101 -0.05530417 0.41931811
v -0.06232709 0.00232693 0.41967533
v -0.05987758 0.01055370 0.43175887
v -0.05830290 0.02193789 0.43077903
v -0.05828944 0.02821996 0.42184199
v -0.04553048 0.04450962 0.42423733
v -0.03551712 0.04941509 0.42383838
v -0.02383487 0.05253974 0.42357465
v -0.01632485 0.05282379 0.43111288
v 0.00460362 -0.05382925 0.43511736
v -0.02911072 0.04963360 0.43388213
v -0.03823580 0.04605009 0.43418760
v -0.04709170 0.03996468 0.43442463
v 0.07516820 -0.02557636 0.43565318
v 0.07219380 -0.03508139 0.43392887
v 0.05314957 -0.05155678 0.43222292
v 0.04687776 -0.05420072 0.42401532
v 0.06555860 -0.04488141 0.43220956
v 0.03810261 -0.05420072 0.42936019
v 0.01951599 -0.05555545 0.42456616
v 0.02745669 -0.05566471 0.41963193
v -0.03703797 -0.04931709 0.42043983
v -0.04523438 -0.04543860 0.42068688
v -0.06086007 -0.01743699 0.42141299
v -0.06190986 -0.00602002 0.42269663
v -0.06041593 -0.00236004 0.43164036
v -0.05963532 -0.01282650 0.43209605
v -0.05320201 0.03330023 0.43309425
v -0.05246177 0.03810738 0.42502354
v 0.00710696 -0.05546805 0.42446935
v 0.01701265 -0.05414609 0.43465999
v 0.04484548 -0.05226693 0.43479019
v -0.05122356 -0.03549655 0.43377363
v -0.02935298 -0.04962300 0.43336801
v -0.00776504 -0.05332668 0.43384874
v 0.02827768 -0.05394944 0.43412583
v -0.00515403 -0.05493271 0.42317236
v -0.02923185 -0.05133828 0.42301545
v -0.04224653 -0.04518732 0.42925336
v -0.05141198 -0.03988854 0.42308222
v -0.05652634 -0.03245931 0.42199222
v -0.05773763 -0.02268115 0.43234143
v -0.01791299 -0.05322836 0.42579305
f 1 2 3
f 1 3 4
f 1 4 5
f 1 5 6
f 1 6 7
f 1 7 2
f 2 7 8
f 2 8 9
f 2 9 10
f 2 10 11
f 2 11 3
f 3 11 12
f 3 12 4
f 4 12 13
f 4 13 5
f 5 13 14
f 5 14 6
f 6 15 16
f 6 16 7
f 6 14 15
f 7 17 18
f 7 18 19
f 7 19 8
f 7 16 17
f 8 19 20
f 8 20 21
f 8 21 22
f 8 22 23
f 8 23 9
f 9 23 24
f 9 24 25
f 9 25 26
f 9 26 10
f 10 26 27
f 10 27 28
f 10 28 29
f 10 29 30
f 10 30 11
f 11 30 12
f 12 31 18
f 12 18 15
f 12 15 13
f 12 30 32
f 12 32 33
f 12 33 34
f 12 34 31
f 13 15 14
f 15 18 17
f 15 17 16
f 18 35 19
f 18 31 35
f 19 35 20
f 20 35 36
f 20 36 21
f 21 37 38
f 21 38 22
f 21 36 39
f 21 39 37
f 22 38 40
f 22 40 41
f 22 41 42
f 22 42 43
f 22 43 23
f 23 43 44
f 23 44 45
f 23 45 46
f 23 46 47
f 23 47 24
f 24 47 48
f 24 48 49
f 24 49 25
f 25 49 26
f 26 49 50
f 26 50 27
f 27 33 28
f 27 50 34
f 27 34 33
f 28 33 32
f 28 32 29
f 29 32 30
f 31 51 52
f 31 52 53
f 31 53 35
f 31 34 54
f 31 54 55
f 31 55 56
f 31 56 51
f 34 50 49
f 34 49 48
f 34 48 54
f 35 53 36
f 36 53 39
f 37 39 53
f 37 53 38
f 38 53 40
f 40 57 41
f 40 53 57
f 41 57 52
f 41 52 51
f 41 51 42
f 42 51 58
f 42 58 43
f 43 58 59
f 43 59 55
f 43 55 60
f 43 60 44
f 44 60 61
f 44 61 62
f 44 62 45
f 45 62 63
f 45 63 48
f 45 48 46
f 46 48 47
f 48 63 54
f 51 56 58
f 52 57 53
f 54 63 62
f 54 62 61
f 54 61 60
f 54 60 55
f 55 59 64
f 55 64 56
f 56 64 58
f 58 64 59

