# https://github.com/mikedh/trimesh
v -0.03550862 -0.00108573 0.30823638
v -0.03529962 -0.00606160 0.30823638
v -0.02361984 0.00929047 0.33380188
v -0.03539183 0.00442561 0.30823638
v -0.02534722 -0.00329940 0.32890604
v -0.03463572 -0.01124643 0.30823638
v -0.02459725 -0.00928089 0.32890604
v 0.02531228 0.00929047 0.33380188
v -0.02252563 0.01336520 0.33380188
v -0.03351077 0.01594456 0.30823638
v -0.03463572 0.01128212 0.30823638
v -0.02213835 -0.01662716 0.32890604
v -0.01735579 -0.02254989 0.32890604
v -0.00978238 -0.02640260 0.32890604
v -0.00398552 -0.02802857 0.32890604
v 0.00116588 -0.02885788 0.32890604
v 0.00786024 -0.02907990 0.32890604
v -0.03291448 -0.01743688 0.30823638
v 0.02531228 0.02375445 0.33380188
v 0.01231084 -0.02827671 0.32890604
v 0.01783723 -0.02531861 0.32890604
v 0.02729170 -0.01507302 0.32890604
v -0.02087816 0.01702854 0.33380188
v -0.03168503 0.02018906 0.30823638
v -0.03008675 -0.02271314 0.30823638
v -0.02594965 -0.02690541 0.30823638
v -0.02121012 -0.02991574 0.30823638
v -0.01736194 -0.03146989 0.30823638
v -0.01268388 -0.03252122 0.30823638
v -0.00569446 -0.03324605 0.30823638
v 0.00166995 -0.03327217 0.30823638
v 0.00851184 -0.03212289 0.30823638
v 0.02729170 0.00876154 0.32747683
v 0.02568726 0.00823914 0.30823638
v 0.02464223 0.01352192 0.30823638
v 0.02278576 0.01892877 0.30823638
v 0.01939248 0.02468825 0.30823638
v 0.01485581 0.02916131 0.30823638
v 0.00934172 0.03183861 0.30823638
v 0.01673687 0.02745044 0.33380188
v 0.01413658 -0.02956312 0.30823638
v 0.01857489 -0.02573000 0.30823638
v 0.02186982 -0.02063659 0.30823638
v 0.02464223 -0.01346663 0.30823638
v 0.02585324 -0.00712599 0.30823638
v 0.02606840 -0.00296637 0.30823638
v 0.02729170 -0.00849076 0.32616277
v -0.01801969 0.02076371 0.33380188
v -0.02946588 0.02358467 0.30823638
v 0.02729170 0.00301512 0.32492629
v 0.02609298 0.00151975 0.30823638
v 0.00305923 0.03322298 0.30823638
v 0.01253829 0.02863237 0.33380188
v 0.02729170 -0.00356713 0.32495383
v -0.01396866 0.02398301 0.33380188
v -0.02633692 0.02667337 0.30823638
v -0.00255321 0.03343847 0.30823638
v 0.00747296 0.02904377 0.33380188
v -0.00929674 0.02600731 0.33380188
v -0.02144372 0.02984696 0.30823638
v -0.00950575 0.03296178 0.30823638
v 0.00240148 0.02869115 0.33380188
v -0.00339538 0.02771164 0.33380188
v -0.01626158 0.03181249 0.30823638
f 1 2 3
f 1 3 4
f 1 4 11
f 1 11 10
f 1 10 24
f 1 24 49
f 1 49 56
f 1 56 60
f 1 60 64
f 1 64 61
f 1 61 57
f 1 57 52
f 1 52 39
f 1 39 38
f 1 38 37
f 1 37 36
f 1 36 35
f 1 35 34
f 1 34 51
f 1 51 46
f 1 46 45
f 1 45 44
f 1 44 43
f 1 43 42
f 1 42 41
f 1 41 32
f 1 32 31
f 1 31 30
f 1 30 29
f 1 29 28
f 1 28 27
f 1 27 26
f 1 26 25
f 1 25 18
f 1 18 6
f 1 6 2
f 2 5 3
f 2 6 7
f 2 7 5
f 3 8 19
f 3 19 40
f 3 40 53
f 3 53 58
f 3 58 62
f 3 62 63
f 3 63 59
f 3 59 55
f 3 55 48
f 3 48 23
f 3 23 9
f 3 9 10
f 3 10 11
f 3 11 4
f 3 5 7
f 3 7 12
f 3 12 13
f 3 13 14
f 3 14 15
f 3 15 16
f 3 16 17
f 3 17 8
f 6 18 7
f 7 18 12
f 8 17 20
f 8 20 21
f 8 21 22
f 8 22 19
f 9 23 24
f 9 24 10
f 12 18 25
f 12 25 13
f 13 25 26
f 13 26 27
f 13 27 14
f 14 27 28
f 14 28 15
f 15 28 29
f 15 29 16
f 16 29 30
f 16 30 17
f 17 30 31
f 17 31 32
f 17 32 20
f 19 22 33
f 19 33 34
f 19 34 35
f 19 35 36
f 19 36 37
f 19 37 38
f 19 38 39
f 19 39 40
f 20 32 41
f 20 41 21
f 21 41 42
f 21 42 22
f 22 42 43
f 22 43 44
f 22 44 45
f 22 45 46
f 22 46 47
f 22 47 54
f 22 54 50
f 22 50 33
f 23 48 49
f 23 49 24
f 33 50 51
f 33 51 34
f 39 52 53
f 39 53 40
f 46 51 54
f 46 54 47
f 48 55 56
f 48 56 49
f 50 54 51
f 52 57 58
f 52 58 53
f 55 59 60
f 55 60 56
f 57 61 58
f 58 61 62
f 59 63 64
f 59 64 60
f 61 64 63
f 61 63 62

