# https://github.com/mikedh/trimesh
v 0.02623132 0.00929972 0.32560036
v 0.02532701 0.01308610 0.32573206
v 0.04890563 0.00961057 0.32449132
v 0.05563201 0.00930404 0.33811166
v 0.02732315 0.00929972 0.33976135
v 0.04810718 0.02154825 0.32935721
v 0.04837938 0.01426907 0.32584296
v 0.02532701 0.02231243 0.34685224
v 0.02532701 0.02530009 0.33497170
v 0.04806786 0.02553755 0.33223377
v 0.05334250 0.01491669 0.33040387
v 0.05392017 0.01064244 0.32941267
v 0.05622480 0.01049996 0.33222684
v 0.03158157 0.00930404 0.33959499
v 0.05508156 0.02567139 0.34037132
v 0.04820093 0.04083849 0.39530320
v 0.02707816 0.04130478 0.39530320
v 0.05255010 0.02090063 0.33294772
v 0.02532701 0.02906488 0.33834733
v 0.04768073 0.02983770 0.33623323
v 0.05241702 0.02580523 0.33684320
v 0.05437081 0.01752009 0.33282988
v 0.05442828 0.02267078 0.33659367
v 0.05227185 0.02833524 0.33933853
v 0.05455833 0.02919009 0.34383705
v 0.04792571 0.04795361 0.39530320
v 0.03362610 0.05340651 0.39499821
v 0.02796433 0.05313883 0.39383372
v 0.02654284 0.03537264 0.34602740
v 0.02872649 0.03164238 0.34060005
v 0.04698208 0.03326573 0.34003861
v 0.05089875 0.03135743 0.34141797
v 0.05140080 0.03266129 0.34393409
v 0.05378105 0.03296783 0.34796127
v 0.04988858 0.04492278 0.37816861
v 0.04107230 0.05311293 0.39492890
v 0.04824630 0.04747869 0.38774789
v 0.03368054 0.05276753 0.39118590
v 0.04116304 0.05218900 0.38927975
v 0.02903801 0.05219763 0.38891238
v 0.02995744 0.03476388 0.34423214
v 0.03086175 0.05030228 0.38078177
v 0.03245564 0.04841125 0.37360077
v 0.03345976 0.04699514 0.36883192
v 0.02995744 0.03789833 0.34901486
v 0.04660100 0.03750544 0.34626307
v 0.05073845 0.03595117 0.34868908
v 0.05218414 0.03719459 0.35410255
v 0.05171535 0.03968143 0.36025770
v 0.05005795 0.04300152 0.36765357
v 0.04798317 0.04556607 0.37264423
v 0.04707886 0.04682676 0.37608224
v 0.04814347 0.04695196 0.38236908
v 0.04186471 0.05113987 0.38351970
v 0.04347674 0.04886458 0.37447413
v 0.04406349 0.04652022 0.36645443
v 0.03475120 0.04472849 0.36224703
v 0.03414631 0.04267771 0.35748511
v 0.03268247 0.04022542 0.35262615
v 0.04609289 0.04174515 0.35458776
v 0.04845499 0.03905108 0.35178051
v 0.04913549 0.04078668 0.35736727
v 0.04785917 0.04360164 0.36371650
v 0.04494965 0.04375707 0.35887140
f 1 2 3
f 1 3 4
f 1 4 5
f 1 5 2
f 2 6 7
f 2 7 3
f 2 5 8
f 2 8 19
f 2 19 9
f 2 9 10
f 2 10 6
f 3 7 11
f 3 11 12
f 3 12 13
f 3 13 4
f 4 14 5
f 4 13 15
f 4 15 16
f 4 16 14
f 5 14 16
f 5 16 17
f 5 17 8
f 6 11 7
f 6 10 18
f 6 18 11
f 8 17 19
f 9 19 10
f 10 19 20
f 10 20 21
f 10 21 18
f 11 13 12
f 11 18 22
f 11 22 13
f 13 22 23
f 13 23 15
f 15 24 25
f 15 25 16
f 15 23 21
f 15 21 24
f 16 26 17
f 16 25 26
f 17 26 27
f 17 27 28
f 17 28 19
f 18 21 23
f 18 23 22
f 19 28 29
f 19 29 30
f 19 30 20
f 20 30 31
f 20 31 32
f 20 32 24
f 20 24 21
f 24 32 25
f 25 32 33
f 25 33 34
f 25 34 35
f 25 35 26
f 26 36 27
f 26 35 37
f 26 37 36
f 27 38 28
f 27 36 39
f 27 39 38
f 28 38 40
f 28 40 29
f 29 41 30
f 29 40 42
f 29 42 43
f 29 43 44
f 29 44 45
f 29 45 41
f 30 41 31
f 31 41 46
f 31 46 33
f 31 33 32
f 33 46 47
f 33 47 34
f 34 47 48
f 34 48 49
f 34 49 35
f 35 49 50
f 35 50 51
f 35 51 52
f 35 52 53
f 35 53 37
f 36 37 53
f 36 53 54
f 36 54 39
f 38 54 40
f 38 39 54
f 40 54 42
f 41 45 46
f 42 54 55
f 42 55 43
f 43 55 56
f 43 56 44
f 44 56 57
f 44 57 58
f 44 58 45
f 45 58 59
f 45 59 46
f 46 59 60
f 46 60 61
f 46 61 47
f 47 61 48
f 48 61 62
f 48 62 49
f 49 62 63
f 49 63 50
f 50 63 51
f 51 63 55
f 51 55 52
f 52 55 54
f 52 54 53
f 55 63 56
f 56 63 64
f 56 64 57
f 57 64 58
f 58 64 60
f 58 60 59
f 60 64 63
f 60 63 62
f 60 62 61

