# https://github.com/mikedh/trimesh
v -0.03329931 -0.02377920 0.30415313
v -0.03285465 -0.02928866 0.30108198
v -0.03008642 -0.02270843 0.30823387
v -0.03304879 -0.01778469 0.30788578
v -0.03329931 0.02382911 0.30417240
v -0.03297364 0.02920129 0.30108198
v -0.01429127 -0.04627463 0.29511180
v -0.02940376 -0.03260166 0.30108583
v -0.02716163 -0.02593906 0.30823387
v -0.03026805 0.02246547 0.30823387
v -0.03304879 0.01784375 0.30788578
v -0.02746851 0.02575101 0.30823387
v -0.02946013 0.03261495 0.30108198
v -0.01420359 0.04633368 0.29511180
v -0.00757739 -0.04674138 0.29511180
v -0.00568598 -0.03324230 0.30823259
v -0.01268796 -0.03251929 0.30823259
v -0.01814924 -0.03114650 0.30823387
v -0.02590277 -0.03493540 0.30108198
v -0.02351659 -0.02862972 0.30823387
v -0.02399257 0.02840507 0.30823387
v -0.02578378 0.03504937 0.30108198
v -0.02013460 0.03050086 0.30823387
v -0.01559396 0.03199262 0.30823259
v -0.00959406 0.03295357 0.30823259
v -0.00299918 0.03343863 0.30823259
v -0.00757739 0.04675467 0.29511180
v -0.00192195 -0.04640276 0.29511180
v 0.00172935 -0.03325145 0.30823259
v 0.00844322 -0.03214406 0.30823387
v 0.00935135 0.03182789 0.30823387
v 0.00264374 0.03322813 0.30823259
v -0.00175285 0.04639775 0.29511180
v 0.00378359 -0.04513979 0.29511180
v 0.01304649 -0.03024961 0.30823387
v 0.01183148 0.04046730 0.29619717
v 0.00378359 0.04523545 0.29511180
v 0.01486274 0.02916468 0.30823387
v 0.03039485 -0.00724168 0.29619717
v 0.02972472 -0.01234845 0.29619717
v 0.02764542 -0.02068585 0.29619717
v 0.02562248 -0.02576517 0.29619717
v 0.02354319 -0.02969135 0.29619717
v 0.02018625 -0.03384632 0.29619717
v 0.01585855 -0.03786402 0.29619717
v 0.01176885 -0.04045401 0.29619717
v 0.03068294 -0.00051501 0.29619717
v 0.01701720 -0.02743082 0.30823387
v 0.01800048 0.03606523 0.29619717
v 0.02235323 0.03129708 0.29619717
v 0.02574774 0.02561373 0.29619717
v 0.02750763 0.02118420 0.29619717
v 0.02931762 0.01477785 0.29619717
v 0.02998150 0.01083337 0.29619717
v 0.03052011 0.00567169 0.29619717
v 0.01944096 0.02462532 0.30823387
v 0.02586048 -0.00712270 0.30823387
v 0.02465173 -0.01345583 0.30823387
v 0.02279163 -0.01886462 0.30823387
v 0.02019251 -0.02354126 0.30823387
v 0.02595442 0.00532391 0.30823387
v 0.02608594 -0.00171392 0.30823387
v 0.02276032 0.01897858 0.30823387
v 0.02465173 0.01350573 0.30823387
f 1 2 3
f 1 3 4
f 1 4 5
f 1 5 6
f 1 6 2
f 2 7 8
f 2 8 9
f 2 9 3
f 2 6 7
f 3 9 20
f 3 20 18
f 3 18 30
f 3 30 35
f 3 35 48
f 3 48 60
f 3 60 59
f 3 59 58
f 3 58 57
f 3 57 62
f 3 62 61
f 3 61 64
f 3 64 63
f 3 63 56
f 3 56 38
f 3 38 31
f 3 31 23
f 3 23 21
f 3 21 12
f 3 12 10
f 3 10 4
f 4 10 11
f 4 11 5
f 5 11 10
f 5 10 6
f 6 10 12
f 6 12 13
f 6 13 14
f 6 14 7
f 7 15 16
f 7 16 17
f 7 17 18
f 7 18 19
f 7 19 8
f 7 14 27
f 7 27 33
f 7 33 37
f 7 37 34
f 7 34 28
f 7 28 15
f 8 19 20
f 8 20 9
f 12 21 13
f 13 22 14
f 13 21 22
f 14 22 23
f 14 23 24
f 14 24 25
f 14 25 26
f 14 26 27
f 15 28 29
f 15 29 16
f 16 29 30
f 16 30 18
f 16 18 17
f 18 20 19
f 21 23 22
f 23 31 26
f 23 26 25
f 23 25 24
f 26 31 32
f 26 32 27
f 27 32 33
f 28 34 30
f 28 30 29
f 30 34 35
f 31 36 37
f 31 37 33
f 31 33 32
f 31 38 36
f 34 39 40
f 34 40 41
f 34 41 42
f 34 42 43
f 34 43 44
f 34 44 45
f 34 45 46
f 34 46 35
f 34 37 47
f 34 47 39
f 35 46 45
f 35 45 48
f 36 49 37
f 36 38 49
f 37 49 50
f 37 50 51
f 37 51 52
f 37 52 53
f 37 53 54
f 37 54 55
f 37 55 47
f 38 56 49
f 39 57 40
f 39 47 57
f 40 57 58
f 40 58 41
f 41 58 59
f 41 59 42
f 42 59 43
f 43 59 60
f 43 60 44
f 44 60 48
f 44 48 45
f 47 55 61
f 47 61 62
f 47 62 57
f 49 56 50
f 50 56 51
f 51 56 63
f 51 63 52
f 52 63 64
f 52 64 53
f 53 64 54
f 54 61 55
f 54 64 61

