# https://github.com/mikedh/trimesh
v 0.02421896 -0.02195499 0.34653630
v 0.02609112 -0.02190331 0.33255601
v 0.02609112 -0.02534710 0.33501218
v 0.02609112 -0.02794522 0.33721946
v 0.02592778 -0.03474824 0.34538993
v 0.02999877 -0.03184004 0.34928913
v 0.03096940 -0.02466116 0.34928913
v 0.02740728 0.00929756 0.33974602
v 0.02609426 0.00929756 0.32891324
v 0.02609112 -0.01266191 0.32891324
v 0.02609112 -0.01757155 0.32990878
v 0.04812035 -0.02136771 0.32931548
v 0.04785649 -0.02436987 0.33128142
v 0.04673194 -0.03150177 0.33777003
v 0.02932655 -0.03116820 0.33999239
v 0.02627331 -0.03093798 0.34024379
v 0.02986684 -0.03424553 0.34361254
v 0.02945534 -0.03702687 0.34778827
v 0.03566863 -0.03859608 0.34928913
v 0.05412005 -0.02584981 0.34928913
v 0.03158508 0.00929756 0.33958261
v 0.05361745 0.00929756 0.32870961
v 0.04887110 0.00834382 0.32426739
v 0.02729734 0.00823106 0.32605735
v 0.02729734 0.00361741 0.32496125
v 0.02729734 -0.00118417 0.32472996
v 0.02729734 -0.00594816 0.32542382
v 0.02729734 -0.00943894 0.32647216
v 0.04864807 -0.01523184 0.32632383
v 0.05355777 -0.01737893 0.33188980
v 0.05371169 -0.02033410 0.33381803
v 0.05188351 -0.02395173 0.33460240
v 0.04812978 -0.02758345 0.33412474
v 0.04722197 -0.03412807 0.34128710
v 0.04636442 -0.03664632 0.34474132
v 0.04640840 -0.03869944 0.34835141
v 0.04976320 -0.03678257 0.34890449
v 0.05290440 -0.03421734 0.34881398
v 0.05448128 -0.03010170 0.34538741
v 0.05567180 -0.02008040 0.33654823
v 0.05547076 -0.01272769 0.33933121
v 0.05565295 0.00885592 0.33797366
v 0.05605816 0.00795857 0.33094957
v 0.05365515 0.00626251 0.32813139
v 0.04930144 0.00437382 0.32391291
v 0.04904701 0.00001858 0.32360872
v 0.04929830 -0.00444473 0.32392046
v 0.04890251 -0.00860735 0.32431767
v 0.05428967 -0.01060879 0.32977805
v 0.05214109 -0.00953290 0.32732691
v 0.05586027 -0.01481370 0.33321970
v 0.05430537 -0.02312485 0.33666890
v 0.05264682 -0.02684114 0.33819992
v 0.05180812 -0.03018157 0.34105581
v 0.05087204 -0.03396833 0.34539747
v 0.05455667 -0.02820832 0.34222984
v 0.05504042 -0.02571826 0.34021111
v 0.05630632 -0.00985238 0.33228450
v 0.05630004 -0.00109020 0.33044677
v 0.05531998 0.00350935 0.32950403
v 0.05291697 0.00476848 0.32722887
v 0.05368970 -0.00386685 0.32787999
v 0.05287927 -0.00709922 0.32753055
v 0.05577232 -0.00551123 0.33029593
f 1 2 3
f 1 3 4
f 1 4 5
f 1 5 6
f 1 6 7
f 1 7 8
f 1 8 9
f 1 9 10
f 1 10 11
f 1 11 2
f 2 12 13
f 2 13 3
f 2 11 12
f 3 13 4
f 4 13 14
f 4 14 15
f 4 15 16
f 4 16 5
f 5 17 18
f 5 18 6
f 5 16 17
f 6 18 19
f 6 19 20
f 6 20 7
f 7 20 8
f 8 21 22
f 8 22 9
f 8 20 21
f 9 22 23
f 9 23 24
f 9 24 25
f 9 25 26
f 9 26 10
f 10 27 11
f 10 26 27
f 11 27 28
f 11 28 29
f 11 29 12
f 12 29 30
f 12 30 31
f 12 31 32
f 12 32 13
f 13 32 33
f 13 33 14
f 14 34 35
f 14 35 17
f 14 17 15
f 14 33 34
f 15 17 16
f 17 35 18
f 18 35 19
f 19 35 36
f 19 36 37
f 19 37 20
f 20 37 38
f 20 38 39
f 20 39 40
f 20 40 41
f 20 41 42
f 20 42 21
f 21 42 22
f 22 42 43
f 22 43 44
f 22 44 23
f 23 44 45
f 23 45 25
f 23 25 24
f 25 45 46
f 25 46 26
f 26 46 47
f 26 47 48
f 26 48 27
f 27 48 29
f 27 29 28
f 29 49 30
f 29 48 50
f 29 50 49
f 30 49 51
f 30 51 31
f 31 40 52
f 31 52 32
f 31 51 40
f 32 52 53
f 32 53 33
f 33 53 54
f 33 54 34
f 34 54 55
f 34 55 37
f 34 37 36
f 34 36 35
f 37 55 38
f 38 55 54
f 38 54 56
f 38 56 39
f 39 56 57
f 39 57 40
f 40 57 52
f 40 51 58
f 40 58 41
f 41 58 42
f 42 58 59
f 42 59 43
f 43 59 60
f 43 60 44
f 44 60 61
f 44 61 45
f 45 61 46
f 46 61 62
f 46 62 47
f 47 62 63
f 47 63 48
f 48 63 50
f 49 58 51
f 49 50 63
f 49 63 64
f 49 64 58
f 52 57 53
f 53 56 54
f 53 57 56
f 58 64 59
f 59 64 62
f 59 62 60
f 60 62 61
f 62 64 63

