# https://github.com/mikedh/trimesh
v -0.01605022 -0.02682566 0.27897224
v 0.04964639 -0.02820834 0.27264748
v 0.04762414 -0.03855568 0.27301898
v -0.01437823 -0.07695175 0.28038626
v -0.01430554 -0.04625920 0.29510921
v -0.01420641 0.04631984 0.29510921
v -0.01332085 0.07710355 0.28080884
v 0.04775632 0.03816048 0.27304220
v 0.05146377 0.00079763 0.27247334
v 0.04593894 -0.03449879 0.27739105
v 0.05069717 -0.00971684 0.27369232
v 0.04934900 -0.01796737 0.27567055
v 0.04355321 -0.05133411 0.27395004
v 0.04523181 -0.04484613 0.27486718
v 0.04028854 -0.05818675 0.27478824
v 0.03660752 -0.06383904 0.27563340
v 0.03177660 -0.06886836 0.27688024
v 0.02522081 -0.07297083 0.27833141
v 0.01038439 -0.07698214 0.28033750
v 0.00269192 -0.07757471 0.28081348
v -0.00538386 -0.07748354 0.28119194
v -0.00757793 -0.04673023 0.29510921
v 0.00639276 -0.04273412 0.29619352
v 0.00630024 0.04282514 0.29619352
v -0.00757793 0.04674528 0.29510921
v -0.00562177 0.07762015 0.28081581
v 0.00349156 0.07765054 0.28013782
v 0.03218633 0.06854914 0.27682684
v 0.03792925 0.06195480 0.27531763
v 0.04599841 0.04451171 0.27342531
v 0.04905162 0.03188523 0.27365981
v 0.05110030 0.01429019 0.27338351
v 0.04155740 -0.03358713 0.28169811
v 0.04051984 -0.04233907 0.28041180
v 0.04433964 -0.02740304 0.28029803
v 0.04809336 0.00002272 0.27839874
v 0.04350696 -0.00695148 0.28336289
v 0.04201340 -0.01790659 0.28398979
v 0.02632446 -0.02410587 0.29619352
v 0.02187023 -0.03174862 0.29619352
v 0.01754156 -0.07555386 0.28030267
v 0.01444210 -0.03881398 0.29619352
v 0.01575722 0.03782621 0.29619352
v 0.02514151 0.07306186 0.27900475
v 0.01776625 0.07561450 0.27957592
v 0.01052317 0.07705796 0.28029106
v 0.02235927 0.03129265 0.29619352
v 0.04194070 0.05171382 0.27604669
v 0.02695889 0.02244955 0.29619352
v 0.04400260 0.03414918 0.27931820
v 0.04794136 0.01690362 0.27789257
v 0.03888090 -0.02401471 0.28600053
v 0.02845905 -0.01831683 0.29619352
v 0.04350696 0.00699692 0.28336289
v 0.04281305 0.00002272 0.28421269
v 0.03067295 -0.00052428 0.29619352
v 0.03005835 -0.00979282 0.29619352
v 0.04154419 0.04037885 0.28005887
v 0.02964861 0.01280115 0.29619352
v 0.04382417 0.02621774 0.28101548
v 0.04079741 0.01770892 0.28518788
v 0.03052095 0.00567501 0.29619352
f 1 2 3
f 1 3 4
f 1 4 5
f 1 5 6
f 1 6 7
f 1 7 8
f 1 8 9
f 1 9 2
f 2 10 3
f 2 9 11
f 2 11 12
f 2 12 10
f 3 13 4
f 3 10 14
f 3 14 13
f 4 13 15
f 4 15 16
f 4 16 17
f 4 17 18
f 4 18 19
f 4 19 20
f 4 20 21
f 4 21 5
f 5 21 22
f 5 22 23
f 5 23 24
f 5 24 6
f 6 24 25
f 6 25 26
f 6 26 7
f 7 26 27
f 7 27 28
f 7 28 29
f 7 29 30
f 7 30 8
f 8 31 32
f 8 32 9
f 8 30 31
f 9 32 11
f 10 33 34
f 10 34 14
f 10 12 35
f 10 35 33
f 11 32 36
f 11 36 12
f 12 36 37
f 12 37 38
f 12 38 35
f 13 14 15
f 14 34 15
f 15 34 16
f 16 34 39
f 16 39 17
f 17 39 40
f 17 40 18
f 18 41 19
f 18 40 41
f 19 41 20
f 20 41 23
f 20 23 22
f 20 22 21
f 23 41 42
f 23 42 40
f 23 40 39
f 23 39 53
f 23 53 57
f 23 57 56
f 23 56 62
f 23 62 59
f 23 59 49
f 23 49 47
f 23 47 43
f 23 43 24
f 24 43 44
f 24 44 45
f 24 45 46
f 24 46 25
f 25 46 26
f 26 46 27
f 27 46 45
f 27 45 28
f 28 45 44
f 28 44 47
f 28 47 29
f 29 48 30
f 29 47 49
f 29 49 48
f 30 48 50
f 30 50 31
f 31 50 51
f 31 51 32
f 32 51 36
f 33 35 52
f 33 52 53
f 33 53 34
f 34 53 39
f 35 38 52
f 36 51 54
f 36 54 55
f 36 55 37
f 37 56 57
f 37 57 38
f 37 55 56
f 38 57 52
f 40 42 41
f 43 47 44
f 48 58 50
f 48 49 58
f 49 59 58
f 50 59 60
f 50 60 51
f 50 58 59
f 51 60 61
f 51 61 54
f 52 57 53
f 54 62 56
f 54 56 55
f 54 61 62
f 59 62 61
f 59 61 60

