# https://github.com/mikedh/trimesh
v 0.03106028 0.05061055 0.44330515
v 0.02744220 0.04330168 0.45604196
v 0.04169166 0.04469337 0.45035308
v 0.05161515 0.04820763 0.44051813
v -0.00568417 0.04993973 0.44446130
v 0.01483137 0.05038027 0.44497812
v 0.02744220 0.02986539 0.46633249
v 0.04428723 0.03022583 0.46080439
v -0.01981565 0.03796521 0.45843083
v 0.00313817 0.03261873 0.46681869
v 0.05828762 0.03767486 0.44950703
v 0.06611367 0.04254076 0.43934666
v -0.04059337 0.04157959 0.44011232
v -0.02049731 0.04731655 0.44521930
v 0.02170047 0.01721004 0.47234678
v 0.04411682 0.01240421 0.46708284
v 0.06064724 0.01848158 0.45697224
v -0.01099331 0.02373796 0.47009190
v -0.03561196 0.03539209 0.45238975
v -0.03626741 0.01697976 0.46241995
v 0.00108006 0.01374584 0.47473565
v 0.07317941 0.02716211 0.44134122
v 0.07686304 -0.01094410 0.44106558
v 0.06301995 -0.04423447 0.43889109
v 0.04435278 -0.05167349 0.43654433
v -0.05705824 -0.01430818 0.43852357
v -0.05286337 0.02449888 0.44157475
v -0.04647930 0.02139512 0.45286829
v 0.01504111 0.00238206 0.47565062
v 0.03528137 0.00225190 0.47146244
v 0.04610938 -0.00636855 0.46686079
v 0.06624476 0.00380378 0.45524950
v -0.02092991 0.00767848 0.47191035
v -0.03966263 -0.00057152 0.46293294
v -0.00930225 -0.00661886 0.47472417
v 0.07656152 0.00517545 0.44260456
v 0.06726726 -0.02073598 0.45144415
v 0.07255018 -0.03041772 0.44044539
v 0.05719957 -0.03788677 0.44980180
v 0.04305499 -0.04294290 0.45132164
v 0.02453201 -0.05053211 0.44400572
v 0.00869637 -0.05157337 0.44208774
v -0.02520344 -0.04916044 0.43853123
v -0.05351882 0.00606653 0.44691525
v -0.04341180 -0.03767652 0.44166279
v -0.04328071 -0.01745199 0.45706796
v -0.05059552 -0.00744986 0.45196863
v 0.02922502 -0.01050357 0.47242335
v 0.01194740 -0.01058366 0.47520654
v 0.05182490 -0.02678331 0.45928455
v 0.05969028 -0.01050357 0.45939174
v 0.03792938 -0.02877572 0.46440302
v -0.02448244 -0.01122444 0.47015698
v -0.00041437 -0.02075600 0.47270282
v 0.03155842 -0.04049994 0.45797909
v 0.01820038 -0.04016954 0.46052110
v -0.00744078 -0.04960098 0.44505469
v -0.01610581 -0.04116074 0.45637886
v -0.02828404 -0.04208186 0.44955296
v -0.03270177 -0.02836523 0.45980520
v 0.02409941 -0.02583215 0.46921905
v -0.01661706 -0.02850540 0.46638991
v 0.01089868 -0.02905607 0.46900466
v -0.00130578 -0.03770655 0.46258456
f 1 2 3
f 1 3 4
f 1 4 5
f 1 5 6
f 1 6 2
f 2 7 8
f 2 8 3
f 2 6 5
f 2 5 9
f 2 9 10
f 2 10 7
f 3 8 11
f 3 11 12
f 3 12 4
f 4 12 13
f 4 13 5
f 5 13 14
f 5 14 9
f 7 10 15
f 7 15 16
f 7 16 8
f 8 16 17
f 8 17 11
f 9 18 10
f 9 14 19
f 9 19 20
f 9 20 18
f 10 18 21
f 10 21 15
f 11 17 22
f 11 22 12
f 12 22 23
f 12 23 24
f 12 24 25
f 12 25 13
f 13 26 27
f 13 27 28
f 13 28 19
f 13 19 14
f 13 25 26
f 15 29 30
f 15 30 16
f 15 21 29
f 16 30 31
f 16 31 32
f 16 32 17
f 17 32 22
f 18 20 33
f 18 33 21
f 19 28 20
f 20 28 34
f 20 34 33
f 21 33 35
f 21 35 29
f 22 36 23
f 22 32 36
f 23 36 32
f 23 32 37
f 23 37 38
f 23 38 24
f 24 38 39
f 24 39 40
f 24 40 25
f 25 40 41
f 25 41 42
f 25 42 43
f 25 43 26
f 26 44 27
f 26 43 45
f 26 45 46
f 26 46 47
f 26 47 44
f 27 44 28
f 28 44 47
f 28 47 34
f 29 48 30
f 29 35 49
f 29 49 48
f 30 48 31
f 31 50 51
f 31 51 32
f 31 48 52
f 31 52 50
f 32 51 37
f 33 34 53
f 33 53 35
f 34 47 46
f 34 46 53
f 35 54 49
f 35 53 54
f 37 51 50
f 37 50 39
f 37 39 38
f 39 50 52
f 39 52 55
f 39 55 40
f 40 55 41
f 41 55 56
f 41 56 57
f 41 57 42
f 42 57 43
f 43 57 58
f 43 58 59
f 43 59 45
f 45 59 60
f 45 60 46
f 46 60 53
f 48 49 61
f 48 61 52
f 49 54 61
f 52 61 55
f 53 60 62
f 53 62 54
f 54 63 61
f 54 62 63
f 55 61 56
f 56 61 63
f 56 63 64
f 56 64 57
f 57 64 58
f 58 64 62
f 58 62 60
f 58 60 59
f 62 64 63

