# https://github.com/mikedh/trimesh
v 0.03497213 -0.05322944 0.39414082
v 0.02805934 -0.05295822 0.39311793
v 0.03914898 -0.05213060 0.38789813
v 0.04091040 -0.05303371 0.39414082
v 0.02750694 -0.04133515 0.39414082
v 0.02920061 -0.05201317 0.38827129
v 0.02999794 -0.03184824 0.34929175
v 0.03089689 -0.03862580 0.35008636
v 0.04131167 -0.05138686 0.38434216
v 0.04323725 -0.05166646 0.39414082
v 0.04187710 -0.05130297 0.38434216
v 0.04188491 -0.05185659 0.38789813
v 0.04194745 -0.05220889 0.39062876
v 0.03735890 -0.04120094 0.39414082
v 0.03096724 -0.02466805 0.34929175
v 0.03018033 -0.05102617 0.38395584
v 0.03662671 -0.03868732 0.34929175
v 0.03269479 -0.04018878 0.35264138
v 0.03395071 -0.04202297 0.35614906
v 0.03439628 -0.04346293 0.35930553
v 0.03440931 -0.04435206 0.36147862
v 0.03410705 -0.04569136 0.36506531
v 0.03347127 -0.04694118 0.36881444
v 0.03231958 -0.04853491 0.37420985
v 0.03122781 -0.04982947 0.37907406
v 0.03068062 -0.05047256 0.38164665
v 0.04348999 -0.04880054 0.37445131
v 0.04801080 -0.04769051 0.39414082
v 0.04426127 -0.04995529 0.38434216
v 0.04823488 -0.04747522 0.38838543
v 0.04781537 -0.04799808 0.39102387
v 0.04282816 -0.05095347 0.38434216
v 0.04261971 -0.05039706 0.38091351
v 0.04827657 -0.04105834 0.39414082
v 0.05412104 -0.02665044 0.34929175
v 0.05238829 -0.03497979 0.34929175
v 0.04599402 -0.03978336 0.35027074
v 0.04423000 -0.04380963 0.35859872
v 0.04016779 -0.04461768 0.36124594
v 0.04421176 -0.04700828 0.36823934
v 0.04530874 -0.04572770 0.36524092
v 0.04681480 -0.04613033 0.37162410
v 0.04632755 -0.04717325 0.37531176
v 0.04890714 -0.04655253 0.38447386
v 0.04927454 -0.04596257 0.38226126
v 0.05000933 -0.04459532 0.37678683
v 0.05102032 -0.04252346 0.36959149
v 0.05234139 -0.03924932 0.36128106
v 0.05345661 -0.03549705 0.35415596
v 0.04724995 -0.04746683 0.38137008
v 0.05344097 -0.03494065 0.35134192
v 0.05264885 -0.03763881 0.35593834
v 0.05049919 -0.03683914 0.35013026
v 0.04924848 -0.03915985 0.35333502
v 0.04605135 -0.04185521 0.35491106
v 0.04507162 -0.04444713 0.36091230
v 0.05134603 -0.04121492 0.36400730
v 0.04933968 -0.04299319 0.36550871
v 0.04813326 -0.04446390 0.36813398
v 0.04958721 -0.04035375 0.35717195
v 0.04972792 -0.04194189 0.36258492
v 0.04945433 -0.04424861 0.37140898
v 0.04961327 -0.04536422 0.37946917
v 0.05246646 -0.03860064 0.35905090
f 1 2 3
f 1 3 4
f 1 4 10
f 1 10 28
f 1 28 34
f 1 34 14
f 1 14 5
f 1 5 2
f 2 6 3
f 2 5 7
f 2 7 8
f 2 8 6
f 3 6 9
f 3 9 4
f 4 9 11
f 4 11 12
f 4 12 13
f 4 13 10
f 5 14 15
f 5 15 7
f 6 16 9
f 6 8 16
f 7 15 35
f 7 35 36
f 7 36 17
f 7 17 8
f 8 17 18
f 8 18 19
f 8 19 20
f 8 20 21
f 8 21 22
f 8 22 23
f 8 23 24
f 8 24 25
f 8 25 26
f 8 26 16
f 9 16 26
f 9 26 25
f 9 25 27
f 9 27 11
f 10 13 29
f 10 29 30
f 10 30 31
f 10 31 28
f 11 32 12
f 11 27 33
f 11 33 32
f 12 32 13
f 13 32 29
f 14 34 15
f 15 34 35
f 17 36 37
f 17 37 18
f 18 37 19
f 19 37 38
f 19 38 20
f 20 38 21
f 21 38 39
f 21 39 22
f 22 39 23
f 23 39 40
f 23 40 24
f 24 27 25
f 24 40 27
f 27 40 41
f 27 41 42
f 27 42 43
f 27 43 32
f 27 32 33
f 28 31 30
f 28 30 44
f 28 44 45
f 28 45 46
f 28 46 47
f 28 47 48
f 28 48 49
f 28 49 34
f 29 32 50
f 29 50 30
f 30 50 44
f 32 43 50
f 34 49 35
f 35 49 51
f 35 51 36
f 36 51 52
f 36 52 53
f 36 53 37
f 37 53 54
f 37 54 55
f 37 55 38
f 38 56 40
f 38 40 39
f 38 55 56
f 40 56 41
f 41 57 58
f 41 58 59
f 41 59 42
f 41 56 55
f 41 55 60
f 41 60 61
f 41 61 57
f 42 62 43
f 42 59 62
f 43 62 50
f 44 50 63
f 44 63 45
f 45 63 46
f 46 63 62
f 46 62 47
f 47 57 48
f 47 62 57
f 48 57 64
f 48 64 49
f 49 52 51
f 49 64 52
f 50 62 63
f 52 60 54
f 52 54 53
f 52 64 57
f 52 57 60
f 54 60 55
f 57 62 59
f 57 59 58
f 57 61 60

