# https://github.com/mikedh/trimesh
v -0.02538878 -0.00179092 0.32890976
v 0.02036465 -0.02284965 0.32890976
v -0.02460775 -0.00926140 0.32890976
v -0.02403331 -0.00495177 0.33694891
v -0.02399804 0.00531249 0.33697173
v -0.02534343 0.00334801 0.32891327
v -0.02473876 0.00856851 0.32891327
v 0.02608887 0.00928904 0.32891327
v 0.02608383 0.00016677 0.32891152
v 0.02607879 -0.02664947 0.33611515
v 0.01660057 -0.02633678 0.32890976
v 0.02607879 -0.01763595 0.32994362
v 0.02607879 -0.02189800 0.33255195
v -0.02305072 -0.01485576 0.32890976
v -0.02312127 -0.00988677 0.33751937
v -0.02384183 0.00031631 0.33707002
v -0.02072778 0.01607977 0.33900433
v -0.02267784 0.01054659 0.33777037
v -0.02155416 0.01560394 0.33381399
v -0.01803195 0.02075647 0.33381399
v -0.01396050 0.02398529 0.33381399
v -0.00929446 0.02600416 0.33381399
v -0.00337876 0.02771033 0.33381399
v 0.00240088 0.02868918 0.33381399
v 0.00747004 0.02904265 0.33381399
v 0.02608887 0.00928904 0.33978016
v 0.02608887 0.00016677 0.33860062
v 0.02607879 -0.03089792 0.34024531
v 0.01253416 0.02863480 0.33381399
v 0.01673662 0.02745203 0.33381399
v 0.02531791 0.02457668 0.33443360
v 0.02531791 0.02902906 0.33831100
v 0.02531791 0.03234625 0.34199707
v 0.02531791 0.03479336 0.34554096
v 0.01234268 -0.02826048 0.32890976
v -0.02003744 -0.01989953 0.32890976
v -0.01885330 -0.01886630 0.34013121
v -0.02135764 -0.01471981 0.33860939
v -0.01914052 0.00015997 0.33998728
v -0.01844011 0.01945814 0.34036291
v -0.01892888 0.00928904 0.34011542
v -0.01434346 0.02323756 0.34174080
v -0.00883088 0.02601775 0.34242360
v -0.00434120 0.02742484 0.34285364
v 0.02607879 -0.02191839 0.34654147
v 0.02560009 -0.03465015 0.34533560
v 0.02531287 0.02229271 0.34684162
v 0.00786308 -0.02908298 0.32890976
v -0.01565862 -0.02382170 0.32890976
v -0.01592568 -0.02206794 0.34145469
v -0.01750287 0.00015997 0.34085965
v -0.01663113 0.00928904 0.34121422
v -0.01545706 0.00015997 0.34161442
v -0.01498340 0.00016677 0.34173553
v -0.01345157 0.00928904 0.34197776
v -0.01268565 -0.02430432 0.34205324
v -0.00864444 -0.02603089 0.34244466
v -0.00328302 -0.02766230 0.34295720
v -0.00397335 -0.02802936 0.32890976
v 0.00117139 -0.02885866 0.32890976
v -0.01344653 0.00015997 0.34197952
v -0.01162748 -0.02580657 0.32890976
v -0.01644973 0.00015997 0.34128969
v -0.00794907 -0.02699614 0.32890976
f 1 2 11
f 1 11 35
f 1 35 48
f 1 48 60
f 1 60 59
f 1 59 64
f 1 64 62
f 1 62 49
f 1 49 36
f 1 36 14
f 1 14 3
f 1 3 4
f 1 4 5
f 1 5 6
f 1 6 7
f 1 7 8
f 1 8 9
f 1 9 2
f 2 10 11
f 2 9 12
f 2 12 13
f 2 13 10
f 3 14 15
f 3 15 4
f 4 15 16
f 4 16 5
f 5 7 6
f 5 16 17
f 5 17 18
f 5 18 7
f 7 18 17
f 7 17 19
f 7 19 20
f 7 20 21
f 7 21 22
f 7 22 23
f 7 23 24
f 7 24 25
f 7 25 8
f 8 26 27
f 8 27 28
f 8 28 10
f 8 10 13
f 8 13 12
f 8 12 9
f 8 25 29
f 8 29 30
f 8 30 31
f 8 31 32
f 8 32 33
f 8 33 34
f 8 34 26
f 10 28 11
f 11 28 35
f 14 36 37
f 14 37 38
f 14 38 15
f 15 38 39
f 15 39 17
f 15 17 16
f 17 40 19
f 17 39 41
f 17 41 40
f 19 40 20
f 20 42 21
f 20 40 42
f 21 42 43
f 21 43 22
f 22 43 44
f 22 44 23
f 23 34 24
f 23 44 34
f 24 34 25
f 25 34 29
f 26 34 45
f 26 45 27
f 27 45 28
f 28 46 35
f 28 45 46
f 29 34 33
f 29 33 30
f 30 33 32
f 30 32 31
f 34 44 47
f 34 47 45
f 35 46 48
f 36 49 50
f 36 50 37
f 37 51 41
f 37 41 39
f 37 39 38
f 37 50 51
f 40 41 51
f 40 51 52
f 40 52 42
f 42 52 53
f 42 53 54
f 42 54 55
f 42 55 47
f 42 47 43
f 43 47 44
f 45 56 57
f 45 57 58
f 45 58 46
f 45 47 56
f 46 58 59
f 46 59 60
f 46 60 48
f 47 55 61
f 47 61 56
f 49 62 56
f 49 56 50
f 50 56 54
f 50 54 53
f 50 53 63
f 50 63 51
f 51 63 52
f 52 63 53
f 54 56 61
f 54 61 55
f 56 62 57
f 57 62 64
f 57 64 58
f 58 64 59

