# https://github.com/mikedh/trimesh
v -0.05489684 0.00115807 0.27349595
v -0.05426942 0.01013512 0.27586050
v -0.05393860 0.02051623 0.27642814
v -0.05455461 0.02466868 0.27135195
v -0.05468389 0.01599037 0.27130133
v -0.05471812 -0.01822996 0.27207144
v -0.05427322 -0.01007444 0.27585327
v -0.05313246 0.00002287 0.27855407
v -0.05121979 0.00928372 0.28259983
v -0.05067223 0.01721519 0.28329763
v -0.05197649 0.02849251 0.27973996
v -0.05191946 0.03965034 0.27786712
v -0.05414013 0.03383991 0.27230645
v -0.05224267 0.04623749 0.27354657
v -0.03094853 0.07282510 0.27817443
v -0.01950292 0.07615601 0.27989542
v -0.01605023 -0.02683359 0.27896985
v -0.05372186 -0.03799142 0.27165204
v -0.05439491 -0.02980603 0.27221606
v -0.05105628 -0.01188180 0.28283122
v -0.05281305 -0.02324875 0.27869869
v -0.05053534 0.00002287 0.28407496
v -0.04747431 0.01058323 0.28942594
v -0.04692674 0.01936610 0.28943678
v -0.04860365 0.02741706 0.28551033
v -0.04848578 0.03839565 0.28316747
v -0.04767584 0.04929955 0.28060406
v -0.05014368 0.05369098 0.27451553
v -0.04005938 0.06759720 0.27700662
v -0.03336313 0.01775292 0.30753608
v -0.02381499 0.03588626 0.30107514
v -0.01690579 0.03814172 0.30107514
v -0.01679552 -0.03812585 0.30107514
v -0.01795149 -0.07643889 0.28007620
v -0.05233013 -0.03709521 0.27777673
v -0.03492217 -0.07092718 0.27765019
v -0.05045168 -0.05283866 0.27432029
v -0.05250124 -0.04436946 0.27409251
v -0.04790779 -0.00769948 0.28889807
v -0.05046309 -0.01981327 0.28351095
v -0.05136429 -0.03100097 0.28053898
v -0.04605976 0.00002287 0.29220988
v -0.04445510 0.00819333 0.29452020
v -0.04010881 0.00844726 0.30097752
v -0.03465219 0.01128526 0.30823387
v -0.04529166 0.05691734 0.27980142
v -0.04434102 0.06121916 0.27761403
v -0.03465219 -0.01123952 0.30823387
v -0.03336313 -0.01770717 0.30753608
v -0.02387582 -0.03582558 0.30107514
v -0.02622199 -0.07439253 0.27946156
v -0.04961893 -0.04150158 0.28086800
v -0.04904475 -0.03575089 0.28314939
v -0.04261848 -0.06321977 0.27817443
v -0.04643621 -0.05800681 0.27730310
v -0.04768724 -0.04925381 0.28058960
v -0.04533728 -0.01276308 0.29268352
v -0.04479732 -0.00568301 0.29420565
v -0.04879759 -0.02743107 0.28521024
v -0.04675182 -0.02133683 0.28935363
v -0.04074383 0.00002287 0.30060512
v -0.03540508 0.00439937 0.30823387
v -0.03542030 -0.00356197 0.30823387
v -0.04010881 -0.00840151 0.30097752
f 1 2 3
f 1 3 4
f 1 4 5
f 1 5 6
f 1 6 7
f 1 7 2
f 2 7 8
f 2 8 3
f 3 8 9
f 3 9 10
f 3 10 11
f 3 11 12
f 3 12 13
f 3 13 4
f 4 13 14
f 4 14 15
f 4 15 16
f 4 16 17
f 4 17 5
f 5 17 18
f 5 18 6
f 6 18 19
f 6 19 7
f 7 20 8
f 7 19 21
f 7 21 20
f 8 20 22
f 8 22 9
f 9 22 23
f 9 23 10
f 10 23 24
f 10 24 11
f 11 25 12
f 11 24 25
f 12 25 26
f 12 26 27
f 12 27 28
f 12 28 14
f 12 14 13
f 14 28 15
f 15 28 29
f 15 29 30
f 15 30 31
f 15 31 16
f 16 31 32
f 16 32 17
f 17 33 34
f 17 34 18
f 17 32 33
f 18 35 19
f 18 34 36
f 18 36 37
f 18 37 38
f 18 38 35
f 19 35 21
f 20 39 22
f 20 21 40
f 20 40 39
f 21 35 41
f 21 41 40
f 22 42 23
f 22 39 42
f 23 42 43
f 23 43 24
f 24 43 44
f 24 44 45
f 24 45 25
f 25 45 26
f 26 45 27
f 27 46 28
f 27 45 30
f 27 30 46
f 28 46 47
f 28 47 29
f 29 47 46
f 29 46 30
f 30 45 32
f 30 32 31
f 32 45 33
f 33 48 49
f 33 49 50
f 33 50 34
f 33 45 48
f 34 50 51
f 34 51 36
f 35 38 37
f 35 37 52
f 35 52 53
f 35 53 41
f 36 54 37
f 36 51 49
f 36 49 54
f 37 54 55
f 37 55 56
f 37 56 52
f 39 40 57
f 39 57 58
f 39 58 42
f 40 41 59
f 40 59 60
f 40 60 57
f 41 53 59
f 42 58 61
f 42 61 43
f 43 61 44
f 44 61 62
f 44 62 45
f 45 62 63
f 45 63 48
f 48 63 64
f 48 64 60
f 48 60 53
f 48 53 52
f 48 52 56
f 48 56 49
f 49 56 54
f 49 51 50
f 53 60 59
f 54 56 55
f 57 60 64
f 57 64 58
f 58 64 61
f 61 64 63
f 61 63 62

