# https://github.com/mikedh/trimesh
v -0.02508708 0.00002905 0.40855046
v -0.01632597 0.01923136 0.40854107
v -0.02355480 0.00870927 0.40851996
v -0.01881994 0.00544483 0.39686236
v -0.01956997 -0.00075461 0.39689285
v -0.02355480 -0.00866115 0.40851996
v 0.00722873 -0.02535772 0.40892114
v -0.02057308 0.01465415 0.40846131
v 0.01324739 0.02556557 0.40848477
v 0.00511207 0.02554561 0.40845896
v -0.01047295 0.02315468 0.40825954
v -0.01012325 0.01563249 0.39503008
v -0.01613731 0.01109521 0.39675444
v -0.01538727 0.00646310 0.39244237
v -0.01678611 -0.00063482 0.39249867
v -0.01805610 -0.00515213 0.39534914
v -0.02057308 -0.01460104 0.40846131
v -0.01568637 -0.01971733 0.40852231
v -0.00838391 -0.02387026 0.40821732
v 0.00028518 -0.02542761 0.40804371
v 0.01324739 -0.02480866 0.40848477
v 0.02192108 0.00112219 0.40250699
v 0.02099159 0.00617858 0.40252810
v 0.01893936 0.01088058 0.40194394
v 0.01837338 0.00788068 0.39697262
v 0.01402964 0.01341127 0.39554387
v 0.01157707 0.01145959 0.39131860
v 0.00764286 0.01465914 0.39166113
v 0.00288038 0.01620651 0.39166113
v -0.00011975 0.01951088 0.39611161
v -0.00410918 0.02507641 0.40813051
v -0.00628105 0.01851258 0.39636030
v -0.00209376 0.01513833 0.39068751
v -0.00742681 0.01037643 0.38867458
v -0.01219389 0.01146957 0.39231333
v -0.01110795 0.00287920 0.38781123
v -0.01239175 -0.00690914 0.38988046
v -0.01492253 -0.01107205 0.39522246
v -0.00841151 -0.01748613 0.39644476
v -0.00911093 -0.01393717 0.39219134
v 0.00066710 -0.01933797 0.39607877
v 0.00381447 -0.01585391 0.39153209
v 0.00861376 -0.01400705 0.39159309
v 0.01258939 -0.01088237 0.39187227
v 0.01739328 -0.01004879 0.39701250
v 0.01990566 -0.00915032 0.40254922
v 0.02146554 -0.00435349 0.40268764
v 0.01971700 -0.00319047 0.39692101
v 0.01739788 -0.00068473 0.39244706
v 0.01525361 0.00517030 0.39117549
v 0.00389730 0.01217837 0.38825229
v 0.00893126 0.00538992 0.38696899
v 0.00121467 0.00748635 0.38570446
v -0.00547120 0.00387251 0.38538775
v -0.00777652 -0.00327532 0.38613145
v -0.00574729 -0.00975928 0.38759539
v -0.00357082 -0.01606854 0.39196846
v 0.00087876 -0.01171096 0.38775493
v 0.00659833 -0.00844652 0.38706518
v 0.01315996 -0.00285604 0.38887166
v 0.01627053 -0.00623029 0.39248929
v 0.00686061 -0.00255655 0.38551443
v 0.00533294 0.00226025 0.38495372
v 0.00001369 -0.00610051 0.38516956
f 1 2 3
f 1 3 4
f 1 4 5
f 1 5 6
f 1 6 7
f 1 7 2
f 2 8 3
f 2 7 9
f 2 9 10
f 2 10 11
f 2 11 12
f 2 12 13
f 2 13 8
f 3 13 4
f 3 8 13
f 4 13 14
f 4 14 15
f 4 15 5
f 5 15 16
f 5 16 6
f 6 16 17
f 6 17 18
f 6 18 7
f 7 18 19
f 7 19 20
f 7 20 21
f 7 21 9
f 9 22 23
f 9 23 24
f 9 24 25
f 9 25 26
f 9 26 27
f 9 27 28
f 9 28 29
f 9 29 30
f 9 30 10
f 9 21 22
f 10 30 31
f 10 31 11
f 11 31 32
f 11 32 12
f 12 33 34
f 12 34 35
f 12 35 13
f 12 32 33
f 13 35 14
f 14 36 15
f 14 35 36
f 15 37 16
f 15 36 37
f 16 37 38
f 16 38 17
f 17 38 18
f 18 39 19
f 18 38 40
f 18 40 39
f 19 39 41
f 19 41 20
f 20 41 21
f 21 41 42
f 21 42 43
f 21 43 44
f 21 44 45
f 21 45 46
f 21 46 47
f 21 47 22
f 22 47 48
f 22 48 49
f 22 49 25
f 22 25 23
f 23 25 24
f 25 49 50
f 25 50 26
f 26 50 27
f 27 51 28
f 27 50 52
f 27 52 51
f 28 51 29
f 29 51 33
f 29 33 30
f 30 33 32
f 30 32 31
f 33 51 53
f 33 53 34
f 34 53 54
f 34 54 36
f 34 36 35
f 36 54 55
f 36 55 37
f 37 55 56
f 37 56 40
f 37 40 38
f 39 57 41
f 39 40 57
f 40 56 57
f 41 57 42
f 42 58 59
f 42 59 43
f 42 57 58
f 43 59 44
f 44 59 60
f 44 60 61
f 44 61 45
f 45 61 48
f 45 48 46
f 46 48 47
f 48 61 49
f 49 61 60
f 49 60 50
f 50 60 52
f 51 52 53
f 52 60 62
f 52 62 63
f 52 63 53
f 53 63 54
f 54 63 64
f 54 64 55
f 55 64 56
f 56 64 58
f 56 58 57
f 58 64 59
f 59 64 62
f 59 62 60
f 62 64 63

