# https://github.com/mikedh/trimesh
v -0.05311775 -0.00857102 -0.11783953
v -0.05063685 0.00272322 -0.08115283
v -0.05296973 0.00194248 -0.11783953
v -0.05310591 -0.01422571 -0.11783953
v -0.05060133 -0.00676697 -0.08115283
v -0.05051251 0.01021986 -0.08115283
v -0.05255526 0.00786248 -0.11783953
v -0.04801977 -0.03168251 -0.08115283
v -0.05056580 -0.01239135 -0.08115283
v -0.04749280 -0.03454776 -0.11783953
v -0.04891384 0.02895768 -0.08115283
v -0.05119935 0.01233469 -0.11783953
v -0.04305797 -0.03496466 -0.08115283
v -0.04261390 -0.03673080 -0.11783953
v -0.04572242 0.03342232 -0.08672622
v -0.04552703 0.03346780 -0.09426754
v -0.04518953 0.03320250 -0.10143537
v -0.04437836 0.03386196 -0.08115283
v -0.04409415 0.03098913 -0.11783953
v -0.03937511 -0.03620020 -0.08115283
v -0.03695342 -0.03713255 -0.11783953
v -0.02404563 -0.03856517 -0.08115283
v -0.02990150 -0.03798909 -0.08115283
v -0.03557975 -0.03710981 -0.08115283
v -0.04308166 0.03471850 -0.09049688
v -0.04264350 0.03465786 -0.11783953
v -0.03926853 0.03565085 -0.08115283
v -0.02752718 -0.03743575 -0.11783953
v -0.01104311 -0.03912609 -0.08115283
v -0.01872857 -0.03883805 -0.08115283
v -0.03747447 0.03668931 -0.11783953
v -0.03353700 0.03690155 -0.08115283
v -0.02187263 -0.03741301 -0.11783953
v -0.00350568 -0.03907303 -0.08115283
v -0.02795350 0.03763681 -0.08115283
v -0.02231078 0.03803855 -0.08115283
v -0.02987782 0.03695461 -0.11783953
v -0.01434111 -0.03712497 -0.11783953
v 0.00298966 -0.03880773 -0.08115283
v -0.01477927 0.03827353 -0.08115283
v -0.00723591 0.03831143 -0.08115283
v -0.02235223 0.03688639 -0.11783953
v -0.00680960 -0.03638213 -0.11783953
v 0.00698634 -0.03828471 -0.08227685
v 0.00666068 0.03765197 -0.08115283
v 0.00030745 0.03811435 -0.08115283
v -0.01438848 0.03659077 -0.11765279
v -0.00754972 0.03588583 -0.11783953
v 0.00145020 -0.03495708 -0.11613734
v 0.00664292 -0.03625326 -0.09919812
v 0.00737120 -0.03670806 -0.09470924
v 0.00737120 -0.03744333 -0.08905326
v 0.00653634 0.03307364 -0.11601166
v 0.00737120 0.03668173 -0.09057229
v -0.00162280 0.03520362 -0.11641745
v 0.00214888 0.03435466 -0.11647491
v 0.00677910 -0.03341833 -0.11498819
v 0.00733568 -0.03491160 -0.10690462
v 0.00459425 -0.03510868 -0.11026230
v 0.00653042 -0.03571508 -0.10313037
v 0.00737120 0.03546892 -0.09991634
v 0.00664292 0.03393018 -0.11122472
v 0.00214888 0.03513540 -0.11122472
v 0.00682647 0.03463512 -0.10655988
f 1 2 3
f 1 3 7
f 1 7 12
f 1 12 19
f 1 19 26
f 1 26 31
f 1 31 37
f 1 37 42
f 1 42 48
f 1 48 43
f 1 43 38
f 1 38 33
f 1 33 28
f 1 28 21
f 1 21 14
f 1 14 10
f 1 10 4
f 1 4 2
f 2 4 5
f 2 5 9
f 2 9 8
f 2 8 13
f 2 13 20
f 2 20 24
f 2 24 23
f 2 23 22
f 2 22 30
f 2 30 29
f 2 29 34
f 2 34 39
f 2 39 45
f 2 45 46
f 2 46 41
f 2 41 40
f 2 40 36
f 2 36 35
f 2 35 32
f 2 32 27
f 2 27 18
f 2 18 11
f 2 11 6
f 2 6 3
f 3 6 7
f 4 8 9
f 4 9 5
f 4 10 8
f 6 11 7
f 7 11 12
f 8 10 13
f 10 14 13
f 11 15 16
f 11 16 17
f 11 17 12
f 11 18 15
f 12 17 19
f 13 14 20
f 14 21 22
f 14 22 23
f 14 23 24
f 14 24 20
f 15 18 25
f 15 25 16
f 16 25 26
f 16 26 17
f 17 26 19
f 18 27 25
f 21 28 29
f 21 29 30
f 21 30 22
f 25 27 31
f 25 31 26
f 27 32 31
f 28 33 29
f 29 33 34
f 31 32 35
f 31 35 36
f 31 36 37
f 33 38 34
f 34 38 39
f 36 40 37
f 37 40 41
f 37 41 42
f 38 43 39
f 39 43 44
f 39 44 45
f 41 46 42
f 42 47 48
f 42 46 47
f 43 49 50
f 43 50 51
f 43 51 52
f 43 52 44
f 43 48 53
f 43 53 49
f 44 52 54
f 44 54 45
f 45 54 48
f 45 48 47
f 45 47 46
f 48 54 55
f 48 55 56
f 48 56 53
f 49 57 58
f 49 58 59
f 49 59 60
f 49 60 50
f 49 53 57
f 50 60 51
f 51 60 58
f 51 58 61
f 51 61 54
f 51 54 52
f 53 56 62
f 53 62 61
f 53 61 58
f 53 58 57
f 54 61 63
f 54 63 55
f 55 63 56
f 56 63 64
f 56 64 62
f 58 60 59
f 61 62 64
f 61 64 63

