# https://github.com/mikedh/trimesh
v 0.07783498 -0.01404552 -0.03729665
v 0.06164040 -0.01404552 0.00936059
v 0.07894180 -0.01585069 -0.01235217
v 0.07894180 -0.02079764 -0.01235217
v 0.07783498 -0.03498252 -0.01753388
v 0.07625241 -0.03484935 -0.03718163
v 0.06600944 -0.03522666 -0.03721449
v 0.05212559 -0.03512308 -0.03721449
v 0.04566912 -0.01404552 -0.03724736
v 0.05585384 -0.01405046 0.01248824
v 0.07784469 -0.01666943 0.00067877
v 0.04710605 -0.01404552 0.00936059
v 0.07894180 -0.01943144 -0.00813998
v 0.07625241 -0.03766314 -0.02315926
v 0.07625241 -0.03892331 -0.02846147
v 0.07625241 -0.03923896 -0.03270652
v 0.07783498 -0.02769526 -0.00746625
v 0.04513512 -0.02074586 0.01485451
v 0.03655238 -0.02370268 0.01384665
v 0.03305715 -0.02427974 0.01339202
v 0.02886287 -0.02577912 0.01109695
v 0.07467956 -0.03789742 -0.03594372
v 0.07121345 -0.03610458 -0.03702278
v 0.05731990 -0.03689619 -0.03675438
v 0.05212559 -0.03781357 -0.03583964
v 0.04644584 -0.03415885 -0.03717615
v -0.00026408 -0.02597887 -0.03567532
v -0.00026408 -0.02119715 -0.03567532
v 0.01562952 -0.01404552 -0.03568627
v 0.03655238 -0.01885931 0.01866136
v 0.04165931 -0.02019839 0.01676067
v 0.04181465 -0.01405046 0.01248824
v 0.07784469 -0.02269652 -0.00231741
v 0.01562952 -0.01404552 -0.01309163
v 0.07784469 -0.02536482 -0.00469464
v 0.07121345 -0.03796893 -0.02384942
v 0.01561981 -0.02817861 0.00713125
v 0.06947554 -0.03724638 -0.02152697
v 0.06427153 -0.03839310 -0.02556387
v 0.07121345 -0.03895537 -0.02846147
v 0.05212559 -0.03910086 -0.03019235
v 0.05731990 -0.03906387 -0.03347337
v 0.07121345 -0.03911566 -0.03350623
v 0.03655238 -0.02094314 0.01711671
v -0.01334208 -0.02718478 0.00824866
v -0.00337096 -0.02773718 0.00801313
v 0.06600944 -0.03789002 -0.03594372
v 0.04621282 -0.03886659 -0.03327618
v -0.00026408 -0.03008242 -0.03330356
v -0.02024517 -0.03054851 -0.01175513
v -0.02024517 -0.01838335 -0.01242886
v -0.01407026 -0.02353992 0.01205004
v -0.01407026 -0.01989259 0.01088881
v 0.06079572 -0.03728090 -0.02152697
v 0.05559170 -0.03773466 -0.02311544
v 0.05039739 -0.03816869 -0.02475321
v 0.01761016 -0.02960154 0.00308887
v 0.05731990 -0.03893564 -0.02846147
v 0.04629049 -0.03851147 -0.02696063
v -0.02024517 -0.03019586 -0.00805234
v -0.01407026 -0.02887158 0.00275474
v -0.00905071 -0.02798132 0.00710386
v -0.02024517 -0.02206521 -0.00675418
v 0.04865949 -0.03724391 -0.02152697
f 1 2 3
f 1 3 4
f 1 4 5
f 1 5 6
f 1 6 7
f 1 7 8
f 1 8 9
f 1 9 29
f 1 29 34
f 1 34 12
f 1 12 2
f 2 10 11
f 2 11 3
f 2 12 32
f 2 32 10
f 3 11 13
f 3 13 4
f 4 13 5
f 5 14 15
f 5 15 16
f 5 16 6
f 5 13 17
f 5 17 18
f 5 18 19
f 5 19 20
f 5 20 21
f 5 21 14
f 6 22 23
f 6 23 7
f 6 16 22
f 7 23 8
f 8 23 24
f 8 24 25
f 8 25 26
f 8 26 9
f 9 26 27
f 9 27 28
f 9 28 29
f 10 30 31
f 10 31 18
f 10 18 11
f 10 32 30
f 11 18 33
f 11 33 13
f 12 34 32
f 13 33 35
f 13 35 17
f 14 36 15
f 14 21 37
f 14 37 38
f 14 38 36
f 15 36 39
f 15 39 40
f 15 40 16
f 16 40 41
f 16 41 42
f 16 42 43
f 16 43 22
f 17 35 18
f 18 31 19
f 18 35 33
f 19 31 44
f 19 44 20
f 20 44 45
f 20 45 46
f 20 46 21
f 21 46 37
f 22 43 47
f 22 47 24
f 22 24 23
f 24 47 25
f 25 47 42
f 25 42 48
f 25 48 49
f 25 49 27
f 25 27 26
f 27 49 50
f 27 50 51
f 27 51 28
f 28 51 29
f 29 51 34
f 30 52 44
f 30 44 31
f 30 32 53
f 30 53 52
f 32 34 53
f 34 51 53
f 36 38 54
f 36 54 55
f 36 55 56
f 36 56 39
f 37 46 57
f 37 57 38
f 38 57 54
f 39 58 40
f 39 56 58
f 40 58 41
f 41 58 59
f 41 59 48
f 41 48 42
f 42 47 43
f 44 52 45
f 45 52 60
f 45 60 61
f 45 61 62
f 45 62 46
f 46 62 57
f 48 59 50
f 48 50 49
f 50 60 63
f 50 63 51
f 50 59 60
f 51 63 53
f 52 53 63
f 52 63 60
f 54 57 64
f 54 64 55
f 55 64 56
f 56 64 62
f 56 62 61
f 56 61 59
f 56 59 58
f 57 62 64
f 59 61 60

