# https://github.com/mikedh/trimesh
v -0.08018610 -0.02209559 -0.17895147
v -0.08862675 -0.01562247 -0.22681440
v -0.07852669 -0.04730600 -0.17895147
v -0.05693203 -0.04739782 -0.17895147
v -0.05755431 0.01958947 -0.17899487
v -0.08018291 0.01959603 -0.17902862
v -0.08953304 0.01322128 -0.22682404
v -0.08455800 -0.01423209 -0.22755698
v -0.08455800 -0.01745226 -0.22689637
v -0.07860328 -0.03570423 -0.22279287
v -0.07860328 -0.04673542 -0.21401205
v -0.08018610 -0.04731256 -0.20925758
v -0.08018610 -0.04731256 -0.19735695
v -0.08455800 0.01213915 -0.22772575
v -0.05817659 -0.04739782 -0.18664734
v -0.05693203 -0.04740438 -0.20110844
v -0.05693203 0.01954356 -0.18287173
v -0.05755431 0.01954356 -0.18664734
v -0.06194856 0.01959603 -0.19041330
v -0.06948610 0.01958947 -0.19795969
v -0.08018291 0.01957635 -0.19826348
v -0.08786087 0.01665787 -0.22674689
v -0.08078604 -0.01423209 -0.22796685
v -0.08078604 0.01213915 -0.22814044
v -0.07701726 -0.01423209 -0.22809222
v -0.07211563 -0.03532384 -0.22259999
v -0.07369526 -0.04657146 -0.21416635
v -0.06948610 -0.04735847 -0.20925758
v -0.06194536 -0.04739126 -0.20548680
v -0.05755431 -0.04699120 -0.20655728
v -0.05693203 -0.03489755 -0.21710294
v -0.05693203 0.01863850 -0.21680398
v -0.05817659 0.01952388 -0.19041330
v -0.06194856 0.01955667 -0.19418409
v -0.08018291 0.01869753 -0.22434072
v -0.07859690 0.01948453 -0.20173530
v -0.08360703 0.01671034 -0.22718086
v -0.07701726 -0.00104975 -0.22819347
v -0.07701726 0.01213915 -0.22821277
v -0.07325487 -0.01423209 -0.22777397
v -0.06076463 -0.03572390 -0.21914263
v -0.06868831 -0.01564870 -0.22697352
v -0.06404196 -0.04692561 -0.21054505
v -0.05708840 -0.01476332 -0.22294717
v -0.05724477 0.00158016 -0.22312559
v -0.05755431 0.01213915 -0.22323167
v -0.05898077 0.01769409 -0.22193938
v -0.06885106 0.01733338 -0.22608146
v -0.07701726 0.01718254 -0.22664562
v -0.07325487 0.01715631 -0.22652026
v -0.07325487 0.01213915 -0.22793792
v -0.06948929 0.01213915 -0.22742196
v -0.06354414 -0.01423209 -0.22583554
v -0.06607474 0.00837464 -0.22667456
v -0.06418556 -0.00670308 -0.22612003
v -0.06194856 -0.01047414 -0.22530030
v -0.05817659 -0.01047414 -0.22360296
v -0.05755431 -0.00293201 -0.22328953
v -0.06306865 0.00837464 -0.22570534
v -0.06354414 0.01213915 -0.22583554
v -0.06194856 0.01591021 -0.22466379
v -0.06417918 0.00460357 -0.22612003
v -0.06306227 -0.00293201 -0.22571498
f 1 2 3
f 1 3 4
f 1 4 5
f 1 5 6
f 1 6 7
f 1 7 2
f 2 8 9
f 2 9 10
f 2 10 11
f 2 11 12
f 2 12 13
f 2 13 3
f 2 7 14
f 2 14 8
f 3 13 4
f 4 13 15
f 4 15 16
f 4 16 31
f 4 31 32
f 4 32 17
f 4 17 5
f 5 17 18
f 5 18 19
f 5 19 6
f 6 19 20
f 6 20 21
f 6 21 22
f 6 22 7
f 7 22 14
f 8 23 9
f 8 14 24
f 8 24 23
f 9 23 10
f 10 25 26
f 10 26 27
f 10 27 11
f 10 23 25
f 11 27 28
f 11 28 12
f 12 28 29
f 12 29 13
f 13 29 15
f 14 22 24
f 15 29 16
f 16 29 30
f 16 30 31
f 17 32 18
f 18 32 33
f 18 33 19
f 19 33 34
f 19 34 20
f 20 34 32
f 20 32 35
f 20 35 36
f 20 36 21
f 21 36 35
f 21 35 22
f 22 37 24
f 22 35 37
f 23 24 38
f 23 38 25
f 24 37 39
f 24 39 38
f 25 38 40
f 25 40 26
f 26 41 27
f 26 40 42
f 26 42 41
f 27 41 43
f 27 43 28
f 28 43 29
f 29 43 30
f 30 43 41
f 30 41 31
f 31 41 44
f 31 44 32
f 32 44 45
f 32 45 46
f 32 46 47
f 32 47 35
f 32 34 33
f 35 47 48
f 35 48 49
f 35 49 37
f 37 49 50
f 37 50 39
f 38 39 51
f 38 51 40
f 39 50 51
f 40 51 52
f 40 52 42
f 41 42 53
f 41 53 44
f 42 52 54
f 42 54 55
f 42 55 53
f 44 53 56
f 44 56 57
f 44 57 58
f 44 58 45
f 45 58 46
f 46 58 57
f 46 57 56
f 46 56 59
f 46 59 60
f 46 60 61
f 46 61 47
f 47 61 48
f 48 61 52
f 48 52 51
f 48 51 50
f 48 50 49
f 52 61 60
f 52 60 54
f 53 55 56
f 54 60 62
f 54 62 55
f 55 63 56
f 55 62 63
f 56 63 59
f 59 62 60
f 59 63 62

