# https://github.com/mikedh/trimesh
v -0.11457669 -0.03792965 -0.17894814
v -0.11438483 -0.04368091 -0.16401927
v -0.11446948 -0.03552292 -0.15041273
v -0.11457669 0.01875006 -0.15648318
v -0.11457669 0.01891401 -0.17894814
v -0.11332961 -0.03787719 -0.18672791
v -0.11404062 -0.04556958 -0.16772461
v -0.11149567 -0.04676967 -0.16191934
v -0.10718448 0.01887466 -0.15011888
v -0.11267503 0.01839593 -0.15142327
v -0.10758513 -0.04664507 -0.15452300
v -0.10096600 -0.04707133 -0.15175654
v -0.09487166 -0.04722872 -0.15011888
v -0.11457669 0.01890745 -0.16024943
v -0.11332961 0.01890745 -0.18672791
v -0.11457669 0.01892056 -0.17547214
v -0.09963992 0.01958947 -0.18672791
v -0.09587045 -0.04724184 -0.18672791
v -0.10102243 -0.04690083 -0.18668132
v -0.10922157 -0.04641554 -0.17745382
v -0.11213332 -0.04669097 -0.17099276
v -0.11094266 -0.04716970 -0.16778912
v -0.10718448 -0.04718937 -0.16024943
v -0.05692876 0.01871071 -0.15011888
v -0.07672972 0.01930092 -0.15141611
v -0.08080954 0.01930092 -0.15141611
v -0.08833153 0.01958947 -0.15648318
v -0.09585917 0.01959603 -0.16401927
v -0.09964556 0.01957635 -0.16778912
v -0.10340374 -0.04720905 -0.16024943
v -0.08833153 -0.04726151 -0.15011888
v -0.11457669 0.01892712 -0.16409811
v -0.09964556 0.01959603 -0.17155179
v -0.09964556 0.01959603 -0.17532163
v -0.08471443 0.01959603 -0.17894814
v -0.08019446 0.01958947 -0.18672791
v -0.08841618 -0.04727463 -0.18672791
v -0.09963992 -0.04722872 -0.18286849
v -0.10340374 -0.04720905 -0.17902339
v -0.10718448 -0.04707133 -0.17532163
v -0.10642833 -0.04665819 -0.18041737
v -0.10718448 -0.04719593 -0.17155179
v -0.10718448 -0.04719593 -0.16401927
v -0.05692876 0.01958291 -0.17279885
v -0.05754948 0.01947143 -0.16463922
v -0.06194531 0.01955668 -0.16024943
v -0.06571477 0.01949766 -0.15648318
v -0.07325369 0.01924190 -0.15141611
v -0.06194531 -0.04735988 -0.15011888
v -0.05748177 -0.04729430 -0.15141611
v -0.05692876 -0.04738611 -0.15648318
v -0.06948423 0.01958947 -0.15648318
v -0.08457900 0.01959603 -0.15648318
v -0.09585917 -0.04724840 -0.17894814
v -0.08080954 -0.04730086 -0.16778912
v -0.07820816 -0.04730086 -0.15011888
v -0.05754948 0.01958947 -0.17894814
v -0.05692876 -0.04739923 -0.17894814
v -0.08053868 -0.04730086 -0.18672791
v -0.08064590 -0.04730741 -0.17894814
v -0.10340374 -0.04721561 -0.17532163
v -0.05754948 0.01956979 -0.16840906
v -0.06948423 -0.04733365 -0.15011888
v -0.05817020 -0.04738611 -0.16401927
f 1 2 3
f 1 3 4
f 1 4 14
f 1 14 32
f 1 32 16
f 1 16 5
f 1 5 15
f 1 15 6
f 1 6 7
f 1 7 2
f 2 7 8
f 2 8 3
f 3 9 10
f 3 10 4
f 3 8 11
f 3 11 12
f 3 12 13
f 3 13 9
f 4 10 9
f 4 9 14
f 5 16 17
f 5 17 15
f 6 15 17
f 6 17 36
f 6 36 59
f 6 59 37
f 6 37 18
f 6 18 19
f 6 19 20
f 6 20 21
f 6 21 7
f 7 21 8
f 8 21 22
f 8 22 23
f 8 23 11
f 9 13 31
f 9 31 56
f 9 56 63
f 9 63 49
f 9 49 24
f 9 24 25
f 9 25 26
f 9 26 27
f 9 27 28
f 9 28 29
f 9 29 14
f 11 23 12
f 12 23 13
f 13 23 30
f 13 30 31
f 14 29 33
f 14 33 32
f 16 32 34
f 16 34 17
f 17 34 35
f 17 35 36
f 18 37 38
f 18 38 19
f 19 38 39
f 19 39 40
f 19 40 41
f 19 41 20
f 20 41 21
f 21 41 40
f 21 40 22
f 22 40 39
f 22 39 42
f 22 42 43
f 22 43 23
f 23 43 30
f 24 44 45
f 24 45 46
f 24 46 47
f 24 47 48
f 24 48 25
f 24 49 50
f 24 50 51
f 24 51 58
f 24 58 44
f 25 48 52
f 25 52 53
f 25 53 26
f 26 53 27
f 27 53 28
f 28 53 35
f 28 35 34
f 28 34 33
f 28 33 29
f 30 43 54
f 30 54 55
f 30 55 56
f 30 56 31
f 32 33 34
f 35 53 57
f 35 57 36
f 36 57 58
f 36 58 59
f 37 54 38
f 37 59 58
f 37 58 60
f 37 60 54
f 38 54 61
f 38 61 42
f 38 42 39
f 42 61 43
f 43 61 54
f 44 58 57
f 44 57 52
f 44 52 62
f 44 62 45
f 45 62 46
f 46 62 52
f 46 52 47
f 47 52 48
f 49 63 51
f 49 51 50
f 51 63 56
f 51 56 64
f 51 64 58
f 52 57 53
f 54 60 55
f 55 60 58
f 55 58 64
f 55 64 56

