# https://github.com/mikedh/trimesh
v 0.04411024 -0.02908586 -0.09672227
v 0.04529303 -0.02143726 -0.09710761
v 0.04789550 -0.02640885 -0.08894070
v 0.04853962 -0.02823431 -0.08055525
v 0.04337201 -0.02809154 -0.06282962
v 0.03617954 -0.02757654 -0.05466271
v 0.03384154 -0.02552671 -0.10885760
v 0.04102266 -0.02732668 -0.10207102
v 0.04385551 -0.00717518 -0.09960944
v 0.04608156 -0.00052091 -0.09581356
v 0.04664618 -0.00052091 -0.09460003
v 0.04728058 -0.00052600 -0.09311618
v 0.04804963 -0.01867357 -0.09062585
v 0.04105997 -0.01867357 -0.10328455
v 0.04204158 -0.01746509 -0.10207677
v 0.04922269 -0.01867357 -0.08585223
v 0.04939143 -0.01776594 -0.07678237
v 0.04777868 -0.02321684 -0.07036962
v 0.04430007 -0.01882654 -0.06240402
v 0.04038826 -0.02147296 -0.05735434
v 0.03552082 -0.02109563 -0.05282228
v 0.03327692 -0.02109563 -0.05127517
v 0.03320553 0.00310453 -0.10988134
v 0.03350569 -0.00475313 -0.10969729
v 0.03443537 -0.01614953 -0.10910491
v 0.04240015 0.01037069 -0.10170293
v 0.04346936 0.00159011 -0.10015582
v 0.04730654 0.00762740 -0.09273659
v 0.04812427 -0.00778197 -0.09068911
v 0.04105997 0.00189605 -0.10331906
v 0.03659003 0.00643422 -0.10749453
v 0.04907667 -0.00128067 -0.08672644
v 0.04952772 -0.00778197 -0.08342517
v 0.04959424 -0.01019893 -0.08100385
v 0.04918537 0.00443028 -0.07525827
v 0.04880733 -0.01020403 -0.07323379
v 0.04963318 0.00068247 -0.08100385
v 0.04757911 -0.00294296 -0.06891454
v 0.04675164 -0.01027541 -0.06711437
v 0.04357482 -0.00486021 -0.06123074
v 0.04235472 -0.01504304 -0.05949384
v 0.04681655 -0.00052600 -0.06701084
v 0.04629086 0.01400123 -0.06576855
v 0.04145748 -0.00173448 -0.05827456
v 0.03902213 -0.00778197 -0.05582448
v 0.03305788 0.01390944 -0.05114289
v 0.03312927 0.00484331 -0.05117165
v 0.03312765 -0.01262098 -0.05116015
v 0.03312441 0.01491396 -0.10989284
v 0.03459113 0.00794864 -0.10897838
v 0.03712870 0.02300617 -0.10489493
v 0.04271815 0.02216483 -0.09832689
v 0.04773325 0.02152234 -0.08890620
v 0.03578366 0.01400123 -0.10808692
v 0.04960073 0.00794864 -0.08221739
v 0.04863210 0.02263394 -0.07773134
v 0.04741686 0.01248680 -0.06843142
v 0.04876839 -0.00173448 -0.07300949
v 0.04302642 0.00900924 -0.06036229
v 0.04624218 0.02268493 -0.07053641
v 0.03994857 0.02049743 -0.05770517
v 0.03383830 0.02250136 -0.05310985
f 1 2 3
f 1 3 4
f 1 4 5
f 1 5 6
f 1 6 7
f 1 7 8
f 1 8 2
f 2 9 10
f 2 10 11
f 2 11 12
f 2 12 13
f 2 13 3
f 2 8 14
f 2 14 15
f 2 15 9
f 3 13 16
f 3 16 4
f 4 17 18
f 4 18 5
f 4 16 17
f 5 19 20
f 5 20 6
f 5 18 19
f 6 20 21
f 6 21 22
f 6 22 7
f 7 23 24
f 7 24 25
f 7 25 14
f 7 14 8
f 7 22 23
f 9 15 26
f 9 26 27
f 9 27 10
f 10 28 11
f 10 27 26
f 10 26 28
f 11 28 12
f 12 28 29
f 12 29 13
f 13 29 16
f 14 30 26
f 14 26 15
f 14 25 31
f 14 31 30
f 16 32 33
f 16 33 34
f 16 34 17
f 16 29 32
f 17 35 36
f 17 36 18
f 17 34 37
f 17 37 35
f 18 38 39
f 18 39 19
f 18 36 38
f 19 40 41
f 19 41 20
f 19 39 42
f 19 42 43
f 19 43 40
f 20 41 44
f 20 44 45
f 20 45 21
f 21 45 46
f 21 46 47
f 21 47 48
f 21 48 22
f 22 48 23
f 23 48 49
f 23 49 50
f 23 50 24
f 24 50 25
f 25 50 31
f 26 51 52
f 26 52 53
f 26 53 28
f 26 30 54
f 26 54 51
f 28 53 32
f 28 32 29
f 30 31 54
f 31 50 54
f 32 53 55
f 32 55 33
f 33 55 37
f 33 37 34
f 35 37 55
f 35 55 56
f 35 56 57
f 35 57 58
f 35 58 36
f 36 58 38
f 38 58 57
f 38 57 42
f 38 42 39
f 40 43 59
f 40 59 41
f 41 59 44
f 42 57 43
f 43 57 56
f 43 56 60
f 43 60 61
f 43 61 59
f 44 59 61
f 44 61 46
f 44 46 45
f 46 62 49
f 46 49 48
f 46 48 47
f 46 61 62
f 49 51 54
f 49 54 50
f 49 62 51
f 51 62 60
f 51 60 56
f 51 56 52
f 52 56 53
f 53 56 55
f 60 62 61

