# https://github.com/mikedh/trimesh
v 0.04541326 0.00170643 -0.19722392
v 0.04541326 -0.01348102 -0.19722392
v 0.04541326 0.00170643 -0.20137985
v -0.02216260 0.00170643 -0.19722392
v 0.04541326 -0.01028425 -0.19966002
v 0.04526112 -0.01467564 -0.19722392
v 0.04422261 -0.01483158 -0.20557710
v 0.04541326 -0.00124529 -0.20141133
v 0.04263508 0.00170643 -0.21732664
v -0.01972838 0.00170643 -0.21732664
v -0.01972838 -0.00299683 -0.21732664
v -0.02215598 -0.00299683 -0.19722392
v 0.04541326 -0.00891699 -0.20041171
v 0.04263508 -0.01483158 -0.21732664
v 0.04295259 -0.01892779 -0.19722392
v 0.04296582 -0.01913942 -0.19966002
v 0.04289967 -0.01927030 -0.20557710
v 0.04250940 -0.01895285 -0.21149418
v 0.04211914 -0.01852123 -0.21732664
v 0.04541326 -0.00160451 -0.20141330
v 0.04541326 -0.00299683 -0.20141527
v -0.01967547 -0.00891699 -0.21732664
v -0.02203692 -0.00648321 -0.19722392
v 0.02644228 -0.02514312 -0.19722392
v 0.03863980 -0.02079350 -0.20557710
v 0.03863980 -0.02038973 -0.21149418
v 0.03863980 -0.01994976 -0.21732664
v 0.03869933 -0.01992748 -0.21732664
v -0.01930504 -0.01474525 -0.21732664
v -0.02193108 -0.00891699 -0.19722392
v 0.02088592 -0.02674150 -0.19722392
v 0.02397499 -0.02377307 -0.21488858
v 0.02223532 -0.02364220 -0.21732664
v -0.01929843 -0.01483158 -0.21732664
v -0.02160696 -0.01240058 -0.19722392
v 0.01927855 -0.02381484 -0.21732664
v 0.02088592 -0.02374244 -0.21732664
v 0.01496576 -0.02673594 -0.19722392
v 0.01496576 -0.02388725 -0.21732664
v -0.01829961 -0.01905032 -0.21732664
v -0.02136222 -0.01483158 -0.19722392
v 0.00905221 -0.02672480 -0.19722392
v -0.00034729 -0.02666354 -0.19722392
v -0.00278150 -0.02373687 -0.21732664
v -0.01827976 -0.01912272 -0.21732664
v -0.01960270 -0.02106640 -0.19722392
v -0.00278150 -0.02663847 -0.19722392
v -0.00870167 -0.02365890 -0.21732664
v -0.01823346 -0.01916727 -0.21732664
v -0.01757199 -0.02370346 -0.20260183
v -0.01805486 -0.02419912 -0.19722392
v -0.01860388 -0.02308805 -0.19722392
v -0.00626745 -0.02656607 -0.19722392
v -0.00870167 -0.02648532 -0.19722392
v -0.01180396 -0.02374801 -0.21496139
v -0.01336503 -0.02249492 -0.21732664
v -0.01413234 -0.02229164 -0.21732664
v -0.01493272 -0.02544943 -0.19722392
v -0.01695682 -0.02468644 -0.19722392
v -0.01218762 -0.02590890 -0.19722392
f 1 2 5
f 1 5 13
f 1 13 21
f 1 21 20
f 1 20 8
f 1 8 3
f 1 3 9
f 1 9 10
f 1 10 4
f 1 4 12
f 1 12 23
f 1 23 30
f 1 30 35
f 1 35 41
f 1 41 46
f 1 46 52
f 1 52 51
f 1 51 59
f 1 59 58
f 1 58 60
f 1 60 54
f 1 54 53
f 1 53 47
f 1 47 43
f 1 43 42
f 1 42 38
f 1 38 31
f 1 31 24
f 1 24 15
f 1 15 6
f 1 6 2
f 2 6 7
f 2 7 5
f 3 8 9
f 4 10 11
f 4 11 12
f 5 7 14
f 5 14 13
f 6 15 16
f 6 16 17
f 6 17 18
f 6 18 19
f 6 19 7
f 7 19 14
f 8 20 9
f 9 20 21
f 9 21 14
f 9 14 19
f 9 19 28
f 9 28 27
f 9 27 33
f 9 33 37
f 9 37 36
f 9 36 39
f 9 39 44
f 9 44 48
f 9 48 56
f 9 56 57
f 9 57 49
f 9 49 45
f 9 45 40
f 9 40 34
f 9 34 29
f 9 29 22
f 9 22 11
f 9 11 10
f 11 22 12
f 12 22 23
f 13 14 21
f 15 24 16
f 16 24 17
f 17 24 25
f 17 25 26
f 17 26 27
f 17 27 28
f 17 28 18
f 18 28 19
f 22 29 30
f 22 30 23
f 24 31 27
f 24 27 26
f 24 26 25
f 27 31 32
f 27 32 33
f 29 34 30
f 30 34 35
f 31 36 37
f 31 37 33
f 31 33 32
f 31 38 39
f 31 39 36
f 34 40 41
f 34 41 35
f 38 42 39
f 39 42 43
f 39 43 44
f 40 45 41
f 41 45 46
f 43 47 44
f 44 47 48
f 45 49 50
f 45 50 51
f 45 51 52
f 45 52 46
f 47 53 48
f 48 53 54
f 48 54 55
f 48 55 56
f 49 57 50
f 50 58 59
f 50 59 51
f 50 57 55
f 50 55 58
f 54 60 55
f 55 57 56
f 55 60 58

