# https://github.com/mikedh/trimesh
v -0.03365203 0.03694675 -0.12244387
v -0.01203793 0.03606267 -0.12244387
v -0.02611434 0.03691022 -0.12244387
v -0.03996371 0.03727554 -0.14328743
v -0.04050356 0.03708557 -0.13668790
v -0.04093241 0.03664719 -0.12454499
v -0.02232531 -0.03643195 -0.14332096
v 0.00503539 0.02020036 -0.14523768
v 0.00104960 0.02577518 -0.14599766
v -0.00720452 0.03123310 -0.14703145
v -0.01811248 0.03499593 -0.14588590
v -0.03365203 0.03536855 -0.16972467
v -0.03844003 0.03685907 -0.16005170
v -0.01882892 0.03662527 -0.12244387
v -0.01369784 -0.03482453 -0.14332096
v -0.00141251 -0.02895745 -0.14436035
v 0.00443500 -0.02050388 -0.14616530
v 0.00597887 -0.01081553 -0.14698116
v 0.00630681 0.00525867 -0.14707616
v -0.04106863 0.03703442 -0.15082018
v -0.04508470 0.03224870 -0.15077547
v -0.04475171 0.03099930 -0.14332096
v -0.04523101 0.02352480 -0.14662352
v -0.03190131 -0.03736718 -0.14693087
v -0.02995887 -0.03532137 -0.17341840
v 0.00559542 0.01356610 -0.14680793
v 0.00063589 0.01415792 -0.15546388
v -0.00372326 0.02074104 -0.15988964
v 0.00008594 0.02168357 -0.15265866
v -0.01230029 0.02329099 -0.17052377
v -0.00936896 0.02714149 -0.16011875
v -0.00603401 0.02850049 -0.15265866
v -0.02236568 0.02709765 -0.17923001
v -0.03387402 0.03377575 -0.17739712
v -0.03916151 0.02538064 -0.17953177
v -0.00773933 -0.03261067 -0.14424859
v -0.00920247 -0.03114208 -0.15229543
v -0.01050920 -0.02871634 -0.15991199
v -0.00298160 -0.02428863 -0.15548623
v 0.00058038 -0.02403290 -0.14991490
v -0.00371822 -0.02233780 -0.15887820
v -0.00723984 -0.01960519 -0.16648358
v -0.00298160 -0.01645611 -0.16113579
v 0.00074688 -0.01598850 -0.15489389
v -0.00158405 -0.00669469 -0.16071109
v 0.00607977 -0.00124408 -0.14779702
v 0.00307781 0.00459378 -0.15289336
v -0.04521588 0.02352480 -0.15374275
v -0.02481770 -0.03031645 -0.17950941
v -0.00074653 0.00506870 -0.15943701
v -0.00268897 0.01295236 -0.16142078
v -0.00805718 0.01813994 -0.16817119
v -0.01518116 0.01977659 -0.17814592
v -0.01347080 -0.00104680 -0.17941441
v -0.01293095 -0.02574992 -0.16891999
v -0.01661403 -0.02292963 -0.17752565
v -0.00972718 -0.01510442 -0.17217785
v -0.00971709 -0.00724998 -0.17347428
v -0.00314810 -0.00104680 -0.16363925
v -0.01408128 -0.01098358 -0.17940324
v -0.00785537 -0.00057188 -0.17104346
v -0.00799159 0.01059238 -0.17042878
v -0.01276446 0.01287199 -0.17711213
v -0.01236588 0.00650076 -0.17746977
f 1 2 14
f 1 14 3
f 1 3 4
f 1 4 5
f 1 5 6
f 1 6 7
f 1 7 2
f 2 8 9
f 2 9 10
f 2 10 11
f 2 11 12
f 2 12 13
f 2 13 14
f 2 7 15
f 2 15 16
f 2 16 17
f 2 17 18
f 2 18 19
f 2 19 8
f 3 14 4
f 4 14 13
f 4 13 20
f 4 20 5
f 5 20 6
f 6 20 21
f 6 21 22
f 6 22 23
f 6 23 24
f 6 24 7
f 7 24 25
f 7 25 15
f 8 26 27
f 8 27 28
f 8 28 29
f 8 29 9
f 8 19 26
f 9 29 30
f 9 30 31
f 9 31 32
f 9 32 10
f 10 32 33
f 10 33 34
f 10 34 12
f 10 12 11
f 12 34 13
f 13 34 35
f 13 35 21
f 13 21 20
f 15 25 36
f 15 36 16
f 16 36 37
f 16 37 38
f 16 38 39
f 16 39 40
f 16 40 17
f 17 40 41
f 17 41 42
f 17 42 43
f 17 43 44
f 17 44 18
f 18 45 46
f 18 46 19
f 18 44 45
f 19 46 47
f 19 47 27
f 19 27 26
f 21 35 48
f 21 48 23
f 21 23 22
f 23 48 24
f 24 48 25
f 25 49 37
f 25 37 36
f 25 48 35
f 25 35 49
f 27 47 50
f 27 50 51
f 27 51 52
f 27 52 28
f 28 52 53
f 28 53 30
f 28 30 29
f 30 33 31
f 30 53 33
f 31 33 32
f 33 53 54
f 33 54 35
f 33 35 34
f 35 54 49
f 37 49 38
f 38 55 39
f 38 49 55
f 39 55 41
f 39 41 40
f 41 56 42
f 41 55 56
f 42 56 57
f 42 57 43
f 43 57 45
f 43 45 44
f 45 57 58
f 45 58 59
f 45 59 46
f 46 59 47
f 47 59 50
f 49 54 60
f 49 60 56
f 49 56 55
f 50 59 61
f 50 61 62
f 50 62 51
f 51 62 52
f 52 62 63
f 52 63 53
f 53 63 54
f 54 64 61
f 54 61 58
f 54 58 60
f 54 63 64
f 56 60 57
f 57 60 58
f 58 61 59
f 61 64 62
f 62 64 63

