# https://github.com/mikedh/trimesh
v -0.11484109 -0.03307988 -0.19842093
v -0.11457312 0.01890826 -0.17895147
v -0.11457312 0.01890826 -0.19056073
v -0.11457312 0.01888861 -0.19432732
v -0.11457312 0.01873796 -0.19810169
v -0.11457312 0.01871831 -0.19822433
v -0.11457312 -0.03307988 -0.19883749
v -0.11457312 -0.03380694 -0.19867009
v -0.11476985 -0.03355804 -0.19842093
v -0.11457312 -0.03641388 -0.19603250
v -0.11457312 -0.03778285 -0.19040501
v -0.11457312 -0.03787456 -0.18664620
v -0.11457312 -0.03792041 -0.17895147
v -0.11333502 0.01890826 -0.17895147
v -0.09587612 0.01959602 -0.18672796
v -0.09964129 0.01958947 -0.18672796
v -0.11095379 0.01888206 -0.19822433
v -0.11333502 0.01879036 -0.19822433
v -0.09587612 0.01949122 -0.19417938
v -0.11445100 0.01873796 -0.19822433
v -0.08833897 0.01956982 -0.19822433
v -0.08806083 0.01957637 -0.19822433
v -0.08429565 0.01958292 -0.19822433
v -0.08019126 0.01958292 -0.19822433
v -0.08019126 -0.04731980 -0.19822433
v -0.08833897 -0.04728705 -0.19822433
v -0.09210755 -0.04719535 -0.19822433
v -0.09502810 -0.04671064 -0.19822433
v -0.11390488 -0.03606673 -0.19822433
v -0.11457312 -0.03541827 -0.19745933
v -0.11399307 -0.03613878 -0.19795181
v -0.10178168 -0.04648794 -0.18894314
v -0.10237868 -0.04666479 -0.18672796
v -0.09972271 -0.04712984 -0.18672796
v -0.09964129 -0.04714294 -0.18672796
v -0.11333502 -0.03808416 -0.17895147
v -0.08019126 0.01958947 -0.18672796
v -0.08071025 0.01959602 -0.18672796
v -0.09587612 0.01959602 -0.19041085
v -0.08833897 0.01959602 -0.19794986
v -0.08456701 0.01959602 -0.19794986
v -0.08019126 0.01958947 -0.19794986
v -0.08019126 -0.04731325 -0.18672796
v -0.09210755 -0.04726740 -0.18672796
v -0.09587612 -0.04725430 -0.19041085
v -0.08833897 -0.04728705 -0.19794986
v -0.09210755 -0.04722810 -0.19794986
v -0.09511291 -0.04673029 -0.19794986
v -0.09961077 -0.04678924 -0.19028432
v -0.09587612 -0.04724775 -0.18672796
v -0.08079505 0.01959602 -0.19041085
f 1 2 3
f 1 3 4
f 1 4 5
f 1 5 6
f 1 6 7
f 1 7 8
f 1 8 9
f 1 9 10
f 1 10 11
f 1 11 12
f 1 12 13
f 1 13 2
f 2 13 36
f 2 36 14
f 2 14 38
f 2 38 15
f 2 15 16
f 2 16 3
f 3 16 4
f 4 17 18
f 4 18 5
f 4 16 19
f 4 19 17
f 5 18 20
f 5 20 6
f 6 20 7
f 7 20 18
f 7 18 17
f 7 17 21
f 7 21 22
f 7 22 23
f 7 23 24
f 7 24 25
f 7 25 26
f 7 26 27
f 7 27 28
f 7 28 8
f 8 28 29
f 8 29 30
f 8 30 9
f 9 30 10
f 10 30 31
f 10 31 32
f 10 32 33
f 10 33 11
f 11 33 12
f 12 33 13
f 13 33 34
f 13 34 35
f 13 35 36
f 14 37 38
f 14 36 43
f 14 43 37
f 15 38 51
f 15 51 41
f 15 41 40
f 15 40 39
f 15 39 16
f 16 39 19
f 17 19 40
f 17 40 21
f 19 39 40
f 21 40 22
f 22 40 23
f 23 40 41
f 23 41 24
f 24 41 42
f 24 42 37
f 24 37 43
f 24 43 25
f 25 43 44
f 25 44 45
f 25 45 46
f 25 46 26
f 26 46 45
f 26 45 47
f 26 47 27
f 27 47 48
f 27 48 28
f 28 48 32
f 28 32 31
f 28 31 29
f 29 31 30
f 32 48 33
f 33 48 49
f 33 49 34
f 34 49 47
f 34 47 35
f 35 47 45
f 35 45 50
f 35 50 36
f 36 50 44
f 36 44 43
f 37 42 38
f 38 42 51
f 41 51 42
f 44 50 45
f 47 49 48

