# https://github.com/mikedh/trimesh
v -0.01982870 -0.00299448 -0.07330648
v -0.01975378 0.00267630 -0.07825976
v -0.01981371 -0.00299448 -0.07826626
v -0.01940414 -0.00939050 -0.07723298
v -0.01798065 -0.01481952 -0.07357660
v -0.01808054 -0.01010194 -0.07208443
v -0.01845515 0.00267630 -0.07243103
v -0.01819542 0.00935552 -0.07270115
v -0.01961892 0.00693110 -0.07578474
v -0.01655715 -0.00086707 -0.08430652
v -0.01907949 0.00693110 -0.07917588
v -0.01640731 -0.00441044 -0.08430652
v -0.01873485 -0.01331377 -0.07819304
v -0.01604269 -0.01973051 -0.07381906
v -0.01239155 -0.02594695 -0.07285248
v -0.01578796 -0.02095998 -0.07802055
v 0.00128402 -0.03081650 -0.06862007
v -0.00027933 -0.02549799 -0.06862007
v -0.00075383 0.02398487 -0.06864936
v -0.01505373 0.01758884 -0.07247334
v -0.01713653 0.01545453 -0.07578474
v -0.01875483 0.01036396 -0.07814910
v -0.01046858 -0.02250719 -0.08524218
v -0.01630242 0.00298712 -0.08430652
v -0.01539837 0.00838161 -0.08430652
v -0.01557319 -0.00985328 -0.08430652
v -0.01330058 -0.02549799 -0.07739570
v -0.00982425 -0.02987712 -0.07337319
v -0.00694230 -0.03302679 -0.07343178
v 0.00538969 -0.03387636 -0.06862007
v 0.00392124 -0.02124318 -0.06862007
v 0.00085947 0.02788741 -0.06864936
v -0.01098803 0.02534558 -0.07282970
v -0.01395489 0.02161572 -0.07366121
v -0.01591283 0.01805853 -0.07806612
v -0.01331557 0.01465330 -0.08430652
v -0.00302643 0.02958657 -0.08458315
v 0.02071352 0.02941389 -0.08524055
v 0.02071352 -0.02100143 -0.08524218
v -0.00729193 -0.02719024 -0.08524218
v -0.01024881 -0.02964228 -0.07809215
v -0.00692731 -0.03302679 -0.07821257
v -0.00225225 -0.03324781 -0.08524218
v 0.02071352 -0.03389018 -0.08524218
v 0.02071352 -0.03389018 -0.06862007
v 0.02071352 -0.03009124 -0.06862007
v 0.01235733 0.02940008 -0.06864936
v 0.00060973 0.03667331 -0.07344967
v -0.00279667 0.03435942 -0.07342689
v -0.00570360 0.03170707 -0.07342527
v -0.00815602 0.02934482 -0.07351639
v -0.01383502 0.02209231 -0.07762351
v -0.01076326 0.01961955 -0.08430652
v -0.00753168 0.02450981 -0.08430652
v -0.00934476 0.02798411 -0.07813934
v -0.00569861 0.03170016 -0.07814422
v 0.00041993 0.03296417 -0.08458315
v 0.03118746 0.02941389 -0.08524055
v 0.03118746 -0.03389018 -0.08524055
v 0.03118746 -0.03329616 -0.07115691
v 0.03118746 0.02812226 -0.07190544
v 0.00019018 0.03665259 -0.07761700
v -0.00279168 0.03435251 -0.07813771
f 1 2 3
f 1 3 4
f 1 4 5
f 1 5 6
f 1 6 7
f 1 7 8
f 1 8 9
f 1 9 2
f 2 10 3
f 2 9 11
f 2 11 10
f 3 10 12
f 3 12 13
f 3 13 4
f 4 13 5
f 5 14 15
f 5 15 6
f 5 13 16
f 5 16 14
f 6 15 17
f 6 17 18
f 6 18 19
f 6 19 7
f 7 19 8
f 8 19 20
f 8 20 21
f 8 21 9
f 9 21 22
f 9 22 11
f 10 23 12
f 10 11 24
f 10 24 23
f 11 22 25
f 11 25 24
f 12 23 26
f 12 26 13
f 13 23 16
f 13 26 23
f 14 16 27
f 14 27 15
f 15 27 28
f 15 28 17
f 16 23 27
f 17 28 29
f 17 29 30
f 17 30 45
f 17 45 46
f 17 46 31
f 17 31 18
f 18 31 32
f 18 32 19
f 19 32 20
f 20 32 33
f 20 33 34
f 20 34 21
f 21 34 35
f 21 35 22
f 22 36 25
f 22 35 36
f 23 24 25
f 23 25 36
f 23 36 37
f 23 37 38
f 23 38 39
f 23 39 44
f 23 44 43
f 23 43 40
f 23 40 41
f 23 41 27
f 27 41 28
f 28 41 29
f 29 42 30
f 29 41 42
f 30 42 43
f 30 43 44
f 30 44 45
f 31 46 47
f 31 47 32
f 32 47 48
f 32 48 49
f 32 49 50
f 32 50 33
f 33 50 51
f 33 51 34
f 34 52 35
f 34 51 52
f 35 53 36
f 35 52 53
f 36 53 37
f 37 53 54
f 37 54 55
f 37 55 56
f 37 56 57
f 37 57 38
f 38 57 58
f 38 58 39
f 39 58 59
f 39 59 44
f 40 43 41
f 41 43 42
f 44 59 45
f 45 59 60
f 45 60 46
f 46 60 61
f 46 61 47
f 47 61 48
f 48 58 62
f 48 62 49
f 48 61 58
f 49 63 56
f 49 56 50
f 49 62 63
f 50 56 51
f 51 55 52
f 51 56 55
f 52 55 54
f 52 54 53
f 56 63 57
f 57 63 62
f 57 62 58
f 58 61 60
f 58 60 59

