# https://github.com/mikedh/trimesh
v -0.04685869 -0.04743578 -0.18664064
v -0.05059417 -0.04742883 -0.19411892
v -0.04685869 -0.04742883 -0.19040784
v -0.04329972 -0.04725515 -0.17952715
v -0.04685628 -0.04742883 -0.17215410
v -0.04707629 -0.04743578 -0.17952715
v -0.05439734 -0.04741494 -0.19411892
v -0.04307244 -0.04148905 -0.19411892
v -0.04546363 -0.04661602 -0.19391548
v -0.05062560 -0.04742883 -0.19040784
v -0.04403956 -0.04684528 -0.19040784
v -0.04307244 -0.04710927 -0.18283836
v -0.04203038 -0.04681749 -0.17185244
v -0.04685628 -0.04740105 -0.16514584
v -0.04991235 -0.04742189 -0.17215410
v -0.05062802 -0.04740799 -0.16024216
v -0.05558206 -0.04740799 -0.18840147
v -0.05692876 -0.04740105 -0.19352262
v -0.05692876 -0.02284992 -0.19411892
v -0.04307244 0.01937467 -0.19411892
v -0.03222868 0.02352210 -0.17215410
v -0.03222868 -0.03670248 -0.17207693
v -0.04307244 -0.04681749 -0.18673184
v -0.04112371 -0.04637287 -0.16936903
v -0.04404681 -0.04682443 -0.16400937
v -0.04678132 -0.04690780 -0.15944242
v -0.05027019 -0.04723431 -0.15648198
v -0.05439734 -0.04734547 -0.15270776
v -0.05439734 -0.04739410 -0.15648198
v -0.05692876 -0.04738020 -0.15648198
v -0.05692876 0.01938856 -0.19040082
v -0.05625420 0.01905510 -0.19411190
v -0.03897914 0.02352905 -0.17200678
v -0.03582635 0.02353599 -0.17215410
v -0.03222868 0.02352210 -0.14332132
v -0.03222868 -0.03735551 -0.14939655
v -0.03222868 -0.03740414 -0.14453497
v -0.04450377 -0.04662991 -0.16108400
v -0.04772668 -0.04673412 -0.15648198
v -0.05071022 -0.04684528 -0.15284806
v -0.05692876 -0.04736631 -0.15272179
v -0.05454725 -0.04683833 -0.14905982
v -0.05692876 -0.04712316 -0.14900370
v -0.05692876 0.01949277 -0.18663362
v -0.04521944 0.02353599 -0.15375304
v -0.03582635 0.02353599 -0.14332132
v -0.05625420 0.01785325 -0.12957840
v -0.05625420 0.01588027 -0.12656885
v -0.05625420 0.01370582 -0.12429590
v -0.05625420 0.01170505 -0.12298405
v -0.05647664 -0.01693098 -0.12269642
v -0.05625420 -0.03636902 -0.13752671
v -0.05633641 -0.04658129 -0.14678687
v -0.05202308 -0.04660213 -0.15035764
v -0.04843267 -0.04651181 -0.15420201
v -0.05692876 0.00887062 -0.12245089
v -0.05692876 0.01954834 -0.18285940
v -0.04540319 0.02353599 -0.14847053
v -0.03869142 0.02353599 -0.14332132
v -0.05692876 0.01868690 -0.13386474
v -0.05692876 0.01958308 -0.17909220
v -0.05692876 0.01957613 -0.17278547
v -0.05692876 0.01954834 -0.16901827
f 1 2 3
f 1 3 4
f 1 4 5
f 1 5 6
f 1 6 2
f 2 7 19
f 2 19 20
f 2 20 8
f 2 8 9
f 2 9 3
f 2 6 10
f 2 10 7
f 3 9 11
f 3 11 12
f 3 12 4
f 4 12 13
f 4 13 14
f 4 14 5
f 5 15 6
f 5 14 16
f 5 16 15
f 6 15 10
f 7 10 17
f 7 17 18
f 7 18 19
f 8 11 9
f 8 20 21
f 8 21 22
f 8 22 11
f 10 15 17
f 11 23 12
f 11 22 23
f 12 24 13
f 12 23 24
f 13 24 25
f 13 25 14
f 14 25 26
f 14 26 27
f 14 27 28
f 14 28 16
f 15 16 29
f 15 29 17
f 16 28 29
f 17 29 30
f 17 30 18
f 18 30 41
f 18 41 43
f 18 43 56
f 18 56 60
f 18 60 63
f 18 63 62
f 18 62 61
f 18 61 57
f 18 57 44
f 18 44 31
f 18 31 19
f 19 31 32
f 19 32 20
f 20 32 33
f 20 33 34
f 20 34 21
f 21 34 46
f 21 46 35
f 21 35 37
f 21 37 36
f 21 36 22
f 22 24 23
f 22 36 24
f 24 36 37
f 24 37 38
f 24 38 25
f 25 38 26
f 26 38 39
f 26 39 27
f 27 39 40
f 27 40 28
f 28 41 29
f 28 40 42
f 28 42 43
f 28 43 41
f 29 41 30
f 31 44 45
f 31 45 33
f 31 33 32
f 33 45 34
f 34 45 58
f 34 58 59
f 34 59 46
f 35 46 47
f 35 47 48
f 35 48 49
f 35 49 50
f 35 50 51
f 35 51 37
f 37 51 52
f 37 52 53
f 37 53 54
f 37 54 55
f 37 55 38
f 38 55 39
f 39 55 40
f 40 55 54
f 40 54 42
f 42 53 43
f 42 54 53
f 43 53 52
f 43 52 51
f 43 51 56
f 44 57 45
f 45 57 58
f 46 59 47
f 47 59 60
f 47 60 48
f 48 60 56
f 48 56 49
f 49 56 50
f 50 56 51
f 57 61 58
f 58 61 62
f 58 62 63
f 58 63 60
f 58 60 59

