# https://github.com/mikedh/trimesh
v 0.05168915 0.01343917 -0.17202639
v 0.04883020 0.02179849 -0.17350180
v 0.04795663 0.01121603 -0.13481345
v 0.04717130 0.00789383 -0.13932163
v 0.04717130 0.00789383 -0.18060559
v 0.03444717 0.01123856 -0.30505856
v 0.03547957 0.01475603 -0.30724434
v 0.03569135 0.01778531 -0.30388370
v 0.00099561 0.02207888 -0.17202639
v 0.02548205 0.01030975 -0.03836581
v 0.03260297 0.00910554 -0.06210887
v 0.03321182 0.01919230 -0.30596020
v 0.02677917 0.02124270 -0.30615145
v 0.01661399 0.02207888 -0.26475820
v 0.02548205 0.00171009 -0.04189039
v 0.02572912 -0.00349477 -0.21729941
v 0.03029110 0.00171009 -0.08128911
v 0.02572912 -0.00349477 -0.25516808
v 0.03152645 0.01067026 -0.31205307
v 0.03336183 0.01475603 -0.31205307
v 0.03157057 0.01905711 -0.31205307
v 0.00208096 0.02203632 -0.28781821
v -0.03845623 0.01211730 -0.10634364
v -0.03559728 0.01211730 -0.07434925
v -0.02045539 0.01030975 -0.04484119
v 0.02101713 0.01030975 -0.03896691
v 0.02677917 0.02073699 -0.31205307
v 0.00904305 0.02199376 -0.30022252
v -0.01460512 0.00171009 -0.04743681
v -0.01970536 -0.00349477 -0.21729941
v 0.01957001 -0.00349477 -0.27098768
v 0.02084948 0.01055760 -0.31620605
v 0.03024698 0.01333402 -0.31568693
v 0.00992544 -0.00349477 -0.29257228
v 0.03029992 0.01830355 -0.31546836
v -0.03632966 0.01211730 -0.16836521
v 0.00904305 0.02142045 -0.30615145
v 0.00101326 0.01851635 -0.31355579
v -0.01445511 0.01211730 -0.30153398
v -0.03806797 0.00171009 -0.11093378
v -0.03491783 0.00334991 -0.06071543
v -0.03527079 0.01030975 -0.06251870
v -0.03645320 0.00884768 -0.17005919
v -0.03651496 0.00201302 -0.17068760
v -0.02549386 0.01030975 -0.04790128
v -0.02027891 0.00171009 -0.04893953
v 0.02677917 0.01896448 -0.31615142
v 0.02084948 0.01907714 -0.31623337
v 0.02084948 0.02076202 -0.31205307
v -0.02576740 0.00171009 -0.05249143
v -0.01757878 -0.00259349 -0.27880185
v -0.01288445 -0.00349477 -0.28937558
v 0.02084948 0.01475603 -0.31749020
v 0.02677917 0.01308116 -0.31672517
v 0.00312218 0.00530017 -0.31093285
v -0.00277221 0.00530017 -0.31093285
v -0.00234866 0.01025968 -0.31432082
v -0.00867543 -0.00349477 -0.29382911
v -0.00893132 0.01078041 -0.31120607
v -0.01249619 0.01055509 -0.30762685
v -0.01450805 0.00884768 -0.30022252
v -0.01132261 0.00642926 -0.30877439
v -0.00737831 0.00549544 -0.31008587
f 1 2 3
f 1 3 4
f 1 4 5
f 1 5 6
f 1 6 7
f 1 7 8
f 1 8 2
f 2 9 10
f 2 10 11
f 2 11 3
f 2 8 12
f 2 12 13
f 2 13 14
f 2 14 9
f 3 11 15
f 3 15 4
f 4 16 18
f 4 18 5
f 4 15 17
f 4 17 16
f 5 18 6
f 6 19 7
f 6 18 19
f 7 19 20
f 7 20 21
f 7 21 8
f 8 21 12
f 9 14 22
f 9 22 23
f 9 23 24
f 9 24 25
f 9 25 26
f 9 26 10
f 10 26 15
f 10 15 11
f 12 21 27
f 12 27 13
f 13 27 28
f 13 28 14
f 14 28 22
f 15 26 29
f 15 29 30
f 15 30 16
f 15 16 17
f 16 30 52
f 16 52 58
f 16 58 34
f 16 34 31
f 16 31 18
f 18 31 19
f 19 32 33
f 19 33 20
f 19 31 34
f 19 34 32
f 20 33 35
f 20 35 21
f 21 35 27
f 22 36 23
f 22 28 37
f 22 37 38
f 22 38 39
f 22 39 36
f 23 40 41
f 23 41 42
f 23 42 24
f 23 36 43
f 23 43 44
f 23 44 40
f 24 42 45
f 24 45 25
f 25 45 46
f 25 46 29
f 25 29 26
f 27 35 47
f 27 47 48
f 27 48 49
f 27 49 37
f 27 37 28
f 29 46 30
f 30 46 50
f 30 50 40
f 30 40 44
f 30 44 51
f 30 51 52
f 32 53 54
f 32 54 33
f 32 34 55
f 32 55 56
f 32 56 57
f 32 57 53
f 33 54 35
f 34 58 55
f 35 54 47
f 36 39 43
f 37 49 38
f 38 49 48
f 38 48 53
f 38 53 57
f 38 57 59
f 38 59 60
f 38 60 39
f 39 44 43
f 39 60 61
f 39 61 44
f 40 50 41
f 41 45 42
f 41 50 45
f 44 61 51
f 45 50 46
f 47 54 53
f 47 53 48
f 51 61 62
f 51 62 52
f 52 62 58
f 55 58 56
f 56 58 63
f 56 63 57
f 57 63 62
f 57 62 59
f 58 62 63
f 59 62 60
f 60 62 61

