# https://github.com/mikedh/trimesh
v -0.02704119 0.00025997 -0.12026909
v -0.02548503 -0.01661556 -0.12380069
v -0.02542803 -0.01828797 -0.11292241
v -0.02652247 -0.00608917 -0.11326261
v -0.02620326 0.00265886 -0.10990112
v -0.02694999 0.00930313 -0.12118034
v -0.02430508 0.01901223 -0.12501568
v -0.01507069 -0.03613970 -0.12452159
v -0.02333604 -0.02640033 -0.12209969
v -0.02382056 -0.02617331 -0.11412526
v -0.02298832 -0.02136795 -0.10046059
v -0.02448749 -0.01187073 -0.10127869
v -0.02480100 -0.00408378 -0.10105594
v -0.02483520 0.00537559 -0.10170799
v -0.02587834 0.01118743 -0.11061392
v -0.02612345 0.01900466 -0.12127349
v -0.02082223 0.02814620 -0.12470789
v -0.00719296 0.02939484 -0.12544094
v -0.00292918 0.00194752 -0.12568394
v 0.00132890 -0.01295289 -0.12568798
v 0.00985076 -0.04138398 -0.12544498
v 0.00115219 -0.04236775 -0.12486179
v -0.00683384 -0.04074074 -0.12330254
v -0.01527020 -0.03848563 -0.11727615
v -0.01998429 -0.03368783 -0.11417791
v -0.02234420 -0.02735384 -0.10587948
v -0.01757309 -0.03436134 -0.09777545
v -0.01556661 -0.00988048 -0.08431328
v -0.01643875 -0.00190434 -0.08431328
v -0.02407707 0.01657549 -0.10185784
v -0.02475540 0.02063924 -0.11111612
v -0.02323913 0.02766944 -0.11561160
v -0.02193948 0.02823701 -0.10585923
v -0.01112613 0.02941754 -0.09149391
v 0.03119245 0.02941754 -0.08837137
v 0.03117536 0.02875160 -0.12017190
v 0.03117536 0.02231166 -0.12529108
v 0.00487445 0.01758954 -0.12568798
v -0.00008476 0.00976474 -0.12568798
v 0.00842570 -0.02148903 -0.12568798
v 0.02904347 -0.04612880 -0.12369539
v 0.01872033 -0.04454719 -0.12423404
v 0.03117536 -0.02006634 -0.12568394
v 0.00132890 -0.04408557 -0.12127349
v -0.01728238 -0.03619267 -0.10518693
v -0.00068899 -0.04425206 -0.11261866
v -0.00396662 -0.04384342 -0.10457943
v -0.01245428 -0.04030183 -0.10901417
v -0.01234028 -0.01904472 -0.08431328
v -0.00998038 -0.04092236 -0.09607445
v 0.00002925 -0.04198181 -0.08583203
v -0.01542410 0.00819070 -0.08431328
v -0.02075953 0.02610297 -0.09740690
v -0.00535178 0.02695810 -0.08454818
v 0.02070401 0.02940240 -0.08431328
v 0.03119245 -0.03387702 -0.08837137
v 0.02331472 -0.03753212 -0.08464538
v 0.02900926 -0.04789203 -0.09219051
v 0.01725537 -0.04784662 -0.09149391
v 0.00667572 -0.04622718 -0.10096684
v 0.00771317 -0.04677961 -0.09288306
v -0.00186324 -0.04467584 -0.09590030
v 0.02070401 -0.02098957 -0.08431328
v -0.01206666 0.01706738 -0.08431328
f 1 2 3
f 1 3 4
f 1 4 5
f 1 5 6
f 1 6 2
f 2 6 7
f 2 7 8
f 2 8 9
f 2 9 10
f 2 10 3
f 3 10 11
f 3 11 12
f 3 12 4
f 4 12 13
f 4 13 5
f 5 14 15
f 5 15 6
f 5 13 14
f 6 15 16
f 6 16 7
f 7 16 17
f 7 17 18
f 7 18 19
f 7 19 20
f 7 20 8
f 8 21 22
f 8 22 23
f 8 23 24
f 8 24 25
f 8 25 9
f 8 20 21
f 9 25 10
f 10 25 26
f 10 26 11
f 11 26 27
f 11 27 28
f 11 28 12
f 12 28 29
f 12 29 13
f 13 29 14
f 14 30 15
f 14 29 30
f 15 30 31
f 15 31 16
f 16 31 32
f 16 32 17
f 17 32 33
f 17 33 34
f 17 34 18
f 18 34 35
f 18 35 36
f 18 36 37
f 18 37 38
f 18 38 39
f 18 39 19
f 19 39 20
f 20 39 38
f 20 38 40
f 20 40 21
f 21 41 42
f 21 42 22
f 21 40 43
f 21 43 41
f 22 44 23
f 22 42 41
f 22 41 44
f 23 44 24
f 24 45 25
f 24 44 46
f 24 46 47
f 24 47 48
f 24 48 45
f 25 27 26
f 25 45 27
f 27 49 28
f 27 45 50
f 27 50 51
f 27 51 49
f 28 49 63
f 28 63 55
f 28 55 64
f 28 64 52
f 28 52 29
f 29 52 53
f 29 53 30
f 30 53 33
f 30 33 31
f 31 33 32
f 33 53 34
f 34 53 54
f 34 54 55
f 34 55 35
f 35 56 43
f 35 43 37
f 35 37 36
f 35 55 57
f 35 57 56
f 37 43 38
f 38 43 40
f 41 43 56
f 41 56 58
f 41 58 59
f 41 59 60
f 41 60 44
f 44 60 46
f 45 48 50
f 46 60 61
f 46 61 62
f 46 62 47
f 47 62 48
f 48 62 50
f 49 51 57
f 49 57 63
f 50 62 51
f 51 62 61
f 51 61 59
f 51 59 58
f 51 58 57
f 52 64 53
f 53 64 54
f 54 64 55
f 55 63 57
f 56 57 58
f 59 61 60

