# https://github.com/mikedh/trimesh
v -0.02250036 -0.03833247 -0.11668302
v -0.02646088 -0.03764660 -0.11668302
v -0.02250036 -0.03832855 -0.11679921
v -0.02250036 0.00170643 -0.11668302
v -0.03022097 -0.03742712 -0.09328854
v -0.03103712 -0.03654530 -0.11088212
v -0.02646088 -0.03763484 -0.11679921
v -0.03022097 -0.03731346 -0.09904795
v -0.03022097 -0.03714886 -0.10496504
v -0.03158871 -0.03674909 -0.10496504
v -0.02657473 -0.03737617 -0.11853367
v -0.02250036 -0.03808555 -0.11853367
v -0.03022097 0.00170643 -0.09328854
v -0.02250036 0.00170643 -0.11853367
v -0.03287788 -0.03678045 -0.09328854
v -0.03031236 -0.03618472 -0.11679921
v -0.03022097 -0.03622000 -0.11679921
v -0.03454867 -0.03468366 -0.10496504
v -0.03322102 -0.03664720 -0.09328854
v -0.03009269 -0.03603579 -0.11853367
v -0.03022097 -0.03540872 -0.12057519
v -0.03022097 -0.03513829 -0.12149636
v -0.03022097 -0.02766823 -0.14650912
v -0.03022097 -0.02581443 -0.15157973
v -0.03022097 -0.02508545 -0.15265858
v -0.03022097 -0.01184628 -0.16969614
v -0.03022097 -0.00637895 -0.17572941
v -0.03022097 -0.00293786 -0.17723150
v -0.03022097 -0.00106838 -0.17779583
v -0.03022097 0.00170643 -0.17806969
v -0.03597895 0.00170643 -0.09328854
v -0.03644395 -0.03172464 -0.10496504
v -0.03563741 -0.02427417 -0.14494894
v -0.03399548 -0.03387630 -0.11088212
v -0.03506659 -0.03266525 -0.09328854
v -0.03287307 -0.02580659 -0.14670830
v -0.03517562 -0.02331004 -0.14889920
v -0.03553800 -0.01216374 -0.16149686
v -0.03566467 -0.00644557 -0.16765462
v -0.03539530 -0.01787014 -0.15534741
v -0.03577371 -0.00073133 -0.17363810
v -0.03172019 0.00170643 -0.17708212
v -0.03741885 0.00170643 -0.10496504
v -0.03875452 -0.01483665 -0.10496504
v -0.03887959 -0.02074686 -0.10496504
v -0.03759523 -0.02074686 -0.09904795
v -0.03612165 -0.01500518 -0.09328854
v -0.03811474 -0.02666490 -0.10496504
v -0.03590359 -0.02110351 -0.14670830
v -0.03563741 -0.01903024 -0.15229343
v -0.03606874 -0.02074686 -0.09328854
v -0.03590840 -0.00862075 -0.16374585
v -0.03607516 -0.00282420 -0.16980402
v -0.03572240 -0.01441338 -0.15767939
v -0.03641188 0.00170643 -0.17125632
v -0.03594688 0.00170643 -0.17384557
v -0.03659307 0.00170643 -0.17000320
v -0.03755674 0.00170643 -0.10617667
v -0.03809069 0.00170643 -0.11088212
v -0.03656902 -0.00300057 -0.16414420
v -0.03638141 -0.00891861 -0.15822711
v -0.03618259 -0.01483665 -0.15229343
f 1 2 3
f 1 3 12
f 1 12 14
f 1 14 4
f 1 4 13
f 1 13 5
f 1 5 2
f 2 6 7
f 2 7 3
f 2 5 8
f 2 8 9
f 2 9 10
f 2 10 6
f 3 7 11
f 3 11 12
f 4 14 30
f 4 30 42
f 4 42 56
f 4 56 55
f 4 55 57
f 4 57 59
f 4 59 58
f 4 58 43
f 4 43 31
f 4 31 13
f 5 13 31
f 5 31 47
f 5 47 51
f 5 51 35
f 5 35 19
f 5 19 15
f 5 15 8
f 6 16 17
f 6 17 7
f 6 10 18
f 6 18 16
f 7 17 11
f 8 15 9
f 9 15 10
f 10 15 19
f 10 19 18
f 11 17 20
f 11 20 21
f 11 21 22
f 11 22 23
f 11 23 12
f 12 23 24
f 12 24 25
f 12 25 26
f 12 26 27
f 12 27 28
f 12 28 29
f 12 29 30
f 12 30 14
f 16 18 20
f 16 20 17
f 18 19 32
f 18 32 33
f 18 33 34
f 18 34 20
f 19 35 32
f 20 33 21
f 20 34 33
f 21 33 36
f 21 36 22
f 22 36 23
f 23 36 24
f 24 36 37
f 24 37 25
f 25 37 26
f 26 38 39
f 26 39 27
f 26 37 40
f 26 40 38
f 27 41 28
f 27 39 41
f 28 41 29
f 29 41 42
f 29 42 30
f 31 43 44
f 31 44 45
f 31 45 46
f 31 46 47
f 32 35 48
f 32 48 33
f 33 49 50
f 33 50 40
f 33 40 37
f 33 37 36
f 33 48 45
f 33 45 49
f 35 51 46
f 35 46 45
f 35 45 48
f 38 52 53
f 38 53 39
f 38 40 52
f 39 53 41
f 40 50 54
f 40 54 52
f 41 55 56
f 41 56 42
f 41 53 57
f 41 57 55
f 43 58 44
f 44 58 59
f 44 59 57
f 44 57 45
f 45 57 60
f 45 60 61
f 45 61 62
f 45 62 49
f 46 51 47
f 49 62 52
f 49 52 50
f 50 52 54
f 52 62 61
f 52 61 53
f 53 61 60
f 53 60 57

