# https://github.com/mikedh/trimesh
v -0.02801368 -0.00000000 0.00721267
v 0.02045116 0.00278844 0.03492651
v -0.01880168 0.00278844 0.02865844
v -0.04083685 0.03058626 -0.00571524
v -0.03912135 0.02117288 -0.01726641
v -0.03531435 0.01180758 -0.02465378
v -0.02938452 0.00318266 -0.01625904
v -0.00892385 0.00001923 -0.03893604
v 0.02743850 0.00000962 -0.02736248
v 0.03113583 0.02430747 -0.01426668
v 0.02242516 0.02864397 0.02991205
v 0.02168099 0.02888435 0.03088584
v 0.02066266 0.02907666 0.03157980
v 0.01895499 0.03215355 0.03127759
v 0.03568700 0.00829800 -0.04822622
v 0.03446500 0.02346132 -0.03304852
v -0.01624801 0.02879781 0.02570349
v -0.04117369 0.04788418 0.00192957
v -0.03601152 0.08979726 -0.03194042
v -0.03224368 0.01678831 -0.05161770
v -0.00172501 0.00798069 -0.05857974
v 0.02854300 0.03731697 0.00047448
v 0.02210400 0.04498036 0.02680040
v 0.02778316 0.05286490 0.00475021
v 0.02834716 0.06535517 0.00158259
v 0.02273850 0.05967253 0.02252467
v -0.01523751 0.05543219 0.01931229
v 0.03788816 0.04355729 -0.05239001
v 0.03653300 0.03034588 -0.04476758
v 0.03693250 0.01966328 -0.06132202
v 0.03831900 0.03273047 -0.06847434
v -0.03905085 0.07232626 -0.00188724
v -0.03735885 0.08604729 -0.01616949
v -0.00477218 0.09822988 -0.03891365
v -0.03176585 0.08945111 -0.04963654
v -0.02668985 0.05684563 -0.07550354
v -0.02607102 0.09340299 -0.01939307
v -0.02795102 0.02727860 -0.06759009
v 0.00070332 0.02172095 -0.07110469
v 0.02988250 0.07588392 -0.00712556
v 0.03670533 0.07221088 -0.04570780
v 0.03446500 0.08053773 -0.03304852
v 0.02554283 0.08739343 0.00345182
v 0.02215883 0.07175896 0.01751022
v -0.01351418 0.07560508 0.00978705
v 0.03885167 0.04881686 -0.07157480
v 0.03806050 0.05891292 -0.05337499
v 0.00136132 0.03544198 -0.07759663
v -0.01084301 0.08944149 -0.00375647
v -0.00175634 0.09289338 -0.05737089
v -0.00864968 0.09582605 -0.01770293
v 0.00460432 0.09699911 -0.01940427
v 0.02302833 0.09645104 -0.01801634
v 0.03286700 0.09608567 -0.03785032
v -0.02837402 0.08248002 -0.06290023
v -0.02677602 0.07119166 -0.07167553
v 0.00130649 0.07325895 -0.07534683
v 0.00209766 0.05406681 -0.07942108
v -0.02541302 0.04041309 -0.07544757
v 0.03221683 0.08148003 -0.02035567
v 0.03878117 0.06641286 -0.06954886
v 0.03759050 0.07827813 -0.06471349
v 0.03620400 0.08775881 -0.05593819
v 0.00035082 0.08490307 -0.06792588
f 1 2 3
f 1 3 4
f 1 4 5
f 1 5 6
f 1 6 7
f 1 7 8
f 1 8 9
f 1 9 2
f 2 10 11
f 2 11 12
f 2 12 13
f 2 13 14
f 2 14 3
f 2 9 15
f 2 15 16
f 2 16 10
f 3 14 17
f 3 17 18
f 3 18 4
f 4 18 19
f 4 19 5
f 5 19 20
f 5 20 6
f 6 20 7
f 7 20 8
f 8 20 21
f 8 21 15
f 8 15 9
f 10 22 11
f 10 16 22
f 11 23 12
f 11 22 24
f 11 24 25
f 11 25 26
f 11 26 23
f 12 23 13
f 13 23 14
f 14 23 26
f 14 26 27
f 14 27 17
f 15 28 29
f 15 29 16
f 15 21 30
f 15 30 31
f 15 31 28
f 16 29 28
f 16 28 22
f 17 27 32
f 17 32 18
f 18 32 33
f 18 33 19
f 19 34 35
f 19 35 36
f 19 36 20
f 19 33 37
f 19 37 34
f 20 36 38
f 20 38 21
f 21 38 39
f 21 39 30
f 22 25 24
f 22 28 25
f 25 40 26
f 25 28 41
f 25 41 42
f 25 42 40
f 26 43 44
f 26 44 27
f 26 40 43
f 27 44 45
f 27 45 32
f 28 31 46
f 28 46 47
f 28 47 41
f 30 39 31
f 31 39 48
f 31 48 46
f 32 49 33
f 32 45 49
f 33 49 37
f 34 50 35
f 34 37 51
f 34 51 52
f 34 52 53
f 34 53 54
f 34 54 50
f 35 50 55
f 35 55 56
f 35 56 36
f 36 56 57
f 36 57 58
f 36 58 59
f 36 59 38
f 37 49 51
f 38 59 39
f 39 59 48
f 40 42 60
f 40 60 43
f 41 47 61
f 41 61 62
f 41 62 63
f 41 63 42
f 42 63 54
f 42 54 60
f 43 53 52
f 43 52 51
f 43 51 49
f 43 49 45
f 43 45 44
f 43 60 54
f 43 54 53
f 46 48 58
f 46 58 61
f 46 61 47
f 48 59 58
f 50 64 55
f 50 54 63
f 50 63 64
f 55 64 56
f 56 64 57
f 57 64 62
f 57 62 61
f 57 61 58
f 62 64 63

