# https://github.com/mikedh/trimesh
v 0.04488590 0.02033968 0.01985227
v 0.04286670 0.02033968 0.01949518
v 0.04488590 0.01957300 0.01968563
v 0.04488590 0.02033968 -0.04094709
v 0.04488590 0.01854613 0.01938211
v 0.04488590 0.01875740 0.01944757
v 0.04105381 0.02033968 0.00684849
v 0.04105381 0.01900498 0.00813399
v 0.04105381 0.01776432 0.00931236
v 0.04488590 0.02010269 -0.04086972
v 0.04129575 0.02033968 -0.03969135
v 0.04123986 0.01776432 0.00932426
v 0.04304525 0.01776432 0.00937188
v 0.04488590 0.01776432 0.00937188
v 0.04105381 0.02033968 -0.02675303
v 0.04105381 0.01776432 -0.02910383
v 0.04488590 0.01792618 -0.04007819
v 0.04116184 0.02033968 -0.03310316
v 0.04488590 0.01776432 -0.02921691
v 0.04105381 0.01792971 -0.02895505
v 0.04488590 0.01782231 -0.03719772
v 0.04134152 0.01776432 -0.02912169
v 0.04443164 0.01776432 -0.02921691
v 0.04218251 0.01776432 -0.02915739
v 0.04183703 0.01776432 -0.02914549
f 1 2 3
f 1 3 6
f 1 6 5
f 1 5 14
f 1 14 19
f 1 19 21
f 1 21 17
f 1 17 10
f 1 10 4
f 1 4 11
f 1 11 18
f 1 18 15
f 1 15 7
f 1 7 2
f 2 5 6
f 2 6 3
f 2 7 8
f 2 8 9
f 2 9 5
f 4 10 11
f 5 9 12
f 5 12 13
f 5 13 14
f 7 15 20
f 7 20 16
f 7 16 9
f 7 9 8
f 9 16 22
f 9 22 25
f 9 25 24
f 9 24 23
f 9 23 19
f 9 19 14
f 9 14 13
f 9 13 12
f 10 17 11
f 11 16 18
f 11 17 16
f 15 18 20
f 16 20 18
f 16 17 21
f 16 21 22
f 19 23 21
f 21 23 24
f 21 24 25
f 21 25 22

