# https://github.com/mikedh/trimesh
v 0.04973603 0.02321613 -0.03320002
v 0.04535409 0.02435343 -0.02467771
v 0.04348905 0.02155208 0.00389292
v 0.04277381 0.01573990 0.00148294
v 0.04745452 0.01212329 -0.03602913
v 0.04973603 0.02321613 -0.04968576
v 0.02917531 0.02428040 -0.19320258
v 0.02351682 0.02435343 -0.20846587
v 0.00099148 0.02435343 -0.21073615
v -0.01469840 0.02435223 -0.20280762
v -0.03741386 0.02343401 0.02062317
v -0.00062911 0.02260079 0.04290686
v 0.01834722 0.02137730 0.03878542
v 0.03691614 0.01991437 0.02100737
v 0.04050136 0.01840357 0.01164680
v 0.02398761 0.01269553 0.02516373
v 0.02982717 0.01247645 0.01479028
v 0.03863632 0.01311334 0.00148294
v 0.04050136 0.01212329 -0.02904364
v 0.04745452 0.01212329 -0.04409736
v 0.02679422 0.01229688 0.00738567
v 0.02942882 0.02208003 -0.20539225
v 0.02768147 0.02208003 -0.21838525
v 0.01666325 0.02215305 -0.26302250
v 0.00904918 0.02250023 -0.27357060
v 0.01218172 0.02435343 -0.21213324
v -0.00869587 0.02435223 -0.20975818
v 0.00009517 0.02206925 -0.28387419
v -0.00869587 0.02101815 -0.29134867
v -0.03469779 0.02375245 -0.16078992
v -0.04275548 0.02251460 -0.00145097
v -0.04142460 0.02251460 0.01073870
v -0.03926985 0.01545976 0.01073870
v -0.03338501 0.01501921 0.02264895
v -0.03227143 0.02051176 0.02788808
v -0.02644091 0.02251460 0.03375587
v -0.01808444 0.02251340 0.03878542
v -0.00869587 0.02251340 0.04206860
v -0.01135762 0.01523350 0.03902992
v -0.00035751 0.01414169 0.03923948
v 0.01167472 0.01528737 0.03899500
v 0.00996359 0.02172807 0.04175425
v 0.02184190 0.01461577 0.03316211
v 0.02829712 0.01997423 0.03186979
v 0.01200970 0.01241659 0.02809763
v -0.01461692 0.01212449 -0.04070941
v -0.02407792 0.01212449 -0.04423709
v -0.03547640 0.01212329 -0.06274862
v -0.01165639 0.01241061 0.02816748
v 0.02740986 0.01212329 -0.17193177
v -0.00127192 0.01615291 -0.31391179
v -0.01092305 0.01975036 -0.30025516
v -0.01453544 0.01278412 -0.30158239
v -0.03620974 0.01644143 -0.16554005
v -0.03862704 0.02251460 -0.10497588
v -0.04108963 0.01554835 -0.00145097
v -0.03845503 0.01212329 -0.10633805
v -0.02941049 0.01238906 0.01038943
v -0.02396023 0.01249800 0.02198532
v -0.02309108 0.01501322 0.03298747
v -0.00089167 0.01245371 0.03113631
v -0.02243017 0.01212329 -0.19149113
v -0.00970082 0.01537357 -0.30965063
v -0.03570274 0.01266441 -0.17154757
f 1 2 3
f 1 3 4
f 1 4 5
f 1 5 20
f 1 20 6
f 1 6 2
f 2 6 7
f 2 7 8
f 2 8 26
f 2 26 9
f 2 9 10
f 2 10 11
f 2 11 12
f 2 12 13
f 2 13 3
f 3 13 14
f 3 14 15
f 3 15 4
f 4 15 16
f 4 16 17
f 4 17 18
f 4 18 5
f 5 19 48
f 5 48 57
f 5 57 62
f 5 62 50
f 5 50 20
f 5 18 17
f 5 17 21
f 5 21 19
f 6 20 22
f 6 22 23
f 6 23 7
f 7 23 24
f 7 24 8
f 8 24 25
f 8 25 26
f 9 26 27
f 9 27 10
f 10 27 28
f 10 28 29
f 10 29 30
f 10 30 11
f 11 31 32
f 11 32 33
f 11 33 34
f 11 34 35
f 11 35 36
f 11 36 37
f 11 37 38
f 11 38 12
f 11 30 31
f 12 38 39
f 12 39 40
f 12 40 41
f 12 41 42
f 12 42 13
f 13 42 41
f 13 41 43
f 13 43 44
f 13 44 14
f 14 44 43
f 14 43 15
f 15 43 16
f 16 43 40
f 16 40 45
f 16 45 17
f 17 45 21
f 19 46 47
f 19 47 48
f 19 21 49
f 19 49 46
f 20 50 23
f 20 23 22
f 21 45 49
f 23 50 51
f 23 51 24
f 24 51 25
f 25 51 28
f 25 28 27
f 25 27 26
f 28 51 52
f 28 52 29
f 29 52 30
f 30 52 53
f 30 53 54
f 30 54 55
f 30 55 31
f 31 56 32
f 31 55 54
f 31 54 57
f 31 57 56
f 32 56 33
f 33 56 58
f 33 58 34
f 34 58 59
f 34 59 60
f 34 60 35
f 35 60 36
f 36 60 37
f 37 60 39
f 37 39 38
f 39 60 49
f 39 49 40
f 40 49 61
f 40 61 45
f 40 43 41
f 45 61 49
f 46 49 47
f 47 49 58
f 47 58 48
f 48 58 56
f 48 56 57
f 49 60 59
f 49 59 58
f 50 62 53
f 50 53 51
f 51 53 63
f 51 63 52
f 52 63 53
f 53 64 54
f 53 62 57
f 53 57 64
f 54 64 57

