# https://github.com/mikedh/trimesh
v -0.05823191 -0.01101296 -0.03731118
v -0.04541353 -0.02795283 -0.03639064
v -0.05778219 -0.01710412 -0.03708888
v -0.05802615 -0.02210978 -0.03132055
v -0.05721490 -0.01970929 -0.01236544
v -0.05796149 0.01621116 -0.03726273
v -0.05769401 0.01131715 -0.03730548
v -0.05715906 -0.00513890 -0.03731403
v -0.02820381 0.01644067 -0.03730833
v -0.03721871 -0.02904452 -0.03590900
v -0.04130436 -0.03114107 -0.03261444
v -0.04999888 -0.02803346 -0.03322718
v -0.05328797 -0.02207256 -0.03672409
v -0.05466063 -0.02510574 -0.02846489
v -0.05613617 -0.02317046 -0.02317251
v -0.05741184 -0.02101809 -0.01789722
v -0.05386702 -0.02434900 -0.01823922
v -0.05204758 -0.02459711 -0.01334013
v -0.04669802 -0.02775433 -0.01338288
v -0.03502010 -0.03065725 -0.01365933
v -0.04653929 0.01582659 -0.00819879
v -0.05651534 0.02075782 -0.01324608
v -0.05712966 0.02103695 -0.03594605
v -0.05190943 0.02101834 -0.03717438
v -0.03808875 0.02755610 -0.03724563
v -0.04328546 0.01218554 -0.03731118
v -0.02930018 -0.03146362 -0.02318676
v -0.02933839 -0.03160628 -0.02846489
v -0.03108141 -0.03008039 -0.03486306
v -0.02848011 0.02745685 -0.03698344
v -0.02820381 0.01644067 -0.02291886
v -0.04183050 -0.03082473 -0.02672926
v -0.04675093 -0.02961518 -0.03020052
v -0.03461741 -0.03161869 -0.02759850
v -0.04854979 -0.02851728 -0.02586287
v -0.04807656 -0.02820714 -0.02072439
v -0.04175996 -0.02950973 -0.01365933
v -0.03365037 -0.03130234 -0.01982950
v -0.02952945 -0.03102321 -0.01562010
v -0.02925903 0.02183091 -0.00819879
v -0.04126615 -0.03036572 -0.01986940
v -0.04186578 0.02887729 -0.00972922
v -0.05128629 0.02528587 -0.01329453
v -0.05576582 0.02304045 -0.01996630
v -0.05634780 0.02352427 -0.02656396
v -0.05627726 0.02397708 -0.03220119
v -0.04996654 0.02812676 -0.03322718
v -0.04542235 0.02805232 -0.03639349
v -0.03375031 0.03008064 -0.03524496
v -0.02880050 0.03161894 -0.03101561
v -0.02933545 0.03055205 -0.00966083
v -0.03461741 0.03028533 -0.00966083
v -0.03738037 0.03094283 -0.01755523
v -0.04328841 0.03005583 -0.01988365
v -0.04503436 0.02858576 -0.01392722
v -0.04840576 0.02805232 -0.01984660
v -0.05034277 0.02785384 -0.02672926
v -0.04675093 0.02971467 -0.03020052
v -0.04183050 0.03109170 -0.03039717
v -0.03461741 0.03174919 -0.02759850
v -0.03081687 0.03156932 -0.02258256
v -0.03107847 0.03117853 -0.01614734
v -0.03835035 0.03129639 -0.02329220
v -0.04501672 0.02995038 -0.02499648
f 1 2 3
f 1 3 4
f 1 4 5
f 1 5 6
f 1 6 7
f 1 7 8
f 1 8 9
f 1 9 2
f 2 10 11
f 2 11 12
f 2 12 13
f 2 13 3
f 2 9 10
f 3 13 4
f 4 14 15
f 4 15 16
f 4 16 5
f 4 13 12
f 4 12 14
f 5 16 17
f 5 17 18
f 5 18 19
f 5 19 20
f 5 20 21
f 5 21 22
f 5 22 6
f 6 22 23
f 6 23 24
f 6 24 25
f 6 25 7
f 7 26 8
f 7 25 9
f 7 9 26
f 8 26 9
f 9 27 28
f 9 28 29
f 9 29 10
f 9 25 30
f 9 30 31
f 9 31 27
f 10 29 11
f 11 32 33
f 11 33 12
f 11 29 28
f 11 28 34
f 11 34 32
f 12 33 35
f 12 35 14
f 14 17 15
f 14 35 36
f 14 36 17
f 15 17 16
f 17 36 18
f 18 36 19
f 19 36 37
f 19 37 20
f 20 38 39
f 20 39 40
f 20 40 21
f 20 37 41
f 20 41 38
f 21 40 42
f 21 42 22
f 22 42 43
f 22 43 44
f 22 44 45
f 22 45 23
f 23 45 46
f 23 46 47
f 23 47 48
f 23 48 24
f 24 48 25
f 25 48 49
f 25 49 30
f 27 39 38
f 27 38 34
f 27 34 28
f 27 31 39
f 30 49 50
f 30 50 31
f 31 50 51
f 31 51 40
f 31 40 39
f 32 34 38
f 32 38 41
f 32 41 33
f 33 41 36
f 33 36 35
f 36 41 37
f 40 51 52
f 40 52 42
f 42 52 53
f 42 53 54
f 42 54 55
f 42 55 43
f 43 56 57
f 43 57 44
f 43 55 56
f 44 57 45
f 45 57 46
f 46 57 47
f 47 58 59
f 47 59 48
f 47 57 58
f 48 59 49
f 49 59 50
f 50 59 60
f 50 60 61
f 50 61 51
f 51 61 62
f 51 62 52
f 52 62 53
f 53 62 63
f 53 63 54
f 54 64 56
f 54 56 55
f 54 63 59
f 54 59 64
f 56 64 58
f 56 58 57
f 58 64 59
f 59 63 60
f 60 63 62
f 60 62 61

