# https://github.com/mikedh/trimesh
v 0.06161656 0.02489804 -0.02520400
v 0.05958105 0.02988548 -0.04878061
v 0.06073988 0.02307158 -0.00547864
v 0.06123364 0.02434068 -0.05171843
v 0.04834550 0.03658163 -0.04354686
v 0.05911753 0.02429882 -0.08751538
v 0.05687041 0.02551558 -0.10854918
v 0.05503645 0.03149999 -0.09605728
v 0.05366602 0.03386810 -0.08131881
v 0.03173905 0.03655284 0.01032140
v 0.02643869 0.02972586 0.03029363
v 0.01250257 0.02871581 0.03886021
v -0.01806016 0.02539260 0.03861333
v 0.02741613 0.01212329 -0.13020016
v 0.05254750 0.01319091 -0.16829306
v 0.00832072 0.03769896 0.02520799
v 0.04764013 0.03681974 -0.05986533
v 0.04399235 0.03732215 -0.07606036
v 0.05518760 0.02036329 -0.13834706
v 0.04910125 0.03118336 -0.14632113
v 0.05172120 0.03445686 -0.09605728
v -0.00385197 0.03067049 0.03999583
v -0.01438215 0.03671769 0.02859019
v -0.02848958 0.02736036 0.03054050
v -0.04132733 0.02833901 0.00461857
v -0.03822370 0.02547633 -0.10489542
v 0.02741613 0.01212329 -0.17199619
v 0.02574339 0.02322335 -0.20799064
v 0.04375051 0.02912140 -0.16552805
v 0.05316218 0.01965417 -0.15390021
v -0.02322952 0.03745560 0.01656734
v 0.01494114 0.03853892 -0.06655565
v -0.00275361 0.03874302 -0.06655565
v -0.01310241 0.03881629 -0.08060287
v 0.04356913 0.03568148 -0.13155798
v 0.03885322 0.03773297 -0.09862478
v 0.02974385 0.03836883 -0.10785793
v 0.03862145 0.03741374 -0.11970795
v 0.04248084 0.03455891 -0.14711114
v -0.03685327 0.02941971 0.01787579
v -0.03039408 0.03724627 0.00451982
v -0.03779040 0.03251265 -0.07539379
v -0.02968871 0.02811397 -0.15794898
v -0.01166144 0.02435638 -0.20628720
v 0.01215996 0.02435638 -0.21221222
v 0.02752697 0.03339710 -0.16853994
v 0.01642241 0.03872470 -0.09973572
v -0.00348921 0.03884769 -0.11304231
v -0.01421085 0.03885554 -0.10380917
v 0.02974385 0.03768064 -0.13007672
v 0.01715802 0.03822491 -0.12637359
v 0.02762774 0.03628070 -0.15007364
v -0.03051500 0.03750270 -0.08628100
v -0.02938641 0.03702123 -0.10417948
v -0.02363259 0.03724103 -0.12405296
v -0.01647811 0.02995351 -0.17782246
v 0.00094455 0.03438359 -0.16587368
v 0.01419546 0.03515291 -0.16096085
v 0.00316144 0.03811501 -0.13449580
v -0.01411008 0.03760737 -0.13649549
v 0.00721228 0.03735094 -0.14412394
v -0.00591770 0.03699245 -0.14849364
f 1 2 3
f 1 3 4
f 1 4 2
f 2 5 3
f 2 4 6
f 2 6 7
f 2 7 8
f 2 8 9
f 2 9 5
f 3 5 10
f 3 10 11
f 3 11 12
f 3 12 13
f 3 13 14
f 3 14 15
f 3 15 4
f 4 15 6
f 5 16 10
f 5 9 17
f 5 17 18
f 5 18 16
f 6 15 19
f 6 19 7
f 7 19 20
f 7 20 8
f 8 21 9
f 8 20 21
f 9 21 17
f 10 16 11
f 11 16 12
f 12 22 13
f 12 16 22
f 13 22 23
f 13 23 24
f 13 24 25
f 13 25 14
f 14 26 27
f 14 27 15
f 14 25 26
f 15 27 28
f 15 28 29
f 15 29 20
f 15 20 30
f 15 30 19
f 16 31 23
f 16 23 22
f 16 18 32
f 16 32 33
f 16 33 34
f 16 34 31
f 17 21 35
f 17 35 18
f 18 36 37
f 18 37 32
f 18 35 38
f 18 38 36
f 19 30 20
f 20 29 39
f 20 39 35
f 20 35 21
f 23 31 40
f 23 40 24
f 24 40 25
f 25 40 41
f 25 41 42
f 25 42 26
f 26 42 43
f 26 43 44
f 26 44 27
f 27 44 45
f 27 45 28
f 28 45 46
f 28 46 39
f 28 39 29
f 31 41 40
f 31 34 41
f 32 47 33
f 32 37 47
f 33 47 48
f 33 48 34
f 34 49 41
f 34 48 49
f 35 39 38
f 36 38 37
f 37 38 50
f 37 50 51
f 37 51 48
f 37 48 47
f 38 39 52
f 38 52 50
f 39 46 52
f 41 49 53
f 41 53 42
f 42 53 54
f 42 54 43
f 43 54 55
f 43 55 56
f 43 56 44
f 44 56 57
f 44 57 45
f 45 57 46
f 46 57 58
f 46 58 52
f 48 51 59
f 48 59 60
f 48 60 49
f 49 60 55
f 49 55 53
f 50 61 59
f 50 59 51
f 50 52 61
f 52 58 61
f 53 55 54
f 55 60 56
f 56 60 62
f 56 62 57
f 57 62 58
f 58 62 61
f 59 61 62
f 59 62 60

