# https://github.com/mikedh/trimesh
v 0.04135152 -0.01562155 -0.00778757
v 0.03636936 -0.02324510 -0.00751669
v 0.03634063 -0.02174632 -0.01717992
v 0.04112166 -0.01248397 -0.01797488
v 0.04118487 -0.00183693 -0.02164349
v 0.04124808 0.01213439 -0.01840475
v 0.04131129 0.01212920 0.01821069
v 0.04124808 -0.01199648 0.01662076
v 0.04112166 -0.01758708 0.00653944
v 0.03635212 -0.02343180 0.00319471
v 0.02899669 -0.02370666 -0.00455472
v 0.02841630 -0.02153369 -0.01869918
v 0.03632339 -0.01734333 -0.02436993
v 0.03642108 -0.00994797 -0.02821519
v 0.03624869 -0.00056115 -0.03001711
v 0.03627167 0.00760175 -0.02912204
v 0.03616824 0.01458222 -0.02627195
v 0.03632339 0.02174421 -0.02036566
v 0.04118487 0.02199314 -0.00684539
v 0.04074814 0.02008466 0.01259294
v 0.03632914 0.01831102 0.02298636
v 0.03628317 0.00702609 0.02863943
v 0.04124808 0.00339583 0.02143765
v 0.04124808 -0.00422772 0.02078401
v 0.04118487 0.02297332 0.00338903
v 0.03633488 -0.01168531 0.02713783
v 0.03640959 -0.01959410 0.02123155
v 0.03765656 -0.02123290 0.01392966
v 0.02895072 -0.02265907 0.01433597
v 0.02899669 -0.02368073 0.00559137
v -0.00319482 -0.01684028 -0.02500001
v 0.02254345 -0.01833388 -0.02421093
v 0.00481571 -0.01650837 -0.02552998
v 0.00124143 -0.00965236 -0.02859206
v -0.00241905 0.00036197 -0.03014666
v 0.00481571 0.00275794 -0.03021144
v 0.00314924 0.01421920 -0.02666060
v 0.02457194 0.01954012 -0.02315098
v 0.02893923 0.02518259 -0.01638496
v 0.03611652 0.02804531 -0.00942461
v 0.03629466 0.02566490 0.01460685
v 0.02319854 0.01869479 0.02343978
v 0.02823816 0.02282292 0.01935897
v 0.00149427 0.01043335 0.02784447
v 0.00459735 -0.00052485 0.02994670
v 0.03639235 -0.00295713 0.02939318
v 0.00459735 0.01644922 0.02502382
v 0.03469141 0.02927441 0.00384245
v 0.00326992 -0.01053919 0.02783858
v -0.00099393 -0.01644614 0.02494138
v 0.02535920 -0.01965633 0.02203240
v -0.01070540 -0.01029544 -0.02614829
v -0.00788390 -0.01313223 0.02494138
v -0.01041808 -0.00175914 -0.02828586
v -0.01259023 0.00780919 -0.02607762
v 0.02899669 0.02884397 -0.00789945
v 0.02900244 0.02737112 0.01188042
v -0.01100421 0.00304836 0.02756181
v -0.00352236 -0.00043669 0.02941084
v -0.00959059 0.01110236 0.02583056
v -0.01332577 -0.00770758 0.02559501
v -0.01706095 -0.00213254 -0.02466436
v -0.01607831 0.00745654 0.02143765
v -0.01735402 -0.00133907 0.02199118
f 1 2 3
f 1 3 4
f 1 4 5
f 1 5 6
f 1 6 7
f 1 7 8
f 1 8 9
f 1 9 2
f 2 9 10
f 2 10 11
f 2 11 12
f 2 12 3
f 3 12 13
f 3 13 4
f 4 13 14
f 4 14 5
f 5 14 15
f 5 15 16
f 5 16 6
f 6 16 17
f 6 17 18
f 6 18 19
f 6 19 7
f 7 20 21
f 7 21 22
f 7 22 23
f 7 23 24
f 7 24 8
f 7 19 25
f 7 25 20
f 8 24 26
f 8 26 27
f 8 27 28
f 8 28 9
f 9 28 10
f 10 28 29
f 10 29 30
f 10 30 11
f 11 30 31
f 11 31 12
f 12 31 32
f 12 32 13
f 13 32 14
f 14 32 33
f 14 33 34
f 14 34 15
f 15 34 35
f 15 35 36
f 15 36 16
f 16 36 37
f 16 37 17
f 17 37 38
f 17 38 18
f 18 38 39
f 18 39 40
f 18 40 19
f 19 40 25
f 20 41 21
f 20 25 41
f 21 42 22
f 21 41 43
f 21 43 42
f 22 44 45
f 22 45 46
f 22 46 23
f 22 42 47
f 22 47 44
f 23 46 24
f 24 46 26
f 25 40 48
f 25 48 41
f 26 46 49
f 26 49 50
f 26 50 51
f 26 51 27
f 27 29 28
f 27 51 29
f 29 51 50
f 29 50 30
f 30 50 31
f 31 52 34
f 31 34 33
f 31 33 32
f 31 50 53
f 31 53 52
f 34 54 35
f 34 52 54
f 35 54 55
f 35 55 37
f 35 37 36
f 37 55 56
f 37 56 39
f 37 39 38
f 39 56 40
f 40 56 48
f 41 48 57
f 41 57 43
f 42 43 47
f 43 57 47
f 44 58 59
f 44 59 45
f 44 47 60
f 44 60 58
f 45 59 49
f 45 49 46
f 47 57 60
f 48 56 57
f 49 59 61
f 49 61 53
f 49 53 50
f 52 53 61
f 52 61 62
f 52 62 54
f 54 62 55
f 55 62 63
f 55 63 60
f 55 60 56
f 56 60 57
f 58 60 63
f 58 63 64
f 58 64 61
f 58 61 59
f 61 64 62
f 62 64 63

