# https://github.com/mikedh/trimesh
v 0.04541326 -0.03706548 -0.09492814
v 0.05351751 -0.03472651 -0.06194672
v 0.04982083 -0.03425177 -0.04017604
v 0.04541326 -0.00639831 -0.04330413
v 0.04541326 -0.01210679 -0.19815517
v 0.04576871 -0.03507388 -0.13254922
v 0.04591902 -0.03586705 -0.12051971
v 0.04678631 -0.03624916 -0.10756647
v 0.05587972 -0.03217332 -0.07538282
v 0.06052494 -0.02786012 -0.04401793
v 0.06003340 -0.02406797 -0.00595598
v 0.05173620 -0.03452387 -0.09572591
v 0.06259873 -0.01098941 0.01627657
v 0.04747487 0.02208042 -0.03261824
v 0.04576465 0.02206884 -0.13019790
v 0.04541326 0.00168967 -0.14634221
v 0.04659132 -0.00044088 -0.19792423
v 0.05035299 -0.00236300 -0.18366937
v 0.04835029 -0.01261627 -0.18704939
v 0.05119998 -0.01882844 -0.16708419
v 0.04891292 -0.02764011 -0.16005123
v 0.05265631 -0.03004277 -0.12599912
v 0.05272943 -0.03259017 -0.10788138
v 0.05507539 -0.03154805 -0.09604082
v 0.06275310 -0.02073899 -0.03994511
v 0.06254389 -0.02271901 -0.02604714
v 0.05956827 -0.02697432 -0.06912663
v 0.06554388 -0.01199679 0.00462495
v 0.06616338 -0.00167984 0.01157394
v 0.06428255 0.01292716 0.00613652
v 0.04747487 0.02208042 -0.04695707
v 0.06026495 0.02198778 -0.01298893
v 0.05828053 0.02056935 -0.10830126
v 0.05695623 0.01806248 -0.12811950
v 0.04909369 0.01067503 -0.18551683
v 0.05740511 0.02185463 -0.06916862
v 0.05429340 0.01005555 -0.16257050
v 0.05406185 -0.00465566 -0.16679027
v 0.05541662 -0.01187521 -0.15375306
v 0.05308691 -0.02541693 -0.14124069
v 0.05612549 -0.02665011 -0.11378066
v 0.06552357 -0.00999940 -0.01347179
v 0.05956421 -0.02400429 -0.08273068
v 0.06251139 -0.01778633 -0.05619439
v 0.06548092 -0.00015719 -0.02566925
v 0.06557841 0.00946502 -0.01305191
v 0.06289528 0.02137409 -0.03154754
v 0.06248702 0.01806248 -0.05487177
v 0.06122162 0.01731563 -0.07798606
v 0.06011871 0.01659773 -0.09675461
v 0.05973889 0.01072714 -0.11315085
v 0.05653375 0.01123662 -0.14483065
v 0.05678967 -0.00035403 -0.15077192
v 0.05683842 -0.01335154 -0.13895236
v 0.05929813 -0.01776317 -0.10498422
v 0.06239765 -0.01335154 -0.07095310
v 0.06318979 -0.00020351 -0.07244367
v 0.06285465 0.01134083 -0.06654438
v 0.05999888 -0.00055088 -0.11728665
v 0.06208079 -0.00020351 -0.09007855
v 0.05972670 -0.01093152 -0.11327681
v 0.06107538 -0.01261048 -0.09234589
f 1 2 3
f 1 3 4
f 1 4 16
f 1 16 5
f 1 5 6
f 1 6 7
f 1 7 8
f 1 8 2
f 2 9 10
f 2 10 11
f 2 11 3
f 2 8 12
f 2 12 9
f 3 11 13
f 3 13 4
f 4 13 14
f 4 14 15
f 4 15 16
f 5 17 18
f 5 18 19
f 5 19 20
f 5 20 21
f 5 21 6
f 5 16 15
f 5 15 17
f 6 21 22
f 6 22 23
f 6 23 12
f 6 12 7
f 7 12 8
f 9 12 24
f 9 24 10
f 10 25 26
f 10 26 11
f 10 24 27
f 10 27 25
f 11 28 13
f 11 26 28
f 12 23 24
f 13 28 29
f 13 29 30
f 13 30 14
f 14 31 15
f 14 30 32
f 14 32 31
f 15 33 34
f 15 34 35
f 15 35 17
f 15 31 32
f 15 32 36
f 15 36 33
f 17 35 18
f 18 37 38
f 18 38 19
f 18 35 37
f 19 38 39
f 19 39 20
f 20 39 40
f 20 40 21
f 21 40 22
f 22 41 24
f 22 24 23
f 22 40 41
f 24 41 27
f 25 42 28
f 25 28 26
f 25 27 43
f 25 43 44
f 25 44 42
f 27 41 43
f 28 42 29
f 29 42 45
f 29 45 46
f 29 46 30
f 30 46 47
f 30 47 32
f 32 47 36
f 33 36 47
f 33 47 48
f 33 48 49
f 33 49 50
f 33 50 34
f 34 50 51
f 34 51 52
f 34 52 37
f 34 37 35
f 37 52 53
f 37 53 38
f 38 53 39
f 39 53 54
f 39 54 40
f 40 54 41
f 41 55 43
f 41 54 55
f 42 44 56
f 42 56 57
f 42 57 45
f 43 56 44
f 43 55 56
f 45 57 58
f 45 58 46
f 46 58 48
f 46 48 47
f 48 58 49
f 49 58 50
f 50 58 51
f 51 59 53
f 51 53 52
f 51 58 60
f 51 60 59
f 53 59 61
f 53 61 54
f 54 61 55
f 55 61 62
f 55 62 56
f 56 62 60
f 56 60 57
f 57 60 58
f 59 60 61
f 60 62 61

