# https://github.com/mikedh/trimesh
v 0.01203889 -0.04422599 -0.00202661
v 0.02791251 -0.04312532 -0.00443275
v 0.04043423 -0.03838134 -0.00447546
v 0.05294260 -0.01192254 -0.00058862
v 0.01136673 -0.01858630 0.00205956
v 0.00854011 0.01968979 0.00207380
v 0.00747178 -0.04250246 -0.03779125
v 0.02760091 -0.04231475 -0.01998012
v 0.04862031 -0.02743434 -0.00414800
v 0.03981104 -0.03621413 -0.02305543
v 0.04819744 -0.02318523 -0.02334018
v 0.05117986 -0.01187135 -0.01674820
v 0.05205233 0.00050908 -0.01407155
v 0.05097509 0.01375128 -0.01684787
v 0.05130004 0.00489471 0.00033682
v 0.02101287 -0.00668368 0.00204532
v 0.01724700 -0.00668368 0.00207380
v 0.04704453 0.02849517 -0.00339342
v 0.00824632 0.04294043 -0.00236831
v 0.01912994 0.01214720 0.00203109
v 0.00809052 -0.00810858 -0.14337670
v 0.00921226 -0.02526713 -0.13140294
v 0.00809942 -0.04083866 -0.05581595
v 0.01641014 -0.03981477 -0.05746751
v 0.01546200 -0.03763049 -0.07384065
v 0.02721809 -0.04004515 -0.03510037
v 0.04403539 -0.02662377 -0.03642446
v 0.03490116 -0.03290358 -0.05331015
v 0.04317183 -0.01801463 -0.04901042
v 0.04758759 -0.01246861 -0.03364814
v 0.04407991 0.00200224 -0.05063350
v 0.04744515 0.00791516 -0.03541359
v 0.04298487 0.01456185 -0.05172979
v 0.04721813 0.02703614 -0.01952452
v 0.02966189 0.04183975 -0.00840502
v 0.02512149 0.04050018 -0.03262304
v 0.01114862 0.03497975 -0.09607966
v 0.00893183 0.02509077 -0.13184431
v 0.01061445 0.00736056 -0.13820847
v 0.01705559 -0.00961881 -0.12481097
v 0.02192095 -0.02671763 -0.10375368
v 0.01297368 -0.03025855 -0.11303654
v 0.01085037 -0.03585576 -0.09321792
v 0.02334094 -0.03152134 -0.08975820
v 0.03187868 -0.02993432 -0.07201825
v 0.03004027 -0.02240879 -0.08867615
v 0.03915668 -0.01705901 -0.06457203
v 0.03517715 -0.00620587 -0.08001974
v 0.03948164 0.00616603 -0.06602426
v 0.03317848 0.00758240 -0.08531609
v 0.02777451 0.02158397 -0.09474133
v 0.03391741 0.02611465 -0.07073687
v 0.03908991 0.02683990 -0.05292574
v 0.04070576 0.03056853 -0.03596886
v 0.03098841 0.03652411 -0.04713107
v 0.01925457 0.03525279 -0.07967804
v 0.01099282 0.03021017 -0.11696610
v 0.02103512 0.02562830 -0.10717068
v 0.01807496 0.01835021 -0.12006988
v 0.02330087 0.00968135 -0.11060193
v 0.02469861 -0.01071948 -0.10728458
v 0.03021832 -0.00645331 -0.09398674
v 0.02430689 0.02904977 -0.09318944
v 0.02736944 0.03515893 -0.06205199
f 1 2 3
f 1 3 4
f 1 4 5
f 1 5 6
f 1 6 7
f 1 7 8
f 1 8 2
f 2 8 3
f 3 9 4
f 3 8 10
f 3 10 9
f 4 9 11
f 4 11 12
f 4 12 13
f 4 13 14
f 4 14 15
f 4 15 16
f 4 16 5
f 5 16 17
f 5 17 6
f 6 15 18
f 6 18 19
f 6 19 7
f 6 17 20
f 6 20 15
f 7 19 21
f 7 21 22
f 7 22 23
f 7 23 8
f 8 23 24
f 8 24 25
f 8 25 26
f 8 26 10
f 9 10 27
f 9 27 11
f 10 26 28
f 10 28 27
f 11 27 29
f 11 29 30
f 11 30 12
f 12 30 13
f 13 30 31
f 13 31 32
f 13 32 14
f 14 32 33
f 14 33 34
f 14 34 18
f 14 18 15
f 15 20 16
f 16 20 17
f 18 35 19
f 18 34 35
f 19 35 36
f 19 36 37
f 19 37 38
f 19 38 21
f 21 38 39
f 21 39 40
f 21 40 22
f 22 40 41
f 22 41 42
f 22 42 43
f 22 43 23
f 23 43 24
f 24 43 25
f 25 43 44
f 25 44 26
f 26 44 28
f 27 28 45
f 27 45 46
f 27 46 47
f 27 47 29
f 28 44 45
f 29 47 30
f 30 47 31
f 31 33 32
f 31 47 48
f 31 48 49
f 31 49 33
f 33 49 50
f 33 50 51
f 33 51 52
f 33 52 53
f 33 53 34
f 34 53 54
f 34 54 35
f 35 54 55
f 35 55 36
f 36 55 56
f 36 56 37
f 37 56 57
f 37 57 38
f 38 57 58
f 38 58 59
f 38 59 39
f 39 59 60
f 39 60 40
f 40 60 61
f 40 61 46
f 40 46 41
f 41 46 45
f 41 45 44
f 41 44 42
f 42 44 43
f 46 48 47
f 46 61 62
f 46 62 48
f 48 62 50
f 48 50 49
f 50 62 60
f 50 60 51
f 51 60 59
f 51 59 58
f 51 58 63
f 51 63 52
f 52 63 53
f 53 63 54
f 54 63 55
f 55 63 64
f 55 64 56
f 56 64 63
f 56 63 57
f 57 63 58
f 60 62 61

