# https://github.com/mikedh/trimesh
v 0.07785534 0.02344448 -0.00789522
v 0.07785534 0.02344448 -0.03730473
v 0.05497058 0.02344448 -0.00789522
v 0.07785534 0.02063063 -0.00789522
v 0.07785534 -0.01404435 -0.03730473
v 0.04692420 -0.01404435 -0.03730761
v 0.04692420 0.02344448 -0.03730473
v 0.05734166 0.02300755 -0.00789522
v 0.02617341 0.02344448 -0.01096141
v -0.00028327 0.02344011 -0.01065335
v -0.00028327 0.02160062 -0.01065335
v -0.00028327 -0.02119257 -0.01081170
v 0.07211121 0.02063063 -0.00789522
v 0.00005327 -0.02119257 -0.01082034
v 0.00182776 -0.02119257 -0.01087792
v 0.07785534 -0.01404435 -0.01295659
v 0.01561827 -0.02119257 -0.03569246
v 0.01434095 -0.02119257 -0.03569246
v -0.00028327 -0.02119257 -0.03568958
v -0.00028327 0.02344011 -0.03568958
v 0.04488201 0.02344448 -0.03722412
v 0.06395010 0.02186278 -0.00789522
v 0.01561827 0.02344448 -0.01225123
v 0.00530025 -0.02119257 -0.01105642
v 0.00876508 -0.02119257 -0.01131841
v 0.01561827 -0.02119257 -0.01189135
v 0.01561827 0.02344448 -0.03569246
f 1 2 7
f 1 7 21
f 1 21 27
f 1 27 23
f 1 23 9
f 1 9 3
f 1 3 8
f 1 8 22
f 1 22 13
f 1 13 4
f 1 4 16
f 1 16 5
f 1 5 2
f 2 5 6
f 2 6 7
f 3 9 10
f 3 10 11
f 3 11 12
f 3 12 8
f 4 13 12
f 4 12 14
f 4 14 15
f 4 15 16
f 5 16 26
f 5 26 17
f 5 17 6
f 6 17 18
f 6 18 19
f 6 19 20
f 6 20 7
f 7 20 21
f 8 12 22
f 9 23 10
f 10 20 19
f 10 19 12
f 10 12 11
f 10 23 27
f 10 27 20
f 12 19 18
f 12 18 17
f 12 17 26
f 12 26 25
f 12 25 24
f 12 24 15
f 12 15 14
f 12 13 22
f 15 24 16
f 16 24 25
f 16 25 26
f 20 27 21

