# https://github.com/mikedh/trimesh
v 0.05121328 0.01461319 0.03862162
v 0.05119956 0.01905330 0.03714905
v 0.04947498 0.01948595 0.03785187
v 0.04104413 0.01390196 0.04362504
v 0.04674896 0.01399845 0.04091416
v 0.05051365 0.01385527 -0.12535332
v 0.05115057 0.02975284 -0.12274283
v 0.05121328 0.02945715 0.03087385
v 0.05121328 0.02148579 0.03611155
v 0.04757794 0.02046486 0.03828695
v 0.04173396 0.02031079 0.04104803
v 0.03732060 0.01864400 0.04375891
v 0.03851409 0.01718575 0.04372545
v 0.03913141 0.01547071 0.04400992
v 0.03683850 0.01466299 0.04526496
v 0.03454167 0.01466299 0.04479641
v 0.03204495 0.01385527 0.01954504
v 0.03119245 0.01385527 -0.12565453
v 0.04793853 0.01466299 -0.12568799
v 0.04540262 0.02115742 -0.12530311
v 0.04255901 0.02115742 -0.12565453
v 0.04255901 0.02350120 -0.12488477
v 0.03119245 0.02975440 -0.12277631
v 0.03957627 0.02975440 0.03601114
v 0.04824621 0.02932019 0.03237990
v 0.04995316 0.02842376 0.03237990
v 0.05121328 0.02696085 0.03281498
v 0.05088208 0.02367550 0.03509078
v 0.04660002 0.02235888 0.03783513
v 0.04026415 0.02171301 0.04106476
v 0.03685222 0.02112006 0.04288875
v 0.03550783 0.02014427 0.04380911
v 0.03474548 0.01831250 0.04416053
v 0.03379892 0.01831250 0.04220267
v 0.03370878 0.01466299 0.04220267
v 0.03366958 0.02115742 0.03935791
v 0.03371074 0.02683945 0.03651316
v 0.03204299 0.01831250 0.01661662
v 0.03193912 0.01466299 0.01661662
v 0.03119245 0.01385527 -0.06076068
v 0.03119245 0.02114963 -0.12565453
v 0.03403018 0.02115742 -0.12565453
v 0.03403018 0.02350120 -0.12488477
v 0.03119245 0.02975440 -0.06076068
v 0.03119245 0.02349653 -0.12488477
v 0.04333116 0.02879572 0.03510752
v 0.03714422 0.02975440 0.03711557
v 0.03823580 0.02822456 0.03791880
v 0.04599838 0.02771565 0.03472264
v 0.04741136 0.02582008 0.03537526
v 0.04930840 0.02515710 0.03494017
v 0.04470102 0.02314636 0.03827021
v 0.03885900 0.02302653 0.04103130
v 0.03764396 0.02492210 0.04047908
v 0.03596249 0.02439607 0.04126557
v 0.03462594 0.02667760 0.03932445
v 0.03449856 0.02112006 0.04230307
v 0.03388907 0.02399766 0.03935791
v 0.03442800 0.02972794 0.03654662
v 0.03367546 0.02971860 0.03366840
v 0.03193912 0.02115742 0.01091037
v 0.03564305 0.02876926 0.03835388
v 0.03699136 0.02692194 0.03942485
v 0.04158306 0.02571737 0.03815308
f 1 2 3
f 1 3 4
f 1 4 5
f 1 5 6
f 1 6 7
f 1 7 8
f 1 8 27
f 1 27 9
f 1 9 2
f 2 9 3
f 3 10 11
f 3 11 12
f 3 12 13
f 3 13 14
f 3 14 4
f 3 9 10
f 4 14 15
f 4 15 16
f 4 16 17
f 4 17 6
f 4 6 5
f 6 17 40
f 6 40 18
f 6 18 19
f 6 19 20
f 6 20 7
f 7 20 21
f 7 21 22
f 7 22 23
f 7 23 24
f 7 24 8
f 8 24 25
f 8 25 26
f 8 26 27
f 9 27 28
f 9 28 29
f 9 29 10
f 10 29 30
f 10 30 11
f 11 30 31
f 11 31 12
f 12 32 15
f 12 15 13
f 12 31 32
f 13 15 14
f 15 32 33
f 15 33 16
f 16 33 34
f 16 34 35
f 16 35 17
f 17 35 34
f 17 34 36
f 17 36 37
f 17 37 38
f 17 38 39
f 17 39 40
f 18 41 19
f 18 40 44
f 18 44 23
f 18 23 45
f 18 45 41
f 19 41 42
f 19 42 21
f 19 21 20
f 21 42 43
f 21 43 22
f 22 43 23
f 23 44 47
f 23 47 24
f 23 43 45
f 24 46 26
f 24 26 25
f 24 47 48
f 24 48 46
f 26 49 27
f 26 46 48
f 26 48 49
f 27 49 50
f 27 50 51
f 27 51 28
f 28 51 52
f 28 52 29
f 29 52 53
f 29 53 30
f 30 53 31
f 31 53 54
f 31 54 55
f 31 55 32
f 32 55 56
f 32 56 33
f 33 56 57
f 33 57 34
f 34 57 58
f 34 58 37
f 34 37 36
f 37 59 60
f 37 60 38
f 37 58 59
f 38 60 61
f 38 61 39
f 39 61 44
f 39 44 40
f 41 45 42
f 42 45 43
f 44 61 60
f 44 60 59
f 44 59 47
f 47 62 63
f 47 63 48
f 47 59 62
f 48 63 49
f 49 63 64
f 49 64 50
f 50 64 51
f 51 64 54
f 51 54 52
f 52 54 53
f 54 64 63
f 54 63 55
f 55 63 62
f 55 62 56
f 56 62 59
f 56 59 58
f 56 58 57

