# https://github.com/mikedh/trimesh
v 0.00843671 -0.04699484 -0.09149230
v 0.01128071 -0.04736048 -0.09149230
v 0.01128071 -0.04750769 -0.08857327
v 0.01128071 -0.04764065 -0.08573078
v 0.00843671 -0.04711672 -0.08857327
v 0.00558163 -0.04653897 -0.09145221
v -0.00296884 -0.04442266 -0.09147043
v 0.02332440 -0.03389018 -0.09149230
v 0.01689495 -0.04787492 -0.09149230
v 0.01411734 -0.04765648 -0.09145221
v 0.01411734 -0.04781635 -0.08857327
v 0.01411734 -0.04796198 -0.08573078
v 0.00843671 -0.04722910 -0.08573078
v 0.01411734 -0.04808703 -0.08288829
v 0.00559639 -0.04663711 -0.08857327
v 0.00103712 -0.04557657 -0.09121169
v 0.00200726 -0.04586466 -0.08820156
v -0.00564685 -0.04313894 -0.09044641
v 0.02332440 -0.03389018 -0.06124890
v 0.03119245 -0.03389018 -0.09149230
v -0.00110234 -0.03389334 -0.08440064
v -0.00589768 -0.03389334 -0.07829657
v -0.00649157 -0.03389334 -0.07436081
v 0.01980536 -0.04805062 -0.09149230
v 0.01980536 -0.04824689 -0.08857327
v 0.01977585 -0.04842576 -0.08572714
v 0.01842577 -0.04850332 -0.08291744
v 0.01696135 -0.04805695 -0.08857327
v 0.02833738 -0.04985352 -0.06583698
v 0.00559639 -0.04664344 -0.08573078
v 0.03119245 -0.04943247 -0.05619072
v 0.00326142 -0.04054618 -0.07248768
v -0.00197288 -0.03747856 -0.07260430
v -0.00514149 -0.03436504 -0.07243666
v 0.03119245 -0.04730667 -0.05426657
v 0.03118508 -0.03480033 -0.06085168
v 0.03119245 -0.03389018 -0.06582604
v 0.01038435 -0.03389334 -0.06137280
v 0.03119245 -0.04555283 -0.09149230
v 0.00736698 -0.03389967 -0.06195952
v 0.02297029 -0.04819941 -0.09145585
v 0.02351991 -0.04853815 -0.08710465
v 0.02546386 -0.04827222 -0.09149230
v 0.02298873 -0.04878032 -0.08288829
v 0.02833738 -0.04973163 -0.06868311
v 0.03118508 -0.05006087 -0.06299448
v 0.03118508 -0.04999281 -0.06014835
v 0.03118877 -0.04851598 -0.08870811
v 0.03118508 -0.04830229 -0.09145585
v 0.02833738 -0.04830071 -0.09149230
v 0.02549706 -0.04850015 -0.08848217
v 0.02549706 -0.04868377 -0.08573078
v 0.02549706 -0.04886264 -0.08288464
v 0.02833738 -0.04957335 -0.07152560
v 0.03118508 -0.04961133 -0.07152560
v 0.03118508 -0.04976488 -0.06868311
v 0.03118508 -0.04945147 -0.07436081
v 0.03118508 -0.04928684 -0.07719601
v 0.03118508 -0.04911906 -0.08004580
v 0.03118508 -0.04894020 -0.08288464
v 0.03118508 -0.04874075 -0.08573078
v 0.02833738 -0.04864736 -0.08685320
v 0.02833738 -0.04890537 -0.08288464
v 0.02833738 -0.04941189 -0.07436081
f 1 2 3
f 1 3 4
f 1 4 5
f 1 5 6
f 1 6 7
f 1 7 8
f 1 8 20
f 1 20 39
f 1 39 50
f 1 50 43
f 1 43 24
f 1 24 9
f 1 9 2
f 2 9 10
f 2 10 11
f 2 11 12
f 2 12 3
f 3 12 4
f 4 13 5
f 4 12 14
f 4 14 13
f 5 13 6
f 6 13 15
f 6 15 16
f 6 16 7
f 7 16 17
f 7 17 18
f 7 18 8
f 8 19 37
f 8 37 20
f 8 18 21
f 8 21 22
f 8 22 23
f 8 23 19
f 9 24 25
f 9 25 26
f 9 26 27
f 9 27 28
f 9 28 10
f 10 28 27
f 10 27 11
f 11 27 12
f 12 27 14
f 13 14 29
f 13 29 30
f 13 30 15
f 14 27 29
f 15 30 17
f 15 17 16
f 17 30 31
f 17 31 18
f 18 32 33
f 18 33 34
f 18 34 23
f 18 23 22
f 18 22 21
f 18 31 32
f 19 35 36
f 19 36 37
f 19 23 38
f 19 38 35
f 20 37 35
f 20 35 31
f 20 31 39
f 23 34 40
f 23 40 38
f 24 41 42
f 24 42 25
f 24 43 41
f 25 42 44
f 25 44 26
f 26 44 27
f 27 44 45
f 27 45 29
f 29 45 46
f 29 46 47
f 29 47 30
f 30 47 31
f 31 47 46
f 31 46 48
f 31 48 39
f 31 35 33
f 31 33 32
f 33 35 34
f 34 35 40
f 35 38 40
f 35 37 36
f 39 48 49
f 39 49 50
f 41 43 51
f 41 51 42
f 42 51 52
f 42 52 53
f 42 53 44
f 43 50 51
f 44 53 45
f 45 53 54
f 45 54 55
f 45 55 56
f 45 56 46
f 46 56 48
f 48 56 55
f 48 55 57
f 48 57 58
f 48 58 59
f 48 59 60
f 48 60 61
f 48 61 50
f 48 50 49
f 50 61 62
f 50 62 51
f 51 62 52
f 52 62 63
f 52 63 53
f 53 63 59
f 53 59 64
f 53 64 54
f 54 64 57
f 54 57 55
f 57 64 58
f 58 64 59
f 59 63 60
f 60 63 62
f 60 62 61

