# https://github.com/mikedh/trimesh
v -0.03367432 0.03691635 -0.12038295
v -0.02189624 0.03682568 -0.11963434
v -0.04290483 0.03595188 -0.14330874
v -0.10969861 0.01843456 -0.14968930
v -0.04241901 0.03356952 -0.11884466
v -0.01197849 0.03632283 -0.11807394
v -0.01795047 0.03535010 -0.14185890
v -0.00149197 0.02928293 -0.14330874
v -0.03869837 0.02352076 -0.14798360
v -0.05691055 0.01869835 -0.15011888
v -0.07592847 0.01912701 -0.15011888
v -0.10213884 -0.04663091 -0.14901018
v -0.11367992 -0.03472738 -0.14813522
v -0.11312302 0.00366232 -0.14022901
v -0.11069394 0.01533503 -0.14273701
v -0.09839450 0.01280429 -0.13207643
v -0.09357188 0.00891339 -0.12889878
v -0.05122294 0.01232617 -0.11784967
v 0.00420748 0.03340465 -0.11808342
v -0.00257025 0.03486374 -0.12038295
v -0.00540220 0.03427021 -0.13008645
v -0.00783128 0.03347884 -0.13866546
v -0.00163416 0.03124487 -0.13761993
v 0.00654176 0.02966213 -0.12807752
v 0.00496583 0.02782384 -0.13517194
v 0.00510801 0.02366090 -0.14155566
v 0.00730011 0.01519489 -0.14318871
v -0.05978989 -0.04728215 -0.14937975
v -0.09536111 -0.04702660 -0.14704231
v -0.08832270 -0.04676281 -0.14216845
v -0.09687780 -0.03542808 -0.13544043
v -0.10257725 -0.03579904 -0.13882655
v -0.10916539 -0.03513131 -0.14317923
v -0.11317042 -0.01328620 -0.14011530
v -0.10753020 0.00272256 -0.13551624
v -0.10511297 0.01188927 -0.13555415
v -0.10151083 0.00374475 -0.13199746
v -0.09460276 -0.00387219 -0.12888931
v -0.09121390 0.00271432 -0.12786905
v -0.05289368 0.00312649 -0.11784967
v 0.00105560 -0.03478509 -0.11784967
v -0.00105355 0.03276991 -0.13085085
v 0.00681430 -0.03201529 -0.12061353
v 0.00737121 0.02356198 -0.12015236
v 0.00698019 -0.01919674 -0.14239903
v 0.00737121 -0.02746491 -0.13201325
v -0.00682410 -0.03637607 -0.11784967
v -0.06758665 -0.04718323 -0.14449641
v -0.08078663 -0.04727390 -0.14515973
v -0.08832270 -0.04724093 -0.14515973
v -0.01029591 -0.03387831 -0.14292654
v -0.08194784 -0.04651550 -0.13990683
v -0.04752600 -0.03453779 -0.11784967
v -0.09071623 -0.01249483 -0.12765426
v -0.10456792 -0.01389621 -0.13371263
v -0.10262465 -0.00668320 -0.13243968
v -0.05313066 -0.01139021 -0.11784967
v 0.00278558 -0.03221313 -0.12709201
v -0.00208443 -0.03048201 -0.14132824
v 0.00479993 -0.02579150 -0.13991314
v -0.01434832 -0.03710974 -0.11784967
v -0.07540710 -0.04663091 -0.14031746
v -0.02483484 -0.03742299 -0.11784967
v -0.03766749 -0.03706028 -0.11784967
f 1 2 3
f 1 3 4
f 1 4 5
f 1 5 6
f 1 6 2
f 2 6 7
f 2 7 3
f 3 7 8
f 3 8 9
f 3 9 10
f 3 10 11
f 3 11 4
f 4 11 12
f 4 12 13
f 4 13 14
f 4 14 15
f 4 15 5
f 5 15 16
f 5 16 17
f 5 17 18
f 5 18 6
f 6 19 20
f 6 20 7
f 6 18 19
f 7 20 21
f 7 21 22
f 7 22 8
f 8 23 24
f 8 24 25
f 8 25 26
f 8 26 27
f 8 27 9
f 8 22 23
f 9 27 10
f 10 28 11
f 10 27 28
f 11 28 12
f 12 29 30
f 12 30 31
f 12 31 32
f 12 32 33
f 12 33 13
f 12 28 29
f 13 33 34
f 13 34 14
f 14 34 35
f 14 35 36
f 14 36 15
f 15 36 16
f 16 36 37
f 16 37 17
f 17 38 39
f 17 39 18
f 17 37 38
f 18 39 40
f 18 40 57
f 18 57 53
f 18 53 64
f 18 64 63
f 18 63 61
f 18 61 47
f 18 47 41
f 18 41 19
f 19 42 21
f 19 21 20
f 19 41 43
f 19 43 44
f 19 44 24
f 19 24 42
f 21 42 22
f 22 42 23
f 23 42 24
f 24 26 25
f 24 44 27
f 24 27 26
f 27 45 28
f 27 44 46
f 27 46 45
f 28 41 47
f 28 47 48
f 28 48 49
f 28 49 50
f 28 50 29
f 28 45 51
f 28 51 41
f 29 50 30
f 30 50 52
f 30 52 53
f 30 53 31
f 31 54 55
f 31 55 32
f 31 53 54
f 32 55 33
f 33 55 34
f 34 55 35
f 35 55 56
f 35 56 37
f 35 37 36
f 37 56 38
f 38 54 39
f 38 56 54
f 39 54 40
f 40 54 57
f 41 51 58
f 41 58 43
f 43 46 44
f 43 58 59
f 43 59 46
f 45 46 60
f 45 60 59
f 45 59 51
f 46 59 60
f 47 61 48
f 48 62 49
f 48 61 62
f 49 62 50
f 50 62 52
f 51 59 58
f 52 62 63
f 52 63 64
f 52 64 53
f 53 57 54
f 54 56 55
f 61 63 62

