# https://github.com/mikedh/trimesh
v -0.02184839 0.00004860 0.01695582
v -0.02891370 -0.01620696 0.01011999
v -0.02184839 -0.01547651 0.01654153
v -0.01720601 0.00006098 0.01495872
v -0.02184839 0.01563562 0.01654153
v -0.02848126 0.00176330 0.01072019
v -0.02735882 -0.02510233 0.01018373
v -0.03276751 -0.01796499 -0.01261829
v -0.02925075 -0.02913218 -0.00241501
v -0.02147000 -0.01992729 0.01575543
v -0.01443649 -0.02352382 0.01206398
v -0.00028678 0.01867503 -0.01268734
v -0.01990876 0.01936833 0.01456567
v -0.02144774 0.02396149 0.01258981
v -0.02700905 0.02570095 0.00951980
v -0.02830001 0.00644312 0.01072019
v -0.02800748 -0.02741129 0.00472888
v -0.01480215 -0.02710797 0.00827692
v -0.02120291 -0.02567183 0.01015717
v -0.02911720 -0.02832744 -0.03661539
v -0.02898365 -0.03152779 -0.03306735
v -0.02924756 -0.03158970 -0.02845702
v -0.02924756 -0.03145351 -0.02312433
v -0.02924756 -0.03106972 -0.01606011
v -0.02925075 -0.03029594 -0.00904900
v -0.02925075 0.02930985 -0.00244688
v -0.03103138 0.00924111 -0.01271921
v -0.02924756 0.01642797 -0.03728995
v -0.01443649 -0.02905789 0.00138798
v -0.02108526 -0.02817888 0.00421898
v -0.00028678 -0.03067354 -0.01543867
v -0.00028678 -0.01901733 -0.01242708
v -0.00028678 0.01867503 -0.03568589
v -0.02024263 0.03089455 -0.01453572
v -0.02024263 0.03050457 -0.00943674
v -0.02024263 0.02990412 -0.00418372
v -0.02139369 0.02756421 0.00672067
v -0.02759730 0.02760135 0.00479262
v -0.01444921 -0.02692226 -0.03723152
v -0.01961623 -0.02965835 -0.03566464
v -0.01898983 -0.03126780 -0.03391187
v -0.00028678 -0.03095830 -0.02778246
v -0.00028678 -0.03090877 -0.02223732
v -0.01407400 -0.02988119 -0.00483172
v -0.02119972 0.02903748 0.00101087
v -0.02732702 0.03031886 -0.00765741
v -0.02925075 0.03073361 -0.01109391
v -0.02925075 0.03118550 -0.01618227
v -0.02819191 0.03144549 -0.03340197
v -0.02819191 0.02741564 -0.03698720
v -0.02819191 0.02144825 -0.03729526
v -0.02024263 0.01867503 -0.03730588
v -0.01433155 0.01867503 -0.03725808
v -0.02144456 0.02718660 -0.03717310
v -0.02124424 0.03105550 -0.03359318
v -0.00028678 -0.02597515 -0.03568589
v -0.01328225 -0.02249624 -0.03721559
v -0.02205507 0.03144549 -0.02690076
v -0.02143820 0.03122264 -0.01944350
v -0.00028678 -0.03007928 -0.03330105
v -0.01439515 -0.03041974 -0.03460236
v -0.02726025 0.03152596 -0.02341646
v -0.02705993 0.03163739 -0.02845171
v -0.02291359 0.02144825 -0.03729526
f 1 2 3
f 1 3 4
f 1 4 5
f 1 5 6
f 1 6 2
f 2 7 3
f 2 6 8
f 2 8 9
f 2 9 7
f 3 7 10
f 3 10 11
f 3 11 4
f 4 11 12
f 4 12 13
f 4 13 5
f 5 13 14
f 5 14 15
f 5 15 16
f 5 16 6
f 6 16 8
f 7 17 18
f 7 18 19
f 7 19 10
f 7 9 17
f 8 20 21
f 8 21 22
f 8 22 23
f 8 23 24
f 8 24 25
f 8 25 9
f 8 16 26
f 8 26 27
f 8 27 28
f 8 28 20
f 9 25 29
f 9 29 30
f 9 30 17
f 10 19 11
f 11 19 18
f 11 18 31
f 11 31 32
f 11 32 12
f 12 33 34
f 12 34 35
f 12 35 36
f 12 36 37
f 12 37 14
f 12 14 13
f 12 32 31
f 12 31 43
f 12 43 42
f 12 42 60
f 12 60 56
f 12 56 33
f 14 37 15
f 15 37 38
f 15 38 26
f 15 26 16
f 17 30 18
f 18 30 29
f 18 29 31
f 20 39 40
f 20 40 41
f 20 41 21
f 20 28 39
f 21 41 42
f 21 42 22
f 22 42 43
f 22 43 23
f 23 43 31
f 23 31 24
f 24 31 44
f 24 44 25
f 25 44 29
f 26 38 45
f 26 45 46
f 26 46 47
f 26 47 27
f 27 47 48
f 27 48 28
f 28 48 49
f 28 49 50
f 28 50 51
f 28 51 52
f 28 52 39
f 29 44 31
f 33 53 54
f 33 54 55
f 33 55 34
f 33 56 57
f 33 57 53
f 34 55 58
f 34 58 59
f 34 59 48
f 34 48 35
f 35 47 36
f 35 48 47
f 36 47 46
f 36 46 45
f 36 45 37
f 37 45 38
f 39 57 56
f 39 56 60
f 39 60 61
f 39 61 40
f 39 52 53
f 39 53 57
f 40 61 41
f 41 61 60
f 41 60 42
f 48 59 62
f 48 62 63
f 48 63 49
f 49 63 58
f 49 58 55
f 49 55 54
f 49 54 50
f 50 54 51
f 51 54 64
f 51 64 52
f 52 64 53
f 53 64 54
f 58 63 62
f 58 62 59

