# https://github.com/mikedh/trimesh
v 0.04015003 0.02275464 0.02001322
v 0.04015003 0.02662649 0.01778721
v 0.03975654 0.02499297 0.02012012
v 0.02486516 0.02271225 0.02388674
v 0.04007373 0.02034109 0.00675775
v 0.04015003 0.02140232 -0.03979988
v 0.03378532 0.02579842 0.02117653
v 0.03733125 0.02554548 0.02037794
v 0.04015003 0.02831654 0.01517762
v 0.02486516 0.02619409 0.02308814
v 0.02486516 0.02267692 -0.01959598
v 0.04007373 0.02034109 -0.02667018
v 0.02544867 0.02267410 -0.03781911
v 0.03939746 0.02417196 -0.04035324
v 0.04015003 0.02562179 -0.03917106
v 0.04015003 0.03003626 0.01181344
v 0.02486516 0.02839567 0.01920205
v 0.02486516 0.02564581 -0.03783797
v 0.02773182 0.02559211 -0.03847308
v 0.03496281 0.02498873 -0.03975586
v 0.03684499 0.02556526 -0.03931569
v 0.04015003 0.02705607 -0.03771221
v 0.02486516 0.02986104 0.01615228
v 0.04015003 0.03137445 0.00888316
v 0.02486516 0.02779935 -0.03458699
v 0.03027681 0.02701650 -0.03705824
v 0.03032169 0.02557374 -0.03883779
v 0.03706194 0.02697976 -0.03785684
v 0.04015003 0.02832926 -0.03598296
v 0.02486516 0.03141402 0.01225362
v 0.04015003 0.03255720 0.00539322
v 0.02486516 0.03012246 -0.02985828
v 0.03080495 0.03027649 -0.03124168
v 0.03046083 0.02821197 -0.03525982
v 0.03725644 0.02824306 -0.03613388
v 0.03743299 0.02936929 -0.03421598
v 0.04015003 0.02945548 -0.03405249
v 0.02486516 0.03277623 0.00788962
v 0.04015003 0.03376963 -0.00001461
v 0.02486516 0.03378941 0.00343131
v 0.02486516 0.03101836 -0.02756310
v 0.03759906 0.03036410 -0.03213460
v 0.03113710 0.03192838 -0.02687140
v 0.04015003 0.03027366 -0.03237355
v 0.04015003 0.03449313 -0.00508917
v 0.02486516 0.03451574 -0.00175015
v 0.02486516 0.03173903 -0.02561376
v 0.03791176 0.03199762 -0.02765742
v 0.02486516 0.03275786 -0.02217413
v 0.03147973 0.03319309 -0.02231876
v 0.04015003 0.03215165 -0.02710406
v 0.04015003 0.03470368 -0.01081140
v 0.03603856 0.03475314 -0.00983674
v 0.03059699 0.03477575 -0.00869858
v 0.02486516 0.03477151 -0.00711396
v 0.04015003 0.03329059 -0.02249483
v 0.02486516 0.03371593 -0.01806795
v 0.02846943 0.03379931 -0.01870935
v 0.03460523 0.03377811 -0.02002986
v 0.04015003 0.03442530 -0.01579164
v 0.03532039 0.03450726 -0.01494902
v 0.02953022 0.03452987 -0.01371654
v 0.02486516 0.03454824 -0.01202502
v 0.04015003 0.03375409 -0.02049519
f 1 2 3
f 1 3 4
f 1 4 5
f 1 5 6
f 1 6 15
f 1 15 22
f 1 22 29
f 1 29 37
f 1 37 44
f 1 44 51
f 1 51 56
f 1 56 64
f 1 64 60
f 1 60 52
f 1 52 45
f 1 45 39
f 1 39 31
f 1 31 24
f 1 24 16
f 1 16 9
f 1 9 2
f 2 7 8
f 2 8 3
f 2 9 7
f 3 8 7
f 3 7 10
f 3 10 4
f 4 10 17
f 4 17 23
f 4 23 30
f 4 30 38
f 4 38 40
f 4 40 46
f 4 46 55
f 4 55 63
f 4 63 57
f 4 57 49
f 4 49 47
f 4 47 41
f 4 41 32
f 4 32 25
f 4 25 18
f 4 18 11
f 4 11 5
f 5 11 12
f 5 12 6
f 6 12 13
f 6 13 14
f 6 14 15
f 7 9 10
f 9 16 17
f 9 17 10
f 11 18 13
f 11 13 12
f 13 18 19
f 13 19 20
f 13 20 14
f 14 20 21
f 14 21 15
f 15 21 22
f 16 23 17
f 16 24 23
f 18 25 26
f 18 26 19
f 19 26 27
f 19 27 20
f 20 27 21
f 21 27 28
f 21 28 22
f 22 28 29
f 23 24 30
f 24 31 30
f 25 32 33
f 25 33 34
f 25 34 26
f 26 34 35
f 26 35 28
f 26 28 27
f 28 35 29
f 29 35 36
f 29 36 37
f 30 31 38
f 31 39 40
f 31 40 38
f 32 41 33
f 33 42 36
f 33 36 34
f 33 41 43
f 33 43 42
f 34 36 35
f 36 42 44
f 36 44 37
f 39 45 40
f 40 45 46
f 41 47 43
f 42 43 48
f 42 48 44
f 43 47 49
f 43 49 50
f 43 50 48
f 44 48 51
f 45 52 53
f 45 53 54
f 45 54 55
f 45 55 46
f 48 50 56
f 48 56 51
f 49 57 50
f 50 57 58
f 50 58 59
f 50 59 56
f 52 60 61
f 52 61 53
f 53 61 54
f 54 61 62
f 54 62 63
f 54 63 55
f 56 59 64
f 57 63 58
f 58 63 62
f 58 62 59
f 59 62 61
f 59 61 60
f 59 60 64

