# https://github.com/mikedh/trimesh
v 0.09999717 0.02033968 -0.00237581
v 0.09999717 0.02172543 -0.00736498
v 0.09891602 0.02907071 -0.00222046
v 0.09891602 0.02656287 0.00384289
v 0.09891602 0.02272518 0.00916052
v 0.09891602 0.02033968 0.01122455
v 0.09999717 0.02033968 -0.01725010
v 0.09891602 0.03011371 -0.00869661
v 0.09999717 0.02164000 -0.01305547
v 0.09791411 0.03076862 -0.00526989
v 0.09791411 0.03003356 -0.00194526
v 0.09791411 0.02891779 0.00126841
v 0.09791411 0.02743608 0.00432671
v 0.09791411 0.02561057 0.00719859
v 0.09791411 0.02346341 0.00983522
v 0.09791411 0.02102412 0.01220551
v 0.09812638 0.02033968 0.01246740
v 0.09891602 0.02033968 -0.03119225
v 0.09891602 0.02429865 -0.02711747
v 0.09891602 0.02766071 -0.02148912
v 0.09891602 0.02963492 -0.01523047
v 0.09791411 0.03111242 -0.00865222
v 0.09791411 0.03106285 -0.01204787
v 0.07108617 0.03077073 -0.00528764
v 0.07108617 0.03076862 -0.00526989
v 0.07108617 0.03076440 -0.00524769
v 0.07108617 0.02892412 0.00124621
v 0.07108617 0.02891779 0.00126841
v 0.07108617 0.02890830 0.00128616
v 0.07108617 0.02562112 0.00718084
v 0.07108617 0.02561057 0.00719859
v 0.07108617 0.02103888 0.01219220
v 0.07108617 0.02102412 0.01220551
v 0.07108617 0.02100830 0.01221883
v 0.09791411 0.02033968 0.01273373
v 0.09872073 0.02033968 -0.03152515
v 0.09791411 0.02286650 -0.03030006
v 0.09791411 0.02509171 -0.02772558
v 0.09791411 0.02700159 -0.02491584
v 0.09791411 0.02857294 -0.02189748
v 0.09791411 0.02978362 -0.01871933
v 0.09791411 0.03061781 -0.01542133
v 0.07108617 0.03106285 -0.01204787
v 0.07108617 0.03106285 -0.01203012
v 0.07108617 0.02033968 0.01267158
v 0.07776839 0.02033968 0.01272929
v 0.09794241 0.02033968 -0.03257714
v 0.09791411 0.02035761 -0.03259934
v 0.07108617 0.02285279 -0.03031337
v 0.07108617 0.02286650 -0.03030006
v 0.07108617 0.02287916 -0.03028674
v 0.07108617 0.02700159 -0.02491584
v 0.07108617 0.02701002 -0.02489809
v 0.07108617 0.02977729 -0.01873709
v 0.07108617 0.02978362 -0.01871933
v 0.07108617 0.02978889 -0.01870158
v 0.07108617 0.03105969 -0.01206563
v 0.07108617 0.02033968 -0.03235964
v 0.09791411 0.02033968 -0.03261265
v 0.09774147 0.02033968 -0.03261265
f 1 2 3
f 1 3 4
f 1 4 5
f 1 5 6
f 1 6 17
f 1 17 35
f 1 35 46
f 1 46 45
f 1 45 58
f 1 58 60
f 1 60 59
f 1 59 47
f 1 47 36
f 1 36 18
f 1 18 7
f 1 7 9
f 1 9 2
f 2 8 3
f 2 9 8
f 3 8 10
f 3 10 11
f 3 11 12
f 3 12 4
f 4 13 14
f 4 14 5
f 4 12 13
f 5 14 15
f 5 15 16
f 5 16 17
f 5 17 6
f 7 18 19
f 7 19 20
f 7 20 21
f 7 21 9
f 8 22 10
f 8 9 21
f 8 21 23
f 8 23 22
f 10 22 24
f 10 24 25
f 10 25 26
f 10 26 11
f 11 26 27
f 11 27 28
f 11 28 12
f 12 28 13
f 13 28 29
f 13 29 30
f 13 30 31
f 13 31 14
f 14 31 15
f 15 31 32
f 15 32 16
f 16 32 33
f 16 33 34
f 16 34 35
f 16 35 17
f 18 36 37
f 18 37 19
f 19 37 38
f 19 38 39
f 19 39 20
f 20 40 41
f 20 41 21
f 20 39 40
f 21 41 42
f 21 42 23
f 22 23 43
f 22 43 44
f 22 44 24
f 23 42 43
f 24 44 43
f 24 43 57
f 24 57 56
f 24 56 55
f 24 55 54
f 24 54 53
f 24 53 52
f 24 52 51
f 24 51 50
f 24 50 49
f 24 49 58
f 24 58 45
f 24 45 34
f 24 34 33
f 24 33 32
f 24 32 31
f 24 31 30
f 24 30 29
f 24 29 28
f 24 28 27
f 24 27 26
f 24 26 25
f 34 45 46
f 34 46 35
f 36 47 48
f 36 48 37
f 37 49 50
f 37 50 51
f 37 51 38
f 37 48 49
f 38 51 52
f 38 52 39
f 39 52 40
f 40 53 54
f 40 54 41
f 40 52 53
f 41 54 55
f 41 55 56
f 41 56 42
f 42 57 43
f 42 56 57
f 47 59 48
f 48 59 60
f 48 60 49
f 49 60 58

