# https://github.com/mikedh/trimesh
v 0.03392587 -0.03999638 -0.05724187
v 0.05121328 -0.03999638 -0.05724187
v 0.03373343 -0.03999638 0.01659990
v 0.03193922 -0.02148883 -0.00895993
v 0.03194111 -0.01864759 -0.01464555
v 0.03195054 -0.01438838 -0.01890721
v 0.03195431 -0.00586468 -0.02316888
v 0.03391832 -0.03571081 -0.05724187
v 0.05121328 0.01385527 -0.05724187
v 0.05121328 -0.03954832 0.01828829
v 0.03193922 -0.01864759 0.01378251
v 0.03194865 -0.02148883 0.00951068
v 0.03813877 -0.03962739 0.02473673
v 0.03432206 -0.03930584 0.02325176
v 0.03366928 -0.02148883 0.03936269
v 0.03193922 -0.01297040 0.01946813
v 0.03194111 0.01150954 -0.01982261
v 0.03194865 0.00551080 -0.02316888
v 0.03391832 0.01385527 -0.05724187
v 0.04660796 0.01385527 0.04102057
v 0.05119064 0.01150954 0.03938303
v 0.05121328 -0.02290681 0.03554854
v 0.05081142 -0.02783021 0.03258877
v 0.04960962 -0.03253221 0.02883566
v 0.04980772 -0.03697065 0.02328227
v 0.04372515 -0.03951142 0.02216345
v 0.04043482 -0.03699701 0.02781855
v 0.03903115 -0.03138834 0.03506034
v 0.03523521 -0.03475143 0.03090038
v 0.03531067 -0.02902152 0.03683010
v 0.03522011 -0.02532634 0.04019671
v 0.03413151 -0.01651799 0.04342093
v 0.03410133 -0.00017694 0.04610609
v 0.03198073 -0.00870591 0.02230585
v 0.03196941 0.00835730 0.02230585
v 0.03196752 0.01354426 0.01806453
v 0.03482203 0.01385527 0.04367521
v 0.04106497 0.01133559 0.04417359
v 0.04365723 0.00652289 0.04375658
v 0.05088689 0.00537374 0.04051202
v 0.05097367 -0.00017694 0.04073578
v 0.05118120 -0.01150498 0.03948474
v 0.05064917 -0.01812046 0.03787772
v 0.04729658 -0.02196324 0.03786754
v 0.03955376 -0.02271177 0.04106125
v 0.04207999 -0.02588510 0.03805062
v 0.04717772 -0.02694990 0.03492811
v 0.04141400 -0.03366554 0.03157167
v 0.04511373 -0.03416632 0.02926284
v 0.04255731 -0.03467236 0.02987311
v 0.03535784 -0.02037658 0.04310563
v 0.03524653 -0.01036637 0.04571959
v 0.03427301 -0.00515305 0.04630951
v 0.03548424 0.00812009 0.04603489
v 0.03818782 0.00254832 0.04657395
v 0.05088689 -0.00583305 0.04050184
v 0.03800293 -0.00283368 0.04666549
v 0.04378364 -0.00803119 0.04354299
v 0.04120647 -0.01181598 0.04406171
v 0.04579858 -0.01446745 0.04130536
v 0.03786520 -0.01624388 0.04445838
v 0.04269126 -0.02014992 0.04084766
v 0.03849723 -0.00728266 0.04608575
v 0.04406097 -0.00613352 0.04367521
f 1 2 3
f 1 3 4
f 1 4 5
f 1 5 6
f 1 6 7
f 1 7 8
f 1 8 19
f 1 19 9
f 1 9 2
f 2 9 22
f 2 22 10
f 2 10 3
f 3 11 12
f 3 12 4
f 3 10 13
f 3 13 14
f 3 14 15
f 3 15 11
f 4 12 11
f 4 11 16
f 4 16 17
f 4 17 5
f 5 17 18
f 5 18 7
f 5 7 6
f 7 18 8
f 8 18 19
f 9 19 37
f 9 37 20
f 9 20 21
f 9 21 22
f 10 23 24
f 10 24 25
f 10 25 26
f 10 26 13
f 10 22 23
f 11 15 16
f 13 27 28
f 13 28 29
f 13 29 14
f 13 26 25
f 13 25 27
f 14 29 15
f 15 30 31
f 15 31 32
f 15 32 33
f 15 33 34
f 15 34 16
f 15 29 30
f 16 34 35
f 16 35 36
f 16 36 17
f 17 36 19
f 17 19 18
f 19 36 37
f 20 37 38
f 20 38 21
f 21 38 39
f 21 39 40
f 21 40 41
f 21 41 42
f 21 42 22
f 22 42 43
f 22 43 44
f 22 44 45
f 22 45 46
f 22 46 47
f 22 47 23
f 23 47 28
f 23 28 24
f 24 28 48
f 24 48 49
f 24 49 25
f 25 49 50
f 25 50 27
f 27 50 48
f 27 48 28
f 28 47 46
f 28 46 45
f 28 45 31
f 28 31 30
f 28 30 29
f 31 45 51
f 31 51 32
f 32 51 52
f 32 52 53
f 32 53 33
f 33 53 54
f 33 54 37
f 33 37 35
f 33 35 34
f 35 37 36
f 37 54 38
f 38 54 55
f 38 55 39
f 39 55 40
f 40 55 41
f 41 56 42
f 41 55 57
f 41 57 56
f 42 56 58
f 42 58 59
f 42 59 60
f 42 60 43
f 43 60 61
f 43 61 62
f 43 62 44
f 44 62 45
f 45 62 61
f 45 61 51
f 48 50 49
f 51 61 52
f 52 61 63
f 52 63 57
f 52 57 53
f 53 57 55
f 53 55 54
f 56 57 64
f 56 64 58
f 57 63 64
f 58 64 63
f 58 63 59
f 59 63 61
f 59 61 60

