# https://github.com/mikedh/trimesh
v 0.07111140 -0.02733165 -0.01117712
v 0.07111140 -0.02624906 -0.01788482
v 0.09816479 -0.02637038 -0.01618073
v 0.09816479 -0.02705634 -0.00950162
v 0.07111140 -0.02683235 -0.00441223
v 0.09816479 -0.02416321 -0.02252818
v 0.07111140 -0.02364991 -0.02416364
v 0.09999719 -0.01794764 -0.01246376
v 0.09999719 -0.01642175 -0.01794772
v 0.09999719 -0.01786365 -0.00678538
v 0.09816479 -0.02617440 -0.00284539
v 0.07111140 -0.02478849 0.00205529
v 0.09999719 -0.01341662 -0.02277979
v 0.09816479 -0.02054679 -0.02819513
v 0.07111140 -0.01967885 -0.02966476
v 0.10000002 -0.01617910 -0.00134144
v 0.09816479 -0.02378523 0.00344487
v 0.07111140 -0.02130740 0.00788808
v 0.09816479 -0.01572180 -0.03288423
v 0.09841363 -0.01138677 -0.03541177
v 0.09999719 -0.00917025 -0.02657110
v 0.07111140 -0.01454121 -0.03410797
v 0.10000002 0.00218295 0.01007251
v 0.09999719 -0.00867096 0.00706463
v 0.09999719 -0.01302932 0.00339912
v 0.09999719 -0.00402795 -0.02901858
v 0.09999719 0.00159033 -0.02991065
v 0.09999719 0.00723660 -0.02918441
v 0.09999719 0.01244890 -0.02689133
v 0.09816479 -0.02001483 0.00900317
v 0.09791594 -0.01657107 0.01276017
v 0.07111140 -0.01657107 0.01276017
v 0.07111140 -0.00852163 -0.03724166
v 0.09816479 -0.00683242 -0.03751614
v 0.09841363 0.00064306 0.01875307
v 0.09999719 -0.00346799 0.00934628
v 0.09999719 0.01680259 -0.02323154
v 0.09999719 0.02014369 -0.01786767
v 0.09999719 0.02026968 -0.00213059
v 0.09999719 0.01719457 0.00295309
v 0.09999719 0.01294820 0.00674440
v 0.09999719 0.00780589 0.00918044
v 0.09816479 -0.01219404 0.01536777
v 0.09816479 0.00315355 -0.03883138
v 0.09841363 0.00809987 -0.03797933
v 0.09834859 0.02018569 -0.03208937
v 0.07111140 -0.01083614 0.01640852
v 0.07111140 -0.00195143 -0.03890572
v 0.09791594 -0.00193743 -0.03891144
v 0.09816479 0.00735326 0.01850718
v 0.07111140 0.00232294 0.01933063
v 0.07111140 -0.00442459 0.01863298
v 0.09816479 -0.00597848 0.01793534
v 0.07777083 0.02033968 0.01272586
v 0.09843908 0.01918709 0.01288597
v 0.09816479 0.01376014 0.01648286
v 0.07111140 0.00341953 -0.03908871
v 0.07111140 0.01147363 -0.03754474
v 0.09816479 0.01294353 -0.03666982
v 0.09791594 0.01759587 -0.03458260
v 0.07111140 0.01896778 -0.03346751
v 0.07111140 0.02033968 0.01266868
v 0.07111140 0.00905647 0.01843284
v 0.07111140 0.01539336 0.01601967
f 1 2 3
f 1 3 4
f 1 4 5
f 1 5 12
f 1 12 18
f 1 18 32
f 1 32 47
f 1 47 52
f 1 52 51
f 1 51 63
f 1 63 64
f 1 64 62
f 1 62 61
f 1 61 58
f 1 58 57
f 1 57 48
f 1 48 33
f 1 33 22
f 1 22 15
f 1 15 7
f 1 7 2
f 2 6 3
f 2 7 6
f 3 8 4
f 3 6 9
f 3 9 8
f 4 10 11
f 4 11 5
f 4 8 10
f 5 11 12
f 6 13 9
f 6 7 14
f 6 14 13
f 7 15 14
f 8 9 16
f 8 16 10
f 9 13 16
f 10 16 11
f 11 16 17
f 11 17 12
f 12 17 18
f 13 14 19
f 13 19 20
f 13 20 21
f 13 21 16
f 14 15 19
f 15 22 19
f 16 23 24
f 16 24 25
f 16 25 17
f 16 21 26
f 16 26 27
f 16 27 28
f 16 28 29
f 16 29 23
f 17 25 30
f 17 30 18
f 18 30 31
f 18 31 32
f 19 22 20
f 20 22 33
f 20 33 34
f 20 34 26
f 20 26 21
f 23 35 36
f 23 36 24
f 23 29 37
f 23 37 38
f 23 38 39
f 23 39 40
f 23 40 41
f 23 41 42
f 23 42 35
f 24 36 43
f 24 43 30
f 24 30 25
f 26 34 27
f 27 34 44
f 27 44 45
f 27 45 28
f 28 45 29
f 29 45 46
f 29 46 37
f 30 43 31
f 31 43 47
f 31 47 32
f 33 48 49
f 33 49 34
f 34 49 44
f 35 50 51
f 35 51 52
f 35 52 53
f 35 53 36
f 35 42 50
f 36 53 43
f 37 46 38
f 38 46 39
f 39 54 55
f 39 55 40
f 39 46 54
f 40 55 41
f 41 55 42
f 42 55 56
f 42 56 50
f 43 53 47
f 44 49 57
f 44 57 45
f 45 57 58
f 45 58 59
f 45 59 46
f 46 59 60
f 46 60 61
f 46 61 62
f 46 62 54
f 47 53 52
f 48 57 49
f 50 56 63
f 50 63 51
f 54 62 64
f 54 64 56
f 54 56 55
f 56 64 63
f 58 61 60
f 58 60 59

