# https://github.com/mikedh/trimesh
v 0.04707030 0.01253624 -0.03251385
v 0.04584617 0.01253624 -0.03250164
v 0.04707030 0.01282726 -0.04077923
v 0.04707030 0.01253624 0.01268653
v 0.04488590 0.01353458 -0.03194655
v 0.04584617 0.01253624 0.01268043
v 0.04488590 0.02010212 -0.04086463
v 0.04488590 0.02033968 -0.04094393
v 0.04611708 0.02033968 -0.04154172
v 0.04707030 0.01914961 -0.04176742
v 0.04488590 0.01792517 -0.04007774
v 0.04707030 0.01260269 0.01990273
v 0.04488590 0.01353458 0.01213144
v 0.04488590 0.02033968 0.01984783
v 0.04707030 0.02033968 -0.04147462
v 0.04707030 0.02004331 -0.04155392
v 0.04642114 0.02002192 -0.04160272
v 0.04488590 0.01957278 0.01967703
v 0.04488590 0.01871880 0.01943304
v 0.04488590 0.01854541 0.01937814
v 0.04707030 0.01810696 0.02040902
v 0.04707030 0.01996922 0.02054932
v 0.04684942 0.02031142 0.02048222
v 0.04683061 0.02033968 0.02047612
v 0.04707030 0.02033968 0.02042732
v 0.04687572 0.02033968 0.02047002
f 1 2 3
f 1 3 10
f 1 10 16
f 1 16 15
f 1 15 25
f 1 25 22
f 1 22 21
f 1 21 12
f 1 12 4
f 1 4 6
f 1 6 2
f 2 5 3
f 2 6 13
f 2 13 5
f 3 7 8
f 3 8 9
f 3 9 10
f 3 5 11
f 3 11 7
f 4 12 6
f 5 13 20
f 5 20 19
f 5 19 18
f 5 18 14
f 5 14 8
f 5 8 7
f 5 7 11
f 6 12 13
f 8 14 24
f 8 24 26
f 8 26 25
f 8 25 15
f 8 15 9
f 9 15 16
f 9 16 17
f 9 17 10
f 10 17 16
f 12 14 18
f 12 18 19
f 12 19 20
f 12 20 13
f 12 21 14
f 14 21 22
f 14 22 23
f 14 23 24
f 22 25 26
f 22 26 23
f 23 26 24

