# https://github.com/mikedh/trimesh
v 0.07093521 -0.02741662 -0.02066737
v 0.07093288 -0.02914600 -0.01309657
v 0.07093288 -0.02830423 -0.01807847
v 0.06893413 -0.02954584 -0.02094163
v 0.07041106 -0.02741662 -0.02236719
v 0.07092822 -0.02741662 -0.00023042
v 0.06893180 -0.03106854 -0.01398264
v 0.06893180 -0.03102345 -0.01437745
v 0.07093054 -0.02916592 -0.00805137
v 0.06893180 -0.03125305 -0.01103207
v 0.06893180 -0.03045525 -0.01768365
v 0.04914473 -0.02956501 -0.02088738
v 0.06893646 -0.02920200 -0.02191511
v 0.07034117 -0.02741662 -0.02258720
v 0.07039475 -0.02741662 0.00152666
v 0.06892948 -0.02958680 -0.00008876
v 0.07092822 -0.02836286 -0.00306043
v 0.04914240 -0.03106854 -0.01398867
v 0.06892948 -0.03103547 -0.00662883
v 0.06893180 -0.03116287 -0.00794589
v 0.06893180 -0.03125531 -0.01000134
v 0.04714133 -0.02908062 -0.01377468
v 0.04714366 -0.02766802 -0.02025447
v 0.04714366 -0.02741662 -0.02080601
v 0.04914473 -0.02741662 -0.02558598
v 0.06893646 -0.02847710 -0.02370835
v 0.07010356 -0.02741662 -0.02322011
v 0.07021305 -0.02741662 0.00201792
v 0.06892948 -0.02861201 0.00249110
v 0.06892948 -0.02924709 0.00088772
v 0.04913774 -0.02956501 -0.00002849
v 0.06892948 -0.03047780 -0.00332263
v 0.04914007 -0.03106854 -0.00693022
v 0.04713900 -0.02908062 -0.00714420
v 0.04713900 -0.02741662 -0.00534794
v 0.05758930 -0.02741662 -0.02577284
v 0.06893646 -0.02787809 -0.02499527
v 0.06969356 -0.02741662 -0.02419057
v 0.06979373 -0.02741662 0.00302756
v 0.06892714 -0.02792318 0.00399802
v 0.06118610 -0.02741662 0.00493533
v 0.04913541 -0.02741662 0.00466710
v 0.04762121 -0.02741662 0.00104444
v 0.04713900 -0.02766802 -0.00066140
v 0.04713900 -0.02741662 -0.00011288
v 0.06162871 -0.02741662 -0.02584819
v 0.06919038 -0.02741662 -0.02529364
v 0.06893646 -0.02741662 -0.02584819
v 0.06921368 -0.02741662 0.00431749
v 0.06892714 -0.02741662 0.00493533
f 1 2 3
f 1 3 4
f 1 4 5
f 1 5 14
f 1 14 27
f 1 27 38
f 1 38 47
f 1 47 48
f 1 48 46
f 1 46 36
f 1 36 25
f 1 25 24
f 1 24 35
f 1 35 45
f 1 45 43
f 1 43 42
f 1 42 41
f 1 41 50
f 1 50 49
f 1 49 39
f 1 39 28
f 1 28 15
f 1 15 6
f 1 6 2
f 2 7 8
f 2 8 3
f 2 6 9
f 2 9 10
f 2 10 7
f 3 11 4
f 3 8 11
f 4 12 13
f 4 13 14
f 4 14 5
f 4 11 12
f 6 15 16
f 6 16 17
f 6 17 9
f 7 18 8
f 7 10 18
f 8 18 11
f 9 17 19
f 9 19 20
f 9 20 21
f 9 21 10
f 10 21 18
f 11 18 12
f 12 18 22
f 12 22 23
f 12 23 24
f 12 24 25
f 12 25 26
f 12 26 13
f 13 26 14
f 14 26 27
f 15 28 29
f 15 29 30
f 15 30 16
f 16 30 31
f 16 31 32
f 16 32 17
f 17 32 19
f 18 21 33
f 18 33 34
f 18 34 22
f 19 32 33
f 19 33 20
f 20 33 21
f 22 24 23
f 22 34 24
f 24 34 35
f 25 36 26
f 26 36 37
f 26 37 27
f 27 37 38
f 28 39 29
f 29 31 30
f 29 39 40
f 29 40 31
f 31 40 41
f 31 41 42
f 31 42 43
f 31 43 44
f 31 44 34
f 31 34 33
f 31 33 32
f 34 44 45
f 34 45 35
f 36 46 37
f 37 47 38
f 37 46 48
f 37 48 47
f 39 49 40
f 40 49 50
f 40 50 41
f 43 45 44

