# https://github.com/mikedh/trimesh
v 0.05118241 -0.04069931 -0.12480184
v 0.04982444 -0.04616259 -0.10596150
v 0.04933330 -0.04455203 -0.12144473
v 0.03327833 -0.04348418 -0.12435326
v 0.03119245 -0.03999741 -0.07097228
v 0.03585926 -0.04007597 0.02299792
v 0.04982640 -0.04065590 0.01684804
v 0.05115110 -0.04906324 -0.05867252
v 0.05115110 -0.04883375 -0.06375160
v 0.04969530 -0.04657815 -0.10137441
v 0.04540223 -0.04680867 -0.10418165
v 0.04709089 -0.04570154 -0.11451345
v 0.05061301 -0.04833963 -0.07479244
v 0.03119245 -0.04953255 -0.07291130
v 0.03261304 -0.04922347 -0.07859814
v 0.03119245 -0.04702058 -0.05596657
v 0.03490242 -0.04192945 0.01741238
v 0.03829930 -0.04445279 0.01376586
v 0.04159835 -0.04111074 0.02011833
v 0.04489152 -0.04280502 0.01486560
v 0.04956420 -0.04385219 0.00972865
v 0.04977944 -0.04850606 -0.00772255
v 0.04682086 -0.04969071 -0.05585081
v 0.04611057 -0.04954909 -0.06153764
v 0.04970508 -0.04911699 -0.01252670
v 0.04969725 -0.04954082 -0.02463834
v 0.04969725 -0.04965040 -0.03883372
v 0.04934113 -0.04811737 -0.08147773
v 0.04540223 -0.04879447 -0.07718005
v 0.03865347 -0.04909839 -0.07859814
v 0.04540223 -0.04932787 -0.06721000
v 0.03119245 -0.04983957 -0.06722447
v 0.03545421 -0.04964316 -0.07072629
v 0.03446998 -0.04594033 0.00641494
v 0.03687480 -0.04707331 0.00524285
v 0.03873369 -0.04590829 0.00899066
v 0.04895370 -0.04597444 0.00382476
v 0.04896739 -0.04749920 -0.00218042
v 0.03961422 -0.04832619 -0.00205019
v 0.04465672 -0.04886890 -0.00740420
v 0.04540027 -0.05004839 -0.04593864
v 0.04114047 -0.05014452 -0.05585081
v 0.04149268 -0.04984991 -0.06224669
v 0.04281739 -0.04977135 -0.01398820
v 0.04937635 -0.04944365 -0.01841611
v 0.04540027 -0.05012178 -0.02889262
v 0.04540027 -0.05019207 -0.03599754
v 0.04114047 -0.04952738 -0.06864256
v 0.03545421 -0.05034196 -0.05585081
v 0.03403363 -0.05038848 -0.05159654
v 0.03528985 -0.04942298 -0.01326468
v 0.03429387 -0.04792407 -0.00614529
v 0.03971989 -0.04925758 -0.00791067
v 0.04131462 -0.04696373 0.00381029
v 0.04397773 -0.05023032 -0.04168437
v 0.04255519 -0.05025720 -0.04593864
v 0.03829930 -0.05044637 -0.04806578
v 0.03900764 -0.05024273 -0.01895151
v 0.04397773 -0.05016106 -0.02463834
v 0.03900764 -0.05054044 -0.03599754
v 0.03829930 -0.05055698 -0.04097533
v 0.03687480 -0.05053217 -0.02889262
v 0.03829930 -0.05041536 -0.02392930
f 1 2 3
f 1 3 4
f 1 4 5
f 1 5 6
f 1 6 7
f 1 7 8
f 1 8 9
f 1 9 2
f 2 10 11
f 2 11 12
f 2 12 3
f 2 9 13
f 2 13 10
f 3 12 4
f 4 14 5
f 4 12 15
f 4 15 14
f 5 14 32
f 5 32 16
f 5 16 17
f 5 17 6
f 6 17 18
f 6 18 19
f 6 19 7
f 7 19 20
f 7 20 21
f 7 21 22
f 7 22 8
f 8 23 24
f 8 24 9
f 8 22 25
f 8 25 26
f 8 26 27
f 8 27 23
f 9 24 13
f 10 28 11
f 10 13 28
f 11 28 29
f 11 29 30
f 11 30 15
f 11 15 12
f 13 29 28
f 13 24 31
f 13 31 29
f 14 15 32
f 15 30 33
f 15 33 32
f 16 32 34
f 16 34 17
f 17 34 18
f 18 20 19
f 18 34 35
f 18 35 36
f 18 36 37
f 18 37 21
f 18 21 20
f 21 37 22
f 22 37 38
f 22 38 39
f 22 39 40
f 22 40 25
f 23 41 42
f 23 42 24
f 23 27 41
f 24 42 43
f 24 43 31
f 25 44 45
f 25 45 26
f 25 40 44
f 26 45 46
f 26 46 47
f 26 47 27
f 27 47 41
f 29 31 43
f 29 43 48
f 29 48 30
f 30 48 33
f 32 49 50
f 32 50 51
f 32 51 52
f 32 52 34
f 32 33 49
f 33 48 43
f 33 43 49
f 34 52 35
f 35 52 51
f 35 51 53
f 35 53 39
f 35 39 54
f 35 54 36
f 36 54 37
f 37 54 38
f 38 54 39
f 39 53 40
f 40 53 44
f 41 55 56
f 41 56 42
f 41 47 55
f 42 49 43
f 42 56 57
f 42 57 49
f 44 58 59
f 44 59 45
f 44 53 58
f 45 59 46
f 46 59 47
f 47 60 61
f 47 61 55
f 47 59 60
f 49 57 61
f 49 61 50
f 50 61 62
f 50 62 51
f 51 62 58
f 51 58 53
f 55 61 56
f 56 61 57
f 58 62 63
f 58 63 59
f 59 63 60
f 60 63 62
f 60 62 61

