# https://github.com/mikedh/trimesh
v 0.04264082 -0.00891597 -0.21732665
v 0.04263472 -0.00350205 -0.21732665
v 0.04237222 -0.01667483 -0.21732665
v 0.03561429 -0.01370607 -0.30417919
v 0.04262251 0.00170643 -0.21738510
v 0.02576126 0.00170643 -0.21732665
v 0.03866665 -0.01993671 -0.21732665
v 0.03317240 -0.01892708 -0.30561115
v 0.03232994 -0.01682765 -0.31209879
v 0.03153022 -0.01049931 -0.31209879
v 0.03939922 0.00170643 -0.24109518
v -0.01972505 -0.00350205 -0.21732665
v 0.02576126 0.00170643 -0.25515173
v 0.02041963 -0.02374975 -0.21732665
v 0.03272675 -0.02100897 -0.24109518
v 0.03272675 -0.02090625 -0.24701783
v 0.02679906 -0.02069832 -0.30618588
v 0.02679906 -0.02024737 -0.31209879
v 0.02859996 -0.01667233 -0.31608294
v 0.02854501 -0.01094775 -0.31581018
v 0.02679906 -0.00875312 -0.31209879
v 0.03750675 0.00170643 -0.24758282
v -0.01967621 -0.00891597 -0.21732665
v -0.01591570 -0.00350205 -0.28210563
v -0.01755787 -0.00432629 -0.27729348
v 0.03334333 0.00170643 -0.25339832
v 0.00313715 -0.00537600 -0.31092984
v -0.00869381 -0.00350455 -0.29387300
v -0.01289386 -0.00350455 -0.28944075
v 0.01496811 -0.02388754 -0.21732665
v 0.00905263 -0.02281528 -0.27067920
v 0.00905263 -0.02206369 -0.30026323
v 0.02090800 -0.02048286 -0.31209879
v 0.02088969 -0.01689529 -0.31684275
v 0.02090800 -0.01045171 -0.31629724
v 0.00756307 -0.00557141 -0.31002391
v -0.01879102 -0.01694039 -0.21732665
v -0.01723432 -0.00892098 -0.27660186
v -0.01127000 -0.00670130 -0.30709180
v -0.01450551 -0.00892599 -0.30026323
v -0.01506714 -0.01482343 -0.30026323
v -0.00276002 -0.00580441 -0.31134872
v -0.00743013 -0.00557141 -0.31010184
v -0.00278443 -0.02373722 -0.21732665
v -0.00869991 -0.02365956 -0.21732665
v 0.00314936 -0.02242446 -0.28251476
v -0.00869381 -0.02047034 -0.30026323
v 0.00905263 -0.02147495 -0.30617613
v 0.00314936 -0.02220149 -0.28842767
v -0.00277223 -0.02202111 -0.28251476
v -0.00904788 -0.02112672 -0.28909981
v -0.00177716 -0.01780221 -0.31370609
v -0.00869381 -0.01929786 -0.30822179
v -0.00162454 -0.00984292 -0.31461201
v -0.01644681 -0.01482593 -0.27660186
v -0.01759450 -0.01781724 -0.23843583
v -0.01374852 -0.02239189 -0.21732665
v -0.01544563 -0.01482343 -0.29434057
v -0.00827869 -0.00864289 -0.31132923
v -0.01231391 -0.01647441 -0.30771524
v -0.01315636 -0.01917260 -0.30026323
v -0.00869381 -0.02170795 -0.27660186
v -0.00869381 -0.01482593 -0.31179681
v -0.01335782 -0.01932793 -0.29434057
f 1 2 6
f 1 6 12
f 1 12 23
f 1 23 37
f 1 37 57
f 1 57 45
f 1 45 44
f 1 44 30
f 1 30 14
f 1 14 7
f 1 7 3
f 1 3 4
f 1 4 2
f 2 4 5
f 2 5 6
f 3 7 8
f 3 8 4
f 4 8 9
f 4 9 10
f 4 10 11
f 4 11 5
f 5 11 22
f 5 22 26
f 5 26 13
f 5 13 6
f 6 13 12
f 7 14 15
f 7 15 16
f 7 16 8
f 8 17 18
f 8 18 9
f 8 16 17
f 9 18 19
f 9 19 20
f 9 20 10
f 10 20 21
f 10 21 22
f 10 22 11
f 12 13 24
f 12 24 25
f 12 25 23
f 13 26 27
f 13 27 28
f 13 28 29
f 13 29 24
f 14 30 31
f 14 31 32
f 14 32 17
f 14 17 16
f 14 16 15
f 17 32 18
f 18 33 34
f 18 34 19
f 18 32 33
f 19 34 20
f 20 34 35
f 20 35 27
f 20 27 21
f 21 27 36
f 21 36 26
f 21 26 22
f 23 25 38
f 23 38 37
f 24 29 39
f 24 39 40
f 24 40 25
f 25 40 41
f 25 41 38
f 26 36 27
f 27 35 42
f 27 42 43
f 27 43 28
f 28 43 29
f 29 43 39
f 30 44 31
f 31 44 45
f 31 45 46
f 31 46 32
f 32 47 48
f 32 48 33
f 32 46 49
f 32 49 50
f 32 50 51
f 32 51 47
f 33 52 34
f 33 48 53
f 33 53 52
f 34 52 54
f 34 54 35
f 35 54 42
f 37 38 55
f 37 55 56
f 37 56 57
f 38 41 58
f 38 58 55
f 39 43 59
f 39 59 60
f 39 60 40
f 40 60 41
f 41 60 61
f 41 61 58
f 42 54 43
f 43 54 59
f 45 57 62
f 45 62 50
f 45 50 46
f 46 50 49
f 47 61 53
f 47 53 48
f 47 51 61
f 50 62 51
f 51 62 57
f 51 57 61
f 52 53 63
f 52 63 54
f 53 61 60
f 53 60 63
f 54 63 59
f 55 58 56
f 56 58 61
f 56 61 64
f 56 64 57
f 57 64 61
f 59 63 60

