# https://github.com/mikedh/trimesh
v 0.05960622 -0.02741157 -0.02580680
v 0.04768215 -0.02741157 -0.02208529
v 0.04814575 -0.02595805 -0.02636092
v 0.04814810 -0.02165357 -0.03227157
v 0.06997947 -0.02170498 -0.03135487
v 0.07009007 -0.02543459 -0.02599151
v 0.07093490 -0.02673388 -0.01982091
v 0.07111140 -0.02732277 -0.01117386
v 0.07092784 -0.02741157 -0.00390185
v 0.04713855 -0.02741157 -0.00535215
v 0.04707030 -0.01311003 -0.02991141
v 0.04715031 -0.00350557 -0.04095966
v 0.04814810 -0.01647510 -0.03674559
v 0.06993946 -0.01438128 -0.03804539
v 0.07052308 -0.01635358 -0.03479590
v 0.07098197 -0.00342611 -0.04038501
v 0.07102433 0.00359379 -0.04017978
v 0.07111140 0.02033501 -0.03235366
v 0.07111140 -0.02683203 -0.00442177
v 0.07079135 -0.02671051 0.00099632
v 0.06118527 -0.02741157 0.00492306
v 0.04738093 -0.02741157 0.00045588
v 0.04707030 -0.01311003 0.01007435
v 0.04707030 -0.00763712 -0.03301723
v 0.04707030 0.01966666 -0.04163692
v 0.04715031 0.00171496 -0.04142485
v 0.05090144 -0.00411782 -0.04508479
v 0.04815046 -0.00936639 -0.04041922
v 0.04707030 0.01281969 -0.04077495
v 0.06707317 -0.00404772 -0.04520793
v 0.06998182 -0.00928227 -0.03983089
v 0.06694374 0.00727667 -0.04538580
v 0.06889461 0.01260470 -0.04277937
v 0.07098197 0.01255796 -0.03884578
v 0.07082430 0.01867117 -0.03608885
v 0.06894167 0.01872258 -0.04083652
v 0.06413393 0.02033501 -0.04041922
v 0.07101491 0.02033033 0.01348802
v 0.07096785 0.00340684 0.02014433
v 0.07096785 -0.00342144 0.01974755
v 0.06997006 -0.01831187 0.01400109
v 0.06997006 -0.02215365 0.01019065
v 0.06996064 -0.02565893 0.00592869
v 0.05700820 -0.02741157 0.00483413
v 0.04813398 -0.02165357 0.01135362
v 0.04813869 -0.02595805 0.00544298
v 0.04713149 -0.00358502 0.02002119
v 0.04707030 -0.00755300 0.01322122
v 0.05116501 0.00715983 -0.04541316
v 0.04707030 0.01911984 0.02044534
v 0.06896992 0.01940026 0.01876245
v 0.07096785 0.01643246 0.01642966
v 0.06990416 0.01052957 0.02033588
v 0.06752971 0.00826282 0.02366746
v 0.06707082 -0.00410848 0.02428315
v 0.07026657 -0.01072644 0.01796889
v 0.06992299 -0.01503560 0.01676487
v 0.04813398 -0.01647510 0.01582765
v 0.04707030 0.01259535 0.01989121
v 0.04813163 -0.00936639 0.01950127
v 0.05094380 -0.00403837 0.02424894
v 0.04713149 0.00171496 0.02050691
v 0.05112029 0.00723461 0.02447470
v 0.06892520 0.01522664 0.02041113
f 1 2 3
f 1 3 4
f 1 4 5
f 1 5 6
f 1 6 7
f 1 7 8
f 1 8 9
f 1 9 21
f 1 21 44
f 1 44 22
f 1 22 10
f 1 10 2
f 2 10 11
f 2 11 12
f 2 12 4
f 2 4 3
f 4 13 14
f 4 14 5
f 4 12 13
f 5 14 15
f 5 15 7
f 5 7 6
f 7 15 16
f 7 16 8
f 8 16 17
f 8 17 18
f 8 18 19
f 8 19 9
f 9 19 20
f 9 20 21
f 10 22 23
f 10 23 11
f 11 24 12
f 11 23 48
f 11 48 59
f 11 59 50
f 11 50 25
f 11 25 29
f 11 29 24
f 12 25 26
f 12 26 27
f 12 27 28
f 12 28 13
f 12 24 29
f 12 29 25
f 13 28 27
f 13 27 30
f 13 30 14
f 14 30 31
f 14 31 16
f 14 16 15
f 16 31 30
f 16 30 32
f 16 32 33
f 16 33 17
f 17 34 18
f 17 33 34
f 18 34 35
f 18 35 36
f 18 36 37
f 18 37 38
f 18 38 19
f 19 38 39
f 19 39 40
f 19 40 20
f 20 41 42
f 20 42 43
f 20 43 21
f 20 40 41
f 21 43 42
f 21 42 45
f 21 45 44
f 22 44 46
f 22 46 45
f 22 45 47
f 22 47 23
f 23 47 48
f 25 37 36
f 25 36 32
f 25 32 49
f 25 49 27
f 25 27 26
f 25 50 38
f 25 38 37
f 27 49 30
f 30 49 32
f 32 36 33
f 33 36 34
f 34 36 35
f 38 50 51
f 38 51 52
f 38 52 39
f 39 53 54
f 39 54 55
f 39 55 40
f 39 52 53
f 40 56 57
f 40 57 41
f 40 55 56
f 41 58 45
f 41 45 42
f 41 57 58
f 44 45 46
f 45 58 47
f 47 59 48
f 47 58 60
f 47 60 61
f 47 61 62
f 47 62 59
f 50 59 62
f 50 62 63
f 50 63 54
f 50 54 51
f 51 54 64
f 51 64 52
f 52 64 53
f 53 64 54
f 54 63 55
f 55 63 61
f 55 61 58
f 55 58 57
f 55 57 56
f 58 61 60
f 61 63 62

