# https://github.com/mikedh/trimesh
v 0.02290378 -0.02290541 -0.00245552
v 0.01509696 -0.02326524 -0.04277934
v -0.02023006 -0.00973924 0.00827726
v -0.02023006 -0.01028822 0.02967614
v 0.02072936 -0.02349360 0.03197232
v 0.02162446 -0.02596629 0.02792068
v 0.02181868 -0.02543116 0.00758100
v 0.02057736 -0.02586249 0.00214424
v 0.01738116 -0.02848281 0.00709213
v 0.01380075 -0.02988062 0.00251459
v 0.01044411 -0.02583943 -0.04277934
v -0.00153001 -0.01976841 -0.04277934
v -0.02017518 -0.02147300 -0.04277934
v -0.02014140 -0.02234029 0.03282412
v -0.02014140 -0.01683439 0.03286856
v 0.01357275 -0.02665597 0.03273524
v 0.00943923 -0.03154830 0.02945393
v 0.01751205 -0.02870425 0.02670592
v 0.01768938 -0.02849896 0.01340292
v 0.01624962 -0.02927167 0.01340292
v 0.01265231 -0.03074099 0.00751433
v 0.01009789 -0.03099241 0.00008509
v 0.00561393 -0.03161520 -0.00474429
v 0.00535638 -0.02713113 -0.04277934
v -0.01651454 -0.02551881 -0.04277934
v -0.01853275 -0.02877345 -0.00180370
v -0.01968962 -0.02803533 0.02005442
v -0.01157881 -0.02759938 0.03272042
v -0.01520567 -0.02473225 0.03289079
v -0.01840608 -0.02766627 0.02950578
v 0.00535638 -0.03047573 0.03246859
v 0.00278507 -0.03314910 0.02889099
v 0.01140677 -0.03134302 0.01582501
v 0.01341653 -0.03060951 0.01582501
v 0.00838368 -0.03194274 0.00644032
v 0.00535638 -0.03210651 0.00009250
v 0.00051775 -0.03219647 -0.00474429
v 0.00321573 -0.03144220 -0.00930701
v 0.00051775 -0.02749327 -0.04277934
v -0.01103837 -0.02681513 -0.04277934
v -0.00958171 -0.03131534 -0.00549239
v -0.01463989 -0.03017356 -0.00474429
v -0.01404878 -0.03087247 0.00552925
v -0.01868052 -0.02892107 0.00434413
v -0.01850319 -0.02893721 0.01461766
v -0.01416278 -0.03085171 0.02309130
v -0.01356323 -0.03067179 0.02916506
v -0.00139912 -0.03117002 0.03175751
v -0.00914261 -0.03172822 0.02933542
v -0.00341732 -0.03323675 0.02436531
v -0.00068557 -0.03330133 0.02066180
v 0.00287795 -0.03319984 0.02207654
v 0.00097375 -0.03294842 0.00841058
v 0.00051775 -0.03257475 0.00009250
v -0.00431665 -0.03185739 -0.00655160
v -0.00456576 -0.02742638 -0.04277934
v -0.00492464 -0.03255860 0.00311456
v -0.00916372 -0.03208575 0.00492928
v -0.01193769 -0.03117694 -0.00038896
v -0.00674018 -0.03280080 0.01703977
v -0.01435278 -0.03083095 0.01431398
v -0.01762920 -0.02948158 0.00977347
v -0.00583241 -0.03274775 0.01068454
v -0.00074468 -0.03319292 0.01609907
f 1 2 3
f 1 3 4
f 1 4 5
f 1 5 6
f 1 6 7
f 1 7 8
f 1 8 2
f 2 8 9
f 2 9 10
f 2 10 11
f 2 11 24
f 2 24 39
f 2 39 56
f 2 56 40
f 2 40 25
f 2 25 13
f 2 13 12
f 2 12 3
f 3 12 13
f 3 13 4
f 4 14 15
f 4 15 5
f 4 13 14
f 5 15 16
f 5 16 17
f 5 17 6
f 6 17 18
f 6 18 19
f 6 19 7
f 7 9 8
f 7 19 9
f 9 19 20
f 9 20 21
f 9 21 10
f 10 21 22
f 10 22 11
f 11 23 24
f 11 22 23
f 13 25 26
f 13 26 27
f 13 27 14
f 14 28 29
f 14 29 15
f 14 27 30
f 14 30 28
f 15 29 16
f 16 29 28
f 16 28 31
f 16 31 17
f 17 32 33
f 17 33 34
f 17 34 18
f 17 31 32
f 18 34 20
f 18 20 19
f 20 34 21
f 21 35 22
f 21 34 33
f 21 33 35
f 22 35 36
f 22 36 23
f 23 37 38
f 23 38 24
f 23 36 37
f 24 38 39
f 25 40 41
f 25 41 42
f 25 42 26
f 26 43 44
f 26 44 27
f 26 42 43
f 27 45 46
f 27 46 47
f 27 47 30
f 27 44 45
f 28 48 31
f 28 30 47
f 28 47 49
f 28 49 48
f 31 48 32
f 32 48 49
f 32 49 50
f 32 50 51
f 32 51 52
f 32 52 33
f 33 52 35
f 35 52 36
f 36 52 53
f 36 53 54
f 36 54 37
f 37 55 56
f 37 56 39
f 37 39 38
f 37 54 55
f 40 56 55
f 40 55 41
f 41 55 57
f 41 57 58
f 41 58 59
f 41 59 42
f 42 59 43
f 43 59 58
f 43 58 60
f 43 60 61
f 43 61 62
f 43 62 44
f 44 62 45
f 45 62 46
f 46 62 61
f 46 61 60
f 46 60 49
f 46 49 47
f 49 60 50
f 50 60 63
f 50 63 64
f 50 64 51
f 51 64 53
f 51 53 52
f 53 64 57
f 53 57 54
f 54 57 55
f 57 64 63
f 57 63 58
f 58 63 60

