# https://github.com/mikedh/trimesh
v 0.02290378 0.02165573 -0.01108824
v 0.01289720 0.02157516 -0.04277934
v 0.02097424 0.02641176 -0.00350253
v 0.02198757 0.02656282 0.00260900
v 0.02247734 0.02714190 0.01849159
v 0.02220290 0.02774364 0.02671438
v 0.01923048 0.02475256 0.03261849
v -0.02023006 0.00843000 0.00288310
v -0.02020895 0.02099104 -0.04087550
v -0.01453434 0.02305560 -0.04277934
v 0.00573637 0.02385120 -0.04277934
v 0.00756458 0.03048799 -0.01472553
v 0.01432430 0.02941795 -0.00866585
v 0.01576406 0.03032433 0.00278679
v 0.01813693 0.02962188 0.00976506
v 0.02168357 0.02714946 0.00757231
v 0.02152313 0.02762279 0.01340235
v 0.01630028 0.03102930 0.02918122
v 0.01624962 0.03112246 0.02066211
v 0.01136877 0.03071207 0.03200365
v -0.01458923 0.02895468 0.03249997
v -0.01806831 0.02131331 0.03290000
v -0.02020473 0.01285620 0.03213698
v -0.01900563 0.03016824 0.02698848
v -0.01848208 0.02994416 0.00523141
v -0.01858341 0.02800045 -0.01427365
v -0.00915527 0.02398465 -0.04277934
v -0.01207703 0.03025132 -0.01439218
v 0.00387861 0.02996430 -0.02002220
v 0.00077531 0.02433209 -0.04277934
v 0.00742947 0.03156055 -0.00968074
v 0.01321809 0.03079264 -0.00353957
v 0.01007256 0.03221013 0.00017180
v 0.01157566 0.03217740 0.00749823
v 0.01210343 0.03229069 0.01226894
v 0.00535638 0.03285467 0.03078874
v 0.01019922 0.03334060 0.02671438
v 0.00052620 0.03299567 0.03081837
v -0.00431243 0.03292769 0.03080356
v -0.01888741 0.02651246 0.03258146
v -0.00934527 0.03297301 0.02971459
v -0.01417545 0.03231084 0.02731443
v -0.01324235 0.03178463 0.00172746
v -0.01765453 0.02985855 -0.00290990
v -0.01826675 0.02894209 -0.00951777
v -0.01217836 0.03128863 -0.00866585
v -0.00431243 0.02433209 -0.04277934
v -0.00431243 0.03091601 -0.01683679
v 0.00052620 0.03103686 -0.01683679
v 0.00052620 0.03279676 -0.00655460
v 0.00580393 0.03262556 -0.00413961
v 0.00535638 0.03323233 0.00280902
v 0.01019922 0.03303091 0.01854344
v 0.00656814 0.03381393 0.02186960
v 0.00172530 0.03415131 0.02126956
v -0.00522442 0.03327262 0.00280902
v -0.00945083 0.03280432 0.00492768
v -0.00919750 0.03238637 -0.00358402
v -0.00431243 0.03289496 -0.00474706
v -0.00164401 0.03209935 -0.01132530
v 0.00052620 0.03339096 0.00008290
v 0.00052620 0.03371322 0.00674262
v 0.00535638 0.03353195 0.00976506
v 0.00293707 0.03395745 0.01672851
f 1 2 3
f 1 3 4
f 1 4 5
f 1 5 6
f 1 6 7
f 1 7 8
f 1 8 2
f 2 9 10
f 2 10 27
f 2 27 47
f 2 47 30
f 2 30 11
f 2 11 12
f 2 12 13
f 2 13 3
f 2 8 9
f 3 13 14
f 3 14 4
f 4 14 15
f 4 15 16
f 4 16 5
f 5 16 17
f 5 17 6
f 6 18 7
f 6 17 15
f 6 15 19
f 6 19 18
f 7 18 20
f 7 20 21
f 7 21 22
f 7 22 23
f 7 23 8
f 8 23 9
f 9 23 24
f 9 24 25
f 9 25 26
f 9 26 10
f 10 26 28
f 10 28 27
f 11 29 12
f 11 30 29
f 12 29 31
f 12 31 13
f 13 32 14
f 13 31 32
f 14 32 33
f 14 33 34
f 14 34 35
f 14 35 19
f 14 19 15
f 15 17 16
f 18 36 20
f 18 19 37
f 18 37 36
f 19 35 37
f 20 38 39
f 20 39 21
f 20 36 38
f 21 40 22
f 21 39 41
f 21 41 42
f 21 42 24
f 21 24 40
f 22 40 23
f 23 40 24
f 24 42 25
f 25 42 43
f 25 43 44
f 25 44 45
f 25 45 26
f 26 45 46
f 26 46 28
f 27 28 48
f 27 48 47
f 28 46 48
f 29 30 49
f 29 49 31
f 30 47 49
f 31 49 50
f 31 50 51
f 31 51 33
f 31 33 32
f 33 51 52
f 33 52 53
f 33 53 35
f 33 35 34
f 35 53 37
f 36 37 38
f 37 54 55
f 37 55 38
f 37 53 54
f 38 55 39
f 39 55 41
f 41 55 56
f 41 56 57
f 41 57 42
f 42 57 43
f 43 58 46
f 43 46 44
f 43 57 58
f 44 46 45
f 46 58 59
f 46 59 48
f 47 48 49
f 48 59 60
f 48 60 49
f 49 60 50
f 50 59 61
f 50 61 51
f 50 60 59
f 51 61 52
f 52 62 63
f 52 63 53
f 52 61 62
f 53 63 54
f 54 63 64
f 54 64 55
f 55 64 62
f 55 62 56
f 56 61 59
f 56 59 58
f 56 58 57
f 56 62 61
f 62 64 63

