# https://github.com/mikedh/trimesh
v 0.04415626 0.02841536 0.01669866
v -0.02425430 0.02049690 0.00371191
v -0.02081669 0.02049690 0.01297864
v -0.01045358 0.01859781 0.02439410
v -0.00344769 0.01859781 0.02628742
v 0.00202034 0.01669871 0.02840839
v 0.04934283 0.02626638 0.01859753
v 0.05548430 0.02685499 0.01669866
v 0.05306189 0.02748802 -0.01869149
v 0.04444775 0.02839315 -0.01869149
v -0.02572182 0.01859781 -0.00627107
v -0.02843573 0.01669871 0.00116897
v -0.02661641 0.01669871 0.00978609
v -0.00409098 0.02049690 -0.02426597
v -0.02255560 0.01859781 -0.01387212
v -0.02296771 0.01669871 0.01672087
v -0.01610253 0.01859781 0.02104608
v -0.01895716 -0.01869557 0.02125152
v -0.00705618 -0.01869557 0.02748671
v 0.00155797 -0.01869557 0.02839173
v 0.06348531 -0.01737953 0.02049641
v 0.06387731 0.01698191 0.02049641
v 0.05933403 0.02287355 0.01859753
v 0.06513375 0.02109107 0.01669866
v 0.04854876 0.02440060 -0.02248924
v 0.06589767 0.01880327 -0.01964093
v 0.05914306 0.02299016 -0.02059036
v -0.00075388 0.01669871 -0.02831357
v -0.02520920 -0.01869557 -0.01317254
v -0.02773212 -0.01869557 -0.00602677
v -0.02637517 -0.02059467 0.00216282
v -0.02479708 -0.02059467 0.00941964
v -0.01072497 0.01859781 -0.02422710
v -0.01732882 0.01859781 -0.02005735
v -0.01768061 -0.01869557 -0.02223939
v -0.02102777 -0.02059467 0.01607125
v -0.01313733 -0.02059467 0.02298938
v -0.00255310 -0.02249377 0.02439965
v 0.04675960 -0.02831322 0.01669866
v 0.05079025 -0.02405414 0.02049641
v 0.05865053 -0.02111664 0.02049641
v 0.06348531 -0.02239381 0.01669866
v 0.06816931 -0.01450312 0.01859753
v 0.07124507 -0.00809506 0.01859753
v 0.07249146 -0.00118723 0.01859753
v 0.07183811 0.00595937 0.01859753
v 0.06882265 0.01338917 0.01859753
v 0.07425047 0.00315515 -0.01869149
v 0.07050125 -0.00121500 -0.02248924
v 0.07073244 0.00941884 -0.02059036
v -0.00069357 -0.01964512 -0.02735858
v -0.01116724 -0.01869557 -0.02613153
v 0.06915435 -0.00846155 -0.02248924
v -0.02049504 -0.02059467 -0.01683148
v -0.02301797 -0.02249377 -0.00846421
v -0.01186079 -0.02249377 -0.02148983
v 0.04668924 -0.02735812 -0.01964093
v 0.05717295 -0.02613093 -0.01869149
v 0.05700208 -0.02619756 0.01669866
v 0.06368634 -0.02223833 -0.01869149
v 0.07121492 -0.01317598 -0.01869149
v 0.07373784 -0.00602382 -0.01869149
v 0.05785646 -0.02149424 -0.02248924
v 0.06668168 -0.01654660 -0.02059036
f 1 2 3
f 1 3 4
f 1 4 5
f 1 5 6
f 1 6 7
f 1 7 8
f 1 8 9
f 1 9 10
f 1 10 2
f 2 11 12
f 2 12 13
f 2 13 3
f 2 10 14
f 2 14 15
f 2 15 11
f 3 13 16
f 3 16 17
f 3 17 4
f 4 17 18
f 4 18 19
f 4 19 6
f 4 6 5
f 6 20 21
f 6 21 22
f 6 22 7
f 6 19 20
f 7 22 23
f 7 23 8
f 8 23 24
f 8 24 9
f 9 25 10
f 9 24 26
f 9 26 27
f 9 27 25
f 10 25 28
f 10 28 14
f 11 15 29
f 11 29 30
f 11 30 12
f 12 30 31
f 12 31 13
f 13 31 32
f 13 32 18
f 13 18 16
f 14 28 33
f 14 33 34
f 14 34 15
f 15 35 29
f 15 34 35
f 16 18 17
f 18 32 36
f 18 36 37
f 18 37 19
f 19 37 38
f 19 38 20
f 20 38 39
f 20 39 40
f 20 40 41
f 20 41 21
f 21 41 42
f 21 42 43
f 21 43 44
f 21 44 45
f 21 45 22
f 22 45 46
f 22 46 47
f 22 47 24
f 22 24 23
f 24 47 48
f 24 48 26
f 25 27 49
f 25 49 28
f 26 48 50
f 26 50 27
f 27 50 49
f 28 51 52
f 28 52 33
f 28 49 53
f 28 53 51
f 29 35 54
f 29 54 55
f 29 55 30
f 30 55 31
f 31 55 32
f 32 55 36
f 33 52 35
f 33 35 34
f 35 52 56
f 35 56 54
f 36 55 38
f 36 38 37
f 38 55 39
f 39 57 58
f 39 58 59
f 39 59 40
f 39 55 57
f 40 59 41
f 41 59 42
f 42 60 61
f 42 61 43
f 42 59 58
f 42 58 60
f 43 61 44
f 44 61 62
f 44 62 45
f 45 62 48
f 45 48 46
f 46 48 47
f 48 62 49
f 48 49 50
f 49 62 53
f 51 56 52
f 51 53 63
f 51 63 57
f 51 57 56
f 53 62 61
f 53 61 64
f 53 64 63
f 54 56 55
f 55 56 57
f 57 63 58
f 58 63 60
f 60 64 61
f 60 63 64

