# https://github.com/mikedh/trimesh
v 0.01273051 -0.02914868 -0.11295387
v 0.01081680 -0.03758524 -0.10784397
v 0.00249410 -0.02972208 -0.11020978
v -0.00504514 -0.02941332 -0.10588207
v -0.01697049 -0.02908720 -0.08648751
v 0.02837411 -0.02908720 -0.05046173
v 0.04814695 -0.02924090 -0.08305099
v 0.04392780 -0.02939862 -0.09688684
v 0.03229143 -0.02943337 -0.10870951
v 0.02728240 -0.02939595 -0.11111379
v 0.02218988 -0.03016716 -0.11205627
v 0.01527998 -0.03671913 -0.10897238
v -0.00067829 -0.04239163 -0.09673938
v -0.00630382 -0.04037070 -0.09860511
v 0.00463900 -0.03707868 -0.10663862
v 0.02240180 -0.03694502 -0.10811325
v -0.01026609 -0.02986643 -0.10070164
v -0.01447239 -0.02949486 -0.09393118
v -0.00972023 -0.03920118 -0.09528399
v -0.01277060 -0.03997908 -0.08401912
v -0.01745855 -0.02908720 -0.07964653
v 0.01564603 -0.02908720 -0.04746118
v 0.02301830 -0.02945743 -0.04846137
v 0.02190090 -0.04104702 -0.05262879
v 0.03344736 -0.02983569 -0.05357768
v 0.04080036 -0.02986910 -0.06025838
v 0.04453788 -0.02951090 -0.06550293
v 0.04711945 -0.02929036 -0.07210669
v 0.04810199 -0.02933313 -0.07738971
v 0.04333057 -0.03735936 -0.07950547
v 0.04282324 -0.03693165 -0.08927007
v 0.04665708 -0.02967663 -0.09025743
v 0.03950958 -0.03582094 -0.09831659
v 0.04093522 -0.03001613 -0.10065035
v 0.03060249 -0.03652666 -0.10522169
v 0.03630508 -0.03007761 -0.10531787
v 0.00718847 -0.04268568 -0.09492495
v -0.00491670 -0.04264558 -0.09341185
v -0.00935419 -0.04184897 -0.08931495
v 0.03504640 -0.03880154 -0.09698943
v -0.01253942 -0.04035332 -0.07862711
v -0.01706039 -0.02908720 -0.07458791
v 0.01016820 -0.02908720 -0.04759582
v 0.01447083 -0.04179551 -0.05204535
v 0.02108532 -0.04274181 -0.07617795
v 0.02350636 -0.04266028 -0.08161484
v 0.04210400 -0.03741282 -0.07201693
v 0.03963159 -0.03714818 -0.06546446
v 0.03329324 -0.03574877 -0.05668722
v 0.04212969 -0.03806508 -0.08462820
v 0.04053707 -0.03707066 -0.09416840
v -0.00794780 -0.04274048 -0.08463462
v 0.01927436 -0.04268701 -0.08675038
v -0.00963033 -0.04174739 -0.07304917
v -0.00945051 -0.03963290 -0.06607996
v -0.01474211 -0.02908720 -0.06727248
v 0.00016298 -0.02908720 -0.05093617
v 0.00111983 -0.03891248 -0.05478303
v 0.00330325 -0.04212163 -0.05769381
v 0.00052902 -0.04268835 -0.06165607
v -0.00433873 -0.04266295 -0.06652875
v -0.00754323 -0.02908720 -0.05698856
v -0.01209631 -0.02908720 -0.06227798
v -0.00376077 -0.04031991 -0.05998269
f 1 2 3
f 1 3 4
f 1 4 5
f 1 5 6
f 1 6 7
f 1 7 8
f 1 8 9
f 1 9 10
f 1 10 11
f 1 11 12
f 1 12 2
f 2 13 14
f 2 14 15
f 2 15 3
f 2 12 16
f 2 16 13
f 3 15 14
f 3 14 4
f 4 14 17
f 4 17 18
f 4 18 5
f 5 18 19
f 5 19 20
f 5 20 21
f 5 21 42
f 5 42 56
f 5 56 63
f 5 63 62
f 5 62 57
f 5 57 43
f 5 43 22
f 5 22 6
f 6 22 23
f 6 23 24
f 6 24 25
f 6 25 26
f 6 26 27
f 6 27 28
f 6 28 7
f 7 28 29
f 7 29 30
f 7 30 31
f 7 31 32
f 7 32 8
f 8 32 31
f 8 31 33
f 8 33 34
f 8 34 9
f 9 35 10
f 9 34 36
f 9 36 35
f 10 35 16
f 10 16 11
f 11 16 12
f 13 16 37
f 13 37 38
f 13 38 14
f 14 39 19
f 14 19 17
f 14 38 39
f 16 35 40
f 16 40 37
f 17 19 18
f 19 39 20
f 20 41 21
f 20 39 41
f 21 41 42
f 22 43 44
f 22 44 24
f 22 24 23
f 24 45 46
f 24 46 47
f 24 47 48
f 24 48 49
f 24 49 25
f 24 44 45
f 25 49 26
f 26 49 48
f 26 48 27
f 27 48 47
f 27 47 28
f 28 47 29
f 29 47 30
f 30 47 50
f 30 50 31
f 31 50 51
f 31 51 33
f 33 36 34
f 33 51 40
f 33 40 35
f 33 35 36
f 37 52 38
f 37 40 53
f 37 53 45
f 37 45 52
f 38 52 39
f 39 52 41
f 40 46 53
f 40 51 50
f 40 50 46
f 41 52 54
f 41 54 55
f 41 55 42
f 42 55 56
f 43 57 58
f 43 58 44
f 44 58 59
f 44 59 60
f 44 60 45
f 45 60 52
f 45 53 46
f 46 50 47
f 52 60 61
f 52 61 54
f 54 61 55
f 55 62 63
f 55 63 56
f 55 61 64
f 55 64 62
f 57 62 58
f 58 62 64
f 58 64 59
f 59 64 60
f 60 64 61

