# https://github.com/mikedh/trimesh
v -0.00916239 0.02379964 -0.06553318
v 0.03278414 -0.02908068 -0.06553318
v 0.03278414 0.02218435 -0.06553318
v 0.03278414 0.02375305 -0.10217440
v -0.00442044 0.02310072 -0.10676302
v -0.01706352 0.02305930 -0.07046546
v -0.02760260 0.01456863 -0.06673842
v -0.03123852 0.00780197 -0.06601237
v 0.00255263 -0.02908068 -0.11047555
v 0.02197810 -0.02731524 -0.11331198
v 0.02980295 -0.02538413 -0.11107091
v 0.03278414 -0.00965568 -0.11014156
v -0.01460991 -0.02908068 -0.06708208
v 0.03278414 0.00970202 -0.11011252
v 0.02879226 0.02100911 -0.11112899
v 0.01549447 0.02258299 -0.11377180
v 0.00409091 0.02131975 -0.11225678
v -0.00447130 0.01419586 -0.11055299
v -0.01196561 0.01695533 -0.10496242
v -0.01263940 0.02231378 -0.09885394
v -0.01886241 0.02192030 -0.08711132
v -0.02308948 0.01955431 -0.07511701
v -0.02883576 0.01094973 -0.07578013
v -0.03215385 0.00071433 -0.06806466
v -0.03081263 -0.00938129 -0.06797270
v -0.02344545 -0.02246935 -0.06782749
v -0.03121309 0.00080752 -0.07553328
v -0.01697453 -0.02908068 -0.08649660
v -0.00742707 -0.02804523 -0.10458972
v -0.00260884 -0.01993250 -0.11094990
v 0.00732637 -0.02349962 -0.11408159
v 0.01403247 -0.02699943 -0.11382021
v 0.01382271 -0.01504001 -0.11498188
v 0.01382271 0.01157618 -0.11498188
v 0.03278414 -0.00240237 -0.11013188
v -0.01726693 -0.02908068 -0.07706766
v 0.00477741 0.01399913 -0.11384925
v -0.00716645 0.00393975 -0.11049007
v -0.01111384 0.01039059 -0.10758103
v 0.00122413 0.00683901 -0.11322969
v -0.01768010 0.01216121 -0.10125958
v -0.02003201 0.01803738 -0.09369416
v -0.02547317 0.01199036 -0.08819072
v -0.02741190 0.00339096 -0.08944436
v -0.02418280 -0.02149603 -0.07958462
v -0.02879762 -0.01273614 -0.07624965
v -0.02919808 -0.00157401 -0.08429910
v -0.02184361 -0.02045022 -0.09054311
v -0.01481332 -0.02702532 -0.09630309
v -0.01054175 -0.01360591 -0.10753263
v -0.01855094 -0.01668637 -0.09923148
v -0.01284916 -0.00199854 -0.10756651
v -0.00242450 -0.00803003 -0.11211158
v 0.00475834 -0.01625148 -0.11384925
v 0.00898541 -0.00535857 -0.11465758
v 0.01140724 -0.00778152 -0.11485120
v 0.01019950 0.00310622 -0.11476407
v 0.00271155 -0.00142905 -0.11376696
v -0.01923744 0.00068845 -0.10243577
v -0.02287972 0.00662156 -0.09691297
v -0.02528883 -0.00162578 -0.09418303
v -0.02638215 -0.01384407 -0.08593512
v -0.02441799 -0.00913278 -0.09389745
v -0.01806149 -0.00800414 -0.10264391
f 1 2 3
f 1 3 4
f 1 4 5
f 1 5 6
f 1 6 7
f 1 7 8
f 1 8 2
f 2 9 10
f 2 10 11
f 2 11 12
f 2 12 35
f 2 35 14
f 2 14 4
f 2 4 3
f 2 8 13
f 2 13 36
f 2 36 28
f 2 28 9
f 4 14 15
f 4 15 16
f 4 16 5
f 5 16 17
f 5 17 18
f 5 18 19
f 5 19 20
f 5 20 6
f 6 20 21
f 6 21 22
f 6 22 7
f 7 22 23
f 7 23 8
f 8 24 25
f 8 25 26
f 8 26 13
f 8 23 27
f 8 27 24
f 9 28 29
f 9 29 30
f 9 30 31
f 9 31 32
f 9 32 10
f 10 32 33
f 10 33 34
f 10 34 15
f 10 15 14
f 10 14 11
f 11 14 35
f 11 35 12
f 13 26 36
f 15 34 16
f 16 34 37
f 16 37 17
f 17 37 18
f 18 38 39
f 18 39 19
f 18 37 40
f 18 40 38
f 19 41 42
f 19 42 20
f 19 39 41
f 20 42 21
f 21 42 43
f 21 43 22
f 22 43 23
f 23 43 44
f 23 44 27
f 24 27 25
f 25 45 26
f 25 27 46
f 25 46 45
f 26 45 36
f 27 44 47
f 27 47 46
f 28 36 45
f 28 45 48
f 28 48 49
f 28 49 29
f 29 50 30
f 29 49 51
f 29 51 50
f 30 50 52
f 30 52 53
f 30 53 31
f 31 53 54
f 31 54 55
f 31 55 33
f 31 33 32
f 33 55 56
f 33 56 34
f 34 56 57
f 34 57 37
f 37 58 40
f 37 57 58
f 38 40 58
f 38 58 53
f 38 53 52
f 38 52 39
f 39 52 59
f 39 59 41
f 41 59 60
f 41 60 42
f 42 60 43
f 43 60 44
f 44 60 61
f 44 61 47
f 45 46 62
f 45 62 48
f 46 47 62
f 47 61 63
f 47 63 62
f 48 51 49
f 48 62 63
f 48 63 51
f 50 51 64
f 50 64 52
f 51 63 64
f 52 64 59
f 53 58 54
f 54 58 55
f 55 57 56
f 55 58 57
f 59 64 61
f 59 61 60
f 61 64 63

