# https://github.com/mikedh/trimesh
v 0.07894180 0.01034141 -0.00345669
v 0.07894180 0.01034141 -0.00496861
v 0.07785534 0.01034141 -0.00345669
v 0.07894180 -0.00514834 -0.00345669
v 0.07827404 0.01034141 -0.00469228
v 0.07894180 -0.00514834 -0.00427134
v 0.07785534 0.01034141 -0.00451422
v 0.07785534 -0.00514834 -0.00345669
v 0.07816322 -0.00514834 -0.00394557
v 0.07785534 -0.00514834 -0.00381414
f 1 2 5
f 1 5 7
f 1 7 3
f 1 3 8
f 1 8 4
f 1 4 6
f 1 6 2
f 2 6 5
f 3 7 10
f 3 10 8
f 4 8 10
f 4 10 9
f 4 9 6
f 5 6 9
f 5 9 7
f 7 9 10

