# https://github.com/mikedh/trimesh
v -0.02047254 0.00837279 0.00207379
v 0.00345158 0.02251064 0.00204934
v -0.01292710 0.01780382 0.00205749
v -0.04756612 0.02157102 0.00134062
v -0.04685346 0.00837279 0.00156057
v -0.02047254 -0.00857524 0.00205749
v -0.01481502 -0.01611832 0.00206565
v -0.00350623 -0.02176476 0.00206565
v 0.00664604 -0.02140805 0.00206565
v 0.00358911 0.04377397 -0.00217860
v -0.03307537 0.03911065 0.00028159
v -0.04487177 0.03216788 -0.00008500
v -0.05096063 0.02345896 -0.00188533
v -0.05326115 0.00350067 -0.00353904
v -0.04922274 -0.02487074 -0.00108699
v -0.00945132 -0.04447233 -0.00210528
v 0.00354535 -0.04438533 -0.00214602
v 0.00737121 -0.04249738 -0.03789216
v 0.00682733 0.03800573 -0.07730417
v -0.00345622 0.03821453 -0.08112480
v -0.01105168 0.04440909 -0.00229265
v -0.02564870 0.04320845 -0.00330279
v -0.04345895 0.03620478 -0.00872826
v -0.04927901 0.02917500 -0.01037382
v -0.05250473 0.02334586 -0.02663392
v -0.05302985 0.01765592 -0.01162021
v -0.05464896 0.00083840 -0.01485431
v -0.05309861 -0.01081119 -0.00494021
v -0.05260475 -0.02010302 -0.01155504
v -0.04969785 -0.02922085 -0.01320060
v -0.04083961 -0.03700754 -0.00366124
v -0.02897445 -0.04261919 -0.00295251
v -0.02242298 -0.03861708 -0.08114924
v -0.00731334 -0.03909560 -0.08110851
v 0.00737121 -0.04111404 -0.05322358
v 0.00718992 -0.03983511 -0.06695831
v 0.00611468 -0.03870408 -0.07928373
v -0.03074985 0.03727490 -0.08114924
v -0.01857211 0.03816233 -0.08113295
v -0.04185234 0.03475184 -0.08114924
v -0.04899769 0.02975792 -0.07824914
v -0.04912272 0.03016683 -0.02239783
v -0.05093563 0.02722616 -0.02827948
v -0.05239221 0.02501630 -0.04053158
v -0.05476149 0.01803873 -0.06055529
v -0.05507406 0.01073055 -0.02969695
v -0.05564293 -0.00574766 -0.03394119
v -0.05483650 -0.00787052 -0.02121660
v -0.05596801 0.00422278 -0.04022202
v -0.05509281 -0.01329075 -0.03535051
v -0.05526160 -0.01799757 -0.05654729
v -0.05300484 -0.02476634 -0.04995690
v -0.05221717 -0.02684569 -0.05466548
v -0.04869137 -0.03111750 -0.01509055
v -0.04852884 -0.03159601 -0.07920227
v -0.03744510 -0.03651163 -0.08114924
v -0.05057930 0.00645874 -0.08114924
v -0.05260475 0.02531211 -0.06673021
v -0.05251723 0.02536431 -0.05047827
v -0.05649313 -0.00457314 -0.05783441
v -0.05634309 0.00724176 -0.05320729
v -0.05605553 -0.00780962 -0.04528904
v -0.05057305 -0.01142891 -0.08114924
v -0.05154201 -0.02735030 -0.06536163
f 1 2 3
f 1 3 4
f 1 4 5
f 1 5 6
f 1 6 7
f 1 7 8
f 1 8 9
f 1 9 2
f 2 10 11
f 2 11 4
f 2 4 3
f 2 9 10
f 4 11 12
f 4 12 13
f 4 13 14
f 4 14 15
f 4 15 5
f 5 15 7
f 5 7 6
f 7 15 8
f 8 15 16
f 8 16 17
f 8 17 9
f 9 17 18
f 9 18 19
f 9 19 10
f 10 19 20
f 10 20 21
f 10 21 11
f 11 21 22
f 11 22 23
f 11 23 12
f 12 23 24
f 12 24 13
f 13 25 26
f 13 26 14
f 13 24 25
f 14 26 27
f 14 27 28
f 14 28 15
f 15 28 29
f 15 29 30
f 15 30 31
f 15 31 32
f 15 32 16
f 16 32 33
f 16 33 34
f 16 34 18
f 16 18 17
f 18 34 35
f 18 35 19
f 19 35 36
f 19 36 37
f 19 37 20
f 20 38 39
f 20 39 21
f 20 37 34
f 20 34 33
f 20 33 38
f 21 39 38
f 21 38 22
f 22 38 40
f 22 40 23
f 23 40 41
f 23 41 42
f 23 42 24
f 24 42 43
f 24 43 25
f 25 43 44
f 25 44 45
f 25 45 46
f 25 46 26
f 26 46 27
f 27 47 48
f 27 48 28
f 27 46 49
f 27 49 47
f 28 48 29
f 29 50 51
f 29 51 52
f 29 52 30
f 29 48 50
f 30 53 54
f 30 54 31
f 30 52 53
f 31 54 55
f 31 55 32
f 32 55 56
f 32 56 33
f 33 56 63
f 33 63 57
f 33 57 40
f 33 40 38
f 34 37 36
f 34 36 35
f 40 57 41
f 41 57 58
f 41 58 42
f 42 58 59
f 42 59 43
f 43 59 44
f 44 59 45
f 45 59 58
f 45 58 57
f 45 57 60
f 45 60 61
f 45 61 46
f 46 61 49
f 47 62 48
f 47 49 62
f 48 62 50
f 49 61 60
f 49 60 62
f 50 62 51
f 51 62 60
f 51 60 63
f 51 63 55
f 51 55 64
f 51 64 53
f 51 53 52
f 53 64 55
f 53 55 54
f 55 63 56
f 57 63 60

