# https://github.com/mikedh/trimesh
v 0.05159650 -0.02143581 -0.05213684
v 0.04180633 -0.02002241 -0.03861401
v 0.04518932 -0.03551728 -0.04148626
v 0.04794868 -0.03695217 -0.05472963
v 0.04799994 -0.03684951 -0.06638938
v 0.05159650 -0.02050707 -0.08252051
v 0.03139252 -0.01475797 -0.09334188
v -0.03021042 -0.01475797 -0.09331083
v 0.00320945 -0.01992452 -0.04692023
v -0.01461106 -0.03647228 -0.04797597
v 0.03567251 -0.03800267 -0.04875225
v 0.03715044 -0.03818173 -0.06207325
v 0.04614612 -0.03717182 -0.07922908
v 0.04497574 -0.03725299 -0.09267428
v 0.04508680 -0.03673729 -0.10762547
v 0.04244704 -0.02822108 -0.17264683
v 0.03495491 -0.02034472 -0.19722391
v 0.03089703 -0.01466725 -0.12156749
v -0.03567788 -0.02545158 -0.07736600
v -0.02509321 -0.03115293 -0.05212132
v -0.03021042 -0.01466725 -0.12156749
v -0.03466981 -0.03444052 -0.06848534
v -0.01312459 -0.03854224 -0.05948047
v 0.02384058 -0.03829633 -0.05171765
v 0.02420793 -0.03846107 -0.06612544
v 0.03419459 -0.03837273 -0.07832859
v 0.03492074 -0.03834169 -0.09314005
v 0.03567251 -0.03817696 -0.10498611
v 0.03959371 -0.03708826 -0.12015466
v 0.04213096 -0.03507321 -0.14348969
v 0.04066158 -0.03274778 -0.16038158
v 0.03027340 -0.03144182 -0.17565880
v 0.02365264 -0.02594818 -0.19722391
v -0.01690910 -0.02303305 -0.19722391
v -0.02772443 -0.02012507 -0.17000747
v -0.03554973 -0.02545158 -0.09228614
v -0.03459293 -0.03642214 -0.08686769
v -0.01719956 -0.03873324 -0.07573581
v -0.00277059 -0.03896961 -0.08424386
v 0.00609696 -0.03871653 -0.06649805
v 0.00903572 -0.03878099 -0.07832859
v 0.02087619 -0.03870937 -0.09689725
v 0.02384058 -0.03859238 -0.10793598
v 0.02368681 -0.03835124 -0.11962678
v 0.02975228 -0.03770423 -0.13158153
v 0.02530996 -0.03583959 -0.15620518
v 0.01126542 -0.03286477 -0.17300392
v 0.01199157 -0.02673606 -0.19722391
v -0.01027980 -0.03121262 -0.17674560
v -0.02781840 -0.02656416 -0.15738513
v -0.00450480 -0.02659520 -0.19722391
v -0.02142830 -0.03777824 -0.12217299
v -0.02517010 -0.03800028 -0.10683366
v -0.00572643 -0.03901497 -0.10793598
v -0.00575206 -0.03905794 -0.09618308
v 0.00607987 -0.03891230 -0.09169616
v 0.01052218 -0.03887411 -0.10793598
v 0.01221368 -0.03838944 -0.12634938
v 0.00609696 -0.03752039 -0.14342759
v 0.02457527 -0.03703096 -0.14415729
v 0.00646430 -0.03606163 -0.15670201
v -0.00593146 -0.03706199 -0.14852000
v -0.01412411 -0.03768036 -0.13654973
v -0.00432539 -0.03882874 -0.12003045
f 1 2 3
f 1 3 4
f 1 4 5
f 1 5 6
f 1 6 7
f 1 7 2
f 2 7 8
f 2 8 9
f 2 9 10
f 2 10 3
f 3 10 11
f 3 11 4
f 4 12 13
f 4 13 5
f 4 11 12
f 5 13 14
f 5 14 15
f 5 15 6
f 6 15 16
f 6 16 17
f 6 17 18
f 6 18 7
f 7 18 8
f 8 19 20
f 8 20 9
f 8 18 21
f 8 21 19
f 9 20 10
f 10 20 22
f 10 22 23
f 10 23 24
f 10 24 11
f 11 24 12
f 12 24 25
f 12 25 26
f 12 26 27
f 12 27 13
f 13 27 14
f 14 27 28
f 14 28 15
f 15 29 30
f 15 30 16
f 15 28 29
f 16 30 31
f 16 31 32
f 16 32 33
f 16 33 17
f 17 33 48
f 17 48 51
f 17 51 34
f 17 34 35
f 17 35 21
f 17 21 18
f 19 22 20
f 19 21 36
f 19 36 37
f 19 37 22
f 21 35 36
f 22 37 23
f 23 37 38
f 23 38 39
f 23 39 40
f 23 40 24
f 24 40 25
f 25 40 41
f 25 41 42
f 25 42 26
f 26 42 27
f 27 42 43
f 27 43 28
f 28 43 44
f 28 44 45
f 28 45 29
f 29 45 30
f 30 45 46
f 30 46 31
f 31 46 32
f 32 47 48
f 32 48 33
f 32 46 47
f 34 49 50
f 34 50 35
f 34 51 49
f 35 50 37
f 35 37 36
f 37 50 52
f 37 52 53
f 37 53 38
f 38 53 54
f 38 54 55
f 38 55 39
f 39 55 56
f 39 56 41
f 39 41 40
f 41 56 42
f 42 56 57
f 42 57 43
f 43 57 44
f 44 57 58
f 44 58 45
f 45 58 59
f 45 59 60
f 45 60 46
f 46 61 47
f 46 60 59
f 46 59 61
f 47 49 51
f 47 51 48
f 47 61 49
f 49 61 62
f 49 62 63
f 49 63 52
f 49 52 50
f 52 63 64
f 52 64 53
f 53 64 54
f 54 64 57
f 54 57 55
f 55 57 56
f 57 64 58
f 58 64 59
f 59 64 62
f 59 62 61
f 62 64 63

