# https://github.com/mikedh/trimesh
v -0.01642661 -0.01976268 -0.04277933
v -0.00153785 -0.01976268 -0.04277933
v -0.02023392 -0.01976268 -0.04277454
v -0.02023209 -0.00936292 -0.04277933
v -0.00153419 -0.00936292 -0.04277933
v -0.00153785 -0.01976268 0.00137094
v -0.02023392 -0.00936292 -0.04277454
v -0.02023392 -0.01976268 0.00612492
v -0.02023209 0.00672026 -0.04277933
v -0.00153419 0.00672026 -0.04277933
v -0.00153419 -0.00936292 0.00132785
v -0.00153419 0.00672026 0.00132785
v -0.01642844 -0.01528230 0.00612492
v -0.01642844 -0.01976268 0.00612492
v -0.02023392 -0.00936292 0.00366415
v -0.02023392 -0.00973629 0.00612492
v -0.02023209 0.00672026 0.00196938
v -0.02023392 -0.00960665 0.00554563
f 1 2 6
f 1 6 14
f 1 14 8
f 1 8 3
f 1 3 4
f 1 4 9
f 1 9 10
f 1 10 5
f 1 5 2
f 2 5 11
f 2 11 6
f 3 7 9
f 3 9 4
f 3 8 16
f 3 16 18
f 3 18 15
f 3 15 7
f 5 10 12
f 5 12 11
f 6 11 12
f 6 12 13
f 6 13 14
f 7 15 17
f 7 17 9
f 8 14 13
f 8 13 16
f 9 17 12
f 9 12 10
f 12 17 16
f 12 16 13
f 15 18 17
f 16 17 18

