# https://github.com/mikedh/trimesh
v 0.05069188 0.00788951 -0.18069361
v 0.05060806 0.00864397 -0.18069361
v 0.05022346 0.00788951 -0.12665865
v 0.05022346 0.00170594 -0.13146009
v 0.05022346 0.00170594 -0.18487793
v 0.05022346 0.00292213 -0.18487793
v 0.03858456 0.01031283 -0.24698050
v 0.05058587 0.00884013 -0.18069361
v 0.03491612 0.00788951 -0.13797739
v 0.03491612 0.00505273 -0.13985883
v 0.03869057 -0.00510232 -0.14500645
v 0.05035906 0.01000954 -0.18069361
v 0.05029989 0.01031283 -0.18069361
v 0.02550589 0.01031283 -0.18069361
v 0.04541111 -0.00510232 -0.14500645
v 0.03939812 0.00170745 -0.24106525
v 0.03859442 0.00884013 -0.24698050
v 0.04541111 -0.00510232 -0.17810474
v 0.03724341 0.00884013 -0.25291080
v 0.03716205 0.01031283 -0.25301616
v 0.02550589 0.00788951 -0.18069361
v 0.03491612 0.00361322 -0.14103285
v 0.03869057 -0.00510232 -0.15692725
v 0.03131671 0.00170745 -0.20491150
v 0.02550589 0.01031283 -0.28040992
v 0.03774388 0.00170745 -0.24673968
v 0.03014567 0.01031283 -0.28040992
v 0.04240092 -0.00510232 -0.17810474
v 0.03131671 0.00170745 -0.25375368
v 0.03334816 0.00170745 -0.25337739
v 0.03750967 0.00170745 -0.24753741
v 0.02550589 0.00788951 -0.26242335
v 0.02550589 0.00925508 -0.28040992
v 0.02829666 0.00954932 -0.28040992
v 0.02550589 0.00829390 -0.27067160
v 0.02550589 0.00881297 -0.27654169
v 0.02597184 0.00915247 -0.28040992
v 0.02681499 0.00896688 -0.28040992
f 1 2 3
f 1 3 4
f 1 4 5
f 1 5 6
f 1 6 7
f 1 7 2
f 2 7 8
f 2 8 3
f 3 9 10
f 3 10 11
f 3 11 4
f 3 8 12
f 3 12 13
f 3 13 14
f 3 14 9
f 4 11 15
f 4 15 18
f 4 18 5
f 5 16 17
f 5 17 6
f 5 18 16
f 6 17 7
f 7 17 19
f 7 19 20
f 7 20 27
f 7 27 25
f 7 25 14
f 7 14 13
f 7 13 12
f 7 12 8
f 9 14 21
f 9 21 10
f 10 22 11
f 10 21 22
f 11 23 28
f 11 28 18
f 11 18 15
f 11 22 21
f 11 21 24
f 11 24 29
f 11 29 23
f 14 25 33
f 14 33 36
f 14 36 35
f 14 35 32
f 14 32 21
f 16 26 27
f 16 27 19
f 16 19 17
f 16 18 26
f 18 28 29
f 18 29 30
f 18 30 31
f 18 31 26
f 19 27 20
f 21 32 29
f 21 29 24
f 23 29 28
f 25 27 34
f 25 34 38
f 25 38 37
f 25 37 33
f 26 31 27
f 27 31 30
f 27 30 34
f 29 32 35
f 29 35 36
f 29 36 33
f 29 33 37
f 29 37 38
f 29 38 30
f 30 38 34

