# https://github.com/mikedh/trimesh
v 0.01561559 -0.02949451 0.00344541
v 0.01638809 -0.02950487 0.00344541
v 0.01561559 -0.02858230 0.00623492
v 0.01561559 -0.02226943 0.00344541
v 0.01917784 -0.02948414 0.00344541
v 0.01917784 -0.02859267 0.00623492
v 0.01917784 -0.02782559 0.00813919
v 0.01561559 -0.02776857 0.00805558
v 0.01569065 -0.02226424 0.00344541
v 0.01561559 0.02344448 0.00346318
v 0.02264320 -0.02939085 0.00344541
v 0.02264320 -0.02847864 0.00623492
v 0.02264320 -0.02778412 0.00809216
v 0.02729869 -0.02614112 0.01056917
v 0.02376237 -0.02592861 0.01056917
v 0.02031886 -0.02537922 0.01056917
v 0.01561559 -0.02601673 0.00932962
v 0.02827729 -0.02176150 0.00344541
v 0.01561559 0.02344448 0.00929408
v 0.02616996 0.02344448 0.00346318
v 0.02606624 -0.02920944 0.00344541
v 0.02584786 -0.02818321 0.00645336
v 0.02451167 -0.02771156 0.00798869
v 0.02955752 -0.02654539 0.00968079
v 0.02955752 -0.02606337 0.01055976
v 0.02590791 -0.01884866 0.01221737
v 0.01973061 -0.02522891 0.01056917
v 0.01561559 -0.02597008 0.00936306
v 0.02258860 -0.01884866 0.01207209
v 0.02955752 -0.01919074 0.00937142
v 0.02827729 -0.02904877 0.00344541
v 0.02945243 0.02343930 0.00914985
v 0.01984526 0.01566482 0.01209404
v 0.01997628 0.02344448 0.01112414
v 0.02616996 0.02344448 0.01267201
v 0.02827729 -0.02816248 0.00595691
v 0.02682646 -0.02762863 0.00775666
v 0.02827729 -0.02755607 0.00758212
v 0.02955752 -0.02667496 0.00937142
v 0.02955752 -0.02588715 0.01056917
v 0.02945243 0.02269813 0.01412164
v 0.02264320 -0.01556265 0.01249852
v 0.02182019 -0.01884866 0.01198012
v 0.02020148 -0.01813859 0.01187769
v 0.01984253 -0.01556265 0.01209822
v 0.01984253 -0.00641468 0.01209927
v 0.01984253 -0.00168780 0.01209927
v 0.01984253 0.00524703 0.01209822
v 0.01984253 0.00871963 0.01209718
v 0.01984253 0.01139404 0.01209613
v 0.02955752 -0.01911818 0.00937560
v 0.02955752 -0.01900933 0.00970169
v 0.02945243 0.02343930 0.01361787
v 0.01984389 0.01219222 0.01209613
v 0.02144486 0.02344448 0.01166971
v 0.02611537 0.02344448 0.01266679
v 0.02955752 -0.01918037 0.01056917
v 0.02945243 0.02341856 0.01363251
f 1 2 3
f 1 3 8
f 1 8 17
f 1 17 28
f 1 28 19
f 1 19 10
f 1 10 4
f 1 4 9
f 1 9 18
f 1 18 31
f 1 31 21
f 1 21 11
f 1 11 5
f 1 5 2
f 2 5 6
f 2 6 3
f 3 6 7
f 3 7 8
f 4 10 9
f 5 11 6
f 6 12 13
f 6 13 7
f 6 11 12
f 7 13 14
f 7 14 8
f 8 14 15
f 8 15 16
f 8 16 17
f 9 10 18
f 10 19 34
f 10 34 55
f 10 55 56
f 10 56 35
f 10 35 20
f 10 20 18
f 11 21 12
f 12 22 23
f 12 23 13
f 12 21 22
f 13 23 24
f 13 24 25
f 13 25 14
f 14 25 26
f 14 26 15
f 15 26 16
f 16 27 28
f 16 28 17
f 16 26 29
f 16 29 27
f 18 30 39
f 18 39 31
f 18 20 32
f 18 32 30
f 19 33 34
f 19 28 33
f 20 35 53
f 20 53 32
f 21 31 22
f 22 31 36
f 22 36 37
f 22 37 23
f 23 37 24
f 24 37 38
f 24 38 39
f 24 39 30
f 24 30 51
f 24 51 52
f 24 52 57
f 24 57 40
f 24 40 25
f 25 40 41
f 25 41 26
f 26 42 29
f 26 41 42
f 27 29 43
f 27 43 44
f 27 44 28
f 28 44 45
f 28 45 46
f 28 46 47
f 28 47 48
f 28 48 49
f 28 49 50
f 28 50 33
f 29 42 44
f 29 44 43
f 30 32 51
f 31 39 36
f 32 52 51
f 32 53 52
f 33 54 41
f 33 41 55
f 33 55 34
f 33 50 54
f 35 56 53
f 36 39 38
f 36 38 37
f 40 57 41
f 41 58 55
f 41 54 49
f 41 49 48
f 41 48 47
f 41 47 46
f 41 46 45
f 41 45 42
f 41 57 58
f 42 45 44
f 49 54 50
f 52 53 57
f 53 58 57
f 53 56 55
f 53 55 58

