# https://github.com/mikedh/trimesh
v -0.05674521 -0.00332003 0.00579270
v -0.05508189 -0.01079428 0.00602064
v -0.05307020 -0.00668158 0.01048537
v -0.05043007 0.00005217 0.01422978
v -0.05578548 0.00356821 0.00728195
v -0.05544734 0.01016344 0.00591123
v -0.04653647 0.01583172 -0.00819413
v -0.04755086 -0.01916352 0.00766490
v -0.05207972 -0.01472052 0.00750686
v -0.04796071 -0.01149216 0.01476469
v -0.04994508 -0.00514731 0.01455194
v -0.04638278 0.00005217 0.01804105
v -0.04629398 0.00524099 0.01796507
v -0.05032761 0.00524099 0.01412948
v -0.05246908 0.00917789 0.01072851
v -0.05247250 0.01465971 0.00724548
v -0.04582948 0.02631058 -0.00563201
v -0.02933975 0.03033805 -0.00791756
v -0.02926803 0.02183030 -0.00819413
v -0.03117726 -0.02408597 0.01086224
v -0.04155335 -0.02035152 0.01142451
v -0.04309030 -0.01682482 0.01499264
v -0.04126987 -0.01093279 0.01960629
v -0.04519079 -0.00707048 0.01840881
v -0.04078829 -0.00341060 0.02080985
v -0.04165923 0.00345100 0.02051200
v -0.03762218 0.00856524 0.02114721
v -0.04638619 0.01078674 0.01657915
v -0.04902291 0.01538423 0.01128166
v -0.04585339 0.01998704 0.00851894
v -0.04274875 0.02463780 0.00261056
v -0.04047408 0.02837759 -0.00579613
v -0.02419611 0.02472837 0.01133941
v -0.02185312 0.01472897 0.01021487
v -0.03462002 0.02960288 -0.00604231
v -0.02903919 0.02933118 -0.00243163
v -0.02409364 -0.02337744 0.01277699
v -0.03177496 -0.02040479 0.01523578
v -0.03638922 -0.02183784 0.01208404
v -0.03634481 -0.01726699 0.01742104
v -0.03634481 -0.01207817 0.02065788
v -0.03605450 -0.00666027 0.02180066
v -0.03548754 0.00005217 0.02212282
v -0.03114652 0.00524632 0.02269421
v -0.03122849 0.01036588 0.02196782
v -0.03474639 0.01633782 0.01869754
v -0.04318252 0.01693981 0.01494401
v -0.03820281 0.02057305 0.01328456
v -0.03444242 0.02494679 0.00811472
v -0.03452097 0.02797271 0.00050129
v -0.02185995 0.01564527 0.01656395
v -0.02877279 0.02747727 0.00477149
v -0.03188426 0.02035996 0.01546373
v -0.02395703 0.02021612 0.01599257
v -0.02185995 0.00005749 0.01695602
v -0.02378284 -0.01748008 0.01723260
v -0.03095184 -0.01603638 0.01916255
v -0.03118409 -0.01022426 0.02194350
v -0.03027900 -0.00211606 0.02285529
v -0.02523098 0.01028064 0.02199213
v -0.02488944 0.00362681 0.02246322
v -0.02766278 0.01657222 0.01909265
v -0.02488944 -0.00341060 0.02246322
v -0.02486553 -0.00938787 0.02207419
f 1 2 3
f 1 3 4
f 1 4 5
f 1 5 6
f 1 6 7
f 1 7 2
f 2 8 9
f 2 9 10
f 2 10 3
f 2 7 8
f 3 11 4
f 3 10 11
f 4 12 13
f 4 13 14
f 4 14 5
f 4 11 12
f 5 14 15
f 5 15 6
f 6 15 16
f 6 16 17
f 6 17 7
f 7 17 18
f 7 18 19
f 7 19 20
f 7 20 8
f 8 20 21
f 8 21 22
f 8 22 9
f 9 22 10
f 10 23 24
f 10 24 11
f 10 22 23
f 11 24 12
f 12 24 25
f 12 25 26
f 12 26 13
f 13 27 28
f 13 28 14
f 13 26 27
f 14 28 15
f 15 28 29
f 15 29 16
f 16 29 30
f 16 30 17
f 17 30 31
f 17 31 32
f 17 32 18
f 18 33 34
f 18 34 19
f 18 32 35
f 18 35 36
f 18 36 33
f 19 34 37
f 19 37 20
f 20 37 38
f 20 38 39
f 20 39 21
f 21 39 22
f 22 39 40
f 22 40 23
f 23 40 41
f 23 41 42
f 23 42 25
f 23 25 24
f 25 42 43
f 25 43 26
f 26 43 27
f 27 43 44
f 27 44 45
f 27 45 46
f 27 46 28
f 28 46 47
f 28 47 29
f 29 47 30
f 30 47 48
f 30 48 31
f 31 48 49
f 31 49 50
f 31 50 32
f 32 50 35
f 33 51 34
f 33 36 52
f 33 52 49
f 33 49 53
f 33 53 54
f 33 54 51
f 34 55 37
f 34 51 55
f 35 50 36
f 36 50 52
f 37 55 56
f 37 56 57
f 37 57 38
f 38 40 39
f 38 57 40
f 40 57 41
f 41 57 58
f 41 58 42
f 42 59 43
f 42 58 59
f 43 59 44
f 44 60 45
f 44 59 61
f 44 61 60
f 45 60 62
f 45 62 46
f 46 62 53
f 46 53 48
f 46 48 47
f 48 53 49
f 49 52 50
f 51 60 61
f 51 61 55
f 51 54 60
f 53 62 54
f 54 62 60
f 55 61 63
f 55 63 64
f 55 64 56
f 56 64 57
f 57 64 58
f 58 64 59
f 59 64 63
f 59 63 61

