# https://github.com/mikedh/trimesh
v 0.01149650 0.00405619 -0.01455446
v 0.01149650 -0.00394118 -0.01455446
v 0.01130621 0.00640641 -0.01647524
v 0.01136964 0.00405619 0.00399720
v 0.01130621 -0.00629013 -0.01647524
v 0.01136964 -0.00394118 0.00399720
v 0.00991075 0.00655656 -0.01984027
v 0.00614371 0.00605648 0.00576769
v 0.00816642 0.00605648 0.00209475
v 0.00991075 0.00405619 0.00817233
v 0.00991075 -0.00644028 -0.01984027
v 0.00783870 -0.00594148 0.00310279
v 0.00991075 -0.00394118 0.00817233
v 0.00678154 0.00655656 -0.02296704
v 0.00539313 0.00655783 -0.01497600
v 0.00361356 0.00605648 0.00768847
v 0.00678154 0.00405619 0.01129910
v 0.00678154 -0.00644028 -0.02296704
v 0.00537198 -0.00594148 0.00649348
v 0.00513941 -0.00644155 -0.01494668
v 0.00678154 -0.00394118 0.01129910
v 0.00260926 0.00655656 -0.02442961
v -0.00500586 0.00655656 -0.02455424
v -0.01313547 0.00655783 -0.00975617
v 0.00052664 0.00605648 0.00841426
v 0.00372280 0.00405619 0.01263704
v 0.00260926 -0.00644028 -0.02442961
v 0.00157676 -0.00594148 0.00827863
v -0.01699060 -0.00644028 -0.01011540
v -0.00500586 -0.00644028 -0.02455791
v -0.01276546 -0.00644028 -0.00983682
v 0.00372280 -0.00394118 0.01263704
v -0.01749451 0.00455626 -0.02455791
v -0.01739585 0.00645603 -0.02265546
v -0.01819577 0.00650693 -0.01732566
v -0.01696946 0.00655656 -0.01008241
v -0.00235942 0.00405619 0.01241344
v 0.00101293 0.00405619 0.01288997
v -0.00359278 0.00605648 0.00762615
v 0.00101293 -0.00394118 0.01288997
v -0.00159826 -0.00594148 0.00834828
v -0.02449648 -0.00585623 -0.01710939
v -0.01849882 -0.00637539 -0.01755293
v -0.00452309 -0.00594148 0.00711663
v -0.00687000 -0.00594148 0.00499424
v -0.01581010 -0.00394118 0.00309546
v -0.01739585 -0.00633976 -0.02265546
v -0.01749451 -0.00444126 -0.02455791
v -0.02449648 0.00094122 -0.02342157
v -0.02449648 0.00431577 -0.02151545
v -0.02449648 0.00597250 -0.01710939
v -0.01581010 0.00405619 0.00309546
v -0.00619694 0.00605648 0.00581534
v -0.00235942 -0.00394118 0.01241344
v -0.00501996 0.00405619 0.01120745
v -0.01380148 0.00405619 0.00523251
v -0.02449648 -0.00356199 -0.01300024
v -0.02449648 -0.00507876 -0.02052207
v -0.00501996 -0.00394118 0.01120745
v -0.01380148 -0.00394118 0.00523251
v -0.02449648 0.00147056 -0.01187490
v -0.02449648 -0.00251476 -0.02290105
v -0.02449648 0.00469496 -0.01385433
f 1 2 5
f 1 5 3
f 1 3 4
f 1 4 6
f 1 6 2
f 2 6 5
f 3 5 11
f 3 11 7
f 3 7 8
f 3 8 9
f 3 9 4
f 4 9 10
f 4 10 13
f 4 13 6
f 5 6 12
f 5 12 11
f 6 13 12
f 7 11 18
f 7 18 14
f 7 14 15
f 7 15 8
f 8 16 17
f 8 17 10
f 8 10 9
f 8 15 16
f 10 17 21
f 10 21 13
f 11 12 19
f 11 19 20
f 11 20 18
f 12 13 19
f 13 21 19
f 14 18 27
f 14 27 22
f 14 22 15
f 15 22 23
f 15 23 24
f 15 24 16
f 16 25 26
f 16 26 17
f 16 24 25
f 17 26 32
f 17 32 21
f 18 20 27
f 19 21 28
f 19 28 20
f 20 29 30
f 20 30 27
f 20 28 31
f 20 31 29
f 21 32 28
f 22 27 30
f 22 30 23
f 23 30 33
f 23 33 34
f 23 34 35
f 23 35 36
f 23 36 24
f 24 36 25
f 25 37 38
f 25 38 26
f 25 36 39
f 25 39 37
f 26 38 40
f 26 40 32
f 28 32 40
f 28 40 41
f 28 41 31
f 29 42 43
f 29 43 30
f 29 31 41
f 29 41 44
f 29 44 45
f 29 45 46
f 29 46 42
f 30 47 48
f 30 48 33
f 30 43 47
f 33 48 49
f 33 49 50
f 33 50 34
f 34 50 51
f 34 51 35
f 35 51 36
f 36 51 52
f 36 52 53
f 36 53 39
f 37 54 40
f 37 40 38
f 37 39 55
f 37 55 59
f 37 59 54
f 39 53 56
f 39 56 55
f 40 54 41
f 41 54 44
f 42 46 57
f 42 57 61
f 42 61 63
f 42 63 51
f 42 51 50
f 42 50 49
f 42 49 62
f 42 62 58
f 42 58 47
f 42 47 43
f 44 54 59
f 44 59 60
f 44 60 45
f 45 60 46
f 46 60 56
f 46 56 52
f 46 52 61
f 46 61 57
f 47 58 48
f 48 58 62
f 48 62 49
f 51 63 52
f 52 56 53
f 52 63 61
f 55 56 60
f 55 60 59

