# https://github.com/mikedh/trimesh
v 0.02330481 -0.02442491 0.02066704
v 0.02323164 -0.02436473 0.01340539
v 0.02450496 -0.02327637 0.01945948
v 0.03042760 -0.01356139 0.02983481
v 0.02437323 -0.02017680 0.03108028
v 0.00918121 0.02057395 0.02914168
v 0.00888361 0.02057395 0.00390731
v 0.02211443 -0.01382721 -0.01884152
v 0.02389757 -0.02101439 -0.00467020
v 0.02420980 -0.02300052 0.00561307
v 0.02721503 -0.01999123 0.01824649
v 0.03295716 -0.00609836 0.02877345
v 0.02886888 -0.00898727 0.03271564
v 0.02593927 -0.01504095 0.03286726
v 0.03207657 -0.01049192 0.01824649
v 0.01325486 0.02057395 0.03250445
v 0.02290233 0.02680317 0.01969774
v 0.02386586 0.02467159 0.00074489
v 0.02411710 0.02332745 -0.00467020
v 0.02369754 0.02066924 -0.01082176
v 0.02344873 0.01604497 -0.01612314
v 0.02212419 0.00902832 -0.02170611
v 0.02209736 0.00365674 -0.02242631
v 0.02209736 -0.00410721 -0.02225303
v 0.02884693 -0.00667514 -0.00961419
v 0.02724674 -0.01366671 -0.00882359
v 0.02361705 -0.01800510 -0.01153655
v 0.02866886 -0.01453941 -0.00350054
v 0.02820783 -0.01724275 0.00168712
v 0.02812977 -0.01811544 0.00705348
v 0.03380360 0.00249817 0.02429516
v 0.03296936 0.00580337 0.02962362
v 0.03264005 0.00069260 0.03076620
v 0.03370359 -0.00232672 0.02036380
v 0.03046907 0.01157618 0.03221745
v 0.02836150 0.00915371 0.03289434
v 0.02075817 0.01979154 0.03288892
v 0.03161798 -0.01060226 0.00539646
v 0.03333282 -0.00414232 0.00916537
v 0.02514162 0.02414497 0.02929871
v 0.02710770 0.02241463 0.02257857
v 0.02579535 0.02370862 0.01666529
v 0.02425127 0.02502268 0.00930616
v 0.02785413 0.01964609 0.00057161
v 0.02809562 0.02019779 0.00916537
v 0.02760776 0.01607005 -0.00787594
v 0.02759068 0.01025711 -0.01168276
v 0.02815904 0.00491563 -0.01179106
v 0.02805415 -0.00111799 -0.01207806
v 0.03227172 -0.00293359 -0.00229839
v 0.03123989 -0.00866127 -0.00243918
v 0.03234246 0.01154609 0.02656409
v 0.03374750 0.00128944 0.01400647
v 0.03343283 0.00310504 0.00675024
v 0.03220342 0.01083389 0.00765456
v 0.02893718 0.01714336 0.03001892
v 0.03299375 -0.00414232 0.00313295
v 0.03009829 0.01693271 0.01340539
v 0.02781510 0.02102534 0.01582053
v 0.03020806 0.01353222 -0.00305650
v 0.03026661 0.00793996 -0.00724779
v 0.03227660 0.00264863 -0.00236879
v 0.03141552 0.01399364 0.01582594
v 0.03205218 0.00903334 -0.00072801
f 1 2 3
f 1 3 4
f 1 4 5
f 1 5 6
f 1 6 7
f 1 7 2
f 2 7 8
f 2 8 9
f 2 9 10
f 2 10 3
f 3 11 4
f 3 10 11
f 4 12 13
f 4 13 14
f 4 14 5
f 4 11 15
f 4 15 12
f 5 14 16
f 5 16 6
f 6 16 17
f 6 17 7
f 7 18 19
f 7 19 20
f 7 20 21
f 7 21 22
f 7 22 23
f 7 23 24
f 7 24 8
f 7 17 18
f 8 24 25
f 8 25 26
f 8 26 27
f 8 27 9
f 9 27 28
f 9 28 29
f 9 29 10
f 10 29 30
f 10 30 11
f 11 30 15
f 12 31 32
f 12 32 33
f 12 33 13
f 12 15 34
f 12 34 31
f 13 33 35
f 13 35 36
f 13 36 14
f 14 36 37
f 14 37 16
f 15 30 38
f 15 38 39
f 15 39 34
f 16 40 17
f 16 37 40
f 17 41 42
f 17 42 43
f 17 43 18
f 17 40 41
f 18 44 19
f 18 43 45
f 18 45 44
f 19 46 20
f 19 44 46
f 20 46 21
f 21 47 22
f 21 46 47
f 22 47 48
f 22 48 23
f 23 48 49
f 23 49 24
f 24 49 25
f 25 49 50
f 25 50 51
f 25 51 26
f 26 51 28
f 26 28 27
f 28 51 38
f 28 38 29
f 29 38 30
f 31 52 32
f 31 34 53
f 31 53 54
f 31 54 55
f 31 55 52
f 32 52 35
f 32 35 33
f 34 39 53
f 35 37 36
f 35 52 56
f 35 56 40
f 35 40 37
f 38 51 57
f 38 57 39
f 39 57 54
f 39 54 53
f 40 56 41
f 41 58 59
f 41 59 42
f 41 56 52
f 41 52 58
f 42 59 45
f 42 45 43
f 44 60 46
f 44 45 58
f 44 58 60
f 45 59 58
f 46 60 61
f 46 61 47
f 47 61 48
f 48 61 49
f 49 61 50
f 50 62 57
f 50 57 51
f 50 61 62
f 52 63 58
f 52 55 63
f 54 57 62
f 54 62 64
f 54 64 55
f 55 64 60
f 55 60 58
f 55 58 63
f 60 64 61
f 61 64 62

