# https://github.com/mikedh/trimesh
v 0.02549672 0.00170745 -0.08126560
v 0.02549672 0.00788966 -0.08126560
v 0.03030780 0.00170745 -0.08126560
v 0.02549672 0.00170745 -0.04186005
v -0.03559570 0.01031339 -0.07426317
v -0.03560400 0.01212329 -0.07426317
v 0.03101287 0.00788966 -0.08126560
v 0.04847378 0.01212329 -0.04364438
v 0.04360463 0.00170745 -0.05169459
v -0.02052375 0.01212329 -0.04213497
v -0.02047398 0.01031339 -0.04481664
v -0.02469612 0.01031339 -0.04706261
v -0.02502792 0.01031339 -0.04736345
v -0.02631364 0.01031339 -0.04861870
v -0.03484916 0.01031339 -0.06098966
v -0.03521414 0.01031339 -0.06165360
v -0.03552935 0.01031339 -0.06358316
v -0.03559570 0.01031339 -0.06784686
v 0.03151057 0.00170745 -0.04007055
v -0.03572013 0.01212329 -0.06589656
v 0.03174283 0.01212329 -0.07426317
v 0.04902124 0.01212329 -0.03992531
v 0.04534657 0.00170745 -0.04577623
v -0.02661226 0.01212329 -0.04550651
v 0.03272164 0.00170745 -0.03971783
v -0.01460944 0.01212329 -0.04063074
v -0.02496986 0.01042250 -0.04709891
v -0.02671180 0.01212329 -0.04560506
v -0.03526391 0.01212329 -0.06179884
v -0.03567866 0.01212329 -0.06358316
v -0.03521414 0.01195097 -0.06165360
v 0.04871433 0.01212329 -0.03744592
v 0.04347191 0.00170745 -0.04026765
v 0.04792631 0.01111179 -0.03656414
v 0.03735852 0.00170745 -0.03876861
v 0.03864424 0.01212329 -0.02827533
v -0.03467496 0.01212329 -0.06067845
v 0.04815856 0.01212329 -0.03639815
v 0.04219449 0.01212329 -0.02965507
v 0.04191245 0.01155126 -0.03006484
v 0.04220278 0.00170745 -0.03976452
v 0.03890139 0.00170745 -0.03858188
v 0.03895945 0.01212329 -0.02838426
f 1 2 7
f 1 7 3
f 1 3 9
f 1 9 23
f 1 23 33
f 1 33 41
f 1 41 42
f 1 42 35
f 1 35 25
f 1 25 19
f 1 19 4
f 1 4 18
f 1 18 5
f 1 5 6
f 1 6 2
f 2 6 21
f 2 21 7
f 3 7 8
f 3 8 9
f 4 10 11
f 4 11 12
f 4 12 13
f 4 13 14
f 4 14 15
f 4 15 16
f 4 16 17
f 4 17 18
f 4 19 10
f 5 18 20
f 5 20 6
f 6 20 30
f 6 30 29
f 6 29 37
f 6 37 28
f 6 28 24
f 6 24 10
f 6 10 26
f 6 26 36
f 6 36 43
f 6 43 39
f 6 39 38
f 6 38 32
f 6 32 22
f 6 22 8
f 6 8 21
f 7 21 8
f 8 22 23
f 8 23 9
f 10 24 12
f 10 12 11
f 10 19 25
f 10 25 26
f 12 24 27
f 12 27 13
f 13 27 14
f 14 24 28
f 14 28 15
f 14 27 24
f 15 28 16
f 16 29 30
f 16 30 17
f 16 28 31
f 16 31 29
f 17 30 20
f 17 20 18
f 22 32 23
f 23 32 34
f 23 34 33
f 25 35 36
f 25 36 26
f 28 37 31
f 29 31 37
f 32 38 34
f 33 34 39
f 33 39 40
f 33 40 41
f 34 38 39
f 35 42 36
f 36 42 43
f 39 43 40
f 40 43 41
f 41 43 42

