# https://github.com/mikedh/trimesh
v 0.04541325 -0.01948328 -0.13412611
v 0.04541325 -0.01482784 -0.13529609
v 0.04540585 -0.02247251 -0.13162336
v 0.04541325 -0.01948328 -0.18336723
v 0.04541325 -0.01119484 -0.13686286
v -0.03021158 -0.01948328 -0.12259921
v 0.03495978 -0.02247251 -0.13828719
v 0.04540585 -0.02247251 -0.17690687
v 0.03067326 0.00170407 -0.09328854
v 0.03122111 -0.00874760 -0.09328854
v 0.03139879 -0.01474500 -0.09328854
v -0.03021899 -0.01474500 -0.09328854
v 0.04541325 -0.01844190 -0.18679579
v 0.04541325 -0.00444954 -0.14500188
v -0.03021158 -0.01948328 -0.15900101
v 0.03495978 -0.02247251 -0.18513746
v 0.04456188 -0.02247251 -0.17761904
v 0.03495978 -0.02118262 -0.19722392
v 0.03863923 -0.02052229 -0.19722392
v 0.04295536 -0.01892472 -0.19722392
v 0.04526519 -0.01467636 -0.19722392
v 0.04541325 -0.01461956 -0.19633880
v 0.03089536 0.00170644 -0.12056446
v -0.03021899 0.00170407 -0.09328854
v 0.04541325 0.00170407 -0.15533845
v -0.03021899 -0.01474500 -0.11666790
v -0.03021158 -0.01184097 -0.16968348
v -0.02786473 -0.01948328 -0.16997852
v -0.03021899 -0.01465980 -0.12258904
v -0.02000242 -0.01948328 -0.19722392
v 0.03495978 -0.02156604 -0.19371396
v 0.04541325 -0.01348114 -0.19722392
v 0.03088055 0.00170644 -0.12150044
v -0.03021899 0.00170644 -0.12056446
v 0.04541325 0.00170407 -0.18006075
v 0.04540585 0.00170407 -0.19721375
v -0.03021158 -0.00638556 -0.17573688
v -0.02765744 -0.01482784 -0.17596071
v -0.03021899 0.00170644 -0.12258904
v -0.03021158 -0.00510750 -0.17628627
v -0.02134982 -0.01482784 -0.19722392
v 0.04541325 -0.00780089 -0.19722392
v 0.03085834 0.00170644 -0.12258904
v -0.02214938 0.00170407 -0.19721375
v -0.03019678 0.00170407 -0.17804633
v -0.03020418 0.00170407 -0.17041600
v -0.03021158 0.00170407 -0.15874667
v -0.03020418 -0.00010178 -0.17788355
v -0.03020418 -0.00107215 -0.17779199
v -0.03020418 -0.00293480 -0.17722226
v -0.02160153 -0.01240426 -0.19722392
v -0.02197170 -0.00780089 -0.19722392
v -0.02214197 -0.00300107 -0.19721375
v -0.02193468 -0.00892274 -0.19722392
f 1 2 3
f 1 3 8
f 1 8 4
f 1 4 13
f 1 13 22
f 1 22 32
f 1 32 42
f 1 42 35
f 1 35 25
f 1 25 14
f 1 14 5
f 1 5 2
f 2 5 3
f 3 6 7
f 3 7 16
f 3 16 17
f 3 17 8
f 3 5 9
f 3 9 10
f 3 10 11
f 3 11 12
f 3 12 6
f 4 8 13
f 5 14 9
f 6 12 26
f 6 26 15
f 6 15 16
f 6 16 7
f 8 17 18
f 8 18 19
f 8 19 20
f 8 20 21
f 8 21 22
f 8 22 13
f 9 23 34
f 9 34 24
f 9 24 12
f 9 12 11
f 9 11 10
f 9 14 25
f 9 25 23
f 12 24 34
f 12 34 39
f 12 39 29
f 12 29 26
f 15 27 28
f 15 28 16
f 15 26 29
f 15 29 27
f 16 30 31
f 16 31 17
f 16 28 30
f 17 31 18
f 18 31 30
f 18 30 41
f 18 41 51
f 18 51 54
f 18 54 52
f 18 52 42
f 18 42 32
f 18 32 21
f 18 21 20
f 18 20 19
f 21 32 22
f 23 33 43
f 23 43 39
f 23 39 34
f 23 25 35
f 23 35 36
f 23 36 33
f 27 29 37
f 27 37 38
f 27 38 28
f 28 38 30
f 29 39 40
f 29 40 37
f 30 38 37
f 30 37 41
f 33 36 43
f 35 42 36
f 36 42 52
f 36 52 44
f 36 44 39
f 36 39 43
f 37 40 41
f 39 44 45
f 39 45 46
f 39 46 47
f 39 47 40
f 40 47 48
f 40 48 49
f 40 49 50
f 40 50 41
f 41 50 49
f 41 49 51
f 44 52 53
f 44 53 45
f 45 48 46
f 45 53 48
f 46 48 47
f 48 53 54
f 48 54 49
f 49 54 51
f 52 54 53

