# https://github.com/mikedh/trimesh
v 0.07735857 0.02975835 -0.08971969
v 0.07643669 0.03046800 -0.10208458
v 0.07432632 0.03560946 -0.08464541
v 0.07675302 0.03184577 -0.06192785
v 0.07634632 0.03172717 -0.04451785
v 0.07494090 0.03060439 -0.01956935
v 0.03119245 0.02975440 -0.06073219
v 0.03119245 0.02975440 -0.11208731
v 0.03119245 0.02975835 -0.12278994
v 0.07292091 0.03233402 -0.11940709
v 0.06764272 0.03881373 -0.11860512
v 0.07003779 0.03942652 -0.09267968
v 0.07170530 0.03960245 -0.06723542
v 0.07409133 0.03492354 -0.03594408
v 0.07325080 0.03274716 -0.01117056
v 0.07297514 0.03109857 -0.00297591
v 0.03752810 0.03881571 0.02452431
v 0.03663785 0.04623041 0.00571451
v 0.03501101 0.04979049 -0.05090443
v 0.03329831 0.04573228 -0.12197339
v 0.07076987 0.03148997 0.00922859
v 0.06255884 0.03291716 0.02184136
v 0.04817486 0.03517063 0.02617199
v 0.05428003 0.04284823 -0.12226501
v 0.05688750 0.04410938 -0.10987096
v 0.06227867 0.04365869 -0.09636873
v 0.06786415 0.03984558 -0.10812121
v 0.06558206 0.04364683 -0.07144940
v 0.06883573 0.04196266 -0.05882204
v 0.06855104 0.04215638 -0.04708415
v 0.07090996 0.03796967 -0.01728010
v 0.06790030 0.03976652 -0.00366122
v 0.05393659 0.03808234 0.01945004
v 0.05213803 0.03954117 0.01784610
v 0.04114330 0.04328509 0.01425912
v 0.04584758 0.04583902 0.00478131
v 0.04204258 0.04781970 -0.00313630
v 0.04098965 0.04982014 -0.02181486
v 0.04114330 0.04971735 -0.05799092
v 0.03785346 0.04923503 -0.06962674
v 0.04238602 0.04994863 -0.03670231
v 0.04745634 0.04571646 -0.11019174
v 0.04921875 0.04783551 -0.08027105
v 0.06689257 0.03862199 0.00644358
v 0.06356658 0.03789851 0.01402582
v 0.05227812 0.04623831 -0.09617918
v 0.05748401 0.04649529 -0.07754436
v 0.06333159 0.04395520 -0.08605980
v 0.05677452 0.04717924 -0.06864980
v 0.05670222 0.04779795 -0.04861518
v 0.06502622 0.04465496 -0.03635236
v 0.06520698 0.04403031 -0.02519771
v 0.06165052 0.04361718 0.00176300
v 0.05383717 0.04207929 0.01144494
v 0.05358411 0.04673250 -0.00283009
v 0.05024456 0.04840678 -0.01020820
v 0.05527421 0.04826248 -0.02732657
v 0.04540472 0.04898399 -0.06723542
v 0.04656158 0.04949003 -0.04749242
v 0.05004573 0.04844632 -0.06726458
v 0.05437493 0.04797981 -0.05914283
v 0.05595658 0.04815772 -0.03776674
v 0.05938650 0.04658424 -0.01529705
f 1 2 3
f 1 3 4
f 1 4 5
f 1 5 6
f 1 6 7
f 1 7 8
f 1 8 9
f 1 9 2
f 2 9 10
f 2 10 3
f 3 10 11
f 3 11 12
f 3 12 13
f 3 13 4
f 4 13 14
f 4 14 5
f 5 14 15
f 5 15 6
f 6 15 16
f 6 16 7
f 7 17 18
f 7 18 19
f 7 19 20
f 7 20 9
f 7 9 8
f 7 16 21
f 7 21 22
f 7 22 23
f 7 23 17
f 9 24 10
f 9 20 24
f 10 24 11
f 11 25 26
f 11 26 27
f 11 27 12
f 11 24 25
f 12 27 28
f 12 28 13
f 13 28 29
f 13 29 30
f 13 30 31
f 13 31 14
f 14 31 15
f 15 31 32
f 15 32 16
f 16 32 21
f 17 23 33
f 17 33 34
f 17 34 35
f 17 35 18
f 18 35 36
f 18 36 37
f 18 37 38
f 18 38 19
f 19 39 40
f 19 40 20
f 19 38 41
f 19 41 39
f 20 42 24
f 20 40 43
f 20 43 42
f 21 32 44
f 21 44 45
f 21 45 22
f 22 45 33
f 22 33 23
f 24 42 25
f 25 42 46
f 25 46 47
f 25 47 26
f 26 48 27
f 26 47 48
f 27 48 28
f 28 49 50
f 28 50 51
f 28 51 29
f 28 48 49
f 29 51 30
f 30 51 52
f 30 52 31
f 31 52 32
f 32 52 53
f 32 53 44
f 33 45 34
f 34 45 54
f 34 54 35
f 35 54 36
f 36 55 37
f 36 54 55
f 37 55 56
f 37 56 38
f 38 56 57
f 38 57 41
f 39 58 40
f 39 41 59
f 39 59 58
f 40 58 43
f 41 57 59
f 42 43 46
f 43 58 60
f 43 60 49
f 43 49 47
f 43 47 46
f 44 53 45
f 45 53 54
f 47 49 48
f 49 60 61
f 49 61 50
f 50 61 62
f 50 62 51
f 51 62 63
f 51 63 52
f 52 63 53
f 53 55 54
f 53 63 55
f 55 63 56
f 56 63 57
f 57 62 59
f 57 63 62
f 58 59 60
f 59 62 61
f 59 61 60

