# https://github.com/mikedh/trimesh
v -0.02024517 0.01891544 -0.03731066
v -0.02024517 0.02718979 -0.03712858
v 0.04865373 0.03464743 -0.03723430
v 0.04691566 0.02344997 -0.03729891
v 0.07784574 0.02344997 -0.03729304
v -0.01439716 0.01868720 -0.03725779
v 0.04864413 0.01139730 0.00982302
v 0.04430374 0.01139730 0.01243667
v 0.03521005 0.01139730 0.01811033
v -0.02024517 0.01993014 0.01532636
v -0.02024517 0.03109460 -0.03288802
v 0.04548486 0.03818925 -0.03503179
v 0.05039181 0.03790052 -0.03581882
v 0.05732491 0.03526890 -0.03721081
v 0.07121032 0.03532664 -0.03721081
v 0.07626131 0.03497741 -0.03717557
v 0.07784574 0.03918746 -0.03341075
v 0.07785534 0.01967715 -0.01089230
v 0.07785534 0.01552210 -0.00601154
v -0.00028129 0.01868720 -0.03568374
v 0.06363384 0.01139730 0.00914759
v 0.04104845 0.01163104 0.02269155
v 0.03542130 0.01159804 0.02248598
v -0.01961140 0.02539962 0.01096246
v -0.01961140 0.02783326 0.00669253
v -0.01992828 0.02911194 0.00101299
v -0.02024517 0.03014314 -0.00591757
v 0.03786037 0.01483738 0.02248011
v -0.02024517 0.03136408 -0.02519392
v 0.04865373 0.03931395 -0.03192479
v 0.05906299 0.03843674 -0.03546642
v 0.07294840 0.03799402 -0.03593629
v 0.05732491 0.03943494 -0.03192479
v 0.06600569 0.03948169 -0.03192479
v 0.07294840 0.03948994 -0.03192479
v 0.07626131 0.03900597 -0.02838903
v 0.07626131 0.03774653 -0.02310888
v 0.07784574 0.03501866 -0.01745871
v 0.07785534 0.02344447 -0.00788514
v 0.07785534 0.01559360 0.00133603
v 0.04116368 0.01865970 0.01865655
v 0.07785534 0.02004563 -0.00062568
v -0.00857797 0.02786900 0.00806102
v 0.03652561 0.02293299 0.01519127
v 0.03132098 0.02479740 0.01298876
v -0.01282233 0.02796800 0.00723288
v 0.05039181 0.03826625 -0.02475342
v 0.04628188 0.03860448 -0.02697942
v -0.02024517 0.03078111 -0.01284226
v 0.04018421 0.02171205 0.01606640
v -0.02024517 0.03121009 -0.01977282
v 0.05212029 0.03900597 -0.02845363
v 0.06080107 0.03903071 -0.02845363
v 0.07033648 0.03872548 -0.02679148
v 0.06080107 0.03849449 -0.02555807
v 0.05558684 0.03783177 -0.02310888
v 0.01746438 0.02991765 0.00275150
v 0.01746438 0.02858947 0.00671602
v 0.02385013 0.02808899 0.00763226
v 0.02957330 0.02673606 0.00969381
v 0.07784574 0.02780301 -0.00733892
v 0.04410208 0.02097234 0.01529112
v 0.07784574 0.02442892 -0.00362696
f 1 2 3
f 1 3 4
f 1 4 5
f 1 5 6
f 1 6 7
f 1 7 8
f 1 8 9
f 1 9 10
f 1 10 27
f 1 27 49
f 1 49 51
f 1 51 29
f 1 29 11
f 1 11 2
f 2 11 12
f 2 12 13
f 2 13 3
f 3 13 14
f 3 14 15
f 3 15 5
f 3 5 4
f 5 15 16
f 5 16 17
f 5 17 18
f 5 18 19
f 5 19 20
f 5 20 6
f 6 20 21
f 6 21 7
f 7 21 9
f 7 9 8
f 9 21 22
f 9 22 23
f 9 23 10
f 10 24 25
f 10 25 26
f 10 26 27
f 10 23 28
f 10 28 24
f 11 29 30
f 11 30 12
f 12 30 31
f 12 31 13
f 13 31 32
f 13 32 14
f 14 32 15
f 15 32 16
f 16 32 17
f 17 32 31
f 17 31 33
f 17 33 34
f 17 34 35
f 17 35 36
f 17 36 37
f 17 37 38
f 17 38 39
f 17 39 18
f 18 39 42
f 18 42 40
f 18 40 19
f 19 40 21
f 19 21 20
f 21 40 22
f 22 41 28
f 22 28 23
f 22 40 42
f 22 42 41
f 24 43 25
f 24 28 44
f 24 44 45
f 24 45 43
f 25 43 46
f 25 46 47
f 25 47 48
f 25 48 26
f 26 48 27
f 27 48 30
f 27 30 49
f 28 41 50
f 28 50 44
f 29 51 30
f 30 52 33
f 30 33 31
f 30 51 49
f 30 48 52
f 33 52 34
f 34 52 53
f 34 53 35
f 35 53 36
f 36 53 54
f 36 54 37
f 37 54 55
f 37 55 56
f 37 56 57
f 37 57 58
f 37 58 59
f 37 59 60
f 37 60 38
f 38 61 42
f 38 42 39
f 38 60 45
f 38 45 44
f 38 44 50
f 38 50 61
f 41 62 50
f 41 42 63
f 41 63 62
f 42 61 63
f 43 45 59
f 43 59 58
f 43 58 57
f 43 57 47
f 43 47 46
f 45 60 59
f 47 56 55
f 47 55 52
f 47 52 48
f 47 57 56
f 50 62 61
f 52 55 53
f 53 55 54
f 61 62 63

