# https://github.com/mikedh/trimesh
v 0.04000068 -0.01311214 0.01008033
v 0.04105531 -0.01311214 0.01008033
v 0.04000068 -0.00753247 0.01323834
v 0.04000068 -0.01310886 -0.02991463
v 0.04706961 -0.01310886 0.01008033
v 0.04706961 -0.00753247 0.01323834
v 0.04488492 -0.00223113 0.01463758
v 0.04000068 -0.00133065 0.01487078
v 0.04000068 -0.00763398 -0.03302891
v 0.04488492 -0.01107870 -0.03107094
v 0.04706961 -0.01307939 -0.02992920
v 0.04706961 -0.00136340 0.01486107
v 0.04584543 -0.00137650 0.01486107
v 0.04706961 0.00506763 0.01488050
v 0.04488492 0.00506108 0.01488050
v 0.04000068 0.00506108 0.01488050
v 0.04000068 -0.00155987 -0.03467593
v 0.04706961 -0.00763398 -0.03302891
v 0.04488492 0.00506763 0.01488050
v 0.04706961 0.01149211 0.01315574
v 0.04584543 0.01122360 0.01326749
v 0.04584543 0.01014958 0.01354928
v 0.04488492 0.01037224 0.01349098
v 0.04000068 0.01126617 0.01325291
v 0.04000068 0.00472708 -0.03475367
v 0.04584543 -0.00041381 -0.03469051
v 0.04706961 -0.00155987 -0.03467593
v 0.04706961 0.01253338 0.01268447
v 0.04488492 0.01162963 0.01310230
v 0.04105531 0.01134148 0.01322376
v 0.04536518 0.01267746 0.01261159
v 0.04105531 0.01185557 0.01295654
v 0.04000068 0.01684584 0.01010948
v 0.04105531 0.00472708 -0.03475367
v 0.04488492 0.00077154 -0.03470508
v 0.04000068 0.01084376 -0.03325240
v 0.04105531 0.00994656 -0.03347589
v 0.04105531 0.00473036 -0.03475367
v 0.04706961 0.00473036 -0.03475367
v 0.04488492 0.01775941 0.00937585
v 0.04488492 0.01678035 0.01015806
v 0.04522816 0.01375803 0.01201400
v 0.04706961 0.01084376 -0.03325240
v 0.04701148 0.01213717 -0.03269853
v 0.04470223 0.01775941 -0.02921987
v 0.04105531 0.01685239 0.01010948
v 0.04304554 0.01775941 0.00937099
v 0.04124077 0.01775941 0.00932241
v 0.04105531 0.01900370 0.00813208
v 0.04000068 0.02033968 0.00675713
v 0.04105531 0.01098129 -0.03319896
v 0.04000068 0.01639069 -0.03027415
v 0.04488492 0.01271675 -0.03240702
v 0.04105531 0.02033968 0.00684944
v 0.04584543 0.01159034 -0.03295117
v 0.04584543 0.01330615 -0.03211066
v 0.04488492 0.01549021 -0.03087660
v 0.04488492 0.01654131 -0.03016241
v 0.04105531 0.01717983 -0.02962798
v 0.04201029 0.01775941 -0.02915185
v 0.04084494 0.02001878 -0.02702869
v 0.04105531 0.01792968 -0.02895751
v 0.04105531 0.01630555 -0.03033245
f 1 2 6
f 1 6 3
f 1 3 8
f 1 8 16
f 1 16 24
f 1 24 33
f 1 33 50
f 1 50 52
f 1 52 36
f 1 36 25
f 1 25 17
f 1 17 9
f 1 9 4
f 1 4 2
f 2 5 6
f 2 4 5
f 3 6 7
f 3 7 8
f 4 9 10
f 4 10 11
f 4 11 5
f 5 11 18
f 5 18 27
f 5 27 39
f 5 39 43
f 5 43 28
f 5 28 20
f 5 20 14
f 5 14 12
f 5 12 6
f 6 12 13
f 6 13 7
f 7 13 8
f 8 12 14
f 8 14 15
f 8 15 16
f 8 13 12
f 9 17 27
f 9 27 18
f 9 18 10
f 10 18 11
f 14 19 16
f 14 16 15
f 14 20 21
f 14 21 22
f 14 22 23
f 14 23 19
f 16 19 23
f 16 23 24
f 17 25 26
f 17 26 27
f 20 28 29
f 20 29 21
f 21 24 23
f 21 23 22
f 21 29 30
f 21 30 24
f 24 30 31
f 24 31 32
f 24 32 33
f 25 34 35
f 25 35 26
f 25 36 37
f 25 37 38
f 25 38 39
f 25 39 34
f 26 35 39
f 26 39 27
f 28 40 41
f 28 41 42
f 28 42 31
f 28 31 29
f 28 43 44
f 28 44 45
f 28 45 40
f 29 31 30
f 31 42 32
f 32 42 33
f 33 42 46
f 33 46 47
f 33 47 48
f 33 48 49
f 33 49 50
f 34 39 35
f 36 51 43
f 36 43 37
f 36 52 53
f 36 53 51
f 37 43 39
f 37 39 38
f 40 54 47
f 40 47 46
f 40 46 41
f 40 45 54
f 41 46 42
f 43 51 55
f 43 55 44
f 44 55 53
f 44 53 56
f 44 56 57
f 44 57 58
f 44 58 45
f 45 58 52
f 45 52 59
f 45 59 60
f 45 60 61
f 45 61 54
f 47 54 49
f 47 49 48
f 49 54 50
f 50 61 52
f 50 54 61
f 51 53 55
f 52 61 62
f 52 62 59
f 52 58 63
f 52 63 57
f 52 57 56
f 52 56 53
f 57 63 58
f 59 62 60
f 60 62 61

