# https://github.com/mikedh/trimesh
v 0.07785534 0.01551661 0.00136477
v 0.07785534 0.01243832 0.00219095
v 0.07785534 0.01551661 -0.00600751
v 0.06132540 0.01551661 0.00915918
v 0.04015979 0.01139540 0.02323133
v 0.04208600 0.01131466 0.02223931
v 0.07785534 0.01139540 0.00236885
v 0.04275540 0.00872082 0.02255591
v 0.04321077 0.00525227 0.02291775
v 0.07785534 -0.01404175 -0.00552205
v 0.03166258 -0.01885263 0.01249706
v 0.07500473 0.01551661 -0.00488282
v 0.04703133 0.01551661 0.00880941
v 0.03653504 0.01139540 0.02362030
v 0.04000496 0.00872082 0.02403640
v 0.07785534 0.00872082 0.00281510
v 0.04378909 0.00165251 0.02288458
v 0.07785534 0.00502350 0.00315582
v 0.04000496 0.00525227 0.02453392
v 0.04000496 0.00178372 0.02479624
v 0.07785534 -0.01404175 0.00172057
v 0.05190379 -0.01885263 0.01249706
v 0.03133471 -0.01885263 0.01319056
v 0.03482285 0.01139540 0.01839186
v 0.04812877 0.01551661 0.00784453
v 0.05092474 0.01551661 0.00634595
v 0.05722251 0.01551661 0.00320105
v 0.06051029 0.01551661 0.00160297
v 0.06212230 0.01551661 0.00083107
v 0.06414870 0.01551661 -0.00010366
v 0.06772791 0.01551661 -0.00173490
v 0.07129346 0.01551661 -0.00331489
v 0.03430828 0.01139540 0.02004421
v 0.03432194 0.01139540 0.02241420
v 0.03653504 0.00872082 0.02376201
v 0.04379364 -0.00159736 0.02287855
v 0.07785534 0.00155495 0.00329151
v 0.03653049 -0.00862529 0.02378312
v 0.04000496 -0.00168483 0.02478720
v 0.07785534 -0.01262203 0.00210350
v 0.04221806 -0.01117540 0.02217901
v 0.04022354 -0.01223850 0.02293282
v 0.04152134 -0.01348664 0.02170260
v 0.03933101 -0.01432771 0.02247149
v 0.04233646 -0.01778280 0.01874464
v 0.04334738 -0.01885263 0.01728527
v 0.03342941 -0.01885263 0.01665809
v 0.03444944 -0.01416286 0.02219710
v 0.03427640 -0.01209384 0.02242927
v 0.04322898 -0.00515338 0.02292981
v 0.07785534 -0.00515338 0.00313773
v 0.07785534 -0.00189678 0.00327644
v 0.03653049 -0.01209384 0.02354793
v 0.04000496 -0.00515338 0.02454296
v 0.07785534 -0.00876659 0.00278193
v 0.04275084 -0.00862529 0.02256496
v 0.04000041 -0.00862529 0.02404243
v 0.03653049 -0.01476170 0.02251672
v 0.04000041 -0.01863732 0.01909743
v 0.04128455 -0.01885263 0.01831045
v 0.03653049 -0.01885263 0.01866625
v 0.07785534 -0.00641498 0.00302014
v 0.04205413 -0.00641498 0.02333686
v 0.03900315 -0.01885263 0.01891350
f 1 2 7
f 1 7 16
f 1 16 18
f 1 18 37
f 1 37 52
f 1 52 51
f 1 51 62
f 1 62 55
f 1 55 40
f 1 40 21
f 1 21 10
f 1 10 3
f 1 3 12
f 1 12 32
f 1 32 31
f 1 31 30
f 1 30 29
f 1 29 28
f 1 28 27
f 1 27 26
f 1 26 25
f 1 25 13
f 1 13 4
f 1 4 5
f 1 5 6
f 1 6 2
f 2 6 8
f 2 8 9
f 2 9 7
f 3 10 11
f 3 11 12
f 4 13 14
f 4 14 5
f 5 14 15
f 5 15 6
f 6 15 8
f 7 9 16
f 8 15 9
f 9 17 18
f 9 18 16
f 9 15 19
f 9 19 20
f 9 20 17
f 10 21 22
f 10 22 11
f 11 23 24
f 11 24 13
f 11 13 25
f 11 25 26
f 11 26 27
f 11 27 28
f 11 28 29
f 11 29 30
f 11 30 31
f 11 31 32
f 11 32 12
f 11 22 46
f 11 46 60
f 11 60 64
f 11 64 61
f 11 61 47
f 11 47 23
f 13 24 33
f 13 33 34
f 13 34 14
f 14 34 35
f 14 35 20
f 14 20 19
f 14 19 15
f 17 36 37
f 17 37 18
f 17 20 36
f 20 35 38
f 20 38 39
f 20 39 36
f 21 40 41
f 21 41 42
f 21 42 43
f 21 43 44
f 21 44 45
f 21 45 22
f 22 45 46
f 23 47 48
f 23 48 49
f 23 49 34
f 23 34 33
f 23 33 24
f 34 49 35
f 35 49 38
f 36 39 50
f 36 50 51
f 36 51 52
f 36 52 37
f 38 49 53
f 38 53 39
f 39 53 54
f 39 54 50
f 40 55 50
f 40 50 56
f 40 56 41
f 41 56 57
f 41 57 42
f 42 57 44
f 42 44 43
f 44 53 58
f 44 58 59
f 44 59 45
f 44 57 53
f 45 59 60
f 45 60 46
f 47 61 48
f 48 61 58
f 48 58 53
f 48 53 49
f 50 55 62
f 50 62 51
f 50 54 63
f 50 63 56
f 53 57 54
f 54 57 63
f 56 63 57
f 58 61 64
f 58 64 59
f 59 64 60

