# https://github.com/mikedh/trimesh
v -0.11457956 -0.04369818 -0.16583783
v -0.11457669 -0.02196892 -0.15365497
v -0.11568846 -0.03459580 -0.15124442
v -0.12101235 -0.03576042 -0.16166046
v -0.12424020 -0.03517198 -0.17417888
v -0.12336483 -0.03566847 -0.18140367
v -0.11914842 -0.03644692 -0.18873119
v -0.11595351 -0.03587075 -0.19507257
v -0.11457669 -0.02551180 -0.19849665
v -0.11534175 0.01586880 -0.14850517
v -0.11591483 0.00272704 -0.14296501
v -0.11600652 -0.01587002 -0.14391006
v -0.11457669 0.01892132 -0.17172039
v -0.11465406 0.01887228 -0.16120848
v -0.12073870 -0.01559419 -0.14932010
v -0.12637778 -0.01422730 -0.16026344
v -0.12381470 -0.01491381 -0.15455208
v -0.12885061 -0.01575356 -0.17438432
v -0.12847095 -0.01416600 -0.18519755
v -0.12549238 -0.01491381 -0.19612719
v -0.12187626 -0.01396373 -0.20342047
v -0.11600938 -0.01565548 -0.21074798
v -0.11458099 -0.00142880 -0.21291885
v -0.11973868 0.01556845 -0.15452469
v -0.12016420 0.00999669 -0.14927901
v -0.11590193 0.00919372 -0.14359504
v -0.12010975 0.01752991 -0.16083868
v -0.12051091 0.00271478 -0.14871746
v -0.11850083 0.01891519 -0.18002719
v -0.11465406 0.01889067 -0.19236071
v -0.12300092 -0.00670021 -0.15271678
v -0.12634626 -0.00670021 -0.16026344
v -0.12835060 -0.01155482 -0.16773477
v -0.12410696 -0.00670021 -0.15470274
v -0.12921308 0.00271478 -0.17721261
v -0.12912856 -0.00858811 -0.18097223
v -0.12845376 0.00313159 -0.18550571
v -0.12748239 -0.00481231 -0.19062128
v -0.12635916 -0.00670021 -0.19417547
v -0.12412273 -0.00670021 -0.19976356
v -0.12052380 0.00272091 -0.20576253
v -0.11654235 0.00508079 -0.21063157
v -0.11598646 0.01369281 -0.20814569
v -0.11496065 0.01733989 -0.20392038
v -0.12340781 0.00918759 -0.15460002
v -0.12512991 0.01338633 -0.16318075
v -0.12215994 0.01743796 -0.16967964
v -0.12371298 0.00271478 -0.15420967
v -0.11980602 0.01846773 -0.18851205
v -0.12417287 0.01678823 -0.17721261
v -0.12629326 0.00271478 -0.16026344
v -0.12845662 0.00313772 -0.16891265
v -0.12845519 0.01032768 -0.17721261
v -0.12819587 0.00998443 -0.18363617
v -0.12820160 0.00998443 -0.17078220
v -0.12605543 0.00837236 -0.19417547
v -0.12630901 0.00271478 -0.19417547
v -0.12370438 0.00272091 -0.20027031
v -0.12340781 0.00918759 -0.19983204
v -0.12015703 0.00996604 -0.20515304
v -0.12513278 0.01338633 -0.19124446
v -0.11974872 0.01670855 -0.19666135
v -0.12604110 0.00837236 -0.16026344
v -0.12410267 0.01640820 -0.18473872
f 1 2 3
f 1 3 4
f 1 4 5
f 1 5 6
f 1 6 7
f 1 7 8
f 1 8 9
f 1 9 2
f 2 10 11
f 2 11 12
f 2 12 3
f 2 9 13
f 2 13 14
f 2 14 10
f 3 12 15
f 3 15 4
f 4 16 5
f 4 15 17
f 4 17 16
f 5 16 18
f 5 18 19
f 5 19 6
f 6 19 20
f 6 20 7
f 7 20 8
f 8 20 21
f 8 21 22
f 8 22 9
f 9 22 23
f 9 23 13
f 10 24 25
f 10 25 26
f 10 26 11
f 10 14 27
f 10 27 24
f 11 26 28
f 11 28 15
f 11 15 12
f 13 29 14
f 13 23 30
f 13 30 29
f 14 29 27
f 15 28 31
f 15 31 17
f 16 32 33
f 16 33 18
f 16 17 34
f 16 34 32
f 17 31 34
f 18 33 35
f 18 35 36
f 18 36 19
f 19 36 37
f 19 37 38
f 19 38 20
f 20 38 39
f 20 39 40
f 20 40 21
f 21 41 22
f 21 40 41
f 22 41 23
f 23 41 42
f 23 42 43
f 23 43 44
f 23 44 30
f 24 45 25
f 24 27 46
f 24 46 45
f 25 28 26
f 25 45 28
f 27 29 47
f 27 47 46
f 28 45 48
f 28 48 31
f 29 30 49
f 29 49 50
f 29 50 47
f 30 44 49
f 31 48 34
f 32 34 51
f 32 51 33
f 33 52 35
f 33 51 52
f 34 48 51
f 35 53 54
f 35 54 37
f 35 37 36
f 35 52 55
f 35 55 53
f 37 56 57
f 37 57 38
f 37 54 56
f 38 57 39
f 39 57 40
f 40 57 58
f 40 58 41
f 41 58 59
f 41 59 60
f 41 60 42
f 42 60 43
f 43 60 61
f 43 61 62
f 43 62 44
f 44 62 49
f 45 46 63
f 45 63 48
f 46 47 50
f 46 50 55
f 46 55 63
f 48 63 51
f 49 64 50
f 49 62 64
f 50 64 53
f 50 53 55
f 51 63 52
f 52 63 55
f 53 64 54
f 54 64 61
f 54 61 56
f 56 61 59
f 56 59 58
f 56 58 57
f 59 61 60
f 61 64 62

