# https://github.com/mikedh/trimesh
v 0.03118576 0.04779986 -0.05493967
v 0.03118050 0.02948896 -0.06116532
v 0.03118576 0.02942348 -0.11742392
v 0.03118576 0.04910140 -0.07438964
v 0.03118050 0.04968670 -0.06158634
v 0.00558959 0.04629991 -0.08575732
v 0.00201412 0.04552017 -0.08822826
v -0.00419563 0.04345873 -0.09093386
v 0.00107819 0.03703831 -0.07271245
v 0.00560011 0.02964570 -0.06198666
v 0.01100012 0.02941753 -0.06126195
v 0.01695749 0.02941753 -0.06124814
v 0.02347746 0.02941753 -0.06125505
v 0.02347746 0.02941753 -0.12280061
v 0.03118050 0.02955443 -0.12279371
v 0.03047067 0.04943274 -0.06820541
v 0.03036025 0.04611539 -0.12175841
v 0.02417678 0.04610150 -0.12363576
v 0.02078009 0.04831968 -0.08269281
v 0.01411288 0.04768280 -0.08432860
v 0.00984861 0.04708163 -0.08575732
v 0.00700926 0.04647649 -0.09001588
v 0.00251889 0.04516899 -0.10203925
v -0.00008384 0.04451029 -0.10562832
v -0.00096193 0.04458965 -0.09595855
v -0.00490021 0.04330199 -0.10170796
v -0.00771327 0.04227623 -0.09617941
v -0.01185661 0.03972671 -0.09617251
v -0.01638904 0.03482211 -0.09506818
v -0.01903384 0.03070717 -0.09640718
v -0.02095303 0.02993537 -0.10355771
v -0.02253044 0.02955443 -0.12364957
v -0.00505795 0.02945325 -0.12529916
v 0.02051718 0.04218100 -0.12534057
v 0.00436972 0.04155403 -0.12517492
v 0.01818261 0.04573048 -0.12351153
v 0.01269321 0.04724234 -0.09001588
v 0.00842894 0.04642490 -0.09568247
v 0.00842894 0.04610745 -0.10136975
v 0.00098354 0.04428014 -0.11322747
v -0.00584140 0.04248456 -0.11806581
v -0.00576779 0.04299049 -0.10562832
v -0.00723478 0.04249646 -0.10647727
v -0.01233509 0.04010567 -0.11201962
v -0.01218261 0.03998663 -0.10113509
v -0.01618398 0.03664348 -0.10103155
v -0.01888136 0.03309995 -0.10034825
v -0.02157873 0.03028853 -0.10995590
v -0.02176276 0.03082621 -0.11515314
v -0.01721981 0.03680419 -0.11788636
v -0.01869207 0.03353843 -0.12418792
v -0.00718220 0.03679625 -0.12543719
v 0.00107819 0.03821486 -0.12545100
v 0.00985387 0.04105603 -0.12543719
v -0.00251306 0.04205799 -0.12421554
v 0.00204567 0.04395872 -0.12019854
v -0.00766594 0.04219488 -0.11146055
v -0.00858610 0.04132785 -0.12269018
v -0.01333412 0.03952236 -0.11735490
v -0.01618923 0.03723076 -0.10705014
v -0.01767201 0.03580423 -0.10847196
v -0.01869733 0.03413166 -0.10454470
v -0.01743539 0.03635381 -0.11273053
v -0.01235086 0.03764742 -0.12452612
f 1 2 3
f 1 3 4
f 1 4 5
f 1 5 6
f 1 6 7
f 1 7 8
f 1 8 9
f 1 9 10
f 1 10 11
f 1 11 2
f 2 11 12
f 2 12 13
f 2 13 3
f 3 14 15
f 3 15 4
f 3 13 14
f 4 16 5
f 4 15 17
f 4 17 18
f 4 18 16
f 5 16 19
f 5 19 20
f 5 20 21
f 5 21 6
f 6 21 22
f 6 22 7
f 7 22 23
f 7 23 24
f 7 24 25
f 7 25 8
f 8 25 26
f 8 26 27
f 8 27 28
f 8 28 9
f 9 28 29
f 9 29 10
f 10 29 30
f 10 30 31
f 10 31 32
f 10 32 11
f 11 32 33
f 11 33 14
f 11 14 13
f 11 13 12
f 14 33 15
f 15 33 34
f 15 34 17
f 16 18 19
f 17 34 18
f 18 34 35
f 18 35 36
f 18 36 19
f 19 37 20
f 19 36 37
f 20 37 21
f 21 37 38
f 21 38 22
f 22 38 23
f 23 38 39
f 23 39 40
f 23 40 24
f 24 40 41
f 24 41 42
f 24 42 25
f 25 42 26
f 26 42 43
f 26 43 27
f 27 43 44
f 27 44 45
f 27 45 28
f 28 45 46
f 28 46 29
f 29 46 47
f 29 47 30
f 30 47 31
f 31 47 48
f 31 48 32
f 32 48 49
f 32 49 50
f 32 50 51
f 32 51 52
f 32 52 33
f 33 52 53
f 33 53 54
f 33 54 34
f 34 54 35
f 35 55 36
f 35 54 52
f 35 52 55
f 36 55 56
f 36 56 39
f 36 39 37
f 37 39 38
f 39 56 40
f 40 56 41
f 41 57 42
f 41 56 58
f 41 58 57
f 42 57 43
f 43 57 44
f 44 57 59
f 44 59 45
f 45 59 50
f 45 50 60
f 45 60 46
f 46 60 61
f 46 61 62
f 46 62 47
f 47 62 48
f 48 62 49
f 49 62 61
f 49 61 63
f 49 63 50
f 50 59 58
f 50 58 51
f 50 63 60
f 51 58 64
f 51 64 52
f 52 64 55
f 52 54 53
f 55 64 58
f 55 58 56
f 57 58 59
f 60 63 61

