# https://github.com/mikedh/trimesh
v -0.03888479 -0.01328636 0.01072861
v -0.02859687 -0.01640436 0.00998010
v -0.04310292 0.01107734 0.00953008
v -0.04654327 0.01107734 0.00953008
v -0.05116798 -0.01328636 0.01012935
v -0.04297476 -0.02021707 0.01066662
v -0.02963096 -0.02461823 0.01049671
v -0.02925975 -0.01821877 -0.01272773
v -0.02934150 -0.02675138 0.00622149
v -0.02931720 -0.02861482 -0.00003982
v -0.02933708 -0.03009822 -0.00760527
v -0.04654327 0.01107734 0.00547527
v -0.04991734 -0.01524788 0.01013853
v -0.04654107 -0.01043807 -0.01272773
v -0.04608147 -0.02778118 -0.01201366
v -0.04652339 -0.02644080 -0.00762823
v -0.04654107 -0.02515764 -0.00357342
v -0.04834631 -0.01707863 0.01012935
v -0.04632231 -0.01863968 0.01007194
v -0.04505842 -0.02079326 0.00800780
v -0.04327748 -0.02121009 0.00874943
v -0.04053978 -0.02142258 0.01048064
v -0.03646306 -0.02308170 0.01017986
v -0.03272220 -0.02427087 0.00999617
v -0.03288350 -0.02610980 0.00622608
v -0.02973923 -0.03067033 -0.01188279
v -0.04061712 -0.02959967 -0.01232363
v -0.03288350 -0.02726219 0.00320679
v -0.02934150 -0.02778526 0.00316316
v -0.03251229 -0.02827156 0.00003366
v -0.03288129 -0.02924823 -0.00417728
v -0.02933708 -0.02948933 -0.00410151
v -0.03288129 -0.02995519 -0.00764430
v -0.03328344 -0.03059269 -0.01192182
v -0.04653886 -0.02209685 0.00371191
v -0.04327969 -0.02881506 -0.01192182
v -0.04502749 -0.02771171 -0.00935944
v -0.04361113 -0.02536605 -0.00038422
v -0.04578096 -0.02424635 -0.00010640
v -0.04415469 -0.02736844 -0.00704733
v -0.04311176 -0.02694753 -0.00429667
v -0.04619858 -0.02105888 0.00622608
v -0.04419668 -0.02383770 0.00275676
v -0.04163795 -0.02427905 0.00458211
v -0.03981724 -0.02369876 0.00698147
v -0.03773137 -0.02411559 0.00772310
v -0.03481690 -0.02432808 0.00897673
v -0.03601009 -0.02686989 0.00241465
v -0.03648736 -0.02510452 0.00643042
v -0.03675252 -0.03026985 -0.01192182
v -0.03635258 -0.02957106 -0.00764430
v -0.03981503 -0.02888044 -0.00764430
v -0.03480364 -0.02774031 0.00078905
v -0.03635258 -0.02877011 -0.00417728
v -0.04311176 -0.02801819 -0.00797952
v -0.04183903 -0.02781387 -0.00553194
v -0.04246214 -0.02464274 0.00275676
v -0.03971117 -0.02674320 -0.00016150
v -0.03981724 -0.02563168 0.00275676
v -0.03981724 -0.02460188 0.00524567
v -0.03686300 -0.02738479 0.00036199
v -0.03844065 -0.02780569 -0.00212692
v -0.04021718 -0.02777300 -0.00375710
v -0.03600788 -0.02796098 -0.00087328
f 1 2 3
f 1 3 4
f 1 4 5
f 1 5 6
f 1 6 7
f 1 7 2
f 2 8 3
f 2 7 9
f 2 9 10
f 2 10 11
f 2 11 8
f 3 12 4
f 3 8 12
f 4 12 5
f 5 13 6
f 5 12 14
f 5 14 15
f 5 15 16
f 5 16 17
f 5 17 13
f 6 18 19
f 6 19 20
f 6 20 21
f 6 21 22
f 6 22 7
f 6 13 18
f 7 22 23
f 7 23 24
f 7 24 25
f 7 25 9
f 8 14 12
f 8 11 26
f 8 26 27
f 8 27 14
f 9 25 28
f 9 28 29
f 9 29 10
f 10 30 31
f 10 31 32
f 10 32 11
f 10 29 30
f 11 32 33
f 11 33 34
f 11 34 26
f 13 17 35
f 13 35 18
f 14 27 15
f 15 27 36
f 15 36 37
f 15 37 16
f 16 37 17
f 17 38 39
f 17 39 35
f 17 37 40
f 17 40 41
f 17 41 38
f 18 42 19
f 18 35 42
f 19 42 20
f 20 42 43
f 20 43 44
f 20 44 21
f 21 44 22
f 22 44 45
f 22 45 46
f 22 46 23
f 23 46 47
f 23 47 24
f 24 47 25
f 25 48 28
f 25 47 49
f 25 49 48
f 26 34 27
f 27 34 50
f 27 50 51
f 27 51 52
f 27 52 36
f 28 48 53
f 28 53 29
f 29 53 30
f 30 54 31
f 30 53 54
f 31 54 51
f 31 51 33
f 31 33 32
f 33 51 50
f 33 50 34
f 35 39 43
f 35 43 42
f 36 52 55
f 36 55 37
f 37 55 56
f 37 56 40
f 38 57 43
f 38 43 39
f 38 41 58
f 38 58 57
f 40 56 41
f 41 56 58
f 43 57 44
f 44 57 59
f 44 59 60
f 44 60 46
f 44 46 45
f 46 60 49
f 46 49 47
f 48 61 53
f 48 49 59
f 48 59 61
f 49 60 59
f 51 54 52
f 52 54 62
f 52 62 63
f 52 63 56
f 52 56 55
f 53 61 62
f 53 62 64
f 53 64 54
f 54 64 62
f 56 63 58
f 57 58 59
f 58 63 62
f 58 62 61
f 58 61 59

