# https://github.com/mikedh/trimesh
v 0.02485836 0.02445270 0.02348445
v 0.02485836 0.03027155 0.01496158
v 0.00534524 0.02843358 0.02457614
v -0.00534456 0.02421152 0.02930682
v 0.00485741 0.02234444 0.02688721
v 0.01040381 0.02047875 0.02272473
v 0.01573280 0.02047737 0.01941773
v 0.02007022 0.02047737 0.01489774
v 0.02314566 0.02047737 0.00943928
v 0.02476292 0.02047875 0.00338070
v 0.02482655 0.02047737 -0.00288217
v 0.02485836 0.02267711 -0.01960232
v 0.02485836 0.03328216 0.00565985
v 0.00155397 0.03192101 0.01655124
v -0.00120332 0.02817576 0.02563591
v -0.00780491 0.02817576 0.02444208
v -0.01364824 0.02458715 0.02636371
v -0.00796929 0.02047875 0.02368875
v -0.00183432 0.02047875 0.02492727
v -0.01839396 0.02047737 0.01691514
v 0.02037247 0.02047737 -0.01447583
v 0.02333125 0.02047875 -0.00895352
v 0.01612518 0.02047875 -0.01909158
v 0.02365470 0.02638076 -0.03591387
v 0.02459854 0.03463499 -0.01005160
v 0.02485836 0.03451578 -0.00175218
v -0.00309631 0.03436747 0.00370629
v -0.00753448 0.03302295 0.01055651
v -0.00777309 0.03096875 0.01800045
v -0.01451784 0.02817576 0.02104570
v -0.02199964 0.02421152 0.02008169
v -0.01361112 0.02047875 0.02096270
v -0.02202616 0.02047875 0.01180780
v -0.02427441 0.02047875 0.00595990
v -0.02499024 0.02047737 -0.00026466
v 0.01087573 0.02047737 -0.02250711
v 0.02109360 0.03097984 -0.02653553
v 0.02336306 0.03328631 -0.01951932
v 0.00493165 0.02047737 -0.02450536
v -0.00131998 0.02047737 -0.02495863
v 0.01753564 0.02579167 -0.03468173
v -0.00849953 0.02843496 -0.02366903
v -0.00349399 0.03431757 -0.00449098
v -0.01300664 0.03302434 0.00172081
v -0.01444892 0.03096875 0.01311656
v -0.02109292 0.02817576 0.01461684
v -0.02642191 0.02421152 0.01374859
v -0.02930646 0.02421152 -0.00534646
v -0.02414715 0.02047875 -0.00646369
v -0.02177694 0.02047875 -0.01226690
v -0.01803869 0.02047875 -0.01729763
v -0.00665427 0.03184338 -0.01554837
v -0.01069476 0.02047875 -0.02241774
v -0.01098639 0.02421152 -0.02753784
v -0.01461329 0.02817715 -0.02108983
v -0.01055690 0.03302434 -0.00753623
v -0.01901965 0.03096875 0.00479798
v -0.01921054 0.03097014 -0.00345037
v -0.02563715 0.02817576 -0.00120952
v -0.02820885 0.02520258 0.00479798
v -0.02491601 0.02638215 -0.01189024
v -0.02008015 0.02421152 -0.02200277
v -0.01614040 0.03097014 -0.01113691
v -0.01958702 0.02817715 -0.01657622
f 1 2 3
f 1 3 4
f 1 4 5
f 1 5 6
f 1 6 7
f 1 7 8
f 1 8 9
f 1 9 10
f 1 10 11
f 1 11 12
f 1 12 26
f 1 26 13
f 1 13 2
f 2 13 14
f 2 14 3
f 3 15 4
f 3 14 15
f 4 15 16
f 4 16 17
f 4 17 18
f 4 18 19
f 4 19 5
f 5 19 6
f 6 19 7
f 7 19 20
f 7 20 35
f 7 35 40
f 7 40 39
f 7 39 36
f 7 36 21
f 7 21 11
f 7 11 9
f 7 9 8
f 9 11 10
f 11 21 22
f 11 22 12
f 12 23 24
f 12 24 25
f 12 25 26
f 12 22 21
f 12 21 23
f 13 27 14
f 13 26 27
f 14 27 28
f 14 28 29
f 14 29 15
f 15 29 16
f 16 29 30
f 16 30 17
f 17 30 31
f 17 31 32
f 17 32 18
f 18 32 20
f 18 20 19
f 20 32 31
f 20 31 33
f 20 33 34
f 20 34 35
f 21 36 23
f 23 36 24
f 24 37 38
f 24 38 25
f 24 36 39
f 24 39 40
f 24 40 41
f 24 41 42
f 24 42 37
f 25 43 27
f 25 27 26
f 25 38 43
f 27 43 44
f 27 44 28
f 28 45 29
f 28 44 45
f 29 45 30
f 30 45 46
f 30 46 31
f 31 46 47
f 31 47 33
f 33 47 34
f 34 47 48
f 34 48 35
f 35 48 49
f 35 49 50
f 35 50 51
f 35 51 40
f 37 42 52
f 37 52 38
f 38 52 43
f 40 51 53
f 40 53 54
f 40 54 41
f 41 54 42
f 42 54 55
f 42 55 52
f 43 52 56
f 43 56 44
f 44 57 45
f 44 56 58
f 44 58 57
f 45 57 46
f 46 57 59
f 46 59 60
f 46 60 47
f 47 60 48
f 48 60 59
f 48 59 61
f 48 61 62
f 48 62 50
f 48 50 49
f 50 62 51
f 51 62 53
f 52 63 56
f 52 55 63
f 53 62 54
f 54 62 55
f 55 62 64
f 55 64 63
f 56 63 58
f 57 58 59
f 58 63 64
f 58 64 59
f 59 64 61
f 61 64 62

