# https://github.com/mikedh/trimesh
v 0.05108982 -0.03999638 -0.12460931
v 0.05121328 -0.03999638 -0.12460931
v 0.03119245 -0.03999638 -0.12326263
v 0.03119245 -0.02149937 -0.12568129
v 0.04255901 -0.02149410 -0.12568129
v 0.04540262 -0.01865287 -0.12568129
v 0.04824621 -0.01580636 -0.12566789
v 0.05108982 -0.01012389 -0.12568129
v 0.05121328 -0.01012389 -0.12564779
v 0.05121328 -0.03999638 -0.05724857
v 0.03119245 -0.03999638 -0.07099675
v 0.03119245 0.01385527 -0.12568129
v 0.05108982 0.00978055 -0.12568129
v 0.05121328 -0.00444143 -0.12567460
v 0.05121328 0.01385527 -0.05724857
v 0.03392435 -0.03999638 -0.05724857
v 0.03119245 -0.03826739 -0.06299038
v 0.04824621 0.01385527 -0.12568129
v 0.03119245 0.01385527 -0.06077941
v 0.05121328 0.00965404 -0.12566120
v 0.05121328 0.00681281 -0.12567460
v 0.04985909 0.01385527 -0.12555400
v 0.05108982 0.01262179 -0.12546020
v 0.03391651 0.01385527 -0.05724857
v 0.05121328 0.01385527 -0.12516540
v 0.03391651 -0.03571081 -0.05724857
v 0.03119245 -0.03286958 -0.06077941
v 0.03119245 -0.03571081 -0.06087991
v 0.03119245 -0.03748197 -0.06127521
v 0.05121328 0.01249000 -0.12542670
v 0.05112509 0.01385527 -0.12519890
v 0.05121328 0.01262179 -0.12541330
f 1 2 10
f 1 10 16
f 1 16 11
f 1 11 3
f 1 3 4
f 1 4 2
f 2 4 5
f 2 5 6
f 2 6 7
f 2 7 8
f 2 8 9
f 2 9 14
f 2 14 21
f 2 21 20
f 2 20 30
f 2 30 32
f 2 32 25
f 2 25 15
f 2 15 10
f 3 11 17
f 3 17 29
f 3 29 28
f 3 28 27
f 3 27 19
f 3 19 12
f 3 12 4
f 4 12 18
f 4 18 13
f 4 13 8
f 4 8 6
f 4 6 5
f 6 8 7
f 8 13 21
f 8 21 14
f 8 14 9
f 10 15 24
f 10 24 26
f 10 26 16
f 11 16 17
f 12 19 24
f 12 24 15
f 12 15 25
f 12 25 31
f 12 31 22
f 12 22 18
f 13 20 21
f 13 18 22
f 13 22 23
f 13 23 20
f 16 26 27
f 16 27 28
f 16 28 29
f 16 29 17
f 19 27 26
f 19 26 24
f 20 23 30
f 22 31 23
f 23 31 25
f 23 25 32
f 23 32 30

