# https://github.com/mikedh/trimesh
v 0.07100753 0.02337601 -0.03119175
v 0.07093202 0.02637993 -0.02919468
v 0.07096827 0.02868359 -0.02465752
v 0.07100451 0.03044621 -0.01946875
v 0.07100149 0.02940921 0.00182933
v 0.07099847 0.02051017 0.01337132
v 0.07092900 0.02078069 -0.03362323
v 0.06893556 0.02380856 -0.03775011
v 0.06893556 0.02800306 -0.03353876
v 0.06893254 0.03138740 -0.02795782
v 0.06893254 0.03281327 -0.02430758
v 0.07092900 0.03233000 -0.01519104
v 0.07100149 0.03187772 -0.01125119
v 0.07100149 0.03154802 -0.00548925
v 0.07092296 0.03124368 -0.00107879
v 0.07092296 0.02842997 0.00522616
v 0.07099847 0.02582479 0.00796535
v 0.07091994 0.02428761 0.01074074
v 0.06892952 0.02600091 0.01469868
v 0.06896879 0.02171202 0.01758871
v 0.04683559 0.02033968 0.02047873
v 0.06893556 0.02033968 -0.04006092
v 0.04374878 0.02569517 -0.03899903
v 0.05062010 0.02561486 -0.03835949
v 0.05082850 0.02712950 -0.03680286
v 0.05100972 0.02846942 -0.03501092
v 0.05147788 0.03157479 -0.02865167
v 0.04415049 0.02845533 -0.03576510
v 0.04440420 0.03012214 -0.03276648
v 0.04470019 0.03184249 -0.02827156
v 0.05850928 0.03285413 -0.02439205
v 0.06893254 0.03396299 -0.01929378
v 0.06892952 0.03454067 -0.01462389
v 0.06892952 0.03470692 -0.01111846
v 0.06892650 0.03448712 -0.00568232
v 0.06892650 0.03362906 0.00026667
v 0.06892650 0.03260756 0.00421858
v 0.06892650 0.03087735 0.00835753
v 0.06892952 0.02879208 0.01174229
v 0.04015153 0.02662649 0.01778781
v 0.04015153 0.02311112 0.01999605
v 0.04286985 0.02034109 0.01948924
v 0.04058042 0.02034109 0.00680089
v 0.04058042 0.02034109 -0.02670889
v 0.06413017 0.02033968 -0.04042293
v 0.04452199 0.02182896 -0.04115901
v 0.04036597 0.02630807 -0.03846809
v 0.04058042 0.02830880 -0.03601248
v 0.04058042 0.02984880 -0.03324916
v 0.04068613 0.03223419 -0.02679940
v 0.04499015 0.03312747 -0.02353530
v 0.04714668 0.03374319 -0.02062718
v 0.04068613 0.03445190 -0.01563148
v 0.04714366 0.03457871 -0.01424982
v 0.04015153 0.03473369 -0.01023757
v 0.04714064 0.03457871 -0.00666577
v 0.04015153 0.03449417 -0.00509707
v 0.04015153 0.03376855 -0.00002294
v 0.04015153 0.03255543 0.00538907
v 0.04015153 0.03137331 0.00888847
v 0.04015153 0.03003479 0.01181469
v 0.04015153 0.02831444 0.01517533
v 0.04068311 0.02261376 -0.04011522
v 0.04056230 0.03351353 -0.02156236
f 1 2 3
f 1 3 4
f 1 4 5
f 1 5 6
f 1 6 7
f 1 7 2
f 2 7 8
f 2 8 9
f 2 9 10
f 2 10 3
f 3 10 11
f 3 11 12
f 3 12 4
f 4 12 13
f 4 13 14
f 4 14 5
f 5 14 15
f 5 15 16
f 5 16 17
f 5 17 6
f 6 17 18
f 6 18 19
f 6 19 20
f 6 20 21
f 6 21 22
f 6 22 7
f 7 22 8
f 8 22 23
f 8 23 24
f 8 24 9
f 9 24 25
f 9 25 26
f 9 26 10
f 10 27 11
f 10 26 28
f 10 28 29
f 10 29 27
f 11 27 30
f 11 30 31
f 11 31 32
f 11 32 12
f 12 33 34
f 12 34 35
f 12 35 14
f 12 14 13
f 12 32 33
f 14 35 15
f 15 35 36
f 15 36 37
f 15 37 38
f 15 38 16
f 16 38 39
f 16 39 18
f 16 18 17
f 18 39 19
f 19 40 20
f 19 39 40
f 20 40 41
f 20 41 21
f 21 41 42
f 21 42 43
f 21 43 44
f 21 44 45
f 21 45 22
f 22 45 46
f 22 46 23
f 23 47 28
f 23 28 25
f 23 25 24
f 23 46 47
f 25 28 26
f 27 29 30
f 28 47 48
f 28 48 49
f 28 49 29
f 29 49 30
f 30 50 51
f 30 51 31
f 30 49 50
f 31 51 32
f 32 51 52
f 32 52 53
f 32 53 33
f 33 53 54
f 33 54 34
f 34 55 56
f 34 56 35
f 34 54 55
f 35 56 57
f 35 57 58
f 35 58 36
f 36 58 59
f 36 59 37
f 37 59 60
f 37 60 38
f 38 60 61
f 38 61 62
f 38 62 39
f 39 62 40
f 40 62 61
f 40 61 60
f 40 60 59
f 40 59 58
f 40 58 57
f 40 57 55
f 40 55 41
f 41 43 42
f 41 55 47
f 41 47 44
f 41 44 43
f 44 47 63
f 44 63 46
f 44 46 45
f 46 63 47
f 47 55 49
f 47 49 48
f 49 55 64
f 49 64 50
f 50 64 51
f 51 64 52
f 52 64 53
f 53 64 55
f 53 55 54
f 55 57 56

