# https://github.com/mikedh/trimesh
v 0.02290139 -0.01323742 0.03290518
v 0.02290139 -0.01807891 0.03290518
v 0.02290139 -0.01082105 0.03285332
v 0.01377482 -0.02236277 0.03290518
v 0.01614256 -0.02242181 0.03290518
v 0.01861554 -0.02236277 0.03289777
v 0.02103829 -0.02236277 0.03269033
v 0.02290139 -0.02049965 0.03267552
v 0.01130663 -0.02242181 0.03281628
v 0.02290139 -0.00839812 0.03265329
v 0.02209540 -0.02242181 0.00380487
v 0.02290139 -0.02231685 0.03209025
v 0.00888866 -0.02242181 0.03250512
v 0.02290139 -0.00619387 0.03237918
v 0.00607129 -0.02242181 0.03212729
v 0.02209301 -0.02241963 -0.00657434
v 0.00327544 -0.02242181 -0.04277192
v 0.01495391 -0.02241963 -0.04177919
v 0.02290139 -0.00352383 0.03198654
v 0.02209301 -0.02181171 -0.00824864
v 0.02209301 -0.02139841 -0.00930064
v 0.02209301 -0.02082111 -0.01055267
v 0.02209301 -0.01975834 -0.01246404
v 0.02209301 -0.01946313 -0.01296781
v 0.02209301 -0.01880273 -0.01401240
v 0.02209301 -0.01828884 -0.01478288
v 0.02209540 -0.01706862 -0.01636087
v 0.02209540 -0.01647820 -0.01706467
v 0.02209540 -0.01548760 -0.01790923
v 0.02209540 -0.01504368 -0.01826484
v 0.02209540 -0.01433080 -0.01880565
v 0.02209779 -0.01227743 -0.02010213
v 0.02209779 -0.01020438 -0.02103559
v 0.02209779 -0.00754747 -0.02187274
v 0.02209779 -0.00690675 -0.02201350
v 0.02209779 -0.00615669 -0.02213204
v 0.02209779 -0.00536508 -0.02222094
v 0.02209779 -0.00294434 -0.02242838
v 0.02209779 -0.00030273 -0.02249505
v 0.00203895 -0.02242181 0.03020110
v 0.01566901 -0.02174829 -0.04177919
v 0.01938326 -0.01719764 -0.04277192
v 0.00077855 -0.02242181 -0.04277192
v 0.00921154 -0.01227743 -0.04277933
v 0.02094980 -0.01020438 -0.04277933
v 0.02209779 -0.00008187 -0.00275159
v 0.02209779 -0.00008406 0.00361966
v 0.00920914 -0.00008406 0.00133045
v 0.02003858 -0.01504368 -0.04277192
v 0.02057670 -0.01245237 -0.04277192
v 0.02123919 -0.00778364 -0.04277933
v 0.02209301 -0.01790178 -0.01530147
v 0.02142335 -0.00535634 -0.04277933
v 0.02209540 -0.01326366 -0.01953909
v 0.02149031 -0.00294434 -0.04277933
v 0.02152858 -0.00030273 -0.04277933
v -0.00153179 -0.01719764 0.00130082
v -0.00153179 -0.02241963 0.00605703
v 0.00077855 -0.02242181 0.00485687
v -0.00153179 -0.02241963 -0.04277192
v 0.00921154 -0.00008187 -0.04277933
v 0.00921154 -0.00008187 -0.00275159
v 0.00920914 -0.00008406 -0.00275159
v -0.00153179 -0.01719764 -0.04277192
f 1 2 8
f 1 8 12
f 1 12 19
f 1 19 14
f 1 14 10
f 1 10 3
f 1 3 4
f 1 4 5
f 1 5 2
f 2 5 6
f 2 6 7
f 2 7 8
f 3 9 4
f 3 10 9
f 4 9 5
f 5 7 6
f 5 9 13
f 5 13 15
f 5 15 40
f 5 40 59
f 5 59 43
f 5 43 17
f 5 17 11
f 5 11 7
f 7 11 12
f 7 12 8
f 9 10 13
f 10 14 15
f 10 15 13
f 11 16 12
f 11 17 18
f 11 18 16
f 12 16 20
f 12 20 21
f 12 21 22
f 12 22 23
f 12 23 24
f 12 24 25
f 12 25 26
f 12 26 27
f 12 27 28
f 12 28 29
f 12 29 30
f 12 30 31
f 12 31 32
f 12 32 33
f 12 33 34
f 12 34 35
f 12 35 36
f 12 36 37
f 12 37 38
f 12 38 39
f 12 39 19
f 14 19 15
f 15 19 40
f 16 18 41
f 16 41 42
f 16 42 20
f 17 42 18
f 17 43 44
f 17 44 45
f 17 45 42
f 18 42 41
f 19 46 47
f 19 47 48
f 19 48 40
f 19 39 46
f 20 42 49
f 20 49 21
f 21 49 22
f 22 49 50
f 22 50 45
f 22 45 23
f 23 45 24
f 24 45 51
f 24 51 25
f 25 51 26
f 26 51 52
f 26 52 27
f 27 52 51
f 27 51 53
f 27 53 28
f 28 53 29
f 29 53 30
f 30 53 31
f 31 54 32
f 31 53 55
f 31 55 54
f 32 54 55
f 32 55 33
f 33 55 56
f 33 56 34
f 34 56 35
f 35 56 36
f 36 56 37
f 37 56 38
f 38 56 39
f 39 56 46
f 40 48 57
f 40 57 58
f 40 58 59
f 42 45 49
f 43 60 44
f 43 59 58
f 43 58 60
f 44 61 56
f 44 56 55
f 44 55 53
f 44 53 51
f 44 51 45
f 44 60 64
f 44 64 61
f 45 50 49
f 46 62 47
f 46 56 61
f 46 61 62
f 47 62 48
f 48 62 61
f 48 61 63
f 48 63 64
f 48 64 57
f 57 64 60
f 57 60 58
f 61 64 63

