# https://github.com/mikedh/trimesh
v 0.02209896 0.00323110 0.00421310
v 0.02209896 -0.00008155 0.00362892
v 0.02209896 0.02057901 0.00389571
v 0.00888490 0.02057901 0.00389571
v -0.02023246 0.00843062 0.00287913
v -0.02023246 0.00683901 0.00211094
v 0.00920810 -0.00008155 0.00132436
v 0.02209896 -0.00008155 -0.02249391
v 0.02209896 0.02057901 -0.01431529
v -0.00153221 0.02057901 0.00184415
v -0.02023246 0.02057698 0.00287913
v -0.02023246 0.00672374 0.00196835
v 0.00920810 -0.00008155 -0.04093490
v 0.02001886 -0.00008155 -0.04093490
v 0.02209896 0.00190038 -0.02249391
v 0.02209896 0.02030801 -0.01469248
v 0.01897466 0.01423685 -0.04189168
v 0.01843599 0.01577385 -0.04189168
v 0.01818322 0.01629360 -0.04189168
v 0.01747052 0.01704592 -0.04189168
v 0.01304511 0.02057901 -0.03995052
v -0.00153221 0.02057901 -0.03995052
v -0.02023246 0.02057698 -0.04277486
v -0.02023246 0.00672374 -0.04277486
v 0.02000228 0.00190038 -0.04093490
v 0.02209896 0.00432318 -0.02242031
v 0.02209896 0.00323110 -0.02245711
v -0.00153221 0.00672374 -0.04277486
v 0.02209896 0.01917346 -0.01595285
v 0.01993598 0.00323110 -0.04093490
v 0.01999814 0.00200150 -0.04093490
v -0.00153221 0.02057698 -0.04277486
v 0.02209896 0.01797015 -0.01719023
v 0.02209896 0.01642506 -0.01842760
v 0.02209896 0.01519545 -0.01931998
v 0.02209896 0.01469997 -0.01960057
v 0.02209896 0.01423280 -0.01985357
v 0.02209896 0.00947618 -0.02175333
v 0.02209896 0.00832748 -0.02202012
v 0.02209896 0.00674800 -0.02222712
v 0.02209896 0.00537684 -0.02234211
v 0.02209896 0.00982403 -0.02164753
v 0.02209896 0.01382226 -0.02006976
v 0.02209896 0.01158147 -0.02106794
f 1 2 8
f 1 8 15
f 1 15 27
f 1 27 26
f 1 26 41
f 1 41 40
f 1 40 39
f 1 39 38
f 1 38 42
f 1 42 44
f 1 44 43
f 1 43 37
f 1 37 36
f 1 36 35
f 1 35 34
f 1 34 33
f 1 33 29
f 1 29 16
f 1 16 9
f 1 9 3
f 1 3 4
f 1 4 5
f 1 5 2
f 2 5 6
f 2 6 7
f 2 7 13
f 2 13 14
f 2 14 8
f 3 9 21
f 3 21 22
f 3 22 10
f 3 10 4
f 4 10 11
f 4 11 5
f 5 11 23
f 5 23 24
f 5 24 12
f 5 12 6
f 6 12 7
f 7 12 24
f 7 24 13
f 8 14 15
f 9 16 17
f 9 17 18
f 9 18 19
f 9 19 20
f 9 20 21
f 10 22 23
f 10 23 11
f 13 24 28
f 13 28 14
f 14 25 26
f 14 26 27
f 14 27 15
f 14 28 17
f 14 17 25
f 16 29 17
f 17 30 31
f 17 31 25
f 17 28 32
f 17 32 18
f 17 29 33
f 17 33 34
f 17 34 35
f 17 35 36
f 17 36 37
f 17 37 30
f 18 32 19
f 19 32 20
f 20 32 21
f 21 32 23
f 21 23 22
f 23 32 28
f 23 28 24
f 25 38 39
f 25 39 40
f 25 40 41
f 25 41 26
f 25 31 42
f 25 42 38
f 30 37 43
f 30 43 44
f 30 44 31
f 31 44 42

