# https://github.com/mikedh/trimesh
v -0.02037655 -0.02795975 0.00431181
v -0.02027816 0.02910393 0.02930560
v -0.02023429 0.01624561 0.03289095
v -0.02023429 -0.02356938 0.03246130
v -0.02111840 -0.02645161 0.02849815
v -0.02195333 -0.02637341 0.01884584
v -0.02483035 -0.02422291 0.00520074
v -0.02156910 -0.02695991 -0.00109586
v -0.02188419 -0.02264774 -0.04277934
v -0.02122742 0.02058571 -0.04277934
v -0.02083389 0.02724948 -0.01158525
v -0.02072089 0.02829959 -0.00279224
v -0.02086846 0.02855095 0.00403772
v -0.02481041 0.02560169 0.02676473
v -0.02236547 0.02542853 0.03163164
v -0.02634066 0.01701644 0.03275021
v -0.02974549 0.00431452 0.03289836
v -0.02974549 -0.00293574 0.03289836
v -0.02692697 -0.01140927 0.03287614
v -0.02415364 -0.01654813 0.03285392
v -0.02941578 -0.01262137 0.03218721
v -0.02523319 -0.02136302 0.03064640
v -0.02812351 -0.01788312 0.02957968
v -0.02916052 -0.01863161 0.00493406
v -0.02826577 -0.02005596 0.00039310
v -0.02815276 -0.01987722 -0.00685169
v -0.02397283 -0.02478706 -0.00454047
v -0.02761697 -0.01682183 -0.04276452
v -0.03064157 -0.01176676 -0.04276452
v -0.03237656 -0.00681223 -0.04276452
v -0.03316496 -0.00172364 -0.04276452
v -0.03278073 0.00472786 -0.04276452
v -0.03106170 0.00989465 -0.04276452
v -0.02540071 0.01747447 -0.04277193
v -0.02517336 0.02363552 -0.01173341
v -0.02523452 0.02457950 -0.00474048
v -0.02547383 0.02473032 0.00307471
v -0.02912861 0.01999922 0.00493406
v -0.02846918 0.01958587 0.02993526
v -0.03021746 0.00976059 0.03249093
v -0.03188465 0.00431452 0.03223167
v -0.03186338 -0.00293574 0.03223167
v -0.03126777 -0.00778973 0.03168349
v -0.03163205 -0.01167180 0.02863890
v -0.03037700 -0.01626885 -0.00474048
v -0.03110690 -0.01416862 -0.01077780
v -0.03229945 -0.01140927 -0.00474048
v -0.03350132 -0.00457236 -0.00384414
v -0.03342022 -0.00115390 -0.02859347
v -0.03338299 0.00066705 -0.03682350
v -0.03318224 0.00855408 -0.00209591
v -0.03202691 0.01339690 0.00402291
v -0.03122389 0.01519550 -0.00381451
v -0.02857288 0.01388285 -0.04276452
v -0.02855427 0.02029526 -0.00553311
v -0.02858750 0.02063599 -0.00051065
v -0.03162274 0.01368177 0.02891299
v -0.03338166 0.00068380 0.02968339
v -0.03349334 0.00576681 0.02922411
v -0.03342155 -0.00516444 0.02849074
v -0.03232072 -0.01139252 0.00001530
v -0.03357577 -0.00457794 0.00257098
v -0.03381641 0.00068380 0.00371919
v -0.03355982 0.00593438 0.00402291
f 1 2 3
f 1 3 4
f 1 4 5
f 1 5 6
f 1 6 7
f 1 7 8
f 1 8 9
f 1 9 10
f 1 10 2
f 2 10 11
f 2 11 12
f 2 12 13
f 2 13 14
f 2 14 15
f 2 15 3
f 3 15 16
f 3 16 17
f 3 17 18
f 3 18 19
f 3 19 20
f 3 20 4
f 4 20 21
f 4 21 22
f 4 22 5
f 5 22 6
f 6 22 7
f 7 23 24
f 7 24 25
f 7 25 26
f 7 26 27
f 7 27 8
f 7 22 23
f 8 27 9
f 9 27 28
f 9 28 29
f 9 29 30
f 9 30 31
f 9 31 10
f 10 31 32
f 10 32 33
f 10 33 34
f 10 34 11
f 11 34 35
f 11 35 36
f 11 36 12
f 12 36 13
f 13 36 37
f 13 37 14
f 14 37 38
f 14 38 39
f 14 39 15
f 15 39 16
f 16 40 17
f 16 39 40
f 17 40 41
f 17 41 18
f 18 41 42
f 18 42 21
f 18 21 19
f 19 21 20
f 21 42 43
f 21 43 44
f 21 44 23
f 21 23 22
f 23 44 24
f 24 44 45
f 24 45 25
f 25 45 26
f 26 29 28
f 26 28 27
f 26 45 29
f 29 45 46
f 29 46 30
f 30 46 47
f 30 47 48
f 30 48 31
f 31 48 49
f 31 49 50
f 31 50 32
f 32 50 51
f 32 51 52
f 32 52 53
f 32 53 33
f 33 54 34
f 33 53 55
f 33 55 54
f 34 54 35
f 35 54 55
f 35 55 36
f 36 55 56
f 36 56 37
f 37 56 38
f 38 52 57
f 38 57 39
f 38 56 53
f 38 53 52
f 39 57 40
f 40 57 41
f 41 58 42
f 41 57 59
f 41 59 58
f 42 58 60
f 42 60 43
f 43 60 44
f 44 60 61
f 44 61 45
f 45 61 47
f 45 47 46
f 47 61 62
f 47 62 48
f 48 62 49
f 49 62 63
f 49 63 50
f 50 63 64
f 50 64 51
f 51 64 59
f 51 59 52
f 52 59 57
f 53 56 55
f 58 59 60
f 59 64 63
f 59 63 60
f 60 63 62
f 60 62 61

