# https://github.com/mikedh/trimesh
v 0.01237328 0.01915832 -0.07414803
v 0.01407056 0.01915832 -0.07414803
v 0.01237328 0.01915832 -0.06123981
v 0.01237328 0.02941653 -0.07414803
v 0.02071590 0.02732974 -0.07414803
v 0.01407056 0.01915832 -0.06123981
v 0.01237328 0.02941653 -0.06123854
v 0.02071590 0.02941653 -0.07414803
v 0.02071590 0.02732974 -0.06124107
v 0.02071590 0.02941653 -0.06124107
f 1 2 6
f 1 6 3
f 1 3 7
f 1 7 4
f 1 4 8
f 1 8 5
f 1 5 2
f 2 5 9
f 2 9 6
f 3 6 7
f 4 7 10
f 4 10 8
f 5 8 10
f 5 10 9
f 6 9 7
f 7 9 10

