# https://github.com/mikedh/trimesh
v 0.05631694 -0.04818612 -0.04079352
v 0.05872651 -0.04719441 -0.02466403
v 0.05425414 -0.04751481 -0.00801581
v 0.05838568 -0.04464650 -0.10116157
v 0.05789665 -0.04707999 -0.06653585
v 0.06939916 -0.04194600 -0.04841247
v 0.06685622 -0.04090090 -0.00331475
v 0.05219726 -0.04321997 0.00996168
v 0.05121328 -0.00728210 -0.12565569
v 0.05950599 -0.04239609 -0.11704790
v 0.07189172 -0.03753673 -0.09934599
v 0.05971642 -0.04553903 -0.08483755
v 0.07375595 -0.03695697 -0.06530385
v 0.07342993 -0.03400474 -0.02056277
v 0.07219699 -0.03077788 0.00245620
v 0.06552547 -0.03469893 0.01555431
v 0.05444679 -0.03314271 0.02534548
v 0.05182678 -0.01713049 0.03756823
v 0.05121328 0.02974665 -0.12277021
v 0.05121328 0.00898187 -0.12559085
v 0.07781932 0.00665518 -0.12289990
v 0.07820165 -0.01846548 -0.11724242
v 0.07415310 -0.03189927 -0.11526474
v 0.07646486 -0.03149496 -0.08490240
v 0.07819276 -0.02883261 -0.07151249
v 0.07725620 -0.02932084 -0.04538110
v 0.07742217 -0.02610924 -0.03328804
v 0.07182652 -0.01893082 0.01709432
v 0.07522896 -0.01972418 -0.00487096
v 0.06893088 -0.01210331 0.02751769
v 0.06144432 -0.02359946 0.03006274
v 0.06089305 -0.00375010 0.03580128
v 0.05199572 0.00519813 0.03995118
v 0.07380337 0.02677916 -0.12181379
v 0.05312197 0.02867866 0.03064633
v 0.07284013 0.02883123 0.00265072
v 0.08043636 0.01123228 -0.10385252
v 0.07932790 -0.00526817 -0.11742073
v 0.08077423 -0.00814412 -0.10074009
v 0.08067939 -0.01576499 -0.08778787
v 0.07801493 -0.02604058 -0.10142094
v 0.08030595 -0.01954873 -0.07274449
v 0.07907301 -0.02454539 -0.05736069
v 0.07978432 -0.01687112 -0.04379247
v 0.07764742 -0.01470463 -0.01886066
v 0.07070620 0.00755534 0.02566969
v 0.07491776 -0.01352984 -0.00028338
v 0.05647995 0.01614503 0.03560675
v 0.06583964 0.02254534 0.02769601
v 0.07875292 0.02429990 -0.09472598
v 0.07187690 0.02249195 0.01349557
v 0.07526156 0.01130856 -0.00183960
v 0.07892185 0.01319280 -0.02847351
v 0.07558165 0.02662659 -0.01605624
v 0.08112692 0.01053808 -0.08619924
v 0.08149147 -0.00488675 -0.08083355
v 0.08113582 -0.00956302 -0.06287227
v 0.07937236 -0.00931891 -0.03030530
v 0.07840912 -0.00029439 -0.02101666
v 0.07932493 0.02336922 -0.07277691
v 0.07823722 0.02397950 -0.03910762
v 0.08050452 0.00210859 -0.04410047
v 0.08107950 0.00834870 -0.06115395
v 0.07942866 0.02144684 -0.05697164
f 1 2 3
f 1 3 4
f 1 4 5
f 1 5 6
f 1 6 2
f 2 7 3
f 2 6 7
f 3 7 8
f 3 8 4
f 4 9 10
f 4 10 11
f 4 11 12
f 4 12 5
f 4 8 9
f 5 12 6
f 6 12 11
f 6 11 13
f 6 13 14
f 6 14 7
f 7 14 15
f 7 15 16
f 7 16 8
f 8 16 17
f 8 17 18
f 8 18 9
f 9 19 20
f 9 20 21
f 9 21 10
f 9 18 19
f 10 21 22
f 10 22 23
f 10 23 11
f 11 23 24
f 11 24 13
f 13 24 25
f 13 25 26
f 13 26 14
f 14 27 15
f 14 26 27
f 15 28 16
f 15 27 29
f 15 29 28
f 16 28 30
f 16 30 31
f 16 31 17
f 17 31 18
f 18 31 32
f 18 32 33
f 18 33 19
f 19 34 20
f 19 33 35
f 19 35 36
f 19 36 34
f 20 34 21
f 21 34 37
f 21 37 38
f 21 38 22
f 22 38 39
f 22 39 40
f 22 40 41
f 22 41 23
f 23 41 24
f 24 41 25
f 25 41 42
f 25 42 43
f 25 43 26
f 26 43 27
f 27 44 45
f 27 45 29
f 27 43 44
f 28 46 30
f 28 29 47
f 28 47 46
f 29 45 47
f 30 32 31
f 30 46 32
f 32 48 33
f 32 46 49
f 32 49 48
f 33 48 35
f 34 50 37
f 34 36 50
f 35 48 49
f 35 49 36
f 36 49 51
f 36 51 52
f 36 52 53
f 36 53 54
f 36 54 50
f 37 39 38
f 37 50 55
f 37 55 39
f 39 55 56
f 39 56 40
f 40 56 57
f 40 57 42
f 40 42 41
f 42 57 44
f 42 44 43
f 44 58 45
f 44 57 58
f 45 58 59
f 45 59 47
f 46 47 59
f 46 59 52
f 46 52 51
f 46 51 49
f 50 54 60
f 50 60 55
f 52 59 53
f 53 61 54
f 53 59 62
f 53 62 63
f 53 63 64
f 53 64 61
f 54 61 60
f 55 60 64
f 55 64 63
f 55 63 56
f 56 63 57
f 57 63 62
f 57 62 58
f 58 62 59
f 60 61 64

