# https://github.com/mikedh/trimesh
v -0.05601192 -0.00962078 0.00521314
v -0.05745623 -0.00341986 0.00454539
v -0.05905921 -0.00671655 0.00069237
v -0.05974475 -0.01060979 -0.00353809
v -0.05401634 -0.01586356 0.00299008
v -0.05029164 -0.02081907 0.00100758
v -0.04752711 0.02195943 0.00322649
v -0.05642487 0.01031636 0.00411405
v -0.05769221 0.00311596 0.00426751
v -0.06009667 0.00004952 -0.00011640
v -0.06231399 -0.00351405 -0.00603073
v -0.06150030 -0.01068305 -0.00863122
v -0.05904090 -0.01613567 -0.00940265
v -0.05320874 -0.02239939 -0.00867684
v -0.04755560 -0.02407913 -0.00221503
v -0.04713044 0.02448690 -0.00200351
v -0.04999261 0.02422002 -0.00610954
v -0.05389631 0.01983490 -0.00310675
v -0.05299311 0.01709812 0.00331773
v -0.05980171 0.01060416 -0.00348417
v -0.05947217 0.00707722 -0.00022423
v -0.06232213 0.00359738 -0.00603488
v -0.06456590 0.00004952 -0.01285752
v -0.06412243 -0.00515193 -0.01285752
v -0.06160608 -0.01433034 -0.01540409
v -0.06412854 -0.00862131 -0.01632068
v -0.05889444 -0.01888815 -0.01621700
v -0.05915889 -0.02101268 -0.03092818
v -0.04746405 -0.02644961 -0.00950634
v -0.05930332 -0.01994518 -0.02306867
v -0.04664222 0.02700913 -0.00929067
v -0.05226486 0.02412583 -0.01104506
v -0.05467340 0.02111171 -0.00794688
v -0.05899615 0.01628180 -0.00921187
v -0.06151861 0.01077685 -0.00863536
v -0.06411430 0.00524573 -0.01285752
v -0.06609564 -0.00236806 -0.01998707
v -0.06605700 0.00243046 -0.02006173
v -0.06326602 -0.01385938 -0.02325531
v -0.06590850 -0.00665899 -0.02342950
v -0.06172610 -0.01760610 -0.02846457
v -0.05899005 -0.01699386 -0.03667662
v -0.06290392 -0.01566472 -0.03332544
v -0.05853641 0.01714522 -0.03686740
v -0.05978543 0.02040005 -0.03235492
v -0.05910803 0.02060936 -0.02506361
v -0.05889444 0.01896101 -0.01613819
v -0.06161014 0.01442937 -0.01539994
v -0.06413871 0.00872034 -0.01632068
v -0.06692358 0.00004952 -0.02498896
v -0.06696833 -0.00515193 -0.03019822
v -0.06591053 0.00717142 -0.02419679
v -0.06697037 0.00524573 -0.03019822
v -0.06561963 -0.00994522 -0.03167058
v -0.06557284 -0.00515193 -0.03580564
v -0.06012922 -0.01076154 -0.03715773
v -0.06290799 0.01575851 -0.03331299
v -0.06072728 0.01143618 -0.03700427
v -0.06557081 0.00524573 -0.03581394
v -0.06173627 0.01771036 -0.02846457
v -0.06327009 0.01395842 -0.02325531
v -0.06742197 0.00004952 -0.03019822
v -0.06562166 0.01003378 -0.03167473
v -0.06544265 0.00004952 -0.03617892
f 1 2 3
f 1 3 4
f 1 4 5
f 1 5 6
f 1 6 7
f 1 7 8
f 1 8 9
f 1 9 2
f 2 9 10
f 2 10 3
f 3 10 11
f 3 11 4
f 4 11 12
f 4 12 13
f 4 13 5
f 5 13 14
f 5 14 6
f 6 14 15
f 6 15 7
f 7 16 17
f 7 17 18
f 7 18 19
f 7 19 8
f 7 15 16
f 8 20 21
f 8 21 9
f 8 19 20
f 9 21 10
f 10 21 22
f 10 22 11
f 11 23 24
f 11 24 12
f 11 22 23
f 12 25 13
f 12 24 26
f 12 26 25
f 13 25 27
f 13 27 14
f 14 28 29
f 14 29 15
f 14 27 30
f 14 30 28
f 15 29 31
f 15 31 16
f 16 31 17
f 17 32 33
f 17 33 18
f 17 31 32
f 18 34 19
f 18 33 34
f 19 34 20
f 20 35 22
f 20 22 21
f 20 34 35
f 22 35 36
f 22 36 23
f 23 37 24
f 23 36 38
f 23 38 37
f 24 37 26
f 25 26 39
f 25 39 27
f 26 37 40
f 26 40 39
f 27 41 30
f 27 39 41
f 28 42 29
f 28 30 41
f 28 41 43
f 28 43 42
f 29 42 44
f 29 44 31
f 31 44 45
f 31 45 32
f 32 45 46
f 32 46 47
f 32 47 33
f 33 47 34
f 34 48 35
f 34 47 48
f 35 49 36
f 35 48 49
f 36 49 38
f 37 38 50
f 37 50 51
f 37 51 40
f 38 49 52
f 38 52 53
f 38 53 50
f 39 40 54
f 39 54 41
f 40 51 54
f 41 54 43
f 42 43 55
f 42 55 56
f 42 56 44
f 43 54 55
f 44 57 45
f 44 56 58
f 44 58 59
f 44 59 57
f 45 57 60
f 45 60 46
f 46 60 47
f 47 60 61
f 47 61 48
f 48 61 49
f 49 61 52
f 50 62 51
f 50 53 62
f 51 55 54
f 51 62 55
f 52 61 63
f 52 63 53
f 53 59 62
f 53 63 59
f 55 62 59
f 55 59 64
f 55 64 56
f 56 64 58
f 57 59 63
f 57 63 60
f 58 64 59
f 60 63 61

