# https://github.com/mikedh/trimesh
v 0.00900915 -0.00445852 0.02943213
v 0.00054552 -0.00218133 0.02928726
v 0.00061033 -0.01104362 0.02714317
v 0.00932242 -0.01690094 0.02468615
v 0.04202111 -0.02526436 0.01595912
v 0.04378729 0.02354278 0.01562302
v 0.00900915 0.00533108 0.02942054
v -0.00000000 -0.00000977 0.02249570
v 0.00065354 0.00646968 0.02877731
v 0.00061033 -0.02118536 0.02032843
v 0.01386480 -0.02396143 0.01867111
v 0.03339544 -0.02562237 0.01636476
v 0.03636068 -0.02846887 0.01052935
v 0.04030354 -0.02993613 0.00402174
v 0.04890220 -0.02704269 0.00662362
v 0.05517836 -0.02375014 0.00514014
v 0.05150016 -0.01864992 0.01187955
v 0.05090063 0.02411795 0.00902848
v 0.04057900 0.02877799 0.00695393
v 0.03339544 0.02710531 0.01260390
v 0.01513408 0.02305565 0.01907675
v 0.00906856 0.01384122 0.02641881
v -0.00000000 -0.00000977 -0.02249547
v 0.00055092 -0.02956052 -0.00051563
v 0.00058332 -0.02787609 0.00952105
v 0.00057792 0.01528501 0.02501646
v 0.00062113 0.02690576 0.01171729
v 0.00058873 0.02936490 0.00164006
v 0.03339544 -0.03034697 0.00130396
v 0.04124334 -0.02984810 -0.00357530
v 0.05162439 -0.02634427 -0.00407945
v 0.05150016 0.00063582 -0.01185034
v 0.05254799 0.02431163 -0.00600914
v 0.05046854 0.02684707 0.00101421
v 0.04123254 0.02921230 -0.00445032
v 0.03339544 0.02961140 0.00413184
v 0.00077237 0.02212247 0.01961567
v 0.00055632 -0.00242783 -0.02929282
v 0.00055632 -0.01792803 -0.02339947
v 0.00054552 -0.02303411 -0.01853180
v 0.00052931 -0.02771176 -0.00982215
v 0.00059413 0.02795632 -0.00864000
v 0.00050771 0.01769133 -0.02330675
v 0.00064814 0.00735590 -0.02835406
v 0.03636068 -0.02857451 -0.01010030
v 0.03339544 0.02928273 -0.00601493
v 0.04825406 -0.02541696 -0.01204737
v 0.04885899 0.02188771 -0.01369890
v 0.04126494 -0.02518219 -0.01631817
v 0.04107050 0.02573781 -0.01470140
v 0.03339544 0.02707596 -0.01289341
v 0.00900915 -0.00793888 -0.02883503
v 0.00073456 -0.01048605 -0.02750801
v 0.00900915 0.00178029 -0.02976800
v 0.00954387 -0.01863818 -0.02350377
v 0.01554457 -0.02417271 -0.01839852
v 0.03339544 -0.02562237 -0.01636453
v 0.00070755 0.02370712 -0.01762780
v 0.00931702 0.01753286 -0.02422233
v 0.00900915 0.01128818 -0.02773980
v 0.03339544 0.02400057 -0.01798708
v 0.03339544 0.02441728 -0.01741339
v 0.03339544 0.02525655 -0.01617330
v 0.01444813 0.02320238 -0.01894903
f 1 2 3
f 1 3 4
f 1 4 5
f 1 5 6
f 1 6 7
f 1 7 2
f 2 8 3
f 2 7 9
f 2 9 8
f 3 8 10
f 3 10 4
f 4 10 11
f 4 11 12
f 4 12 5
f 5 12 13
f 5 13 14
f 5 14 15
f 5 15 16
f 5 16 17
f 5 17 6
f 6 18 19
f 6 19 20
f 6 20 21
f 6 21 22
f 6 22 7
f 6 17 18
f 7 22 9
f 8 23 24
f 8 24 25
f 8 25 10
f 8 9 26
f 8 26 27
f 8 27 28
f 8 28 23
f 9 22 26
f 10 25 11
f 11 25 13
f 11 13 12
f 13 25 14
f 14 29 30
f 14 30 15
f 14 25 29
f 15 31 16
f 15 30 31
f 16 31 32
f 16 32 33
f 16 33 18
f 16 18 17
f 18 33 34
f 18 34 19
f 19 35 36
f 19 36 20
f 19 34 35
f 20 36 27
f 20 27 21
f 21 37 22
f 21 27 37
f 22 37 26
f 23 38 39
f 23 39 40
f 23 40 41
f 23 41 24
f 23 28 42
f 23 42 43
f 23 43 44
f 23 44 38
f 24 30 29
f 24 29 25
f 24 41 45
f 24 45 30
f 26 37 27
f 27 36 28
f 28 36 46
f 28 46 42
f 30 45 47
f 30 47 31
f 31 47 32
f 32 48 33
f 32 47 49
f 32 49 48
f 33 50 35
f 33 35 34
f 33 48 50
f 35 46 36
f 35 50 51
f 35 51 46
f 38 52 53
f 38 53 39
f 38 44 54
f 38 54 52
f 39 55 40
f 39 53 55
f 40 55 56
f 40 56 41
f 41 56 57
f 41 57 45
f 42 46 51
f 42 51 58
f 42 58 43
f 43 58 59
f 43 59 60
f 43 60 44
f 44 60 54
f 45 57 49
f 45 49 47
f 48 49 54
f 48 54 61
f 48 61 50
f 49 57 55
f 49 55 52
f 49 52 54
f 50 61 62
f 50 62 63
f 50 63 51
f 51 63 58
f 52 55 53
f 54 60 61
f 55 57 56
f 58 64 59
f 58 63 64
f 59 64 61
f 59 61 60
f 61 64 62
f 62 64 63

