# https://github.com/mikedh/trimesh
v -0.02771902 0.02351726 -0.17217081
v -0.01739856 0.01986411 -0.18126618
v -0.02004706 0.02470867 -0.17976495
v -0.02492959 0.02885890 -0.17994099
v -0.03355484 0.03320638 -0.18057669
v -0.03929119 0.02351726 -0.17217081
v -0.02771902 -0.03449125 -0.17217081
v -0.01458427 -0.00106061 -0.18104124
v -0.02410893 0.02052689 -0.18983832
v -0.02836974 0.02637350 -0.18965739
v -0.01640382 0.01393071 -0.18208770
v -0.02212773 0.01402539 -0.18977475
v -0.03057061 0.03025546 -0.18614149
v -0.05687326 0.01778111 -0.21907064
v -0.05692715 0.01912244 -0.19412194
v -0.05558010 0.01951694 -0.17217081
v -0.05518635 -0.04739168 -0.17217081
v -0.04456747 -0.04716286 -0.17295810
v -0.04230858 -0.04670524 -0.18536398
v -0.02103352 -0.02685357 -0.17954490
v -0.01536763 -0.01121526 -0.18124173
v -0.01865442 -0.00481633 -0.18655714
v -0.02204070 0.00648239 -0.19083099
v -0.01696751 0.00643505 -0.18403880
v -0.02772731 0.01389125 -0.19694347
v -0.03336004 0.01481440 -0.20317819
v -0.03076956 0.02380130 -0.19541290
v -0.04825216 0.01610839 -0.21621000
v -0.05543089 0.01213964 -0.22205352
v -0.05537286 -0.00105272 -0.22212198
v -0.05515733 -0.03519348 -0.21620511
v -0.05692715 -0.04739957 -0.19412683
v -0.05692715 -0.02260866 -0.19412194
v -0.05558010 -0.04739957 -0.17910481
v -0.04455918 -0.04719442 -0.17940310
v -0.05478845 -0.04694194 -0.20425399
v -0.04642018 -0.04650009 -0.19469896
v -0.03710690 -0.03558798 -0.19666963
v -0.04107758 -0.03523293 -0.20376988
v -0.01733225 -0.01820595 -0.18202901
v -0.02263754 -0.01635176 -0.19004859
v -0.02400117 -0.00860361 -0.19318796
v -0.02519071 -0.00105272 -0.19506082
v -0.02671598 0.00744499 -0.19658650
v -0.03048772 0.00648239 -0.20108528
v -0.03920000 0.01499588 -0.20890925
v -0.03806020 0.00642716 -0.20887014
v -0.04456747 0.00465976 -0.21460119
v -0.04928835 0.00460453 -0.21829802
v -0.05117007 0.00460453 -0.21956941
v -0.05017533 -0.00105272 -0.21896306
v -0.05485062 -0.01255659 -0.22175035
v -0.05104573 -0.01564164 -0.21903152
v -0.04644919 -0.03560377 -0.20966720
v -0.02806303 -0.01951571 -0.19576987
v -0.03551531 -0.01401627 -0.20582857
v -0.03055403 -0.00882454 -0.20100704
v -0.03178503 -0.00293058 -0.20264519
v -0.03373307 0.00293970 -0.20470876
v -0.03832132 -0.00105272 -0.20928089
v -0.04564096 -0.00105272 -0.21554496
v -0.04816098 -0.00832746 -0.21735914
v -0.04409497 -0.01471060 -0.21380902
v -0.03846638 -0.00857205 -0.20918309
f 1 2 3
f 1 3 4
f 1 4 5
f 1 5 6
f 1 6 16
f 1 16 17
f 1 17 7
f 1 7 8
f 1 8 2
f 2 9 10
f 2 10 3
f 2 8 11
f 2 11 12
f 2 12 9
f 3 10 4
f 4 10 13
f 4 13 5
f 5 13 14
f 5 14 15
f 5 15 16
f 5 16 6
f 7 17 18
f 7 18 19
f 7 19 20
f 7 20 21
f 7 21 8
f 8 21 22
f 8 22 23
f 8 23 24
f 8 24 11
f 9 12 25
f 9 25 26
f 9 26 27
f 9 27 10
f 10 27 13
f 11 24 12
f 12 24 23
f 12 23 25
f 13 27 14
f 14 27 28
f 14 28 29
f 14 29 30
f 14 30 31
f 14 31 32
f 14 32 15
f 15 32 33
f 15 33 16
f 16 33 32
f 16 32 17
f 17 32 34
f 17 34 35
f 17 35 18
f 18 35 19
f 19 35 36
f 19 36 37
f 19 37 38
f 19 38 20
f 20 38 39
f 20 39 40
f 20 40 21
f 21 40 41
f 21 41 42
f 21 42 22
f 22 42 43
f 22 43 23
f 23 44 25
f 23 43 44
f 25 44 45
f 25 45 26
f 26 46 27
f 26 45 47
f 26 47 46
f 27 46 28
f 28 46 48
f 28 48 49
f 28 49 29
f 29 49 50
f 29 50 30
f 30 50 51
f 30 51 52
f 30 52 31
f 31 52 53
f 31 53 54
f 31 54 36
f 31 36 32
f 32 36 35
f 32 35 34
f 36 54 39
f 36 39 37
f 37 39 38
f 39 54 55
f 39 55 40
f 40 55 41
f 41 56 57
f 41 57 42
f 41 55 56
f 42 57 43
f 43 45 44
f 43 57 58
f 43 58 45
f 45 58 59
f 45 59 47
f 46 47 48
f 47 59 60
f 47 60 48
f 48 60 61
f 48 61 49
f 49 61 51
f 49 51 50
f 51 62 52
f 51 61 62
f 52 62 53
f 53 62 63
f 53 63 54
f 54 63 56
f 54 56 55
f 56 63 64
f 56 64 58
f 56 58 57
f 58 64 60
f 58 60 59
f 60 64 61
f 61 64 63
f 61 63 62

