# https://github.com/mikedh/trimesh
v -0.03612219 -0.01499986 -0.09328399
v -0.03597853 0.00170643 -0.09328399
v -0.03606632 -0.02075112 -0.09328399
v -0.03572313 -0.02544461 -0.07510234
v -0.03533206 0.00009853 -0.06057755
v -0.03536398 0.00170643 -0.06221963
v 0.00320094 0.00170643 -0.09328399
v -0.03563534 -0.02492902 -0.09328399
v -0.03579496 -0.02544461 -0.08128173
v -0.03541985 -0.02544461 -0.07174798
v -0.03536398 -0.01789409 -0.06638963
v -0.03533206 -0.00299769 -0.06062077
v -0.02037538 -0.02544461 -0.04803514
v -0.02577862 -0.00299769 -0.05248062
v -0.02578660 0.00170643 -0.05246982
v -0.03368794 0.00170643 -0.05924337
v 0.03067207 0.00170378 -0.09327859
v 0.03285891 -0.01991926 -0.09327859
v 0.00320094 -0.02544461 -0.09328399
v 0.00320094 0.00170643 -0.04686840
v 0.04534143 0.00170378 -0.04578269
v 0.04360154 0.00170378 -0.05169740
v -0.03560341 -0.02544461 -0.09127461
v -0.03553158 -0.02544461 -0.09328399
v -0.02348803 -0.02544461 -0.05177842
v -0.03523628 -0.00891639 -0.06149042
v -0.01928196 -0.02544461 -0.04782448
v -0.01462097 0.00170643 -0.04737615
v -0.01548293 0.00170643 -0.04755440
v -0.01882703 0.00170643 -0.04827821
v -0.01943360 0.00170643 -0.04852668
v -0.02178804 0.00170643 -0.04950976
v 0.04541326 -0.00685135 -0.04765703
v 0.04541326 -0.01275942 -0.04822959
v 0.04541326 -0.01991926 -0.04851048
v 0.00320094 -0.02544461 -0.04690081
v 0.03890064 0.00170378 -0.03858782
v 0.04220483 0.00170378 -0.03976535
v 0.04346586 0.00170378 -0.04027309
v -0.00870693 0.00170643 -0.04698183
v 0.04541326 -0.00938148 -0.04081325
v 0.04541326 -0.00340432 -0.04575028
v -0.01462097 -0.02544461 -0.04707367
v 0.03863726 -0.01991926 -0.03810707
v 0.03863726 -0.01482977 -0.03811248
v 0.03863726 -0.00891904 -0.03823131
v 0.03736028 0.00170378 -0.03877147
v 0.04541326 -0.01991926 -0.03936024
v 0.04455927 -0.01991926 -0.03902534
v -0.01339187 -0.02544461 -0.04704125
v 0.04455927 -0.01482977 -0.03929002
v 0.04541326 -0.01487495 -0.03964111
f 1 2 7
f 1 7 19
f 1 19 24
f 1 24 8
f 1 8 3
f 1 3 4
f 1 4 5
f 1 5 6
f 1 6 2
f 2 6 16
f 2 16 15
f 2 15 32
f 2 32 31
f 2 31 30
f 2 30 29
f 2 29 28
f 2 28 40
f 2 40 20
f 2 20 7
f 3 8 9
f 3 9 4
f 4 9 23
f 4 23 24
f 4 24 19
f 4 19 36
f 4 36 50
f 4 50 43
f 4 43 27
f 4 27 13
f 4 13 25
f 4 25 10
f 4 10 11
f 4 11 12
f 4 12 5
f 5 12 13
f 5 13 14
f 5 14 15
f 5 15 16
f 5 16 6
f 7 17 18
f 7 18 19
f 7 20 21
f 7 21 22
f 7 22 17
f 8 23 9
f 8 24 23
f 10 25 11
f 11 25 26
f 11 26 12
f 12 26 13
f 13 27 28
f 13 28 29
f 13 29 30
f 13 30 31
f 13 31 32
f 13 32 15
f 13 15 14
f 13 26 25
f 17 22 18
f 18 22 33
f 18 33 34
f 18 34 35
f 18 35 19
f 19 35 48
f 19 48 36
f 20 37 38
f 20 38 39
f 20 39 21
f 20 40 37
f 21 41 42
f 21 42 33
f 21 33 22
f 21 39 41
f 27 43 44
f 27 44 45
f 27 45 28
f 28 45 46
f 28 46 47
f 28 47 37
f 28 37 40
f 33 42 41
f 33 41 52
f 33 52 48
f 33 48 35
f 33 35 34
f 36 48 49
f 36 49 44
f 36 44 50
f 37 49 51
f 37 51 38
f 37 47 46
f 37 46 49
f 38 51 39
f 39 51 52
f 39 52 41
f 43 50 44
f 44 49 45
f 45 49 46
f 48 52 51
f 48 51 49

