# https://github.com/mikedh/trimesh
v -0.11457401 -0.01046793 -0.21296757
v -0.11457401 -0.00143583 -0.21293410
v -0.11177700 0.00083038 -0.21560079
v -0.11103315 -0.01568152 -0.21576816
v -0.11443265 -0.01555708 -0.21257705
v -0.11371909 -0.03530455 -0.19938028
v -0.11451006 0.01872427 -0.19822546
v -0.11457401 0.01827234 -0.20188519
v -0.11455719 0.00460958 -0.21288947
v -0.10689989 -0.01562912 -0.21910710
v -0.11175008 0.00460958 -0.21557568
v -0.10753604 0.00460958 -0.21889510
v -0.10756633 0.00083038 -0.21891463
v -0.10239976 -0.03584817 -0.21562311
v -0.10909106 -0.03501636 -0.20741940
v -0.11106681 -0.03644420 -0.20169550
v -0.09276335 -0.04687794 -0.20024221
v -0.08834063 -0.04728402 -0.19822546
v -0.11094900 0.01888147 -0.19822546
v -0.11094900 0.01881597 -0.20172618
v -0.11215734 0.01795140 -0.20578759
v -0.11454709 0.01516776 -0.20827855
v -0.10717926 0.01883562 -0.20549470
v -0.09211374 0.01880287 -0.22057434
v -0.11448650 0.00837568 -0.21266352
v -0.10112074 -0.01448292 -0.22272219
v -0.09690334 -0.03544209 -0.21898436
v -0.11157505 0.00837568 -0.21543064
v -0.10305273 0.00809404 -0.22145022
v -0.10348693 0.00460958 -0.22141953
v -0.10733745 0.00837568 -0.21875284
v -0.10164918 -0.00292917 -0.22252972
v -0.08207680 -0.04662905 -0.21402477
v -0.09029282 -0.04634741 -0.20749193
v -0.10466497 -0.03609051 -0.21249895
v -0.08593405 -0.04698928 -0.20986294
v -0.08834063 -0.04708753 -0.20549749
v -0.08776171 -0.04728402 -0.20172618
v -0.08049485 -0.04732332 -0.20927158
v -0.08018856 -0.04732332 -0.20489497
v -0.08018856 -0.04731022 -0.19822546
v -0.08806800 0.01957574 -0.19822546
v -0.09655666 0.01748637 -0.22281982
v -0.11360128 0.01319629 -0.21148918
v -0.08049485 0.01947749 -0.20172618
v -0.08085500 0.01844918 -0.22557856
v -0.08776507 0.01843608 -0.22451580
v -0.11076724 0.01214833 -0.21474164
v -0.09964313 -0.01046793 -0.22345581
v -0.09588349 -0.01422748 -0.22495094
v -0.09210701 -0.03636560 -0.21989093
v -0.09138672 -0.01543918 -0.22635682
v -0.08556718 -0.03516700 -0.22254088
v -0.09923587 0.01214833 -0.22338608
v -0.10026582 0.00660070 -0.22308203
v -0.08049485 -0.03567133 -0.22278356
v -0.08049485 -0.01784948 -0.22672223
v -0.08035685 0.01958884 -0.19822546
v -0.08941097 0.01648426 -0.22650466
v -0.09588349 0.01214833 -0.22497326
v -0.08449011 0.01834439 -0.22550883
v -0.09193535 0.01214833 -0.22628150
v -0.08621005 -0.01732551 -0.22671386
f 1 2 3
f 1 3 4
f 1 4 5
f 1 5 6
f 1 6 7
f 1 7 8
f 1 8 2
f 2 8 9
f 2 9 3
f 3 10 4
f 3 9 11
f 3 11 12
f 3 12 13
f 3 13 10
f 4 10 14
f 4 14 5
f 5 14 15
f 5 15 6
f 6 15 16
f 6 16 17
f 6 17 18
f 6 18 7
f 7 19 20
f 7 20 8
f 7 18 41
f 7 41 58
f 7 58 42
f 7 42 19
f 8 21 22
f 8 22 9
f 8 20 23
f 8 23 24
f 8 24 21
f 9 22 25
f 9 25 11
f 10 26 27
f 10 27 14
f 10 13 26
f 11 25 28
f 11 28 12
f 12 29 30
f 12 30 13
f 12 28 31
f 12 31 29
f 13 30 32
f 13 32 26
f 14 27 33
f 14 33 34
f 14 34 35
f 14 35 15
f 15 35 16
f 16 35 34
f 16 34 17
f 17 36 37
f 17 37 38
f 17 38 18
f 17 34 36
f 18 38 39
f 18 39 40
f 18 40 41
f 19 42 20
f 20 42 23
f 21 43 22
f 21 24 43
f 22 43 44
f 22 44 25
f 23 42 24
f 24 42 45
f 24 45 46
f 24 46 47
f 24 47 43
f 25 44 48
f 25 48 28
f 26 32 49
f 26 49 50
f 26 50 27
f 27 51 33
f 27 50 52
f 27 52 53
f 27 53 51
f 28 48 31
f 29 31 54
f 29 54 30
f 30 54 55
f 30 55 32
f 31 48 54
f 32 55 49
f 33 51 53
f 33 53 56
f 33 56 39
f 33 39 36
f 33 36 34
f 36 39 37
f 37 39 38
f 39 56 40
f 40 56 57
f 40 57 58
f 40 58 41
f 42 58 45
f 43 47 59
f 43 59 60
f 43 60 54
f 43 54 48
f 43 48 44
f 45 58 46
f 46 59 61
f 46 61 47
f 46 58 57
f 46 57 59
f 47 61 59
f 49 55 60
f 49 60 50
f 50 60 62
f 50 62 52
f 52 63 53
f 52 62 59
f 52 59 63
f 53 63 56
f 54 60 55
f 56 63 57
f 57 63 59
f 59 62 60

