# https://github.com/mikedh/trimesh
v -0.00103415 0.02399523 -0.06583100
v -0.00099315 -0.02434072 -0.06583303
v -0.00030861 -0.02434072 -0.06299130
v -0.00030861 0.02399523 -0.06299130
v 0.00061251 0.02686441 -0.06302280
v -0.00000893 0.02683962 -0.06583100
v -0.00003732 0.02683962 -0.06864225
v -0.00075971 0.02399523 -0.06864225
v -0.00068400 -0.02714793 -0.06861075
v -0.00093321 -0.02717891 -0.06583303
v 0.00090588 -0.02434072 -0.06140432
v -0.00023922 -0.02717891 -0.06299130
v 0.00092480 -0.02717891 -0.06140432
v 0.00090588 0.02399523 -0.06140432
v 0.00105099 0.02594106 -0.06145817
v 0.00176075 0.02783732 -0.06209723
v 0.00122764 0.02834547 -0.06399408
v 0.00108253 0.02849420 -0.06864225
v 0.02071628 -0.03147958 -0.07115377
v 0.02071628 -0.03389018 -0.07115377
v 0.00034437 -0.02984978 -0.06861075
v 0.00026235 -0.02978782 -0.06583303
v 0.00058096 -0.02942839 -0.06299130
v 0.00275758 -0.02717891 -0.06124075
v 0.00275758 0.02399523 -0.06123872
v 0.00107307 -0.02890166 -0.06145817
v 0.00272604 0.02686441 -0.06137181
v 0.00365347 0.02851279 -0.06145817
v 0.00429384 0.02941754 -0.06218460
v 0.00350205 0.02941754 -0.06301264
v 0.00268187 0.02941754 -0.06573752
v 0.00244528 0.02941754 -0.06864225
v 0.03118299 -0.03108917 -0.07115377
v 0.03118299 0.02941754 -0.06896736
v 0.03119246 -0.03389018 -0.07115377
v 0.00624964 -0.03389018 -0.06336823
v 0.00539792 -0.03388398 -0.06861075
v 0.00291215 -0.03227278 -0.06861075
v 0.00148946 -0.03129986 -0.06861075
v 0.00161565 -0.03121311 -0.06583303
v 0.00196580 -0.03085369 -0.06299130
v 0.03119246 0.02683962 -0.06077441
v 0.00286799 -0.02991795 -0.06137587
v 0.00560296 -0.03002330 -0.06124380
v 0.03118615 -0.03337583 -0.06079676
v 0.00560296 0.02683962 -0.06124075
v 0.00389006 -0.03162830 -0.06146427
v 0.00817390 0.02941754 -0.06126412
v 0.00555880 0.02941754 -0.06139721
v 0.03119246 -0.03271276 -0.07115377
v 0.03118615 0.02941754 -0.06115032
v 0.03119246 0.02683962 -0.06869305
v 0.03119246 -0.03389018 -0.06582185
v 0.00541369 -0.03384060 -0.06612360
v 0.00737265 -0.03389018 -0.06194585
v 0.00338849 -0.03199392 -0.06299130
v 0.00303834 -0.03226658 -0.06583303
v 0.00560296 -0.03201251 -0.06140737
v 0.01128111 -0.03286768 -0.06124075
v 0.01128111 -0.03389018 -0.06132914
v 0.00894360 -0.03389018 -0.06142464
v 0.01003191 -0.03389018 -0.06137892
f 1 2 3
f 1 3 4
f 1 4 5
f 1 5 6
f 1 6 7
f 1 7 8
f 1 8 2
f 2 9 10
f 2 10 3
f 2 8 9
f 3 11 14
f 3 14 4
f 3 10 12
f 3 12 13
f 3 13 11
f 4 14 15
f 4 15 5
f 5 16 17
f 5 17 6
f 5 15 16
f 6 17 18
f 6 18 7
f 7 18 19
f 7 19 8
f 8 19 20
f 8 20 9
f 9 20 21
f 9 21 10
f 10 21 22
f 10 22 23
f 10 23 12
f 11 13 24
f 11 24 25
f 11 25 14
f 12 23 26
f 12 26 13
f 13 26 24
f 14 25 15
f 15 25 27
f 15 27 28
f 15 28 16
f 16 28 29
f 16 29 30
f 16 30 17
f 17 30 31
f 17 31 32
f 17 32 18
f 18 32 19
f 19 33 50
f 19 50 35
f 19 35 20
f 19 32 34
f 19 34 33
f 20 35 53
f 20 53 60
f 20 60 62
f 20 62 61
f 20 61 55
f 20 55 36
f 20 36 37
f 20 37 38
f 20 38 39
f 20 39 21
f 21 39 22
f 22 39 40
f 22 40 23
f 23 40 41
f 23 41 26
f 24 42 25
f 24 26 43
f 24 43 44
f 24 44 45
f 24 45 42
f 25 46 27
f 25 42 46
f 26 41 47
f 26 47 43
f 27 48 49
f 27 49 28
f 27 46 48
f 28 49 29
f 29 49 48
f 29 48 51
f 29 51 34
f 29 34 32
f 29 32 31
f 29 31 30
f 33 34 50
f 34 51 52
f 34 52 50
f 35 50 52
f 35 52 42
f 35 42 53
f 36 54 37
f 36 55 47
f 36 47 56
f 36 56 54
f 37 54 38
f 38 54 57
f 38 57 39
f 39 57 40
f 40 57 56
f 40 56 41
f 41 56 47
f 42 52 51
f 42 51 48
f 42 48 46
f 42 45 53
f 43 47 58
f 43 58 44
f 44 58 59
f 44 59 45
f 45 59 60
f 45 60 53
f 47 55 61
f 47 61 58
f 54 56 57
f 58 61 62
f 58 62 59
f 59 62 60

