# https://github.com/mikedh/trimesh
v -0.00431437 0.02433349 -0.04278115
v -0.00153214 0.01880645 -0.03995718
v 0.00076594 0.02432827 -0.04278115
v -0.00915583 0.02380536 -0.06553318
v -0.01400375 0.02363281 -0.06553318
v -0.00915583 0.02398315 -0.04278115
v -0.01562403 0.02279094 -0.04278115
v -0.02120139 0.02060000 -0.04278115
v -0.02535860 0.01752012 -0.04278115
v -0.02963199 0.01224407 -0.04278115
v -0.03316304 -0.00173302 -0.04278115
v -0.00153214 0.00322406 -0.04000975
v 0.01475454 0.01872279 -0.03995718
v 0.00573651 0.02384720 -0.04278115
v 0.02429545 0.02323541 -0.04854427
v 0.03278415 0.02376353 -0.05526873
v 0.03278415 0.02317266 -0.06233618
v 0.03278415 -0.02908586 -0.06553318
v -0.01963276 0.02177129 -0.06553318
v -0.02510684 0.01764039 -0.06553318
v -0.03136201 0.00790924 -0.06260906
v -0.03286609 0.00399273 -0.04621849
v -0.02912848 0.01248983 -0.06479464
v -0.03240131 -0.00669010 -0.04278115
v -0.03309848 -0.00173302 -0.04833147
v -0.03235612 -0.00656983 -0.04833147
v 0.00326413 -0.02240844 -0.04180478
v 0.01933779 0.00594837 -0.04000975
v -0.02865079 -0.01542251 -0.04278115
v -0.02581692 -0.01907234 -0.04278115
v -0.02180819 -0.02268035 -0.04278115
v -0.01651486 -0.02551446 -0.04278115
v 0.01809192 0.01289769 -0.04000975
v 0.03027304 0.02280663 -0.05153097
v 0.03278415 0.01421540 -0.05095516
v 0.03278415 -0.02109074 -0.05096017
v 0.03230000 -0.02740735 -0.05166616
v 0.02303021 -0.02908586 -0.04837152
v -0.01319039 -0.02908586 -0.06428642
v -0.02142087 -0.02442160 -0.06553318
v -0.03225284 -0.00402331 -0.06479464
v -0.03252396 0.00280052 -0.06260906
v -0.03249814 0.00491826 -0.05316577
v -0.03131037 -0.00995822 -0.05196408
v -0.03102633 -0.01084192 -0.04519205
v -0.03273699 -0.00173302 -0.06042599
v -0.03293710 -0.00203630 -0.05377162
v -0.03205918 -0.00656983 -0.06042599
v -0.01170567 -0.02673804 -0.04278115
v -0.00699331 -0.02726617 -0.04278115
v -0.00129330 -0.02749102 -0.04278115
v 0.00535564 -0.02713022 -0.04278115
v 0.01724628 -0.01907234 -0.04180478
v 0.03278415 -0.01141188 -0.05093263
v 0.03278415 0.00536272 -0.05093513
v -0.02845068 -0.01607090 -0.06321491
v -0.02588147 -0.02005539 -0.06516266
v 0.02779421 -0.02753808 -0.04937794
v 0.01044241 -0.02583866 -0.04278115
v 0.01564537 -0.02908586 -0.04746525
v -0.00754847 -0.02908586 -0.05697864
v -0.03077458 -0.01076871 -0.06265663
v 0.00015269 -0.02908586 -0.05093763
v 0.01015192 -0.02908586 -0.04759543
f 1 2 3
f 1 3 4
f 1 4 5
f 1 5 6
f 1 6 2
f 2 6 7
f 2 7 8
f 2 8 9
f 2 9 10
f 2 10 11
f 2 11 12
f 2 12 13
f 2 13 3
f 3 13 14
f 3 14 15
f 3 15 16
f 3 16 4
f 4 16 17
f 4 17 18
f 4 18 40
f 4 40 20
f 4 20 19
f 4 19 5
f 5 19 7
f 5 7 6
f 7 19 8
f 8 19 9
f 9 19 20
f 9 20 10
f 10 21 22
f 10 22 11
f 10 20 23
f 10 23 21
f 11 24 12
f 11 22 25
f 11 25 26
f 11 26 24
f 12 27 28
f 12 28 13
f 12 24 29
f 12 29 30
f 12 30 31
f 12 31 32
f 12 32 27
f 13 28 33
f 13 33 34
f 13 34 15
f 13 15 14
f 15 34 16
f 16 35 55
f 16 55 54
f 16 54 36
f 16 36 18
f 16 18 17
f 16 34 35
f 18 36 37
f 18 37 38
f 18 38 60
f 18 60 64
f 18 64 63
f 18 63 61
f 18 61 39
f 18 39 40
f 20 40 41
f 20 41 23
f 21 42 43
f 21 43 22
f 21 23 42
f 22 43 42
f 22 42 25
f 23 41 42
f 24 26 44
f 24 44 45
f 24 45 29
f 25 42 46
f 25 46 47
f 25 47 26
f 26 48 44
f 26 47 48
f 27 32 49
f 27 49 50
f 27 50 51
f 27 51 52
f 27 52 53
f 27 53 28
f 28 53 36
f 28 36 54
f 28 54 55
f 28 55 35
f 28 35 33
f 29 56 57
f 29 57 30
f 29 45 56
f 30 57 40
f 30 40 31
f 31 40 39
f 31 39 32
f 32 39 49
f 33 35 34
f 36 53 37
f 37 53 58
f 37 58 38
f 38 58 53
f 38 53 59
f 38 59 52
f 38 52 60
f 39 61 49
f 40 57 41
f 41 62 48
f 41 48 46
f 41 46 42
f 41 57 56
f 41 56 62
f 44 62 56
f 44 56 45
f 44 48 62
f 46 48 47
f 49 61 50
f 50 61 63
f 50 63 64
f 50 64 51
f 51 64 60
f 51 60 52
f 52 59 53

