# https://github.com/mikedh/trimesh
v 0.07786441 -0.03275400 -0.03730621
v 0.12469182 -0.02702038 -0.03723469
v 0.09176469 -0.03451120 -0.03723866
v 0.08656736 -0.03772264 -0.03569318
v 0.07958185 -0.03866941 -0.03036145
v 0.07944677 -0.03616994 -0.01982910
v 0.07786441 -0.02588425 -0.00551448
v 0.07786441 0.02620313 -0.00557011
v 0.07947893 0.03300471 -0.03730224
v 0.12469182 0.02711960 -0.03723469
v 0.13473912 -0.01911297 -0.03635269
v 0.12828749 -0.02824739 -0.03547069
v 0.11811797 -0.03104224 -0.03684137
v 0.09389379 -0.03844219 -0.03442580
v 0.08660596 -0.03843461 -0.02789026
v 0.08642585 -0.03610177 -0.02013502
v 0.12762496 -0.02444517 -0.01791810
v 0.07786441 -0.01485630 0.00138260
v 0.09355288 -0.03545040 -0.01972580
v 0.10199854 -0.03545797 -0.02166859
v 0.11365392 -0.03324633 -0.02205397
v 0.07786441 0.01718233 0.00047279
v 0.12767642 0.02454439 -0.01796578
v 0.10540767 0.03497399 -0.02116402
v 0.08316466 0.03635249 -0.02035751
v 0.07991633 0.03870805 -0.03284853
v 0.09051038 0.03507245 -0.03721880
v 0.10637252 0.03483008 -0.03683342
v 0.11818872 0.03053554 -0.03686521
v 0.12828749 0.02834661 -0.03547466
v 0.13473912 0.01921220 -0.03635269
v 0.14232927 -0.01175848 -0.02905037
v 0.13875290 -0.01930990 -0.02759626
v 0.13259715 -0.02611148 -0.03019856
v 0.14307543 0.00264754 -0.03401261
v 0.14304326 -0.00514625 -0.03395302
v 0.12245336 -0.03226168 -0.03027405
v 0.11367966 -0.03529892 -0.03372656
v 0.10398612 -0.03736665 -0.03135469
v 0.09519312 -0.03790442 -0.02808494
v 0.12143062 -0.03142853 -0.02335710
v 0.12813311 -0.02842159 -0.02415567
v 0.13495782 -0.02271069 -0.02263005
v 0.13742784 -0.01596213 -0.01914575
v 0.13884939 -0.00718369 -0.01651962
v 0.07786441 -0.00687315 0.00296384
v 0.07786441 0.00685877 0.00297178
v 0.13953764 0.00318531 -0.01667456
v 0.13743427 0.01606135 -0.01914972
v 0.13495139 0.02281749 -0.02263005
v 0.12820387 0.02850567 -0.02427088
v 0.11649058 0.03304259 -0.02330148
v 0.10385748 0.03721594 -0.02955494
v 0.09774033 0.03605709 -0.02173613
v 0.08934613 0.03841265 -0.03343256
v 0.11153769 0.03592833 -0.03195858
v 0.12252411 0.03234576 -0.03043694
v 0.13258429 0.02619556 -0.03019856
v 0.14197550 0.01288779 -0.03137059
v 0.14357072 -0.00307851 -0.02266580
v 0.14304326 0.00833573 -0.02384578
v 0.07786441 -0.00005643 0.00328168
v 0.13874003 0.01939398 -0.02759626
f 1 2 3
f 1 3 4
f 1 4 5
f 1 5 6
f 1 6 7
f 1 7 18
f 1 18 46
f 1 46 62
f 1 62 47
f 1 47 22
f 1 22 8
f 1 8 9
f 1 9 10
f 1 10 2
f 2 11 12
f 2 12 13
f 2 13 3
f 2 10 31
f 2 31 11
f 3 13 4
f 4 14 5
f 4 13 14
f 5 14 15
f 5 15 6
f 6 15 16
f 6 16 7
f 7 17 18
f 7 16 19
f 7 19 20
f 7 20 21
f 7 21 17
f 8 22 23
f 8 23 24
f 8 24 25
f 8 25 26
f 8 26 9
f 9 26 27
f 9 27 10
f 10 27 28
f 10 28 29
f 10 29 30
f 10 30 31
f 11 32 33
f 11 33 34
f 11 34 12
f 11 31 35
f 11 35 36
f 11 36 32
f 12 34 37
f 12 37 38
f 12 38 13
f 13 38 14
f 14 38 39
f 14 39 40
f 14 40 15
f 15 40 16
f 16 40 20
f 16 20 19
f 17 21 41
f 17 41 42
f 17 42 43
f 17 43 44
f 17 44 45
f 17 45 18
f 18 45 46
f 20 40 39
f 20 39 21
f 21 39 38
f 21 38 41
f 22 47 48
f 22 48 23
f 23 48 49
f 23 49 50
f 23 50 51
f 23 51 52
f 23 52 24
f 24 52 53
f 24 53 54
f 24 54 25
f 25 54 26
f 26 55 27
f 26 54 53
f 26 53 55
f 27 55 28
f 28 30 29
f 28 55 56
f 28 56 30
f 30 56 57
f 30 57 58
f 30 58 31
f 31 58 59
f 31 59 35
f 32 44 33
f 32 36 60
f 32 60 44
f 33 43 34
f 33 44 43
f 34 42 37
f 34 43 42
f 35 59 61
f 35 61 60
f 35 60 36
f 37 42 41
f 37 41 38
f 44 60 45
f 45 60 48
f 45 48 62
f 45 62 46
f 47 62 48
f 48 61 49
f 48 60 61
f 49 63 50
f 49 61 63
f 50 58 51
f 50 63 58
f 51 57 52
f 51 58 57
f 52 57 56
f 52 56 53
f 53 56 55
f 58 63 59
f 59 63 61

