# https://github.com/mikedh/trimesh
v -0.05468344 0.05008503 -0.07469231
v -0.05635403 0.04477026 -0.07621226
v -0.05836355 0.03214378 -0.07677794
v -0.05632194 -0.04056768 -0.07660085
v -0.05138236 -0.05225810 -0.07483004
v -0.04973583 0.05399570 -0.07554328
v -0.05072856 0.05225878 -0.08276427
v -0.05229286 0.05038665 -0.08307908
v -0.05216050 0.04489507 -0.09466807
v -0.05653854 0.02682901 -0.10605538
v -0.05741695 0.02908597 -0.09799326
v -0.05804468 0.03050046 -0.09031974
v -0.05761951 0.03838421 -0.07768794
v -0.05830539 0.03214378 -0.08311351
v -0.05854004 0.02252311 -0.09032957
v -0.05895919 0.00846133 -0.08655676
v -0.05898927 0.00108722 -0.08655676
v -0.05878672 -0.02488339 -0.08129843
v -0.05805671 -0.03494089 -0.08067372
v -0.05231693 -0.04918988 -0.08566643
v -0.05054405 -0.05208128 -0.08351686
v -0.03883386 -0.03566894 -0.12494405
v -0.03850095 0.03426553 -0.12493422
v -0.05058617 0.04880574 -0.09172655
v -0.05064834 0.04363658 -0.10194316
v -0.05482984 0.02177426 -0.11771323
v -0.05587872 0.02320956 -0.11218436
v -0.05756135 0.01947570 -0.10270067
v -0.05816902 0.02003734 -0.09667007
v -0.05855809 0.00902297 -0.09412699
v -0.05861023 0.00000554 -0.09384661
v -0.05895117 -0.00904309 -0.08655676
v -0.05857012 -0.02257443 -0.08990163
v -0.05845981 -0.03006295 -0.08337421
v -0.05805671 -0.03104062 -0.08960157
v -0.05709607 -0.03081180 -0.09747185
v -0.05049793 -0.04982432 -0.08936547
v -0.05154280 -0.04578884 -0.09493369
v -0.04799104 -0.04294945 -0.10808198
v -0.04623822 -0.03658420 -0.11938075
v -0.04464383 -0.03370320 -0.12464400
v -0.05397749 0.00708844 -0.12332573
v -0.05091307 0.02447845 -0.12274529
v -0.04692611 0.03732334 -0.11815594
v -0.04874912 0.04148363 -0.10917890
v -0.05477569 0.01581464 -0.11972507
v -0.05589075 0.00831572 -0.11556858
v -0.05762151 0.00944940 -0.10343851
v -0.05795443 0.00126403 -0.10086591
v -0.05760547 -0.01019757 -0.10353197
v -0.05863029 -0.01396263 -0.09236601
v -0.05777193 -0.02434255 -0.09914921
v -0.05063430 -0.04148294 -0.10529295
v -0.05627180 -0.02587146 -0.10819511
v -0.04838211 -0.03899717 -0.11395026
v -0.05155283 -0.02325048 -0.12255346
v -0.05369271 -0.01555394 -0.12258789
v -0.05436055 -0.00788861 -0.12242556
v -0.05437258 -0.00037928 -0.12219929
v -0.05711813 0.00211689 -0.10767371
v -0.05578647 -0.00943831 -0.11613426
v -0.05604718 0.00056718 -0.11471761
v -0.05750720 -0.01974543 -0.10308435
v -0.05541745 -0.02061909 -0.11581453
f 1 2 3
f 1 3 4
f 1 4 5
f 1 5 6
f 1 6 7
f 1 7 8
f 1 8 9
f 1 9 10
f 1 10 2
f 2 10 11
f 2 11 12
f 2 12 13
f 2 13 3
f 3 13 14
f 3 14 15
f 3 15 16
f 3 16 17
f 3 17 18
f 3 18 4
f 4 18 19
f 4 19 20
f 4 20 5
f 5 20 21
f 5 21 22
f 5 22 6
f 6 23 7
f 6 22 23
f 7 23 24
f 7 24 8
f 8 24 9
f 9 24 25
f 9 25 10
f 10 26 27
f 10 27 28
f 10 28 11
f 10 25 26
f 11 28 29
f 11 29 12
f 12 14 13
f 12 29 15
f 12 15 14
f 15 29 30
f 15 30 16
f 16 30 31
f 16 31 17
f 17 31 32
f 17 32 18
f 18 32 33
f 18 33 34
f 18 34 19
f 19 34 35
f 19 35 36
f 19 36 20
f 20 37 21
f 20 36 38
f 20 38 37
f 21 37 39
f 21 39 22
f 22 39 40
f 22 40 41
f 22 41 23
f 23 42 43
f 23 43 44
f 23 44 45
f 23 45 24
f 23 41 42
f 24 45 25
f 25 45 26
f 26 46 27
f 26 45 44
f 26 44 43
f 26 43 46
f 27 46 47
f 27 47 28
f 28 47 48
f 28 48 29
f 29 48 30
f 30 48 49
f 30 49 31
f 31 50 51
f 31 51 32
f 31 49 50
f 32 51 33
f 33 52 35
f 33 35 34
f 33 51 52
f 35 52 36
f 36 53 38
f 36 52 54
f 36 54 53
f 37 38 53
f 37 53 39
f 39 53 55
f 39 55 40
f 40 55 41
f 41 55 56
f 41 56 57
f 41 57 42
f 42 46 43
f 42 57 58
f 42 58 59
f 42 59 46
f 46 59 47
f 47 60 48
f 47 59 58
f 47 58 61
f 47 61 62
f 47 62 60
f 48 60 49
f 49 60 50
f 50 61 63
f 50 63 51
f 50 60 61
f 51 63 52
f 52 63 54
f 53 54 55
f 54 63 64
f 54 64 55
f 55 64 56
f 56 64 57
f 57 64 58
f 58 64 61
f 60 62 61
f 61 64 63

