# https://github.com/mikedh/trimesh
v -0.04680467 -0.05731823 -0.06869447
v -0.04680467 -0.06048047 -0.06769694
v -0.04680467 -0.04560784 -0.03582095
v -0.01298556 -0.06423463 -0.05146612
v -0.02945483 -0.06294273 -0.06442761
v -0.03220909 -0.06667664 -0.06258700
v -0.03674766 -0.06606445 -0.06336572
v -0.04561955 -0.06314529 -0.06528677
v -0.04606314 -0.06318130 -0.05852608
v -0.04669543 -0.06131097 -0.05102206
v -0.04680467 -0.05492349 -0.03582095
v -0.01298556 -0.06134924 -0.03582095
v -0.01299881 -0.06833091 -0.04694505
v -0.01357151 -0.06806082 -0.05151439
v -0.01742151 -0.06613197 -0.05725824
v -0.02852130 -0.06723707 -0.06126446
v -0.03674766 -0.06681169 -0.06164095
v -0.04050497 -0.06580562 -0.06256769
v -0.04168347 -0.06504714 -0.05605799
v -0.04239521 -0.06416261 -0.05148221
v -0.04344792 -0.06294048 -0.04702227
v -0.04351082 -0.06216624 -0.04301605
v -0.04640411 -0.06086984 -0.04768837
v -0.04605983 -0.06002808 -0.04277150
v -0.04530175 -0.05938888 -0.03779992
v -0.03855183 -0.06348965 -0.03619100
v -0.03424168 -0.06478155 -0.03619100
v -0.01856029 -0.06660912 -0.03631328
v -0.01357482 -0.06705251 -0.03768408
v -0.01430311 -0.06773672 -0.04249798
v -0.01642177 -0.06819812 -0.04697079
v -0.01981162 -0.06840518 -0.05035596
v -0.01924885 -0.06860099 -0.05373792
v -0.02545586 -0.06836467 -0.05712631
v -0.02884572 -0.06818236 -0.05712631
v -0.03233820 -0.06771871 -0.05844241
v -0.03674766 -0.06681619 -0.05825578
v -0.04086250 -0.06386777 -0.04437077
v -0.03911129 -0.06570209 -0.05346440
v -0.03896232 -0.06512816 -0.04809704
v -0.04163051 -0.06259162 -0.03906454
v -0.03836314 -0.06426615 -0.04028732
v -0.03508583 -0.06522944 -0.04012321
v -0.03178205 -0.06587764 -0.04004598
v -0.03019967 -0.06555129 -0.03636477
v -0.02545255 -0.06610272 -0.03631328
v -0.02182766 -0.06641556 -0.03631328
v -0.01783531 -0.06717180 -0.03962766
v -0.02125165 -0.06766470 -0.04450592
v -0.02320148 -0.06818236 -0.05035596
v -0.02320148 -0.06847045 -0.05373792
v -0.02658802 -0.06819136 -0.05373792
v -0.02983884 -0.06779299 -0.05385054
v -0.03448665 -0.06705251 -0.05486738
v -0.03448665 -0.06673516 -0.05148221
v -0.03448665 -0.06631878 -0.04753391
v -0.03682380 -0.06538024 -0.04462498
v -0.03222896 -0.06637055 -0.04414874
v -0.02771687 -0.06714479 -0.04499503
v -0.02771687 -0.06648759 -0.04019079
v -0.02320148 -0.06692422 -0.04019079
v -0.02423101 -0.06774122 -0.04704480
v -0.02695217 -0.06773672 -0.04941957
v -0.03110011 -0.06716505 -0.04922650
f 1 2 11
f 1 11 3
f 1 3 4
f 1 4 5
f 1 5 2
f 2 5 6
f 2 6 7
f 2 7 8
f 2 8 9
f 2 9 10
f 2 10 11
f 3 11 12
f 3 12 4
f 4 12 13
f 4 13 14
f 4 14 15
f 4 15 5
f 5 15 16
f 5 16 6
f 6 16 17
f 6 17 7
f 7 17 18
f 7 18 8
f 8 18 9
f 9 18 19
f 9 19 20
f 9 20 21
f 9 21 22
f 9 22 10
f 10 23 24
f 10 24 11
f 10 22 23
f 11 24 25
f 11 25 26
f 11 26 27
f 11 27 12
f 12 27 28
f 12 28 29
f 12 29 13
f 13 29 30
f 13 30 31
f 13 31 32
f 13 32 33
f 13 33 14
f 14 33 15
f 15 33 16
f 16 33 34
f 16 34 17
f 17 34 35
f 17 35 36
f 17 36 37
f 17 37 18
f 18 37 19
f 19 38 20
f 19 37 39
f 19 39 40
f 19 40 38
f 20 38 21
f 21 38 41
f 21 41 22
f 22 25 24
f 22 24 23
f 22 41 25
f 25 41 26
f 26 42 43
f 26 43 27
f 26 41 38
f 26 38 42
f 27 43 44
f 27 44 45
f 27 45 46
f 27 46 47
f 27 47 28
f 28 47 48
f 28 48 29
f 29 48 30
f 30 48 49
f 30 49 31
f 31 49 32
f 32 49 50
f 32 50 51
f 32 51 33
f 33 51 34
f 34 51 35
f 35 51 52
f 35 52 53
f 35 53 36
f 36 54 37
f 36 53 54
f 37 54 55
f 37 55 39
f 38 40 42
f 39 55 56
f 39 56 57
f 39 57 40
f 40 57 42
f 42 57 43
f 43 56 58
f 43 58 44
f 43 57 56
f 44 59 60
f 44 60 45
f 44 58 59
f 45 60 46
f 46 60 61
f 46 61 47
f 47 61 48
f 48 61 49
f 49 61 62
f 49 62 50
f 50 62 63
f 50 63 52
f 50 52 51
f 52 63 53
f 53 63 64
f 53 64 54
f 54 64 55
f 55 64 56
f 56 64 58
f 58 64 59
f 59 63 62
f 59 62 61
f 59 61 60
f 59 64 63

