# https://github.com/mikedh/trimesh
v -0.04362342 0.04433961 -0.02678308
v -0.04056212 0.05268774 -0.02681818
v -0.05089760 0.04294825 -0.03344025
v -0.04981287 0.02495914 -0.02858484
v -0.05060350 -0.00727598 -0.02888318
v -0.04841304 -0.03598960 -0.02839765
v -0.03976767 0.02721240 -0.03377954
v -0.04059458 0.06529613 -0.06131496
v -0.04286526 0.06306749 -0.04752678
v -0.04372464 0.05761289 -0.03417734
v -0.05380613 0.03922976 -0.04133175
v -0.05325994 0.02860375 -0.03454588
v -0.04950159 0.05561820 -0.04385889
v -0.05301932 0.04759021 -0.04613450
v -0.05202435 0.01338503 -0.03122899
v -0.05306133 0.00017332 -0.03225272
v -0.05329241 -0.01424506 -0.03310680
v -0.05228407 -0.02941453 -0.03358065
v -0.04860592 -0.04883194 -0.03216497
v -0.04773508 -0.06049223 -0.05273903
v -0.05880009 0.02026793 -0.08654552
v -0.05049656 0.05443617 -0.07467610
v -0.04809411 0.06186083 -0.06363737
v -0.05101791 -0.05395409 -0.07441871
v -0.05795216 -0.02203912 -0.08625303
v -0.05570822 0.04043643 -0.05414300
v -0.05532437 0.03102939 -0.04442049
v -0.05561465 0.02030487 -0.04256607
v -0.05523079 0.01004824 -0.03955338
v -0.05148198 0.05554433 -0.05499123
v -0.05506847 0.04845211 -0.06359057
v -0.05554017 -0.00376681 -0.04069996
v -0.05582663 -0.01691696 -0.04309256
v -0.05531100 -0.02995630 -0.04390569
v -0.05301741 -0.04022524 -0.03875780
v -0.05144188 -0.05108519 -0.04417479
v -0.05319119 -0.05223029 -0.05593891
v -0.05124135 -0.05759870 -0.06505889
v -0.05909609 0.00929716 -0.08353283
v -0.05927752 0.00423657 -0.07595138
v -0.05855946 0.02515614 -0.06912456
v -0.05771917 0.03629930 -0.07042324
v -0.05572732 0.04794728 -0.07257599
v -0.05769435 0.02840675 -0.08403592
v -0.05906363 0.00043189 -0.08510060
v -0.05610545 -0.04623392 -0.07252334
v -0.05800373 -0.03576797 -0.07832058
v -0.05912474 -0.00859345 -0.08281915
v -0.05735824 0.03453856 -0.06153141
v -0.05758740 0.02369091 -0.05598571
v -0.05745181 0.01008518 -0.05166265
v -0.05755876 -0.00922141 -0.05238803
v -0.05787768 -0.02036456 -0.05725514
v -0.05715198 -0.03333003 -0.05868836
v -0.05558791 -0.03731940 -0.05021187
v -0.05570822 -0.04542127 -0.06198185
v -0.05920113 -0.00901209 -0.07405016
v -0.05866640 -0.01197949 -0.06304653
v -0.05856328 0.01290483 -0.06212809
v -0.05759313 -0.03659294 -0.06808913
v -0.05871033 -0.02625012 -0.07665337
v -0.05805529 -0.00036845 -0.05620216
v -0.05852890 -0.02356591 -0.06656816
f 1 2 3
f 1 3 4
f 1 4 5
f 1 5 6
f 1 6 2
f 2 7 8
f 2 8 9
f 2 9 10
f 2 10 3
f 2 6 7
f 3 11 12
f 3 12 4
f 3 10 13
f 3 13 14
f 3 14 11
f 4 12 15
f 4 15 16
f 4 16 5
f 5 16 17
f 5 17 6
f 6 17 18
f 6 18 19
f 6 19 7
f 7 19 20
f 7 20 8
f 8 21 22
f 8 22 23
f 8 23 9
f 8 20 24
f 8 24 25
f 8 25 21
f 9 23 13
f 9 13 10
f 11 14 26
f 11 26 27
f 11 27 12
f 12 27 28
f 12 28 29
f 12 29 16
f 12 16 15
f 13 23 30
f 13 30 14
f 14 31 26
f 14 30 31
f 16 29 17
f 17 29 32
f 17 32 33
f 17 33 34
f 17 34 35
f 17 35 18
f 18 35 19
f 19 36 20
f 19 35 36
f 20 36 37
f 20 37 38
f 20 38 24
f 21 39 40
f 21 40 41
f 21 41 42
f 21 42 43
f 21 43 44
f 21 44 22
f 21 25 45
f 21 45 39
f 22 43 23
f 22 44 43
f 23 43 30
f 24 38 46
f 24 46 47
f 24 47 25
f 25 48 45
f 25 47 48
f 26 31 49
f 26 49 27
f 27 49 50
f 27 50 28
f 28 50 51
f 28 51 29
f 29 51 32
f 30 43 31
f 31 43 42
f 31 42 49
f 32 52 33
f 32 51 52
f 33 52 53
f 33 53 34
f 34 54 55
f 34 55 35
f 34 53 54
f 35 55 37
f 35 37 36
f 37 55 56
f 37 56 46
f 37 46 38
f 39 45 48
f 39 48 40
f 40 48 57
f 40 57 58
f 40 58 59
f 40 59 41
f 41 59 50
f 41 50 49
f 41 49 42
f 46 56 60
f 46 60 47
f 47 60 61
f 47 61 48
f 48 61 57
f 50 59 51
f 51 59 62
f 51 62 52
f 52 58 53
f 52 62 58
f 53 63 54
f 53 58 63
f 54 60 56
f 54 56 55
f 54 63 60
f 57 61 63
f 57 63 58
f 58 62 59
f 60 63 61

