# https://github.com/mikedh/trimesh
v -0.02772650 0.03056975 -0.13831459
v -0.02054546 0.02733344 -0.14576054
v -0.03438555 0.02677060 -0.13877415
v -0.03791268 0.01939509 -0.13894284
v 0.02625433 -0.02932548 -0.14040877
v 0.03776039 -0.01354846 -0.14024588
v 0.03023633 0.02745069 -0.14076215
v 0.02057959 0.02747415 -0.14546968
v 0.00846206 0.02613155 -0.14958676
v -0.02859150 0.01917230 -0.14481234
v -0.02839016 0.02563906 -0.14304102
v 0.00110205 0.02537523 -0.15031827
v -0.00637726 0.02461892 -0.15023829
v -0.01346882 0.01958270 -0.15028046
v -0.03381882 -0.00796699 -0.14355584
v -0.02914332 -0.02425995 -0.14313700
v -0.02851693 0.01129845 -0.14626081
v -0.03471365 0.00255689 -0.14329698
v 0.01949833 -0.02806496 -0.14565292
v 0.03485964 -0.02087706 -0.14051057
v -0.02211887 -0.02904406 -0.14391796
v 0.03795427 -0.00704652 -0.14093812
v 0.03826746 -0.00025143 -0.14099048
v 0.03793935 0.00687783 -0.14094539
v 0.03035564 -0.01280387 -0.14516864
v 0.03508335 0.01838667 -0.14105301
v 0.02456906 0.02037419 -0.14646005
v 0.01378631 0.02209202 -0.14973219
v 0.00500949 0.01931887 -0.15157914
v -0.02050072 0.01259415 -0.14935699
v -0.00466962 0.01742516 -0.15185545
v -0.01133613 0.01188474 -0.15178855
v -0.02984427 -0.01593465 -0.14485452
v -0.02669744 0.00084492 -0.14769910
v -0.02235750 -0.00675337 -0.14922610
v -0.02376686 -0.01860226 -0.14721192
v -0.01771928 -0.02480519 -0.14783871
v -0.00584782 -0.02496349 -0.15011031
v 0.00614295 -0.02459999 -0.15025283
v 0.01263049 -0.02335120 -0.14970747
v 0.02421112 -0.02120538 -0.14649641
v 0.03093729 -0.00224482 -0.14570818
v 0.03087017 0.00639121 -0.14559475
v 0.03094474 0.01291660 -0.14488360
v 0.02215301 -0.01292113 -0.14897306
v 0.02235434 0.00980928 -0.14916357
v 0.01096759 0.01397192 -0.15163731
v -0.00195530 0.01018450 -0.15273238
v -0.01731660 0.00205268 -0.15097851
v -0.00673520 0.00434507 -0.15281673
v -0.01390132 -0.00519971 -0.15175801
v -0.01466939 -0.01391196 -0.15081709
v -0.00357345 -0.01706032 -0.15194125
v 0.00550911 -0.01579980 -0.15207650
v 0.01862587 -0.01867848 -0.14919847
v 0.01252609 -0.01372434 -0.15140462
v 0.02302547 -0.00333531 -0.14929882
v 0.01517331 -0.00336463 -0.15158350
v 0.01433067 0.00367083 -0.15176674
v 0.00749265 0.00109703 -0.15279638
v 0.00086343 -0.00159404 -0.15317158
v -0.00497536 -0.00653645 -0.15286036
v 0.00390586 -0.00872330 -0.15282255
f 1 2 3
f 1 3 4
f 1 4 5
f 1 5 6
f 1 6 7
f 1 7 8
f 1 8 9
f 1 9 2
f 2 10 11
f 2 11 3
f 2 9 12
f 2 12 13
f 2 13 14
f 2 14 10
f 3 11 4
f 4 15 16
f 4 16 5
f 4 11 10
f 4 10 17
f 4 17 18
f 4 18 15
f 5 19 20
f 5 20 6
f 5 16 21
f 5 21 19
f 6 22 23
f 6 23 24
f 6 24 7
f 6 20 25
f 6 25 22
f 7 24 26
f 7 26 27
f 7 27 8
f 8 28 9
f 8 27 28
f 9 28 29
f 9 29 12
f 10 14 30
f 10 30 17
f 12 31 13
f 12 29 31
f 13 31 14
f 14 32 30
f 14 31 32
f 15 33 16
f 15 18 34
f 15 34 35
f 15 35 33
f 16 33 36
f 16 36 37
f 16 37 21
f 17 34 18
f 17 30 34
f 19 21 38
f 19 38 39
f 19 39 40
f 19 40 41
f 19 41 20
f 20 41 25
f 21 37 38
f 22 25 42
f 22 42 23
f 23 42 43
f 23 43 24
f 24 44 26
f 24 43 44
f 25 41 45
f 25 45 42
f 26 44 27
f 27 44 46
f 27 46 28
f 28 47 29
f 28 46 47
f 29 47 48
f 29 48 31
f 30 32 49
f 30 49 34
f 31 48 32
f 32 48 50
f 32 50 49
f 33 35 36
f 34 49 35
f 35 49 51
f 35 51 52
f 35 52 36
f 36 52 37
f 37 52 38
f 38 52 53
f 38 53 39
f 39 54 40
f 39 53 54
f 40 55 41
f 40 54 56
f 40 56 55
f 41 55 45
f 42 45 57
f 42 57 43
f 43 57 46
f 43 46 44
f 45 55 56
f 45 56 58
f 45 58 57
f 46 57 59
f 46 59 47
f 47 60 48
f 47 59 60
f 48 61 50
f 48 60 61
f 49 50 51
f 50 61 62
f 50 62 51
f 51 62 52
f 52 62 53
f 53 62 63
f 53 63 54
f 54 63 56
f 56 63 58
f 57 58 59
f 58 63 60
f 58 60 59
f 60 63 61
f 61 63 62

