# https://github.com/mikedh/trimesh
v -0.05256869 -0.01194275 -0.12538804
v -0.05229374 -0.00509874 -0.12634943
v -0.04955763 -0.01076391 -0.12936296
v -0.05110340 -0.01792453 -0.12604179
v -0.05015783 -0.02279482 -0.12514507
v -0.05019807 0.02289703 -0.12504369
v -0.05217303 0.00844782 -0.12631273
v -0.05220991 0.00171832 -0.12654870
v -0.04906808 -0.00449922 -0.13044322
v -0.04456489 -0.01112767 -0.13478696
v -0.04406528 -0.01783022 -0.13410001
v -0.04794479 -0.02023505 -0.12922487
v -0.04707635 -0.02711274 -0.12644557
v -0.04323372 -0.03335049 -0.12671826
v -0.03881436 -0.03439461 -0.12517828
v -0.04795486 -0.01409835 -0.12494405
v -0.03882106 0.03442272 -0.12518003
v -0.04323037 0.03352681 -0.12662736
v -0.04708305 0.02706676 -0.12649102
v -0.04672427 0.02175861 -0.12994504
v -0.05104975 0.01815473 -0.12606101
v -0.05150241 0.01363472 -0.12656094
v -0.04895407 0.00903387 -0.13030862
v -0.04907143 0.00451386 -0.13044846
v -0.04829016 -0.00004657 -0.13146404
v -0.04502091 -0.00449922 -0.13486562
v -0.04103074 -0.00901249 -0.13824972
v -0.03905578 -0.01469113 -0.13913595
v -0.03984040 -0.02208078 -0.13651222
v -0.04348185 -0.02476180 -0.13198319
v -0.04373668 -0.02912014 -0.12919341
v -0.03966939 -0.03163949 -0.13168603
v -0.03561552 -0.03376140 -0.13256003
v -0.01831362 -0.02744282 -0.14264940
v -0.02687404 0.02984209 -0.13813435
v -0.03562222 0.03378278 -0.13260722
v -0.03995440 0.03166087 -0.13142733
v -0.04374003 0.02913478 -0.12919166
v -0.04200984 0.02479665 -0.13342528
v -0.04556746 0.01775055 -0.13264917
v -0.04821304 0.01474619 -0.13045545
v -0.04479625 0.01114905 -0.13457021
v -0.04504438 0.00226396 -0.13489184
v -0.04123528 0.00226396 -0.13842102
v -0.04120175 -0.00449922 -0.13839481
v -0.03710429 -0.00886429 -0.14135415
v -0.03564570 -0.01326305 -0.14187504
v -0.03360367 -0.01813335 -0.14231204
v -0.03420052 -0.02540848 -0.13956770
v -0.03738594 -0.02767185 -0.13610669
v -0.03328177 -0.03144414 -0.13692999
v -0.02405745 -0.02980724 -0.14276827
v -0.02407086 0.01786507 -0.14280148
v -0.03455594 0.01525815 -0.14227184
v -0.03526344 0.02970063 -0.13660487
v -0.03815715 0.02278925 -0.13766065
v -0.04133587 0.01861279 -0.13640035
v -0.04045401 0.01106148 -0.13850318
v -0.03651414 0.00227069 -0.14215123
v -0.03718141 -0.00276801 -0.14165130
v -0.03662815 0.00860949 -0.14170724
v -0.03111233 -0.02282850 -0.14249208
v -0.02841980 -0.00118499 -0.14280148
v -0.02984151 -0.02858798 -0.14100455
f 1 2 3
f 1 3 4
f 1 4 5
f 1 5 6
f 1 6 7
f 1 7 8
f 1 8 2
f 2 9 3
f 2 8 9
f 3 9 10
f 3 10 11
f 3 11 12
f 3 12 4
f 4 12 5
f 5 13 14
f 5 14 15
f 5 15 16
f 5 16 6
f 5 12 13
f 6 17 18
f 6 18 19
f 6 19 20
f 6 20 21
f 6 21 7
f 6 16 17
f 7 22 23
f 7 23 24
f 7 24 8
f 7 21 22
f 8 24 25
f 8 25 9
f 9 26 10
f 9 25 26
f 10 26 27
f 10 27 28
f 10 28 11
f 11 28 29
f 11 29 30
f 11 30 12
f 12 30 13
f 13 30 31
f 13 31 14
f 14 32 33
f 14 33 15
f 14 31 32
f 15 33 34
f 15 34 17
f 15 17 16
f 17 35 36
f 17 36 18
f 17 34 35
f 18 37 38
f 18 38 19
f 18 36 37
f 19 38 20
f 20 38 39
f 20 39 40
f 20 40 21
f 21 40 41
f 21 41 22
f 22 41 23
f 23 41 42
f 23 42 43
f 23 43 24
f 24 43 25
f 25 43 26
f 26 43 44
f 26 44 45
f 26 45 27
f 27 46 28
f 27 45 46
f 28 47 48
f 28 48 29
f 28 46 47
f 29 49 50
f 29 50 30
f 29 48 49
f 30 50 32
f 30 32 31
f 32 51 33
f 32 50 51
f 33 51 52
f 33 52 34
f 34 52 53
f 34 53 35
f 35 53 54
f 35 54 55
f 35 55 36
f 36 55 37
f 37 55 39
f 37 39 38
f 39 56 57
f 39 57 40
f 39 55 56
f 40 57 42
f 40 42 41
f 42 57 58
f 42 58 44
f 42 44 43
f 44 59 60
f 44 60 45
f 44 58 61
f 44 61 59
f 45 60 46
f 46 60 47
f 47 60 59
f 47 59 48
f 48 62 49
f 48 59 63
f 48 63 62
f 49 62 64
f 49 64 50
f 50 64 51
f 51 64 52
f 52 64 62
f 52 62 63
f 52 63 53
f 53 63 54
f 54 63 59
f 54 59 61
f 54 61 58
f 54 58 57
f 54 57 56
f 54 56 55

