# https://github.com/mikedh/trimesh
v 0.02450369 0.02950610 -0.13958126
v 0.04405080 0.03623024 -0.12054130
v 0.04120811 0.03623024 -0.12568460
v 0.02860495 0.03103109 -0.13908924
v 0.03782479 0.01757573 -0.13933906
v 0.03131102 0.01654015 -0.13961559
v 0.02513443 -0.02983368 -0.13958317
v 0.04285617 -0.03608259 -0.12013510
v 0.04984082 0.02539927 -0.12016942
v 0.05146563 0.02172511 -0.12360974
v 0.04783524 0.02719379 -0.12495993
v 0.04354214 0.03218015 -0.12712252
v 0.03908336 0.03352781 -0.13061241
v 0.03268005 0.03138574 -0.13744346
v 0.03460133 0.02720798 -0.13829019
v 0.04127497 0.01726364 -0.13638886
v 0.03903395 0.01302913 -0.13934287
v 0.04004836 0.00069446 -0.13961559
v 0.03695571 0.02227836 -0.13845610
v 0.03156681 -0.01432845 -0.13961559
v 0.03308407 -0.02728730 -0.13942488
v 0.03119476 -0.03122390 -0.13808423
v 0.03751378 -0.03418876 -0.13119025
v 0.04121102 -0.03621735 -0.12568651
v 0.04801545 -0.03273470 -0.12075870
v 0.05405834 0.01297948 -0.12272677
v 0.05419496 -0.01239916 -0.12260854
v 0.05039598 0.01595853 -0.12703289
v 0.04786431 0.02198755 -0.12790631
v 0.04326310 0.02722926 -0.13034733
v 0.03793524 0.03052040 -0.13397072
v 0.04639064 0.01723526 -0.13128942
v 0.04391419 0.01044729 -0.13532091
v 0.04098140 0.02481765 -0.13385439
v 0.04378630 0.02128535 -0.13258812
v 0.04071689 0.00651779 -0.13874025
v 0.04390838 0.00000644 -0.13610280
v 0.04054540 -0.00405074 -0.13907970
v 0.03710685 -0.02113061 -0.13873644
v 0.03710685 -0.02656382 -0.13657384
v 0.03751960 -0.03086216 -0.13419957
v 0.04225450 -0.03172041 -0.12886937
v 0.04763177 -0.02910310 -0.12399687
v 0.05093953 -0.02491116 -0.12238160
v 0.05274745 -0.02042840 -0.12257612
v 0.05397115 0.00677313 -0.12335610
v 0.05230274 0.00145341 -0.12606601
v 0.04942517 0.01044729 -0.12920883
v 0.05108486 -0.01438519 -0.12656375
v 0.05029134 -0.00901582 -0.12839261
v 0.05043668 -0.00449759 -0.12858141
v 0.05398277 -0.00487352 -0.12336373
v 0.04824217 0.00471617 -0.13124365
v 0.04706789 -0.00472457 -0.13261672
v 0.04383862 -0.00477422 -0.13603034
v 0.04759108 0.00000644 -0.13214949
v 0.04110929 -0.00938465 -0.13811665
v 0.04019079 -0.01430008 -0.13806897
v 0.04116451 -0.02484023 -0.13368085
v 0.04330380 -0.01913039 -0.13387156
v 0.04495477 -0.02476930 -0.12977331
v 0.04786431 -0.02198176 -0.12790822
v 0.04798057 -0.01778273 -0.12936139
v 0.04590524 -0.01170405 -0.13305343
f 1 2 3
f 1 3 4
f 1 4 5
f 1 5 6
f 1 6 7
f 1 7 8
f 1 8 2
f 2 9 10
f 2 10 11
f 2 11 12
f 2 12 3
f 2 8 9
f 3 12 13
f 3 13 14
f 3 14 4
f 4 14 15
f 4 15 5
f 5 16 17
f 5 17 18
f 5 18 6
f 5 15 19
f 5 19 16
f 6 18 20
f 6 20 7
f 7 21 22
f 7 22 23
f 7 23 24
f 7 24 8
f 7 20 18
f 7 18 21
f 8 24 25
f 8 25 9
f 9 26 10
f 9 25 27
f 9 27 26
f 10 26 28
f 10 28 29
f 10 29 11
f 11 29 30
f 11 30 12
f 12 31 13
f 12 30 31
f 13 31 14
f 14 31 15
f 15 31 19
f 16 32 33
f 16 33 17
f 16 19 34
f 16 34 35
f 16 35 32
f 17 33 36
f 17 36 18
f 18 36 37
f 18 37 38
f 18 38 39
f 18 39 21
f 19 31 34
f 21 39 40
f 21 40 41
f 21 41 22
f 22 41 23
f 23 41 42
f 23 42 24
f 24 42 25
f 25 42 43
f 25 43 44
f 25 44 45
f 25 45 27
f 26 46 47
f 26 47 48
f 26 48 28
f 26 27 46
f 27 45 49
f 27 49 50
f 27 50 51
f 27 51 52
f 27 52 46
f 28 48 32
f 28 32 29
f 29 32 35
f 29 35 30
f 30 35 34
f 30 34 31
f 32 48 33
f 33 48 53
f 33 53 37
f 33 37 36
f 37 54 55
f 37 55 38
f 37 53 56
f 37 56 54
f 38 55 57
f 38 57 58
f 38 58 39
f 39 59 40
f 39 58 60
f 39 60 59
f 40 59 41
f 41 59 42
f 42 59 61
f 42 61 43
f 43 61 62
f 43 62 44
f 44 62 45
f 45 62 63
f 45 63 49
f 46 52 47
f 47 53 48
f 47 52 51
f 47 51 53
f 49 63 64
f 49 64 50
f 50 54 51
f 50 64 54
f 51 54 56
f 51 56 53
f 54 64 55
f 55 64 57
f 57 64 58
f 58 64 60
f 59 60 61
f 60 64 63
f 60 63 62
f 60 62 61

