# https://github.com/mikedh/trimesh
v -0.05053333 -0.02382209 -0.03712542
v -0.04578377 -0.05801622 -0.03517441
v -0.04585700 -0.05567975 -0.03117484
v -0.05014625 -0.01806801 -0.02863023
v -0.04984286 -0.00905248 -0.02828258
v -0.04986902 -0.00550874 -0.03479770
v 0.00290440 -0.06133773 -0.03534876
v -0.03815205 -0.06349401 -0.03537262
v -0.04265576 -0.06110349 -0.03517856
v -0.04165145 -0.06058094 -0.03168231
v -0.04115452 -0.05802824 -0.02895402
v -0.04334099 -0.05518723 -0.02867382
v -0.04600870 -0.05196182 -0.02935044
v -0.04983240 -0.01355724 -0.02832097
v -0.04617608 -0.04721081 -0.02820059
v -0.04679854 -0.04060383 -0.02762152
v -0.04849855 -0.02318542 -0.02775436
v -0.04933025 -0.00552676 -0.02866759
v -0.04714378 -0.02033240 -0.02689612
v -0.04651608 -0.01566547 -0.02672904
v -0.04646377 -0.00550874 -0.03159099
v -0.00023930 -0.04714474 -0.03369766
v 0.00290440 -0.05164349 -0.03410758
v 0.00167517 -0.06504365 -0.03035916
v 0.00167517 -0.06686357 -0.03493572
v -0.02019476 -0.06630498 -0.03517856
v 0.00290440 -0.04826192 -0.03001773
v 0.00286779 -0.04965539 -0.02684734
v -0.02989787 -0.06506167 -0.03367483
v -0.03386280 -0.06438896 -0.03372880
v -0.03661943 -0.06188431 -0.03035293
v -0.03792713 -0.05536142 -0.02677262
v -0.03170249 -0.05912139 -0.02718150
v -0.04111791 -0.05084464 -0.02676432
v -0.04351884 -0.04405147 -0.02669167
v -0.04642716 -0.03286164 -0.02689612
v -0.04601392 -0.02033240 -0.02658167
v -0.04465392 -0.02146160 -0.02652875
v 0.00168040 -0.06021454 -0.02704452
v -0.00654240 -0.06184827 -0.02778652
v -0.01021441 -0.06303753 -0.02855448
v -0.01415320 -0.06388442 -0.02938780
v -0.00993195 -0.06604070 -0.03192619
v -0.00541255 -0.06611879 -0.03191374
v -0.00749440 -0.06674345 -0.03494402
v -0.01415320 -0.06630498 -0.03372257
v -0.02488677 -0.06562026 -0.03355756
v -0.01298673 -0.05758977 -0.02652356
v -0.01020395 -0.05899526 -0.02658063
v -0.03222557 -0.06280929 -0.02982990
v -0.03335542 -0.05682096 -0.02658167
v -0.02773755 -0.06313964 -0.02954451
v -0.02546216 -0.05995027 -0.02713377
v -0.02545693 -0.05820242 -0.02657337
v -0.03335542 -0.05532538 -0.02652563
v -0.04528684 -0.02937196 -0.02655988
v -0.04498346 -0.02490924 -0.02653913
v -0.01188303 -0.06011244 -0.02685668
v -0.01642336 -0.06007640 -0.02690961
v -0.02319723 -0.06336788 -0.02937016
v -0.02094276 -0.06002235 -0.02699367
v -0.01811290 -0.06451509 -0.03036953
v -0.02094276 -0.05823846 -0.02655573
v -0.01754798 -0.05893519 -0.02658167
f 1 2 3
f 1 3 4
f 1 4 5
f 1 5 6
f 1 6 7
f 1 7 8
f 1 8 2
f 2 8 9
f 2 9 10
f 2 10 3
f 3 10 11
f 3 11 12
f 3 12 13
f 3 13 4
f 4 14 5
f 4 13 15
f 4 15 16
f 4 16 17
f 4 17 14
f 5 18 6
f 5 14 19
f 5 19 20
f 5 20 18
f 6 18 21
f 6 21 22
f 6 22 23
f 6 23 7
f 7 24 25
f 7 25 26
f 7 26 8
f 7 23 27
f 7 27 28
f 7 28 24
f 8 26 29
f 8 29 30
f 8 30 10
f 8 10 9
f 10 30 31
f 10 31 11
f 11 32 12
f 11 31 33
f 11 33 32
f 12 32 34
f 12 34 15
f 12 15 13
f 14 17 19
f 15 34 35
f 15 35 16
f 16 36 17
f 16 35 36
f 17 36 19
f 18 20 28
f 18 28 21
f 19 36 37
f 19 37 20
f 20 37 38
f 20 38 28
f 21 27 22
f 21 28 27
f 22 27 23
f 24 28 39
f 24 39 40
f 24 40 41
f 24 41 42
f 24 42 43
f 24 43 44
f 24 44 25
f 25 44 45
f 25 45 26
f 26 46 47
f 26 47 29
f 26 45 46
f 28 38 48
f 28 48 49
f 28 49 39
f 29 47 50
f 29 50 30
f 30 50 31
f 31 50 33
f 32 33 51
f 32 51 34
f 33 50 52
f 33 52 53
f 33 53 54
f 33 54 51
f 34 51 55
f 34 55 35
f 35 55 56
f 35 56 36
f 36 56 37
f 37 56 57
f 37 57 38
f 38 57 55
f 38 55 48
f 39 49 58
f 39 58 40
f 40 58 59
f 40 59 41
f 41 60 42
f 41 59 61
f 41 61 53
f 41 53 60
f 42 62 43
f 42 60 62
f 43 47 46
f 43 46 45
f 43 45 44
f 43 62 47
f 47 62 52
f 47 52 50
f 48 55 63
f 48 63 64
f 48 64 49
f 49 64 58
f 51 54 55
f 52 62 60
f 52 60 53
f 53 61 54
f 54 61 64
f 54 64 63
f 54 63 55
f 55 57 56
f 58 64 59
f 59 64 61

