# https://github.com/mikedh/trimesh
v 0.00397105 0.06870932 -0.04894349
v 0.00616473 0.06825234 -0.04447407
v 0.01067463 0.06845734 -0.04695708
v 0.01123224 0.06714618 -0.05150865
v -0.02979808 0.06728712 -0.06150790
v -0.01584557 0.06870078 -0.05147504
v -0.00470561 0.06846588 -0.04653889
v 0.00166708 0.06797473 -0.04206573
v 0.00743314 0.06725295 -0.03761125
v 0.01152637 0.06767150 -0.04099412
v 0.01933291 0.06695826 -0.03849617
v 0.02283177 0.06176915 -0.03981423
v -0.03976154 0.02507807 -0.03312690
v -0.03263516 0.06421209 -0.06467047
v -0.03017187 0.06789785 -0.05553000
v -0.02432002 0.06838900 -0.05415595
v -0.03572959 0.06645857 -0.06267659
v -0.01311266 0.06809432 -0.04472424
v -0.02203443 0.06787223 -0.04640074
v -0.00738337 0.06780816 -0.04139364
v -0.00287346 0.06763306 -0.03973955
v 0.01519679 0.06638169 -0.03398195
v -0.00738337 0.06692837 -0.03567338
v -0.00069204 0.06655680 -0.03369818
v 0.02098124 0.06511751 -0.03111808
v 0.02283177 0.05971486 -0.03519171
v -0.03976154 0.02549662 -0.02833263
v -0.03976767 0.05647754 -0.03537094
v -0.03928972 0.06279843 -0.06368473
v -0.02738381 0.06737680 -0.04643434
v -0.03709604 0.06672336 -0.05798688
v -0.03420382 0.06681732 -0.05147504
v -0.03222461 0.06648419 -0.04471304
v -0.01810665 0.06763306 -0.04271169
v -0.01408082 0.06704368 -0.03754778
v -0.02347441 0.06692837 -0.04019508
v 0.00968809 0.06503637 -0.03037878
v -0.01862136 0.06656534 -0.03588248
v -0.02377466 0.06573252 -0.03347788
v -0.01599263 0.06539085 -0.03114049
v 0.01936968 0.06093206 -0.02750372
v 0.01519679 0.06390459 -0.02938931
v 0.00274554 0.04970820 -0.02685776
v -0.03976154 0.03088219 -0.02652545
v -0.03976154 0.05006696 -0.02653292
v -0.03865245 0.06370386 -0.03731628
v -0.03915491 0.06525845 -0.04943636
v -0.03076011 0.06592898 -0.03911973
v -0.03626882 0.06516877 -0.04182677
v -0.01657475 0.06271301 -0.02841851
v -0.03191210 0.06478866 -0.03384753
v -0.02996353 0.06302052 -0.02965815
v 0.00474313 0.06172217 -0.02770161
v 0.00954716 0.06048789 -0.02704072
v -0.01300849 0.05900162 -0.02658519
v -0.01924025 0.05860870 -0.02657025
v -0.02527592 0.05827131 -0.02657399
v -0.03610950 0.05574295 -0.02670094
v -0.03792327 0.06062028 -0.02969175
v -0.01357836 0.06011632 -0.02687270
v -0.02194252 0.06120540 -0.02780990
v -0.03171602 0.05914683 -0.02717140
f 1 2 3
f 1 3 4
f 1 4 5
f 1 5 6
f 1 6 7
f 1 7 2
f 2 7 8
f 2 8 9
f 2 9 10
f 2 10 3
f 3 10 11
f 3 11 4
f 4 11 12
f 4 12 13
f 4 13 14
f 4 14 5
f 5 15 16
f 5 16 6
f 5 14 17
f 5 17 15
f 6 18 7
f 6 16 19
f 6 19 18
f 7 18 20
f 7 20 8
f 8 20 21
f 8 21 9
f 9 22 10
f 9 21 23
f 9 23 24
f 9 24 22
f 10 22 11
f 11 22 25
f 11 25 12
f 12 25 26
f 12 26 13
f 13 26 27
f 13 27 28
f 13 28 29
f 13 29 14
f 14 29 17
f 15 30 16
f 15 17 31
f 15 31 32
f 15 32 33
f 15 33 30
f 16 30 19
f 17 29 31
f 18 19 34
f 18 34 35
f 18 35 20
f 19 30 36
f 19 36 34
f 20 23 21
f 20 35 23
f 22 24 37
f 22 37 25
f 23 35 38
f 23 38 39
f 23 39 40
f 23 40 24
f 24 40 37
f 25 41 26
f 25 37 42
f 25 42 41
f 26 41 43
f 26 43 27
f 27 44 28
f 27 43 44
f 28 44 45
f 28 45 46
f 28 46 47
f 28 47 29
f 29 47 31
f 30 33 48
f 30 48 36
f 31 47 32
f 32 47 49
f 32 49 33
f 33 49 48
f 34 36 38
f 34 38 35
f 36 39 38
f 36 48 39
f 37 40 50
f 37 50 42
f 39 48 51
f 39 51 52
f 39 52 40
f 40 52 50
f 41 42 53
f 41 53 54
f 41 54 43
f 42 50 53
f 43 54 55
f 43 55 44
f 44 55 56
f 44 56 45
f 45 56 57
f 45 57 58
f 45 58 59
f 45 59 46
f 46 49 47
f 46 59 51
f 46 51 49
f 48 49 51
f 50 60 53
f 50 52 61
f 50 61 60
f 51 59 52
f 52 59 62
f 52 62 61
f 53 60 54
f 54 60 55
f 55 60 56
f 56 60 57
f 57 62 58
f 57 60 62
f 58 62 59
f 60 61 62

