# https://github.com/mikedh/trimesh
v 0.05074000 -0.05626865 -0.07180521
v 0.04623139 -0.02585250 -0.03450973
v 0.05207729 -0.05796614 -0.06488321
v 0.04782978 -0.06233171 -0.06276053
v 0.03919465 -0.06620148 -0.05993766
v 0.03159753 -0.06573929 -0.06365126
v -0.01297908 -0.06586114 -0.05206289
v 0.04076757 -0.02585250 -0.03372092
v 0.04542901 -0.02742814 -0.02663939
v 0.05105203 -0.05828967 -0.05576319
v 0.03958948 -0.02585250 -0.02862027
v 0.04661984 -0.06180230 -0.04970090
v 0.04449290 -0.06407542 -0.05598920
v 0.03776183 -0.06623930 -0.05395071
v 0.03139375 -0.06781074 -0.05799667
v -0.00285382 -0.06877713 -0.05034790
v -0.01269888 -0.06838637 -0.04750731
v -0.01297908 -0.06104599 -0.03535614
v 0.00291567 -0.04895348 -0.02843414
v 0.04193293 -0.04770978 -0.02666598
v 0.04607855 -0.03649542 -0.02697175
v 0.00398550 -0.05881909 -0.02659507
v 0.03326597 -0.05568462 -0.02654190
v 0.04973384 -0.05757118 -0.04557961
v 0.04546722 -0.05949136 -0.03660582
v 0.04435280 -0.06224768 -0.04355441
v 0.04109234 -0.06318466 -0.03904758
v 0.03930928 -0.06528971 -0.04866393
v 0.03710592 -0.06512165 -0.04247756
v 0.03157206 -0.06688636 -0.04725472
v 0.02741370 -0.06782334 -0.05054289
v 0.02649032 -0.06833596 -0.05571001
v 0.00166115 -0.06851243 -0.04697110
v -0.00708223 -0.06841999 -0.04668749
v 0.02028144 -0.06852503 -0.05175712
v 0.00843680 -0.06845780 -0.04682929
v -0.01129790 -0.06784435 -0.04262380
v -0.00982688 -0.06714687 -0.03766939
v 0.00318313 -0.06455862 -0.03000290
v 0.04559458 -0.05169299 -0.02900581
v 0.04479857 -0.04223075 -0.02704265
v 0.03855785 -0.05488629 -0.02695846
v 0.01309824 -0.06155019 -0.02765863
v 0.00957032 -0.05901657 -0.02658178
v 0.01803987 -0.05877287 -0.02657735
v 0.01972741 -0.06004598 -0.02695402
v 0.02580894 -0.05996195 -0.02732184
v 0.04247422 -0.05814681 -0.03019345
v 0.03439949 -0.06136532 -0.02936033
v 0.03344427 -0.06502500 -0.03656594
v 0.02846443 -0.06644518 -0.04047896
v 0.02620376 -0.06729393 -0.04471547
v 0.00167389 -0.06734435 -0.03792641
v 0.01919249 -0.06785696 -0.04481739
v 0.01521244 -0.06841578 -0.04810113
v 0.01097766 -0.06771830 -0.04132094
v 0.01422539 -0.06647460 -0.03442996
v 0.01521881 -0.06505022 -0.03040173
v 0.00943022 -0.06481072 -0.03017129
v 0.02903119 -0.06379391 -0.03056126
v 0.02479004 -0.06591577 -0.03483323
v 0.01997577 -0.06682333 -0.03798845
v 0.00655184 -0.06723090 -0.03750099
f 1 2 3
f 1 3 4
f 1 4 5
f 1 5 6
f 1 6 7
f 1 7 8
f 1 8 2
f 2 9 10
f 2 10 3
f 2 8 11
f 2 11 9
f 3 10 4
f 4 10 12
f 4 12 13
f 4 13 5
f 5 14 15
f 5 15 6
f 5 13 14
f 6 15 16
f 6 16 7
f 7 16 17
f 7 17 18
f 7 18 8
f 8 18 19
f 8 19 11
f 9 20 21
f 9 21 10
f 9 11 19
f 9 19 22
f 9 22 23
f 9 23 20
f 10 21 24
f 10 24 12
f 12 24 25
f 12 25 26
f 12 26 13
f 13 26 27
f 13 27 28
f 13 28 14
f 14 28 29
f 14 29 30
f 14 30 15
f 15 30 31
f 15 31 32
f 15 32 16
f 16 33 34
f 16 34 17
f 16 32 35
f 16 35 36
f 16 36 33
f 17 37 18
f 17 34 37
f 18 37 38
f 18 38 39
f 18 39 22
f 18 22 19
f 20 40 41
f 20 41 21
f 20 23 42
f 20 42 40
f 21 41 40
f 21 40 24
f 22 39 43
f 22 43 44
f 22 44 23
f 23 44 45
f 23 45 46
f 23 46 47
f 23 47 42
f 24 40 25
f 25 40 48
f 25 48 27
f 25 27 26
f 27 49 50
f 27 50 29
f 27 29 28
f 27 48 49
f 29 50 30
f 30 51 52
f 30 52 31
f 30 50 51
f 31 52 35
f 31 35 32
f 33 36 53
f 33 53 34
f 34 53 37
f 35 52 54
f 35 54 55
f 35 55 36
f 36 55 56
f 36 56 53
f 37 53 38
f 38 53 57
f 38 57 58
f 38 58 59
f 38 59 39
f 39 59 43
f 40 42 48
f 42 47 49
f 42 49 48
f 43 58 46
f 43 46 44
f 43 59 58
f 44 46 45
f 46 58 47
f 47 58 60
f 47 60 49
f 49 60 50
f 50 60 61
f 50 61 51
f 51 61 52
f 52 61 62
f 52 62 54
f 53 56 63
f 53 63 57
f 54 56 55
f 54 62 56
f 56 62 57
f 56 57 63
f 57 62 61
f 57 61 58
f 58 61 60

