# https://github.com/mikedh/trimesh
v 0.00275695 0.04843860 -0.02861834
v 0.00275695 0.05192903 -0.02652626
v 0.00275695 0.05165167 -0.03411392
v 0.04698835 0.01227839 -0.03389156
v 0.04508272 0.01227839 -0.03010790
v 0.04740340 0.01352385 -0.02709650
v 0.04569412 0.01921738 -0.02657289
v 0.04343592 0.02486905 -0.02652985
v 0.01182548 0.04856942 -0.02652148
v 0.01182548 0.05759639 -0.02652148
v 0.00276587 0.05849124 -0.02658245
v 0.00275695 0.05971054 -0.03469253
v 0.03088636 0.06066818 -0.03873203
v 0.04816655 0.01809228 -0.02734516
v 0.04834953 0.04666460 -0.03873442
v 0.04758638 0.02270781 -0.02710966
v 0.04630108 0.02824435 -0.02669124
v 0.04410089 0.03831269 -0.02655496
v 0.03779040 0.05195519 -0.02652148
v 0.01972474 0.05793130 -0.02653702
v 0.00956727 0.05903548 -0.02658126
v 0.03088636 0.05534096 -0.02652148
v 0.00617996 0.05971054 -0.02671156
v 0.02476777 0.06573898 -0.03375528
v 0.03109165 0.06568142 -0.03763339
v 0.03976745 0.06361961 -0.03826101
v 0.04826920 0.05578053 -0.03873203
v 0.04476585 0.05433098 -0.03873442
v 0.04814870 0.03390125 -0.02789627
v 0.04814870 0.03051548 -0.02769663
v 0.04814870 0.02712448 -0.02755556
v 0.04598421 0.03502635 -0.02683350
v 0.04343592 0.04193394 -0.02655735
v 0.04071804 0.05426819 -0.02706064
v 0.03491185 0.05705739 -0.02673906
v 0.04187392 0.04772167 -0.02666255
v 0.02545059 0.05894128 -0.02678209
v 0.01747100 0.05971054 -0.02679883
v 0.01069638 0.05971054 -0.02673189
v 0.02297371 0.06255730 -0.02857291
v 0.02297371 0.06491216 -0.03109416
v 0.03176108 0.06482843 -0.03353412
v 0.02865046 0.06548256 -0.03455146
v 0.03518409 0.06490169 -0.03770034
v 0.03515285 0.06398592 -0.03309418
v 0.04003968 0.06262010 -0.03431834
v 0.04373493 0.06128568 -0.03725681
v 0.04743910 0.05603172 -0.03454310
v 0.04777382 0.05345183 -0.03206249
v 0.04634571 0.05894651 -0.03724845
v 0.04666257 0.04243631 -0.02780183
v 0.04704638 0.03845921 -0.02763925
v 0.04698835 0.04624072 -0.02856813
v 0.04508718 0.05412166 -0.02947908
v 0.04305658 0.05727194 -0.02959743
v 0.03857140 0.05678527 -0.02720768
v 0.03105148 0.05940702 -0.02720290
v 0.02184014 0.05986229 -0.02694109
v 0.03119876 0.06267242 -0.02949223
v 0.02649490 0.06325330 -0.02946593
v 0.03998167 0.06026524 -0.03000150
v 0.04386435 0.05996695 -0.03385450
v 0.04699728 0.05031202 -0.02964525
v 0.03490739 0.06068388 -0.02855976
f 1 2 12
f 1 12 3
f 1 3 4
f 1 4 5
f 1 5 6
f 1 6 2
f 2 6 7
f 2 7 8
f 2 8 9
f 2 9 10
f 2 10 11
f 2 11 12
f 3 12 13
f 3 13 4
f 4 14 6
f 4 6 5
f 4 13 15
f 4 15 14
f 6 14 16
f 6 16 17
f 6 17 7
f 7 17 18
f 7 18 8
f 8 18 19
f 8 19 9
f 9 19 22
f 9 22 10
f 10 20 21
f 10 21 11
f 10 22 20
f 11 21 23
f 11 23 12
f 12 23 24
f 12 24 25
f 12 25 13
f 13 25 26
f 13 26 27
f 13 27 28
f 13 28 15
f 14 15 29
f 14 29 30
f 14 30 31
f 14 31 16
f 15 28 27
f 15 27 29
f 16 31 17
f 17 30 32
f 17 32 18
f 17 31 30
f 18 32 33
f 18 33 19
f 19 34 35
f 19 35 22
f 19 33 36
f 19 36 34
f 20 22 35
f 20 35 37
f 20 37 38
f 20 38 21
f 21 38 39
f 21 39 23
f 23 39 40
f 23 40 41
f 23 41 24
f 24 41 42
f 24 42 43
f 24 43 25
f 25 43 42
f 25 42 44
f 25 44 26
f 26 44 45
f 26 45 46
f 26 46 47
f 26 47 27
f 27 48 49
f 27 49 29
f 27 47 50
f 27 50 48
f 29 51 52
f 29 52 32
f 29 32 30
f 29 49 53
f 29 53 51
f 32 52 51
f 32 51 33
f 33 51 36
f 34 36 51
f 34 51 53
f 34 53 54
f 34 54 55
f 34 55 56
f 34 56 35
f 35 56 57
f 35 57 37
f 37 57 58
f 37 58 38
f 38 58 40
f 38 40 39
f 40 59 60
f 40 60 41
f 40 58 57
f 40 57 59
f 41 60 59
f 41 59 42
f 42 45 44
f 42 59 45
f 45 59 61
f 45 61 46
f 46 61 62
f 46 62 47
f 47 62 50
f 48 50 62
f 48 62 49
f 49 62 55
f 49 55 54
f 49 54 63
f 49 63 53
f 53 63 54
f 55 62 61
f 55 61 56
f 56 61 64
f 56 64 57
f 57 64 59
f 59 64 61

