# https://github.com/mikedh/trimesh
v 0.04919550 0.05757286 -0.07068997
v 0.04929332 0.06127442 -0.06516206
v 0.05177796 0.05803684 -0.06775381
v 0.04519659 0.05369185 -0.03874012
v 0.01180457 0.06362637 -0.04923236
v 0.01909025 0.06588786 -0.05851396
v 0.02867275 0.06403490 -0.06355830
v 0.03553192 0.06639706 -0.06294951
v 0.04620219 0.06328933 -0.06480722
v 0.05065889 0.05944334 -0.05804779
v 0.05170362 0.05856792 -0.06277208
v 0.04813512 0.06224759 -0.06054561
v 0.05121843 0.05790844 -0.05374096
v 0.03089132 0.05932661 -0.03515341
v 0.02417300 0.05960091 -0.03515341
v 0.01180457 0.06230887 -0.03981509
v 0.04782601 0.05854604 -0.04079612
v 0.04500878 0.06114311 -0.04009339
v 0.03014788 0.06554207 -0.03594311
v 0.01180457 0.06855642 -0.04810173
v 0.01180848 0.06708426 -0.05171974
v 0.01551001 0.06635475 -0.05625270
v 0.02752629 0.06778022 -0.06054561
v 0.03119652 0.06712366 -0.06183279
v 0.03530889 0.06720391 -0.05824957
v 0.04050121 0.06597978 -0.06081696
v 0.04477792 0.06398383 -0.05604049
v 0.04881986 0.06060472 -0.05267643
v 0.04460576 0.06370516 -0.05261729
v 0.04574830 0.06250584 -0.04928802
v 0.04966504 0.05852999 -0.04803911
v 0.02297568 0.06631098 -0.03598138
v 0.01181240 0.06758617 -0.04038910
v 0.04520051 0.06219506 -0.04539518
v 0.04168288 0.06320909 -0.04032300
v 0.03767224 0.06445510 -0.03886536
v 0.02650504 0.06667428 -0.04019428
v 0.02647765 0.06599729 -0.03598138
v 0.03211212 0.06582075 -0.03961331
v 0.01181240 0.06816978 -0.04470636
v 0.01520873 0.06836675 -0.04753468
v 0.01999411 0.06832590 -0.04921149
v 0.02195052 0.06859728 -0.05373748
v 0.01739991 0.06845429 -0.05391838
v 0.02650504 0.06834925 -0.05571348
v 0.03072698 0.06789402 -0.05620052
v 0.03214342 0.06736002 -0.05261381
v 0.03553192 0.06666407 -0.05205024
v 0.04005123 0.06585577 -0.05599178
v 0.04037991 0.06528528 -0.05099962
v 0.04163592 0.06434129 -0.04697110
v 0.02252961 0.06699527 -0.04000642
v 0.01878896 0.06732355 -0.04057000
v 0.01527133 0.06761973 -0.04150929
v 0.03892042 0.06467687 -0.04245554
v 0.03544975 0.06559460 -0.04253903
v 0.02390693 0.06758617 -0.04517601
v 0.02763194 0.06717764 -0.04471332
v 0.03127086 0.06666552 -0.04471332
v 0.01975934 0.06783858 -0.04471680
v 0.02713892 0.06785463 -0.05032124
v 0.03127086 0.06718202 -0.04922888
v 0.03440112 0.06638685 -0.04697110
v 0.03773875 0.06561940 -0.04699893
f 1 2 3
f 1 3 4
f 1 4 5
f 1 5 6
f 1 6 7
f 1 7 8
f 1 8 9
f 1 9 2
f 2 10 11
f 2 11 3
f 2 9 12
f 2 12 10
f 3 11 13
f 3 13 4
f 4 14 15
f 4 15 16
f 4 16 5
f 4 13 17
f 4 17 18
f 4 18 19
f 4 19 14
f 5 16 20
f 5 20 21
f 5 21 22
f 5 22 6
f 6 22 23
f 6 23 7
f 7 23 24
f 7 24 8
f 8 25 26
f 8 26 9
f 8 24 25
f 9 27 12
f 9 26 27
f 10 13 11
f 10 12 28
f 10 28 13
f 12 27 29
f 12 29 30
f 12 30 28
f 13 28 31
f 13 31 17
f 14 19 32
f 14 32 15
f 15 32 16
f 16 33 20
f 16 32 33
f 17 31 28
f 17 28 18
f 18 28 34
f 18 34 35
f 18 35 36
f 18 36 19
f 19 37 38
f 19 38 32
f 19 36 39
f 19 39 37
f 20 33 40
f 20 40 41
f 20 41 42
f 20 42 43
f 20 43 44
f 20 44 21
f 21 44 22
f 22 44 23
f 23 45 46
f 23 46 25
f 23 25 24
f 23 44 43
f 23 43 45
f 25 46 47
f 25 47 48
f 25 48 49
f 25 49 26
f 26 49 27
f 27 49 50
f 27 50 29
f 28 30 34
f 29 50 51
f 29 51 34
f 29 34 30
f 32 38 37
f 32 37 52
f 32 52 53
f 32 53 33
f 33 53 54
f 33 54 40
f 34 51 35
f 35 51 55
f 35 55 36
f 36 55 56
f 36 56 39
f 37 57 52
f 37 39 58
f 37 58 57
f 39 56 59
f 39 59 58
f 40 54 60
f 40 60 41
f 41 60 42
f 42 60 57
f 42 57 61
f 42 61 43
f 43 61 45
f 45 61 46
f 46 61 62
f 46 62 47
f 47 63 48
f 47 62 63
f 48 63 64
f 48 64 49
f 49 64 50
f 50 64 55
f 50 55 51
f 52 60 53
f 52 57 60
f 53 60 54
f 55 64 56
f 56 63 59
f 56 64 63
f 57 58 61
f 58 59 62
f 58 62 61
f 59 63 62

