# https://github.com/mikedh/trimesh
v 0.04909131 -0.01730774 -0.02834958
v 0.04590894 -0.02676624 -0.02840440
v 0.04920904 -0.04480336 -0.03113605
v 0.05445098 -0.00558361 -0.03447980
v 0.05191192 0.00315999 -0.03021332
v 0.04974655 0.04739494 -0.03225063
v 0.04519398 -0.03592777 -0.11901467
v 0.04907254 -0.05439383 -0.03754947
v 0.04795658 0.05603957 -0.04067397
v 0.04520422 0.05755733 -0.05181982
v 0.05498508 -0.04302165 -0.04371624
v 0.05686549 -0.03009870 -0.04365229
v 0.05824081 -0.01350235 -0.04424612
v 0.05492877 0.01325639 -0.03569489
v 0.05197676 0.02908286 -0.03192174
v 0.05680747 0.02931383 -0.04238239
v 0.05389813 0.04345757 -0.04049125
v 0.05477520 0.04977057 -0.05329984
v 0.04676042 -0.02474256 -0.12168237
v 0.05548504 -0.01960638 -0.11689513
v 0.04886095 -0.04011811 -0.10993354
v 0.05079937 -0.04932364 -0.08948731
v 0.05012365 -0.05477877 -0.07453177
v 0.04504723 0.03656167 -0.11875886
v 0.05468134 -0.05067643 -0.05540111
v 0.05212522 0.05590759 -0.06415334
v 0.05139319 0.04805484 -0.09173475
v 0.05802923 -0.04018410 -0.05669841
v 0.06033281 -0.02827300 -0.06094663
v 0.06017412 -0.01812161 -0.05364701
v 0.06061436 -0.00265808 -0.05387541
v 0.05893360 0.01680882 -0.04733407
v 0.05807359 0.03625372 -0.05265119
v 0.05795585 0.04400748 -0.06748796
v 0.04972607 0.02571740 -0.12010185
v 0.05633310 -0.00103034 -0.11738847
v 0.06052051 -0.01500911 -0.09974697
v 0.05871689 -0.02646928 -0.10318208
v 0.05363876 -0.03619174 -0.10575842
v 0.05966904 -0.00421983 -0.10574015
v 0.05853260 -0.04209779 -0.07378262
v 0.04930631 0.04093897 -0.10842611
v 0.05354491 0.03152448 -0.11233630
v 0.05994718 0.03617673 -0.07766540
v 0.05817597 0.02939082 -0.10251516
v 0.06090274 -0.03085758 -0.07476930
v 0.06184806 -0.01805562 -0.07003689
v 0.06213473 -0.00559461 -0.06706771
v 0.06097953 0.01088076 -0.05671668
v 0.06120988 0.02070220 -0.06311184
v 0.06052051 0.03212938 -0.06822797
v 0.05650886 0.02167004 -0.11482127
v 0.05645938 0.01177162 -0.11666673
v 0.05914178 0.00818619 -0.10771351
v 0.06203235 -0.01564701 -0.08647245
v 0.06065190 -0.02853695 -0.08861939
v 0.06168937 -0.00427482 -0.09366243
v 0.06130715 0.01249751 -0.09550789
v 0.06189584 0.02116413 -0.07624019
v 0.06089079 0.02747712 -0.08692924
v 0.05970146 0.01853555 -0.10340135
v 0.06247771 -0.00155825 -0.08361290
v 0.06217056 0.00787824 -0.06831933
v 0.06220640 0.01232153 -0.08506551
f 1 2 3
f 1 3 4
f 1 4 5
f 1 5 6
f 1 6 2
f 2 7 8
f 2 8 3
f 2 6 9
f 2 9 10
f 2 10 7
f 3 8 11
f 3 11 12
f 3 12 4
f 4 12 13
f 4 13 14
f 4 14 5
f 5 14 15
f 5 15 6
f 6 15 16
f 6 16 17
f 6 17 18
f 6 18 9
f 7 19 20
f 7 20 21
f 7 21 22
f 7 22 23
f 7 23 8
f 7 10 24
f 7 24 19
f 8 23 25
f 8 25 11
f 9 18 26
f 9 26 10
f 10 26 27
f 10 27 24
f 11 28 12
f 11 25 28
f 12 28 29
f 12 29 30
f 12 30 13
f 13 30 31
f 13 31 32
f 13 32 14
f 14 32 16
f 14 16 15
f 16 33 17
f 16 32 33
f 17 33 18
f 18 33 34
f 18 34 26
f 19 35 36
f 19 36 20
f 19 24 35
f 20 37 38
f 20 38 39
f 20 39 21
f 20 36 40
f 20 40 37
f 21 39 22
f 22 39 41
f 22 41 23
f 23 41 25
f 24 27 42
f 24 42 43
f 24 43 35
f 25 41 28
f 26 34 27
f 27 34 44
f 27 44 45
f 27 45 43
f 27 43 42
f 28 41 46
f 28 46 29
f 29 46 47
f 29 47 30
f 30 47 48
f 30 48 31
f 31 48 49
f 31 49 32
f 32 49 50
f 32 50 33
f 33 50 51
f 33 51 34
f 34 51 44
f 35 43 52
f 35 52 53
f 35 53 36
f 36 53 54
f 36 54 40
f 37 55 56
f 37 56 38
f 37 40 57
f 37 57 55
f 38 56 41
f 38 41 39
f 40 54 58
f 40 58 57
f 41 56 46
f 43 45 52
f 44 51 59
f 44 59 60
f 44 60 45
f 45 60 61
f 45 61 52
f 46 56 55
f 46 55 47
f 47 55 62
f 47 62 48
f 48 62 63
f 48 63 49
f 49 63 50
f 50 63 59
f 50 59 51
f 52 61 54
f 52 54 53
f 54 61 58
f 55 57 62
f 57 58 64
f 57 64 62
f 58 61 60
f 58 60 64
f 59 63 64
f 59 64 60
f 62 64 63

