# https://github.com/mikedh/trimesh
v 0.01721674 0.03427865 -0.11053521
v 0.00650809 0.03806207 -0.10641065
v 0.01292969 0.03784357 -0.10783723
v 0.02454718 0.03694930 -0.10759847
v 0.02399710 0.03240819 -0.11036808
v 0.00205960 0.03357862 -0.10765219
v -0.00718416 0.03839590 -0.09920610
v -0.00068482 0.04239176 -0.09674092
v 0.02048734 0.03848493 -0.10645243
v 0.02965935 0.03703832 -0.10512732
v 0.03321096 0.03240819 -0.10605251
v -0.00318411 0.03240819 -0.10509747
v -0.00662810 0.04195980 -0.09392357
v -0.00686726 0.03240819 -0.10167129
v -0.01033517 0.03240819 -0.09764223
v -0.01182996 0.03762405 -0.09194187
v -0.00794949 0.04257992 -0.08947668
v 0.00415829 0.04270941 -0.09552922
v 0.00838554 0.04269525 -0.09431752
v 0.03504058 0.03880055 -0.09699759
v 0.03886724 0.03636358 -0.09826898
v 0.04112137 0.03240819 -0.09810781
v -0.01250560 0.04022287 -0.08452244
v -0.01280455 0.03240819 -0.09304613
v -0.01518426 0.03240819 -0.08387779
v -0.00794949 0.04274077 -0.08463585
v 0.02108525 0.04274279 -0.07617782
v 0.01927357 0.04268715 -0.08675483
v 0.04168341 0.03849100 -0.08463585
v 0.04053542 0.03707171 -0.09418620
v 0.02351279 0.04266085 -0.08160958
v 0.04551605 0.03240819 -0.08887978
v -0.01261322 0.04031088 -0.07943091
v -0.01520219 0.03240819 -0.07719852
v -0.00794949 0.04264871 -0.07315155
v -0.00431417 0.04266490 -0.06649019
v 0.00052894 0.04269019 -0.06165532
v -0.01166254 0.04084602 -0.07479899
v 0.02110319 0.04143276 -0.05306597
v 0.00355439 0.04240896 -0.05801425
v 0.04193454 0.03829677 -0.07768797
v 0.04548615 0.03462766 -0.08402702
v 0.04282543 0.03693109 -0.08927971
v 0.04588078 0.03364437 -0.07772379
v 0.04509751 0.03240819 -0.07053118
v -0.01336659 0.03684005 -0.07254272
v -0.01262518 0.03240819 -0.06788693
v -0.00938448 0.04031594 -0.06708708
v -0.00487621 0.04055266 -0.06124346
v -0.00100172 0.04130428 -0.05848580
v 0.02827817 0.03240819 -0.05220047
v 0.03373115 0.03407835 -0.05630712
v 0.03963257 0.03714960 -0.06545755
v 0.01246930 0.04113534 -0.05193187
v 0.01984159 0.03240819 -0.04965173
v 0.04295099 0.03651735 -0.07108032
v 0.04164156 0.03240819 -0.06381012
v -0.00896594 0.03684005 -0.06314159
v -0.00948015 0.03240819 -0.06260439
v 0.00111490 0.03858811 -0.05483279
v 0.01330638 0.03240819 -0.04956219
v 0.00320162 0.03240819 -0.05236760
v -0.00606606 0.03240819 -0.05838433
v -0.00144418 0.03240819 -0.05484473
f 1 2 3
f 1 3 4
f 1 4 5
f 1 5 6
f 1 6 2
f 2 6 7
f 2 7 8
f 2 8 3
f 3 9 4
f 3 8 9
f 4 10 11
f 4 11 5
f 4 9 10
f 5 11 22
f 5 22 32
f 5 32 45
f 5 45 57
f 5 57 51
f 5 51 55
f 5 55 61
f 5 61 62
f 5 62 64
f 5 64 63
f 5 63 59
f 5 59 47
f 5 47 34
f 5 34 25
f 5 25 24
f 5 24 15
f 5 15 14
f 5 14 12
f 5 12 6
f 6 12 7
f 7 13 8
f 7 12 14
f 7 14 15
f 7 15 16
f 7 16 13
f 8 13 17
f 8 17 18
f 8 18 9
f 9 18 19
f 9 19 20
f 9 20 10
f 10 20 21
f 10 21 11
f 11 21 22
f 13 16 23
f 13 23 17
f 15 24 16
f 16 24 25
f 16 25 23
f 17 23 26
f 17 26 18
f 18 26 27
f 18 27 28
f 18 28 19
f 19 28 20
f 20 29 30
f 20 30 21
f 20 28 31
f 20 31 29
f 21 30 22
f 22 30 32
f 23 33 26
f 23 25 33
f 25 34 33
f 26 35 36
f 26 36 37
f 26 37 27
f 26 33 38
f 26 38 35
f 27 39 31
f 27 31 28
f 27 37 40
f 27 40 39
f 29 41 42
f 29 42 43
f 29 43 30
f 29 31 41
f 30 43 32
f 31 39 41
f 32 43 42
f 32 42 44
f 32 44 45
f 33 34 46
f 33 46 38
f 34 47 46
f 35 38 48
f 35 48 36
f 36 49 50
f 36 50 37
f 36 48 49
f 37 50 40
f 38 46 48
f 39 51 52
f 39 52 53
f 39 53 41
f 39 40 54
f 39 54 55
f 39 55 51
f 40 50 54
f 41 53 56
f 41 56 44
f 41 44 42
f 44 56 45
f 45 56 57
f 46 47 58
f 46 58 48
f 47 59 58
f 48 58 49
f 49 60 50
f 49 58 60
f 50 60 54
f 51 57 52
f 52 57 53
f 53 57 56
f 54 61 55
f 54 60 62
f 54 62 61
f 58 59 63
f 58 63 60
f 60 63 64
f 60 64 62

