# https://github.com/mikedh/trimesh
v 0.05409312 -0.00986776 -0.04351703
v 0.04945766 -0.00986776 -0.04349524
v 0.05094536 -0.00759024 -0.04518949
v 0.05409312 -0.00732961 -0.04536927
v 0.05409312 -0.00986776 0.00944041
v 0.04999187 -0.00872098 -0.04415987
v 0.04714917 -0.00986776 -0.04113093
v 0.05099119 0.00396975 -0.04520039
v 0.04714917 -0.00771855 -0.04132160
v 0.04714917 -0.00471929 -0.04141966
v 0.04714917 -0.00171602 -0.04143055
v 0.05409312 0.00376927 -0.04535837
v 0.05409312 0.01485211 0.00944041
v 0.05409176 0.01485612 0.01028481
v 0.04710539 -0.00986776 0.00944041
v 0.04710539 -0.00986776 -0.03348775
v 0.04710539 -0.00470726 -0.03474618
v 0.04914918 0.00859696 -0.04177921
v 0.04914850 0.01083438 -0.04094570
v 0.04914850 0.01485612 -0.03876116
v 0.04914850 0.01704141 -0.03756811
v 0.04714917 0.00149977 -0.04126167
v 0.04714848 0.00302747 -0.04106555
v 0.04714848 0.00475165 -0.04074958
v 0.04714848 0.00797144 -0.03987795
v 0.04710539 0.00156794 -0.03467536
v 0.05409176 0.01709754 -0.03750818
v 0.05409312 0.01485211 -0.03881019
v 0.05409176 0.03109545 -0.00736585
v 0.05409176 0.03091501 -0.00603661
v 0.05409176 0.03050201 -0.00412990
v 0.05409176 0.02978828 -0.00086126
v 0.05409176 0.02942339 0.00033180
v 0.05409176 0.02703361 0.00559976
v 0.05409176 0.02631988 0.00683095
v 0.05409176 0.02376569 0.01028481
v 0.04713480 0.01485612 0.01028481
v 0.04710539 0.01310387 0.00944041
v 0.04714848 0.01008456 -0.03908802
v 0.04714848 0.01590666 -0.03592834
v 0.04714643 0.02092281 -0.03159194
v 0.04914713 0.02238234 -0.03294843
v 0.04710539 0.00765869 -0.03301380
v 0.05409176 0.02253872 -0.03276865
v 0.05409176 0.02679303 -0.02697226
v 0.05409176 0.02939934 -0.02130661
v 0.05409176 0.02978026 -0.02008087
v 0.05409176 0.03108342 -0.01365254
v 0.04914234 0.03106337 -0.01399575
v 0.04914029 0.03106337 -0.00693548
v 0.04913755 0.02955973 -0.00003865
v 0.04913550 0.02662061 0.00638968
v 0.04913413 0.02370555 0.01028481
v 0.04713480 0.02121953 0.01028481
v 0.04713685 0.02490445 0.00536551
v 0.04713754 0.02766313 -0.00067059
v 0.04713959 0.02907455 -0.00714794
v 0.04710539 0.01310387 -0.02990859
v 0.04714506 0.02490445 -0.02628584
v 0.04914508 0.02662061 -0.02729912
v 0.04914371 0.02955973 -0.02088169
v 0.04714301 0.02766313 -0.02025520
v 0.04714164 0.02907455 -0.01377784
f 1 2 3
f 1 3 4
f 1 4 12
f 1 12 28
f 1 28 13
f 1 13 5
f 1 5 15
f 1 15 16
f 1 16 7
f 1 7 2
f 2 6 3
f 2 7 6
f 3 8 4
f 3 6 9
f 3 9 10
f 3 10 11
f 3 11 8
f 4 8 12
f 5 13 36
f 5 36 14
f 5 14 37
f 5 37 15
f 6 7 9
f 7 16 17
f 7 17 9
f 8 18 19
f 8 19 20
f 8 20 21
f 8 21 12
f 8 11 22
f 8 22 23
f 8 23 24
f 8 24 25
f 8 25 18
f 9 17 10
f 10 17 11
f 11 17 26
f 11 26 22
f 12 21 27
f 12 27 28
f 13 29 30
f 13 30 31
f 13 31 32
f 13 32 33
f 13 33 34
f 13 34 35
f 13 35 36
f 13 28 29
f 14 36 53
f 14 53 54
f 14 54 37
f 15 37 54
f 15 54 38
f 15 38 58
f 15 58 43
f 15 43 26
f 15 26 17
f 15 17 16
f 18 25 19
f 19 25 39
f 19 39 40
f 19 40 20
f 20 40 21
f 21 40 41
f 21 41 42
f 21 42 27
f 22 26 23
f 23 26 24
f 24 26 25
f 25 26 43
f 25 43 39
f 27 42 44
f 27 44 28
f 28 44 45
f 28 45 46
f 28 46 47
f 28 47 48
f 28 48 29
f 29 48 49
f 29 49 50
f 29 50 30
f 30 50 31
f 31 50 51
f 31 51 32
f 32 51 33
f 33 51 34
f 34 51 52
f 34 52 35
f 35 52 36
f 36 52 53
f 38 54 55
f 38 55 56
f 38 56 57
f 38 57 58
f 39 43 40
f 40 43 58
f 40 58 41
f 41 58 59
f 41 59 42
f 42 59 60
f 42 60 44
f 44 60 45
f 45 60 46
f 46 60 61
f 46 61 47
f 47 61 49
f 47 49 48
f 49 61 62
f 49 62 63
f 49 63 57
f 49 57 50
f 50 57 56
f 50 56 51
f 51 56 52
f 52 56 55
f 52 55 53
f 53 55 54
f 57 63 58
f 58 63 62
f 58 62 59
f 59 62 61
f 59 61 60

