# https://github.com/mikedh/trimesh
v -0.01789351 0.02046158 0.00604963
v -0.02022131 0.02046158 0.00604963
v -0.01789351 0.01354516 0.00604963
v -0.00878272 -0.01927776 0.00192910
v -0.00878272 0.02046158 0.00138191
v -0.00878272 0.03061569 -0.01211214
v -0.02022131 0.00975616 0.00604963
v -0.01033347 0.03034504 -0.01211214
v -0.01280011 0.02982380 -0.01211214
v -0.01521860 0.02911713 -0.01211214
v -0.01682757 0.02853575 -0.01211214
v -0.01748482 0.02824005 -0.01211214
v -0.01803906 0.02798945 -0.01211214
v -0.02016868 0.02683671 -0.01211214
v -0.02022131 0.02680163 -0.01211214
v -0.00878272 -0.02057584 0.00192910
v -0.00878272 0.02710736 -0.04255939
v -0.01037713 0.02694196 -0.04255939
v -0.01251235 0.02663123 -0.04255939
v -0.01280011 0.02658612 -0.04255939
v -0.02022131 -0.00917879 0.00349928
v -0.01468340 0.02615510 -0.04255939
v -0.01482672 0.02610999 -0.04255939
v -0.01589377 0.02576918 -0.04255939
v -0.01743332 0.02514770 -0.04255939
v -0.01763822 0.02506250 -0.04255939
v -0.01947448 0.02415034 -0.04255939
v -0.01972529 0.02402504 -0.04255939
v -0.01986861 0.02394485 -0.04255939
v -0.02022131 0.02373435 -0.04255939
v -0.02022131 -0.02057584 0.00192910
v -0.00878272 -0.02057584 -0.04255939
v -0.02022131 -0.02057584 -0.04255939
f 1 2 7
f 1 7 3
f 1 3 16
f 1 16 4
f 1 4 5
f 1 5 6
f 1 6 2
f 2 6 8
f 2 8 9
f 2 9 10
f 2 10 11
f 2 11 12
f 2 12 13
f 2 13 14
f 2 14 15
f 2 15 30
f 2 30 33
f 2 33 31
f 2 31 21
f 2 21 7
f 3 7 16
f 4 16 32
f 4 32 17
f 4 17 6
f 4 6 5
f 6 17 18
f 6 18 19
f 6 19 20
f 6 20 8
f 7 21 16
f 8 20 9
f 9 20 22
f 9 22 10
f 10 22 23
f 10 23 24
f 10 24 11
f 11 24 25
f 11 25 26
f 11 26 12
f 12 26 13
f 13 26 27
f 13 27 28
f 13 28 14
f 14 28 29
f 14 29 30
f 14 30 15
f 16 21 31
f 16 31 33
f 16 33 32
f 17 32 33
f 17 33 30
f 17 30 29
f 17 29 28
f 17 28 27
f 17 27 26
f 17 26 25
f 17 25 24
f 17 24 23
f 17 23 22
f 17 22 20
f 17 20 19
f 17 19 18

