# https://github.com/mikedh/trimesh
v 0.04141615 0.00891685 -0.22623120
v 0.04113250 0.01521006 -0.22623120
v 0.04141615 0.00155905 -0.22623120
v 0.03441356 0.01184319 -0.30497199
v 0.03442538 0.01835666 -0.30443983
v 0.03845556 0.01935046 -0.22775670
v 0.02060339 0.02274880 -0.22623120
v -0.01895385 0.00227752 -0.22623120
v -0.01757697 -0.00340210 -0.26305613
v 0.02091068 -0.00340210 -0.26392532
v 0.03939515 0.00155905 -0.24110485
v 0.03151798 0.01049278 -0.31208508
v 0.03233347 0.01682269 -0.31208508
v 0.02679640 0.02024462 -0.31208508
v 0.02679640 0.02069564 -0.30616933
v 0.03271758 0.02090279 -0.24702948
v 0.03742142 0.01944748 -0.24110485
v 0.03271758 0.02101030 -0.24110485
v 0.03271758 0.02103127 -0.23519796
v 0.03271758 0.02098670 -0.22775670
v 0.01523179 0.02338598 -0.22623120
v -0.01894203 0.00891685 -0.22623120
v -0.01761833 -0.00042331 -0.27908278
v -0.01289085 -0.00340210 -0.28932671
v 0.01946880 -0.00340210 -0.27104729
v 0.03749234 0.00155905 -0.24757937
v 0.02679640 0.00875428 -0.31208508
v 0.02854557 0.01094117 -0.31581016
v 0.00984836 -0.00340210 -0.29247528
v 0.02859284 0.01666536 -0.31607623
v 0.02088113 0.01689349 -0.31683898
v 0.02088113 0.02048586 -0.31208508
v 0.00906833 0.02206703 -0.30026244
v 0.01496587 0.02272782 -0.25886100
v 0.01496587 0.02286417 -0.25293637
v 0.00906833 0.02281173 -0.27069252
v -0.00500776 0.02321292 -0.22623120
v -0.01830973 0.01667061 -0.22623120
v -0.01738787 0.00702889 -0.27659053
v -0.01506549 0.01482198 -0.30026244
v -0.01450410 0.00892210 -0.30026244
v -0.00896112 0.00695809 -0.30988552
v -0.00869520 -0.00340210 -0.29381453
v 0.00314715 0.00537430 -0.31094984
v 0.02088113 0.01044033 -0.31629795
v -0.00159806 0.00984248 -0.31460395
v -0.00176943 0.01779814 -0.31369041
v 0.00906833 0.02147180 -0.30616933
v -0.00870111 0.02088181 -0.29433781
v -0.00869520 0.02129349 -0.28842205
v 0.00314124 0.02220338 -0.28842205
v 0.00314124 0.02242627 -0.28250630
v -0.01316858 0.02163175 -0.22623120
v -0.00277403 0.02202245 -0.28250630
v -0.00869520 0.02171042 -0.27659053
v -0.01759469 0.01783223 -0.23863035
v -0.01656056 0.01395666 -0.27659053
v -0.01539050 0.01482198 -0.29526021
v -0.01332223 0.01930589 -0.29525135
v -0.01001890 0.01912233 -0.30705624
v -0.01263083 0.01482198 -0.30777465
v -0.00868929 0.01482198 -0.31180128
v -0.00277403 0.00537430 -0.31097644
v -0.01091712 0.01982245 -0.30026244
f 1 2 7
f 1 7 21
f 1 21 37
f 1 37 53
f 1 53 38
f 1 38 22
f 1 22 8
f 1 8 3
f 1 3 4
f 1 4 5
f 1 5 2
f 2 6 7
f 2 5 6
f 3 8 9
f 3 9 10
f 3 10 11
f 3 11 4
f 4 12 13
f 4 13 5
f 4 11 12
f 5 13 14
f 5 14 15
f 5 15 16
f 5 16 17
f 5 17 6
f 6 17 16
f 6 16 18
f 6 18 19
f 6 19 20
f 6 20 7
f 7 20 19
f 7 19 18
f 7 18 15
f 7 15 21
f 8 22 23
f 8 23 9
f 9 23 24
f 9 24 43
f 9 43 29
f 9 29 25
f 9 25 10
f 10 25 11
f 11 25 26
f 11 26 12
f 12 27 28
f 12 28 13
f 12 26 25
f 12 25 29
f 12 29 27
f 13 28 30
f 13 30 14
f 14 30 31
f 14 31 32
f 14 32 33
f 14 33 15
f 15 33 34
f 15 34 35
f 15 35 21
f 15 18 16
f 21 35 36
f 21 36 37
f 22 38 39
f 22 39 23
f 23 39 40
f 23 40 41
f 23 41 24
f 24 41 42
f 24 42 43
f 27 29 44
f 27 44 28
f 28 44 45
f 28 45 31
f 28 31 30
f 29 43 44
f 31 45 46
f 31 46 47
f 31 47 32
f 32 47 48
f 32 48 33
f 33 49 50
f 33 50 51
f 33 51 52
f 33 52 36
f 33 36 34
f 33 48 49
f 34 36 35
f 36 52 37
f 37 52 54
f 37 54 55
f 37 55 53
f 38 53 56
f 38 56 57
f 38 57 39
f 39 57 58
f 39 58 40
f 40 58 59
f 40 59 60
f 40 60 61
f 40 61 41
f 41 61 42
f 42 61 62
f 42 62 46
f 42 46 63
f 42 63 43
f 43 63 44
f 44 63 45
f 45 63 46
f 46 62 47
f 47 62 60
f 47 60 48
f 48 60 49
f 49 60 64
f 49 64 50
f 50 64 59
f 50 59 55
f 50 55 54
f 50 54 51
f 51 54 52
f 53 55 59
f 53 59 56
f 56 59 58
f 56 58 57
f 59 64 60
f 60 62 61

