# https://github.com/mikedh/trimesh
v -0.03907646 0.04068434 -0.18097608
v -0.04022673 0.04068434 -0.18827159
v -0.04157737 0.04661082 -0.18397603
v -0.04158479 0.04659494 -0.17048010
v -0.03909130 0.04068434 -0.17346463
v -0.04363302 0.04068434 -0.19582159
v -0.04551055 0.04697862 -0.19213528
v -0.04195585 0.04697134 -0.17721264
v -0.03974436 0.04068434 -0.16766523
v -0.04616361 0.04728027 -0.16591462
v -0.05193723 0.04697531 -0.15280429
v -0.04486492 0.04314384 -0.15868852
v -0.04794468 0.04068434 -0.20239218
v -0.05761437 0.04697002 -0.20671858
v -0.05317655 0.04720750 -0.19978554
v -0.05063853 0.04743109 -0.19417124
v -0.04686119 0.04744234 -0.18662894
v -0.04923595 0.04068434 -0.15108453
v -0.05253091 0.04740529 -0.16025405
v -0.05761437 0.04695877 -0.14771440
v -0.05618952 0.04081466 -0.14489183
v -0.09218927 0.04085765 -0.20588569
v -0.05221181 0.04074850 -0.20669545
v -0.11489042 0.04085765 -0.16974746
v -0.06194829 0.04739339 -0.20547697
v -0.06064218 0.04119635 -0.21214780
v -0.06404846 0.04693231 -0.21053601
v -0.08831546 0.04728953 -0.20169810
v -0.10717247 0.04720089 -0.17157520
v -0.06948813 0.04733187 -0.14517717
v -0.06156239 0.04085765 -0.14169137
v -0.07153635 0.04085765 -0.13818243
v -0.07891293 0.04085765 -0.13777369
v -0.08685350 0.04085765 -0.13866057
v -0.09702041 0.04085765 -0.14243943
v -0.10475319 0.04085765 -0.14851645
v -0.10894611 0.04085765 -0.15285056
v -0.11265667 0.04085765 -0.15776308
v -0.06300209 0.04713408 -0.14643422
v -0.08195557 0.04652747 -0.13993304
v -0.10922070 0.04641567 -0.17743629
v -0.09027463 0.04635018 -0.20747436
v -0.08608171 0.04375574 -0.21366706
v -0.07914298 0.04119635 -0.21655905
v -0.11464552 0.04262985 -0.16403291
v -0.11279025 0.04624434 -0.16860610
v -0.06949555 0.04736560 -0.20924811
v -0.07198904 0.04365915 -0.21521717
v -0.07984798 0.04702691 -0.21164653
v -0.08637113 0.04709835 -0.20750521
v -0.09210022 0.04722867 -0.19793467
v -0.10340255 0.04721809 -0.17908665
v -0.10713537 0.04690321 -0.17709696
v -0.10933201 0.04698457 -0.16109465
v -0.09986269 0.04699053 -0.15021308
v -0.08964383 0.04689659 -0.14339571
v -0.10758063 0.04664786 -0.15453177
v -0.09959553 0.04679406 -0.19026898
v -0.10176992 0.04649307 -0.18892710
v -0.09432655 0.04655591 -0.20040249
v -0.09360671 0.04678943 -0.19980868
v -0.09962521 0.04715524 -0.18662894
f 1 2 3
f 1 3 4
f 1 4 5
f 1 5 9
f 1 9 18
f 1 18 13
f 1 13 6
f 1 6 2
f 2 6 3
f 3 6 7
f 3 7 8
f 3 8 4
f 4 9 5
f 4 8 10
f 4 10 11
f 4 11 12
f 4 12 9
f 6 13 7
f 7 13 14
f 7 14 15
f 7 15 16
f 7 16 17
f 7 17 8
f 8 17 10
f 9 12 18
f 10 19 11
f 10 17 19
f 11 20 21
f 11 21 18
f 11 18 12
f 11 19 20
f 13 22 23
f 13 23 14
f 13 18 24
f 13 24 22
f 14 25 15
f 14 23 26
f 14 26 27
f 14 27 25
f 15 25 16
f 16 25 17
f 17 25 28
f 17 28 29
f 17 29 30
f 17 30 19
f 18 21 31
f 18 31 32
f 18 32 33
f 18 33 34
f 18 34 35
f 18 35 36
f 18 36 37
f 18 37 38
f 18 38 24
f 19 30 39
f 19 39 20
f 20 39 40
f 20 40 32
f 20 32 31
f 20 31 21
f 22 24 41
f 22 41 42
f 22 42 43
f 22 43 44
f 22 44 23
f 23 44 26
f 24 38 45
f 24 45 46
f 24 46 41
f 25 27 47
f 25 47 28
f 26 44 48
f 26 48 27
f 27 49 47
f 27 48 49
f 28 47 50
f 28 50 51
f 28 51 52
f 28 52 29
f 29 53 46
f 29 46 54
f 29 54 55
f 29 55 30
f 29 52 53
f 30 55 56
f 30 56 40
f 30 40 39
f 32 40 33
f 33 40 34
f 34 40 35
f 35 40 56
f 35 56 57
f 35 57 36
f 36 57 37
f 37 57 38
f 38 57 45
f 41 58 59
f 41 59 42
f 41 46 53
f 41 53 58
f 42 59 60
f 42 60 61
f 42 61 50
f 42 50 49
f 42 49 43
f 43 49 44
f 44 49 48
f 45 57 46
f 46 57 54
f 47 49 50
f 50 61 51
f 51 61 58
f 51 58 62
f 51 62 52
f 52 62 53
f 53 62 58
f 54 57 55
f 55 57 56
f 58 61 60
f 58 60 59

