# https://github.com/mikedh/trimesh
v 0.01370467 -0.02058004 -0.04255939
v 0.01776167 -0.01760330 -0.04255939
v 0.03086313 -0.01188751 -0.00339405
v 0.03224560 -0.01204336 0.02429944
v 0.01424046 -0.02058004 -0.02770434
v 0.01137631 -0.01219921 0.00131879
v 0.01137631 -0.01219921 -0.04156216
v 0.01283594 -0.01219921 -0.04255939
v 0.01996877 -0.01309925 -0.04255939
v 0.03229852 -0.00609769 -0.00207918
v 0.03205157 -0.01059786 0.00203532
v 0.03217505 -0.01100696 0.00676294
v 0.03370744 -0.00430932 0.02308060
v 0.03351782 -0.00430932 0.02914524
v 0.03210890 -0.01188751 0.02918218
v 0.03324001 -0.00590288 0.00736128
v 0.02925577 -0.01188751 0.03255799
v 0.02457479 -0.01219921 0.03289779
v 0.01941313 -0.01219921 0.03125051
v 0.01137631 0.01389783 0.00133357
v 0.01164530 0.01922400 0.02792641
v 0.01137631 0.01390952 -0.04156216
v 0.01930068 0.01324326 -0.04156216
v 0.01992246 0.00939377 -0.04156216
v 0.02045825 0.00534558 -0.04156216
v 0.02052881 -0.00068971 -0.04156216
v 0.03251901 -0.00068581 -0.00216783
v 0.03325985 -0.00310538 0.00238251
v 0.03290266 -0.00678733 0.00236773
v 0.03360602 -0.00430932 0.01582666
v 0.03381769 -0.00189365 0.01945363
v 0.03390148 -0.00068581 0.02672234
v 0.03340978 -0.00068581 0.03035670
v 0.03271745 -0.00797568 0.02961062
v 0.03361263 -0.00068581 0.00736128
v 0.03372067 -0.00128973 0.01219969
v 0.03159516 -0.00310148 0.03235854
v 0.02835838 -0.00715358 0.03290518
v 0.02593741 0.01383160 0.03288302
v 0.02231036 0.01878372 0.03286085
v 0.01745740 0.01878372 0.03283131
v 0.01287784 0.01922400 0.03169373
v 0.01164310 0.01922400 0.00612028
v 0.02765061 0.01922400 0.01225141
v 0.02805631 0.01833955 0.00662997
v 0.02984448 0.01445500 0.00244160
v 0.03019064 0.01215231 -0.00196099
v 0.03127545 0.00778073 -0.00354179
v 0.03217284 0.00421566 -0.00218260
v 0.03320253 0.00172596 0.00244899
v 0.03297322 0.00776125 0.02793380
v 0.03342301 0.00354161 0.02914524
v 0.03327749 0.00414553 0.00736128
v 0.03216843 0.00644821 0.03127267
v 0.03158634 0.00172986 0.03235116
v 0.02886771 0.00898467 0.03272051
v 0.02751391 0.01819929 0.03054137
v 0.02893606 0.01762654 0.02551089
v 0.02912568 0.01681612 0.00978418
v 0.03031853 0.01424849 0.00674816
v 0.03230293 0.00894960 0.00736128
v 0.03235585 0.00706382 0.00185804
v 0.03013332 0.01380432 0.03009816
v 0.02927561 0.01674599 0.01512491
f 1 2 3
f 1 3 4
f 1 4 5
f 1 5 6
f 1 6 7
f 1 7 8
f 1 8 9
f 1 9 2
f 2 9 3
f 3 9 10
f 3 10 11
f 3 11 12
f 3 12 4
f 4 13 14
f 4 14 15
f 4 15 5
f 4 12 16
f 4 16 13
f 5 15 17
f 5 17 18
f 5 18 19
f 5 19 6
f 6 20 22
f 6 22 7
f 6 19 21
f 6 21 20
f 7 22 8
f 8 22 23
f 8 23 9
f 9 23 24
f 9 24 25
f 9 25 26
f 9 26 27
f 9 27 10
f 10 27 28
f 10 28 29
f 10 29 11
f 11 29 12
f 12 29 16
f 13 30 31
f 13 31 32
f 13 32 14
f 13 16 30
f 14 32 33
f 14 33 34
f 14 34 15
f 15 34 17
f 16 29 28
f 16 28 35
f 16 35 36
f 16 36 30
f 17 34 37
f 17 37 38
f 17 38 18
f 18 38 39
f 18 39 40
f 18 40 41
f 18 41 42
f 18 42 19
f 19 42 21
f 20 21 43
f 20 43 22
f 21 42 44
f 21 44 43
f 22 43 44
f 22 44 23
f 23 44 45
f 23 45 46
f 23 46 47
f 23 47 48
f 23 48 24
f 24 48 49
f 24 49 25
f 25 49 27
f 25 27 26
f 27 49 50
f 27 50 28
f 28 50 35
f 30 36 31
f 31 36 32
f 32 51 52
f 32 52 33
f 32 36 35
f 32 35 53
f 32 53 51
f 33 54 55
f 33 55 37
f 33 37 34
f 33 52 54
f 35 50 53
f 37 55 38
f 38 55 56
f 38 56 39
f 39 56 57
f 39 57 40
f 40 42 41
f 40 57 44
f 40 44 42
f 44 57 58
f 44 58 59
f 44 59 45
f 45 60 46
f 45 59 60
f 46 60 61
f 46 61 47
f 47 61 62
f 47 62 48
f 48 62 49
f 49 62 50
f 50 62 53
f 51 58 63
f 51 63 54
f 51 54 52
f 51 53 61
f 51 61 60
f 51 60 58
f 53 62 61
f 54 63 57
f 54 57 56
f 54 56 55
f 57 63 58
f 58 60 64
f 58 64 59
f 59 64 60

