# https://github.com/mikedh/trimesh
v 0.04400313 0.02841536 0.01669805
v 0.04668341 0.02735879 -0.01964374
v -0.02301390 0.02249297 -0.00846543
v -0.00254175 0.02249297 0.02440328
v 0.00155868 0.01869485 0.02839514
v 0.04934369 0.02630220 0.01859842
v 0.05699449 0.02620211 0.01669805
v 0.05717451 0.02612982 -0.01869355
v -0.00068156 0.01964577 -0.02735442
v -0.01185273 0.02249297 -0.02148950
v 0.05622441 0.01833339 -0.02304583
v -0.02049364 0.02059113 -0.01683141
v -0.02521413 0.01869485 -0.01316174
v -0.02772439 0.01869485 -0.00603536
v -0.02637425 0.02059113 0.00215042
v -0.02480409 0.02059113 0.00941878
v -0.02102369 0.02059113 0.01607006
v -0.01313286 0.02059113 0.02298893
v -0.00705223 0.01869485 0.02748865
v -0.00055154 -0.01764585 0.02737943
v 0.05480426 -0.01113956 0.02215888
v 0.05480426 0.00534861 0.02232817
v 0.05480426 0.01291704 0.02206605
v 0.05763456 0.02081356 0.02068992
v 0.06348517 0.02239287 0.01669805
v 0.06368519 0.02223716 -0.01869355
v 0.05480426 0.00756186 -0.02383765
v -0.00050154 -0.01764585 -0.02739265
v -0.01117266 0.01869485 -0.02613120
v -0.01763333 0.01869485 -0.02228132
v 0.06649549 0.01682637 -0.02059392
v 0.06901575 0.00846273 -0.02249429
v -0.02374397 -0.01764585 -0.01357676
v -0.02843447 -0.01669494 0.00116747
v -0.02486409 -0.01859678 0.00917304
v -0.01894347 0.01869485 0.02125238
v -0.01042258 -0.01859678 0.02433775
v 0.04696344 -0.02643769 0.01859842
v 0.05520430 -0.02179987 0.02070630
v 0.06908576 -0.01301916 0.01859842
v 0.07183605 -0.00595121 0.01859842
v 0.07245611 0.00142815 0.01859842
v 0.07084594 0.00923570 0.01859842
v 0.06703554 0.01605340 0.01859842
v 0.07121598 0.01316172 -0.01869355
v 0.05480426 -0.00711345 -0.02383765
v 0.04444317 -0.02839514 -0.01869355
v -0.01062260 -0.01859678 -0.02420899
v 0.05480426 -0.01551046 -0.02347178
v 0.05763456 -0.02075998 -0.02263627
v 0.04972373 -0.02620969 -0.02059392
v -0.01753332 -0.01859678 -0.01992224
v 0.07373625 0.00602148 -0.01869355
v 0.07237610 -0.00219202 -0.02059392
v 0.07080594 -0.00941567 -0.02059392
v -0.02587420 -0.01859678 -0.00548928
v -0.02440405 -0.02049305 0.00310060
v -0.02175376 -0.01859678 0.01513080
v -0.01685325 -0.01859678 0.02048787
v 0.05972478 -0.02474717 0.01669805
v 0.06514535 -0.01836322 0.01859842
v 0.06347517 -0.02240045 -0.01869355
v 0.05699449 -0.02619857 -0.01869355
v 0.06702554 -0.01606655 -0.02059392
f 1 2 3
f 1 3 4
f 1 4 5
f 1 5 6
f 1 6 7
f 1 7 8
f 1 8 2
f 2 9 10
f 2 10 3
f 2 8 11
f 2 11 9
f 3 12 13
f 3 13 14
f 3 14 15
f 3 15 16
f 3 16 17
f 3 17 4
f 3 10 12
f 4 18 19
f 4 19 5
f 4 17 18
f 5 19 20
f 5 20 21
f 5 21 22
f 5 22 23
f 5 23 24
f 5 24 6
f 6 24 7
f 7 24 25
f 7 25 8
f 8 25 26
f 8 26 11
f 9 11 27
f 9 27 28
f 9 28 29
f 9 29 10
f 10 29 30
f 10 30 12
f 11 26 31
f 11 31 32
f 11 32 27
f 12 30 13
f 13 30 33
f 13 33 14
f 14 34 15
f 14 33 34
f 15 34 16
f 16 34 35
f 16 35 36
f 16 36 17
f 17 36 18
f 18 36 19
f 19 37 20
f 19 36 37
f 20 38 39
f 20 39 21
f 20 37 38
f 21 39 40
f 21 40 41
f 21 41 42
f 21 42 22
f 22 42 23
f 23 42 43
f 23 43 24
f 24 43 44
f 24 44 25
f 25 44 45
f 25 45 26
f 26 45 31
f 27 32 46
f 27 46 28
f 28 47 48
f 28 48 29
f 28 46 49
f 28 49 50
f 28 50 51
f 28 51 47
f 29 48 30
f 30 52 33
f 30 48 52
f 31 45 32
f 32 45 53
f 32 53 54
f 32 54 55
f 32 55 50
f 32 50 49
f 32 49 46
f 33 52 56
f 33 56 34
f 34 56 57
f 34 57 35
f 35 57 58
f 35 58 36
f 36 58 59
f 36 59 37
f 37 59 38
f 38 59 57
f 38 57 47
f 38 47 60
f 38 60 39
f 39 60 61
f 39 61 40
f 40 55 41
f 40 61 62
f 40 62 55
f 41 54 53
f 41 53 42
f 41 55 54
f 42 53 43
f 43 53 45
f 43 45 44
f 47 63 60
f 47 57 52
f 47 52 48
f 47 51 63
f 50 63 51
f 50 55 64
f 50 64 62
f 50 62 63
f 52 57 56
f 55 62 64
f 57 59 58
f 60 63 62
f 60 62 61

