# https://github.com/mikedh/trimesh
v 0.05975354 -0.02776142 -0.02596852
v 0.06116765 -0.02598874 -0.04062747
v 0.06329038 -0.02067068 -0.02508678
v 0.06450608 -0.01392802 0.00486096
v 0.06006849 -0.02432564 -0.00801877
v 0.05624189 -0.02067068 -0.01050654
v 0.05626394 -0.02736176 -0.10792328
v 0.05967795 -0.02504116 -0.07602312
v 0.06139441 -0.02235956 -0.05553836
v 0.06560524 -0.00977671 -0.00965628
v 0.06210934 -0.01561046 -0.06682781
v 0.06541942 -0.00008173 0.01572528
v 0.06174715 -0.01028596 0.01657553
v 0.04025209 0.02483903 -0.06092328
v 0.03343036 0.02330485 -0.12122814
v 0.03343036 0.02005600 -0.13944556
v 0.05663558 -0.02077382 -0.12595175
v 0.05965276 -0.02145066 -0.09000502
v 0.06555169 0.01206279 0.00538056
v 0.06141331 -0.01293532 -0.08586399
v 0.06543831 0.00247094 -0.02785796
v 0.06552020 0.00998714 -0.01343518
v 0.06185423 0.01095406 0.01626062
v 0.04186777 0.03795047 -0.06763082
v 0.04025209 0.03809228 -0.07832194
v 0.03343036 0.03678371 -0.14237420
v 0.05249089 -0.00650207 -0.14387001
v 0.05669542 -0.01524303 -0.13725695
v 0.05992046 -0.01504320 -0.10279029
v 0.06315181 0.02115184 -0.02653535
v 0.06129678 0.02664395 -0.02804691
v 0.05951418 0.02979611 -0.02653535
v 0.06003384 0.02405905 -0.00595612
v 0.05973149 -0.01065983 -0.11348140
v 0.06095034 -0.00068766 -0.10491591
v 0.06296599 0.00816933 -0.06942580
v 0.06182589 0.00300597 -0.09235109
v 0.06236759 0.01777407 -0.05912831
v 0.06274238 0.02072640 -0.03990319
v 0.05318062 0.03559763 -0.04486298
v 0.04689115 0.03685462 -0.08866667
v 0.04025209 0.03799559 -0.09016248
v 0.03604127 0.03765394 -0.12196817
v 0.04577939 0.03339950 -0.14308274
v 0.05746704 0.00301242 -0.14427939
v 0.04061428 0.03625513 -0.13213970
v 0.06035194 0.02800408 -0.04618560
v 0.05663558 0.03157524 -0.06119096
v 0.05967795 -0.00032023 -0.12083450
v 0.06171251 0.01186296 -0.08458861
v 0.05965906 0.01396440 -0.10847437
v 0.06055351 0.01481529 -0.09603551
v 0.06124953 0.02072640 -0.06945729
v 0.05326881 0.03305140 -0.09710620
v 0.05132244 0.03540424 -0.07260637
v 0.04716830 0.03570076 -0.11667772
v 0.04234019 0.03725428 -0.10689983
v 0.05413491 0.02432334 -0.13823316
v 0.05306094 0.03227787 -0.10808074
v 0.05691588 0.01333913 -0.13842211
v 0.05917089 0.02616049 -0.07910921
v 0.05983228 0.01990129 -0.09309112
v 0.05667652 0.02664395 -0.10787605
f 1 2 3
f 1 3 4
f 1 4 5
f 1 5 6
f 1 6 7
f 1 7 2
f 2 8 9
f 2 9 3
f 2 7 8
f 3 10 4
f 3 9 11
f 3 11 10
f 4 10 12
f 4 12 13
f 4 13 5
f 5 13 6
f 6 13 14
f 6 14 15
f 6 15 16
f 6 16 7
f 7 16 17
f 7 17 18
f 7 18 8
f 8 18 9
f 9 18 11
f 10 19 12
f 10 11 20
f 10 20 21
f 10 21 22
f 10 22 19
f 11 18 20
f 12 19 23
f 12 23 13
f 13 23 14
f 14 23 24
f 14 24 25
f 14 25 15
f 15 26 16
f 15 25 26
f 16 26 27
f 16 27 17
f 17 27 28
f 17 28 29
f 17 29 18
f 18 29 20
f 19 22 30
f 19 30 31
f 19 31 32
f 19 32 33
f 19 33 23
f 20 29 34
f 20 34 35
f 20 35 21
f 21 36 22
f 21 35 37
f 21 37 36
f 22 36 38
f 22 38 39
f 22 39 30
f 23 33 24
f 24 33 40
f 24 40 41
f 24 41 42
f 24 42 25
f 25 42 43
f 25 43 26
f 26 44 45
f 26 45 27
f 26 43 46
f 26 46 44
f 27 45 28
f 28 45 34
f 28 34 29
f 30 39 47
f 30 47 31
f 31 47 32
f 32 47 48
f 32 48 40
f 32 40 33
f 34 45 49
f 34 49 35
f 35 49 37
f 36 37 50
f 36 50 38
f 37 49 45
f 37 45 51
f 37 51 50
f 38 50 52
f 38 52 53
f 38 53 39
f 39 53 47
f 40 48 54
f 40 54 55
f 40 55 56
f 40 56 41
f 41 56 57
f 41 57 42
f 42 57 43
f 43 57 46
f 44 58 45
f 44 46 56
f 44 56 59
f 44 59 58
f 45 58 60
f 45 60 51
f 46 57 56
f 47 53 61
f 47 61 59
f 47 59 54
f 47 54 48
f 50 51 52
f 51 62 52
f 51 60 62
f 52 62 53
f 53 62 61
f 54 59 56
f 54 56 55
f 58 59 63
f 58 63 60
f 59 61 63
f 60 63 62
f 61 62 63

