# https://github.com/mikedh/trimesh
v 0.03119245 0.01687549 -0.09148541
v -0.01399414 0.01685082 -0.09148541
v 0.03119245 -0.03353785 -0.09148541
v 0.03119245 -0.02115658 -0.12568464
v 0.03118671 0.01633266 -0.12562439
v -0.02411405 0.01687549 -0.12511554
v -0.02324154 0.01639682 -0.09921840
v -0.01594579 0.00813606 -0.09148541
v -0.01265668 -0.03328124 -0.09228214
v -0.00759959 -0.03353785 -0.12545030
v -0.00049326 -0.03353785 -0.12541682
v 0.03118671 -0.03302957 -0.12258475
v -0.01601467 -0.00483738 -0.09148541
v 0.00700913 -0.01973044 -0.12568464
v 0.00416201 0.01633760 -0.12568464
v -0.02430921 -0.01901983 -0.12501846
v -0.02657658 0.00016645 -0.12430877
v -0.02654788 0.00585127 -0.12428199
v -0.02681767 0.01090938 -0.12354551
v -0.02657084 0.01647084 -0.12087746
v -0.00009145 0.01011489 -0.12568464
v -0.01999261 -0.02683647 -0.12544696
v -0.02615181 0.01620436 -0.11603346
v -0.02517024 0.01436370 -0.10715559
v -0.02453882 0.01154103 -0.10125710
v -0.02446420 0.00513080 -0.09930878
v -0.01642796 0.00299406 -0.09148541
v -0.02225424 -0.01973044 -0.09769524
v -0.02212795 -0.02449740 -0.09900415
v -0.01849442 -0.03294074 -0.09882673
v -0.01992947 -0.03312333 -0.11028896
v -0.01534308 -0.03302957 -0.12538335
v 0.00274419 -0.01546188 -0.12568464
v -0.02676600 -0.01546188 -0.12269857
v -0.02692673 -0.00832625 -0.12371624
v -0.02359169 -0.02568174 -0.12435899
v -0.02744909 -0.00196536 -0.11985644
v -0.02702431 0.00589568 -0.11696410
v -0.00009145 -0.00977706 -0.12568464
v -0.00293283 -0.00196536 -0.12568129
v -0.02083067 -0.03167745 -0.12393384
v -0.02618051 0.01154103 -0.11274611
v -0.02612310 0.00585127 -0.10990733
v -0.02541133 0.00549597 -0.10493278
v -0.02539410 0.00016645 -0.10422308
v -0.02447568 0.00016645 -0.09922510
v -0.02438958 -0.00548383 -0.09902758
v -0.02437235 -0.01260467 -0.10090895
v -0.02383852 -0.01925177 -0.10254928
v -0.02333912 -0.02517346 -0.10863858
v -0.02116934 -0.02895841 -0.10201700
v -0.02146783 -0.02981212 -0.10706521
v -0.02220831 -0.03033520 -0.11710135
v -0.02602552 -0.01973044 -0.12127918
v -0.02657658 -0.01394198 -0.11785122
v -0.02712764 -0.00819301 -0.11862117
v -0.02458475 -0.02529683 -0.11985644
v -0.02690377 -0.00196536 -0.11519321
v -0.02630679 -0.00161006 -0.11061703
v -0.02515876 -0.00658428 -0.10351004
v -0.02609441 -0.00835585 -0.11061703
v -0.02508414 -0.01581719 -0.10777490
v -0.02550317 -0.01973044 -0.11558824
v -0.02414849 -0.02517346 -0.11517983
f 1 2 8
f 1 8 27
f 1 27 13
f 1 13 3
f 1 3 4
f 1 4 5
f 1 5 6
f 1 6 2
f 2 7 8
f 2 6 7
f 3 9 10
f 3 10 11
f 3 11 12
f 3 12 4
f 3 13 9
f 4 12 11
f 4 11 10
f 4 10 14
f 4 14 33
f 4 33 39
f 4 39 21
f 4 21 15
f 4 15 5
f 5 15 6
f 6 16 17
f 6 17 18
f 6 18 19
f 6 19 20
f 6 20 7
f 6 15 21
f 6 21 22
f 6 22 16
f 7 20 23
f 7 23 24
f 7 24 25
f 7 25 26
f 7 26 8
f 8 26 27
f 9 13 28
f 9 28 29
f 9 29 30
f 9 30 31
f 9 31 10
f 10 31 32
f 10 32 22
f 10 22 14
f 13 27 28
f 14 22 33
f 16 34 35
f 16 35 17
f 16 22 36
f 16 36 34
f 17 35 18
f 18 35 19
f 19 35 37
f 19 37 20
f 20 37 38
f 20 38 23
f 21 39 40
f 21 40 22
f 22 41 36
f 22 40 39
f 22 39 33
f 22 32 41
f 23 38 42
f 23 42 24
f 24 42 25
f 25 42 43
f 25 43 44
f 25 44 26
f 26 44 45
f 26 45 46
f 26 46 47
f 26 47 27
f 27 47 28
f 28 47 48
f 28 48 29
f 29 48 49
f 29 49 50
f 29 50 51
f 29 51 30
f 30 51 52
f 30 52 31
f 31 41 32
f 31 52 53
f 31 53 41
f 34 54 55
f 34 55 56
f 34 56 37
f 34 37 35
f 34 36 54
f 36 41 57
f 36 57 54
f 37 56 58
f 37 58 38
f 38 58 43
f 38 43 42
f 41 53 57
f 43 58 59
f 43 59 45
f 43 45 44
f 45 60 47
f 45 47 46
f 45 59 60
f 47 60 48
f 48 60 61
f 48 61 62
f 48 62 49
f 49 62 63
f 49 63 50
f 50 63 64
f 50 64 51
f 51 64 52
f 52 64 57
f 52 57 53
f 54 57 63
f 54 63 55
f 55 61 56
f 55 63 62
f 55 62 61
f 56 61 58
f 57 64 63
f 58 61 59
f 59 61 60

