# https://github.com/mikedh/trimesh
v 0.04234753 -0.02033536 0.01028621
v 0.04702229 -0.02033968 0.01028482
v 0.04702229 -0.02033968 0.02043542
v 0.04286819 -0.02033536 0.01949795
v 0.04713499 0.02121934 0.01028482
v 0.04702229 0.01275537 0.01028482
v 0.05856394 -0.02033968 0.01028482
v 0.05856394 -0.02033968 0.01902991
v 0.04683022 -0.02033536 0.02047721
v 0.05112242 -0.00730224 0.02448062
v 0.05115417 -0.00705152 0.02451405
v 0.05115417 0.00347873 0.02451405
v 0.05113512 0.00369054 0.02449037
v 0.05105576 0.00394559 0.02439565
v 0.05102401 0.00401043 0.02435943
v 0.05088273 0.00421792 0.02418113
v 0.05069860 0.00437354 0.02394850
v 0.04713182 0.00302052 0.02015265
v 0.04713182 0.00484904 0.01981276
v 0.04713182 0.00796575 0.01896444
v 0.04713182 0.01007958 0.01818298
v 0.04713341 0.01590666 0.01501675
v 0.04713499 0.02092539 0.01068042
v 0.04731913 0.02144844 0.01028482
v 0.05856394 0.02382164 0.01028482
v 0.05856394 -0.02004573 0.01918314
v 0.05856394 -0.00752702 0.02440401
v 0.05856394 -0.00737140 0.02446669
v 0.05856394 -0.00724604 0.02449594
v 0.05856394 -0.00711204 0.02451405
v 0.05856394 -0.00707313 0.02451544
v 0.05856394 0.00351763 0.02451544
v 0.05856394 0.00363002 0.02450291
v 0.05856394 0.00375106 0.02448758
v 0.05856394 0.00388507 0.02443744
v 0.05856394 0.00399746 0.02439286
v 0.05856394 0.00403204 0.02437336
v 0.05856394 0.01624816 0.01718004
v 0.04913347 0.01704355 0.01666185
v 0.04913188 0.01084039 0.02003285
v 0.04913188 0.00859255 0.02086446
v 0.04913506 0.02238648 0.01204554
v 0.04913506 0.02370492 0.01028482
v 0.05856394 0.02334181 0.01092419
v 0.05856394 0.01665882 0.01691816
v 0.05856394 0.01704355 0.01666464
v 0.05856394 0.01795998 0.01598069
v 0.05856394 0.01822366 0.01575781
v 0.05856394 0.02194988 0.01249965
v 0.05856394 0.02238648 0.01204832
v 0.05856394 0.02303490 0.01131005
f 1 2 3
f 1 3 4
f 1 4 5
f 1 5 6
f 1 6 2
f 2 7 8
f 2 8 3
f 2 6 5
f 2 5 24
f 2 24 43
f 2 43 25
f 2 25 7
f 3 8 9
f 3 9 4
f 4 9 10
f 4 10 11
f 4 11 12
f 4 12 13
f 4 13 14
f 4 14 15
f 4 15 16
f 4 16 17
f 4 17 18
f 4 18 19
f 4 19 20
f 4 20 21
f 4 21 22
f 4 22 23
f 4 23 5
f 5 23 24
f 7 25 44
f 7 44 51
f 7 51 50
f 7 50 49
f 7 49 48
f 7 48 47
f 7 47 46
f 7 46 45
f 7 45 38
f 7 38 37
f 7 37 36
f 7 36 35
f 7 35 34
f 7 34 33
f 7 33 32
f 7 32 31
f 7 31 30
f 7 30 29
f 7 29 28
f 7 28 27
f 7 27 26
f 7 26 8
f 8 26 9
f 9 26 27
f 9 27 28
f 9 28 10
f 10 28 29
f 10 29 30
f 10 30 11
f 11 30 31
f 11 31 32
f 11 32 12
f 12 32 33
f 12 33 13
f 13 33 34
f 13 34 14
f 14 35 36
f 14 36 15
f 14 34 35
f 15 36 37
f 15 37 38
f 15 38 39
f 15 39 40
f 15 40 16
f 16 40 17
f 17 19 18
f 17 40 41
f 17 41 20
f 17 20 19
f 20 41 21
f 21 41 40
f 21 40 22
f 22 40 39
f 22 39 42
f 22 42 23
f 23 42 43
f 23 43 24
f 25 43 42
f 25 42 44
f 38 45 39
f 39 45 46
f 39 46 47
f 39 47 48
f 39 48 42
f 42 49 50
f 42 50 51
f 42 51 44
f 42 48 49

