# https://github.com/mikedh/trimesh
v 0.02081698 -0.01209855 -0.14432050
v 0.02081698 0.01454410 -0.14307259
v 0.02082004 0.03716024 -0.14426528
v 0.03397687 0.01331972 -0.14432050
v 0.03181926 -0.01209855 -0.14432050
v 0.02081698 -0.01209855 -0.07523245
v 0.02081392 -0.00591694 -0.05844635
v 0.02081392 0.01823216 -0.04327260
v 0.02082004 0.03786700 -0.13451388
v 0.02681544 0.03713038 -0.14236580
v 0.03308016 0.03681682 -0.14236580
v 0.03397687 -0.00591694 -0.14432050
v 0.04024159 0.02694714 -0.12120648
v 0.04569835 -0.00591694 -0.04329468
v 0.03181926 -0.01209855 -0.13125605
v 0.03172133 -0.01209855 -0.07523245
v 0.04261343 -0.00591694 -0.03712138
v 0.03009623 -0.00591694 -0.03931903
v 0.02262570 -0.00591694 -0.04152772
v 0.02082004 0.02730550 -0.04329468
v 0.02082004 0.03862850 -0.08124011
v 0.02082004 0.03871311 -0.09302350
v 0.02082004 0.03860859 -0.11084769
v 0.02082004 0.03833982 -0.12259796
v 0.02085677 0.03817558 -0.12859457
v 0.02681544 0.03800636 -0.12859457
v 0.02681544 0.03769280 -0.13451388
v 0.03308016 0.03736430 -0.13451388
v 0.03903884 0.03745887 -0.11898674
v 0.05207631 0.02175100 -0.06092009
v 0.05207937 0.01608701 -0.04767895
v 0.05140607 0.03614490 -0.05671252
v 0.05207937 0.01634085 -0.04005895
v 0.05207631 0.02822627 -0.03150024
v 0.02492715 0.03632408 -0.04471929
v 0.02085677 0.03838462 -0.05468052
v 0.02083840 0.03852398 -0.06646392
v 0.02083840 0.03874795 -0.09896490
v 0.02681544 0.03854887 -0.08131741
v 0.02085677 0.03871809 -0.10492838
v 0.02977489 0.03845928 -0.10492838
v 0.03273127 0.03818056 -0.11380735
v 0.02977489 0.03806111 -0.12267526
v 0.03308016 0.03768284 -0.12859457
v 0.03943975 0.03769280 -0.11085874
v 0.04455987 0.03774754 -0.05927461
v 0.05120102 0.03622454 -0.04923608
v 0.04983913 0.03552276 -0.03705511
v 0.03290572 0.03723490 -0.04372538
v 0.03308016 0.03817060 -0.05207426
v 0.02681544 0.03830996 -0.05468052
v 0.03864404 0.03794165 -0.04577947
v 0.02681544 0.03842941 -0.06651914
v 0.03273127 0.03841448 -0.07539810
v 0.02681544 0.03861357 -0.09604942
v 0.03308016 0.03842941 -0.09900907
v 0.03926225 0.03793668 -0.10196873
v 0.03984067 0.03804617 -0.09089211
v 0.03864098 0.03822535 -0.07242740
v 0.04182384 0.03783713 -0.05170982
v 0.04455987 0.03760818 -0.04577947
v 0.03568153 0.03823530 -0.06355948
v 0.03586210 0.03834978 -0.08131741
v 0.03273127 0.03846923 -0.09015220
f 1 2 3
f 1 3 4
f 1 4 12
f 1 12 5
f 1 5 15
f 1 15 16
f 1 16 6
f 1 6 7
f 1 7 2
f 2 7 8
f 2 8 3
f 3 8 9
f 3 9 10
f 3 10 11
f 3 11 4
f 4 11 13
f 4 13 12
f 5 12 14
f 5 14 15
f 6 16 17
f 6 17 18
f 6 18 19
f 6 19 7
f 7 19 8
f 8 19 20
f 8 20 21
f 8 21 22
f 8 22 23
f 8 23 24
f 8 24 9
f 9 24 25
f 9 25 26
f 9 26 27
f 9 27 10
f 10 27 11
f 11 27 28
f 11 28 29
f 11 29 13
f 12 13 30
f 12 30 31
f 12 31 14
f 13 29 32
f 13 32 30
f 14 31 33
f 14 33 34
f 14 34 17
f 14 17 16
f 14 16 15
f 17 34 18
f 18 34 19
f 19 34 20
f 20 34 35
f 20 35 36
f 20 36 37
f 20 37 21
f 21 37 22
f 22 38 23
f 22 37 39
f 22 39 38
f 23 38 40
f 23 40 41
f 23 41 42
f 23 42 24
f 24 42 43
f 24 43 26
f 24 26 25
f 26 44 27
f 26 43 44
f 27 44 28
f 28 44 29
f 29 45 32
f 29 44 45
f 30 32 34
f 30 34 31
f 31 34 33
f 32 46 47
f 32 47 34
f 32 45 46
f 34 48 35
f 34 47 48
f 35 48 49
f 35 49 36
f 36 50 51
f 36 51 37
f 36 49 52
f 36 52 50
f 37 51 53
f 37 53 54
f 37 54 39
f 38 55 40
f 38 39 54
f 38 54 55
f 40 55 56
f 40 56 41
f 41 56 42
f 42 56 57
f 42 57 45
f 42 45 44
f 42 44 43
f 45 57 46
f 46 57 58
f 46 58 59
f 46 59 60
f 46 60 61
f 46 61 47
f 47 61 48
f 48 52 49
f 48 61 52
f 50 62 54
f 50 54 51
f 50 52 62
f 51 54 53
f 52 61 60
f 52 60 59
f 52 59 62
f 54 62 59
f 54 59 63
f 54 63 64
f 54 64 55
f 55 64 56
f 56 64 63
f 56 63 59
f 56 59 58
f 56 58 57

