# https://github.com/mikedh/trimesh
v 0.03197037 -0.01292621 0.02469681
v 0.02513419 -0.01243150 0.03286561
v 0.03003446 -0.01507930 0.03076063
v 0.02737763 -0.02158374 0.02943855
v 0.02750870 -0.02182249 0.02256229
v 0.03039240 -0.01642794 0.01582635
v 0.03146118 -0.01401029 0.01824892
v 0.03150151 -0.01312625 0.00673432
v 0.01899373 -0.01220565 -0.02770610
v 0.01936176 -0.02058140 0.03290254
v 0.02385367 -0.02092986 0.03281390
v 0.01940713 -0.01220565 0.03124809
v -0.01953285 -0.02441868 0.03272527
v 0.02129767 -0.02750527 0.02928345
v 0.02223033 -0.02727082 0.01679391
v 0.02563329 -0.02365509 0.01347763
v 0.02807839 -0.02058570 0.01525764
v 0.02819938 -0.01980491 0.00766494
v 0.02774061 -0.01982642 0.00042676
v 0.02897576 -0.01551594 -0.00455871
v 0.01214748 -0.02176657 -0.04255175
v 0.01283311 -0.01220565 -0.02770610
v -0.01459729 -0.02895716 0.03250369
v 0.01511688 -0.02932282 0.03135150
v 0.01283311 -0.01220565 0.00132784
v -0.01898333 -0.03016383 0.02573822
v -0.01828257 -0.02169344 -0.04187963
v -0.01874134 -0.02845169 -0.01096228
v 0.01015611 -0.03288477 0.02961581
v 0.01300956 -0.03208677 0.01409067
v 0.01675534 -0.03035312 0.00976992
v 0.02266389 -0.02626848 0.00705191
v 0.02388896 -0.02343355 -0.00493539
v 0.02213454 -0.02610716 0.00054494
v 0.00475171 -0.02397343 -0.04255175
v -0.01165310 -0.02364219 -0.04255175
v 0.01815182 -0.02781071 -0.00660461
v 0.01094762 -0.03074029 -0.00815564
v 0.00730267 -0.03035096 -0.01565232
v -0.00431782 -0.03289768 0.03079017
v -0.01144640 -0.03279013 0.02915789
v -0.01848927 -0.02994014 0.00521282
v -0.01271180 -0.03193191 0.00205905
v -0.01185475 -0.03023697 -0.01473647
v -0.01828257 -0.02958523 -0.00254236
v 0.00444922 -0.03316224 0.02977830
v 0.00173693 -0.03417964 0.02247366
v 0.00656158 -0.03377741 0.02065672
v 0.00898146 -0.03342466 0.02186801
v 0.00956123 -0.03244598 0.00328510
v 0.01532862 -0.03033591 0.00037506
v 0.00263431 -0.02972074 -0.02159797
v 0.00102105 -0.02977021 -0.02178262
v -0.00438840 -0.02431328 -0.04255175
v -0.00189289 -0.03097044 -0.01683407
v 0.00263935 -0.03302458 -0.00308154
v -0.00007798 -0.03227821 -0.01020892
v -0.00673771 -0.03324398 0.00493216
v -0.00852237 -0.03193191 -0.00851017
v -0.00552776 -0.03290413 -0.00293382
v 0.00173693 -0.03391937 0.01339639
v 0.00415178 -0.03400756 0.02065672
v 0.00475171 -0.03353866 0.00795299
v 0.00067319 -0.03351930 0.00357315
f 1 2 3
f 1 3 4
f 1 4 5
f 1 5 6
f 1 6 7
f 1 7 8
f 1 8 9
f 1 9 2
f 2 10 11
f 2 11 3
f 2 9 12
f 2 12 13
f 2 13 10
f 3 11 4
f 4 11 14
f 4 14 15
f 4 15 5
f 5 15 16
f 5 16 17
f 5 17 6
f 6 17 18
f 6 18 8
f 6 8 7
f 8 19 20
f 8 20 9
f 8 18 19
f 9 20 21
f 9 21 22
f 9 22 25
f 9 25 12
f 10 13 23
f 10 23 11
f 11 23 24
f 11 24 14
f 12 25 13
f 13 26 23
f 13 25 27
f 13 27 28
f 13 28 26
f 14 24 29
f 14 29 30
f 14 30 31
f 14 31 15
f 15 31 32
f 15 32 16
f 16 32 19
f 16 19 17
f 17 19 18
f 19 33 20
f 19 32 34
f 19 34 33
f 20 33 21
f 21 35 54
f 21 54 36
f 21 36 27
f 21 27 22
f 21 33 37
f 21 37 38
f 21 38 39
f 21 39 35
f 22 27 25
f 23 40 24
f 23 26 41
f 23 41 40
f 24 40 29
f 26 28 42
f 26 42 43
f 26 43 41
f 27 36 44
f 27 44 28
f 28 44 43
f 28 43 45
f 28 45 42
f 29 40 46
f 29 46 47
f 29 47 48
f 29 48 49
f 29 49 30
f 30 49 50
f 30 50 51
f 30 51 31
f 31 51 34
f 31 34 32
f 33 34 37
f 34 51 37
f 35 39 52
f 35 52 53
f 35 53 54
f 36 54 55
f 36 55 44
f 37 51 38
f 38 51 50
f 38 50 56
f 38 56 39
f 39 56 57
f 39 57 52
f 40 41 47
f 40 47 46
f 41 43 58
f 41 58 47
f 42 45 43
f 43 44 59
f 43 59 60
f 43 60 58
f 44 55 59
f 47 61 62
f 47 62 48
f 47 58 61
f 48 62 63
f 48 63 49
f 49 63 50
f 50 63 56
f 52 57 53
f 53 57 55
f 53 55 54
f 55 57 59
f 56 63 64
f 56 64 60
f 56 60 57
f 57 60 59
f 58 60 64
f 58 64 61
f 61 63 62
f 61 64 63

