# https://github.com/mikedh/trimesh
v 0.03682337 -0.02327512 -0.05714182
v 0.04874944 -0.02248783 -0.07773068
v 0.04718337 -0.02141819 -0.07086772
v 0.04202523 -0.01377328 -0.05907220
v 0.03313088 -0.01616774 -0.05125847
v 0.03447022 -0.02079921 -0.10775825
v 0.04938914 0.00536072 -0.08463973
v 0.04943287 -0.00272942 -0.07987427
v 0.04904581 -0.00931012 -0.07423293
v 0.04760768 -0.01157971 -0.06890853
v 0.04773238 -0.02152135 -0.08890962
v 0.04524320 -0.00749120 -0.06392986
v 0.04357186 0.01262013 -0.06120427
v 0.04237667 0.00536072 -0.05948709
v 0.04144545 0.00536072 -0.05827700
v 0.04683518 -0.00915809 -0.06698967
v 0.03509211 0.02068856 -0.05258381
v 0.03321186 0.01210975 -0.05121237
v 0.03288796 0.00536072 -0.11007472
v 0.03320538 -0.00189326 -0.10988456
v 0.03458845 -0.00915809 -0.10897411
v 0.03739343 -0.01763374 -0.10686509
v 0.04012717 -0.01908345 -0.10339039
v 0.04930493 0.01938002 -0.07742527
v 0.04871057 0.00294997 -0.08846592
v 0.04922395 0.01746336 -0.08584982
v 0.04892434 0.01019852 -0.07384109
v 0.04891301 0.00143510 -0.07368551
v 0.04815831 0.01232150 -0.07072367
v 0.04758177 0.00173916 -0.06890853
v 0.04678821 -0.01142768 -0.09433199
v 0.04567399 0.01504175 -0.06476540
v 0.04462455 0.00505667 -0.06289840
v 0.04417270 0.02179620 -0.06221268
v 0.04144545 0.01504175 -0.05828276
v 0.04681412 0.00173916 -0.06701272
v 0.03414308 0.03110801 -0.05496365
v 0.04003485 0.02767649 -0.05847292
v 0.03600390 0.02780137 -0.10634648
v 0.03745174 0.01254412 -0.10673255
v 0.03462407 0.00294997 -0.10899716
v 0.03859349 0.00052836 -0.10582210
v 0.04153290 -0.00144260 -0.10276230
v 0.03583547 0.00294997 -0.10809823
v 0.03737562 0.00294997 -0.10688814
v 0.04739228 0.03074965 -0.08101521
v 0.04721576 0.02416895 -0.06863770
v 0.04749432 0.00113105 -0.09250533
v 0.04767732 0.01686067 -0.09190028
v 0.04781984 0.02501597 -0.09056918
v 0.04608372 -0.00431487 -0.09583020
v 0.04664731 0.00052836 -0.09460282
v 0.04348279 0.03158582 -0.06542807
v 0.04563026 0.03219393 -0.07217578
v 0.04079926 0.03150980 -0.09961030
v 0.04386823 0.02359341 -0.09950081
v 0.04106972 0.01746336 -0.10328667
v 0.04077659 0.00898771 -0.10362665
v 0.04204467 0.01625255 -0.10207658
v 0.04326254 0.01262013 -0.10045160
v 0.04496464 0.00279251 -0.09784126
v 0.04506181 0.03129262 -0.09243042
v 0.04561892 0.01564986 -0.09655049
f 1 2 3
f 1 3 4
f 1 4 5
f 1 5 6
f 1 6 2
f 2 7 8
f 2 8 9
f 2 9 10
f 2 10 3
f 2 6 11
f 2 11 7
f 3 10 4
f 4 12 13
f 4 13 14
f 4 14 15
f 4 15 5
f 4 10 16
f 4 16 12
f 5 15 17
f 5 17 18
f 5 18 19
f 5 19 20
f 5 20 6
f 6 20 21
f 6 21 22
f 6 22 23
f 6 23 11
f 7 24 8
f 7 11 25
f 7 25 26
f 7 26 24
f 8 24 9
f 9 24 27
f 9 27 28
f 9 28 29
f 9 29 10
f 10 29 30
f 10 30 16
f 11 23 31
f 11 31 25
f 12 32 33
f 12 33 13
f 12 16 32
f 13 34 35
f 13 35 14
f 13 33 34
f 14 35 15
f 15 35 17
f 16 30 36
f 16 36 32
f 17 37 18
f 17 35 38
f 17 38 37
f 18 37 19
f 19 39 40
f 19 40 41
f 19 41 20
f 19 37 39
f 20 41 21
f 21 41 22
f 22 42 43
f 22 43 23
f 22 41 44
f 22 44 45
f 22 45 42
f 23 43 31
f 24 26 46
f 24 46 47
f 24 47 27
f 25 31 48
f 25 48 49
f 25 49 26
f 26 49 50
f 26 50 46
f 27 47 29
f 27 29 28
f 29 47 30
f 30 47 36
f 31 51 52
f 31 52 48
f 31 43 51
f 32 34 33
f 32 36 47
f 32 47 34
f 34 47 53
f 34 53 38
f 34 38 35
f 37 38 53
f 37 53 54
f 37 54 55
f 37 55 39
f 39 55 56
f 39 56 57
f 39 57 40
f 40 57 42
f 40 42 45
f 40 45 44
f 40 44 41
f 42 57 58
f 42 58 43
f 43 58 57
f 43 57 59
f 43 59 60
f 43 60 61
f 43 61 51
f 46 54 47
f 46 50 62
f 46 62 54
f 47 54 53
f 48 52 49
f 49 52 63
f 49 63 56
f 49 56 50
f 50 56 62
f 51 61 63
f 51 63 52
f 54 62 55
f 55 62 56
f 56 63 61
f 56 61 60
f 56 60 59
f 56 59 57

