# https://github.com/mikedh/trimesh
v -0.00327907 -0.00168557 -0.14430146
v -0.03808663 -0.00168557 -0.11086710
v -0.03626692 -0.00126670 -0.14430146
v -0.02551569 0.03144884 -0.14430146
v -0.00644877 0.03772786 -0.14237842
v -0.00327907 0.03900840 -0.08617213
v -0.00327211 0.02501823 -0.08560093
v -0.00327211 0.00739787 -0.08560093
v -0.00327907 -0.00168557 -0.08560093
v -0.03881730 0.01779376 -0.10495516
v -0.03789874 0.01484174 -0.12271002
v -0.03582157 -0.00168557 -0.08560093
v -0.03415843 0.00739787 -0.06028715
v -0.03625649 0.01342956 -0.14430146
v -0.01687295 0.03665078 -0.14237842
v -0.03581809 0.02262071 -0.14430146
v -0.02819828 0.03482770 -0.12862197
v -0.01462876 0.03827438 -0.13453391
v -0.00599297 0.03844592 -0.13157318
v -0.00870688 0.03900840 -0.08344939
v -0.00327907 0.03892861 -0.07537640
v -0.00599297 0.03885681 -0.11968265
v -0.00599297 0.03902435 -0.10766837
v -0.00599297 0.03906824 -0.09601584
v -0.00327907 0.03427320 -0.04762550
v -0.00598949 0.00739787 -0.04708285
v -0.03811795 0.02666178 -0.10495516
v -0.03452376 0.03623988 -0.06944542
v -0.01462876 0.00739787 -0.04738750
v -0.02057499 0.00739787 -0.04937719
v -0.02368902 0.02903935 -0.04864415
v -0.02732844 0.03511094 -0.05195712
v -0.03328163 0.03672258 -0.06024907
v -0.02288877 0.03708161 -0.12862197
v -0.03549798 0.03321207 -0.10495516
v -0.03400534 0.03388226 -0.11086710
v -0.02862276 0.03640743 -0.11962553
v -0.02054715 0.03841800 -0.12271002
v -0.01462876 0.03870123 -0.12566124
v -0.00599297 0.03882888 -0.06649421
v -0.01462876 0.03899244 -0.09608248
v -0.01462876 0.03894457 -0.08720981
v -0.01463223 0.03873314 -0.06354300
v -0.00599297 0.03829832 -0.05460368
v -0.01462876 0.03890867 -0.11677904
v -0.01463223 0.02666178 -0.04705430
v -0.00599297 0.02619106 -0.04707334
v -0.01463223 0.03627180 -0.04961519
v -0.02135437 0.03594069 -0.05000551
v -0.03561280 0.03584495 -0.09178895
v -0.03445069 0.03723320 -0.07537640
v -0.02645164 0.03830630 -0.05762154
v -0.03159762 0.03674651 -0.10495516
v -0.02875150 0.03728905 -0.11086710
v -0.02645859 0.03825843 -0.10495516
v -0.02054715 0.03866533 -0.11677904
v -0.01758622 0.03861746 -0.05762154
v -0.01758622 0.03886878 -0.10791589
v -0.02054715 0.03876904 -0.09903369
v -0.02054367 0.03868128 -0.07537640
v -0.03477080 0.03675449 -0.08512492
v -0.02645164 0.03839406 -0.07537640
v -0.02645859 0.03834220 -0.09903369
v -0.02349418 0.03851373 -0.06649421
f 1 2 3
f 1 3 14
f 1 14 16
f 1 16 4
f 1 4 5
f 1 5 6
f 1 6 7
f 1 7 8
f 1 8 9
f 1 9 12
f 1 12 2
f 2 10 11
f 2 11 3
f 2 12 13
f 2 13 10
f 3 11 14
f 4 15 5
f 4 16 17
f 4 17 15
f 5 18 19
f 5 19 6
f 5 15 18
f 6 20 21
f 6 21 7
f 6 19 22
f 6 22 23
f 6 23 24
f 6 24 20
f 7 21 25
f 7 25 8
f 8 25 9
f 9 25 26
f 9 26 12
f 10 27 11
f 10 13 28
f 10 28 27
f 11 16 14
f 11 27 16
f 12 26 29
f 12 29 30
f 12 30 13
f 13 30 31
f 13 31 32
f 13 32 33
f 13 33 28
f 15 17 34
f 15 34 18
f 16 27 35
f 16 35 36
f 16 36 17
f 17 37 34
f 17 36 37
f 18 34 38
f 18 38 39
f 18 39 19
f 19 39 22
f 20 40 21
f 20 24 41
f 20 41 42
f 20 42 43
f 20 43 40
f 21 40 44
f 21 44 25
f 22 39 45
f 22 45 23
f 23 45 41
f 23 41 24
f 25 46 47
f 25 47 26
f 25 44 48
f 25 48 49
f 25 49 46
f 26 47 46
f 26 46 29
f 27 28 50
f 27 50 35
f 28 33 51
f 28 51 50
f 29 46 31
f 29 31 30
f 31 46 49
f 31 49 32
f 32 49 52
f 32 52 33
f 33 52 51
f 34 37 38
f 35 50 36
f 36 50 53
f 36 53 37
f 37 53 54
f 37 54 38
f 38 54 55
f 38 55 56
f 38 56 39
f 39 56 45
f 40 43 57
f 40 57 44
f 41 45 58
f 41 58 59
f 41 59 60
f 41 60 42
f 42 60 57
f 42 57 43
f 44 57 52
f 44 52 48
f 45 56 58
f 48 52 49
f 50 51 61
f 50 61 53
f 51 62 63
f 51 63 55
f 51 55 61
f 51 52 62
f 52 57 64
f 52 64 62
f 53 55 54
f 53 61 55
f 55 63 56
f 56 63 59
f 56 59 58
f 57 60 64
f 59 63 62
f 59 62 64
f 59 64 60

