# https://github.com/mikedh/trimesh
v 0.06773732 0.03939438 -0.03193226
v 0.07446972 0.03893920 -0.02846266
v 0.07319551 0.03911758 -0.03345223
v 0.06251686 0.03909297 -0.03349315
v 0.05872275 0.03934517 -0.03193519
v 0.05212348 0.03890844 -0.02846266
v 0.07446972 0.03500249 -0.01733480
v 0.07850156 0.00641830 -0.01308475
v 0.07850156 0.00641830 -0.02051794
v 0.07446972 0.03291111 -0.03730182
v 0.06032978 0.03882848 -0.02788098
v 0.07319551 0.03827487 -0.02513336
v 0.07319551 0.03722919 -0.02160530
v 0.07301484 0.03608508 -0.03701829
v 0.06773732 0.03789351 -0.03595431
v 0.05386364 0.03877311 -0.03499557
v 0.05212348 0.03929596 -0.03193519
v 0.04620886 0.03836099 -0.02636687
v 0.05212348 0.03771513 -0.02313111
v 0.03925775 0.03254205 -0.00866225
v 0.04605671 0.03206226 -0.00866225
v 0.05356885 0.03137949 -0.00866225
v 0.05760069 0.03098582 -0.00866225
v 0.07446972 0.03249899 -0.01368397
v 0.07472647 -0.02191983 -0.01080189
v 0.07850156 -0.01191199 -0.01303506
v 0.06032978 0.02316776 -0.00758366
v 0.07850156 -0.01191199 -0.02051794
v 0.07849205 -0.02344531 -0.03730182
v 0.07699913 0.00641830 -0.03730182
v 0.05872275 -0.02344531 -0.03730474
v -0.01864279 -0.01583024 -0.03731059
v 0.05838043 0.03403676 -0.03726382
v 0.06773732 0.03522393 -0.03721705
v 0.05802859 0.03762286 -0.02267804
v 0.06310642 0.03727224 -0.02153807
v 0.06773732 0.03724764 -0.02153807
v 0.03404680 0.03272658 -0.00866225
v 0.06428554 0.03694624 -0.03680198
v 0.05039284 0.03780124 -0.03582862
v 0.04619935 0.03886538 -0.03327977
v 0.05767676 0.03765977 -0.03606831
v -0.00288631 0.03080128 -0.01783755
v -0.00164063 0.03025999 -0.00866225
v 0.04345124 0.03710617 -0.02153222
v 0.04692204 0.03721689 -0.02153222
v 0.07849205 -0.02344531 -0.02052379
v 0.05872275 -0.02344531 -0.00765382
v 0.02886437 0.03259125 -0.00866225
v -0.01864279 -0.02221509 -0.00744920
v 0.04692204 -0.02344531 -0.03730474
v -0.01707380 -0.02221509 -0.03730766
v -0.01864279 -0.01565186 -0.01214062
v -0.01227173 0.01936023 -0.03705336
v 0.05039284 0.03510706 -0.03722290
v 0.05386364 0.03687242 -0.03672599
v -0.00288631 0.03024768 -0.03305762
v -0.00288631 0.03095506 -0.02783422
v -0.00288631 0.03091200 -0.02153222
v -0.01227173 0.01935408 -0.01206462
v 0.05432007 -0.02344531 -0.00765382
v -0.00288631 -0.02344531 -0.03569417
v -0.00288631 -0.02344531 -0.01197986
f 1 2 3
f 1 3 4
f 1 4 5
f 1 5 6
f 1 6 2
f 2 7 8
f 2 8 9
f 2 9 10
f 2 10 3
f 2 6 11
f 2 11 12
f 2 12 13
f 2 13 7
f 3 10 14
f 3 14 15
f 3 15 16
f 3 16 4
f 4 16 5
f 5 16 17
f 5 17 6
f 6 17 18
f 6 18 19
f 6 19 11
f 7 13 20
f 7 20 21
f 7 21 22
f 7 22 23
f 7 23 24
f 7 24 8
f 8 25 26
f 8 26 28
f 8 28 9
f 8 24 27
f 8 27 25
f 9 28 29
f 9 29 30
f 9 30 10
f 10 30 31
f 10 31 32
f 10 32 33
f 10 33 34
f 10 34 14
f 11 19 12
f 12 19 35
f 12 35 36
f 12 36 37
f 12 37 13
f 13 37 38
f 13 38 20
f 14 34 39
f 14 39 15
f 15 39 16
f 16 40 41
f 16 41 17
f 16 39 42
f 16 42 40
f 17 41 18
f 18 41 43
f 18 43 44
f 18 44 45
f 18 45 46
f 18 46 19
f 19 46 35
f 20 38 27
f 20 27 21
f 21 27 22
f 22 27 23
f 23 27 24
f 25 47 26
f 25 27 48
f 25 48 47
f 26 47 29
f 26 29 28
f 27 38 49
f 27 49 44
f 27 44 50
f 27 50 48
f 29 47 48
f 29 48 61
f 29 61 63
f 29 63 62
f 29 62 51
f 29 51 31
f 29 31 30
f 31 51 52
f 31 52 32
f 32 52 50
f 32 50 53
f 32 53 54
f 32 54 55
f 32 55 33
f 33 55 34
f 34 55 39
f 35 46 36
f 36 46 38
f 36 38 37
f 38 46 49
f 39 55 56
f 39 56 42
f 40 42 56
f 40 56 55
f 40 55 57
f 40 57 41
f 41 57 58
f 41 58 59
f 41 59 43
f 43 59 60
f 43 60 44
f 44 49 45
f 44 60 50
f 45 49 46
f 48 50 61
f 50 60 53
f 50 52 62
f 50 62 63
f 50 63 61
f 51 62 52
f 53 60 54
f 54 60 58
f 54 58 57
f 54 57 55
f 58 60 59

