# https://github.com/mikedh/trimesh
v 0.03119245 0.02976067 -0.09055144
v 0.03117553 0.02976067 -0.06078386
v 0.03117553 0.02719118 -0.06077751
v 0.03119245 0.01688042 -0.09055144
v 0.03119245 0.02717605 -0.12293678
v 0.03118117 0.02976067 -0.12175498
v 0.00532326 0.02976067 -0.06125404
v 0.00200568 0.01688042 -0.06131122
v 0.03117553 0.01776928 -0.06078386
v -0.01714373 0.01688042 -0.07321190
v -0.02531354 0.01776928 -0.12478574
v -0.02282536 0.01776928 -0.12544654
v 0.00558280 0.01776928 -0.12568798
v 0.03118681 0.01776423 -0.12562445
v 0.03118681 0.02264224 -0.12529404
v -0.00576918 0.02976067 -0.12542747
v 0.00200568 0.02845323 -0.06146372
v 0.00090546 0.02434053 -0.06141289
v -0.01997044 0.02976067 -0.09745803
v -0.00978074 0.02960937 -0.07261464
v -0.01608865 0.01958356 -0.07258288
v -0.02155588 0.02704366 -0.09902106
v -0.02251504 0.02434053 -0.09995507
v -0.02312439 0.02149744 -0.09995507
v -0.02377324 0.01776928 -0.10042525
v -0.02499758 0.01776928 -0.10848188
v -0.02538125 0.01776928 -0.11131568
v -0.02571978 0.01776928 -0.11416218
v -0.02634042 0.01776928 -0.11958197
v -0.02644761 0.01776928 -0.12242213
v -0.02579313 0.02149744 -0.12269534
v -0.02449544 0.02593290 -0.12311469
v -0.02295513 0.02712435 -0.12473492
v -0.02390301 0.02149744 -0.12504625
v -0.02282536 0.02434053 -0.12516697
v -0.01999301 0.02718361 -0.12544654
v 0.00843208 0.02149744 -0.12568798
v -0.00861846 0.02976067 -0.12544654
v -0.01297983 0.02591399 -0.07282432
v -0.02231193 0.02976067 -0.11298673
v -0.02187184 0.02972915 -0.10878050
v -0.02111015 0.02923870 -0.10113688
v -0.02283665 0.02718361 -0.10848188
v -0.02368861 0.02434053 -0.10848188
v -0.02430924 0.02173321 -0.10848188
v -0.02354756 0.02149744 -0.10279522
v -0.02425847 0.02002105 -0.10560996
v -0.02425283 0.01788653 -0.10340518
v -0.02507657 0.02149744 -0.11416218
v -0.02571413 0.02149744 -0.11985519
v -0.02499758 0.02434053 -0.11985519
v -0.02256583 0.02976067 -0.12366112
v -0.02415691 0.02692767 -0.11985519
v -0.02294385 0.02976067 -0.12002039
v -0.01999301 0.02976067 -0.12528769
v -0.01714937 0.02976067 -0.12544654
v -0.02272380 0.02976067 -0.11732638
v -0.02350806 0.02718361 -0.11416218
v -0.02319774 0.02718361 -0.11131568
v -0.02157281 0.02949968 -0.10564173
v -0.02432053 0.02459521 -0.11416218
v -0.02432617 0.02309486 -0.11096622
v -0.02427539 0.02579422 -0.11683713
v -0.02384095 0.02700710 -0.11690702
f 1 2 3
f 1 3 4
f 1 4 5
f 1 5 6
f 1 6 16
f 1 16 38
f 1 38 56
f 1 56 55
f 1 55 52
f 1 52 54
f 1 54 57
f 1 57 40
f 1 40 19
f 1 19 7
f 1 7 2
f 2 7 3
f 3 7 8
f 3 8 9
f 3 9 4
f 4 9 8
f 4 8 10
f 4 10 11
f 4 11 12
f 4 12 13
f 4 13 14
f 4 14 5
f 5 14 15
f 5 15 6
f 6 15 16
f 7 17 18
f 7 18 8
f 7 19 20
f 7 20 17
f 8 18 10
f 10 18 21
f 10 21 22
f 10 22 23
f 10 23 24
f 10 24 25
f 10 25 26
f 10 26 27
f 10 27 28
f 10 28 29
f 10 29 30
f 10 30 11
f 11 30 31
f 11 31 32
f 11 32 33
f 11 33 34
f 11 34 12
f 12 34 35
f 12 35 36
f 12 36 13
f 13 37 14
f 13 36 37
f 14 37 16
f 14 16 15
f 16 37 38
f 17 21 18
f 17 20 39
f 17 39 21
f 19 22 21
f 19 21 39
f 19 39 20
f 19 40 41
f 19 41 42
f 19 42 22
f 22 42 43
f 22 43 23
f 23 43 44
f 23 44 45
f 23 45 46
f 23 46 24
f 24 46 47
f 24 47 48
f 24 48 25
f 25 48 26
f 26 48 47
f 26 47 27
f 27 47 49
f 27 49 28
f 28 49 29
f 29 49 50
f 29 50 30
f 30 50 31
f 31 50 51
f 31 51 32
f 32 52 33
f 32 51 53
f 32 53 54
f 32 54 52
f 33 52 55
f 33 55 35
f 33 35 34
f 35 55 36
f 36 56 37
f 36 55 56
f 37 56 38
f 40 57 53
f 40 53 58
f 40 58 41
f 41 58 59
f 41 59 60
f 41 60 42
f 42 60 59
f 42 59 43
f 43 59 44
f 44 59 61
f 44 61 62
f 44 62 45
f 45 47 46
f 45 62 49
f 45 49 47
f 49 62 61
f 49 61 50
f 50 61 51
f 51 61 63
f 51 63 53
f 53 63 64
f 53 64 58
f 53 57 54
f 58 64 63
f 58 63 59
f 59 63 61

