# https://github.com/mikedh/trimesh
v 0.06387994 -0.04519529 -0.05811798
v 0.06208141 -0.04518055 -0.07659206
v 0.06465328 -0.04345641 -0.08565710
v 0.06770701 -0.04314696 -0.05517998
v 0.06422100 -0.04496688 -0.03765424
v 0.06130013 0.03007708 -0.03002101
v 0.06161740 -0.04249120 -0.11341006
v 0.06364992 -0.04277119 -0.10137913
v 0.06655096 -0.04004499 -0.11406089
v 0.07071514 -0.03808508 -0.10366631
v 0.07111966 -0.03997868 -0.06841958
v 0.07272782 -0.03697987 -0.03248484
v 0.06130013 0.03007708 -0.12278192
v 0.07911488 -0.01421249 -0.03136915
v 0.07921403 0.01422832 -0.03248484
v 0.07755827 0.02670249 -0.03651995
v 0.07786959 0.02784455 -0.04593829
v 0.07696140 0.02877292 -0.10686464
v 0.06269810 -0.04058286 -0.12191725
v 0.07191284 -0.03580834 -0.11309395
v 0.07264851 -0.03241166 -0.12147097
v 0.07525806 -0.03393685 -0.09140294
v 0.07371335 -0.03627990 -0.08306310
v 0.07584104 -0.03386317 -0.06229255
v 0.07356859 -0.03654515 -0.04584531
v 0.07790132 -0.02807186 -0.04948993
v 0.07764948 -0.02502884 -0.03242906
v 0.07341590 0.02822032 -0.12247510
v 0.07783985 0.01495776 -0.12382324
v 0.07667983 -0.01261361 -0.12498542
v 0.08001315 -0.01279781 -0.04167075
v 0.07986840 -0.00197410 -0.03332161
v 0.08087771 0.00562977 -0.05093103
v 0.08013808 0.01602614 -0.05011286
v 0.07873019 0.02639303 -0.05870372
v 0.07893840 0.02577411 -0.08229141
v 0.07832369 0.02642250 -0.09454549
v 0.07908712 0.01900284 -0.11122516
v 0.07614047 -0.02403414 -0.12290278
v 0.07677303 -0.02799817 -0.10956091
v 0.07634868 -0.03086436 -0.09932439
v 0.07879959 -0.02541935 -0.05766240
v 0.07958484 -0.02219212 -0.08707032
v 0.07842283 -0.02395310 -0.04176372
v 0.07927352 0.00694129 -0.11848648
v 0.07882339 -0.00507606 -0.12121064
v 0.07864690 -0.01725551 -0.11809599
v 0.08079046 -0.00444240 -0.04825336
v 0.08059614 -0.01696815 -0.07495571
v 0.08106808 -0.01012320 -0.06155805
v 0.08139725 -0.00161306 -0.06157664
v 0.08097290 0.01227578 -0.06569542
v 0.07962053 0.02286372 -0.07249188
v 0.08048707 0.01739660 -0.08930171
v 0.08065761 0.01073585 -0.10146281
v 0.07982874 -0.01760917 -0.10220661
v 0.07934689 -0.02349628 -0.06584418
v 0.08024516 -0.00054469 -0.11274065
v 0.08008255 -0.01119894 -0.10971897
v 0.08113947 -0.01010846 -0.08923663
v 0.08155588 -0.00274038 -0.07643401
v 0.08138932 0.00834122 -0.08323976
v 0.08149639 -0.00010260 -0.08808374
v 0.08100066 -0.00173095 -0.10142562
f 1 2 3
f 1 3 4
f 1 4 5
f 1 5 2
f 2 5 6
f 2 6 7
f 2 7 8
f 2 8 3
f 3 8 9
f 3 9 10
f 3 10 11
f 3 11 4
f 4 11 12
f 4 12 5
f 5 12 6
f 6 13 7
f 6 12 14
f 6 14 15
f 6 15 16
f 6 16 17
f 6 17 18
f 6 18 13
f 7 13 19
f 7 19 9
f 7 9 8
f 9 20 10
f 9 19 21
f 9 21 20
f 10 22 23
f 10 23 11
f 10 20 22
f 11 23 24
f 11 24 25
f 11 25 12
f 12 25 24
f 12 24 26
f 12 26 27
f 12 27 14
f 13 18 28
f 13 28 29
f 13 29 30
f 13 30 19
f 14 27 31
f 14 31 32
f 14 32 15
f 15 32 33
f 15 33 34
f 15 34 16
f 16 34 17
f 17 34 35
f 17 35 18
f 18 35 36
f 18 36 37
f 18 37 38
f 18 38 29
f 18 29 28
f 19 30 39
f 19 39 21
f 20 21 40
f 20 40 41
f 20 41 22
f 21 39 40
f 22 41 24
f 22 24 23
f 24 42 26
f 24 41 43
f 24 43 42
f 26 44 27
f 26 42 44
f 27 44 31
f 29 38 45
f 29 45 46
f 29 46 30
f 30 46 47
f 30 47 39
f 31 48 32
f 31 44 42
f 31 42 49
f 31 49 50
f 31 50 48
f 32 48 33
f 33 48 51
f 33 51 52
f 33 52 34
f 34 52 53
f 34 53 35
f 35 53 36
f 36 53 54
f 36 54 37
f 37 54 38
f 38 54 55
f 38 55 45
f 39 47 40
f 40 56 43
f 40 43 41
f 40 47 56
f 42 43 57
f 42 57 49
f 43 56 49
f 43 49 57
f 45 55 58
f 45 58 46
f 46 58 47
f 47 58 59
f 47 59 56
f 48 50 51
f 49 56 60
f 49 60 50
f 50 60 61
f 50 61 51
f 51 61 62
f 51 62 52
f 52 62 54
f 52 54 53
f 54 62 55
f 55 62 63
f 55 63 64
f 55 64 58
f 56 59 60
f 58 64 59
f 59 64 60
f 60 64 63
f 60 63 61
f 61 63 62

