# https://github.com/mikedh/trimesh
v 0.01149650 0.00394118 -0.01455446
v 0.01149650 -0.00405619 -0.01455446
v 0.01130621 0.00629013 -0.01647524
v 0.01136964 0.00394118 0.00399720
v 0.01130621 -0.00640641 -0.01647524
v 0.01136964 -0.00405619 0.00399720
v 0.00991075 0.00644028 -0.01984027
v 0.00783870 0.00594148 0.00310279
v 0.00991075 0.00394118 0.00817233
v 0.00991075 -0.00655656 -0.01984027
v 0.00816642 -0.00605648 0.00209475
v 0.00614371 -0.00605648 0.00576769
v 0.00991075 -0.00405619 0.00817233
v 0.00678154 0.00644028 -0.02296704
v 0.00513941 0.00644155 -0.01494668
v 0.00537198 0.00594148 0.00649348
v 0.00678154 0.00394118 0.01129910
v 0.00678154 -0.00655656 -0.02296704
v 0.00539313 -0.00655783 -0.01497600
v 0.00678154 -0.00405619 0.01129910
v 0.00361356 -0.00605648 0.00768847
v 0.00260926 0.00644028 -0.02442961
v -0.00500586 0.00644028 -0.02455791
v -0.01699060 0.00644028 -0.01011540
v -0.01276546 0.00644028 -0.00983682
v 0.00157676 0.00594148 0.00827863
v 0.00372280 0.00394118 0.01263704
v 0.00260926 -0.00655656 -0.02442961
v -0.00500586 -0.00655656 -0.02455424
v -0.01313547 -0.00655783 -0.00975617
v 0.00372280 -0.00405619 0.01263704
v 0.00052664 -0.00605648 0.00841426
v -0.01749451 -0.00455626 -0.02455791
v -0.01749451 0.00444126 -0.02455791
v -0.01739585 0.00633976 -0.02265546
v -0.01849882 0.00637539 -0.01755293
v -0.02449648 0.00585623 -0.01710939
v -0.01581010 0.00394118 0.00309546
v -0.00687000 0.00594148 0.00499424
v -0.00452309 0.00594148 0.00711663
v -0.00159826 0.00594148 0.00834828
v 0.00101293 0.00394118 0.01288997
v -0.01739585 -0.00645603 -0.02265546
v -0.01696946 -0.00655656 -0.01008241
v -0.01819577 -0.00650693 -0.01732566
v 0.00101293 -0.00405619 0.01288997
v -0.00235942 -0.00405619 0.01241344
v -0.00359278 -0.00605648 0.00762615
v -0.02449648 -0.00094122 -0.02342157
v -0.02449648 -0.00431577 -0.02151545
v -0.02449648 0.00251476 -0.02290105
v -0.02449648 0.00507876 -0.02052207
v -0.02449648 0.00457995 -0.01385433
v -0.01581010 -0.00405619 0.00309546
v -0.01380148 0.00394118 0.00523251
v -0.02449648 0.00135429 -0.01187490
v -0.00501996 0.00394118 0.01120745
v -0.00235942 0.00394118 0.01241344
v -0.02449648 -0.00597250 -0.01710939
v -0.00619694 -0.00605648 0.00581534
v -0.00501996 -0.00405619 0.01120745
v -0.01380148 -0.00405619 0.00523251
v -0.02449648 -0.00367700 -0.01300024
f 1 2 5
f 1 5 3
f 1 3 4
f 1 4 6
f 1 6 2
f 2 6 5
f 3 5 10
f 3 10 7
f 3 7 8
f 3 8 4
f 4 8 9
f 4 9 13
f 4 13 6
f 5 6 11
f 5 11 12
f 5 12 10
f 6 13 11
f 7 10 18
f 7 18 14
f 7 14 15
f 7 15 16
f 7 16 8
f 8 16 9
f 9 17 20
f 9 20 13
f 9 16 17
f 10 12 19
f 10 19 18
f 11 13 12
f 12 13 20
f 12 20 21
f 12 21 19
f 14 18 28
f 14 28 22
f 14 22 15
f 15 22 23
f 15 23 24
f 15 24 25
f 15 25 26
f 15 26 16
f 16 26 17
f 17 27 31
f 17 31 20
f 17 26 27
f 18 19 28
f 19 29 28
f 19 21 30
f 19 30 29
f 20 31 21
f 21 31 32
f 21 32 30
f 22 28 23
f 23 28 29
f 23 29 33
f 23 33 34
f 23 34 35
f 23 35 36
f 23 36 24
f 24 36 37
f 24 37 38
f 24 38 39
f 24 39 40
f 24 40 41
f 24 41 25
f 25 41 26
f 26 41 42
f 26 42 27
f 27 42 46
f 27 46 31
f 29 43 33
f 29 30 44
f 29 44 45
f 29 45 43
f 30 32 44
f 31 46 32
f 32 46 47
f 32 47 48
f 32 48 44
f 33 49 34
f 33 43 50
f 33 50 49
f 34 49 51
f 34 51 52
f 34 52 35
f 35 52 37
f 35 37 36
f 37 53 38
f 37 52 51
f 37 51 49
f 37 49 50
f 37 50 59
f 37 59 63
f 37 63 56
f 37 56 53
f 38 54 62
f 38 62 55
f 38 55 39
f 38 53 56
f 38 56 54
f 39 55 40
f 40 55 57
f 40 57 58
f 40 58 41
f 41 58 42
f 42 58 47
f 42 47 46
f 43 45 59
f 43 59 50
f 44 59 45
f 44 48 60
f 44 60 54
f 44 54 59
f 47 58 57
f 47 57 61
f 47 61 48
f 48 61 62
f 48 62 60
f 54 60 62
f 54 56 63
f 54 63 59
f 55 62 61
f 55 61 57

