# https://github.com/mikedh/trimesh
v -0.02800712 0.03708934 -0.14405969
v -0.02290606 0.03647997 -0.14434181
v -0.03588531 0.03816297 -0.17720619
v -0.03353597 0.03748107 -0.14406569
v -0.03541092 -0.03594706 -0.14406569
v -0.02157467 0.03571827 -0.15076462
v -0.03577236 0.03782927 -0.18286066
v -0.02182881 -0.03574394 -0.14517017
v -0.03599826 0.03723442 -0.18687042
v -0.03568624 -0.03591079 -0.16731987
v -0.03305029 -0.03593981 -0.16410846
v -0.02157467 0.03469541 -0.15859805
v -0.02157467 -0.03501851 -0.15193514
v -0.02157467 0.03312123 -0.16595127
v -0.03599826 0.03563122 -0.19233281
v -0.03577236 -0.03443091 -0.17756635
v -0.03177538 -0.03500400 -0.16967890
v -0.02157467 -0.03414799 -0.15758961
v -0.02157467 0.03050242 -0.17358661
v -0.02157467 0.02751365 -0.17946318
v -0.02200247 0.02311028 -0.18549582
v -0.02950087 0.02638923 -0.19319719
v -0.02964629 0.02271855 -0.19634857
v -0.03464428 0.01535542 -0.20459018
v -0.03466687 0.01083599 -0.20525647
v -0.03515255 -0.01379965 -0.20519044
v -0.03577236 -0.03029595 -0.19062207
v -0.03483206 -0.03264635 -0.18508764
v -0.02157467 -0.03281320 -0.16349019
v -0.02213095 0.00490921 -0.19110828
v -0.02157467 -0.03118098 -0.16876650
v -0.02163397 -0.02175037 -0.18559786
v -0.02643995 0.02305950 -0.19185261
v -0.02229049 0.01232312 -0.19052602
v -0.02262651 0.01837321 -0.18949357
v -0.02594580 0.01928000 -0.19346131
v -0.02904201 0.01626947 -0.19819138
v -0.03062612 0.01098833 -0.20091057
v -0.03046376 0.00668652 -0.20109665
v -0.03443674 0.00504705 -0.20537652
v -0.03430967 -0.00271507 -0.20530449
v -0.03433932 -0.00837343 -0.20509440
v -0.02943169 -0.01366182 -0.19906776
v -0.02942745 -0.02077830 -0.19662469
v -0.03387058 -0.02666154 -0.19493795
v -0.03155089 -0.02921506 -0.18985373
v -0.03056541 -0.03025243 -0.18612009
v -0.02327314 -0.00070562 -0.19270498
v -0.02567331 0.00290702 -0.19561625
v -0.02553353 0.00867420 -0.19508801
v -0.02187116 -0.01754288 -0.18841310
v -0.02216201 -0.00648731 -0.19099423
v -0.02161279 -0.02882333 -0.17488918
v -0.02195870 -0.02502932 -0.18215236
v -0.03000490 -0.02441996 -0.19424165
v -0.02628323 -0.02044460 -0.19286104
v -0.02575378 0.01422375 -0.19463782
v -0.03038328 0.00104267 -0.20119269
v -0.03048352 -0.00648731 -0.20107264
v -0.02790829 -0.00837343 -0.19793926
v -0.02556036 -0.01025955 -0.19487193
v -0.02670538 -0.01591791 -0.19529811
v -0.02672797 -0.00259900 -0.19685279
v -0.02230037 -0.01214567 -0.19045999
f 1 2 3
f 1 3 4
f 1 4 5
f 1 5 2
f 2 6 7
f 2 7 3
f 2 5 8
f 2 8 6
f 3 7 9
f 3 9 10
f 3 10 5
f 3 5 4
f 5 10 11
f 5 11 8
f 6 12 7
f 6 8 13
f 6 13 18
f 6 18 29
f 6 29 31
f 6 31 20
f 6 20 19
f 6 19 14
f 6 14 12
f 7 12 9
f 8 11 13
f 9 12 14
f 9 14 15
f 9 15 16
f 9 16 10
f 10 16 17
f 10 17 11
f 11 17 13
f 13 17 18
f 14 19 15
f 15 19 20
f 15 20 21
f 15 21 22
f 15 22 23
f 15 23 24
f 15 24 25
f 15 25 26
f 15 26 27
f 15 27 16
f 16 27 28
f 16 28 17
f 17 28 18
f 18 28 29
f 20 30 21
f 20 31 32
f 20 32 30
f 21 33 22
f 21 30 34
f 21 34 35
f 21 35 33
f 22 33 23
f 23 33 36
f 23 36 37
f 23 37 24
f 24 37 38
f 24 38 25
f 25 38 39
f 25 39 40
f 25 40 26
f 26 41 42
f 26 42 43
f 26 43 44
f 26 44 45
f 26 45 27
f 26 40 41
f 27 45 46
f 27 46 28
f 28 46 47
f 28 47 29
f 29 47 31
f 30 48 49
f 30 49 50
f 30 50 34
f 30 32 51
f 30 51 52
f 30 52 48
f 31 47 53
f 31 53 32
f 32 53 54
f 32 54 55
f 32 55 56
f 32 56 51
f 33 35 36
f 34 57 35
f 34 50 57
f 35 57 36
f 36 57 37
f 37 57 38
f 38 57 50
f 38 50 39
f 39 50 49
f 39 49 58
f 39 58 40
f 40 58 41
f 41 58 59
f 41 59 42
f 42 59 43
f 43 59 60
f 43 60 61
f 43 61 62
f 43 62 44
f 44 55 45
f 44 62 56
f 44 56 55
f 45 55 46
f 46 55 54
f 46 54 53
f 46 53 47
f 48 63 49
f 48 52 63
f 49 63 58
f 51 56 62
f 51 62 64
f 51 64 52
f 52 64 61
f 52 61 60
f 52 60 63
f 58 63 59
f 59 63 60
f 61 64 62

