# https://github.com/mikedh/trimesh
v 0.03406220 0.03275559 -0.00865683
v 0.03058853 0.03270163 -0.00865683
v 0.01571331 0.02972308 0.00276282
v 0.01919296 0.02971768 0.00276282
v 0.02265468 0.02962056 0.00276282
v 0.03752392 0.03265037 -0.00865683
v 0.02713279 0.03251277 -0.00865683
v -0.00289866 0.02893527 0.00339008
v 0.01224561 0.02962865 0.00276282
v -0.00289866 0.02820413 0.00655167
v 0.01224561 0.02854137 0.00623045
v 0.01571331 0.02858994 0.00623045
v 0.01919296 0.02860343 0.00623045
v 0.02265468 0.02848741 0.00623045
v 0.04099760 0.03246151 -0.00865683
v -0.00289866 0.02204468 -0.00865683
v -0.00289866 0.03023839 -0.00815098
v -0.00289866 0.02988496 -0.00417496
v -0.00289866 0.02950454 -0.00070481
v -0.00289866 0.02669597 0.00893424
v 0.01919296 0.02782911 0.00814005
v 0.02265468 0.02779404 0.00810211
v 0.02462170 0.02772659 0.00800347
v 0.04457291 0.03221330 -0.00865683
v -0.00289866 0.02132702 0.00631897
v 0.05748111 0.02258967 -0.00865683
v 0.05500590 0.00519322 0.00747738
v 0.05313454 0.00519322 0.00854979
v 0.04957118 0.00519322 0.01072496
v -0.00289866 0.02241430 0.00946538
v 0.03421765 0.01886379 0.01718218
v 0.03652546 0.02142145 0.01672185
v 0.03305179 0.02370663 0.01427858
v 0.02958409 0.02500974 0.01246257
v 0.03305179 0.02483977 0.01254097
v 0.02957811 0.02653949 0.00969808
v 0.02693549 0.02763216 0.00775560
v 0.04756828 0.03194350 -0.00865683
v 0.05358294 0.03140121 -0.00865683
v 0.05723598 0.03075100 -0.00811557
v 0.05818063 0.01498682 0.01095765
v 0.05513743 0.00519322 0.01095765
v 0.03444485 0.01530787 0.01718218
v 0.04276732 0.01929006 0.01718218
v 0.04017252 0.02105453 0.01661310
v 0.03652546 0.02370123 0.01386884
v 0.03304581 0.02587848 0.01032786
v 0.03652546 0.02456997 0.01213376
v 0.02957811 0.02749726 0.00742426
v 0.05748111 0.02697386 -0.00096785
v 0.04192431 0.02401689 0.01108158
v 0.05748111 0.02483977 0.00298540
v 0.05748111 0.02197453 0.00676665
v 0.05636906 0.02066602 0.00886595
v 0.05534669 0.01875047 0.01072243
v 0.04701824 0.01543468 0.01718218
v 0.05630329 0.01440406 0.01216158
v 0.04545777 0.01723961 0.01718218
v 0.05193280 0.02063904 0.01132187
v 0.04512296 0.02073347 0.01487296
v 0.03999316 0.02343143 0.01296336
v 0.04280917 0.02114626 0.01541169
v 0.05589076 0.02431097 0.00461172
f 1 2 3
f 1 3 4
f 1 4 5
f 1 5 6
f 1 6 15
f 1 15 24
f 1 24 38
f 1 38 39
f 1 39 26
f 1 26 16
f 1 16 7
f 1 7 2
f 2 7 8
f 2 8 9
f 2 9 3
f 3 9 10
f 3 10 11
f 3 11 12
f 3 12 13
f 3 13 4
f 4 13 5
f 5 14 6
f 5 13 14
f 6 14 15
f 7 16 17
f 7 17 18
f 7 18 19
f 7 19 8
f 8 10 9
f 8 19 18
f 8 18 17
f 8 17 16
f 8 16 25
f 8 25 30
f 8 30 20
f 8 20 10
f 10 20 21
f 10 21 12
f 10 12 11
f 12 21 13
f 13 21 22
f 13 22 14
f 14 22 23
f 14 23 15
f 15 23 24
f 16 26 27
f 16 27 28
f 16 28 29
f 16 29 25
f 20 30 31
f 20 31 32
f 20 32 33
f 20 33 34
f 20 34 21
f 21 34 22
f 22 34 35
f 22 35 36
f 22 36 23
f 23 36 37
f 23 37 24
f 24 37 38
f 25 29 30
f 26 39 40
f 26 40 41
f 26 41 27
f 27 41 42
f 27 42 29
f 27 29 28
f 29 42 43
f 29 43 30
f 30 43 31
f 31 43 56
f 31 56 58
f 31 58 44
f 31 44 32
f 32 44 45
f 32 45 46
f 32 46 33
f 33 35 34
f 33 46 35
f 35 47 36
f 35 46 48
f 35 48 47
f 36 47 49
f 36 49 37
f 37 49 39
f 37 39 38
f 39 49 40
f 40 50 41
f 40 49 47
f 40 47 48
f 40 48 46
f 40 46 51
f 40 51 50
f 41 50 52
f 41 52 53
f 41 53 54
f 41 54 55
f 41 55 56
f 41 56 57
f 41 57 42
f 42 57 56
f 42 56 43
f 44 58 59
f 44 59 60
f 44 60 45
f 45 61 46
f 45 60 62
f 45 62 61
f 46 61 51
f 50 51 52
f 51 61 52
f 52 61 63
f 52 63 53
f 53 63 60
f 53 60 59
f 53 59 54
f 54 59 58
f 54 58 55
f 55 58 56
f 60 63 62
f 61 62 63

