# https://github.com/mikedh/trimesh
v -0.02026786 -0.00125660 -0.07720876
v -0.01983061 -0.00125660 -0.07330615
v -0.02026786 0.00158118 -0.07720876
v -0.01652120 0.00158738 -0.09148207
v -0.01640888 -0.00131856 -0.09148207
v -0.02008333 -0.00408818 -0.07720876
v -0.01962202 -0.00693215 -0.07436845
v -0.01970225 -0.00408818 -0.07331436
v -0.01983061 0.00442515 -0.07330615
v -0.01811774 -0.00693215 -0.07202853
v -0.02026385 0.00442515 -0.07720876
v -0.01634069 0.00443135 -0.09148207
v -0.01612407 -0.00416253 -0.09148207
v -0.01575903 -0.00697552 -0.09148207
v -0.01961801 -0.00693215 -0.07720876
v -0.01884381 -0.01060019 -0.07758405
v -0.01876358 -0.01037094 -0.07341280
v -0.01808565 0.01011310 -0.07207980
v -0.01965010 0.00726912 -0.07332461
v -0.01714297 -0.00408818 -0.07156096
v -0.01714297 -0.00125660 -0.07154250
v -0.01714297 0.00442515 -0.07154250
v -0.01714297 -0.00976992 -0.07194855
v -0.02001113 0.00726912 -0.07720876
v -0.01593955 0.00814896 -0.09148207
v -0.01111783 -0.03353785 -0.09148207
v -0.01714297 -0.01545787 -0.07436845
v -0.01591548 -0.01806639 -0.07349688
v -0.01447939 -0.01841957 -0.07219464
v -0.01535789 -0.01545787 -0.07200392
v -0.01714297 0.00726912 -0.07157941
v -0.01714297 0.01295707 -0.07202853
v -0.01873951 0.01332263 -0.07336973
v -0.01948563 0.01011310 -0.07436845
v -0.01430289 -0.01261390 -0.07154250
v -0.00109332 -0.02398979 -0.07053147
v -0.01403413 0.01633390 -0.07156096
v -0.01947761 0.01011310 -0.07720876
v -0.01874352 0.01368820 -0.07756764
v -0.01399000 0.01687295 -0.09148207
v -0.00109332 -0.03353785 -0.09148207
v -0.00177526 -0.03353785 -0.08656229
v -0.00199589 -0.03307315 -0.07202648
v -0.00599927 -0.03162948 -0.07389472
v -0.00903190 -0.02864299 -0.07389472
v -0.00969779 -0.02661690 -0.07230538
v -0.01196424 -0.02276297 -0.07216798
v -0.00861872 -0.02398979 -0.07155480
v -0.01714297 0.01653837 -0.07316260
v -0.01758824 0.01687295 -0.07720876
v -0.00109332 -0.02701964 -0.07069758
v 0.01627609 -0.02327724 -0.07154250
v 0.01627609 0.01687915 -0.07154250
v -0.00109332 0.01687915 -0.07154250
v -0.00532937 0.02976067 -0.08647205
v -0.00942502 0.02976067 -0.09053872
v -0.00109332 0.01687295 -0.09148207
v 0.02071271 -0.02327724 -0.09148002
v 0.02071271 -0.02327724 -0.08133899
v -0.00596718 -0.02986981 -0.07210236
v 0.02071271 0.01687915 -0.08133899
v -0.00107727 0.02976067 -0.08647205
v -0.00107727 0.02976067 -0.09053872
v 0.02071271 0.01687915 -0.09148002
f 1 2 9
f 1 9 3
f 1 3 4
f 1 4 5
f 1 5 6
f 1 6 7
f 1 7 8
f 1 8 2
f 2 8 10
f 2 10 9
f 3 9 11
f 3 11 4
f 4 11 12
f 4 12 25
f 4 25 40
f 4 40 57
f 4 57 41
f 4 41 26
f 4 26 14
f 4 14 13
f 4 13 5
f 5 13 6
f 6 13 14
f 6 14 15
f 6 15 7
f 7 15 16
f 7 16 17
f 7 17 8
f 8 17 10
f 9 10 18
f 9 18 19
f 9 19 11
f 10 20 21
f 10 21 22
f 10 22 18
f 10 17 23
f 10 23 20
f 11 19 24
f 11 24 12
f 12 24 25
f 14 26 15
f 15 26 16
f 16 27 17
f 16 26 27
f 17 27 28
f 17 28 29
f 17 29 30
f 17 30 23
f 18 22 31
f 18 31 32
f 18 32 33
f 18 33 19
f 19 33 34
f 19 34 24
f 20 23 35
f 20 35 36
f 20 36 21
f 21 36 22
f 22 37 31
f 22 36 37
f 23 30 35
f 24 34 38
f 24 38 39
f 24 39 25
f 25 39 40
f 26 41 42
f 26 42 43
f 26 43 44
f 26 44 45
f 26 45 28
f 26 28 27
f 28 45 46
f 28 46 47
f 28 47 29
f 29 47 30
f 30 47 48
f 30 48 35
f 31 37 32
f 32 37 49
f 32 49 33
f 33 39 34
f 33 49 50
f 33 50 39
f 34 39 38
f 35 48 51
f 35 51 36
f 36 51 52
f 36 52 53
f 36 53 54
f 36 54 37
f 37 54 55
f 37 55 49
f 39 50 56
f 39 56 40
f 40 56 63
f 40 63 57
f 41 58 59
f 41 59 43
f 41 43 42
f 41 57 64
f 41 64 58
f 43 59 52
f 43 52 51
f 43 51 60
f 43 60 44
f 44 60 46
f 44 46 45
f 46 48 47
f 46 60 48
f 48 60 51
f 49 55 56
f 49 56 50
f 52 59 61
f 52 61 53
f 53 61 62
f 53 62 55
f 53 55 54
f 55 62 63
f 55 63 56
f 57 63 64
f 58 64 61
f 58 61 59
f 61 64 63
f 61 63 62

