# https://github.com/mikedh/trimesh
v 0.07095297 -0.02228691 -0.03213723
v 0.07093943 -0.02868253 -0.02466107
v 0.07093492 -0.02615028 -0.02948995
v 0.06988825 -0.02096002 -0.03739351
v 0.07094394 -0.02051208 0.01337040
v 0.07093492 -0.02891993 0.00352764
v 0.06893182 -0.03237068 -0.02554775
v 0.06893633 -0.03058171 -0.02964305
v 0.06993337 -0.03336549 -0.01304495
v 0.06993788 -0.03220535 -0.01937927
v 0.06893633 -0.02800425 -0.03354061
v 0.06893633 -0.02489546 -0.03688957
v 0.06412709 -0.02034109 -0.04042352
v 0.04484953 -0.02034109 0.01997902
v 0.06919800 -0.02169765 0.01715951
v 0.06892731 -0.02600049 0.01469723
v 0.07093041 -0.02505514 0.00935164
v 0.06892731 -0.02983561 0.01004695
v 0.06892731 -0.03260666 0.00422294
v 0.06992435 -0.03243709 -0.00040819
v 0.06993788 -0.03301928 -0.00558792
v 0.05851030 -0.03285254 -0.02438677
v 0.04470065 -0.03184360 -0.02826519
v 0.05146787 -0.03157652 -0.02865431
v 0.04714587 -0.03457792 -0.01425058
v 0.04427657 -0.02929015 -0.03426143
v 0.05100319 -0.02847056 -0.03501415
v 0.05081822 -0.02712814 -0.03680664
v 0.05061069 -0.02561613 -0.03836311
v 0.04315321 -0.02435849 -0.03991320
v 0.04555783 -0.02084698 -0.04143140
v 0.04129899 -0.02034109 -0.03968356
v 0.02486366 -0.02455491 0.02373624
v 0.04000420 -0.02034109 0.00674902
v 0.02486366 -0.02785870 0.02020229
v 0.02486366 -0.02984126 0.01616439
v 0.02486366 -0.03142815 0.01219029
v 0.02486366 -0.03274232 0.00801844
v 0.02486366 -0.03378941 0.00343195
v 0.02486366 -0.03453411 -0.00192639
v 0.03604312 -0.03475314 -0.00983632
v 0.04606763 -0.03343473 -0.02207758
v 0.03791538 -0.03199762 -0.02765281
v 0.03752288 -0.02986669 -0.03317701
v 0.03532579 -0.03450726 -0.01494588
v 0.04122230 -0.03447900 -0.01546896
v 0.04087040 -0.03375126 -0.02055301
v 0.03716647 -0.02761141 -0.03699801
v 0.03727926 -0.02477111 -0.03993234
v 0.02486366 -0.02450121 -0.03769332
v 0.02486366 -0.02267692 -0.01959616
v 0.04000420 -0.02034109 -0.02665769
v 0.02486366 -0.03477292 -0.00714439
v 0.03060227 -0.03477575 -0.00871362
v 0.03304749 -0.03348560 -0.02117177
v 0.03113914 -0.03192838 -0.02686819
v 0.03080980 -0.03027649 -0.03123779
v 0.02486366 -0.02807490 -0.03408282
v 0.02666826 -0.03366930 -0.01879879
v 0.02953305 -0.03452987 -0.01372112
v 0.02969997 -0.02659823 -0.03740627
v 0.02486366 -0.03452846 -0.01243257
v 0.02486366 -0.03182664 -0.02535638
v 0.02486366 -0.03019453 -0.02969408
f 1 2 3
f 1 3 4
f 1 4 5
f 1 5 6
f 1 6 2
f 2 7 8
f 2 8 3
f 2 6 9
f 2 9 10
f 2 10 7
f 3 8 11
f 3 11 12
f 3 12 4
f 4 12 13
f 4 13 5
f 5 14 15
f 5 15 16
f 5 16 17
f 5 17 6
f 5 13 14
f 6 17 18
f 6 18 19
f 6 19 20
f 6 20 21
f 6 21 9
f 7 22 23
f 7 23 24
f 7 24 8
f 7 10 9
f 7 9 25
f 7 25 22
f 8 24 26
f 8 26 27
f 8 27 11
f 9 21 25
f 11 27 28
f 11 28 12
f 12 28 29
f 12 29 13
f 13 29 30
f 13 30 31
f 13 31 32
f 13 32 52
f 13 52 34
f 13 34 14
f 14 33 15
f 14 34 33
f 15 33 16
f 16 33 35
f 16 35 18
f 16 18 17
f 18 35 36
f 18 36 19
f 19 36 37
f 19 37 38
f 19 38 39
f 19 39 40
f 19 40 41
f 19 41 25
f 19 25 21
f 19 21 20
f 22 42 43
f 22 43 23
f 22 25 42
f 23 44 24
f 23 43 44
f 24 44 26
f 25 41 45
f 25 45 46
f 25 46 47
f 25 47 42
f 26 48 27
f 26 44 48
f 27 48 28
f 28 48 49
f 28 49 29
f 29 49 30
f 30 49 31
f 31 49 50
f 31 50 32
f 32 50 51
f 32 51 52
f 33 34 51
f 33 51 50
f 33 50 58
f 33 58 64
f 33 64 63
f 33 63 62
f 33 62 53
f 33 53 40
f 33 40 39
f 33 39 38
f 33 38 37
f 33 37 36
f 33 36 35
f 34 52 51
f 40 53 54
f 40 54 41
f 41 54 45
f 42 47 43
f 43 47 55
f 43 55 56
f 43 56 57
f 43 57 44
f 44 57 58
f 44 58 48
f 45 59 55
f 45 55 47
f 45 47 46
f 45 54 60
f 45 60 59
f 48 58 61
f 48 61 49
f 49 61 50
f 50 61 58
f 53 62 54
f 54 62 60
f 55 59 56
f 56 63 57
f 56 59 63
f 57 64 58
f 57 63 64
f 59 60 62
f 59 62 63

