# https://github.com/mikedh/trimesh
v 0.07112169 -0.02033968 0.01266868
v 0.07776743 -0.02033968 0.01272586
v 0.07112169 -0.01540269 0.01601967
v 0.07112169 -0.01896778 -0.03346751
v 0.09834918 -0.02018569 -0.03208937
v 0.09843964 -0.01918709 0.01288597
v 0.09816544 -0.01376014 0.01648286
v 0.09999719 -0.02026968 -0.00213059
v 0.07112169 -0.00905647 0.01843284
v 0.07112169 -0.01146897 -0.03754474
v 0.09791669 -0.01759587 -0.03458260
v 0.09816544 -0.01294353 -0.03666982
v 0.09841420 -0.00809987 -0.03797933
v 0.09999719 -0.01244890 -0.02689133
v 0.09999719 -0.01680259 -0.02323154
v 0.09999719 -0.02014369 -0.01786767
v 0.09999719 -0.01719457 0.00295309
v 0.09999719 -0.01294820 0.00674440
v 0.09999719 -0.00780589 0.00918044
v 0.09816544 -0.00735326 0.01850718
v 0.10000002 -0.00218295 0.01007251
v 0.07112169 -0.00232294 0.01933063
v 0.07112169 -0.00341953 -0.03908871
v 0.09816544 -0.00315355 -0.03883138
v 0.09999719 -0.00159033 -0.02991065
v 0.09999719 -0.00723660 -0.02918441
v 0.10000002 0.01617910 -0.00134144
v 0.09841420 -0.00064306 0.01875307
v 0.09999719 0.00867096 0.00706463
v 0.09999719 0.00346799 0.00934628
v 0.07112169 0.00442459 0.01863298
v 0.09791669 0.00193743 -0.03891144
v 0.07112169 0.00195143 -0.03890572
v 0.09816544 0.00683242 -0.03751614
v 0.09999719 0.00402795 -0.02901858
v 0.09999719 0.01786365 -0.00678538
v 0.09816544 0.02617440 -0.00284539
v 0.09816544 0.02378523 0.00344487
v 0.09999719 0.01302932 0.00339912
v 0.09999719 0.00917025 -0.02657110
v 0.09999719 0.01341662 -0.02277979
v 0.09999719 0.01642175 -0.01794772
v 0.09999719 0.01794764 -0.01246376
v 0.09816544 0.00597848 0.01793534
v 0.09816544 0.02001483 0.00900317
v 0.09816544 0.01219404 0.01536777
v 0.07112169 0.01083614 0.01640852
v 0.07112169 0.00852163 -0.03724166
v 0.09841420 0.01138677 -0.03541177
v 0.09816544 0.02705634 -0.00950162
v 0.07112169 0.02683235 -0.00441223
v 0.07112169 0.02478849 0.00205529
v 0.07112169 0.02131207 0.00788236
v 0.09816544 0.02416321 -0.02252818
v 0.09816544 0.01572180 -0.03288423
v 0.09816544 0.02054679 -0.02819513
v 0.09816544 0.02637038 -0.01618073
v 0.09791669 0.01657107 0.01276017
v 0.07112169 0.01657107 0.01276017
v 0.07112169 0.01454121 -0.03410797
v 0.07112169 0.02733165 -0.01117712
v 0.07112169 0.02364991 -0.02416364
v 0.07112169 0.02624439 -0.01788482
v 0.07112169 0.01966952 -0.02967048
f 1 2 3
f 1 3 9
f 1 9 22
f 1 22 31
f 1 31 47
f 1 47 59
f 1 59 53
f 1 53 52
f 1 52 51
f 1 51 61
f 1 61 63
f 1 63 62
f 1 62 64
f 1 64 60
f 1 60 48
f 1 48 33
f 1 33 23
f 1 23 10
f 1 10 4
f 1 4 5
f 1 5 2
f 2 6 7
f 2 7 3
f 2 5 8
f 2 8 6
f 3 7 9
f 4 10 11
f 4 11 5
f 5 11 12
f 5 12 13
f 5 13 14
f 5 14 15
f 5 15 16
f 5 16 8
f 6 8 17
f 6 17 18
f 6 18 19
f 6 19 7
f 7 20 9
f 7 19 20
f 8 21 17
f 8 16 21
f 9 20 22
f 10 23 13
f 10 13 12
f 10 12 11
f 13 23 24
f 13 24 25
f 13 25 26
f 13 26 14
f 14 26 27
f 14 27 21
f 14 21 15
f 15 21 16
f 17 21 18
f 18 21 19
f 19 21 28
f 19 28 20
f 20 28 22
f 21 27 29
f 21 29 30
f 21 30 28
f 22 28 31
f 23 32 24
f 23 33 32
f 24 32 34
f 24 34 25
f 25 34 35
f 25 35 27
f 25 27 26
f 27 36 37
f 27 37 38
f 27 38 39
f 27 39 29
f 27 35 40
f 27 40 41
f 27 41 42
f 27 42 43
f 27 43 36
f 28 44 31
f 28 30 44
f 29 39 45
f 29 45 46
f 29 46 30
f 30 46 44
f 31 44 47
f 32 33 48
f 32 48 34
f 34 48 49
f 34 49 35
f 35 49 40
f 36 50 37
f 36 43 50
f 37 51 52
f 37 52 38
f 37 50 51
f 38 52 53
f 38 53 45
f 38 45 39
f 40 49 41
f 41 54 42
f 41 49 55
f 41 55 56
f 41 56 54
f 42 54 57
f 42 57 43
f 43 57 50
f 44 46 47
f 45 53 58
f 45 58 46
f 46 58 47
f 47 58 59
f 48 60 49
f 49 60 55
f 50 57 61
f 50 61 51
f 53 59 58
f 54 56 62
f 54 62 63
f 54 63 57
f 55 60 64
f 55 64 56
f 56 64 62
f 57 63 61

