# https://github.com/mikedh/trimesh
v 0.04471289 0.02006228 -0.14409157
v 0.05207937 0.01823314 -0.14184902
v 0.04471289 0.02006228 -0.14432051
v 0.04062108 0.02006228 -0.13785994
v 0.04471289 0.02005974 -0.13465490
v 0.05207937 0.01823314 -0.14432051
v 0.05207631 0.01823060 -0.13174647
v 0.05207937 0.01331557 -0.14184902
v 0.03343517 0.02006228 -0.14432051
v 0.03343517 0.02006228 -0.13461305
v 0.05207937 0.01331557 -0.14432051
v 0.04777945 0.01823060 -0.13174647
v 0.05207631 0.01331557 -0.13174647
v 0.04836706 -0.00592478 -0.13987356
v 0.02081392 0.01823314 -0.14432051
v 0.02081392 0.01823314 -0.14184902
v 0.03343517 0.01823060 -0.13460074
v 0.04836706 -0.00592478 -0.14432051
v 0.04812222 0.01609363 -0.13174647
v 0.04872819 0.01331557 -0.13174647
v 0.03397993 -0.00592478 -0.13894553
v 0.02081392 0.01331557 -0.14432051
v 0.02081392 0.01331557 -0.14184902
v 0.03398299 0.01331557 -0.13481121
v 0.03397993 -0.00592478 -0.14432051
v 0.03398299 0.00956315 -0.13533185
f 1 2 6
f 1 6 3
f 1 3 9
f 1 9 10
f 1 10 4
f 1 4 5
f 1 5 2
f 2 5 7
f 2 7 13
f 2 13 8
f 2 8 11
f 2 11 6
f 3 6 11
f 3 11 18
f 3 18 25
f 3 25 22
f 3 22 15
f 3 15 9
f 4 10 5
f 5 10 7
f 7 12 19
f 7 19 20
f 7 20 13
f 7 10 12
f 8 13 14
f 8 14 18
f 8 18 11
f 9 15 16
f 9 16 10
f 10 16 17
f 10 17 12
f 12 17 19
f 13 20 21
f 13 21 14
f 14 21 25
f 14 25 18
f 15 22 23
f 15 23 16
f 16 23 17
f 17 23 24
f 17 24 20
f 17 20 19
f 20 24 26
f 20 26 21
f 21 26 23
f 21 23 22
f 21 22 25
f 23 26 24

