# https://github.com/mikedh/trimesh
v 0.07999341 0.03927242 -0.03192301
v 0.08337624 0.03873989 -0.02845856
v 0.08511018 0.03909842 -0.03191828
v 0.09551385 0.03838136 -0.03430511
v 0.08684413 0.03771175 -0.03567103
v 0.07748083 0.03639361 -0.03660214
v 0.07454293 0.03916696 -0.03019315
v 0.07818095 0.03889279 -0.02846329
v 0.07999341 0.03812300 -0.02492794
v 0.08684413 0.03800173 -0.02540531
v 0.08857807 0.03853426 -0.02845856
v 0.09551385 0.03847099 -0.03191828
v 0.10086618 0.03797010 -0.03243346
v 0.11302342 0.03549201 -0.03345909
v 0.10957516 0.03457986 -0.03672502
v 0.10417703 0.03385225 -0.03724965
v 0.07448404 0.03289793 -0.03730637
v 0.06006286 0.03744812 -0.02208266
v 0.07485701 0.03768538 -0.02314609
v 0.07990835 0.03706850 -0.02150604
v 0.09203942 0.03646216 -0.02151076
v 0.09724125 0.03714231 -0.02498466
v 0.09183003 0.03804392 -0.02685631
v 0.09733940 0.03791737 -0.02880359
v 0.10244308 0.03729522 -0.02845856
v 0.10591752 0.03698941 -0.03018842
v 0.10939195 0.03636725 -0.03018842
v 0.11302342 0.03494894 -0.02679014
v 0.11320008 0.03088382 -0.01820701
v 0.11320008 0.03096818 -0.03711258
v 0.11320008 0.01399592 -0.03729691
v 0.07702934 0.01401701 -0.03729691
v 0.07448404 0.02032295 -0.03729691
v 0.05874114 0.02352338 -0.02377943
v 0.04636143 -0.01215054 0.01095483
v 0.04922734 0.00519607 0.01095483
v 0.05749793 0.03072038 -0.00812089
v 0.05947398 0.03524947 -0.01682691
v 0.07685922 0.03567655 -0.01853313
v 0.08164229 0.03550783 -0.01853786
v 0.08684413 0.03609835 -0.02014483
v 0.09203942 0.03521784 -0.01904358
v 0.09767310 0.03573455 -0.02096250
v 0.10296654 0.03491731 -0.02033862
v 0.10417703 0.03628816 -0.02498466
v 0.10973873 0.03472749 -0.02302793
v 0.11302342 0.03347264 -0.02151076
v 0.11320008 0.02704015 -0.01560277
v 0.11320663 0.01106967 -0.03728746
v 0.05586214 0.02011205 0.00950383
v 0.11320008 0.00692019 -0.03728746
v 0.09226189 0.00744744 -0.03729219
v 0.07777527 0.00639821 -0.03729219
v 0.07448404 0.01549859 -0.03729219
v 0.05573127 -0.01459172 0.00461674
v 0.05661460 -0.01338958 0.01095483
v 0.05827657 0.01479734 0.01097847
v 0.05749793 0.02696106 -0.00097458
v 0.05785781 0.02440916 0.00355330
v 0.11320008 0.02076584 -0.01243609
v 0.11320008 0.01315231 -0.01042737
v 0.11320008 0.00780070 -0.00975622
v 0.05874114 0.01004152 0.01095011
f 1 2 3
f 1 3 4
f 1 4 5
f 1 5 6
f 1 6 7
f 1 7 8
f 1 8 2
f 2 8 9
f 2 9 10
f 2 10 11
f 2 11 3
f 3 11 12
f 3 12 4
f 4 12 13
f 4 13 14
f 4 14 15
f 4 15 5
f 5 15 16
f 5 16 6
f 6 16 17
f 6 17 18
f 6 18 7
f 7 18 8
f 8 18 9
f 9 18 19
f 9 19 20
f 9 20 10
f 10 20 21
f 10 21 22
f 10 22 23
f 10 23 11
f 11 23 24
f 11 24 12
f 12 24 13
f 13 24 25
f 13 25 26
f 13 26 27
f 13 27 14
f 14 27 28
f 14 28 29
f 14 29 30
f 14 30 15
f 15 30 16
f 16 30 31
f 16 31 17
f 17 32 33
f 17 33 34
f 17 34 18
f 17 31 32
f 18 34 35
f 18 35 36
f 18 36 37
f 18 37 38
f 18 38 20
f 18 20 19
f 20 38 39
f 20 39 40
f 20 40 41
f 20 41 21
f 21 42 43
f 21 43 22
f 21 41 42
f 22 24 23
f 22 43 44
f 22 44 45
f 22 45 25
f 22 25 24
f 25 45 27
f 25 27 26
f 27 45 28
f 28 45 46
f 28 46 47
f 28 47 29
f 29 48 49
f 29 49 30
f 29 47 44
f 29 44 50
f 29 50 48
f 30 49 31
f 31 49 51
f 31 51 52
f 31 52 53
f 31 53 32
f 32 53 33
f 33 53 54
f 33 54 34
f 34 54 53
f 34 53 35
f 35 55 56
f 35 56 57
f 35 57 36
f 35 53 55
f 36 50 37
f 36 57 50
f 37 50 58
f 37 58 38
f 38 58 39
f 39 58 40
f 40 58 59
f 40 59 42
f 40 42 41
f 42 44 43
f 42 59 44
f 44 59 50
f 44 47 46
f 44 46 45
f 48 60 49
f 48 50 60
f 49 60 61
f 49 61 62
f 49 62 51
f 50 59 58
f 50 57 60
f 51 62 55
f 51 55 53
f 51 53 52
f 55 62 56
f 56 63 57
f 56 62 63
f 57 63 62
f 57 62 61
f 57 61 60

