# https://github.com/mikedh/trimesh
v 0.05409312 -0.01651306 0.01028482
v 0.04000138 -0.01651306 0.01028482
v 0.05409312 -0.01820966 0.01028482
v 0.05409312 -0.01651306 -0.03035537
v 0.04000138 -0.01654340 0.01028482
v 0.04000138 -0.01651306 -0.03016625
v 0.05409174 -0.02033968 0.01028482
v 0.05409312 -0.01820966 -0.03035537
v 0.05409174 -0.01820966 -0.04159008
v 0.04765079 -0.01820966 -0.04193254
v 0.04622299 -0.01651306 -0.03035537
v 0.04000138 -0.01685283 0.01010592
v 0.04234931 -0.02033968 0.01028482
v 0.04015726 -0.01651306 -0.03017648
v 0.04460206 -0.01820966 -0.04003623
v 0.04129812 -0.02033968 -0.03968866
v 0.04000138 -0.01820966 -0.02861241
v 0.05409174 -0.02033968 -0.04098694
v 0.05409174 -0.02026213 -0.04101761
v 0.05409174 -0.01955338 -0.04129362
v 0.04740248 -0.01870189 -0.04184564
v 0.04642302 -0.02002314 -0.04160541
v 0.04608780 -0.02033968 -0.04153897
v 0.04000138 -0.01820966 0.00880253
v 0.04000275 -0.02033968 0.00675800
v 0.04000275 -0.02033968 -0.02666499
f 1 2 5
f 1 5 13
f 1 13 7
f 1 7 3
f 1 3 8
f 1 8 4
f 1 4 11
f 1 11 14
f 1 14 6
f 1 6 2
f 2 6 17
f 2 17 24
f 2 24 12
f 2 12 5
f 3 7 18
f 3 18 8
f 4 8 9
f 4 9 10
f 4 10 11
f 5 12 13
f 6 14 10
f 6 10 15
f 6 15 16
f 6 16 17
f 7 13 25
f 7 25 26
f 7 26 16
f 7 16 23
f 7 23 18
f 8 18 19
f 8 19 20
f 8 20 9
f 9 20 21
f 9 21 10
f 10 21 22
f 10 22 23
f 10 23 16
f 10 16 15
f 10 14 11
f 12 24 13
f 13 24 25
f 16 26 17
f 17 26 25
f 17 25 24
f 18 23 19
f 19 23 20
f 20 23 22
f 20 22 21

