# https://github.com/mikedh/trimesh
v 0.07881893 0.01477990 -0.02772320
v 0.07811215 0.01903342 -0.02489345
v 0.07825443 0.01471274 -0.02244630
v 0.03393835 0.01374850 -0.02999710
v 0.07816264 0.02155995 -0.02985995
v 0.07604230 0.02615407 -0.01641865
v 0.07733194 0.01972102 -0.01890912
v 0.07659763 0.02007761 -0.01392819
v 0.07558794 0.01919652 -0.00690435
v 0.07527585 0.01528840 -0.00315783
v 0.07121416 0.01477990 0.02287295
v 0.04617392 0.01374850 0.04134571
v 0.03215763 0.01374850 -0.02100255
v 0.03394294 0.03008458 -0.02999710
v 0.07659303 0.02861983 -0.02963616
v 0.07444516 0.03005420 -0.01039100
v 0.07409177 0.02861983 -0.00469542
v 0.07539518 0.02494517 -0.00941647
v 0.07260936 0.02017995 0.01176331
v 0.07229269 0.01696582 0.01537990
v 0.07394949 0.01581130 0.00526644
v 0.07108565 0.02007761 0.02088780
v 0.06899744 0.01505494 0.02924710
v 0.04690365 0.01449686 0.04082596
v 0.04005613 0.01527881 0.04374233
v 0.03473692 0.01477990 0.04363405
v 0.03197864 0.01426500 0.01806527
v 0.06480724 0.01645572 0.03186028
v 0.03194192 0.01697542 -0.01530697
v 0.07534470 0.03008458 -0.02033121
v 0.03206584 0.02197890 -0.01037657
v 0.03211632 0.02245383 0.00951106
v 0.03415406 0.02923068 0.03528918
v 0.03959260 0.03008458 0.03599662
v 0.07085159 0.03005420 0.01233359
v 0.07219172 0.02937140 0.00642144
v 0.07335286 0.02862623 0.00024942
v 0.07220549 0.02634116 0.01009578
v 0.06861651 0.02001685 0.02765898
v 0.07151707 0.02362914 0.01591409
v 0.07006220 0.02576710 0.02053408
v 0.05961653 0.01865444 0.03357835
v 0.04065277 0.02168947 0.04106418
v 0.03522341 0.02532895 0.04020515
v 0.03442943 0.02058771 0.04122299
v 0.03194192 0.01865444 0.01377734
v 0.06485772 0.02245063 0.02949975
v 0.05393933 0.03008458 0.02926875
v 0.04598116 0.02806816 0.03470447
v 0.04470070 0.02937140 0.03423525
v 0.05393933 0.02927385 0.02999063
v 0.04208469 0.02588543 0.03805396
v 0.06962161 0.02980794 0.01776930
v 0.06804741 0.02497236 0.02532010
v 0.05323714 0.02150078 0.03536137
v 0.06037379 0.02154396 0.03203353
v 0.04933608 0.02550325 0.03494268
v 0.06040133 0.02588863 0.02952141
v 0.05516013 0.02561039 0.03216347
v 0.06680825 0.02963844 0.02307508
v 0.06100255 0.02946734 0.02647510
v 0.04744062 0.02617166 0.03539025
v 0.05326468 0.02625801 0.03261103
v 0.05179145 0.02815291 0.03192525
f 1 2 3
f 1 3 4
f 1 4 5
f 1 5 2
f 2 5 6
f 2 6 7
f 2 7 3
f 3 7 8
f 3 8 9
f 3 9 10
f 3 10 11
f 3 11 12
f 3 12 4
f 4 13 14
f 4 14 5
f 4 12 13
f 5 15 6
f 5 14 15
f 6 16 17
f 6 17 18
f 6 18 7
f 6 15 16
f 7 18 8
f 8 18 19
f 8 19 9
f 9 19 20
f 9 20 21
f 9 21 10
f 10 21 11
f 11 22 23
f 11 23 12
f 11 21 20
f 11 20 22
f 12 24 25
f 12 25 26
f 12 26 27
f 12 27 13
f 12 23 28
f 12 28 24
f 13 27 29
f 13 29 14
f 14 30 15
f 14 29 31
f 14 31 32
f 14 32 33
f 14 33 34
f 14 34 48
f 14 48 30
f 15 30 16
f 16 30 35
f 16 35 36
f 16 36 17
f 17 36 37
f 17 37 18
f 18 37 38
f 18 38 19
f 19 38 22
f 19 22 20
f 22 39 23
f 22 38 40
f 22 40 41
f 22 41 39
f 23 39 28
f 24 28 42
f 24 42 25
f 25 42 43
f 25 43 44
f 25 44 26
f 26 44 45
f 26 45 27
f 27 45 33
f 27 33 46
f 27 46 29
f 28 39 47
f 28 47 42
f 29 46 31
f 30 48 35
f 31 46 32
f 32 46 33
f 33 45 44
f 33 44 34
f 34 49 50
f 34 50 51
f 34 51 48
f 34 44 52
f 34 52 49
f 35 53 41
f 35 41 38
f 35 38 36
f 35 48 53
f 36 38 37
f 38 41 40
f 39 41 54
f 39 54 47
f 41 53 54
f 42 55 43
f 42 47 56
f 42 56 55
f 43 52 44
f 43 55 47
f 43 47 57
f 43 57 52
f 47 58 59
f 47 59 57
f 47 55 56
f 47 54 60
f 47 60 58
f 48 51 61
f 48 61 60
f 48 60 53
f 49 52 62
f 49 62 63
f 49 63 64
f 49 64 50
f 50 64 51
f 51 64 61
f 52 57 62
f 53 60 54
f 57 59 62
f 58 64 63
f 58 63 59
f 58 60 61
f 58 61 64
f 59 63 62

