# https://github.com/mikedh/trimesh
v -0.00109506 -0.02327455 -0.07151426
v 0.02071545 -0.03353191 -0.09148207
v -0.00109506 -0.02327455 -0.07070870
v -0.00109506 -0.01852896 -0.07151426
v 0.02905913 -0.03353785 -0.09148207
v 0.02241579 -0.03353785 -0.09147906
v 0.02071545 -0.03353191 -0.06133348
v 0.02071545 0.01686991 -0.09148207
v -0.00101604 -0.02327455 -0.06583623
v -0.00088962 0.01687585 -0.06583322
v -0.00013111 0.01687585 -0.06710770
v 0.00032716 0.01687585 -0.06787419
v 0.03118929 -0.03353785 -0.09148207
v 0.02241579 -0.03353785 -0.06133047
v 0.03118929 -0.03251033 -0.06086156
v 0.02071545 -0.03251033 -0.06124330
v 0.00275442 -0.02327455 -0.06124030
v 0.00090237 -0.02327455 -0.06140562
v -0.00031125 -0.02327455 -0.06299270
v -0.00085486 -0.02327455 -0.06512084
v 0.03118297 -0.03353785 -0.06107798
v 0.01410056 0.01896058 -0.08308675
v 0.01410056 0.02713915 -0.06859559
v 0.03118929 0.01686991 -0.09148207
v -0.00031442 0.01687585 -0.06299270
v 0.01410056 0.02713915 -0.06124330
v 0.03118929 -0.03353785 -0.06158296
v 0.03118929 -0.02967724 -0.06077439
v 0.00275442 0.01687585 -0.06124030
v 0.00090237 0.01687585 -0.06140562
v -0.00031442 -0.02114824 -0.06299270
v 0.02126221 0.02713915 -0.06859559
v 0.03118929 0.01686991 -0.06375619
v 0.03118297 0.01686991 -0.06078942
v 0.02126221 0.02713915 -0.06124330
v 0.03118929 -0.02965942 -0.06077439
v 0.03118929 0.01581270 -0.06077740
f 1 2 7
f 1 7 3
f 1 3 4
f 1 4 8
f 1 8 2
f 2 5 6
f 2 6 14
f 2 14 7
f 2 8 24
f 2 24 13
f 2 13 5
f 3 9 4
f 3 7 9
f 4 9 10
f 4 10 11
f 4 11 12
f 4 12 8
f 5 13 27
f 5 27 21
f 5 21 14
f 5 14 6
f 7 15 16
f 7 16 17
f 7 17 18
f 7 18 19
f 7 19 20
f 7 20 9
f 7 14 21
f 7 21 15
f 8 12 22
f 8 22 23
f 8 23 32
f 8 32 24
f 9 20 25
f 9 25 10
f 10 25 26
f 10 26 23
f 10 23 11
f 11 23 12
f 12 23 22
f 13 24 33
f 13 33 37
f 13 37 36
f 13 36 28
f 13 28 15
f 13 15 27
f 15 28 17
f 15 17 16
f 15 21 27
f 17 28 36
f 17 36 29
f 17 29 30
f 17 30 18
f 18 30 25
f 18 25 31
f 18 31 19
f 19 31 20
f 20 31 25
f 23 26 35
f 23 35 32
f 24 32 35
f 24 35 33
f 25 30 26
f 26 30 29
f 26 29 34
f 26 34 35
f 29 37 34
f 29 36 37
f 33 34 37
f 33 35 34

