# https://github.com/mikedh/trimesh
v -0.00165455 0.02207069 -0.00866402
v -0.00227933 0.01547798 -0.01308694
v -0.00227933 0.01547798 -0.01782990
v -0.00290411 0.01936539 -0.03568422
v -0.00165455 0.03065571 -0.01458223
v -0.00165455 0.03045354 -0.01112470
v -0.00290411 0.02669576 0.00893321
v -0.00290411 0.02241791 0.00945787
v -0.00290411 0.02133456 0.00631513
v -0.02089223 0.01664776 0.01586402
v -0.02104842 0.01620639 0.00951558
v -0.01864223 0.01936539 -0.03730018
v -0.01552031 0.01936539 -0.03730018
v -0.01327822 0.01936539 -0.03721624
v -0.01327822 0.02251051 -0.03721624
v -0.01336916 0.02690873 -0.03720575
v -0.00290411 0.02657693 -0.03550583
v -0.00227933 0.03080540 -0.01794008
v -0.01864223 0.03100139 -0.01805551
v -0.00290411 0.02958933 -0.03418368
v -0.00290411 0.03092731 -0.03193287
v -0.00290411 0.03097053 -0.02845959
v -0.00227933 0.03023132 -0.00807115
v -0.00290411 0.02950600 -0.00071012
v -0.00290411 0.02893500 0.00338751
v -0.00290411 0.02820505 0.00654599
v -0.01864223 0.03078225 -0.01458223
v -0.01552031 0.02632539 0.00968872
v -0.01552031 0.02466024 0.01182935
v -0.01205238 0.02455375 0.01167195
v -0.00954140 0.02436393 0.01150931
v -0.00907282 0.02797511 0.00710213
v -0.02185312 0.01921570 0.01628899
v -0.02185312 0.02160772 0.00175580
v -0.01864223 0.02686398 -0.03726346
v -0.01552031 0.02694731 -0.03725821
v -0.01864223 0.02957544 -0.03570521
v -0.01552031 0.02965414 -0.03550583
v -0.00290411 0.03094738 -0.02436722
v -0.00290411 0.03090262 -0.02089919
v -0.01864223 0.03112948 -0.02152354
v -0.01944100 0.02922821 -0.00066814
v -0.01325647 0.03118812 -0.03369050
v -0.01864223 0.03049984 -0.01111420
v -0.00511852 0.03018502 -0.00748353
v -0.00290411 0.02988563 -0.00417815
v -0.01205238 0.02984088 -0.00417815
v -0.01205238 0.02942112 -0.00071012
v -0.01205238 0.02892265 0.00275791
v -0.01232325 0.02788714 0.00721231
v -0.01948449 0.02605223 0.00980940
v -0.01961696 0.02446579 0.01197101
v -0.02109192 0.02118641 0.01501931
v -0.01957347 0.02768189 0.00654074
v -0.01952997 0.02862789 0.00275791
v -0.01864223 0.03124368 -0.03300319
v -0.01864223 0.03120510 -0.02540081
v -0.01552031 0.02880845 0.00275791
v -0.01552031 0.02935322 -0.00071012
v -0.01863827 0.02975137 -0.00417815
v -0.01864223 0.03014335 -0.00748353
v -0.01552031 0.03017885 -0.00765667
v -0.01552031 0.02980693 -0.00417815
v -0.01552031 0.02787017 0.00685554
f 1 2 3
f 1 3 4
f 1 4 5
f 1 5 6
f 1 6 7
f 1 7 8
f 1 8 2
f 2 8 9
f 2 9 10
f 2 10 11
f 2 11 3
f 3 11 12
f 3 12 13
f 3 13 14
f 3 14 4
f 4 14 15
f 4 15 16
f 4 16 17
f 4 17 5
f 5 18 19
f 5 19 6
f 5 17 20
f 5 20 21
f 5 21 22
f 5 22 18
f 6 23 24
f 6 24 25
f 6 25 26
f 6 26 7
f 6 19 27
f 6 27 23
f 7 28 29
f 7 29 30
f 7 30 31
f 7 31 8
f 7 26 32
f 7 32 28
f 8 31 33
f 8 33 10
f 8 10 9
f 10 33 11
f 11 33 34
f 11 34 12
f 12 34 35
f 12 35 13
f 13 35 36
f 13 36 16
f 13 16 15
f 13 15 14
f 16 37 38
f 16 38 20
f 16 20 17
f 16 36 37
f 18 39 40
f 18 40 41
f 18 41 19
f 18 22 39
f 19 41 42
f 19 42 27
f 20 38 43
f 20 43 21
f 21 43 22
f 22 43 39
f 23 27 44
f 23 44 45
f 23 45 46
f 23 46 24
f 24 46 47
f 24 47 48
f 24 48 25
f 25 48 49
f 25 49 32
f 25 32 26
f 27 42 44
f 28 32 50
f 28 50 51
f 28 51 52
f 28 52 29
f 29 52 53
f 29 53 30
f 30 53 31
f 31 53 33
f 32 49 50
f 33 53 54
f 33 54 55
f 33 55 34
f 34 55 42
f 34 42 56
f 34 56 37
f 34 37 35
f 35 37 36
f 37 56 43
f 37 43 38
f 39 57 40
f 39 43 57
f 40 57 41
f 41 57 42
f 42 55 58
f 42 58 49
f 42 49 59
f 42 59 60
f 42 60 61
f 42 61 44
f 42 57 56
f 43 56 57
f 44 61 62
f 44 62 46
f 44 46 45
f 46 62 47
f 47 63 48
f 47 62 61
f 47 61 63
f 48 59 49
f 48 63 60
f 48 60 59
f 49 58 64
f 49 64 50
f 50 64 51
f 51 53 52
f 51 64 54
f 51 54 53
f 54 64 55
f 55 64 58
f 60 63 61

