# https://github.com/mikedh/trimesh
v 0.02486366 -0.03063470 0.01417610
v 0.02486366 -0.03325998 0.00575105
v 0.02486366 -0.02267711 -0.01959442
v 0.02482628 -0.02047737 -0.00289134
v 0.02476219 -0.02047875 0.00337311
v 0.02379014 -0.02605642 0.02231350
v 0.01656392 -0.02640017 0.02511333
v 0.00637883 -0.02872466 0.02374537
v 0.00155067 -0.03192101 0.01654764
v -0.00055899 -0.03433282 0.00511182
v 0.02486366 -0.03453380 -0.00190053
v 0.02387560 -0.02614929 -0.03581808
v 0.01735437 -0.02421291 -0.03599707
v 0.02037197 -0.02047737 -0.01447419
v 0.02333083 -0.02047875 -0.00895124
v 0.02459662 -0.03463499 -0.01005072
v 0.02314390 -0.02047737 0.00943301
v 0.01572540 -0.02047737 0.01941779
v 0.01040053 -0.02047875 0.02272261
v 0.00485668 -0.02234444 0.02688400
v 0.02006754 -0.02047737 0.01489204
v -0.00534977 -0.02421152 0.02930668
v -0.00193159 -0.02826725 0.02530509
v -0.00776919 -0.03096737 0.01799870
v -0.00753419 -0.03302157 0.01055167
v -0.01300327 -0.03302434 0.00171751
v -0.00349113 -0.03431757 -0.00449581
v 0.02089538 -0.03074975 -0.02705424
v 0.01806471 -0.02807181 -0.03216808
v 0.02259378 -0.03337780 -0.01899355
v -0.00973998 -0.02632393 -0.02559679
v -0.02007461 -0.02421152 -0.02199793
v -0.01069066 -0.02047875 -0.02241343
v -0.00132273 -0.02047737 -0.02495756
v 0.00492611 -0.02047737 -0.02449732
v 0.01087587 -0.02047737 -0.02250292
v 0.01612596 -0.02047875 -0.01908304
v -0.01361213 -0.02047875 0.02095833
v -0.00796146 -0.02047875 0.02368784
v -0.00183012 -0.02047875 0.02492795
v -0.02498823 -0.02047737 -0.00026411
v -0.01399667 -0.02529268 0.02497909
v -0.01657632 -0.02817576 0.01957759
v -0.01445065 -0.03096737 0.01311498
v -0.01866995 -0.03096875 0.00600674
v -0.01920938 -0.03097014 -0.00345386
v -0.01055179 -0.03302434 -0.00753854
v -0.00665294 -0.03184338 -0.01554810
v -0.01461621 -0.02817715 -0.02108383
v -0.01958324 -0.02817715 -0.01657726
v -0.02555436 -0.02458715 -0.01510064
v -0.02177301 -0.02047875 -0.01226245
v -0.01803973 -0.02047875 -0.01728680
v -0.02202937 -0.02047875 0.01180456
v -0.02019745 -0.02234444 0.01849730
v -0.02969890 -0.02421152 0.00235035
v -0.02426721 -0.02047875 0.00595560
v -0.02413903 -0.02047875 -0.00645825
v -0.02930367 -0.02421152 -0.00535238
v -0.02645697 -0.02520258 0.01088407
v -0.02109472 -0.02817576 0.01461078
v -0.02563448 -0.02817576 -0.00121017
v -0.02347142 -0.02817576 -0.01012743
v -0.01613837 -0.03097014 -0.01113741
f 1 2 11
f 1 11 3
f 1 3 4
f 1 4 5
f 1 5 6
f 1 6 7
f 1 7 8
f 1 8 9
f 1 9 2
f 2 9 10
f 2 10 11
f 3 12 13
f 3 13 14
f 3 14 15
f 3 15 4
f 3 11 16
f 3 16 12
f 4 15 14
f 4 14 36
f 4 36 35
f 4 35 34
f 4 34 41
f 4 41 18
f 4 18 21
f 4 21 17
f 4 17 5
f 5 17 6
f 6 18 19
f 6 19 20
f 6 20 7
f 6 17 21
f 6 21 18
f 7 20 22
f 7 22 23
f 7 23 8
f 8 23 9
f 9 23 24
f 9 24 25
f 9 25 10
f 10 26 27
f 10 27 16
f 10 16 11
f 10 25 26
f 12 28 29
f 12 29 13
f 12 16 30
f 12 30 28
f 13 31 32
f 13 32 33
f 13 33 34
f 13 34 35
f 13 35 36
f 13 36 37
f 13 37 14
f 13 29 31
f 14 37 36
f 16 27 30
f 18 38 39
f 18 39 40
f 18 40 19
f 18 41 38
f 19 40 20
f 20 40 22
f 22 40 39
f 22 39 38
f 22 38 42
f 22 42 23
f 23 42 43
f 23 43 24
f 24 43 44
f 24 44 25
f 25 44 26
f 26 44 45
f 26 45 46
f 26 46 47
f 26 47 27
f 27 47 48
f 27 48 30
f 28 30 48
f 28 48 29
f 29 48 49
f 29 49 31
f 31 49 32
f 32 49 50
f 32 50 51
f 32 51 52
f 32 52 53
f 32 53 33
f 33 53 34
f 34 53 41
f 38 41 54
f 38 54 55
f 38 55 42
f 41 56 57
f 41 57 54
f 41 53 52
f 41 52 58
f 41 58 59
f 41 59 56
f 42 55 60
f 42 60 61
f 42 61 43
f 43 61 44
f 44 61 45
f 45 61 62
f 45 62 46
f 46 62 63
f 46 63 64
f 46 64 47
f 47 64 48
f 48 64 49
f 49 64 50
f 50 64 63
f 50 63 51
f 51 63 59
f 51 59 52
f 52 59 58
f 54 57 56
f 54 56 60
f 54 60 55
f 56 59 62
f 56 62 60
f 59 63 62
f 60 62 61

