# https://github.com/mikedh/trimesh
v 0.04486930 -0.01830062 0.01028357
v 0.04702193 -0.01830062 0.01028357
v 0.04493468 -0.01830062 0.01304799
v 0.04000068 -0.01653856 0.01028357
v 0.04000068 -0.01651088 -0.03016250
v 0.04001320 -0.01651088 -0.03016735
v 0.04008137 -0.01651088 -0.03017221
v 0.04038670 -0.01651088 -0.03017707
v 0.04702193 -0.01830062 0.01304799
v 0.04559264 -0.01651088 -0.03009448
v 0.04559264 -0.01650473 -0.03018193
v 0.04710539 -0.00986854 -0.03349049
v 0.04000138 -0.00506821 0.01487960
v 0.04000068 -0.01126466 0.01325204
v 0.04000068 -0.01176591 0.01297026
v 0.03999999 -0.01084644 -0.03324757
v 0.04000068 -0.01639095 -0.03026938
v 0.04702193 -0.00506821 0.01487960
v 0.04710539 -0.00986854 0.00944307
v 0.04559264 -0.01522854 -0.03104186
v 0.04559264 -0.01298675 -0.03227589
v 0.04559264 -0.01155680 -0.03295607
v 0.04559264 -0.01084644 -0.03324757
v 0.04000068 -0.00986854 -0.03349049
v 0.04710539 -0.00472994 -0.03475367
v 0.04000068 0.00133120 0.01486989
v 0.04000208 0.00763528 -0.03302409
v 0.04000208 0.00156184 -0.03467108
v 0.04000208 -0.00472994 -0.03475367
v 0.04000068 0.00752765 0.01323747
v 0.04000208 0.01310906 -0.02990500
v 0.04702193 0.00133120 0.01486989
v 0.04710539 0.01310906 0.00944307
v 0.04710539 0.00156184 -0.03467108
v 0.04710539 0.00763528 -0.03302409
v 0.04702193 0.00752765 0.01323747
v 0.04667904 0.01275542 0.01028357
v 0.04000138 0.01275234 0.01028357
v 0.04710539 0.01310906 -0.02990500
v 0.04000208 0.01310906 0.00944307
v 0.04702193 0.01275542 0.01028357
f 1 2 9
f 1 9 3
f 1 3 4
f 1 4 5
f 1 5 6
f 1 6 7
f 1 7 8
f 1 8 2
f 2 8 10
f 2 10 11
f 2 11 12
f 2 12 19
f 2 19 9
f 3 9 18
f 3 18 13
f 3 13 14
f 3 14 15
f 3 15 4
f 4 15 16
f 4 16 5
f 5 16 17
f 5 17 6
f 6 17 7
f 7 17 8
f 8 17 11
f 8 11 10
f 9 19 18
f 11 17 20
f 11 20 12
f 12 20 21
f 12 21 22
f 12 22 23
f 12 23 16
f 12 16 24
f 12 24 29
f 12 29 25
f 12 25 34
f 12 34 35
f 12 35 39
f 12 39 33
f 12 33 19
f 13 18 32
f 13 32 26
f 13 26 14
f 14 26 16
f 14 16 15
f 16 27 28
f 16 28 29
f 16 29 24
f 16 23 22
f 16 22 21
f 16 21 17
f 16 26 30
f 16 30 31
f 16 31 27
f 17 21 20
f 18 19 33
f 18 33 32
f 25 29 28
f 25 28 34
f 26 32 36
f 26 36 30
f 27 35 34
f 27 34 28
f 27 31 39
f 27 39 35
f 30 36 41
f 30 41 37
f 30 37 38
f 30 38 31
f 31 38 40
f 31 40 33
f 31 33 39
f 32 33 36
f 33 40 37
f 33 37 41
f 33 41 36
f 37 40 38

