# https://github.com/mikedh/trimesh
v -0.05441660 0.00440558 -0.11951324
v -0.05441660 -0.00984468 -0.12116566
v -0.05441660 0.01695057 -0.12192832
v -0.09225398 0.01450502 -0.12861425
v -0.09699097 -0.00293106 -0.13008025
v -0.08733425 -0.01323320 -0.12930912
v -0.07809420 -0.01814632 -0.13254616
v -0.05552043 -0.01789516 -0.13076663
v -0.05489176 -0.01952111 -0.18003412
v -0.05441660 -0.01866628 -0.20607453
v -0.05442391 0.02373200 -0.13515613
v -0.08182970 0.02541965 -0.13473244
v -0.05442391 0.02289038 -0.20608300
v -0.09410346 0.02541965 -0.13796101
v -0.10895039 0.01565509 -0.13699498
v -0.10262710 0.00857843 -0.13243600
v -0.10906004 -0.00212028 -0.13680855
v -0.09716641 -0.01500016 -0.13400368
v -0.08646434 -0.01867950 -0.13688482
v -0.06949015 -0.01959162 -0.15648504
v -0.06006735 -0.01955196 -0.16306929
v -0.06006735 -0.01956959 -0.19039774
v -0.10854102 -0.01857374 -0.20478648
v -0.06760412 -0.01954315 -0.19793107
v -0.07761174 -0.01935367 -0.20280359
v -0.11751059 0.02541965 -0.19246538
v -0.11136274 0.02457362 -0.20368488
v -0.10631142 0.02541965 -0.14518928
v -0.11572691 0.01640858 -0.14359618
v -0.11573422 0.00010494 -0.14271489
v -0.11472542 -0.01099034 -0.14337585
v -0.10426458 -0.01782465 -0.14268946
v -0.09586520 -0.01885134 -0.14140143
v -0.08646434 -0.01959162 -0.15648504
v -0.08646434 -0.01959602 -0.19793107
v -0.09775123 -0.01956518 -0.18944866
v -0.11755445 -0.01827851 -0.19276197
v -0.12005452 -0.01189365 -0.20310018
v -0.12120953 0.01647909 -0.20315950
v -0.12615851 0.01548765 -0.19300771
v -0.12873899 0.01571678 -0.18285594
v -0.12092443 0.02541965 -0.17718687
v -0.11483507 0.02541965 -0.15540038
v -0.12226950 0.01525852 -0.15193453
v -0.11958667 0.00810695 -0.14734166
v -0.12229874 -0.00130951 -0.15181590
v -0.12039079 -0.01262071 -0.15287514
v -0.11005422 -0.01855612 -0.15021432
v -0.11471811 -0.01890422 -0.16025594
v -0.09869424 -0.01959162 -0.16965354
v -0.12237915 -0.01644986 -0.16582332
v -0.12367306 -0.01609735 -0.17978837
v -0.12511315 -0.01128998 -0.19365174
v -0.12354878 0.00298232 -0.20054105
v -0.12630471 -0.00272396 -0.19416017
v -0.12790564 0.00433948 -0.18887243
v -0.12909719 0.00104350 -0.18096625
v -0.12884133 0.01576085 -0.17436505
v -0.11941854 0.02541965 -0.16584027
v -0.12615119 0.01548324 -0.16139992
v -0.12712345 0.00551599 -0.16287439
v -0.12615851 -0.00554845 -0.16025594
v -0.12854893 -0.00625348 -0.17166186
v -0.12822728 -0.00678665 -0.18571165
f 1 2 10
f 1 10 3
f 1 3 4
f 1 4 5
f 1 5 2
f 2 5 6
f 2 6 7
f 2 7 8
f 2 8 9
f 2 9 10
f 3 11 12
f 3 12 4
f 3 10 13
f 3 13 11
f 4 12 14
f 4 14 15
f 4 15 16
f 4 16 5
f 5 16 17
f 5 17 18
f 5 18 6
f 6 18 7
f 7 18 19
f 7 19 8
f 8 19 20
f 8 20 21
f 8 21 9
f 9 21 22
f 9 22 10
f 10 23 13
f 10 22 24
f 10 24 25
f 10 25 23
f 11 13 12
f 12 13 26
f 12 26 42
f 12 42 59
f 12 59 43
f 12 43 28
f 12 28 14
f 13 23 27
f 13 27 26
f 14 28 15
f 15 28 29
f 15 29 30
f 15 30 17
f 15 17 16
f 17 30 31
f 17 31 18
f 18 31 32
f 18 32 19
f 19 32 33
f 19 33 34
f 19 34 20
f 20 34 35
f 20 35 22
f 20 22 21
f 22 35 24
f 23 25 35
f 23 35 36
f 23 36 37
f 23 37 38
f 23 38 39
f 23 39 27
f 24 35 25
f 26 27 39
f 26 39 40
f 26 40 41
f 26 41 42
f 28 43 29
f 29 43 44
f 29 44 45
f 29 45 30
f 30 45 46
f 30 46 31
f 31 46 47
f 31 47 48
f 31 48 32
f 32 48 33
f 33 48 49
f 33 49 34
f 34 49 50
f 34 50 35
f 35 50 36
f 36 50 49
f 36 49 37
f 37 51 52
f 37 52 53
f 37 53 38
f 37 49 51
f 38 54 39
f 38 53 55
f 38 55 54
f 39 54 40
f 40 54 55
f 40 55 56
f 40 56 41
f 41 56 57
f 41 57 58
f 41 58 42
f 42 58 59
f 43 59 44
f 44 59 60
f 44 60 61
f 44 61 62
f 44 62 46
f 44 46 45
f 46 62 47
f 47 62 51
f 47 51 48
f 48 51 49
f 51 63 52
f 51 62 63
f 52 63 64
f 52 64 53
f 53 64 55
f 55 64 56
f 56 64 57
f 57 64 63
f 57 63 58
f 58 63 61
f 58 61 60
f 58 60 59
f 61 63 62

