# https://github.com/mikedh/trimesh
v -0.01469561 -0.03734072 -0.10006272
v 0.00336553 -0.03588757 -0.10102265
v 0.01588120 -0.03269358 -0.09963120
v -0.01885471 0.03800198 -0.09938461
v -0.02157467 -0.03694240 -0.11611718
v -0.02157467 -0.03653669 -0.13048957
v -0.02143555 -0.03573267 -0.14425430
v -0.00724089 -0.03344598 -0.13813371
v 0.00404193 0.03669635 -0.09952552
v -0.00726008 0.03782494 -0.09938461
v 0.01063796 -0.03121830 -0.11491067
v 0.01739709 -0.02202729 -0.11943727
v 0.02282263 -0.02229284 -0.10545237
v 0.02743266 -0.00209621 -0.10155104
v 0.02720719 0.01371882 -0.10079367
v -0.02157467 0.03744875 -0.11689216
v -0.02157467 0.03598084 -0.14795308
v -0.02075436 0.00209359 -0.18935296
v -0.02077835 -0.02299360 -0.18269516
v -0.02083591 -0.02988317 -0.17062130
v -0.02029384 -0.03364514 -0.15779006
v 0.00422421 -0.03069457 -0.12824388
v -0.01459007 -0.03341647 -0.15014593
v 0.01603951 0.03241803 -0.10087293
v 0.00524600 0.03317780 -0.11871513
v -0.01587090 0.03339172 -0.15506002
v -0.02157467 0.03678487 -0.13574712
v -0.00213196 -0.02625397 -0.15003144
v 0.01066194 -0.01938653 -0.13509543
v 0.01492178 -0.01420091 -0.12848166
v 0.02153220 -0.01052008 -0.11475215
v 0.01960856 -0.00177903 -0.12041480
v 0.02431933 0.00835617 -0.10891337
v 0.02086061 0.01259761 -0.11641660
v 0.02401232 0.02276230 -0.10405212
v -0.01990048 0.03091324 -0.16938837
v -0.02073038 0.02530717 -0.18099549
v -0.01811115 0.01335738 -0.18452694
v -0.01482033 0.00103876 -0.18135656
v -0.01891227 -0.00975293 -0.18617378
v -0.01319891 -0.01215027 -0.17783391
v -0.01261366 -0.02145193 -0.17239142
v -0.01069481 -0.02780302 -0.16094283
v 0.01624099 0.02795530 -0.11266498
v 0.01084903 0.02740207 -0.12588371
v -0.00005002 0.02971826 -0.13997429
v -0.00609438 -0.01566882 -0.16584812
v 0.00376849 -0.01319034 -0.15011951
v 0.01288301 -0.00717119 -0.13405625
v 0.01271991 0.00480811 -0.13483123
v 0.01273430 0.01717836 -0.13195147
v 0.01577567 0.02302048 -0.12295111
v -0.01246015 0.02811758 -0.16387544
v -0.00322570 0.02611857 -0.15292881
v -0.01395205 0.02208368 -0.17468995
v -0.00794127 0.01734064 -0.16852532
v -0.00920291 0.00820864 -0.17261159
v -0.00801802 -0.00360100 -0.17113208
v 0.00579287 0.02452527 -0.13991264
v 0.00581206 -0.00319530 -0.14804115
v 0.00379247 0.00609161 -0.15151976
v 0.00692019 0.01241319 -0.14477389
v -0.00092309 0.01386635 -0.15832727
v -0.00121572 0.00092074 -0.16032637
f 1 2 3
f 1 3 4
f 1 4 5
f 1 5 6
f 1 6 2
f 2 6 7
f 2 7 8
f 2 8 3
f 3 9 10
f 3 10 4
f 3 8 11
f 3 11 12
f 3 12 13
f 3 13 14
f 3 14 15
f 3 15 9
f 4 16 5
f 4 10 16
f 5 16 27
f 5 27 17
f 5 17 6
f 6 17 7
f 7 17 18
f 7 18 19
f 7 19 20
f 7 20 21
f 7 21 8
f 8 22 11
f 8 21 23
f 8 23 22
f 9 15 24
f 9 24 25
f 9 25 26
f 9 26 17
f 9 17 10
f 10 17 27
f 10 27 16
f 11 22 28
f 11 28 12
f 12 29 30
f 12 30 31
f 12 31 13
f 12 28 29
f 13 31 14
f 14 31 32
f 14 32 33
f 14 33 15
f 15 33 34
f 15 34 35
f 15 35 24
f 17 26 36
f 17 36 37
f 17 37 18
f 18 37 38
f 18 38 39
f 18 39 40
f 18 40 19
f 19 40 41
f 19 41 42
f 19 42 43
f 19 43 20
f 20 43 23
f 20 23 21
f 22 23 43
f 22 43 28
f 24 35 44
f 24 44 45
f 24 45 46
f 24 46 25
f 25 46 26
f 26 46 36
f 28 43 42
f 28 42 29
f 29 42 47
f 29 47 48
f 29 48 30
f 30 48 49
f 30 49 32
f 30 32 31
f 32 49 50
f 32 50 34
f 32 34 33
f 34 50 51
f 34 51 52
f 34 52 35
f 35 52 44
f 36 53 37
f 36 46 53
f 37 53 54
f 37 54 55
f 37 55 38
f 38 55 56
f 38 56 57
f 38 57 39
f 39 41 40
f 39 57 58
f 39 58 41
f 41 58 47
f 41 47 42
f 44 52 45
f 45 52 59
f 45 59 54
f 45 54 46
f 46 54 53
f 47 58 48
f 48 58 60
f 48 60 49
f 49 60 50
f 50 60 61
f 50 61 62
f 50 62 51
f 51 62 63
f 51 63 59
f 51 59 52
f 54 59 55
f 55 59 56
f 56 59 63
f 56 63 57
f 57 63 61
f 57 61 64
f 57 64 58
f 58 64 60
f 60 64 61
f 61 63 62

