# https://github.com/mikedh/trimesh
v -0.02157467 -0.03594887 -0.12425201
v -0.04185836 -0.03594887 -0.12425201
v -0.02157467 -0.03671827 -0.12425201
v -0.02157467 -0.03594887 -0.14227077
v -0.04129795 -0.03671841 -0.12425201
v -0.04374815 -0.03594887 -0.14893400
v -0.02157467 -0.03662488 -0.12825857
v -0.02201345 -0.03673822 -0.12425201
v -0.03931693 -0.03735715 -0.14893400
v -0.03931693 -0.03732556 -0.15270336
v -0.02157467 -0.03618137 -0.13873430
v -0.03689279 -0.03675942 -0.16318771
v -0.03560035 -0.03643963 -0.16427022
v -0.02182882 -0.03594887 -0.14275811
v -0.04163246 -0.03690504 -0.13385655
v -0.04136745 -0.03675928 -0.12631351
v -0.03931693 -0.03724408 -0.13762591
v -0.03946029 -0.03684879 -0.12425201
v -0.04242530 -0.03708655 -0.14893400
v -0.04376553 -0.03594887 -0.15005101
v -0.02157467 -0.03652886 -0.13136377
v -0.03931693 -0.03722801 -0.15647273
v -0.02408570 -0.03682523 -0.12425201
v -0.03931693 -0.03736435 -0.14516895
v -0.04246874 -0.03709860 -0.15270336
v -0.04202128 -0.03703348 -0.15647273
v -0.03618901 -0.03682703 -0.16024640
v -0.02157467 -0.03638227 -0.13478811
v -0.03804404 -0.03675942 -0.16318771
v -0.03554605 -0.03594887 -0.16831128
v -0.03554605 -0.03603034 -0.16778512
v -0.03305023 -0.03594887 -0.16410202
v -0.04149779 -0.03683258 -0.13008288
v -0.04177365 -0.03697224 -0.13762591
v -0.03931693 -0.03732971 -0.14139527
v -0.03348683 -0.03696309 -0.12425201
v -0.03554605 -0.03695298 -0.12425201
v -0.03725554 -0.03692555 -0.12425201
v -0.04193439 -0.03702101 -0.14139527
v -0.04371991 -0.03594887 -0.15270336
v -0.04152820 -0.03686777 -0.15920271
v -0.03930824 -0.03691695 -0.16037147
v -0.02594724 -0.03689548 -0.12425201
v -0.02800646 -0.03694009 -0.12425201
v -0.04353962 -0.03594887 -0.15402307
v -0.04023358 -0.03594887 -0.16249335
v -0.03514203 -0.03594887 -0.16778512
v -0.04055941 -0.03628182 -0.16171274
v -0.03460767 -0.03594887 -0.16684494
v -0.02971813 -0.03696379 -0.12425201
v -0.03177734 -0.03696600 -0.12425201
v -0.04239706 -0.03594887 -0.15803395
v -0.04175410 -0.03594887 -0.15975474
v -0.04067671 -0.03594887 -0.16185506
f 1 2 5
f 1 5 18
f 1 18 38
f 1 38 37
f 1 37 36
f 1 36 51
f 1 51 50
f 1 50 44
f 1 44 43
f 1 43 23
f 1 23 8
f 1 8 3
f 1 3 7
f 1 7 21
f 1 21 28
f 1 28 11
f 1 11 4
f 1 4 14
f 1 14 32
f 1 32 49
f 1 49 47
f 1 47 30
f 1 30 46
f 1 46 54
f 1 54 53
f 1 53 52
f 1 52 45
f 1 45 40
f 1 40 20
f 1 20 6
f 1 6 2
f 2 6 5
f 3 8 9
f 3 9 10
f 3 10 7
f 4 11 12
f 4 12 13
f 4 13 14
f 5 15 16
f 5 16 17
f 5 17 18
f 5 6 19
f 5 19 15
f 6 20 19
f 7 10 22
f 7 22 21
f 8 23 9
f 9 24 25
f 9 25 10
f 9 23 24
f 10 25 26
f 10 26 22
f 11 27 12
f 11 28 27
f 12 27 22
f 12 22 29
f 12 29 30
f 12 30 31
f 12 31 13
f 13 31 32
f 13 32 14
f 15 33 16
f 15 19 34
f 15 34 35
f 15 35 17
f 15 17 33
f 16 33 17
f 17 35 36
f 17 36 37
f 17 37 38
f 17 38 18
f 19 24 35
f 19 35 39
f 19 39 34
f 19 20 25
f 19 25 24
f 20 40 25
f 21 22 27
f 21 27 28
f 22 26 41
f 22 41 42
f 22 42 29
f 23 43 24
f 24 43 44
f 24 44 35
f 25 40 45
f 25 45 26
f 26 45 41
f 29 42 41
f 29 41 30
f 30 47 31
f 30 41 48
f 30 48 46
f 31 47 49
f 31 49 32
f 34 39 35
f 35 44 50
f 35 50 51
f 35 51 36
f 41 45 52
f 41 52 53
f 41 53 54
f 41 54 48
f 46 48 54

