# https://github.com/mikedh/trimesh
v 0.06130013 -0.03393608 -0.12327174
v 0.03119245 -0.03393608 -0.12278474
v 0.03119245 -0.02115827 -0.12567863
v 0.04256240 -0.02115200 -0.12567863
v 0.04824443 -0.01546183 -0.12568799
v 0.05108839 -0.00977793 -0.12568799
v 0.05393235 -0.00125521 -0.12550069
v 0.05393235 0.00158987 -0.12550069
v 0.06130013 0.03008458 -0.12279411
v 0.06130013 -0.03393608 -0.03001172
v 0.03119245 -0.03393608 -0.06116083
v 0.03119245 0.02148666 -0.12567863
v 0.04540342 -0.00977793 -0.12568799
v 0.05108839 -0.00409403 -0.12568799
v 0.05108839 0.01011886 -0.12567863
v 0.05393235 0.00443496 -0.12537894
v 0.04824443 0.01580903 -0.12566926
v 0.04540342 0.01864785 -0.12567863
v 0.04256240 0.02149293 -0.12567863
v 0.03119245 0.03008458 -0.12279411
v 0.06130013 0.03008458 -0.03001172
v 0.03393916 -0.03393608 -0.03001172
v 0.03119245 -0.03252607 -0.06086114
v 0.03403052 0.02149293 -0.12567863
v 0.04540342 0.00158987 -0.12568799
v 0.03119245 0.03008458 -0.06077685
v 0.03393916 0.03008458 -0.03001172
v 0.03369160 -0.00238949 -0.03001172
v 0.03119245 -0.02968099 -0.06077685
v 0.03369160 -0.00125521 -0.03001172
v 0.03369750 0.00158987 -0.03001172
f 1 2 3
f 1 3 4
f 1 4 5
f 1 5 6
f 1 6 7
f 1 7 8
f 1 8 9
f 1 9 21
f 1 21 10
f 1 10 22
f 1 22 11
f 1 11 2
f 2 11 23
f 2 23 29
f 2 29 26
f 2 26 20
f 2 20 12
f 2 12 3
f 3 12 25
f 3 25 13
f 3 13 5
f 3 5 4
f 5 13 25
f 5 25 14
f 5 14 6
f 6 14 8
f 6 8 7
f 8 14 15
f 8 15 16
f 8 16 9
f 9 16 15
f 9 15 17
f 9 17 18
f 9 18 19
f 9 19 24
f 9 24 20
f 9 20 26
f 9 26 27
f 9 27 21
f 10 21 27
f 10 27 31
f 10 31 30
f 10 30 28
f 10 28 22
f 11 22 23
f 12 24 25
f 12 20 24
f 14 25 19
f 14 19 18
f 14 18 15
f 15 18 17
f 19 25 24
f 22 28 23
f 23 28 29
f 26 29 28
f 26 28 30
f 26 30 31
f 26 31 27

