# https://github.com/mikedh/trimesh
v 0.05623510 -0.01210826 -0.02393132
v 0.04404540 -0.00593391 -0.03911900
v 0.02677344 -0.01279241 0.02520943
v 0.03448844 -0.01788438 0.02370118
v 0.05622546 -0.01887486 -0.01249672
v 0.05621581 -0.00838459 -0.15062395
v 0.05309123 -0.00422864 -0.17170432
v 0.02633947 -0.00593391 -0.04048694
v -0.01754924 -0.01274816 0.03113718
v 0.01790119 -0.01277880 0.03113718
v 0.04141265 0.00154748 -0.22621161
v -0.01893793 0.00154748 -0.22621161
v 0.02478683 -0.01861278 0.03429397
v 0.03434379 -0.02756117 0.02489374
v 0.04459509 -0.02814320 -0.01316315
v 0.05590721 -0.02115536 -0.13164812
v 0.04190449 -0.02814320 0.00988144
v 0.04363072 -0.02814320 -0.00039567
v 0.05559861 -0.01804095 -0.14101327
v 0.03503813 -0.01586938 -0.30527173
v 0.03844238 0.00154748 -0.24427548
v -0.02642149 -0.01273795 0.02520943
v -0.02448309 -0.01859235 0.03436413
v -0.00869627 -0.01687688 0.03997620
v 0.00902894 -0.01691772 0.03994113
v 0.02131508 0.00155428 -0.26209383
v -0.01760710 0.00155428 -0.26209383
v -0.03644134 -0.00762556 -0.16830199
v -0.03235239 -0.01281964 0.01633533
v 0.02377423 -0.02727185 0.03513579
v 0.01200886 -0.03045774 0.03916947
v -0.00033514 -0.03321816 0.03952022
v 0.02982087 -0.02814661 -0.18345460
v 0.05474996 -0.02166251 -0.14041699
v 0.05353485 -0.02108048 -0.15139561
v 0.02858647 -0.01868085 -0.31021739
v 0.02087147 -0.01629144 -0.31551378
v 0.00535467 -0.00540293 -0.31046291
v 0.03328297 0.00154748 -0.25339511
v -0.03428114 -0.01745211 0.02384148
v -0.01210051 -0.03039647 0.03916947
v -0.02610324 -0.02736715 0.03317156
v 0.00021455 -0.02363667 0.04281732
v -0.00557170 -0.00733624 -0.31130472
v -0.01326741 -0.00716265 -0.30288660
v -0.01756852 -0.00341175 -0.27812332
v -0.03886192 -0.02067203 -0.10495568
v -0.04228545 -0.02756117 -0.00200914
v -0.04039528 -0.01607700 0.00300665
v -0.01397140 -0.01703345 -0.30057163
v -0.03607487 -0.01972239 -0.16188318
v -0.04003846 -0.01758145 0.01184567
v -0.03605559 -0.02727185 0.02208771
v -0.04135001 -0.02710847 0.00998667
v -0.03711640 -0.02795260 -0.10895428
v -0.01648842 -0.02814661 -0.18278817
v -0.00651678 -0.02814661 -0.18997864
v 0.00609724 -0.02814661 -0.19096075
v 0.01779511 -0.02814661 -0.19071522
v 0.00904823 -0.02167272 -0.30351797
v -0.00176242 -0.01772441 -0.31368985
v -0.00959314 -0.01628463 -0.30986663
v -0.00868663 -0.02038952 -0.30022087
v -0.03115657 -0.02746246 -0.15514869
f 1 2 3
f 1 3 4
f 1 4 5
f 1 5 6
f 1 6 7
f 1 7 2
f 2 8 9
f 2 9 10
f 2 10 3
f 2 7 11
f 2 11 12
f 2 12 8
f 3 10 13
f 3 13 4
f 4 13 14
f 4 14 5
f 5 15 16
f 5 16 6
f 5 14 17
f 5 17 18
f 5 18 15
f 6 16 19
f 6 19 20
f 6 20 7
f 7 20 21
f 7 21 11
f 8 22 9
f 8 12 22
f 9 22 23
f 9 23 24
f 9 24 10
f 10 24 25
f 10 25 13
f 11 21 26
f 11 26 27
f 11 27 12
f 12 27 28
f 12 28 29
f 12 29 22
f 13 25 30
f 13 30 14
f 14 30 31
f 14 31 32
f 14 32 17
f 15 18 32
f 15 32 33
f 15 33 34
f 15 34 16
f 16 34 19
f 17 32 18
f 19 34 35
f 19 35 20
f 20 36 37
f 20 37 38
f 20 38 39
f 20 39 21
f 20 35 34
f 20 34 36
f 21 39 26
f 22 40 23
f 22 29 40
f 23 41 24
f 23 40 42
f 23 42 41
f 24 43 25
f 24 41 43
f 25 43 31
f 25 31 30
f 26 39 38
f 26 38 27
f 27 38 44
f 27 44 45
f 27 45 46
f 27 46 28
f 28 47 48
f 28 48 49
f 28 49 29
f 28 46 50
f 28 50 51
f 28 51 47
f 29 49 52
f 29 52 40
f 31 43 32
f 32 43 41
f 32 41 53
f 32 53 54
f 32 54 48
f 32 48 55
f 32 55 56
f 32 56 57
f 32 57 58
f 32 58 59
f 32 59 33
f 33 59 60
f 33 60 36
f 33 36 34
f 36 60 61
f 36 61 37
f 37 61 44
f 37 44 38
f 40 52 53
f 40 53 42
f 41 42 53
f 44 61 62
f 44 62 45
f 45 50 46
f 45 62 50
f 47 55 48
f 47 51 55
f 48 54 52
f 48 52 49
f 50 62 63
f 50 63 64
f 50 64 51
f 51 64 55
f 52 54 53
f 55 64 56
f 56 64 63
f 56 63 60
f 56 60 57
f 57 60 58
f 58 60 59
f 60 63 61
f 61 63 62

