# https://github.com/mikedh/trimesh
v -0.00327211 -0.00168159 -0.14432051
v -0.00327211 0.03828292 -0.13429931
v -0.00314951 0.03770847 -0.14230242
v 0.01496924 0.03728560 -0.14432051
v 0.02080920 -0.00162973 -0.14429083
v 0.02081392 -0.00168159 -0.04325777
v -0.00327211 -0.00168159 -0.04708620
v -0.00327211 0.03783213 -0.05154776
v -0.00302691 0.03904886 -0.09288891
v -0.00302691 0.03906881 -0.09903221
v -0.00302691 0.03904487 -0.10494799
v -0.00302691 0.03899700 -0.11074505
v -0.00302691 0.03890126 -0.11666082
v -0.00302691 0.03876163 -0.12270519
v -0.00302691 0.03855818 -0.12862096
v 0.00905147 0.03842254 -0.12862096
v 0.00905147 0.03809143 -0.13453673
v 0.01496924 0.03800367 -0.13453673
v 0.02031409 0.03731752 -0.14234199
v 0.02081392 0.03786803 -0.13450706
v 0.02081392 0.02730445 -0.04327755
v -0.00327211 0.02666617 -0.04710599
v -0.00327211 0.03439737 -0.04762041
v 0.02081392 0.03669918 -0.04573092
v 0.01496924 0.03830685 -0.05170605
v -0.00302691 0.03866589 -0.05762182
v -0.00302691 0.03878557 -0.06353759
v -0.00302691 0.03885737 -0.06921593
v -0.00302691 0.03892120 -0.07513171
v -0.00302691 0.03897306 -0.08129479
v -0.00278172 0.03901296 -0.08721057
v 0.00905147 0.03892519 -0.09903221
v 0.00313370 0.03900099 -0.09903221
v 0.00905147 0.03894115 -0.10494799
v 0.00313370 0.03899700 -0.10494799
v 0.00905147 0.03887732 -0.11086375
v 0.00313370 0.03882546 -0.11677953
v 0.00905147 0.03860206 -0.12270519
v 0.01496924 0.03831882 -0.12862096
v 0.02081392 0.03817920 -0.12858139
v 0.02081392 0.03277773 -0.04351498
v 0.02081392 0.03834675 -0.05170605
v 0.00313370 0.03872573 -0.06353759
v 0.00313370 0.03879754 -0.06946325
v 0.00905147 0.03872174 -0.06946325
v 0.01496924 0.03868185 -0.07537902
v 0.01496924 0.03884142 -0.09903221
v 0.01496924 0.03885338 -0.10494799
v 0.01496924 0.03877360 -0.11086375
v 0.00905147 0.03874568 -0.11677953
v 0.01496924 0.03849036 -0.12270519
v 0.02081392 0.03834276 -0.12262605
v 0.02081392 0.03843850 -0.05762182
v 0.00905147 0.03866190 -0.06353759
v 0.01496924 0.03859009 -0.06353759
v 0.01496924 0.03863796 -0.06946325
v 0.02081392 0.03855419 -0.06938411
v 0.02081392 0.03863796 -0.08129479
v 0.02081392 0.03867786 -0.08714132
v 0.02081392 0.03871775 -0.09305709
v 0.02081392 0.03874568 -0.09899264
v 0.02081392 0.03872174 -0.10494799
v 0.02081392 0.03861403 -0.11086375
v 0.02081392 0.03850632 -0.06346834
f 1 2 3
f 1 3 4
f 1 4 5
f 1 5 6
f 1 6 7
f 1 7 22
f 1 22 23
f 1 23 8
f 1 8 2
f 2 8 9
f 2 9 10
f 2 10 11
f 2 11 12
f 2 12 13
f 2 13 14
f 2 14 15
f 2 15 16
f 2 16 17
f 2 17 3
f 3 17 18
f 3 18 4
f 4 18 19
f 4 19 5
f 5 19 20
f 5 20 6
f 6 21 7
f 6 20 40
f 6 40 52
f 6 52 63
f 6 63 62
f 6 62 61
f 6 61 60
f 6 60 59
f 6 59 58
f 6 58 57
f 6 57 64
f 6 64 53
f 6 53 42
f 6 42 24
f 6 24 41
f 6 41 21
f 7 21 22
f 8 23 24
f 8 24 25
f 8 25 26
f 8 26 27
f 8 27 28
f 8 28 29
f 8 29 30
f 8 30 9
f 9 30 31
f 9 31 32
f 9 32 33
f 9 33 10
f 10 33 34
f 10 34 35
f 10 35 11
f 11 35 12
f 12 36 13
f 12 35 34
f 12 34 36
f 13 36 37
f 13 37 14
f 14 38 16
f 14 16 15
f 14 37 38
f 16 38 39
f 16 39 18
f 16 18 17
f 18 39 20
f 18 20 19
f 20 39 40
f 21 41 22
f 22 41 23
f 23 41 24
f 24 42 25
f 25 42 26
f 26 42 27
f 27 42 43
f 27 43 28
f 28 44 29
f 28 43 44
f 29 44 30
f 30 44 45
f 30 45 31
f 31 45 46
f 31 46 47
f 31 47 32
f 32 47 34
f 32 34 33
f 34 47 48
f 34 48 36
f 36 48 49
f 36 49 50
f 36 50 37
f 37 50 38
f 38 50 51
f 38 51 39
f 39 51 40
f 40 51 52
f 42 53 54
f 42 54 43
f 43 54 44
f 44 54 55
f 44 55 45
f 45 55 56
f 45 56 46
f 46 56 57
f 46 57 58
f 46 58 59
f 46 59 47
f 47 59 60
f 47 60 61
f 47 61 48
f 48 62 49
f 48 61 62
f 49 63 52
f 49 52 51
f 49 51 50
f 49 62 63
f 53 64 55
f 53 55 54
f 55 57 56
f 55 64 57

