# https://github.com/mikedh/trimesh
v 0.03278227 0.03240752 -0.10064799
v 0.03278227 0.03239652 -0.09154565
v 0.03278227 0.01019905 -0.11014499
v 0.03241876 0.02409034 -0.11017941
v 0.02949931 0.03126411 -0.10902756
v 0.00259950 0.03177534 -0.10894266
v -0.00523303 0.03179183 -0.10393603
v 0.03278227 -0.02182731 -0.09154565
v -0.01382097 0.03122013 -0.09305544
v -0.01987002 0.02293594 -0.09221106
v 0.03278227 -0.00673765 -0.11012205
v 0.02656850 0.02538216 -0.11260930
v 0.02045698 0.02565153 -0.11425906
v 0.01718538 0.03076937 -0.11227660
v 0.00996628 0.02562404 -0.11433936
v 0.00144649 0.02228178 -0.11240739
v -0.00501719 0.02332623 -0.10913541
v -0.00954972 0.02453561 -0.10514295
v -0.00972011 0.03151698 -0.09967741
v 0.03278227 -0.02350943 -0.09993210
v -0.02524317 0.00905015 -0.09239462
v -0.02224988 -0.01479096 -0.09304626
v -0.01158311 -0.02375130 -0.09434496
v -0.01771168 0.02105591 -0.09790146
v -0.02244300 0.01771915 -0.09251623
v 0.03235060 -0.02207468 -0.10843787
v 0.02557453 -0.02202520 -0.11227660
v 0.01927556 -0.02219012 -0.11405485
v 0.01382858 -0.01158063 -0.11498183
v 0.01533942 0.02197394 -0.11486482
v 0.01140896 0.00657094 -0.11486941
v 0.00523495 0.01655375 -0.11393324
v 0.01382858 0.01382717 -0.11498642
v -0.00304060 0.00762639 -0.11195078
v -0.00540910 0.01640533 -0.11018629
v -0.01049825 0.01609749 -0.10721031
v -0.01613267 0.01499256 -0.10277730
v -0.01373577 0.02270506 -0.10177919
v 0.00322996 -0.02338849 -0.11086547
v -0.02504437 0.00122772 -0.09464095
v -0.02503869 -0.00719941 -0.09312886
v -0.02188637 0.01139743 -0.09718098
v -0.01878517 -0.01319129 -0.09962923
v -0.01803543 -0.02039255 -0.09419581
v -0.00901581 -0.02294872 -0.10323850
v 0.01220414 -0.02141502 -0.11430266
v 0.00530879 -0.01736362 -0.11380475
v 0.01004579 -0.00325795 -0.11476385
v 0.00278693 0.00626860 -0.11373591
v -0.00685747 -0.00068529 -0.11089301
v -0.01128208 0.00957238 -0.10781147
v -0.01969962 0.00614766 -0.10139600
v -0.00389258 -0.02177783 -0.10912164
v -0.00030291 -0.01745708 -0.11198520
v -0.01991546 -0.00189466 -0.10176313
v -0.02040961 -0.00772713 -0.10010419
v -0.01428672 -0.01186648 -0.10487908
v -0.01262820 -0.01863896 -0.10353220
v -0.00277933 -0.01131677 -0.11162725
v 0.00045819 -0.00318099 -0.11313475
v -0.00912941 -0.00613296 -0.10948647
v -0.01250892 0.00203580 -0.10778623
v -0.00929980 -0.01298240 -0.10816712
v -0.01625763 -0.00561073 -0.10475059
f 1 2 8
f 1 8 20
f 1 20 11
f 1 11 3
f 1 3 4
f 1 4 5
f 1 5 6
f 1 6 7
f 1 7 2
f 2 7 9
f 2 9 10
f 2 10 8
f 3 11 12
f 3 12 4
f 4 12 5
f 5 12 13
f 5 13 14
f 5 14 6
f 6 14 15
f 6 15 16
f 6 16 17
f 6 17 7
f 7 17 18
f 7 18 19
f 7 19 9
f 8 10 21
f 8 21 22
f 8 22 23
f 8 23 20
f 9 19 10
f 10 19 24
f 10 24 25
f 10 25 21
f 11 20 26
f 11 26 27
f 11 27 12
f 12 27 28
f 12 28 13
f 13 28 29
f 13 29 30
f 13 30 15
f 13 15 14
f 15 31 32
f 15 32 16
f 15 30 33
f 15 33 31
f 16 34 35
f 16 35 17
f 16 32 34
f 17 35 36
f 17 36 18
f 18 36 37
f 18 37 38
f 18 38 19
f 19 38 24
f 20 23 39
f 20 39 28
f 20 28 27
f 20 27 26
f 21 40 41
f 21 41 22
f 21 25 42
f 21 42 40
f 22 41 43
f 22 43 44
f 22 44 23
f 23 44 45
f 23 45 39
f 24 37 42
f 24 42 25
f 24 38 37
f 28 39 46
f 28 46 29
f 29 46 47
f 29 47 48
f 29 48 31
f 29 31 33
f 29 33 30
f 31 48 49
f 31 49 32
f 32 49 34
f 34 49 50
f 34 50 35
f 35 50 51
f 35 51 36
f 36 51 37
f 37 52 42
f 37 51 52
f 39 53 54
f 39 54 47
f 39 47 46
f 39 45 53
f 40 42 52
f 40 52 55
f 40 55 56
f 40 56 41
f 41 56 43
f 43 57 58
f 43 58 44
f 43 56 57
f 44 58 45
f 45 58 53
f 47 54 59
f 47 59 60
f 47 60 49
f 47 49 48
f 49 60 50
f 50 61 62
f 50 62 51
f 50 60 59
f 50 59 61
f 51 62 52
f 52 62 55
f 53 58 57
f 53 57 63
f 53 63 54
f 54 63 61
f 54 61 59
f 55 62 64
f 55 64 56
f 56 64 57
f 57 64 63
f 61 63 64
f 61 64 62

