# https://github.com/mikedh/trimesh
v 0.04140498 -0.04955013 -0.02694587
v 0.03225083 -0.00119632 -0.02452310
v 0.03393785 0.01374850 -0.03001172
v 0.06524449 -0.04411002 -0.02964531
v 0.05608573 -0.04797014 -0.02725993
v 0.05091866 -0.04857116 -0.01424877
v 0.04095788 -0.04951296 -0.01695569
v 0.03482285 -0.04505182 0.00567925
v 0.03196044 -0.02114754 -0.01037533
v 0.03194201 -0.01475943 -0.01819698
v 0.03199271 0.01273855 -0.01892979
v 0.07903103 -0.00948661 -0.02711785
v 0.03511784 0.01123291 0.04491463
v 0.04372348 0.01335815 0.04257412
v 0.07521450 0.01363697 -0.00212745
v 0.07680011 0.01153651 -0.01180357
v 0.07873142 0.00704440 -0.02399966
v 0.07769432 -0.01827878 -0.02210033
v 0.07083101 -0.03818662 -0.02035803
v 0.06935141 -0.03935767 -0.01086138
v 0.06263100 -0.04533684 -0.01810725
v 0.05742705 -0.04674334 -0.00774319
v 0.05202029 -0.04608036 0.00070659
v 0.03974562 -0.04835430 -0.00645703
v 0.03898508 -0.04235035 0.01637981
v 0.03717361 -0.03630302 0.02804499
v 0.03697541 -0.02678592 0.03808004
v 0.03195583 -0.01936928 0.01235682
v 0.03195583 -0.01049656 0.02088885
v 0.03196966 0.01112138 0.02017847
v 0.07772659 -0.00978402 -0.01748660
v 0.03606276 0.00016680 0.04638026
v 0.04379262 0.00802337 0.04353875
v 0.06476973 0.01061331 0.03288305
v 0.07190038 0.01172859 0.01974477
v 0.07525598 0.01162946 -0.00182086
v 0.07510848 -0.02183530 -0.00550736
v 0.07440786 -0.02967327 -0.01336640
v 0.07265170 -0.03117271 -0.00185825
v 0.06550723 -0.03840967 0.01018081
v 0.06583910 -0.04117310 -0.00097588
v 0.05363817 -0.04230698 0.01112300
v 0.05335700 -0.03606138 0.02265358
v 0.05202490 -0.03374406 0.02634756
v 0.04824985 -0.02888638 0.03279331
v 0.04932383 -0.02516256 0.03494689
v 0.05060523 -0.02195922 0.03615080
v 0.03702611 -0.01557731 0.04355370
v 0.07526059 -0.01131444 -0.00180591
v 0.07417739 -0.01830356 0.00241898
v 0.04220701 -0.00695243 0.04415191
v 0.04419363 -0.00410226 0.04373316
v 0.04406918 0.00612738 0.04367334
v 0.05603503 0.00442967 0.03826698
v 0.06806541 -0.00417661 0.03104354
v 0.07170679 -0.01516837 0.01945314
v 0.07086328 -0.02958033 0.01102579
v 0.06592668 -0.02800654 0.02367055
v 0.04995992 -0.02842167 0.03239700
v 0.06018344 -0.02247349 0.03146229
v 0.05860243 -0.01462931 0.03529086
v 0.05603503 -0.00410226 0.03826698
v 0.05168842 0.00016680 0.04041308
v 0.06706518 -0.01656867 0.02969008
f 1 2 3
f 1 3 4
f 1 4 5
f 1 5 6
f 1 6 7
f 1 7 8
f 1 8 9
f 1 9 10
f 1 10 2
f 2 10 11
f 2 11 3
f 3 12 4
f 3 11 13
f 3 13 14
f 3 14 15
f 3 15 16
f 3 16 17
f 3 17 12
f 4 12 18
f 4 18 19
f 4 19 20
f 4 20 21
f 4 21 5
f 5 21 22
f 5 22 6
f 6 22 23
f 6 23 24
f 6 24 7
f 7 24 8
f 8 24 25
f 8 25 26
f 8 26 27
f 8 27 28
f 8 28 9
f 9 28 10
f 10 28 29
f 10 29 30
f 10 30 11
f 11 30 13
f 12 17 31
f 12 31 18
f 13 32 33
f 13 33 14
f 13 30 29
f 13 29 32
f 14 33 34
f 14 34 35
f 14 35 15
f 15 36 16
f 15 35 36
f 16 36 17
f 17 36 35
f 17 35 31
f 18 31 37
f 18 37 38
f 18 38 19
f 19 38 39
f 19 39 20
f 20 39 40
f 20 40 41
f 20 41 21
f 21 41 22
f 22 41 40
f 22 40 23
f 23 40 42
f 23 42 25
f 23 25 24
f 25 42 43
f 25 43 26
f 26 43 44
f 26 44 45
f 26 45 27
f 27 46 47
f 27 47 48
f 27 48 32
f 27 32 29
f 27 29 28
f 27 45 46
f 31 49 50
f 31 50 37
f 31 35 49
f 32 48 51
f 32 51 52
f 32 52 53
f 32 53 33
f 33 53 54
f 33 54 34
f 34 54 55
f 34 55 35
f 35 55 56
f 35 56 49
f 37 50 56
f 37 56 57
f 37 57 39
f 37 39 38
f 39 57 40
f 40 57 58
f 40 58 43
f 40 43 42
f 43 58 44
f 44 58 59
f 44 59 45
f 45 59 46
f 46 59 60
f 46 60 47
f 47 60 61
f 47 61 48
f 48 61 51
f 49 56 50
f 51 61 52
f 52 61 62
f 52 62 63
f 52 63 53
f 53 63 54
f 54 63 62
f 54 62 55
f 55 64 56
f 55 62 61
f 55 61 64
f 56 64 57
f 57 64 58
f 58 64 60
f 58 60 59
f 60 64 61

