# https://github.com/mikedh/trimesh
v 0.00798390 -0.02058060 -0.04254990
v 0.01283360 -0.02058060 -0.04254990
v 0.00798390 -0.02058060 0.00246221
v -0.00878272 -0.02057695 -0.04254990
v 0.00798390 -0.01798920 -0.04255465
v 0.01283360 -0.01798920 -0.04255465
v 0.01283360 -0.02058060 0.00594257
v 0.00910322 -0.02058060 0.00594257
v -0.00878272 -0.02057695 0.00431872
v -0.00878272 -0.01220503 -0.04255465
v 0.01283360 -0.01220503 -0.04255465
v 0.01283360 -0.01843021 0.00594257
v -0.00878272 0.01665389 0.00134165
v -0.00878272 0.01665389 -0.04255465
v 0.01137573 0.01390577 -0.04255465
v 0.01283360 -0.01220503 0.00132741
v 0.01137573 0.01390577 0.00133215
v 0.00719889 0.01665389 0.00134165
v 0.00719889 0.01665389 -0.04255465
f 1 2 7
f 1 7 8
f 1 8 3
f 1 3 9
f 1 9 4
f 1 4 5
f 1 5 6
f 1 6 2
f 2 6 11
f 2 11 16
f 2 16 12
f 2 12 7
f 3 8 9
f 4 10 5
f 4 9 13
f 4 13 14
f 4 14 10
f 5 10 14
f 5 14 19
f 5 19 15
f 5 15 11
f 5 11 6
f 7 12 8
f 8 12 13
f 8 13 9
f 11 15 17
f 11 17 16
f 12 16 17
f 12 17 18
f 12 18 13
f 13 18 19
f 13 19 14
f 15 19 18
f 15 18 17

