# https://github.com/mikedh/trimesh
v 0.01655992 -0.01979919 0.00749558
v 0.01988626 -0.01564735 0.00387317
v 0.02022606 -0.01801226 0.00408333
v 0.01913201 -0.01979919 0.00568622
v 0.01987560 -0.02338269 0.01104241
v 0.01665897 -0.01979919 0.00861180
v 0.01695762 0.01776490 0.00850396
v 0.01711457 0.01776490 0.00710108
v 0.01814614 0.01555893 0.00572493
v 0.01988169 -0.00871637 0.00387133
v 0.02264730 0.01208621 0.00349895
v 0.02264730 -0.00463677 0.00350909
v 0.02264730 -0.00871637 0.00351185
v 0.02264882 -0.01565217 0.00351830
v 0.02264882 -0.01819529 0.00401051
v 0.02256806 -0.01979919 0.00500137
v 0.03071402 -0.02344531 0.01095946
v 0.02109460 -0.02344531 0.01154568
v 0.02021539 -0.01535836 0.01214573
v 0.01879069 -0.01566180 0.01095946
v 0.01811110 -0.01564253 0.01022852
v 0.01810957 -0.00871637 0.01022760
v 0.01810957 -0.00463677 0.01022760
v 0.01844632 0.01555893 0.01059261
v 0.01972627 0.02322684 0.01095854
v 0.02029158 0.02462363 0.01124059
v 0.02028701 0.01776490 0.00405752
v 0.01988169 0.01555893 0.00387041
v 0.01988169 -0.00524847 0.00387041
v 0.02482626 0.01208621 0.00413126
v 0.02264730 0.01555893 0.00349895
v 0.02482778 0.01555893 0.00413033
v 0.02480340 -0.01565217 0.00414232
v 0.02466474 -0.01784368 0.00426398
v 0.02734349 -0.01979919 0.00569820
v 0.03071402 -0.02344531 0.01216232
v 0.03212653 -0.01971732 0.00810761
v 0.02408419 -0.02303590 0.01227201
v 0.02264882 -0.01565698 0.01247847
v 0.02264882 -0.00871637 0.01248585
v 0.02264882 -0.00524365 0.01248861
v 0.02264882 0.00167288 0.01249230
v 0.02264882 0.01208621 0.01249783
v 0.01984208 -0.00523884 0.01209780
v 0.01953885 -0.01341248 0.01176690
v 0.01878612 -0.00735329 0.01095854
v 0.02006454 0.01555411 0.01213006
v 0.02604373 0.02246582 0.01291446
v 0.02264882 0.02464771 0.01175215
v 0.02264882 0.02537019 0.01095854
v 0.02646733 0.02576033 0.01095854
v 0.02264730 0.01776490 0.00393493
v 0.02481407 -0.01218908 0.00414324
v 0.02465560 0.01776490 0.00425385
v 0.02610163 0.01776490 0.00610192
v 0.03212653 -0.01947167 0.01095946
v 0.03071402 -0.01951984 0.01216232
v 0.03212653 -0.01904782 0.00970129
v 0.02264882 0.01555893 0.01249783
v 0.02659838 0.02498005 0.01215310
f 1 2 3
f 1 3 4
f 1 4 5
f 1 5 6
f 1 6 7
f 1 7 8
f 1 8 9
f 1 9 2
f 2 10 11
f 2 11 12
f 2 12 13
f 2 13 14
f 2 14 3
f 2 9 10
f 3 15 16
f 3 16 4
f 3 14 15
f 4 16 5
f 5 17 18
f 5 18 19
f 5 19 20
f 5 20 6
f 5 16 17
f 6 20 21
f 6 21 22
f 6 22 23
f 6 23 24
f 6 24 7
f 7 24 25
f 7 25 26
f 7 26 8
f 8 26 27
f 8 27 28
f 8 28 9
f 9 28 29
f 9 29 10
f 10 29 11
f 11 30 12
f 11 29 28
f 11 28 31
f 11 31 32
f 11 32 30
f 12 30 33
f 12 33 13
f 13 33 14
f 14 33 34
f 14 34 15
f 15 35 16
f 15 34 35
f 16 35 17
f 17 36 18
f 17 35 37
f 17 37 36
f 18 36 38
f 18 38 19
f 19 38 39
f 19 39 40
f 19 40 41
f 19 41 42
f 19 42 43
f 19 43 44
f 19 44 45
f 19 45 20
f 20 45 21
f 21 45 44
f 21 44 46
f 21 46 22
f 22 46 24
f 22 24 23
f 24 46 44
f 24 44 47
f 24 47 25
f 25 47 26
f 26 48 49
f 26 49 50
f 26 50 27
f 26 47 48
f 27 50 51
f 27 51 52
f 27 52 31
f 27 31 28
f 30 32 37
f 30 37 53
f 30 53 33
f 31 52 54
f 31 54 32
f 32 54 55
f 32 55 37
f 33 53 37
f 33 37 35
f 33 35 34
f 36 39 38
f 36 37 56
f 36 56 57
f 36 57 48
f 36 48 39
f 37 58 56
f 37 55 51
f 37 51 58
f 39 48 40
f 40 48 41
f 41 48 42
f 42 48 43
f 43 47 44
f 43 48 59
f 43 59 47
f 47 59 48
f 48 60 49
f 48 57 56
f 48 56 60
f 49 60 50
f 50 60 51
f 51 60 58
f 51 55 54
f 51 54 52
f 56 58 60

