# https://github.com/mikedh/trimesh
v -0.02860835 -0.00394053 0.02265244
v -0.04049442 -0.00273157 0.02091518
v -0.03801937 -0.01022095 0.02063933
v -0.02758255 -0.01068594 0.02195402
v -0.02702402 0.00756634 0.02237659
v -0.03426664 0.00254448 0.02230029
v -0.04958420 -0.01203750 0.01072641
v -0.04049442 0.00658057 0.02069803
v -0.04723328 -0.01894410 0.00863700
v -0.03705198 -0.01821252 0.01643705
v -0.02837471 -0.01645177 0.01905467
v -0.02185854 -0.02427595 0.01186501
v -0.01707272 -0.00265097 0.01373139
v -0.03531069 0.01067245 0.02120863
v -0.01698875 0.00642557 0.01218782
v -0.02417297 0.02397727 0.01195892
v -0.02849883 0.01836643 0.01731742
v -0.04958420 0.01137923 0.01012776
v -0.04887600 -0.02114504 -0.03728878
v -0.04894172 -0.02631569 -0.01186967
v -0.03937006 0.01572531 0.01763435
v -0.04723328 -0.02397836 -0.00122310
v -0.04004541 -0.02501993 0.00439364
v -0.04098724 -0.02073585 0.01152461
v -0.03423013 -0.02469134 0.00866048
v -0.02822504 -0.02110164 0.01514585
v -0.02665167 -0.02789045 0.00424104
v -0.02159570 -0.02905601 0.00082522
v -0.01864609 -0.03072377 -0.01240376
v -0.01229054 -0.01131212 -0.01299654
v -0.01229054 0.01934600 -0.01198705
v -0.02076704 0.02749257 0.00670020
v -0.03287580 0.02380987 0.01073228
v -0.03849394 0.02122455 0.01192371
v -0.03107609 0.03118146 -0.01808506
v -0.03107609 0.03159065 -0.02670678
v -0.03102864 0.02978650 -0.03511135
v -0.02845137 -0.01890070 -0.03730639
v -0.03807048 -0.02755566 -0.03723596
v -0.04704344 -0.02839883 -0.03434836
v -0.04813495 -0.02890102 -0.02666569
v -0.01416325 0.01934600 -0.03720662
v -0.04803639 -0.02825624 -0.01997491
v -0.04177940 -0.02885142 -0.00947507
v -0.03921309 -0.02801444 -0.00334185
v -0.03102133 -0.02903741 -0.00193326
v -0.03460614 -0.03045717 -0.01111842
v -0.02494323 -0.03032698 -0.00764391
v -0.03351829 -0.03120735 -0.01730446
v -0.03090452 -0.03159174 -0.02313249
v -0.01932509 -0.03118255 -0.02017446
v -0.01444800 -0.01348206 -0.03723010
v -0.01920097 0.03115046 -0.02280969
v -0.01909145 0.03054908 -0.01192249
v -0.02030707 0.02915412 -0.00071249
v -0.02956113 0.02740577 0.00389476
v -0.02722479 0.03027009 -0.00915814
v -0.02114304 0.02875733 -0.03558674
v -0.02995538 -0.02871502 -0.03622060
v -0.04180861 -0.03108955 -0.03043366
v -0.04080837 -0.03083536 -0.02326748
v -0.04154212 -0.03004179 -0.01631258
v -0.03188651 -0.03174674 -0.02932440
v -0.02163221 -0.02952720 -0.03469464
f 1 2 3
f 1 3 4
f 1 4 5
f 1 5 6
f 1 6 2
f 2 7 3
f 2 6 8
f 2 8 7
f 3 7 9
f 3 9 10
f 3 10 11
f 3 11 4
f 4 11 12
f 4 12 13
f 4 13 5
f 5 14 6
f 5 13 15
f 5 15 16
f 5 16 17
f 5 17 14
f 6 14 8
f 7 8 18
f 7 18 19
f 7 19 20
f 7 20 9
f 8 14 21
f 8 21 18
f 9 20 22
f 9 22 23
f 9 23 24
f 9 24 10
f 10 24 25
f 10 25 26
f 10 26 11
f 11 26 12
f 12 26 25
f 12 25 27
f 12 27 28
f 12 28 29
f 12 29 30
f 12 30 13
f 13 30 31
f 13 31 15
f 14 17 21
f 15 31 32
f 15 32 16
f 16 32 33
f 16 33 17
f 17 33 21
f 18 21 34
f 18 34 35
f 18 35 36
f 18 36 37
f 18 37 19
f 19 38 39
f 19 39 40
f 19 40 41
f 19 41 20
f 19 37 42
f 19 42 38
f 20 41 43
f 20 43 44
f 20 44 22
f 21 33 34
f 22 44 45
f 22 45 23
f 23 45 25
f 23 25 24
f 25 45 27
f 27 45 46
f 27 46 28
f 28 46 47
f 28 47 48
f 28 48 29
f 29 48 49
f 29 49 50
f 29 50 51
f 29 51 52
f 29 52 30
f 30 52 42
f 30 42 31
f 31 42 53
f 31 53 54
f 31 54 55
f 31 55 32
f 32 56 33
f 32 55 56
f 33 56 34
f 34 56 35
f 35 57 54
f 35 54 53
f 35 53 36
f 35 56 57
f 36 53 58
f 36 58 37
f 37 58 42
f 38 42 52
f 38 52 39
f 39 52 59
f 39 59 60
f 39 60 40
f 40 60 41
f 41 60 61
f 41 61 62
f 41 62 43
f 42 58 53
f 43 62 44
f 44 62 47
f 44 47 45
f 45 47 46
f 47 61 49
f 47 49 48
f 47 62 61
f 49 63 50
f 49 61 60
f 49 60 63
f 50 63 51
f 51 63 64
f 51 64 52
f 52 64 59
f 54 57 55
f 55 57 56
f 59 64 63
f 59 63 60

