# https://github.com/mikedh/trimesh
v 0.05856507 -0.02033968 -0.04070705
v 0.05444075 -0.02031448 -0.04096334
v 0.05856507 -0.01884255 -0.04131779
v 0.05856507 -0.02033968 0.01028482
v 0.05444075 -0.02033464 0.01028482
v 0.05409319 -0.01954827 -0.04129053
v 0.05856507 -0.00722339 -0.04539671
v 0.05856507 0.02381312 0.01028482
v 0.05444075 0.02376775 0.01028482
v 0.05409319 0.02606133 0.00721472
v 0.05409319 -0.00719315 -0.04540761
v 0.05856507 0.00373541 -0.04536399
v 0.05478787 -0.00706209 -0.04542397
v 0.05856507 0.02555725 0.00795634
v 0.05723611 0.02380303 0.01028482
v 0.05478787 0.02598572 0.00732924
v 0.05444075 0.02660070 0.00642403
v 0.05444075 0.02696869 0.00574784
v 0.05409319 0.02979156 -0.00086676
v 0.05409319 0.00376062 -0.04536399
v 0.05478787 0.00392697 -0.04531491
v 0.05856507 0.01593931 -0.03825861
v 0.05856507 0.02654526 0.00651673
v 0.05856507 0.02724089 0.00524616
v 0.05856507 0.02911105 0.00116725
v 0.05444075 0.02940342 0.00039836
v 0.05856507 0.02999824 -0.00160293
v 0.05409319 0.02997807 -0.00171199
v 0.05856507 0.02949415 0.00016933
v 0.05409319 0.01669039 -0.03778964
v 0.05478787 0.01637786 -0.03798596
v 0.05856507 0.01682650 -0.03770785
v 0.05856507 0.03078461 -0.00521832
v 0.05478787 0.03042671 -0.00374054
v 0.05444075 0.03090559 -0.00597085
v 0.05409319 0.03108706 -0.00736684
v 0.05409319 0.01749693 -0.03722798
v 0.05478787 0.01703822 -0.03756607
v 0.05856507 0.01792036 -0.03691170
v 0.05856507 0.03107698 -0.00709964
v 0.05478787 0.03107194 -0.00703420
v 0.05478787 0.03111731 -0.00780854
v 0.05444075 0.03111226 -0.01320711
v 0.05444075 0.03105682 -0.01404688
v 0.05409319 0.02978652 -0.02008345
v 0.05409319 0.02229078 -0.03305091
v 0.05856507 0.02190767 -0.03343262
v 0.05856507 0.03115763 -0.00839748
v 0.05856507 0.03115259 -0.01259091
v 0.05856507 0.03105682 -0.01408505
v 0.05856507 0.02998816 -0.01935274
v 0.05856507 0.02946895 -0.02113590
v 0.05444075 0.02938829 -0.02133221
v 0.05409319 0.02848094 -0.02335531
v 0.05409319 0.02277974 -0.03248924
v 0.05478787 0.02264364 -0.03265283
v 0.05856507 0.02249745 -0.03282733
v 0.05856507 0.02904552 -0.02222107
v 0.05478787 0.02832972 -0.02370431
v 0.05444075 0.02703422 -0.02651265
v 0.05444075 0.02659566 -0.02734152
v 0.05856507 0.02314268 -0.03206390
v 0.05856507 0.02736187 -0.02589100
v 0.05856507 0.02653517 -0.02744513
f 1 2 3
f 1 3 7
f 1 7 12
f 1 12 22
f 1 22 32
f 1 32 39
f 1 39 47
f 1 47 57
f 1 57 62
f 1 62 64
f 1 64 63
f 1 63 58
f 1 58 52
f 1 52 51
f 1 51 50
f 1 50 49
f 1 49 48
f 1 48 40
f 1 40 33
f 1 33 27
f 1 27 29
f 1 29 25
f 1 25 24
f 1 24 23
f 1 23 14
f 1 14 8
f 1 8 4
f 1 4 5
f 1 5 2
f 2 6 3
f 2 5 6
f 3 6 7
f 4 8 15
f 4 15 9
f 4 9 5
f 5 9 10
f 5 10 6
f 6 11 7
f 6 10 19
f 6 19 28
f 6 28 36
f 6 36 45
f 6 45 54
f 6 54 55
f 6 55 46
f 6 46 37
f 6 37 30
f 6 30 20
f 6 20 11
f 7 11 13
f 7 13 12
f 8 14 15
f 9 15 16
f 9 16 10
f 10 16 17
f 10 17 18
f 10 18 19
f 11 20 13
f 12 13 20
f 12 20 21
f 12 21 22
f 14 23 16
f 14 16 15
f 16 23 17
f 17 23 24
f 17 24 18
f 18 24 25
f 18 25 26
f 18 26 19
f 19 27 28
f 19 26 29
f 19 29 27
f 20 30 21
f 21 30 31
f 21 31 22
f 22 31 32
f 25 29 26
f 27 33 34
f 27 34 28
f 28 34 35
f 28 35 36
f 30 37 38
f 30 38 32
f 30 32 31
f 32 38 39
f 33 35 34
f 33 40 41
f 33 41 35
f 35 41 36
f 36 41 42
f 36 42 43
f 36 43 44
f 36 44 45
f 37 46 39
f 37 39 38
f 39 46 47
f 40 48 41
f 41 48 42
f 42 48 43
f 43 48 49
f 43 49 50
f 43 50 44
f 44 50 51
f 44 51 45
f 45 52 53
f 45 53 54
f 45 51 52
f 46 55 56
f 46 56 57
f 46 57 47
f 52 58 53
f 53 58 54
f 54 58 59
f 54 59 60
f 54 60 61
f 54 61 55
f 55 62 56
f 55 61 62
f 56 62 57
f 58 63 59
f 59 63 60
f 60 63 61
f 61 64 62
f 61 63 64

