# https://github.com/mikedh/trimesh
v -0.05441660 0.02173192 -0.20608940
v -0.07935898 -0.01902886 -0.20608940
v -0.05441660 -0.01866970 -0.21036957
v -0.05441660 0.02048284 -0.21559560
v -0.06018344 0.02173192 -0.21681141
v -0.10912103 0.02173192 -0.20789908
v -0.11994594 0.00669106 -0.20675021
v -0.12024233 -0.00019685 -0.20624921
v -0.06383040 -0.01857791 -0.22124274
v -0.10905015 -0.01839434 -0.20674805
v -0.10340574 -0.01882933 -0.20767881
v -0.09509376 -0.01847815 -0.21925167
v -0.05716793 -0.01772391 -0.21991680
v -0.05673622 -0.01046487 -0.22279975
v -0.05567950 -0.00366874 -0.22227283
v -0.05441660 0.00494314 -0.22156450
v -0.06160743 0.01546656 -0.22452089
v -0.06869516 0.02173192 -0.21977211
v -0.10136318 0.02173192 -0.21398460
v -0.10718157 0.01586562 -0.21854334
v -0.11280021 0.01580576 -0.21389822
v -0.11662114 0.01657995 -0.20900475
v -0.11806447 0.00669106 -0.20910193
v -0.11787116 -0.00514529 -0.20903067
v -0.11519071 -0.01509405 -0.20724690
v -0.07105989 -0.01725301 -0.22630897
v -0.09756158 -0.01214893 -0.22417968
v -0.08611811 -0.01673422 -0.22659186
v -0.06274791 -0.01403652 -0.22524865
v -0.06194248 0.00104425 -0.22528752
v -0.05817954 0.00292386 -0.22361605
v -0.06609848 -0.00649813 -0.22668257
v -0.07166557 0.01572196 -0.22688988
v -0.07891439 0.01593746 -0.22758740
v -0.07887573 0.02173192 -0.22073525
v -0.09581542 0.02173192 -0.21696474
v -0.09587341 0.01766941 -0.22370459
v -0.10124076 0.01604520 -0.22194243
v -0.10260031 0.01046225 -0.22199641
v -0.11085431 0.01046225 -0.21640974
v -0.11457858 0.00669106 -0.21294803
v -0.11316104 -0.00272295 -0.21425886
v -0.11187880 -0.01026533 -0.21442514
v -0.07891439 -0.01467104 -0.22741464
v -0.07137562 -0.01026533 -0.22769754
v -0.10111189 -0.00622278 -0.22265075
v -0.10087349 0.00010245 -0.22285158
v -0.09963635 0.01046225 -0.22345840
v -0.09212980 -0.01214893 -0.22623771
v -0.10734266 -0.00838173 -0.21875713
v -0.08645316 -0.01026533 -0.22748159
v -0.07325709 -0.00272295 -0.22790917
v -0.07891439 0.00010245 -0.22815104
v -0.08221341 0.00763286 -0.22787246
v -0.08456525 0.01423344 -0.22759605
v -0.08645316 0.01856731 -0.22498302
v -0.08731013 0.02173192 -0.21995782
v -0.09320584 0.01456865 -0.22574533
v -0.10663388 0.00292386 -0.21956479
v -0.10968161 0.00480746 -0.21734265
v -0.10754884 -0.00272295 -0.21890614
v -0.08832819 0.00669106 -0.22717061
v -0.08832819 0.00104425 -0.22718573
v -0.08456525 0.00104425 -0.22772129
f 1 2 3
f 1 3 16
f 1 16 4
f 1 4 5
f 1 5 18
f 1 18 35
f 1 35 57
f 1 57 36
f 1 36 19
f 1 19 6
f 1 6 7
f 1 7 8
f 1 8 2
f 2 9 3
f 2 8 10
f 2 10 11
f 2 11 12
f 2 12 9
f 3 9 13
f 3 13 14
f 3 14 15
f 3 15 16
f 4 16 17
f 4 17 5
f 5 17 18
f 6 19 20
f 6 20 21
f 6 21 22
f 6 22 7
f 7 22 23
f 7 23 8
f 8 23 24
f 8 24 25
f 8 25 10
f 9 26 13
f 9 12 26
f 10 25 12
f 10 12 11
f 12 25 27
f 12 27 28
f 12 28 26
f 13 26 29
f 13 29 14
f 14 29 30
f 14 30 31
f 14 31 15
f 15 31 16
f 16 31 17
f 17 31 30
f 17 30 32
f 17 32 33
f 17 33 18
f 18 33 34
f 18 34 35
f 19 36 37
f 19 37 20
f 20 37 38
f 20 38 39
f 20 39 40
f 20 40 21
f 21 40 41
f 21 41 23
f 21 23 22
f 23 41 24
f 24 41 42
f 24 42 43
f 24 43 25
f 25 43 27
f 26 28 44
f 26 44 45
f 26 45 29
f 27 46 47
f 27 47 48
f 27 48 49
f 27 49 28
f 27 43 50
f 27 50 46
f 28 51 44
f 28 49 51
f 29 45 32
f 29 32 30
f 32 45 52
f 32 52 33
f 33 52 34
f 34 52 53
f 34 53 54
f 34 54 55
f 34 55 56
f 34 56 35
f 35 56 57
f 36 57 37
f 37 57 56
f 37 56 55
f 37 55 58
f 37 58 38
f 38 58 48
f 38 48 39
f 39 59 40
f 39 48 47
f 39 47 46
f 39 46 59
f 40 60 42
f 40 42 41
f 40 59 60
f 42 60 61
f 42 61 50
f 42 50 43
f 44 51 53
f 44 53 45
f 45 53 52
f 46 50 61
f 46 61 59
f 48 58 49
f 49 58 62
f 49 62 63
f 49 63 51
f 51 64 53
f 51 63 64
f 53 64 54
f 54 64 55
f 55 64 62
f 55 62 58
f 59 61 60
f 62 64 63

