# https://github.com/mikedh/trimesh
v 0.04137499 0.01510924 -0.00872964
v 0.03649840 0.02304982 -0.00846009
v 0.04115538 0.01779803 0.00434344
v 0.04124548 0.01386181 0.01429327
v 0.04124548 0.00332678 0.02081516
v 0.04124548 -0.00415256 0.02141286
v 0.04124548 -0.02293741 0.00132567
v 0.04124548 -0.01237617 -0.01843336
v 0.04118353 0.00023965 -0.02179685
v 0.04112159 0.01331147 -0.01706218
v 0.03626189 0.02060213 -0.02004479
v 0.02857534 0.02165039 -0.01855056
v 0.02899204 0.02352678 -0.00816710
v 0.03256784 0.02369974 0.00177687
v 0.03658286 0.02301837 0.00884958
v 0.03627878 0.02160846 0.01745753
v 0.04099770 0.01049689 0.02136012
v 0.03642519 0.00364650 0.02914185
v 0.03608169 -0.00966118 0.02788787
v 0.04122858 -0.01292127 0.01826618
v 0.03621121 -0.02931608 -0.00384848
v 0.04118353 -0.02071509 -0.00972579
v 0.03908311 -0.02286927 0.01221893
v 0.03619431 -0.02926890 0.00460127
v 0.03638577 -0.02175811 -0.02029676
v 0.03616616 -0.01465614 -0.02623267
v 0.03622247 -0.00427835 -0.02970164
v 0.03630130 0.00540758 -0.02951413
v 0.03629004 0.01417629 -0.02642019
v 0.02321446 0.01854754 -0.02401183
v 0.00481741 0.01651391 -0.02552365
v -0.00508219 0.01586399 -0.02484978
v -0.00609580 0.01608412 0.02241487
v 0.02840077 0.02187577 0.01693016
v 0.02257250 0.01837982 0.02368057
v 0.03631257 0.01571723 0.02492870
v 0.00459780 0.00589502 0.02928835
v -0.00249185 0.00126695 0.02964579
v 0.00143871 -0.00526372 0.02931178
v 0.00459780 0.01335340 0.02679796
v 0.00459780 -0.01351878 0.02669248
v 0.02331019 -0.01875484 0.02338759
v 0.03617742 -0.01978214 0.02202813
v 0.02899204 -0.02984545 -0.00118229
v 0.02899204 -0.02868188 -0.00861830
v 0.03604790 -0.02697845 -0.01262636
v 0.02862039 -0.02459890 0.01676023
v 0.02899767 -0.02894394 0.00766005
v 0.02879495 -0.02444166 -0.01742549
v 0.02421118 -0.01899594 -0.02366611
v 0.00318437 -0.01394332 -0.02688897
v 0.00481741 -0.00275837 -0.03020558
v -0.00363498 -0.00771141 -0.02897503
v -0.00275088 0.00468428 -0.02961375
v 0.00481741 0.00894022 -0.02884612
v -0.01271243 0.00813306 -0.02585179
v -0.01461577 0.00610992 0.02392668
v -0.00235670 0.01053358 0.02788201
v -0.01138347 -0.00074047 0.02745425
v -0.00570725 -0.01357119 0.02530958
v 0.00459780 -0.01790575 0.02405560
v -0.00866362 -0.01386994 -0.02513690
v -0.01310661 -0.00330871 -0.02646707
v -0.01615308 -0.00595033 0.02228010
f 1 2 3
f 1 3 4
f 1 4 5
f 1 5 6
f 1 6 7
f 1 7 8
f 1 8 9
f 1 9 10
f 1 10 11
f 1 11 2
f 2 11 12
f 2 12 13
f 2 13 14
f 2 14 15
f 2 15 3
f 3 15 16
f 3 16 4
f 4 16 17
f 4 17 5
f 5 17 6
f 6 17 18
f 6 18 19
f 6 19 20
f 6 20 7
f 7 21 22
f 7 22 8
f 7 20 23
f 7 23 24
f 7 24 21
f 8 25 26
f 8 26 27
f 8 27 9
f 8 22 25
f 9 27 28
f 9 28 29
f 9 29 10
f 10 29 11
f 11 29 30
f 11 30 12
f 12 30 31
f 12 31 32
f 12 32 13
f 13 32 33
f 13 33 14
f 14 33 34
f 14 34 15
f 15 34 16
f 16 34 35
f 16 35 36
f 16 36 17
f 17 36 18
f 18 37 38
f 18 38 39
f 18 39 19
f 18 36 40
f 18 40 37
f 19 39 41
f 19 41 42
f 19 42 43
f 19 43 20
f 20 43 23
f 21 24 44
f 21 44 45
f 21 45 46
f 21 46 22
f 22 46 25
f 23 43 24
f 24 43 47
f 24 47 48
f 24 48 44
f 25 46 49
f 25 49 50
f 25 50 26
f 26 50 51
f 26 51 27
f 27 52 28
f 27 51 53
f 27 53 52
f 28 52 54
f 28 54 55
f 28 55 29
f 29 55 31
f 29 31 30
f 31 55 32
f 32 55 54
f 32 54 56
f 32 56 33
f 33 57 58
f 33 58 40
f 33 40 35
f 33 35 34
f 33 56 57
f 35 40 36
f 37 40 58
f 37 58 38
f 38 58 59
f 38 59 39
f 39 59 60
f 39 60 41
f 41 60 61
f 41 61 42
f 42 61 47
f 42 47 43
f 44 62 45
f 44 48 61
f 44 61 60
f 44 60 62
f 45 62 49
f 45 49 46
f 47 61 48
f 49 62 51
f 49 51 50
f 51 62 53
f 52 53 54
f 53 62 63
f 53 63 54
f 54 63 56
f 56 63 64
f 56 64 57
f 57 64 59
f 57 59 58
f 59 64 60
f 60 64 62
f 62 64 63

