# https://github.com/mikedh/trimesh
v -0.03600017 0.03763933 -0.14407207
v -0.05887296 0.04085429 -0.14330593
v -0.07154584 0.04085429 -0.13818347
v -0.06383600 0.03622230 -0.13474474
v -0.05442333 0.03050088 -0.13571577
v -0.03741208 0.02570700 -0.14407207
v -0.03600017 0.02593175 -0.19629448
v -0.03677030 0.03874590 -0.17955516
v -0.03942296 0.04068288 -0.17058417
v -0.04604606 0.04068288 -0.15534150
v -0.05449179 0.04119331 -0.20724319
v -0.07891339 0.04085429 -0.13778258
v -0.07551627 0.03314447 -0.13168907
v -0.08179709 0.02542322 -0.13473583
v -0.05442333 0.02173591 -0.20607617
v -0.05730704 0.02173591 -0.21518970
v -0.04579791 0.03407582 -0.20889130
v -0.04095466 0.03345302 -0.20351048
v -0.03695000 0.03463387 -0.19595596
v -0.03812230 0.03878590 -0.18849943
v -0.04364155 0.04068288 -0.19581342
v -0.09182586 0.04119331 -0.20607617
v -0.04841634 0.04068288 -0.20287797
v -0.05236966 0.03516716 -0.21420975
v -0.06063570 0.04119331 -0.21216076
v -0.09006312 0.03354634 -0.13315900
v -0.08685426 0.04085429 -0.13865562
v -0.09034550 0.02542322 -0.13649973
v -0.10911950 0.02173591 -0.20788462
v -0.06870492 0.02173591 -0.21976874
v -0.05923235 0.03482052 -0.21805828
v -0.08622960 0.04119331 -0.21460173
v -0.11094213 0.03760695 -0.19792477
v -0.11480989 0.04085429 -0.16880244
v -0.11267064 0.04085429 -0.15778246
v -0.10685191 0.04085429 -0.15068228
v -0.09702850 0.04085429 -0.14243289
v -0.06721601 0.03498622 -0.22098922
v -0.07124634 0.04119331 -0.21597366
v -0.10216268 0.03385869 -0.13858436
v -0.09785852 0.02542322 -0.13943958
v -0.10630426 0.02542322 -0.14519456
v -0.11483556 0.02542322 -0.15540386
v -0.12093668 0.02542322 -0.17340820
v -0.12091100 0.02542322 -0.18096273
v -0.11884878 0.02542322 -0.18940811
v -0.11869475 0.03565854 -0.19061078
v -0.11320117 0.03556141 -0.20039246
v -0.10908527 0.03502240 -0.20740355
v -0.10203432 0.03505478 -0.21447701
v -0.09858587 0.02173591 -0.21545696
v -0.07889628 0.02173591 -0.22073086
v -0.08243030 0.03303591 -0.22269077
v -0.07915298 0.04119331 -0.21656163
v -0.09319498 0.03501479 -0.22000927
v -0.10514050 0.03746410 -0.20751046
v -0.11251662 0.03629658 -0.19979558
v -0.12341820 0.03449483 -0.17739927
v -0.12164690 0.03630801 -0.16592495
v -0.11864341 0.03337873 -0.15586711
v -0.11014633 0.03355586 -0.14447296
v -0.12042326 0.02760970 -0.16494501
v -0.12295612 0.03309114 -0.16592495
v -0.08729066 0.02173591 -0.21994691
f 1 2 3
f 1 3 4
f 1 4 5
f 1 5 6
f 1 6 7
f 1 7 8
f 1 8 9
f 1 9 10
f 1 10 2
f 2 10 9
f 2 9 11
f 2 11 3
f 3 12 4
f 3 11 12
f 4 13 5
f 4 12 13
f 5 13 14
f 5 14 6
f 6 14 15
f 6 15 7
f 7 15 16
f 7 16 17
f 7 17 18
f 7 18 19
f 7 19 8
f 8 20 9
f 8 19 20
f 9 20 21
f 9 21 11
f 11 22 12
f 11 21 23
f 11 23 24
f 11 24 25
f 11 25 39
f 11 39 54
f 11 54 32
f 11 32 22
f 12 26 13
f 12 22 27
f 12 27 26
f 13 26 14
f 14 26 28
f 14 28 29
f 14 29 15
f 15 29 51
f 15 51 64
f 15 64 52
f 15 52 30
f 15 30 16
f 16 30 31
f 16 31 24
f 16 24 17
f 17 24 23
f 17 23 18
f 18 23 19
f 19 23 21
f 19 21 20
f 22 32 33
f 22 33 34
f 22 34 35
f 22 35 36
f 22 36 37
f 22 37 27
f 24 31 25
f 25 31 38
f 25 38 39
f 26 27 37
f 26 37 40
f 26 40 41
f 26 41 28
f 28 41 29
f 29 41 42
f 29 42 43
f 29 43 44
f 29 44 45
f 29 45 46
f 29 46 47
f 29 47 48
f 29 48 49
f 29 49 50
f 29 50 51
f 30 52 53
f 30 53 38
f 30 38 31
f 32 54 55
f 32 55 50
f 32 50 56
f 32 56 33
f 33 57 47
f 33 47 34
f 33 56 57
f 34 58 59
f 34 59 35
f 34 47 58
f 35 59 60
f 35 60 61
f 35 61 36
f 36 61 37
f 37 61 40
f 38 53 54
f 38 54 39
f 40 61 42
f 40 42 41
f 42 61 43
f 43 61 60
f 43 60 62
f 43 62 44
f 44 63 58
f 44 58 45
f 44 62 63
f 45 58 46
f 46 58 47
f 47 57 48
f 48 57 49
f 49 56 50
f 49 57 56
f 50 55 51
f 51 55 64
f 52 64 53
f 53 64 55
f 53 55 54
f 58 63 59
f 59 63 60
f 60 63 62

