# https://github.com/mikedh/trimesh
v -0.04431520 -0.00004500 0.01919604
v -0.05038290 0.00254922 0.01416280
v -0.04927663 -0.00808823 0.01454998
v -0.04310092 -0.00865466 0.01917945
v -0.04384216 0.00672377 0.01910755
v -0.05496812 -0.00027724 0.00848796
v -0.04603606 0.01251830 0.01576680
v -0.05397733 0.01067175 0.00761959
v -0.05458074 -0.01186062 0.00588838
v -0.04415504 -0.01868037 0.01181765
v -0.03274972 -0.01890128 -0.01514061
v -0.02844758 0.01790500 0.00766384
v -0.03376286 0.02463412 0.00851009
v -0.05876742 -0.00003934 0.00254210
v -0.04738816 0.01915679 0.00759194
v -0.05715830 0.01496525 -0.00241370
v -0.06054414 0.00487723 -0.00225883
v -0.05854765 -0.01346927 -0.00331526
v -0.05121725 -0.01911652 0.00310627
v -0.06016421 -0.00589617 -0.00162276
v -0.05212610 -0.02197130 -0.00485842
v -0.05089320 -0.02507531 -0.01146800
v -0.05198456 -0.02594194 -0.01979774
v -0.05270344 -0.02632144 -0.02757990
v -0.03274972 -0.01890128 -0.03729793
v -0.03588599 0.02858776 -0.03624703
v -0.03499577 0.03154450 -0.02673918
v -0.03400497 0.03113101 -0.01826564
v -0.03453017 0.02747757 0.00138612
v -0.04005032 0.02484936 0.00434522
v -0.06319247 -0.00364746 -0.00880204
v -0.04746638 0.02360323 -0.00131856
v -0.05728122 0.01863568 -0.01022905
v -0.06168393 0.01050182 -0.00914497
v -0.06450360 0.00211308 -0.01332643
v -0.06011207 -0.01616545 -0.01352555
v -0.06176215 -0.01045022 -0.00910072
v -0.05794051 -0.02082712 -0.01946588
v -0.05084849 -0.02560775 -0.03535100
v -0.06133007 -0.01758151 -0.02574360
v -0.05757921 -0.02012476 -0.03505233
v -0.04957834 -0.00589050 -0.03730899
v -0.05162698 0.02336533 -0.03701031
v -0.04716095 0.02824224 -0.03355895
v -0.04192016 0.03091010 -0.02965957
v -0.03633297 0.02991886 -0.01024564
v -0.04020676 0.02748324 -0.00293362
v -0.06649636 -0.00003934 -0.02250794
v -0.06415347 -0.00736321 -0.01524017
v -0.04551087 0.02712072 -0.00860293
v -0.05180204 0.02433958 -0.01147907
v -0.05730729 0.02136019 -0.01990283
v -0.06291683 0.01468770 -0.02410088
v -0.06387038 0.00917073 -0.01607535
v -0.06590412 0.00665014 -0.02343163
v -0.06590785 -0.00717629 -0.02420044
v -0.06245123 -0.01316340 -0.03515189
v -0.06593020 -0.00644560 -0.03337089
v -0.06245868 0.01307906 -0.03516295
v -0.05757921 0.02002909 -0.03504679
v -0.05802246 0.02180766 -0.02680003
v -0.04846091 0.02831021 -0.02332101
v -0.04589452 0.02846881 -0.01667824
v -0.06637718 0.00439010 -0.03201026
f 1 2 3
f 1 3 4
f 1 4 5
f 1 5 2
f 2 6 3
f 2 5 7
f 2 7 8
f 2 8 6
f 3 6 9
f 3 9 10
f 3 10 4
f 4 10 11
f 4 11 12
f 4 12 5
f 5 12 13
f 5 13 7
f 6 8 14
f 6 14 9
f 7 15 8
f 7 13 15
f 8 15 16
f 8 16 17
f 8 17 14
f 9 18 19
f 9 19 10
f 9 14 20
f 9 20 18
f 10 19 21
f 10 21 22
f 10 22 11
f 11 22 23
f 11 23 24
f 11 24 25
f 11 25 12
f 12 26 27
f 12 27 28
f 12 28 29
f 12 29 13
f 12 25 26
f 13 29 30
f 13 30 15
f 14 31 20
f 14 17 31
f 15 30 32
f 15 32 16
f 16 32 33
f 16 33 34
f 16 34 17
f 17 34 35
f 17 35 31
f 18 36 21
f 18 21 19
f 18 20 37
f 18 37 36
f 20 31 37
f 21 36 38
f 21 38 22
f 22 38 23
f 23 38 24
f 24 39 25
f 24 38 40
f 24 40 41
f 24 41 39
f 25 39 42
f 25 42 43
f 25 43 26
f 26 43 44
f 26 44 45
f 26 45 27
f 27 45 28
f 28 45 46
f 28 46 29
f 29 47 30
f 29 46 47
f 30 47 32
f 31 35 48
f 31 48 49
f 31 49 37
f 32 47 50
f 32 50 51
f 32 51 33
f 33 52 53
f 33 53 34
f 33 51 52
f 34 54 35
f 34 53 54
f 35 54 55
f 35 55 48
f 36 40 38
f 36 37 56
f 36 56 40
f 37 49 56
f 39 41 57
f 39 57 42
f 40 56 58
f 40 58 57
f 40 57 41
f 42 57 43
f 43 57 59
f 43 59 60
f 43 60 44
f 44 60 61
f 44 61 62
f 44 62 45
f 45 62 63
f 45 63 46
f 46 63 50
f 46 50 47
f 48 64 58
f 48 58 56
f 48 56 49
f 48 55 64
f 50 63 51
f 51 63 62
f 51 62 61
f 51 61 52
f 52 61 53
f 53 61 59
f 53 59 64
f 53 64 55
f 53 55 54
f 57 58 59
f 58 64 59
f 59 61 60

