# https://github.com/mikedh/trimesh
v 0.01328918 0.03240752 -0.04955923
v -0.00162452 0.03240752 -0.05498749
v 0.00318739 0.03240752 -0.05236322
v -0.01142920 0.02677051 -0.04256117
v -0.00658499 0.02729864 -0.04256117
v -0.00002917 0.02747097 -0.04256117
v 0.02081384 0.03147914 -0.04901303
v 0.02779596 0.03162368 -0.05143932
v 0.03220096 0.03147358 -0.05400181
v -0.01956101 0.02468026 -0.05592263
v -0.01646718 0.02549746 -0.04256117
v 0.01135795 0.01390102 -0.04157830
v 0.01917327 0.01384543 -0.04157830
v 0.00562887 0.02707071 -0.04256117
v 0.01067330 0.02569759 -0.04256117
v 0.03261434 0.02524174 -0.05103634
v 0.02720174 0.02598667 -0.04829694
v 0.03278227 0.01219991 -0.05092261
v 0.03278227 -0.01884254 -0.05098861
v 0.03177467 -0.02377909 -0.05553510
v -0.02472171 0.02073325 -0.05592263
v -0.02171184 0.02264560 -0.04256117
v -0.00465377 -0.02380133 -0.05592263
v 0.01135795 -0.01219932 -0.04157830
v -0.02749905 0.01680847 -0.04256117
v 0.01651219 0.02152265 -0.04256117
v 0.01992251 0.00930358 -0.04157830
v 0.02043923 0.00533988 -0.04157830
v 0.03278227 -0.01036479 -0.05092682
v 0.02051027 -0.00067515 -0.04157830
v 0.03001784 -0.02332880 -0.05159658
v 0.02032942 -0.00537265 -0.04157830
v 0.01956727 -0.01052045 -0.04157830
v 0.01873406 -0.01639094 -0.04256117
v 0.02507029 -0.02307863 -0.04845841
v -0.00021002 -0.02438504 -0.04256117
v -0.02813203 0.01640265 -0.05592263
v -0.00679814 -0.02419603 -0.04256117
v -0.01053141 -0.02342330 -0.05592263
v -0.02724715 -0.01542920 -0.04256117
v -0.02127263 -0.02055477 -0.04256117
v -0.01627987 -0.02265613 -0.04256117
v -0.01164235 -0.02364011 -0.04256117
v 0.00534468 -0.02391251 -0.04256117
v -0.03067039 0.01158840 -0.04280408
v -0.03240785 0.00655734 -0.04280408
v 0.01011138 -0.02270061 -0.04256117
v 0.01542063 -0.01987655 -0.04256117
v -0.03283414 -0.00288214 -0.05592263
v -0.03219470 0.00656290 -0.05553510
v -0.03058643 0.01169958 -0.05514897
v -0.01666741 -0.02227255 -0.05592263
v -0.03263391 -0.00553943 -0.04328850
v -0.03114190 -0.00968657 -0.04366199
v -0.02964342 -0.01171011 -0.05592263
v -0.02616205 -0.01619637 -0.05592263
v -0.02112408 -0.02031016 -0.05592263
v -0.03164569 0.00885328 -0.05091278
v -0.03300853 0.00294944 -0.04796416
v -0.03320230 -0.00006364 -0.04328850
v -0.03239493 -0.00582850 -0.05118939
v -0.03313771 -0.00062511 -0.05053087
v -0.03291811 0.00239908 -0.05355250
v -0.03172320 -0.00754073 -0.05592263
f 1 2 3
f 1 3 4
f 1 4 5
f 1 5 6
f 1 6 7
f 1 7 8
f 1 8 9
f 1 9 2
f 2 9 10
f 2 10 11
f 2 11 4
f 2 4 3
f 4 11 12
f 4 12 5
f 5 12 6
f 6 12 13
f 6 13 14
f 6 14 7
f 7 14 15
f 7 15 8
f 8 16 9
f 8 15 17
f 8 17 16
f 9 16 18
f 9 18 19
f 9 19 20
f 9 20 10
f 10 21 22
f 10 22 11
f 10 20 23
f 10 23 39
f 10 39 52
f 10 52 57
f 10 57 56
f 10 56 55
f 10 55 64
f 10 64 49
f 10 49 37
f 10 37 21
f 11 22 12
f 12 24 33
f 12 33 32
f 12 32 30
f 12 30 28
f 12 28 27
f 12 27 13
f 12 22 25
f 12 25 24
f 13 26 15
f 13 15 14
f 13 27 16
f 13 16 17
f 13 17 26
f 15 26 17
f 16 27 28
f 16 28 18
f 18 29 19
f 18 28 30
f 18 30 29
f 19 31 20
f 19 29 30
f 19 30 32
f 19 32 33
f 19 33 34
f 19 34 35
f 19 35 31
f 20 31 36
f 20 36 23
f 21 25 22
f 21 37 25
f 23 36 38
f 23 38 39
f 24 25 40
f 24 40 41
f 24 41 42
f 24 42 43
f 24 43 38
f 24 38 36
f 24 36 44
f 24 44 33
f 25 37 45
f 25 45 46
f 25 46 40
f 31 35 44
f 31 44 36
f 33 44 47
f 33 47 48
f 33 48 34
f 34 48 35
f 35 48 47
f 35 47 44
f 37 49 50
f 37 50 51
f 37 51 45
f 38 43 39
f 39 43 52
f 40 46 53
f 40 53 54
f 40 54 55
f 40 55 56
f 40 56 41
f 41 56 57
f 41 57 52
f 41 52 42
f 42 52 43
f 45 51 58
f 45 58 46
f 46 59 60
f 46 60 53
f 46 58 50
f 46 50 59
f 49 61 53
f 49 53 62
f 49 62 63
f 49 63 50
f 49 64 61
f 50 58 51
f 50 63 59
f 53 60 62
f 53 61 64
f 53 64 54
f 54 64 55
f 59 63 62
f 59 62 60

