# https://github.com/mikedh/trimesh
v 0.00900896 -0.00098370 0.02987151
v 0.04214733 0.02667112 0.01292569
v 0.00900896 0.00762002 0.02892035
v 0.00055266 0.00074290 0.02938718
v 0.00069754 -0.00674292 0.02871028
v 0.00900896 -0.00940013 0.02838350
v 0.04487846 -0.02349384 0.01480467
v 0.04992219 0.02678233 0.00595246
v 0.04076836 0.03012432 0.00039722
v 0.03384664 0.02953317 0.00724207
v 0.03339056 0.02667112 0.01452457
v 0.00907871 0.01617692 0.02528494
v 0.05409131 0.00080143 0.00800650
v 0.00060095 0.00777220 0.02829597
v -0.00000000 0.01725385 0.01390603
v 0.00067071 -0.02183163 0.01980556
v 0.00069754 -0.01533494 0.02511571
v 0.00922358 -0.01706154 0.02456719
v 0.01341954 -0.02290856 0.01929788
v 0.03339056 -0.02710507 0.01259891
v 0.04121907 -0.02795373 0.00993800
v 0.05221869 -0.02468198 0.00462784
v 0.05118312 0.02644286 -0.00472621
v 0.03339593 0.03029405 -0.00142341
v 0.04162686 0.02872548 -0.00850751
v 0.01048988 0.02939856 0.00800650
v 0.00061705 0.02571710 0.01460627
v 0.01216934 0.02307746 0.01967134
v 0.00047754 0.01879316 0.02238478
v 0.05481568 -0.02265103 -0.00525139
v 0.00065461 0.02908250 0.00564902
v 0.00053120 0.02905909 -0.00463868
v 0.00001073 0.01749382 -0.01363094
v 0.00058486 -0.02909504 -0.00357665
v 0.00066534 -0.02605155 0.01377765
v 0.01761549 -0.02889604 0.00800650
v 0.03381445 -0.02949889 0.00458116
v 0.04139614 -0.02948133 0.00141257
v 0.04889735 -0.02655490 -0.00769640
v 0.04772763 0.02452897 -0.01353757
v 0.03339593 0.02839186 -0.01090583
v 0.03909963 0.02546543 -0.01642023
v 0.05023340 -0.02099467 -0.01318161
v 0.00060632 0.02610925 -0.01408026
v 0.00061705 0.01963597 -0.02184709
v 0.00043462 0.01066937 -0.02729146
v 0.00053120 0.00094775 -0.02920545
v 0.00063315 -0.01043023 -0.02743151
v 0.00067607 -0.02558332 -0.01438370
v 0.03339593 -0.02707580 -0.01288985
v 0.03339593 -0.02928233 -0.00601582
v 0.00065461 -0.02889604 0.00591745
v 0.04125127 -0.02877899 -0.00728209
v 0.04299511 -0.02360505 -0.01550992
v 0.00901432 0.00626801 -0.02923463
v 0.00901432 -0.00280979 -0.02974231
v 0.01414927 0.02376810 -0.01887107
v 0.00922895 0.01730067 -0.02446716
v 0.00901432 -0.01000883 -0.02822512
v 0.00925578 -0.01712592 -0.02450801
v 0.00072436 -0.01903981 -0.02252399
v 0.03339593 -0.02525556 -0.01616931
v 0.01429414 -0.02315438 -0.01900528
v 0.03339593 -0.02441860 -0.01740640
f 1 2 3
f 1 3 4
f 1 4 5
f 1 5 6
f 1 6 7
f 1 7 2
f 2 8 9
f 2 9 10
f 2 10 11
f 2 11 12
f 2 12 3
f 2 7 13
f 2 13 8
f 3 12 14
f 3 14 4
f 4 14 15
f 4 15 16
f 4 16 17
f 4 17 5
f 5 17 6
f 6 17 18
f 6 18 7
f 7 18 19
f 7 19 20
f 7 20 21
f 7 21 22
f 7 22 13
f 8 23 9
f 8 13 23
f 9 24 10
f 9 23 25
f 9 25 24
f 10 24 26
f 10 26 11
f 11 27 28
f 11 28 12
f 11 26 27
f 12 28 29
f 12 29 14
f 13 22 30
f 13 30 23
f 14 29 15
f 15 29 27
f 15 27 31
f 15 31 32
f 15 32 33
f 15 33 34
f 15 34 35
f 15 35 16
f 16 35 19
f 16 19 18
f 16 18 17
f 19 35 20
f 20 35 36
f 20 36 21
f 21 36 37
f 21 37 38
f 21 38 22
f 22 38 39
f 22 39 30
f 23 30 40
f 23 40 25
f 24 25 41
f 24 41 32
f 24 32 31
f 24 31 26
f 25 40 42
f 25 42 41
f 26 31 27
f 27 29 28
f 30 39 43
f 30 43 40
f 32 41 44
f 32 44 33
f 33 44 45
f 33 45 46
f 33 46 47
f 33 47 48
f 33 48 49
f 33 49 34
f 34 49 50
f 34 50 51
f 34 51 37
f 34 37 52
f 34 52 35
f 35 52 36
f 36 52 37
f 37 51 38
f 38 51 53
f 38 53 39
f 39 53 54
f 39 54 43
f 40 55 42
f 40 43 56
f 40 56 55
f 41 42 57
f 41 57 44
f 42 55 58
f 42 58 57
f 43 54 56
f 44 57 45
f 45 57 58
f 45 58 46
f 46 55 47
f 46 58 55
f 47 55 56
f 47 56 48
f 48 56 59
f 48 59 60
f 48 60 61
f 48 61 49
f 49 62 50
f 49 61 63
f 49 63 62
f 50 62 53
f 50 53 51
f 53 62 54
f 54 59 56
f 54 62 64
f 54 64 59
f 59 64 60
f 60 63 61
f 60 64 63
f 62 63 64

