# https://github.com/mikedh/trimesh
v 0.04000281 -0.00176388 0.02480170
v 0.04379555 -0.00174499 0.02288111
v 0.04378237 0.00154194 0.02288111
v 0.04000281 0.00167890 0.02478839
v 0.03653089 0.00861639 0.02378153
v 0.03653089 -0.00872026 0.02376378
v 0.03653089 -0.01218192 0.02357305
v 0.03999842 -0.00524915 0.02453557
v 0.04321544 -0.00524915 0.02291659
v 0.07850156 0.00184891 0.00299218
v 0.07850156 -0.00523970 0.00285468
v 0.07850156 -0.00178277 0.00299218
v 0.07850156 0.00514056 0.00285468
v 0.04320665 0.00515000 0.02293877
v 0.04000281 0.00515000 0.02454887
v 0.03653089 0.01208277 0.02355088
v 0.03428074 0.01208277 0.02243756
v 0.03427195 -0.01218192 0.02244643
v 0.03999842 -0.00872026 0.02403879
v 0.03443456 -0.01442043 0.02220691
v 0.03653089 -0.01490686 0.02254845
v 0.03925569 -0.01474156 0.02242425
v 0.04274519 -0.00872026 0.02255288
v 0.07850156 -0.01249833 0.00189660
v 0.07850156 -0.00852663 0.00254862
v 0.07850156 0.00882418 0.00249096
v 0.04274080 0.00861639 0.02257062
v 0.04000281 0.00861639 0.02404766
v 0.03923372 0.01460936 0.02240651
v 0.03653089 0.01475576 0.02251740
v 0.03445653 0.01428350 0.02218030
v 0.03422800 0.01885497 0.01718588
v 0.03360393 -0.01842519 0.01718145
v 0.04024453 -0.01236610 0.02295208
v 0.04222660 -0.01132713 0.02218473
v 0.03587167 -0.02095178 0.01718145
v 0.03999842 -0.01854325 0.01930607
v 0.03926009 -0.02081010 0.01734557
v 0.04233647 -0.01789153 0.01874719
v 0.07850156 -0.02260468 -0.00240143
v 0.07850156 -0.01893995 -0.00027681
v 0.04157177 -0.01363648 0.02173231
v 0.07850156 -0.01540745 0.00111595
v 0.07850156 0.01320675 0.00166152
v 0.04221781 0.01120437 0.02217586
v 0.04023135 0.01225278 0.02293434
v 0.04234526 0.01778294 0.01874719
v 0.04000281 0.01841577 0.01928389
v 0.04154540 0.01351372 0.02171900
v 0.06351957 0.01928000 0.00625230
v 0.03653089 0.02087624 0.01718588
v 0.06272850 0.02480072 0.00128450
v 0.07553505 -0.01191745 -0.02051172
v 0.03635950 0.01529886 0.01460441
v 0.07553505 -0.02344531 -0.02051172
v 0.07192689 -0.02343586 -0.01028781
v 0.07192689 -0.02344531 -0.00337725
v 0.07192689 -0.02344531 -0.00048972
v 0.07850156 -0.02344531 -0.02051172
v 0.07850156 0.01402376 -0.00573695
v 0.06351957 0.02179242 0.00443816
v 0.04278035 0.01928000 0.01718588
v 0.04018300 0.02033787 0.01748307
v 0.07850156 -0.01191745 -0.02051172
f 1 2 3
f 1 3 4
f 1 4 5
f 1 5 6
f 1 6 7
f 1 7 8
f 1 8 9
f 1 9 2
f 2 10 3
f 2 9 11
f 2 11 12
f 2 12 10
f 3 10 13
f 3 13 14
f 3 14 4
f 4 14 15
f 4 15 16
f 4 16 5
f 5 16 17
f 5 17 18
f 5 18 6
f 6 18 7
f 7 19 8
f 7 18 20
f 7 20 21
f 7 21 22
f 7 22 19
f 8 19 9
f 9 19 23
f 9 23 24
f 9 24 25
f 9 25 11
f 10 12 11
f 10 11 25
f 10 25 24
f 10 24 43
f 10 43 41
f 10 41 40
f 10 40 59
f 10 59 64
f 10 64 60
f 10 60 44
f 10 44 26
f 10 26 13
f 13 26 14
f 14 26 27
f 14 27 28
f 14 28 15
f 15 28 16
f 16 28 29
f 16 29 30
f 16 30 31
f 16 31 17
f 17 31 32
f 17 32 33
f 17 33 18
f 18 33 20
f 19 22 34
f 19 34 35
f 19 35 23
f 20 33 36
f 20 36 21
f 21 37 22
f 21 36 38
f 21 38 37
f 22 37 39
f 22 39 40
f 22 40 41
f 22 41 42
f 22 42 34
f 23 35 24
f 24 35 43
f 26 44 27
f 27 44 45
f 27 45 28
f 28 45 46
f 28 46 29
f 29 47 48
f 29 48 30
f 29 46 49
f 29 49 44
f 29 44 50
f 29 50 47
f 30 48 51
f 30 51 31
f 31 51 32
f 32 51 52
f 32 52 53
f 32 53 54
f 32 54 33
f 33 55 36
f 33 54 55
f 34 42 41
f 34 41 43
f 34 43 35
f 36 55 56
f 36 56 57
f 36 57 58
f 36 58 38
f 37 38 40
f 37 40 39
f 38 58 40
f 40 58 59
f 44 49 46
f 44 46 45
f 44 60 52
f 44 52 61
f 44 61 50
f 47 50 61
f 47 61 62
f 47 62 63
f 47 63 48
f 48 63 51
f 51 63 52
f 52 63 61
f 52 60 53
f 53 64 59
f 53 59 55
f 53 55 54
f 53 60 64
f 55 59 58
f 55 58 57
f 55 57 56
f 61 63 62

