# https://github.com/mikedh/trimesh
v 0.02081392 -0.01209915 -0.03697678
v 0.02081392 -0.00168586 -0.04327010
v -0.00327966 0.00739191 -0.04712595
v -0.00431158 0.00739191 -0.04710493
v -0.00870593 0.00739191 -0.04703139
v -0.01461917 0.00739191 -0.04737810
v -0.01461338 -0.01209915 -0.04088516
v 0.02081392 -0.01209915 -0.14431000
v 0.02081392 -0.00168586 -0.14423646
v -0.00327966 0.00739191 -0.08560032
v -0.01569747 0.00739191 -0.04760924
v -0.01737869 -0.01209915 -0.04150503
v -0.03627789 -0.01209915 -0.14431000
v 0.02081392 -0.00979251 -0.14431000
v 0.02079652 -0.00168586 -0.14431000
v -0.03581990 0.00739191 -0.08560032
v -0.01864250 0.00739191 -0.04827114
v -0.02162231 -0.01209915 -0.04256617
v -0.03627789 -0.01096014 -0.14431000
v -0.03781997 -0.01209915 -0.12269837
v -0.03627209 -0.00168586 -0.14431000
v -0.03808084 -0.00168586 -0.11086818
v -0.03550105 0.00739191 -0.06945201
v -0.01940774 0.00739191 -0.04858634
v -0.02654422 -0.01209915 -0.04543442
v -0.03833013 -0.01209915 -0.11086818
v -0.03771561 -0.00884047 -0.12269837
v -0.03841129 -0.01209915 -0.10494258
v -0.03525756 0.00739191 -0.06126754
v -0.03539090 0.00739191 -0.06423034
v -0.02160492 0.00739191 -0.04993115
v -0.02665437 -0.01209915 -0.04551847
v -0.02263104 0.00739191 -0.05069812
v -0.03569236 -0.01209915 -0.06359995
v -0.03533292 0.00299231 -0.06062665
v -0.03306038 0.00739191 -0.05929234
v -0.03533292 -0.00010039 -0.06057412
v -0.03533292 -0.00168586 -0.06057412
v -0.03533872 -0.00592329 -0.06058462
v -0.03529814 -0.01209915 -0.06149868
v -0.03555322 -0.01209915 -0.06265438
v -0.03533872 -0.00404592 -0.06058462
f 1 2 3
f 1 3 4
f 1 4 5
f 1 5 6
f 1 6 7
f 1 7 12
f 1 12 18
f 1 18 25
f 1 25 32
f 1 32 40
f 1 40 41
f 1 41 34
f 1 34 28
f 1 28 26
f 1 26 20
f 1 20 13
f 1 13 8
f 1 8 14
f 1 14 9
f 1 9 2
f 2 9 10
f 2 10 3
f 3 10 16
f 3 16 23
f 3 23 30
f 3 30 29
f 3 29 36
f 3 36 33
f 3 33 31
f 3 31 24
f 3 24 17
f 3 17 11
f 3 11 6
f 3 6 5
f 3 5 4
f 6 11 7
f 7 11 12
f 8 13 19
f 8 19 21
f 8 21 15
f 8 15 14
f 9 14 15
f 9 15 10
f 10 15 21
f 10 21 16
f 11 17 12
f 12 17 18
f 13 20 19
f 16 21 22
f 16 22 23
f 17 24 18
f 18 24 25
f 19 20 21
f 20 26 22
f 20 22 27
f 20 27 21
f 21 27 22
f 22 26 28
f 22 28 29
f 22 29 30
f 22 30 23
f 24 31 25
f 25 31 33
f 25 33 32
f 28 34 35
f 28 35 29
f 29 35 32
f 29 32 36
f 32 33 36
f 32 35 37
f 32 37 38
f 32 38 39
f 32 39 40
f 34 41 39
f 34 39 42
f 34 42 37
f 34 37 35
f 37 42 39
f 37 39 38
f 39 41 40

