# https://github.com/mikedh/trimesh
v 0.06130013 -0.03393768 -0.03001172
v 0.03394060 -0.03393768 -0.03001172
v 0.06045691 -0.04676331 -0.03001172
v 0.06130013 -0.03563617 -0.12394118
v 0.03119741 -0.03393768 -0.12277811
v 0.03436040 -0.04817314 -0.03001172
v 0.03119741 -0.03393768 -0.06117267
v 0.02432858 -0.04669314 -0.07233813
v 0.04966147 -0.04922733 -0.03001172
v 0.05553509 -0.04820026 -0.03033738
v 0.06045691 -0.04688133 -0.03954888
v 0.06045691 -0.04397395 -0.10135903
v 0.05994663 -0.04207132 -0.12148478
v 0.05392825 -0.04106179 -0.12506703
v 0.06045691 -0.04658628 -0.05731127
v 0.03513125 -0.04433917 -0.12422961
v 0.03914832 -0.05011884 -0.03001172
v 0.02916716 -0.04940116 -0.06512710
v 0.02969553 -0.04902957 -0.07525045
v 0.04369738 -0.04991151 -0.03001172
v 0.04398328 -0.04995138 -0.03599454
v 0.04966147 -0.04930707 -0.03812529
v 0.05499224 -0.04839801 -0.03670169
v 0.05628783 -0.04805672 -0.04309392
v 0.05819504 -0.04427378 -0.10562982
v 0.05925540 -0.04328498 -0.11301763
v 0.05985253 -0.04579366 -0.07928863
v 0.05982358 -0.04538697 -0.08571807
v 0.05814799 -0.04532159 -0.09361764
v 0.05538671 -0.04314623 -0.12237801
v 0.04966147 -0.04317813 -0.12470414
v 0.05610688 -0.04782068 -0.05660413
v 0.05861484 -0.04695788 -0.06228921
v 0.04966147 -0.04436150 -0.12126147
v 0.04941538 -0.04502654 -0.11536238
v 0.04788817 -0.04631995 -0.10278262
v 0.03545696 -0.04899289 -0.07650657
v 0.03830148 -0.05023048 -0.03599454
v 0.03047723 -0.04933099 -0.07010504
v 0.03758854 -0.04993862 -0.05589698
v 0.03830148 -0.05021134 -0.04097248
v 0.04398328 -0.04988599 -0.04167962
v 0.04540193 -0.04961966 -0.05021190
v 0.04824283 -0.04927677 -0.05162619
v 0.04966147 -0.04898491 -0.05660413
v 0.05392825 -0.04856228 -0.04309392
v 0.05594041 -0.04803599 -0.04818351
v 0.05464120 -0.04437744 -0.11344564
v 0.05579565 -0.04528171 -0.10055883
v 0.05225629 -0.04813168 -0.06786264
v 0.05286065 -0.04728482 -0.08092623
v 0.05212962 -0.04838366 -0.06282887
v 0.05377264 -0.04842672 -0.05162619
v 0.05271228 -0.04539016 -0.10628114
v 0.04901006 -0.04557516 -0.10997505
v 0.04752989 -0.04794030 -0.08223817
v 0.04256464 -0.04857504 -0.07791156
v 0.04185532 -0.04919224 -0.06763002
v 0.03616628 -0.04942668 -0.06798360
v 0.04043306 -0.04965793 -0.06015847
v 0.04398328 -0.04961009 -0.05589698
v 0.04043306 -0.04998806 -0.04808116
v 0.04682057 -0.04916832 -0.06087492
v 0.04979176 -0.04805193 -0.07586455
f 1 2 6
f 1 6 17
f 1 17 20
f 1 20 9
f 1 9 3
f 1 3 4
f 1 4 5
f 1 5 7
f 1 7 2
f 2 7 8
f 2 8 6
f 3 9 10
f 3 10 11
f 3 11 4
f 4 12 13
f 4 13 14
f 4 14 5
f 4 11 15
f 4 15 12
f 5 14 16
f 5 16 8
f 5 8 7
f 6 8 18
f 6 18 17
f 8 16 19
f 8 19 18
f 9 20 21
f 9 21 22
f 9 22 23
f 9 23 10
f 10 23 11
f 11 23 24
f 11 24 15
f 12 25 26
f 12 26 13
f 12 15 27
f 12 27 28
f 12 28 29
f 12 29 25
f 13 30 14
f 13 26 30
f 14 31 16
f 14 30 31
f 15 24 32
f 15 32 33
f 15 33 27
f 16 31 34
f 16 34 35
f 16 35 36
f 16 36 37
f 16 37 19
f 17 18 38
f 17 38 20
f 18 19 39
f 18 39 40
f 18 40 41
f 18 41 38
f 19 37 39
f 20 38 21
f 21 38 41
f 21 41 42
f 21 42 22
f 22 42 43
f 22 43 44
f 22 44 45
f 22 45 46
f 22 46 23
f 23 46 24
f 24 46 47
f 24 47 32
f 25 48 26
f 25 29 49
f 25 49 48
f 26 48 30
f 27 50 51
f 27 51 29
f 27 29 28
f 27 33 50
f 29 51 49
f 30 48 34
f 30 34 31
f 32 52 50
f 32 50 33
f 32 47 53
f 32 53 52
f 34 48 35
f 35 48 54
f 35 54 55
f 35 55 36
f 36 55 54
f 36 54 56
f 36 56 57
f 36 57 37
f 37 57 58
f 37 58 59
f 37 59 39
f 39 59 40
f 40 60 61
f 40 61 62
f 40 62 41
f 40 59 60
f 41 62 42
f 42 62 61
f 42 61 43
f 43 61 63
f 43 63 44
f 44 63 45
f 45 63 52
f 45 52 53
f 45 53 46
f 46 53 47
f 48 49 54
f 49 51 54
f 50 64 51
f 50 52 63
f 50 63 64
f 51 56 54
f 51 64 56
f 56 64 63
f 56 63 57
f 57 63 58
f 58 63 60
f 58 60 59
f 60 63 61

