# https://github.com/mikedh/trimesh
v 0.03278227 0.03240752 -0.05592960
v 0.03278227 0.03240752 -0.09154216
v -0.00388933 0.03240752 -0.05655365
v -0.02154770 0.02333938 -0.05603768
v -0.02037261 -0.02063121 -0.05592960
v -0.01373307 -0.02294777 -0.05592960
v -0.00409481 -0.02380616 -0.05603768
v 0.03228141 -0.02379516 -0.05768321
v 0.03278227 -0.02183076 -0.09154216
v -0.00976475 -0.02377315 -0.09154216
v -0.02683879 -0.00037095 -0.09122142
v -0.01436235 0.03168669 -0.08990361
v -0.01521637 0.03240752 -0.07779568
v -0.00839061 0.03240752 -0.06109630
v -0.01263504 0.03240752 -0.06788064
v -0.02586918 0.02004337 -0.06497306
v -0.02730754 0.01763877 -0.05779477
v -0.03223261 0.00596244 -0.05757513
v -0.03281694 -0.00225281 -0.05680466
v -0.02253014 -0.02031757 -0.07193521
v -0.01940301 -0.02267264 -0.07586078
v -0.01833709 -0.02290375 -0.06994801
v -0.03101258 -0.00903741 -0.05727182
v -0.02642141 -0.01602561 -0.05757513
v -0.01460636 -0.02354754 -0.06527637
v -0.00935380 -0.02371262 -0.05845368
v -0.01520995 -0.02379516 -0.07253834
v -0.01865173 -0.02293126 -0.08115996
v -0.01889573 -0.02149511 -0.08904597
v -0.02378871 -0.01389063 -0.09055554
v -0.02637646 -0.00775533 -0.08998379
v -0.02837988 -0.00318824 -0.08714245
v -0.02875873 0.00353583 -0.08568169
v -0.02698005 0.00650719 -0.08968048
v -0.02375018 0.01756724 -0.08971186
v -0.02104684 0.02278913 -0.08932836
v -0.01582639 0.03160966 -0.08455562
v -0.02564444 0.02025247 -0.07276495
v -0.02898990 0.01486551 -0.06527637
v -0.03061447 0.01155299 -0.05828983
v -0.03188587 0.00641915 -0.06346001
v -0.03200145 0.00415761 -0.06769935
v -0.03268852 -0.00068460 -0.06285688
v -0.03098048 0.00881274 -0.06997939
v -0.03217482 -0.00250043 -0.06769935
v -0.03160976 -0.00699048 -0.06285688
v -0.02574076 -0.01701056 -0.07034545
v -0.02326216 -0.01932711 -0.07919020
v -0.02752586 -0.01480955 -0.06308349
v -0.02881010 -0.01260304 -0.06964819
v -0.02405198 -0.01699405 -0.08483801
v -0.02719837 -0.01035802 -0.08523196
v -0.02975402 -0.00552681 -0.08100656
v -0.03083921 -0.00125136 -0.07789330
v -0.02771849 0.01155299 -0.08432552
v -0.02994024 0.00796535 -0.07835698
v -0.02601045 0.01198769 -0.08911570
v -0.02567655 0.01662081 -0.08531563
v -0.02377586 0.02150704 -0.08204897
v -0.02809735 0.01414468 -0.07906121
v -0.02893211 0.01418319 -0.07238843
v -0.03166112 0.00143387 -0.07253834
v -0.03098690 -0.00657779 -0.07207117
v -0.02751301 -0.01319181 -0.07825936
f 1 2 13
f 1 13 15
f 1 15 14
f 1 14 3
f 1 3 4
f 1 4 5
f 1 5 6
f 1 6 7
f 1 7 8
f 1 8 9
f 1 9 2
f 2 9 10
f 2 10 11
f 2 11 12
f 2 12 13
f 3 14 4
f 4 14 15
f 4 15 13
f 4 13 16
f 4 16 17
f 4 17 18
f 4 18 19
f 4 19 5
f 5 20 21
f 5 21 22
f 5 22 6
f 5 19 23
f 5 23 24
f 5 24 20
f 6 25 26
f 6 26 7
f 6 22 25
f 7 26 27
f 7 27 8
f 8 27 10
f 8 10 9
f 10 27 28
f 10 28 29
f 10 29 30
f 10 30 11
f 11 31 32
f 11 32 33
f 11 33 34
f 11 34 35
f 11 35 12
f 11 30 31
f 12 35 36
f 12 36 37
f 12 37 13
f 13 37 38
f 13 38 16
f 16 39 17
f 16 38 39
f 17 39 40
f 17 40 18
f 18 41 42
f 18 42 43
f 18 43 19
f 18 40 44
f 18 44 41
f 19 43 45
f 19 45 46
f 19 46 23
f 20 24 47
f 20 47 48
f 20 48 21
f 21 28 27
f 21 27 22
f 21 48 28
f 22 27 25
f 23 49 24
f 23 46 50
f 23 50 49
f 24 49 47
f 25 27 26
f 28 48 29
f 29 48 51
f 29 51 30
f 30 51 52
f 30 52 31
f 31 52 53
f 31 53 32
f 32 53 54
f 32 54 33
f 33 55 34
f 33 54 56
f 33 56 55
f 34 57 35
f 34 55 57
f 35 58 36
f 35 57 58
f 36 58 59
f 36 59 37
f 37 59 38
f 38 59 60
f 38 60 61
f 38 61 39
f 39 61 40
f 40 61 44
f 41 44 42
f 42 44 56
f 42 56 62
f 42 62 43
f 43 62 45
f 44 61 60
f 44 60 56
f 45 62 54
f 45 54 63
f 45 63 46
f 46 63 50
f 47 49 50
f 47 50 48
f 48 50 64
f 48 64 51
f 50 63 64
f 51 64 52
f 52 64 53
f 53 63 54
f 53 64 63
f 54 62 56
f 55 56 60
f 55 60 58
f 55 58 57
f 58 60 59

