# https://github.com/mikedh/trimesh
v -0.02159873 -0.02832119 0.02751891
v -0.00899787 -0.02057805 0.02914400
v -0.01349887 -0.02057805 0.03254931
v -0.02248132 -0.02417977 0.03198053
v -0.02631977 -0.02396498 0.02791780
v -0.02546896 -0.02486266 0.00492278
v -0.02140803 -0.02815597 0.00300960
v -0.02074302 -0.02821655 -0.00394135
v -0.02135179 0.02042862 0.03284477
v -0.00878272 -0.02025313 0.00312040
v -0.02031272 0.02792943 0.01069185
v -0.01954748 -0.01814387 0.03290387
v -0.02632955 -0.02001081 0.03199530
v -0.02911670 -0.01963081 0.02846442
v -0.02857394 -0.02086443 0.00492278
v -0.02576234 -0.02414121 -0.00264128
v -0.02196790 -0.02666902 -0.01019056
v -0.02130534 -0.02055052 -0.04255939
v -0.02311210 0.02387062 0.03015599
v -0.02584791 0.01895269 0.03178108
v -0.02490419 0.01504257 0.03288910
v -0.02170141 0.02643147 0.02227431
v -0.02182366 0.02259846 -0.04255939
v -0.02165740 0.02698220 0.00644445
v -0.02217327 0.02632133 0.01581088
v -0.02141781 0.02683350 -0.00478344
v -0.02153271 0.02705379 0.00018047
v -0.02799451 0.00407772 0.03288910
v -0.02885021 -0.01338564 0.03235725
v -0.03149801 -0.01445954 0.02839794
v -0.03153957 -0.01464679 0.00090437
v -0.03086478 -0.01573171 -0.00745745
v -0.02855927 -0.02030820 -0.00555167
v -0.02589192 -0.02314992 -0.01017579
v -0.02541761 -0.01749402 -0.04255939
v -0.02817543 0.01891964 0.02791780
v -0.03042715 0.01441475 0.02920309
v -0.02784292 0.01141332 0.03269704
v -0.02741996 0.02122716 0.00492278
v -0.02750309 0.01682140 -0.04255939
v -0.02553252 0.02356222 0.00006967
v -0.03226814 -0.00534512 0.03083557
v -0.03342945 0.00132411 0.02943947
v -0.03326809 -0.00836306 0.00249253
v -0.03319719 -0.00783437 -0.00519710
v -0.03267155 -0.00552685 -0.04255939
v -0.02964479 -0.01227869 -0.04242643
v -0.02848104 0.01983935 0.00006967
v -0.03046382 0.01634227 0.00249253
v -0.03232193 0.01141332 0.00309824
v -0.03254441 0.00835131 0.02870818
v -0.03065697 0.01165013 -0.04255939
v -0.03035381 0.01645792 -0.00294414
v -0.02734173 0.02083064 -0.00700686
v -0.03356881 0.00462293 0.00371135
v -0.03375951 -0.00249789 0.00371135
v -0.03358837 -0.00189210 -0.01562722
v -0.03338300 -0.00065848 -0.03687897
v -0.03317763 0.00101571 -0.04255939
v -0.03135865 0.01378142 -0.00835864
v -0.03248818 0.01080753 -0.00294414
v -0.03244417 0.00649538 -0.04255939
v -0.03347101 0.00471655 -0.00504937
v -0.03338300 0.00181426 -0.02924104
f 1 2 3
f 1 3 4
f 1 4 5
f 1 5 6
f 1 6 7
f 1 7 8
f 1 8 2
f 2 9 3
f 2 8 10
f 2 10 11
f 2 11 9
f 3 9 12
f 3 12 4
f 4 12 13
f 4 13 5
f 5 13 14
f 5 14 15
f 5 15 6
f 6 15 16
f 6 16 7
f 7 16 8
f 8 16 17
f 8 17 18
f 8 18 10
f 9 19 20
f 9 20 21
f 9 21 12
f 9 11 22
f 9 22 19
f 10 18 23
f 10 23 11
f 11 24 25
f 11 25 22
f 11 23 26
f 11 26 27
f 11 27 24
f 12 21 28
f 12 28 29
f 12 29 13
f 13 29 30
f 13 30 14
f 14 30 31
f 14 31 15
f 15 31 32
f 15 32 33
f 15 33 16
f 16 33 34
f 16 34 17
f 17 34 35
f 17 35 18
f 18 35 46
f 18 46 59
f 18 59 62
f 18 62 52
f 18 52 40
f 18 40 23
f 19 22 36
f 19 36 20
f 20 36 37
f 20 37 38
f 20 38 21
f 21 38 28
f 22 25 39
f 22 39 36
f 23 40 41
f 23 41 26
f 24 27 41
f 24 41 25
f 25 41 39
f 26 41 27
f 28 38 42
f 28 42 29
f 29 42 30
f 30 42 43
f 30 43 44
f 30 44 31
f 31 44 45
f 31 45 46
f 31 46 32
f 32 46 47
f 32 47 33
f 33 47 34
f 34 47 35
f 35 47 46
f 36 39 48
f 36 48 49
f 36 49 37
f 37 50 51
f 37 51 38
f 37 49 50
f 38 51 43
f 38 43 42
f 39 41 48
f 40 52 53
f 40 53 48
f 40 48 54
f 40 54 41
f 41 54 48
f 43 51 55
f 43 55 56
f 43 56 44
f 44 57 58
f 44 58 45
f 44 56 57
f 45 58 46
f 46 58 59
f 48 53 49
f 49 53 60
f 49 60 50
f 50 55 51
f 50 60 61
f 50 61 55
f 52 62 60
f 52 60 53
f 55 61 63
f 55 63 64
f 55 64 56
f 56 64 57
f 57 64 58
f 58 64 59
f 59 64 62
f 60 62 61
f 61 62 63
f 62 64 63

