# https://github.com/mikedh/trimesh
v 0.06413609 -0.02033464 -0.04041892
v 0.06929540 -0.02019364 -0.03931755
v 0.07112169 -0.02033464 -0.03235361
v 0.07102214 -0.02033464 0.01348665
v 0.05856629 -0.02019364 0.01910295
v 0.05856629 -0.01962964 -0.04100039
v 0.06894145 -0.01739883 -0.04144504
v 0.07098404 -0.01255448 -0.03885238
v 0.07091644 -0.01785708 -0.03639652
v 0.07103074 -0.00330893 -0.04022054
v 0.07112169 0.01453256 -0.03411170
v 0.07112169 0.01085146 0.01640083
v 0.07097175 -0.00992585 0.01906875
v 0.07097298 -0.01641687 0.01644188
v 0.06920077 -0.01939800 0.01831626
v 0.06892425 -0.01522844 0.02041639
v 0.06756990 -0.00831442 0.02361104
v 0.05856629 -0.00732239 0.02445930
v 0.05856629 -0.00722671 -0.04540587
v 0.06694311 -0.00727707 -0.04537851
v 0.06890581 -0.01263505 -0.04276532
v 0.07093979 -0.00767489 -0.04084305
v 0.07098527 0.00343387 -0.04038472
v 0.07102951 0.00839908 -0.03850349
v 0.07102828 0.02041930 -0.03049291
v 0.07112169 0.02365725 -0.02415148
v 0.07102459 0.02759517 -0.00373851
v 0.07102459 0.02576721 0.00190516
v 0.06997503 0.02215158 0.01018938
v 0.06997380 0.01830934 0.01400655
v 0.06992342 0.01503613 0.01676339
v 0.06992219 0.00881704 0.01972547
v 0.07097175 0.00342380 0.01974599
v 0.07097175 -0.00340965 0.02014275
v 0.06884068 -0.01113441 0.02160669
v 0.06707215 0.00411873 0.02428144
v 0.05856629 0.00369069 0.02447983
v 0.05856629 0.00373098 -0.04537166
v 0.06707461 0.00405830 -0.04520749
v 0.06993939 0.01438149 -0.03804516
v 0.06894022 0.01015654 -0.04116457
v 0.06993816 0.01816834 -0.03547986
v 0.06993571 0.02533918 -0.02746927
v 0.07102705 0.02727289 -0.01796739
v 0.07102582 0.02823471 -0.01212534
v 0.06943182 0.03068710 -0.00909486
v 0.06892793 0.03047559 -0.00332122
v 0.06892916 0.02883899 0.00181623
v 0.06992587 0.02541975 0.00644062
v 0.05856629 0.02267529 0.01168751
v 0.05856629 0.01731731 0.01642136
v 0.06892302 0.01240749 0.01934238
v 0.05856629 0.01714609 -0.03745001
v 0.06893776 0.02299254 -0.03221679
v 0.06943551 0.02839081 -0.02251652
v 0.06893285 0.03045042 -0.01768007
v 0.06893162 0.03104463 -0.01417758
v 0.05856629 0.03094895 -0.00648167
v 0.05856629 0.02964470 -0.00046860
v 0.05856629 0.02622546 0.00691947
v 0.05856629 0.02267529 -0.03259987
v 0.05856629 0.02694557 -0.02667574
v 0.05856629 0.02961952 -0.02051901
v 0.05856629 0.03110002 -0.01332248
f 1 2 3
f 1 3 4
f 1 4 5
f 1 5 6
f 1 6 7
f 1 7 2
f 2 7 8
f 2 8 9
f 2 9 3
f 3 9 8
f 3 8 10
f 3 10 11
f 3 11 26
f 3 26 12
f 3 12 4
f 4 12 13
f 4 13 14
f 4 14 15
f 4 15 5
f 5 15 16
f 5 16 17
f 5 17 18
f 5 18 37
f 5 37 51
f 5 51 50
f 5 50 60
f 5 60 59
f 5 59 58
f 5 58 64
f 5 64 63
f 5 63 62
f 5 62 61
f 5 61 53
f 5 53 38
f 5 38 19
f 5 19 6
f 6 19 20
f 6 20 7
f 7 20 21
f 7 21 22
f 7 22 8
f 8 22 10
f 10 22 23
f 10 23 24
f 10 24 11
f 11 25 26
f 11 24 25
f 12 27 28
f 12 28 29
f 12 29 30
f 12 30 31
f 12 31 32
f 12 32 33
f 12 33 34
f 12 34 13
f 12 26 27
f 13 15 14
f 13 34 35
f 13 35 16
f 13 16 15
f 16 35 17
f 17 36 18
f 17 35 34
f 17 34 36
f 18 36 37
f 19 38 20
f 20 38 39
f 20 39 22
f 20 22 21
f 22 39 23
f 23 40 24
f 23 39 41
f 23 41 40
f 24 40 25
f 25 40 42
f 25 42 43
f 25 43 26
f 26 43 44
f 26 44 45
f 26 45 27
f 27 45 46
f 27 46 47
f 27 47 48
f 27 48 28
f 28 49 29
f 28 48 49
f 29 49 50
f 29 50 30
f 30 50 51
f 30 51 52
f 30 52 31
f 31 52 32
f 32 52 36
f 32 36 33
f 33 36 34
f 36 52 51
f 36 51 37
f 38 53 39
f 39 53 41
f 40 41 42
f 41 53 42
f 42 53 54
f 42 54 43
f 43 55 44
f 43 54 55
f 44 55 56
f 44 56 57
f 44 57 45
f 45 57 46
f 46 57 47
f 47 57 58
f 47 58 59
f 47 59 48
f 48 59 60
f 48 60 49
f 49 60 50
f 53 61 54
f 54 61 62
f 54 62 55
f 55 62 63
f 55 63 56
f 56 63 64
f 56 64 57
f 57 64 58

