# https://github.com/mikedh/trimesh
v -0.03740809 -0.03594888 -0.14406726
v -0.04389962 -0.03581563 -0.14951202
v -0.04207709 -0.03593676 -0.15891524
v -0.03963623 -0.03594282 -0.16288127
v -0.03600017 -0.03583985 -0.16759805
v -0.03740809 0.02592707 -0.14406726
v -0.04361299 -0.03487683 -0.14406726
v -0.05441660 -0.01870526 -0.14407484
v -0.05441660 -0.01946235 -0.17157167
v -0.05441660 -0.01955320 -0.17534053
v -0.05441660 -0.01957137 -0.17911699
v -0.05441660 -0.01946841 -0.18287827
v -0.04378966 -0.03579140 -0.15337947
v -0.03636793 -0.03310825 -0.18406885
v -0.03600017 -0.03402282 -0.17987531
v -0.05441479 -0.01778462 -0.21850433
v -0.03600017 -0.03463456 -0.17600786
v -0.03600017 -0.02630044 -0.19551954
v -0.03649412 0.01615751 -0.20623466
v -0.03740809 0.02592707 -0.19655086
v -0.05441660 0.02547282 -0.14407484
v -0.04500468 -0.02340531 -0.14406726
v -0.04482621 -0.03100050 -0.14406726
v -0.03600017 -0.02971646 -0.19166725
v -0.05432646 0.00292347 -0.22153004
v -0.05437874 -0.01269088 -0.22138596
v -0.05083462 -0.01642791 -0.21847401
v -0.04810713 -0.01806929 -0.21538763
v -0.04418084 -0.01807535 -0.21177800
v -0.03709982 -0.01706387 -0.20590099
v -0.03693037 -0.01334502 -0.20729631
v -0.03647969 -0.00648875 -0.20736455
v -0.03633908 0.00435286 -0.20732664
v -0.03653378 0.01083361 -0.20715981
v -0.04015901 0.01471600 -0.21032960
v -0.04309021 0.01700545 -0.21201308
v -0.05033708 0.02547282 -0.20891154
v -0.05357654 0.02547282 -0.21145951
v -0.05432105 -0.00357545 -0.22151488
v -0.05374779 0.01577593 -0.22062006
v -0.05036232 0.01423751 -0.21883041
v -0.05027579 0.01045809 -0.21889108
v -0.05021630 0.00669683 -0.21893658
v -0.05017303 0.00103376 -0.21895933
v -0.05117894 -0.00461115 -0.21958116
v -0.05432646 -0.00837846 -0.22147697
v -0.05035871 -0.01213972 -0.21885316
v -0.04600518 -0.01213972 -0.21556962
v -0.04643603 -0.01591914 -0.21518288
v -0.04139026 -0.01563447 -0.21094384
v -0.03964885 -0.01223057 -0.21006419
v -0.03992106 -0.00837241 -0.21056469
v -0.03965606 -0.00461115 -0.21044335
v -0.03643463 -0.00084384 -0.20749347
v -0.03962361 0.00103376 -0.21048885
v -0.03971194 0.00878036 -0.21035236
v -0.04309021 0.01423751 -0.21302165
v -0.04760959 0.01722350 -0.21580470
v -0.04605205 0.01423751 -0.21554687
v -0.04621430 0.00850781 -0.21588054
v -0.04540849 0.00103376 -0.21534971
v -0.04929331 -0.00461115 -0.21829201
v -0.04457744 -0.00465961 -0.21459897
v -0.04309021 -0.01213972 -0.21314299
f 1 2 3
f 1 3 4
f 1 4 5
f 1 5 6
f 1 6 22
f 1 22 23
f 1 23 7
f 1 7 2
f 2 7 8
f 2 8 9
f 2 9 10
f 2 10 11
f 2 11 12
f 2 12 13
f 2 13 3
f 3 14 15
f 3 15 4
f 3 13 16
f 3 16 14
f 4 15 17
f 4 17 5
f 5 17 15
f 5 15 24
f 5 24 18
f 5 18 19
f 5 19 6
f 6 20 21
f 6 21 22
f 6 19 20
f 7 23 8
f 8 21 12
f 8 12 11
f 8 11 10
f 8 10 9
f 8 23 22
f 8 22 21
f 12 21 16
f 12 16 13
f 14 24 15
f 14 16 24
f 16 25 26
f 16 26 27
f 16 27 28
f 16 28 24
f 16 21 25
f 18 24 28
f 18 28 29
f 18 29 30
f 18 30 31
f 18 31 32
f 18 32 33
f 18 33 19
f 19 33 34
f 19 34 35
f 19 35 36
f 19 36 20
f 20 36 37
f 20 37 38
f 20 38 21
f 21 38 25
f 25 39 26
f 25 38 40
f 25 40 41
f 25 41 42
f 25 42 43
f 25 43 44
f 25 44 45
f 25 45 39
f 26 39 46
f 26 46 47
f 26 47 27
f 27 47 48
f 27 48 49
f 27 49 28
f 28 49 50
f 28 50 29
f 29 50 30
f 30 50 31
f 31 51 32
f 31 50 51
f 32 51 52
f 32 52 53
f 32 53 54
f 32 54 33
f 33 54 55
f 33 55 56
f 33 56 34
f 34 56 35
f 35 56 57
f 35 57 36
f 36 57 58
f 36 58 37
f 37 58 38
f 38 58 40
f 39 45 46
f 40 58 41
f 41 58 59
f 41 59 60
f 41 60 42
f 42 60 43
f 43 60 61
f 43 61 44
f 44 62 45
f 44 61 62
f 45 62 47
f 45 47 46
f 47 62 48
f 48 63 64
f 48 64 49
f 48 62 63
f 49 64 50
f 50 64 51
f 51 64 52
f 52 64 53
f 53 64 63
f 53 63 55
f 53 55 54
f 55 63 61
f 55 61 60
f 55 60 56
f 56 60 59
f 56 59 57
f 57 59 58
f 61 63 62

