# https://github.com/mikedh/trimesh
v 0.05409229 -0.00987018 0.01028482
v 0.04559437 -0.00987018 0.01028482
v 0.05409229 -0.01651239 0.01028482
v 0.05409229 -0.00987018 -0.04352396
v 0.04454381 -0.01820947 -0.03035619
v 0.04559437 -0.01651239 0.01028482
v 0.04559437 -0.00987018 -0.03349012
v 0.05409136 -0.01820947 -0.03035619
v 0.05409229 -0.01651239 -0.04202810
v 0.05409229 -0.01526427 -0.04234940
v 0.04765249 -0.01820947 -0.04192803
v 0.04945732 -0.00987018 -0.04350289
v 0.04454848 -0.01820947 -0.03234189
v 0.04714964 -0.00987018 -0.04113269
v 0.04460176 -0.01820947 -0.04003714
v 0.05409136 -0.01820947 -0.04159093
f 1 2 6
f 1 6 3
f 1 3 9
f 1 9 10
f 1 10 4
f 1 4 12
f 1 12 14
f 1 14 7
f 1 7 2
f 2 5 6
f 2 7 5
f 3 6 5
f 3 5 8
f 3 8 16
f 3 16 9
f 4 10 11
f 4 11 12
f 5 7 13
f 5 13 15
f 5 15 11
f 5 11 16
f 5 16 8
f 7 14 15
f 7 15 13
f 9 16 11
f 9 11 10
f 11 15 12
f 12 15 14

