# https://github.com/mikedh/trimesh
v -0.00462638 -0.09843087 -0.03978307
v -0.03558132 -0.08998184 -0.03460515
v -0.03141098 -0.08885465 -0.05047587
v -0.00175435 -0.09289131 -0.05737227
v 0.03390600 -0.09497226 -0.04251243
v 0.03152182 -0.09701467 -0.02934861
v -0.00800986 -0.09674492 -0.02155365
v -0.03602983 -0.01452815 -0.03415587
v -0.02960908 -0.02220647 -0.06221324
v -0.02622559 -0.06133024 -0.07498394
v -0.03658063 -0.08899917 -0.02244097
v -0.03966511 -0.07052110 -0.00094306
v -0.04146701 -0.03843980 -0.00145973
v -0.04004280 -0.02446083 -0.01175941
v -0.02745309 -0.07855588 -0.06691942
v 0.03613280 -0.08813210 -0.05550777
v 0.00035443 -0.08491434 -0.06791906
v 0.03528300 -0.07829576 -0.03764900
v 0.03208049 -0.08133048 -0.01954313
v 0.02828784 -0.09440385 -0.01230977
v 0.02548663 -0.08861380 0.00241529
v -0.01066944 -0.08961574 -0.00395321
v -0.03222144 -0.01495204 -0.04953239
v -0.03791828 -0.01668617 -0.02317105
v -0.02824782 -0.00000967 -0.00626699
v -0.00178582 -0.00800592 -0.05859656
v 0.00072425 -0.02186928 -0.07121001
v -0.02643805 -0.03610837 -0.07301835
v 0.00223501 -0.04831468 -0.07981367
v 0.00197535 -0.05997185 -0.07903867
v 0.00130652 -0.07325717 -0.07534336
v -0.03715503 -0.08329582 -0.00961411
v -0.01352573 -0.07557897 0.00980590
v -0.01523321 -0.05544385 0.01931934
v -0.04052278 -0.05721651 0.00314536
v -0.01880553 -0.00278427 0.02865308
v -0.02789373 -0.00000967 0.00894104
v 0.03731308 -0.06836308 -0.04913927
v 0.03768291 -0.07818015 -0.06447085
v 0.03785602 -0.04182134 -0.05219435
v 0.02779212 -0.05286194 0.00474030
v 0.02835079 -0.06536690 0.00157289
v 0.02988516 -0.07589689 -0.00712062
v 0.02448732 -0.07995281 0.01144576
v -0.00892261 -0.00000967 -0.03892945
v 0.03693539 -0.01898870 -0.06055091
v 0.03564495 -0.00680166 -0.04590447
v 0.00136160 -0.03552069 -0.07762344
v 0.03847763 -0.03277499 -0.06830094
v 0.03891827 -0.04870004 -0.07158066
v 0.03886319 -0.06616652 -0.06927812
v 0.02172546 -0.07050184 0.01849941
v 0.02271689 -0.05435521 0.02383458
v 0.02169398 -0.02936455 0.03046142
v -0.01624825 -0.02879614 0.02571031
v 0.02045862 -0.00278427 0.03493173
v 0.02735935 -0.00000967 -0.02814679
v 0.03813142 -0.05545349 -0.05376682
v 0.03654196 -0.03033758 -0.04475882
v 0.03122281 -0.02434522 -0.01470217
v 0.02853963 -0.03730298 0.00047217
v 0.02283492 -0.02837224 0.02875417
v 0.03446466 -0.02346852 -0.03303268
f 1 2 3
f 1 3 4
f 1 4 5
f 1 5 6
f 1 6 7
f 1 7 2
f 2 8 9
f 2 9 10
f 2 10 3
f 2 7 11
f 2 11 12
f 2 12 13
f 2 13 14
f 2 14 8
f 3 10 15
f 3 15 4
f 4 16 5
f 4 15 17
f 4 17 16
f 5 18 19
f 5 19 6
f 5 16 18
f 6 19 20
f 6 20 7
f 7 20 21
f 7 21 22
f 7 22 11
f 8 23 9
f 8 14 24
f 8 24 25
f 8 25 23
f 9 26 27
f 9 27 28
f 9 28 10
f 9 23 26
f 10 28 29
f 10 29 30
f 10 30 31
f 10 31 15
f 11 22 32
f 11 32 12
f 12 32 33
f 12 33 34
f 12 34 35
f 12 35 13
f 13 35 36
f 13 36 37
f 13 37 14
f 14 37 24
f 15 31 17
f 16 38 18
f 16 17 39
f 16 39 38
f 17 31 39
f 18 38 40
f 18 40 41
f 18 41 42
f 18 42 19
f 19 42 43
f 19 43 20
f 20 43 21
f 21 44 22
f 21 43 44
f 22 44 33
f 22 33 32
f 23 25 45
f 23 45 26
f 24 37 25
f 25 37 57
f 25 57 45
f 26 46 27
f 26 45 47
f 26 47 46
f 27 48 28
f 27 46 49
f 27 49 48
f 28 48 29
f 29 48 50
f 29 50 30
f 30 50 51
f 30 51 31
f 31 51 39
f 33 44 52
f 33 52 34
f 34 52 53
f 34 53 54
f 34 54 55
f 34 55 35
f 35 55 36
f 36 55 56
f 36 56 37
f 37 56 57
f 38 39 51
f 38 51 58
f 38 58 40
f 40 47 59
f 40 59 41
f 40 58 50
f 40 50 49
f 40 49 47
f 41 60 61
f 41 61 62
f 41 62 42
f 41 59 60
f 42 62 53
f 42 53 44
f 42 44 43
f 44 53 52
f 45 57 47
f 46 47 49
f 47 57 56
f 47 56 60
f 47 60 63
f 47 63 59
f 48 49 50
f 50 58 51
f 53 62 54
f 54 62 56
f 54 56 55
f 56 62 60
f 59 63 60
f 60 62 61

