# https://github.com/mikedh/trimesh
v -0.04903880 0.01230900 -0.09938461
v -0.04891067 -0.00425813 -0.09938461
v -0.05451636 -0.01805969 -0.06033656
v -0.05621408 0.00438864 -0.04836990
v -0.05420671 0.01976552 -0.05014751
v -0.04895338 0.03144916 -0.07987051
v -0.04004835 0.03445977 -0.09938461
v -0.03106858 -0.03680601 -0.09938461
v -0.04524829 -0.03327904 -0.09526331
v -0.05245560 -0.02521865 -0.04715834
v -0.05290405 -0.01979255 -0.02619434
v -0.04853696 -0.03102984 -0.07634507
v -0.05346996 -0.00385554 -0.00677955
v -0.05398248 0.01469824 -0.02098065
v -0.04969013 0.02919995 -0.01320480
v -0.04545116 0.03321701 -0.00797125
v -0.02877292 0.04236263 -0.00024506
v -0.01345072 0.03796048 -0.09938461
v -0.01126183 -0.03728736 -0.09938461
v 0.00298194 -0.04439382 -0.00290653
v -0.02248388 -0.04263470 -0.00112890
v -0.04933777 -0.02996212 -0.02451602
v -0.04780021 -0.02794046 -0.00603473
v -0.05057636 0.01917915 -0.00081112
v -0.01856524 0.01140757 0.00206883
v -0.00066976 0.02129708 0.00205889
v 0.02926993 0.04193379 -0.00230074
v -0.01333327 0.04336034 -0.00098987
v 0.00403901 0.04501442 -0.00311507
v 0.02167823 0.04119864 -0.03815106
v 0.01541054 0.03901070 -0.06558997
v 0.00423121 0.03666522 -0.09854049
v 0.02874673 -0.00043360 -0.09826242
v 0.01059499 -0.03503815 -0.09536262
v 0.02460386 -0.04055178 -0.03297710
v 0.01991644 -0.04335235 -0.00096008
v 0.00026986 -0.02345954 0.00206883
v -0.01479608 -0.01544291 0.00205889
v 0.01864582 0.00904459 0.00206883
v 0.04883109 0.02520913 -0.00439615
v 0.04297982 0.03334829 -0.02230145
v 0.02924857 0.04124240 -0.02503243
v 0.02854385 0.03700654 -0.05465612
v 0.02613074 0.02879736 -0.08716968
v 0.02915247 0.01491703 -0.09506469
v 0.03999013 0.00220944 -0.06523246
v 0.03444851 -0.00348797 -0.08192620
v 0.02854385 -0.01612555 -0.09513421
v 0.02279937 -0.03218507 -0.08079408
v 0.02932331 -0.03396168 -0.06299802
v 0.03455528 -0.03542323 -0.04077280
v 0.02971838 -0.04158449 -0.01363183
v 0.04688779 -0.02861434 -0.00375064
v 0.01722571 -0.01308868 0.00204897
v 0.05286718 0.01009480 -0.00478345
v 0.04841467 0.01425190 -0.02803154
v 0.04125007 0.02714328 -0.04306683
v 0.03239843 0.03459104 -0.05613581
v 0.03729940 0.02331875 -0.06529205
v 0.03905051 -0.02315323 -0.05813191
v 0.04412231 0.00495750 -0.04981980
v 0.04699456 -0.00942168 -0.03636352
v 0.04792350 -0.02520990 -0.02048410
v 0.05154317 -0.00605224 -0.00708741
f 1 2 3
f 1 3 4
f 1 4 5
f 1 5 6
f 1 6 7
f 1 7 18
f 1 18 19
f 1 19 8
f 1 8 2
f 2 8 9
f 2 9 3
f 3 10 11
f 3 11 4
f 3 9 12
f 3 12 10
f 4 11 13
f 4 13 14
f 4 14 5
f 5 14 15
f 5 15 6
f 6 15 16
f 6 16 17
f 6 17 7
f 7 17 18
f 8 19 20
f 8 20 21
f 8 21 9
f 9 21 22
f 9 22 12
f 10 12 22
f 10 22 11
f 11 22 23
f 11 23 13
f 13 23 24
f 13 24 14
f 14 24 15
f 15 24 16
f 16 24 17
f 17 25 26
f 17 26 27
f 17 27 28
f 17 28 29
f 17 29 18
f 17 24 25
f 18 29 30
f 18 30 31
f 18 31 32
f 18 32 33
f 18 33 19
f 19 34 35
f 19 35 20
f 19 33 34
f 20 35 36
f 20 36 21
f 21 36 37
f 21 37 38
f 21 38 24
f 21 24 23
f 21 23 22
f 24 38 25
f 25 38 37
f 25 37 39
f 25 39 26
f 26 39 27
f 27 39 40
f 27 40 41
f 27 41 42
f 27 42 29
f 27 29 28
f 29 42 30
f 30 42 31
f 31 42 43
f 31 43 32
f 32 43 44
f 32 44 45
f 32 45 33
f 33 45 46
f 33 46 47
f 33 47 48
f 33 48 34
f 34 48 49
f 34 49 50
f 34 50 35
f 35 50 51
f 35 51 52
f 35 52 36
f 36 52 53
f 36 53 54
f 36 54 37
f 37 54 39
f 39 54 53
f 39 53 55
f 39 55 40
f 40 55 56
f 40 56 41
f 41 56 57
f 41 57 58
f 41 58 42
f 42 58 43
f 43 58 44
f 44 58 59
f 44 59 45
f 45 59 46
f 46 60 47
f 46 59 61
f 46 61 62
f 46 62 60
f 47 60 48
f 48 60 50
f 48 50 49
f 50 60 51
f 51 60 63
f 51 63 53
f 51 53 52
f 53 63 64
f 53 64 55
f 55 64 62
f 55 62 56
f 56 62 61
f 56 61 59
f 56 59 57
f 57 59 58
f 60 62 63
f 62 64 63

