# https://github.com/mikedh/trimesh
v -0.05441660 -0.01471968 -0.12425201
v -0.05400189 -0.01521682 -0.12425201
v -0.04586857 -0.02252002 -0.09938461
v -0.05441660 -0.01315133 -0.12260895
v -0.05441660 0.01925142 -0.12425201
v -0.04418082 -0.02252002 -0.12425201
v -0.05441660 -0.01256542 -0.12202719
v -0.02157467 -0.02252002 -0.09938461
v -0.04868148 -0.00959443 -0.09938461
v -0.05441660 0.01845244 -0.12249698
v -0.04974877 0.03433127 -0.12425201
v -0.02157467 -0.02252002 -0.12425201
v -0.05441660 -0.01236420 -0.12193712
v -0.02157467 0.03794144 -0.09938461
v -0.04882614 -0.00805567 -0.09938461
v -0.05441660 -0.00838117 -0.12018209
v -0.05441660 0.01590757 -0.12021617
v -0.04763668 0.02931846 -0.09938461
v -0.04645044 0.03313577 -0.09938461
v -0.04885829 0.03510657 -0.12009203
v -0.04931800 0.03553269 -0.12425201
v -0.02157467 0.03721349 -0.12425201
v -0.02157467 0.03750940 -0.11499976
v -0.02423649 0.03736736 -0.12254079
v -0.02800739 0.03738512 -0.12425201
v -0.03177830 0.03735552 -0.12425201
v -0.03554921 0.03729634 -0.12425201
v -0.03931690 0.03722532 -0.12425201
v -0.02800739 0.03768695 -0.09938461
v -0.04885186 -0.00777751 -0.09938461
v -0.04901902 -0.00461121 -0.09938461
v -0.05441660 -0.00596650 -0.11985105
v -0.05441660 0.01423861 -0.11956381
v -0.04890651 0.01662369 -0.09938461
v -0.04514525 0.03508290 -0.09938461
v -0.04685550 0.03651513 -0.12425201
v -0.02423649 0.03731410 -0.12425201
v -0.02157467 0.03727267 -0.12254079
v -0.02157467 0.03739695 -0.11877028
v -0.04308780 0.03705961 -0.12425201
v -0.03177830 0.03743246 -0.09938461
v -0.05441660 -0.00461121 -0.11969283
v -0.04908010 -0.00084125 -0.09938461
v -0.05441660 0.01310229 -0.11953217
v -0.04907689 0.01423861 -0.09938461
v -0.04905439 0.01457003 -0.09938461
v -0.04350572 0.03553860 -0.09938461
v -0.04312638 0.03563922 -0.09938461
v -0.03931690 0.03645002 -0.09938461
v -0.03554921 0.03702410 -0.09938461
v -0.05441660 -0.00196573 -0.11960520
v -0.04908332 -0.00030860 -0.09938461
v -0.05441660 -0.00084125 -0.11957112
v -0.05441660 0.00940335 -0.11948105
v -0.04910261 0.00723725 -0.09938461
v -0.04910261 0.00292872 -0.09938461
v -0.05441660 0.00292872 -0.11949322
v -0.05441660 0.00669868 -0.11946888
v -0.05441660 0.00568665 -0.11947132
f 1 2 3
f 1 3 4
f 1 4 7
f 1 7 13
f 1 13 16
f 1 16 32
f 1 32 42
f 1 42 51
f 1 51 53
f 1 53 57
f 1 57 59
f 1 59 58
f 1 58 54
f 1 54 44
f 1 44 33
f 1 33 17
f 1 17 10
f 1 10 5
f 1 5 11
f 1 11 21
f 1 21 36
f 1 36 40
f 1 40 28
f 1 28 27
f 1 27 26
f 1 26 25
f 1 25 37
f 1 37 22
f 1 22 12
f 1 12 6
f 1 6 2
f 2 6 3
f 3 7 4
f 3 6 12
f 3 12 8
f 3 8 14
f 3 14 29
f 3 29 41
f 3 41 50
f 3 50 49
f 3 49 48
f 3 48 47
f 3 47 35
f 3 35 19
f 3 19 18
f 3 18 34
f 3 34 46
f 3 46 45
f 3 45 55
f 3 55 56
f 3 56 52
f 3 52 43
f 3 43 31
f 3 31 30
f 3 30 15
f 3 15 9
f 3 9 7
f 5 10 11
f 7 9 13
f 8 12 22
f 8 22 38
f 8 38 39
f 8 39 23
f 8 23 14
f 9 15 16
f 9 16 13
f 10 17 18
f 10 18 11
f 11 18 19
f 11 19 20
f 11 20 21
f 14 23 24
f 14 24 25
f 14 25 26
f 14 26 27
f 14 27 28
f 14 28 29
f 15 30 16
f 16 30 31
f 16 31 32
f 17 33 18
f 18 33 34
f 19 35 20
f 20 35 21
f 21 35 36
f 22 37 38
f 23 39 24
f 24 39 37
f 24 37 25
f 28 40 29
f 29 40 41
f 31 42 32
f 31 43 42
f 33 44 45
f 33 45 46
f 33 46 34
f 35 47 36
f 36 47 48
f 36 48 49
f 36 49 50
f 36 50 40
f 37 39 38
f 40 50 41
f 42 43 51
f 43 52 53
f 43 53 51
f 44 54 55
f 44 55 45
f 52 56 53
f 53 56 57
f 54 58 55
f 55 58 56
f 56 58 59
f 56 59 57

