# https://github.com/mikedh/trimesh
v -0.05441660 -0.01870527 -0.13387083
v -0.05441660 -0.01870527 -0.13385338
v -0.05441660 -0.01869797 -0.14405968
v -0.04399831 -0.03459157 -0.14405968
v -0.05441660 -0.01826743 -0.12995040
v -0.04185743 -0.03594887 -0.12425201
v -0.04253891 -0.03496373 -0.12425201
v -0.05441660 0.03860069 -0.14405968
v -0.04292787 -0.03594887 -0.14405968
v -0.05441660 -0.01651607 -0.12645265
v -0.02157697 -0.03594887 -0.12425201
v -0.05441660 -0.01472093 -0.12425201
v -0.05441660 -0.01580093 -0.12538626
v -0.05441660 -0.01618769 -0.12589425
v -0.04308538 0.03705366 -0.12425201
v -0.03931474 0.03722149 -0.12425201
v -0.03554731 0.03729447 -0.12425201
v -0.03177988 0.03735284 -0.12425201
v -0.02800924 0.03738204 -0.12425201
v -0.02423860 0.03730906 -0.12425201
v -0.02302994 0.03726528 -0.12425201
v -0.02157697 0.03720690 -0.12425201
v -0.03554731 0.03762285 -0.14405968
v -0.05441660 0.03792934 -0.14137432
v -0.04685924 0.03650635 -0.12425201
v -0.02258954 -0.03594887 -0.14405968
v -0.02157697 -0.03594887 -0.14226621
v -0.05441660 0.01924816 -0.12425201
v -0.02157697 0.03714123 -0.12631305
v -0.02800924 0.03709014 -0.14405968
v -0.03177988 0.03737474 -0.14405968
v -0.05441660 0.03633122 -0.13751787
v -0.04931835 0.03552851 -0.12425201
v -0.02157697 -0.03580293 -0.14405968
v -0.02183092 -0.03594887 -0.14275481
v -0.02167662 -0.03594887 -0.14246010
v -0.04974910 0.03432446 -0.12425201
v -0.05441660 0.03422959 -0.13551113
v -0.02157697 0.03701717 -0.13008612
v -0.02157697 0.03689311 -0.13385338
v -0.02423860 0.03682744 -0.14139177
v -0.02423860 0.03669609 -0.14405968
v -0.02157697 0.03629474 -0.14405968
v -0.02157697 0.03672527 -0.13762064
v -0.02157697 0.03649906 -0.14139177
f 1 2 5
f 1 5 10
f 1 10 14
f 1 14 13
f 1 13 12
f 1 12 28
f 1 28 38
f 1 38 32
f 1 32 24
f 1 24 8
f 1 8 3
f 1 3 4
f 1 4 2
f 2 4 6
f 2 6 7
f 2 7 5
f 3 8 23
f 3 23 31
f 3 31 30
f 3 30 42
f 3 42 43
f 3 43 34
f 3 34 26
f 3 26 9
f 3 9 4
f 4 9 6
f 5 7 10
f 6 9 26
f 6 26 35
f 6 35 36
f 6 36 27
f 6 27 11
f 6 11 22
f 6 22 21
f 6 21 20
f 6 20 19
f 6 19 18
f 6 18 17
f 6 17 16
f 6 16 15
f 6 15 25
f 6 25 33
f 6 33 37
f 6 37 28
f 6 28 12
f 6 12 7
f 7 12 13
f 7 13 14
f 7 14 10
f 8 15 16
f 8 16 17
f 8 17 18
f 8 18 19
f 8 19 20
f 8 20 21
f 8 21 22
f 8 22 23
f 8 24 25
f 8 25 15
f 11 27 34
f 11 34 43
f 11 43 45
f 11 45 44
f 11 44 40
f 11 40 39
f 11 39 29
f 11 29 22
f 22 29 30
f 22 30 31
f 22 31 23
f 24 32 33
f 24 33 25
f 26 34 35
f 27 36 34
f 28 37 38
f 29 39 30
f 30 39 40
f 30 40 41
f 30 41 42
f 32 38 33
f 33 38 37
f 34 36 35
f 40 44 41
f 41 44 42
f 42 44 45
f 42 45 43

