# https://github.com/mikedh/trimesh
v 0.03118235 -0.03673572 -0.07031949
v 0.03117740 -0.03546719 -0.06399749
v 0.03117244 -0.04889707 -0.07800519
v 0.03117244 -0.04372769 -0.12418224
v 0.03117740 -0.03560257 -0.12197645
v 0.02071164 -0.02328579 -0.09148502
v 0.02071164 -0.02328579 -0.06124496
v 0.02122229 -0.03443432 -0.06142092
v 0.02667578 -0.04877674 -0.07464309
v 0.02264020 -0.04840821 -0.08291952
v 0.02690384 -0.04611182 -0.12362922
v 0.02068190 -0.04245163 -0.12514373
v -0.00575764 -0.03354935 -0.12544539
v -0.00109242 -0.02328579 -0.09148502
v -0.00109242 -0.02328579 -0.07071540
v 0.00060312 -0.02435877 -0.06285374
v 0.00617560 -0.02843261 -0.06132037
v 0.01517387 -0.03339392 -0.06140207
v 0.00644827 -0.03981680 -0.07272010
v 0.01269005 -0.04745305 -0.08362964
v 0.01804439 -0.04819261 -0.08168779
v 0.01656699 -0.04557031 -0.12343441
v 0.00417764 -0.04310094 -0.12466613
v 0.00984431 -0.04105775 -0.12543282
v 0.00076672 -0.03661037 -0.12543910
v 0.00418259 -0.04105775 -0.12533227
v -0.01466171 -0.03426384 -0.12513116
v -0.01946575 -0.03409337 -0.12368578
v -0.01893527 -0.03382011 -0.10490829
v -0.01652582 -0.03547471 -0.09783216
v -0.00332836 -0.03378752 -0.07338623
v 0.00099973 -0.03700898 -0.07271381
v -0.00431494 -0.04342434 -0.09094457
v 0.00442056 -0.04598647 -0.08841828
v 0.00984927 -0.04703188 -0.08718028
v 0.01269005 -0.04716725 -0.09144103
v 0.00276964 -0.04444718 -0.11557903
v 0.00134677 -0.04368757 -0.12197017
v 0.00700850 -0.04593131 -0.10136394
v -0.00296644 -0.04198533 -0.12396857
v -0.01065587 -0.03805188 -0.12456558
v -0.00723009 -0.04198784 -0.11995291
v -0.01297113 -0.03971150 -0.11823729
v -0.01893031 -0.03480786 -0.11491918
v -0.01797843 -0.03549727 -0.11010540
v -0.01606475 -0.03713433 -0.10421073
v -0.01232663 -0.03991206 -0.10120055
v -0.00993204 -0.04091987 -0.09624852
v -0.00292182 -0.04406612 -0.09568922
v 0.00052875 -0.04507894 -0.09262876
v -0.01212832 -0.04018532 -0.10722720
v -0.00644181 -0.04278255 -0.10491457
v 0.00245730 -0.04538229 -0.09710947
v 0.00771745 -0.04644274 -0.09356513
v 0.00385538 -0.04510401 -0.10774879
v -0.00007609 -0.04414384 -0.11273853
v -0.00149896 -0.04352462 -0.11841954
v -0.00292182 -0.04354718 -0.11273224
v -0.00748293 -0.04221848 -0.11281394
v -0.00292182 -0.04396334 -0.10136394
v -0.00007609 -0.04483075 -0.09710947
v -0.00007609 -0.04445220 -0.10704495
v 0.00201607 -0.04510652 -0.10172215
v -0.00292182 -0.04378534 -0.10701353
f 1 2 3
f 1 3 4
f 1 4 5
f 1 5 2
f 2 5 6
f 2 6 7
f 2 7 8
f 2 8 9
f 2 9 3
f 3 9 10
f 3 10 11
f 3 11 4
f 4 11 12
f 4 12 5
f 5 12 13
f 5 13 6
f 6 14 15
f 6 15 7
f 6 13 14
f 7 15 16
f 7 16 17
f 7 17 18
f 7 18 8
f 8 18 9
f 9 19 20
f 9 20 21
f 9 21 10
f 9 18 19
f 10 21 22
f 10 22 11
f 11 22 23
f 11 23 12
f 12 23 24
f 12 24 25
f 12 25 13
f 13 25 24
f 13 24 26
f 13 26 27
f 13 27 28
f 13 28 14
f 14 28 15
f 15 28 29
f 15 29 16
f 16 29 30
f 16 30 31
f 16 31 17
f 17 31 32
f 17 32 18
f 18 32 19
f 19 32 33
f 19 33 20
f 20 33 34
f 20 34 35
f 20 35 21
f 21 35 36
f 21 36 22
f 22 37 38
f 22 38 23
f 22 36 39
f 22 39 37
f 23 38 40
f 23 40 41
f 23 41 26
f 23 26 24
f 26 41 27
f 27 41 28
f 28 41 42
f 28 42 43
f 28 43 44
f 28 44 29
f 29 44 45
f 29 45 46
f 29 46 30
f 30 47 48
f 30 48 33
f 30 33 31
f 30 46 47
f 31 33 32
f 33 49 50
f 33 50 34
f 33 48 51
f 33 51 52
f 33 52 49
f 34 50 53
f 34 53 35
f 35 53 54
f 35 54 36
f 36 54 39
f 37 55 56
f 37 56 57
f 37 57 38
f 37 39 55
f 38 57 42
f 38 42 40
f 39 54 55
f 40 42 41
f 42 57 58
f 42 58 59
f 42 59 43
f 43 59 52
f 43 52 51
f 43 51 46
f 43 46 44
f 44 46 45
f 46 51 47
f 47 51 48
f 49 60 61
f 49 61 50
f 49 52 60
f 50 61 53
f 52 59 60
f 53 61 62
f 53 62 63
f 53 63 54
f 54 63 55
f 55 63 62
f 55 62 56
f 56 58 57
f 56 62 58
f 58 62 64
f 58 64 59
f 59 64 60
f 60 64 61
f 61 64 62

