# https://github.com/mikedh/trimesh
v -0.01723178 0.00954003 0.00143144
v -0.00878272 0.01722405 0.00139179
v -0.02022131 0.00976675 0.02819594
v -0.02022131 0.00976451 0.00605741
v -0.02022131 0.02046558 -0.01211161
v -0.00878272 0.02046558 -0.01211161
v -0.00878272 0.02101780 0.03120061
v -0.02022131 0.01116079 0.03166761
v -0.02016756 0.02692842 -0.01145076
v -0.01637746 0.02876020 -0.01145076
v -0.01280123 0.02992077 -0.01145076
v -0.02022131 0.02797451 0.01147199
v -0.00962359 0.03060544 -0.01118201
v -0.00936607 0.03102522 -0.00837119
v -0.00918132 0.03150112 -0.00455147
v -0.00878272 0.03230701 0.00978461
v -0.00878272 0.02431769 0.03287036
v -0.02020115 0.01614205 0.03287036
v -0.02019891 0.02762431 0.02190903
v -0.02014069 0.02732126 -0.00837119
v -0.01796180 0.02850204 -0.00837119
v -0.01521860 0.02974343 -0.00715963
v -0.01179016 0.03072217 -0.00704508
v -0.01988093 0.02826858 0.00829549
v -0.01978239 0.02837857 0.00390303
v -0.01998505 0.02813164 0.00033884
v -0.01896615 0.02843918 0.02308976
v -0.00957993 0.03177050 0.00010533
v -0.00957993 0.03201743 0.00494717
v -0.01037713 0.03199723 0.00978461
v -0.00878272 0.03240129 0.01340608
v -0.00918132 0.02816756 0.03275581
v -0.01521860 0.02473074 0.03289680
v -0.00878272 0.03245068 0.02551288
v -0.02009926 0.02116371 0.03287036
v -0.02005671 0.02554336 0.03162356
v -0.01973425 0.02773207 0.02653059
v -0.01898407 0.02835164 -0.00471007
v -0.01763822 0.02933936 0.00010533
v -0.01407206 0.03046402 -0.00352935
v -0.01861345 0.02888141 0.01438414
v -0.01763822 0.02948527 0.00978461
v -0.01763822 0.02950323 0.00494717
v -0.01763822 0.02922712 0.02188260
v -0.01763822 0.02909692 0.02551288
v -0.01411013 0.03067278 0.00010093
v -0.01380110 0.03094890 0.00494717
v -0.01360627 0.03109032 0.00903124
v -0.01037713 0.03207131 0.01340608
v -0.00957993 0.03229354 0.01703635
v -0.00878272 0.03247089 0.02067104
v -0.00993598 0.03116440 0.03111250
v -0.01280123 0.02816756 0.03251791
v -0.01763822 0.02473074 0.03278225
v -0.01037713 0.03211396 0.02067104
v -0.00957993 0.03224416 0.02793160
v -0.01703136 0.02790267 0.03120942
v -0.01373280 0.03047075 0.02966743
v -0.01531713 0.03028218 0.02551288
v -0.01385596 0.03103420 0.01703635
v -0.01387164 0.03103869 0.01340608
v -0.01280123 0.03135745 0.02188260
v -0.01037713 0.03207355 0.02551288
f 1 2 3
f 1 3 4
f 1 4 5
f 1 5 6
f 1 6 2
f 2 6 16
f 2 16 31
f 2 31 51
f 2 51 34
f 2 34 17
f 2 17 7
f 2 7 3
f 3 7 8
f 3 8 12
f 3 12 5
f 3 5 4
f 5 9 10
f 5 10 11
f 5 11 6
f 5 12 9
f 6 11 13
f 6 13 14
f 6 14 15
f 6 15 16
f 7 17 8
f 8 17 18
f 8 18 19
f 8 19 12
f 9 12 20
f 9 20 21
f 9 21 10
f 10 21 22
f 10 22 11
f 11 22 23
f 11 23 13
f 12 24 25
f 12 25 26
f 12 26 20
f 12 19 27
f 12 27 24
f 13 23 14
f 14 23 15
f 15 23 28
f 15 28 16
f 16 28 29
f 16 29 30
f 16 30 31
f 17 32 33
f 17 33 18
f 17 34 32
f 18 33 35
f 18 35 36
f 18 36 19
f 19 36 37
f 19 37 27
f 20 38 21
f 20 26 38
f 21 38 39
f 21 39 22
f 22 39 40
f 22 40 23
f 23 40 28
f 24 27 41
f 24 41 42
f 24 42 25
f 25 43 39
f 25 39 26
f 25 42 43
f 26 39 38
f 27 44 41
f 27 37 45
f 27 45 44
f 28 40 46
f 28 46 29
f 29 46 47
f 29 47 30
f 30 47 48
f 30 48 49
f 30 49 31
f 31 49 50
f 31 50 51
f 32 52 53
f 32 53 54
f 32 54 33
f 32 34 52
f 33 54 35
f 34 51 55
f 34 55 56
f 34 56 52
f 35 54 36
f 36 54 53
f 36 53 57
f 36 57 37
f 37 57 58
f 37 58 45
f 39 46 40
f 39 43 46
f 41 44 42
f 42 44 59
f 42 59 60
f 42 60 43
f 43 60 61
f 43 61 48
f 43 48 47
f 43 47 46
f 44 45 59
f 45 58 59
f 48 61 49
f 49 55 50
f 49 61 55
f 50 55 51
f 52 56 58
f 52 58 57
f 52 57 53
f 55 62 63
f 55 63 56
f 55 61 62
f 56 63 59
f 56 59 58
f 59 63 62
f 59 62 60
f 60 62 61

