# https://github.com/mikedh/trimesh
v 0.09999716 -0.02033968 -0.00237581
v 0.09891446 -0.02033968 0.01122455
v 0.09891446 -0.02272518 0.00916052
v 0.09891446 -0.02656287 0.00384289
v 0.09891446 -0.02907071 -0.00222046
v 0.09999716 -0.02172543 -0.00736498
v 0.09999716 -0.02033968 -0.01725010
v 0.09812445 -0.02033968 0.01246740
v 0.09791417 -0.02561057 0.00719859
v 0.09791417 -0.02102412 0.01220551
v 0.09791417 -0.02346341 0.00983522
v 0.09791417 -0.02743608 0.00432671
v 0.09791417 -0.02891779 0.00126841
v 0.09791417 -0.03003356 -0.00194526
v 0.09791417 -0.03076862 -0.00526989
v 0.09891446 -0.03011371 -0.00869661
v 0.09999716 -0.02164000 -0.01305547
v 0.09891446 -0.02963492 -0.01523047
v 0.09891446 -0.02766071 -0.02148912
v 0.09891446 -0.02429865 -0.02711747
v 0.09891446 -0.02033968 -0.03119225
v 0.09791417 -0.02033968 0.01273373
v 0.07096876 -0.02561373 0.00719415
v 0.07096876 -0.02560741 0.00720303
v 0.07096876 -0.02101990 0.01220995
v 0.07096876 -0.02891568 0.00127285
v 0.07096876 -0.02891885 0.00126397
v 0.07096876 -0.03076756 -0.00526101
v 0.09791417 -0.03111242 -0.00865222
v 0.09791417 -0.03106285 -0.01204787
v 0.09791417 -0.03061781 -0.01542133
v 0.09791417 -0.02978362 -0.01871933
v 0.09791417 -0.02857294 -0.02189748
v 0.09791417 -0.02700159 -0.02491584
v 0.09791417 -0.02509171 -0.02772558
v 0.09791417 -0.02286650 -0.03030006
v 0.09872122 -0.02033968 -0.03152515
v 0.07776621 -0.02033968 0.01272929
v 0.07096876 -0.02033968 0.01267158
v 0.07096876 -0.03076862 -0.00527433
v 0.07096876 -0.03106285 -0.01204344
v 0.07096876 -0.03106179 -0.01205231
v 0.07096876 -0.02978467 -0.01871489
v 0.07096876 -0.02978257 -0.01872377
v 0.07096876 -0.02700370 -0.02491140
v 0.07096876 -0.02286334 -0.03030450
v 0.09791417 -0.02035761 -0.03259934
v 0.09794258 -0.02033968 -0.03257714
v 0.07096876 -0.02033968 -0.03235077
v 0.07096876 -0.02034074 -0.03235520
v 0.09774366 -0.02033968 -0.03261265
v 0.09791417 -0.02033968 -0.03261265
f 1 2 3
f 1 3 4
f 1 4 5
f 1 5 6
f 1 6 17
f 1 17 7
f 1 7 21
f 1 21 37
f 1 37 48
f 1 48 52
f 1 52 51
f 1 51 49
f 1 49 39
f 1 39 38
f 1 38 22
f 1 22 8
f 1 8 2
f 2 8 3
f 3 9 4
f 3 8 10
f 3 10 11
f 3 11 9
f 4 9 12
f 4 12 13
f 4 13 5
f 5 14 15
f 5 15 16
f 5 16 6
f 5 13 14
f 6 16 17
f 7 17 18
f 7 18 19
f 7 19 20
f 7 20 21
f 8 22 10
f 9 23 12
f 9 11 24
f 9 24 23
f 10 22 25
f 10 25 11
f 11 25 24
f 12 26 13
f 12 23 26
f 13 26 27
f 13 27 14
f 14 27 28
f 14 28 15
f 15 28 29
f 15 29 16
f 16 29 30
f 16 30 18
f 16 18 17
f 18 31 32
f 18 32 19
f 18 30 31
f 19 32 33
f 19 33 34
f 19 34 20
f 20 34 35
f 20 35 36
f 20 36 37
f 20 37 21
f 22 38 25
f 23 24 25
f 23 25 39
f 23 39 49
f 23 49 50
f 23 50 46
f 23 46 45
f 23 45 44
f 23 44 43
f 23 43 42
f 23 42 41
f 23 41 40
f 23 40 28
f 23 28 27
f 23 27 26
f 25 38 39
f 28 40 29
f 29 41 30
f 29 40 41
f 30 42 31
f 30 41 42
f 31 42 43
f 31 43 44
f 31 44 32
f 32 44 33
f 33 44 45
f 33 45 34
f 34 45 35
f 35 45 46
f 35 46 36
f 36 46 47
f 36 47 37
f 37 47 48
f 46 50 51
f 46 51 47
f 47 51 52
f 47 52 48
f 49 51 50

