# https://github.com/mikedh/trimesh
v 0.03335633 -0.02167527 -0.09556821
v 0.03335630 -0.02167521 -0.09855860
v 0.03343128 -0.02167527 -0.09556821
v 0.03335633 -0.02167527 -0.07938289
v 0.03335630 -0.02162405 -0.09751300
v 0.03338790 -0.02167521 -0.09743040
v 0.03335630 -0.02167521 -0.09556821
v 0.03343124 -0.02167521 -0.09556821
v 0.03348829 -0.02167527 -0.09311845
v 0.03369933 -0.02167527 -0.07938289
v 0.03335633 -0.02106252 -0.07938289
v 0.03335630 -0.02154589 -0.09556821
v 0.03335633 -0.02154584 -0.09556821
v 0.03341476 -0.02164672 -0.09556821
v 0.03335633 -0.02144741 -0.09311845
v 0.03335633 -0.02125721 -0.08720336
v 0.03359604 -0.02167527 -0.08720336
v 0.03367462 -0.02167527 -0.08128451
f 1 2 3
f 1 3 9
f 1 9 17
f 1 17 18
f 1 18 10
f 1 10 4
f 1 4 7
f 1 7 2
f 2 5 6
f 2 6 3
f 2 7 12
f 2 12 5
f 3 8 9
f 3 6 8
f 4 10 11
f 4 11 12
f 4 12 7
f 5 12 13
f 5 13 6
f 6 14 8
f 6 13 14
f 8 14 9
f 9 15 16
f 9 16 17
f 9 14 13
f 9 13 15
f 10 18 11
f 11 18 17
f 11 17 16
f 11 16 12
f 12 16 15
f 12 15 13

