# https://github.com/mikedh/trimesh
v -0.02157467 -0.02252002 -0.09938461
v -0.04586932 -0.02252002 -0.09938461
v -0.02157467 -0.03736477 -0.09938461
v -0.02157467 -0.02252002 -0.12425201
v -0.04583127 -0.02723720 -0.09938461
v -0.04418325 -0.02252002 -0.12425201
v -0.02370307 -0.03731681 -0.09938461
v -0.03725585 -0.03692444 -0.12425201
v -0.03554600 -0.03695205 -0.12425201
v -0.03348894 -0.03696222 -0.12425201
v -0.03177671 -0.03696513 -0.12425201
v -0.02971728 -0.03696368 -0.12425201
v -0.02157467 -0.03736186 -0.09954283
v -0.02157467 -0.03671808 -0.12425201
v -0.04575755 -0.03047210 -0.09938461
v -0.04396922 -0.03100688 -0.12425201
v -0.02423576 -0.03730373 -0.09938461
v -0.03946035 -0.03684742 -0.12425201
v -0.02800743 -0.03693897 -0.12425201
v -0.02157467 -0.03735314 -0.09992013
v -0.02594799 -0.03689538 -0.12425201
v -0.02201224 -0.03673697 -0.12425201
v -0.02157467 -0.03694188 -0.11610974
v -0.04572902 -0.03100688 -0.09938461
v -0.04341751 -0.03271734 -0.12425201
v -0.04511071 -0.03310535 -0.10296527
v -0.04539846 -0.03297892 -0.09938461
v -0.02747235 -0.03718893 -0.09938461
v -0.04129862 -0.03671808 -0.12425201
v -0.02800743 -0.03716422 -0.09938461
v -0.03124402 -0.03695060 -0.09938461
v -0.02157467 -0.03732698 -0.10103011
v -0.02408594 -0.03682417 -0.12425201
v -0.02157467 -0.03704360 -0.11233922
v -0.02157467 -0.03713952 -0.10857114
v -0.02157467 -0.03723543 -0.10480062
v -0.04253999 -0.03496839 -0.12425201
v -0.04527718 -0.03330444 -0.09992013
v -0.04530334 -0.03332479 -0.09938461
v -0.04187650 -0.03592316 -0.12425201
v -0.03177671 -0.03691281 -0.09938461
v -0.04127246 -0.03670209 -0.12345117
v -0.04308695 -0.03469373 -0.09938461
v -0.03371724 -0.03673843 -0.09938461
v -0.03403591 -0.03670936 -0.09938461
v -0.04103465 -0.03664687 -0.12093912
v -0.03931529 -0.03595659 -0.09938461
v -0.03592174 -0.03647248 -0.09938461
v -0.03883729 -0.03603506 -0.09938461
f 1 2 5
f 1 5 15
f 1 15 24
f 1 24 27
f 1 27 39
f 1 39 43
f 1 43 47
f 1 47 49
f 1 49 48
f 1 48 45
f 1 45 44
f 1 44 41
f 1 41 31
f 1 31 30
f 1 30 28
f 1 28 17
f 1 17 7
f 1 7 3
f 1 3 13
f 1 13 20
f 1 20 32
f 1 32 36
f 1 36 35
f 1 35 34
f 1 34 23
f 1 23 14
f 1 14 4
f 1 4 6
f 1 6 2
f 2 6 5
f 3 7 8
f 3 8 9
f 3 9 10
f 3 10 11
f 3 11 12
f 3 12 13
f 4 14 22
f 4 22 33
f 4 33 21
f 4 21 19
f 4 19 12
f 4 12 11
f 4 11 10
f 4 10 9
f 4 9 8
f 4 8 18
f 4 18 29
f 4 29 40
f 4 40 37
f 4 37 25
f 4 25 16
f 4 16 6
f 5 6 15
f 6 16 15
f 7 17 8
f 8 17 18
f 12 19 13
f 13 19 21
f 13 21 20
f 14 23 22
f 15 16 24
f 16 25 26
f 16 26 27
f 16 27 24
f 17 28 18
f 18 28 30
f 18 30 31
f 18 31 29
f 20 21 32
f 21 33 34
f 21 34 35
f 21 35 36
f 21 36 32
f 22 23 33
f 23 34 33
f 25 37 26
f 26 38 27
f 26 37 38
f 27 38 39
f 29 31 41
f 29 41 42
f 29 42 43
f 29 43 39
f 29 39 40
f 37 40 39
f 37 39 38
f 41 44 42
f 42 44 45
f 42 45 46
f 42 46 43
f 43 46 47
f 45 48 46
f 46 48 49
f 46 49 47

