# https://github.com/mikedh/trimesh
v 0.06043002 -0.02815353 -0.04283855
v 0.05610019 -0.02236218 -0.01603309
v 0.06011584 -0.02907223 -0.03010042
v 0.05961511 -0.02992494 -0.04729136
v 0.05897692 -0.02828380 -0.07203655
v 0.05454891 -0.02293235 -0.13896157
v 0.03334156 -0.02167527 -0.01601094
v 0.02515316 -0.03230035 0.03037800
v 0.03519720 -0.03262520 0.01888045
v 0.03585502 -0.02167527 -0.18344533
v 0.03026845 -0.03744709 0.00598726
v 0.04999325 -0.03605805 -0.04235118
v 0.05302708 -0.03318183 -0.09193019
v 0.05400890 -0.02722298 -0.12662221
v 0.05065107 -0.02701658 -0.14946222
v 0.04973798 -0.02507090 -0.16124776
v 0.04578124 -0.02356512 -0.17520432
v -0.03987289 -0.03113972 0.00248703
v -0.02792412 -0.03127507 0.02951403
v -0.01801754 -0.03234773 0.03531818
v -0.02897467 -0.02882521 -0.15522207
v -0.03624997 -0.02997570 -0.10947557
v 0.01234039 -0.03616633 0.03170719
v 0.01938987 -0.03770933 0.01781710
v 0.02229606 -0.02815522 -0.18856273
v 0.00610582 -0.02815522 -0.19099960
v -0.01070297 -0.02858158 -0.18623665
v 0.03566847 -0.03828119 -0.07828378
v 0.04290450 -0.03738956 -0.06235558
v 0.03862376 -0.03814246 -0.09009147
v 0.04138268 -0.03738618 -0.10298467
v 0.04311068 -0.03542189 -0.13632533
v 0.05055289 -0.03307186 -0.11401699
v 0.03700375 -0.03485342 -0.15586452
v 0.03530520 -0.03081656 -0.17400804
v -0.02932813 -0.03602590 0.01456057
v -0.03547433 -0.03553525 -0.08384425
v -0.01533717 -0.03764504 0.02337757
v -0.00226912 -0.03680248 0.03181796
v -0.01411971 -0.03748939 -0.13871788
v -0.02500811 -0.03709687 -0.12247954
v -0.00276003 -0.03877522 -0.06944462
v 0.00904147 -0.03866695 -0.07241316
v 0.02234515 -0.03843684 -0.06722930
v 0.02382770 -0.03237480 -0.17365359
v 0.01199675 -0.03436446 -0.16581133
v 0.00019525 -0.03438646 -0.16589994
v -0.00571531 -0.03186892 -0.17595753
v 0.02678299 -0.03853497 -0.09751281
v 0.02807899 -0.03802064 -0.12192571
v 0.02761754 -0.03740648 -0.13661333
v 0.02382770 -0.03505306 -0.16131422
v 0.01728877 -0.03677202 -0.14908562
v -0.02347647 -0.03856712 -0.09009147
v -0.02681466 -0.03773471 -0.10491200
v -0.01163570 -0.03893257 -0.08566081
v -0.01163570 -0.03863141 -0.12562531
v -0.00613750 -0.03660453 -0.15167755
v -0.01607353 -0.03872954 -0.11377331
v 0.00019525 -0.03894103 -0.09751281
v 0.01198693 -0.03877522 -0.10712733
v 0.01162366 -0.03819321 -0.13005596
v -0.01163570 -0.03895964 -0.10194346
v 0.00019525 -0.03874308 -0.11822612
f 1 2 3
f 1 3 4
f 1 4 5
f 1 5 6
f 1 6 2
f 2 7 8
f 2 8 9
f 2 9 3
f 2 6 10
f 2 10 7
f 3 9 11
f 3 11 12
f 3 12 4
f 4 13 5
f 4 12 13
f 5 13 14
f 5 14 6
f 6 14 15
f 6 15 16
f 6 16 17
f 6 17 10
f 7 18 19
f 7 19 20
f 7 20 8
f 7 10 21
f 7 21 22
f 7 22 18
f 8 20 23
f 8 23 9
f 9 23 24
f 9 24 11
f 10 17 25
f 10 25 26
f 10 26 27
f 10 27 21
f 11 24 28
f 11 28 29
f 11 29 12
f 12 29 30
f 12 30 31
f 12 31 13
f 13 31 32
f 13 32 33
f 13 33 14
f 14 33 15
f 15 33 32
f 15 32 16
f 16 32 34
f 16 34 35
f 16 35 17
f 17 35 25
f 18 36 19
f 18 22 37
f 18 37 36
f 19 38 20
f 19 36 38
f 20 39 23
f 20 38 39
f 21 27 40
f 21 40 41
f 21 41 37
f 21 37 22
f 23 39 24
f 24 39 38
f 24 38 42
f 24 42 43
f 24 43 44
f 24 44 28
f 25 35 45
f 25 45 26
f 26 45 46
f 26 46 47
f 26 47 48
f 26 48 27
f 27 48 40
f 28 44 49
f 28 49 30
f 28 30 29
f 30 49 50
f 30 50 31
f 31 50 51
f 31 51 32
f 32 51 34
f 34 52 45
f 34 45 35
f 34 51 53
f 34 53 52
f 36 37 54
f 36 54 38
f 37 41 55
f 37 55 54
f 38 54 56
f 38 56 42
f 40 57 41
f 40 48 58
f 40 58 57
f 41 57 59
f 41 59 55
f 42 56 60
f 42 60 43
f 43 60 44
f 44 60 49
f 45 52 46
f 46 52 47
f 47 52 58
f 47 58 48
f 49 60 61
f 49 61 50
f 50 61 62
f 50 62 51
f 51 62 53
f 52 53 58
f 53 62 57
f 53 57 58
f 54 55 59
f 54 59 63
f 54 63 56
f 56 63 60
f 57 62 64
f 57 64 63
f 57 63 59
f 60 63 64
f 60 64 61
f 61 64 62

