# https://github.com/mikedh/trimesh
v 0.07726022 0.03008458 -0.09211932
v 0.03119703 0.03008458 -0.12276307
v 0.07199290 0.03196199 -0.12414958
v 0.07466190 0.03195999 -0.11514497
v 0.07473800 0.03343481 -0.10347635
v 0.07713519 0.03111098 -0.08163469
v 0.07692319 0.03172681 -0.06216104
v 0.07525984 0.03206363 -0.02773161
v 0.07331924 0.03165706 -0.00646637
v 0.06084402 0.03083793 0.02529906
v 0.03873652 0.03071437 0.03439715
v 0.03119703 0.03008458 -0.06075894
v 0.03065888 0.04524532 -0.12430537
v 0.05179881 0.04291950 -0.12475717
v 0.02172782 0.04659059 -0.07920438
v 0.06098535 0.04159216 -0.12143886
v 0.07015559 0.03719161 -0.11718581
v 0.07328663 0.03747263 -0.07770881
v 0.07150911 0.04010338 -0.06794082
v 0.07612957 0.03249810 -0.04486843
v 0.07421615 0.03510494 -0.03558339
v 0.07041108 0.03864052 -0.01645247
v 0.06780731 0.03978451 -0.00157459
v 0.07003057 0.03323352 0.00872308
v 0.06567647 0.03424397 0.01796139
v 0.05541907 0.03741084 0.01987759
v 0.05108128 0.03143583 0.02939632
v 0.03800268 0.03749455 0.02690369
v 0.03048494 0.04993884 -0.06510546
v 0.03652414 0.04934691 -0.07513828
v 0.04825465 0.04659259 -0.10311804
v 0.04962448 0.04503406 -0.11765318
v 0.03645347 0.04952230 -0.01182552
v 0.05478308 0.04487662 -0.11014414
v 0.05885451 0.04498025 -0.09813278
v 0.06508940 0.04143869 -0.11068940
v 0.06644836 0.04304107 -0.08415849
v 0.06963919 0.03987021 -0.09263342
v 0.06519812 0.04438634 -0.06881324
v 0.06555145 0.04466337 -0.04114507
v 0.07006862 0.04130317 -0.04776611
v 0.06333907 0.04565588 -0.02695266
v 0.05749556 0.04619399 -0.00269627
v 0.06138761 0.04113177 0.00957992
v 0.05921328 0.04684371 -0.01343015
v 0.04516710 0.03991405 0.02073443
v 0.04759692 0.03769385 0.02328938
v 0.03873652 0.04439431 0.01261781
v 0.03963343 0.05004446 -0.05818841
v 0.03866042 0.05039523 -0.02481835
v 0.03968236 0.05044506 -0.03983644
v 0.04682503 0.04896227 -0.07024650
v 0.05251090 0.04704301 -0.08996943
v 0.04122613 0.04834643 -0.00328827
v 0.04700985 0.04898219 -0.00978468
v 0.04683047 0.04971761 -0.01894509
v 0.05943614 0.04560207 -0.08830248
v 0.05757709 0.04751136 -0.06102378
v 0.05700090 0.04809531 -0.04831137
v 0.05740315 0.04812321 -0.03883938
v 0.05809893 0.04651487 -0.07950039
v 0.04766758 0.04566385 0.00556056
v 0.04917330 0.04361704 0.01057697
v 0.05530492 0.04854373 -0.02469372
f 1 2 3
f 1 3 4
f 1 4 5
f 1 5 6
f 1 6 7
f 1 7 8
f 1 8 9
f 1 9 10
f 1 10 11
f 1 11 12
f 1 12 2
f 2 13 14
f 2 14 3
f 2 12 15
f 2 15 13
f 3 14 16
f 3 16 17
f 3 17 4
f 4 17 5
f 5 17 18
f 5 18 6
f 6 18 7
f 7 18 19
f 7 19 20
f 7 20 8
f 8 20 21
f 8 21 22
f 8 22 9
f 9 22 23
f 9 23 24
f 9 24 10
f 10 24 25
f 10 25 26
f 10 26 27
f 10 27 11
f 11 27 28
f 11 28 15
f 11 15 12
f 13 15 29
f 13 29 30
f 13 30 31
f 13 31 32
f 13 32 14
f 14 32 16
f 15 28 33
f 15 33 29
f 16 32 34
f 16 34 35
f 16 35 36
f 16 36 17
f 17 36 37
f 17 37 38
f 17 38 18
f 18 38 19
f 19 38 37
f 19 37 39
f 19 39 40
f 19 40 41
f 19 41 21
f 19 21 20
f 21 41 22
f 22 41 42
f 22 42 23
f 23 43 44
f 23 44 25
f 23 25 24
f 23 42 45
f 23 45 43
f 25 44 26
f 26 44 46
f 26 46 47
f 26 47 27
f 27 47 28
f 28 47 46
f 28 46 48
f 28 48 33
f 29 49 30
f 29 33 50
f 29 50 51
f 29 51 49
f 30 49 52
f 30 52 31
f 31 53 34
f 31 34 32
f 31 52 53
f 33 48 54
f 33 54 55
f 33 55 56
f 33 56 50
f 34 53 35
f 35 53 57
f 35 57 36
f 36 57 37
f 37 57 39
f 39 58 59
f 39 59 60
f 39 60 40
f 39 57 61
f 39 61 58
f 40 60 42
f 40 42 41
f 42 60 45
f 43 54 62
f 43 62 63
f 43 63 44
f 43 45 55
f 43 55 54
f 44 63 46
f 45 60 64
f 45 64 55
f 46 63 48
f 48 63 62
f 48 62 54
f 49 51 52
f 50 56 51
f 51 56 59
f 51 59 52
f 52 59 58
f 52 58 53
f 53 58 61
f 53 61 57
f 55 64 56
f 56 64 59
f 59 64 60

