# https://github.com/mikedh/trimesh
v 0.06352280 -0.02097550 0.00522401
v 0.06193954 -0.02097550 0.00586285
v 0.05873646 -0.02112563 0.00739432
v 0.06352280 -0.02141862 0.00496148
v 0.06352280 -0.02097550 -0.01773921
v 0.06193954 -0.02097550 -0.01773921
v 0.05873646 -0.02245161 0.00602913
v 0.05949928 -0.02228335 0.00589348
v 0.06081734 -0.02199204 0.00564407
v 0.06193954 -0.02175247 0.00536403
v 0.05873646 -0.02112563 -0.01501758
v 0.06352280 -0.02289255 0.00344314
v 0.06352280 -0.02344519 -0.01773921
v 0.06193907 -0.02228335 -0.03730258
v 0.05873646 -0.02228335 -0.03730696
v 0.05873646 -0.02303180 0.00533778
v 0.06081734 -0.02344494 0.00402947
v 0.06081734 -0.02228335 0.00532465
v 0.06193954 -0.02338112 0.00360504
v 0.06352280 -0.02344519 0.00274742
v 0.06193954 -0.02344519 -0.01773921
v 0.06193907 -0.02344494 -0.03730258
v 0.05873646 -0.02260512 -0.03730696
v 0.05873646 -0.02344494 0.00483458
v 0.06193954 -0.02344519 0.00351315
v 0.06173103 -0.02344494 0.00362692
v 0.05873646 -0.02344494 -0.03730258
f 1 2 3
f 1 3 4
f 1 4 12
f 1 12 20
f 1 20 13
f 1 13 5
f 1 5 6
f 1 6 2
f 2 6 11
f 2 11 3
f 3 7 8
f 3 8 9
f 3 9 10
f 3 10 4
f 3 11 15
f 3 15 23
f 3 23 27
f 3 27 24
f 3 24 16
f 3 16 7
f 4 10 12
f 5 13 22
f 5 22 14
f 5 14 15
f 5 15 6
f 6 15 11
f 7 16 17
f 7 17 8
f 8 17 18
f 8 18 9
f 9 18 12
f 9 12 10
f 12 19 20
f 12 18 19
f 13 20 25
f 13 25 21
f 13 21 27
f 13 27 22
f 14 22 23
f 14 23 15
f 16 24 17
f 17 24 25
f 17 25 26
f 17 26 18
f 18 26 19
f 19 26 20
f 20 26 25
f 21 25 24
f 21 24 27
f 22 27 23

