# https://github.com/mikedh/trimesh
v -0.01891500 0.01871383 -0.20956210
v -0.03619475 0.01755288 -0.14432689
v -0.03582046 0.01794311 -0.15171502
v -0.03548182 0.02298693 -0.14700245
v -0.01756934 0.02370691 -0.20259542
v -0.01439678 0.02343960 -0.20956210
v 0.02240846 0.02450495 -0.20956210
v 0.04074870 0.01941821 -0.20954932
v 0.05448160 0.01806214 -0.15105092
v -0.01693661 0.03626084 -0.14437159
v -0.02552747 0.03148043 -0.14536774
v 0.05482915 0.01931285 -0.14541883
v 0.05302008 0.02532835 -0.14492714
v 0.04864445 0.03172433 -0.14485051
v -0.02557203 0.03148043 -0.15231527
v -0.02509080 0.03070581 -0.16046328
v -0.01624150 0.03012826 -0.17760860
v -0.01038653 0.03570085 -0.15764085
v -0.00869331 0.02446202 -0.20956210
v 0.02680192 0.03331065 -0.17007360
v 0.03271927 0.03280334 -0.17007360
v 0.03863663 0.03304333 -0.16415415
v 0.04034767 0.03069215 -0.17083348
v 0.01399583 0.02469226 -0.20956210
v 0.02088456 0.03347845 -0.17007360
v 0.04458963 0.03071167 -0.16366885
v 0.04616700 0.03101996 -0.15902014
v 0.04878703 0.02680539 -0.16366885
v 0.04835927 0.02494396 -0.17007360
v 0.05157639 0.02075087 -0.16415415
v 0.05343002 0.01844262 -0.15789627
v 0.03271927 0.03662961 -0.14536774
v 0.02680192 0.03691644 -0.14536774
v 0.02036768 0.03709985 -0.14536774
v 0.01495829 0.03721106 -0.14536774
v -0.00380971 0.03746277 -0.14536774
v -0.00921019 0.03748618 -0.14536774
v -0.00869331 0.03671546 -0.15231527
v 0.05221803 0.02481519 -0.15138936
v 0.05010596 0.02667076 -0.15823471
v 0.04661258 0.03205994 -0.15231527
v 0.04132796 0.03533012 -0.14565509
v -0.00277595 0.03530280 -0.16183619
v -0.00277595 0.03357015 -0.17007360
v -0.00277595 0.02454787 -0.20956210
v 0.02680192 0.03459648 -0.16415415
v 0.03271927 0.03417112 -0.16415415
v 0.03863663 0.03433112 -0.15823471
v 0.00314140 0.03365015 -0.17007360
v 0.00905876 0.03364235 -0.17007360
v 0.01495829 0.03358967 -0.17007360
v 0.02088456 0.03475257 -0.16415415
v 0.03775437 0.03544719 -0.15176611
v 0.03306683 0.03557597 -0.15545698
v 0.02680192 0.03631352 -0.15231527
v 0.02088456 0.03650473 -0.15231527
v 0.01495829 0.03661790 -0.15231527
v -0.00277595 0.03674278 -0.15231527
v 0.00905876 0.03531256 -0.16180426
v 0.00314140 0.03490867 -0.16415415
v 0.02088456 0.03565792 -0.15898182
v 0.02680192 0.03557207 -0.15842628
v 0.01495829 0.03528329 -0.16174679
f 1 2 3
f 1 3 4
f 1 4 5
f 1 5 6
f 1 6 19
f 1 19 45
f 1 45 24
f 1 24 7
f 1 7 8
f 1 8 9
f 1 9 2
f 2 10 11
f 2 11 4
f 2 4 3
f 2 9 12
f 2 12 13
f 2 13 14
f 2 14 10
f 4 15 16
f 4 16 5
f 4 11 15
f 5 16 6
f 6 17 18
f 6 18 19
f 6 16 17
f 7 20 21
f 7 21 22
f 7 22 23
f 7 23 8
f 7 24 25
f 7 25 20
f 8 23 26
f 8 26 27
f 8 27 28
f 8 28 29
f 8 29 30
f 8 30 31
f 8 31 9
f 9 31 13
f 9 13 12
f 10 14 32
f 10 32 33
f 10 33 34
f 10 34 35
f 10 35 36
f 10 36 37
f 10 37 38
f 10 38 18
f 10 18 17
f 10 17 16
f 10 16 15
f 10 15 11
f 13 31 39
f 13 39 40
f 13 40 14
f 14 40 27
f 14 27 41
f 14 41 42
f 14 42 32
f 18 38 43
f 18 43 44
f 18 44 19
f 19 44 45
f 20 46 47
f 20 47 21
f 20 25 46
f 21 47 22
f 22 47 48
f 22 48 26
f 22 26 23
f 24 45 49
f 24 49 50
f 24 50 51
f 24 51 25
f 25 51 52
f 25 52 46
f 26 48 27
f 27 40 28
f 27 48 41
f 28 40 29
f 29 40 30
f 30 40 39
f 30 39 31
f 32 53 54
f 32 54 55
f 32 55 33
f 32 42 53
f 33 55 56
f 33 56 34
f 34 56 35
f 35 56 57
f 35 57 36
f 36 57 58
f 36 58 37
f 37 58 38
f 38 58 43
f 41 48 42
f 42 48 53
f 43 58 59
f 43 59 60
f 43 60 44
f 44 60 49
f 44 49 45
f 46 52 61
f 46 61 62
f 46 62 47
f 47 54 48
f 47 62 54
f 48 54 53
f 49 60 50
f 50 60 52
f 50 52 51
f 52 60 63
f 52 63 61
f 54 62 55
f 55 62 56
f 56 62 61
f 56 61 57
f 57 61 58
f 58 61 59
f 59 61 63
f 59 63 60

