# https://github.com/mikedh/trimesh
v -0.01895956 -0.00733032 -0.22622596
v -0.03597813 -0.00356999 -0.17392702
v -0.01894113 0.00890678 -0.22622596
v -0.01881221 -0.01191546 -0.22622596
v -0.03669644 -0.00356999 -0.17007928
v -0.03593208 0.00194803 -0.17142559
v -0.01830570 0.01666875 -0.22622596
v -0.02021200 -0.01209915 -0.20955243
v -0.03663198 -0.00427235 -0.16259093
v 0.04140665 -0.00190955 -0.22622596
v 0.04149874 -0.01047112 -0.22546120
v 0.04228152 -0.01209915 -0.21974934
v -0.03652147 0.00363009 -0.15760401
v -0.03650305 0.00452334 -0.16263076
v -0.03575711 0.00994051 -0.16292552
v -0.03562818 0.00643592 -0.16767345
v -0.01315777 0.02163208 -0.22622596
v -0.03570185 0.01448963 -0.15760401
v -0.03600575 0.01616089 -0.15199571
v -0.03627282 -0.00514400 -0.14551909
v 0.04353397 -0.01209915 -0.21052433
v 0.04140665 0.00890678 -0.22622596
v 0.05388509 0.00299976 -0.16927468
v 0.05380221 -0.00449207 -0.16889230
v 0.05572693 -0.00481623 -0.15808199
v 0.05675836 -0.00514400 -0.14952615
v -0.03621757 0.01602042 -0.14484992
v -0.03633729 0.00953710 -0.15760401
v -0.01179481 0.02374636 -0.21497751
v -0.00723626 0.02316647 -0.22622596
v -0.01439180 0.02343660 -0.20955243
v 0.05725565 -0.00430837 -0.14542349
v 0.04113037 0.01521000 -0.22622596
v 0.05503624 0.00261797 -0.16340350
v 0.04179343 0.01810228 -0.22188432
v 0.05366407 0.00748766 -0.16828686
v 0.05487047 -0.00429036 -0.16344333
v 0.05589269 0.00299976 -0.15823335
v 0.05632553 -0.00465415 -0.15366068
v 0.01496708 0.02469725 -0.20955243
v -0.00277902 0.02454597 -0.20955243
v -0.00869131 0.02445593 -0.20955243
v 0.05561642 0.01618610 -0.14508891
v -0.00277902 0.02325651 -0.22622596
v 0.05649129 0.00299976 -0.15360491
v 0.05738458 0.00299976 -0.14536773
v 0.03870836 0.01929089 -0.22622596
v 0.05432713 0.00919133 -0.16359469
v 0.05534935 0.00890678 -0.15792266
v 0.04209734 0.01851289 -0.21740724
v 0.05369170 0.01684884 -0.15891049
v 0.05376537 0.01344870 -0.16273432
v 0.05335096 0.01144248 -0.16678122
v 0.05593874 0.00890678 -0.15360491
v 0.01522494 0.02338258 -0.22622596
v 0.02240810 0.02449915 -0.20955243
v 0.05686887 0.00890678 -0.14536773
v 0.05475075 0.01621852 -0.15233030
v 0.03863468 0.02045068 -0.21052433
v 0.04256700 0.01900274 -0.21052433
v 0.03271318 0.02096574 -0.22622596
v 0.02396445 0.02376798 -0.21487395
v 0.02060310 0.02275226 -0.22622596
f 1 2 3
f 1 3 7
f 1 7 17
f 1 17 30
f 1 30 44
f 1 44 55
f 1 55 63
f 1 63 61
f 1 61 47
f 1 47 33
f 1 33 22
f 1 22 10
f 1 10 4
f 1 4 2
f 2 5 6
f 2 6 7
f 2 7 3
f 2 4 5
f 4 8 9
f 4 9 5
f 4 10 11
f 4 11 12
f 4 12 8
f 5 9 13
f 5 13 14
f 5 14 6
f 6 14 15
f 6 15 16
f 6 16 7
f 7 16 15
f 7 15 18
f 7 18 19
f 7 19 17
f 8 20 9
f 8 12 21
f 8 21 20
f 9 20 13
f 10 22 23
f 10 23 11
f 11 23 24
f 11 24 12
f 12 24 25
f 12 25 26
f 12 26 21
f 13 20 27
f 13 27 14
f 14 27 28
f 14 28 18
f 14 18 15
f 17 29 30
f 17 19 31
f 17 31 29
f 18 28 19
f 19 28 27
f 19 27 31
f 20 21 26
f 20 26 32
f 20 32 27
f 22 33 23
f 23 34 24
f 23 33 35
f 23 35 36
f 23 36 34
f 24 34 37
f 24 37 25
f 25 37 38
f 25 38 39
f 25 39 26
f 26 39 32
f 27 40 41
f 27 41 42
f 27 42 31
f 27 32 43
f 27 43 40
f 29 31 42
f 29 42 30
f 30 42 44
f 32 39 45
f 32 45 46
f 32 46 43
f 33 47 35
f 34 36 48
f 34 48 49
f 34 49 38
f 34 38 37
f 35 47 50
f 35 50 51
f 35 51 52
f 35 52 53
f 35 53 48
f 35 48 36
f 38 54 45
f 38 45 39
f 38 49 54
f 40 55 44
f 40 44 41
f 40 43 56
f 40 56 55
f 41 44 42
f 43 46 57
f 43 57 54
f 43 54 58
f 43 58 51
f 43 51 56
f 45 54 57
f 45 57 46
f 47 59 60
f 47 60 50
f 47 61 59
f 48 53 52
f 48 52 49
f 49 52 51
f 49 51 58
f 49 58 54
f 50 60 51
f 51 60 59
f 51 59 56
f 55 56 62
f 55 62 63
f 56 61 62
f 56 59 61
f 61 63 62

