# https://github.com/mikedh/trimesh
v 0.03118720 0.03135803 -0.06096774
v 0.03118720 0.03743539 -0.06204083
v 0.01797958 0.03713254 -0.06143485
v 0.01028214 0.03415757 -0.06139698
v 0.01440953 0.02976252 -0.06124548
v 0.03118720 0.03002290 -0.06870665
v 0.03118720 0.04449702 -0.08174159
v 0.03113462 0.04449702 -0.07001961
v 0.02632898 0.04449702 -0.07005117
v 0.00430927 0.04115272 -0.07312527
v 0.00352586 0.03032205 -0.06169366
v -0.00344600 0.03615381 -0.07256979
v 0.00029756 0.02976252 -0.06719800
v 0.01416767 0.02976252 -0.06867508
v 0.03118194 0.02982900 -0.12174279
v 0.02047704 0.04862431 -0.08188046
v 0.03109256 0.04313419 -0.12453284
v 0.01270074 0.04779332 -0.08361635
v 0.00441443 0.04632891 -0.08841372
v -0.00572789 0.04308802 -0.09044628
v -0.00875113 0.03090006 -0.07264554
v -0.01194262 0.04014814 -0.09615894
v -0.02092822 0.03033683 -0.10355698
v -0.02251607 0.02989732 -0.12364910
v -0.00718956 0.02983084 -0.12544181
v 0.01412035 0.04773792 -0.09001705
v 0.01658100 0.04591526 -0.12344711
v 0.02133406 0.04310649 -0.12511356
v 0.00985100 0.04735751 -0.08717019
v -0.00203691 0.04467061 -0.09517421
v 0.00129129 0.04534464 -0.10083637
v -0.00780998 0.04257096 -0.09633569
v -0.01597010 0.03628123 -0.09685329
v -0.01931407 0.03105333 -0.09690379
v -0.01238953 0.04023863 -0.10211146
v -0.01605949 0.03746863 -0.10420715
v -0.01876726 0.03392120 -0.10191578
v -0.02158019 0.03063229 -0.10997030
v -0.02176421 0.03116967 -0.11509591
v -0.01775250 0.03666164 -0.11770921
v -0.01869890 0.03387688 -0.12419197
v -0.00435034 0.03856001 -0.12544811
v -0.00293073 0.03287783 -0.12545443
v 0.00843140 0.04669086 -0.09711210
v 0.00985100 0.04709528 -0.09285759
v 0.00382555 0.04291813 -0.12483582
v -0.00290970 0.04236044 -0.12397104
v 0.00134912 0.04414616 -0.12053713
v 0.00275822 0.04488113 -0.11416169
v 0.00367308 0.04538527 -0.10846797
v 0.00700653 0.04622734 -0.10207990
v 0.00984575 0.04139833 -0.12544181
v -0.00293073 0.04387285 -0.11273510
v -0.00413477 0.04382299 -0.10456695
v -0.00723688 0.04283688 -0.10646065
v -0.00008100 0.04477956 -0.10705401
v -0.01322027 0.03995978 -0.11273510
v -0.01822045 0.03556288 -0.10918126
v -0.01333068 0.03985637 -0.11735572
v -0.00882474 0.04157745 -0.12269594
v -0.01245263 0.03792476 -0.12453914
v -0.00584356 0.04282210 -0.11806270
v 0.00005570 0.04448964 -0.11303178
v -0.00794142 0.04241584 -0.11149157
f 1 2 3
f 1 3 4
f 1 4 5
f 1 5 6
f 1 6 7
f 1 7 2
f 2 7 8
f 2 8 3
f 3 8 9
f 3 9 10
f 3 10 4
f 4 11 5
f 4 10 12
f 4 12 11
f 5 11 13
f 5 13 14
f 5 14 15
f 5 15 6
f 6 15 7
f 7 16 8
f 7 15 17
f 7 17 16
f 8 16 9
f 9 16 18
f 9 18 10
f 10 18 19
f 10 19 20
f 10 20 12
f 11 12 21
f 11 21 13
f 12 20 22
f 12 22 21
f 13 21 23
f 13 23 24
f 13 24 25
f 13 25 14
f 14 25 15
f 15 25 17
f 16 26 18
f 16 17 27
f 16 27 26
f 17 25 28
f 17 28 27
f 18 26 29
f 18 29 19
f 19 30 20
f 19 29 31
f 19 31 30
f 20 30 32
f 20 32 22
f 21 22 33
f 21 33 34
f 21 34 23
f 22 32 35
f 22 35 36
f 22 36 33
f 23 34 37
f 23 37 38
f 23 38 24
f 24 38 39
f 24 39 40
f 24 40 41
f 24 41 25
f 25 41 42
f 25 42 43
f 25 43 28
f 26 44 45
f 26 45 29
f 26 27 44
f 27 28 46
f 27 46 47
f 27 47 48
f 27 48 49
f 27 49 50
f 27 50 51
f 27 51 44
f 28 43 52
f 28 52 46
f 29 45 44
f 29 44 31
f 30 31 53
f 30 53 54
f 30 54 55
f 30 55 32
f 31 44 50
f 31 50 56
f 31 56 53
f 32 55 57
f 32 57 35
f 33 37 34
f 33 36 37
f 35 57 40
f 35 40 36
f 36 40 58
f 36 58 37
f 37 58 39
f 37 39 38
f 39 58 40
f 40 57 59
f 40 59 60
f 40 60 41
f 41 60 61
f 41 61 42
f 42 61 46
f 42 46 52
f 42 52 43
f 44 51 50
f 46 61 47
f 47 60 48
f 47 61 60
f 48 60 62
f 48 62 63
f 48 63 49
f 49 63 50
f 50 63 56
f 53 56 63
f 53 63 62
f 53 62 54
f 54 62 55
f 55 62 64
f 55 64 59
f 55 59 57
f 59 64 60
f 60 64 62

