# https://github.com/mikedh/trimesh
v 0.11521725 0.03505660 -0.03263901
v 0.11476825 0.03066438 -0.03718776
v 0.07852110 0.00637257 -0.03730611
v 0.11465921 0.03455267 -0.02693038
v 0.11980988 0.03341310 -0.03019696
v 0.12508885 0.03107669 -0.03036266
v 0.12829598 0.02824780 -0.03547162
v 0.11990609 0.03164934 -0.03641846
v 0.12469116 0.02702233 -0.03723510
v 0.12675015 0.02249839 -0.03729428
v 0.07850828 -0.02101155 -0.03729428
v 0.07850186 -0.00800094 -0.03729428
v 0.07852110 0.00576556 0.00279235
v 0.13368399 -0.01566299 -0.03729428
v 0.11320316 -0.02344531 -0.03729428
v 0.11412682 0.03182113 -0.01961213
v 0.12145835 0.03144318 -0.02333635
v 0.12821902 0.02843677 -0.02426741
v 0.13052175 0.02789276 -0.03019696
v 0.13467821 0.02433087 -0.03019696
v 0.13915538 0.01866164 -0.03320710
v 0.13314519 0.02209181 -0.03665516
v 0.13878335 0.01481343 -0.03638689
v 0.09902759 -0.02344531 -0.00973743
v 0.07850828 -0.02068514 -0.00131849
v 0.07850186 -0.01396222 0.00149440
v 0.09902759 -0.02344531 -0.03729033
v 0.07851469 -0.00644906 0.00274107
v 0.07852110 -0.00004111 0.00299750
v 0.13884108 0.00718573 -0.01652308
v 0.13621122 0.01417779 -0.01681108
v 0.13193930 0.01907967 -0.01668483
v 0.11338276 0.02514404 -0.01456234
v 0.13879618 -0.01490710 -0.03639084
v 0.13232416 -0.02184761 -0.03701417
v 0.12500546 -0.02322770 -0.03729033
v 0.11813575 0.02818481 -0.01740680
v 0.12430630 0.02620916 -0.01787232
v 0.12940566 0.02366087 -0.01803407
v 0.13496685 0.02273318 -0.02263017
v 0.13887315 0.01906822 -0.02672918
v 0.14125285 0.01490506 -0.03019696
v 0.14269607 0.01069035 -0.03255221
v 0.14305526 0.00515855 -0.03396063
v 0.14309375 -0.00004111 -0.03406715
v 0.13418430 -0.02270086 -0.02012500
v 0.12778926 -0.02255770 -0.01681502
v 0.13525549 -0.01569163 -0.01684658
v 0.13914897 -0.00634026 -0.01658620
v 0.13992509 -0.00004111 -0.01676768
v 0.14277303 0.00726591 -0.02039722
v 0.13961721 0.01633668 -0.02145057
v 0.13916821 -0.01876103 -0.03321105
v 0.14305526 -0.00524649 -0.03396063
v 0.14268965 -0.01077829 -0.03255221
v 0.13732089 -0.02113180 -0.02744719
v 0.14264475 0.01095377 -0.02629521
v 0.14403024 0.00299394 -0.02672918
v 0.13960438 -0.01644180 -0.02145057
v 0.14277303 -0.00735385 -0.02039327
v 0.14349144 -0.00004111 -0.02027886
v 0.14124643 -0.01499299 -0.03019696
v 0.14386347 -0.00524649 -0.02499331
v 0.14276021 -0.01035453 -0.02499331
f 1 2 3
f 1 3 4
f 1 4 5
f 1 5 6
f 1 6 7
f 1 7 8
f 1 8 2
f 2 8 9
f 2 9 10
f 2 10 3
f 3 11 12
f 3 12 13
f 3 13 4
f 3 10 14
f 3 14 15
f 3 15 11
f 4 16 17
f 4 17 5
f 4 13 16
f 5 17 6
f 6 17 18
f 6 18 19
f 6 19 7
f 7 9 8
f 7 19 20
f 7 20 21
f 7 21 22
f 7 22 9
f 9 22 10
f 10 22 23
f 10 23 14
f 11 24 25
f 11 25 26
f 11 26 12
f 11 15 27
f 11 27 24
f 12 26 13
f 13 26 28
f 13 28 29
f 13 29 30
f 13 30 31
f 13 31 32
f 13 32 33
f 13 33 16
f 14 23 34
f 14 34 35
f 14 35 36
f 14 36 15
f 15 36 24
f 15 24 27
f 16 33 37
f 16 37 38
f 16 38 17
f 17 38 39
f 17 39 18
f 18 39 40
f 18 40 19
f 19 40 20
f 20 40 41
f 20 41 21
f 21 23 22
f 21 41 42
f 21 42 43
f 21 43 23
f 23 43 44
f 23 44 45
f 23 45 34
f 24 36 46
f 24 46 47
f 24 47 25
f 25 47 26
f 26 47 48
f 26 48 28
f 28 48 49
f 28 49 29
f 29 49 50
f 29 50 30
f 30 50 51
f 30 51 31
f 31 51 52
f 31 52 32
f 32 39 33
f 32 52 39
f 33 39 38
f 33 38 37
f 34 53 35
f 34 45 54
f 34 54 55
f 34 55 53
f 35 53 56
f 35 56 46
f 35 46 36
f 39 52 40
f 40 52 41
f 41 52 42
f 42 52 57
f 42 57 43
f 43 57 58
f 43 58 44
f 44 58 45
f 45 58 54
f 46 56 59
f 46 59 48
f 46 48 47
f 48 59 60
f 48 60 49
f 49 60 61
f 49 61 50
f 50 61 51
f 51 61 58
f 51 58 57
f 51 57 52
f 53 55 62
f 53 62 56
f 54 58 63
f 54 63 55
f 55 63 64
f 55 64 62
f 56 62 59
f 58 61 63
f 59 62 64
f 59 64 60
f 60 64 63
f 60 63 61

