# https://github.com/mikedh/trimesh
v -0.01706590 -0.02283857 -0.03730573
v -0.01864125 -0.02990113 -0.03467629
v -0.02183782 -0.02143860 -0.01017929
v 0.06281789 -0.01013908 0.00245055
v 0.11021592 -0.02344874 -0.03730039
v 0.10937471 -0.02954472 -0.03730039
v 0.06425559 -0.03531852 -0.03721505
v 0.04995512 -0.03557798 -0.03686838
v -0.01864125 -0.03122411 -0.02160909
v -0.02183782 -0.03044572 -0.00876590
v 0.04411257 -0.03855184 -0.03437761
v -0.02183782 -0.02109075 0.00392795
v -0.01864125 -0.02057182 0.01254696
v 0.06271083 -0.01013908 0.00987486
v 0.13250018 -0.02415015 -0.03628702
v 0.12482228 -0.02529065 -0.03725772
v 0.10486280 -0.03427781 -0.03704438
v 0.07641481 -0.03529285 -0.03721505
v 0.07119934 -0.03682683 -0.03653770
v 0.04795152 -0.03888543 -0.02858004
v -0.02183782 -0.02959320 -0.00214697
v 0.05475763 -0.03891110 -0.03368425
v 0.07987139 -0.03793882 -0.03586567
v -0.01983423 -0.02872641 0.00317058
v -0.01714238 -0.02707554 0.00846680
v 0.03632761 -0.02271882 0.01529374
v 0.04331725 -0.01912053 0.01718182
v 0.03427813 -0.01636622 0.01718182
v 0.04766092 -0.01463836 0.01718182
v 0.13156721 -0.02421288 -0.01953967
v 0.13438141 -0.02459494 -0.02906006
v 0.13049658 -0.02799364 -0.03019077
v 0.12827886 -0.02835860 -0.03546565
v 0.11810794 -0.03114713 -0.03683104
v 0.09374361 -0.03855184 -0.03442561
v 0.08681515 -0.03781622 -0.03567366
v 0.11277012 -0.03572054 -0.03279887
v 0.07292763 -0.03926750 -0.03019077
v 0.05731183 -0.03849196 -0.02555058
v 0.05474233 -0.03795022 -0.02347050
v 0.06384263 -0.03884837 -0.03381758
v 0.08681515 -0.03913635 -0.03192951
v -0.00954095 -0.02806777 0.00736275
v 0.02961327 -0.02515664 0.01250430
v 0.10535223 -0.03482240 -0.02069705
v 0.11686908 -0.03216503 -0.02049971
v 0.12677999 -0.02722380 -0.01936366
v 0.12818710 -0.02852682 -0.02426520
v 0.12521994 -0.03116994 -0.03066546
v 0.10377688 -0.03752539 -0.03118814
v 0.09408009 -0.03861457 -0.03118814
v 0.11975976 -0.03354218 -0.03019077
v 0.10782996 -0.03637633 -0.02787601
v 0.07987139 -0.03917341 -0.03019077
v 0.07639951 -0.03776204 -0.02314515
v 0.01661285 -0.02935084 0.00448797
v 0.09014938 -0.03824676 -0.02693197
v 0.02276128 -0.02809344 0.00765610
v 0.02961327 -0.02672768 0.00969885
v 0.09804140 -0.03586025 -0.02129974
v 0.11241834 -0.03454583 -0.02434520
v 0.12144217 -0.03154916 -0.02332116
v 0.08508686 -0.03748262 -0.02328916
f 1 2 3
f 1 3 4
f 1 4 5
f 1 5 6
f 1 6 7
f 1 7 8
f 1 8 2
f 2 9 10
f 2 10 3
f 2 8 11
f 2 11 9
f 3 10 21
f 3 21 12
f 3 12 4
f 4 12 13
f 4 13 14
f 4 14 15
f 4 15 5
f 5 15 16
f 5 16 6
f 6 17 18
f 6 18 7
f 6 16 17
f 7 19 8
f 7 18 19
f 8 19 11
f 9 11 20
f 9 20 10
f 10 20 21
f 11 22 20
f 11 19 23
f 11 23 22
f 12 21 13
f 13 21 24
f 13 24 25
f 13 25 26
f 13 26 27
f 13 27 28
f 13 28 29
f 13 29 14
f 14 29 30
f 14 30 31
f 14 31 15
f 15 31 32
f 15 32 33
f 15 33 34
f 15 34 16
f 16 34 17
f 17 35 36
f 17 36 23
f 17 23 18
f 17 34 37
f 17 37 35
f 18 23 19
f 20 22 38
f 20 38 39
f 20 39 40
f 20 40 24
f 20 24 21
f 22 23 41
f 22 41 42
f 22 42 38
f 23 36 35
f 23 35 41
f 24 43 25
f 24 40 43
f 25 43 44
f 25 44 26
f 26 44 45
f 26 45 46
f 26 46 27
f 27 29 28
f 27 46 47
f 27 47 30
f 27 30 29
f 30 47 48
f 30 48 31
f 31 48 32
f 32 48 49
f 32 49 33
f 33 49 37
f 33 37 34
f 35 37 50
f 35 50 51
f 35 51 42
f 35 42 41
f 37 49 52
f 37 52 53
f 37 53 50
f 38 42 54
f 38 54 55
f 38 55 39
f 39 55 40
f 40 56 43
f 40 55 56
f 42 51 57
f 42 57 54
f 43 56 58
f 43 58 44
f 44 58 59
f 44 59 45
f 45 60 53
f 45 53 61
f 45 61 46
f 45 59 60
f 46 61 62
f 46 62 47
f 47 62 48
f 48 62 49
f 49 62 52
f 50 53 57
f 50 57 51
f 52 62 61
f 52 61 53
f 53 60 57
f 54 57 55
f 55 57 63
f 55 63 58
f 55 58 56
f 57 60 63
f 58 63 60
f 58 60 59

