# https://github.com/mikedh/trimesh
v -0.01864259 0.00033559 0.00431042
v -0.01726239 -0.00205487 0.00431042
v -0.01815467 0.00033559 0.00430500
v -0.01864259 0.00033559 0.00381345
v -0.01864259 -0.00861223 0.00431042
v -0.01707122 -0.00262599 0.00431042
v -0.01688805 -0.00557356 -0.00261608
v -0.01778192 -0.00399422 -0.00261608
v -0.01864259 -0.00292732 -0.00261608
v -0.01864259 -0.00861223 -0.00261608
v -0.01660149 -0.00861223 0.00431042
v -0.01678107 -0.00528975 0.00431042
v -0.01674227 -0.00672193 -0.00261608
v -0.01674847 -0.00667288 -0.00261608
v -0.01660009 -0.00861223 -0.00261608
v -0.01660009 -0.00861223 -0.00081462
f 1 2 3
f 1 3 4
f 1 4 9
f 1 9 10
f 1 10 5
f 1 5 11
f 1 11 12
f 1 12 6
f 1 6 2
f 2 6 7
f 2 7 3
f 3 7 8
f 3 8 9
f 3 9 4
f 5 10 15
f 5 15 16
f 5 16 11
f 6 12 13
f 6 13 14
f 6 14 7
f 7 14 13
f 7 13 15
f 7 15 10
f 7 10 9
f 7 9 8
f 11 16 12
f 12 16 15
f 12 15 13

