# https://github.com/mikedh/trimesh
v 0.02860344 0.01617585 0.00017719
v 0.02490361 0.02184230 0.00249646
v 0.02784225 0.01855247 0.00612309
v 0.02716523 0.01989109 0.02918282
v 0.01615359 0.01391267 0.00203852
v 0.01970703 0.01557272 -0.04255939
v 0.01653418 0.02152088 -0.04255939
v 0.01976924 0.02643672 0.00191295
v 0.02258711 0.02469349 0.00735659
v 0.02742872 0.01958669 0.01440303
v 0.02296770 0.02477668 0.02732889
v 0.02046822 0.02544221 0.03121403
v 0.02423391 0.02141689 0.03157595
v 0.01866405 0.02049045 0.03283161
v 0.01299904 0.01922556 0.03204867
v 0.00721326 0.01391267 0.00132206
v 0.00721326 0.01391267 -0.04255939
v 0.01068619 0.02571258 -0.04255939
v 0.01748933 0.02839550 0.00672137
v 0.01770524 0.02851083 0.01340589
v 0.02193570 0.02564263 0.02066653
v 0.01676107 0.02851839 0.02989929
v 0.01776013 0.02854297 0.01822908
v 0.01261478 0.02759573 0.03264695
v 0.01624507 0.02473320 0.03289809
v -0.00781293 0.02956395 0.03231458
v -0.00878272 0.02267232 0.03203390
v -0.00878272 0.01665609 0.00133683
v -0.00878272 0.01861865 -0.04255939
v 0.00558109 0.02708335 -0.04255939
v 0.00640083 0.03101602 -0.00884875
v 0.01315274 0.03004608 0.00206068
v 0.01240619 0.03082884 0.00805828
v 0.01624507 0.02927279 0.01340589
v 0.00815377 0.03147546 0.03023905
v 0.01270627 0.03099144 0.02695957
v 0.00294620 0.03054334 0.03254355
v -0.00210401 0.03179499 0.03098506
v -0.00836553 0.03254182 0.02672322
v -0.00878272 0.03070783 -0.01138961
v -0.00878272 0.02813269 -0.02718870
v -0.00633813 0.02729700 -0.04255939
v 0.00066995 0.02748607 -0.04255939
v 0.00294620 0.03186117 -0.00654425
v 0.00658015 0.03207671 0.00251123
v 0.00708151 0.03155298 -0.00182447
v 0.00839530 0.03205402 0.00916620
v 0.00900279 0.03205591 0.01582856
v 0.00333411 0.03316008 0.02720332
v -0.00406187 0.03322058 0.02563745
v -0.00811302 0.03258720 0.01975802
v -0.00694562 0.03231115 0.00251123
v -0.00694562 0.03188385 -0.00354545
v -0.00189541 0.03198217 -0.00654425
v 0.00052723 0.03249266 -0.00111539
v 0.00294620 0.03259287 0.00251123
v 0.00294620 0.03285568 0.00735659
v 0.00415752 0.03287647 0.01219455
v 0.00021250 0.03309958 0.01198035
v -0.00066945 0.03322626 0.01833987
v -0.00694562 0.03266850 0.01280022
v -0.00189541 0.03294076 0.00735659
v -0.00694562 0.03251346 0.00735659
v -0.00189541 0.03270442 0.00251123
f 1 2 3
f 1 3 4
f 1 4 5
f 1 5 6
f 1 6 7
f 1 7 2
f 2 7 8
f 2 8 9
f 2 9 10
f 2 10 3
f 3 10 4
f 4 11 12
f 4 12 13
f 4 13 14
f 4 14 15
f 4 15 5
f 4 10 11
f 5 16 17
f 5 17 6
f 5 15 16
f 6 17 29
f 6 29 42
f 6 42 43
f 6 43 30
f 6 30 18
f 6 18 7
f 7 18 8
f 8 19 9
f 8 18 19
f 9 20 21
f 9 21 11
f 9 11 10
f 9 19 20
f 11 22 12
f 11 21 23
f 11 23 22
f 12 22 24
f 12 24 25
f 12 25 13
f 13 25 14
f 14 25 26
f 14 26 27
f 14 27 15
f 15 27 16
f 16 28 17
f 16 27 28
f 17 28 29
f 18 30 31
f 18 31 32
f 18 32 19
f 19 32 33
f 19 33 34
f 19 34 20
f 20 34 23
f 20 23 21
f 22 35 24
f 22 23 36
f 22 36 35
f 23 34 36
f 24 37 25
f 24 35 37
f 25 37 26
f 26 37 38
f 26 38 39
f 26 39 27
f 27 39 40
f 27 40 41
f 27 41 29
f 27 29 28
f 29 41 42
f 30 43 44
f 30 44 31
f 31 44 45
f 31 45 46
f 31 46 32
f 32 46 33
f 33 47 48
f 33 48 36
f 33 36 34
f 33 46 45
f 33 45 47
f 35 36 49
f 35 49 38
f 35 38 37
f 36 48 49
f 38 49 50
f 38 50 39
f 39 50 51
f 39 51 40
f 40 51 52
f 40 52 53
f 40 53 42
f 40 42 41
f 42 53 54
f 42 54 43
f 43 54 44
f 44 54 55
f 44 55 56
f 44 56 45
f 45 56 57
f 45 57 58
f 45 58 47
f 47 58 48
f 48 58 49
f 49 58 59
f 49 59 60
f 49 60 50
f 50 61 51
f 50 60 62
f 50 62 61
f 51 61 63
f 51 63 52
f 52 63 62
f 52 62 64
f 52 64 53
f 53 64 54
f 54 64 55
f 55 64 62
f 55 62 57
f 55 57 56
f 57 62 59
f 57 59 58
f 59 62 60
f 61 62 63

