# https://github.com/mikedh/trimesh
v -0.06381482 -0.00001639 0.15134753
v -0.05862478 -0.02912367 0.07123118
v -0.06370321 -0.02353211 0.15134753
v -0.06346604 0.03741004 0.15134753
v -0.05862478 0.03972849 0.07123118
v -0.05822018 -0.05552285 0.07123118
v -0.06278240 -0.04572300 0.14357586
v -0.06001995 -0.07264821 0.14816358
v -0.05131407 -0.09187773 0.14976339
v -0.02737291 -0.09947601 0.15134753
v -0.03097245 0.09956013 0.15134753
v -0.06029899 0.07062819 0.14896348
v -0.05995020 0.06523146 0.12014324
v -0.05939213 0.05973732 0.09659299
v -0.05721566 0.06665371 0.07399165
v -0.01882050 0.09453357 0.07268983
v 0.01929563 0.09350098 0.07123118
v -0.05643436 -0.07401201 0.07692464
v -0.06052221 -0.06224441 0.12237828
v 0.06970323 -0.03015626 0.07123118
v -0.01876469 -0.09458583 0.07291726
v -0.05195585 -0.08862410 0.10255309
v -0.03566024 -0.09413773 0.08129277
v -0.02011801 -0.09756670 0.11102272
v 0.02529487 -0.09928118 0.15134753
v -0.02999583 0.09755340 0.11103056
v -0.03556257 0.09722220 0.11103056
v -0.04274771 0.09527392 0.10255309
v -0.04934688 0.09330616 0.14817926
v 0.03094532 0.09679357 0.15134753
v -0.00744984 0.09689099 0.08279064
v -0.05148149 0.08933167 0.12251160
v -0.05196981 0.08863029 0.10255309
v -0.04251053 0.09163064 0.07751281
v 0.03718175 0.09391012 0.07748144
v 0.05633747 0.08031114 0.07621884
v 0.06837782 0.04152091 0.07123118
v 0.07114026 -0.00568588 0.07123118
v 0.07871605 -0.00732243 0.15134753
v 0.07612102 -0.03880662 0.15134753
v 0.06653618 -0.05606837 0.07704228
v 0.05724434 -0.07829822 0.07573262
v 0.03259163 -0.09400135 0.08012428
v -0.00068325 -0.09559894 0.08251616
v 0.00870627 -0.09739135 0.11102272
v 0.02779223 -0.09637825 0.10064743
v 0.04597134 -0.09329997 0.09935346
v 0.05259841 -0.09168290 0.14265048
v 0.06908936 -0.06752424 0.15134753
v -0.04772848 0.09276064 0.10255309
v 0.05582126 0.08903943 0.14433656
v 0.05096606 0.09038374 0.10055332
v 0.07126582 0.06191939 0.15134753
v 0.05384011 0.08818219 0.10505477
v 0.05615610 0.08461684 0.09947893
v 0.06522472 0.06084783 0.07562283
v 0.07612102 0.03879332 0.15134753
v 0.07850677 0.01535553 0.15134753
v 0.07073566 0.01705053 0.07123118
v 0.05830466 -0.08207788 0.10510182
v 0.05527714 -0.08576013 0.09946325
v 0.05085444 -0.09033858 0.09941620
v 0.06913121 0.05975680 0.11744551
f 1 2 3
f 1 3 10
f 1 10 25
f 1 25 49
f 1 49 40
f 1 40 39
f 1 39 58
f 1 58 57
f 1 57 53
f 1 53 30
f 1 30 11
f 1 11 4
f 1 4 5
f 1 5 2
f 2 6 3
f 2 5 17
f 2 17 37
f 2 37 59
f 2 59 38
f 2 38 20
f 2 20 6
f 3 6 7
f 3 7 8
f 3 8 9
f 3 9 10
f 4 11 12
f 4 12 13
f 4 13 14
f 4 14 5
f 5 14 15
f 5 15 16
f 5 16 17
f 6 18 19
f 6 19 7
f 6 20 21
f 6 21 18
f 7 19 8
f 8 19 18
f 8 18 22
f 8 22 9
f 9 22 23
f 9 23 10
f 10 24 25
f 10 23 24
f 11 26 27
f 11 27 28
f 11 28 29
f 11 29 12
f 11 30 31
f 11 31 26
f 12 15 13
f 12 29 32
f 12 32 33
f 12 33 15
f 13 15 14
f 15 33 34
f 15 34 16
f 16 28 27
f 16 27 31
f 16 31 17
f 16 34 28
f 17 31 35
f 17 35 36
f 17 36 37
f 18 21 23
f 18 23 22
f 20 38 39
f 20 39 40
f 20 40 41
f 20 41 42
f 20 42 21
f 21 43 44
f 21 44 24
f 21 24 23
f 21 42 43
f 24 45 25
f 24 44 45
f 25 45 46
f 25 46 47
f 25 47 48
f 25 48 49
f 26 31 27
f 28 34 50
f 28 50 29
f 29 50 33
f 29 33 32
f 30 51 52
f 30 52 35
f 30 35 31
f 30 53 51
f 33 50 34
f 35 52 36
f 36 54 55
f 36 55 53
f 36 53 56
f 36 56 37
f 36 52 54
f 37 56 57
f 37 57 58
f 37 58 59
f 38 59 58
f 38 58 39
f 40 49 41
f 41 49 42
f 42 49 60
f 42 60 61
f 42 61 62
f 42 62 47
f 42 47 43
f 43 47 46
f 43 46 44
f 44 46 45
f 47 62 48
f 48 62 61
f 48 61 60
f 48 60 49
f 51 53 55
f 51 55 54
f 51 54 52
f 53 57 63
f 53 63 56
f 56 63 57

