# https://github.com/mikedh/trimesh
v -0.05841973 0.03928961 0.06771734
v -0.00575007 0.09396199 0.07122334
v -0.04516990 0.08939066 0.06818010
v -0.05689822 0.06456962 0.06451724
v -0.05593460 0.05774016 0.03850070
v -0.05617551 0.02908214 0.03529275
v -0.05617551 -0.02904168 0.03529275
v -0.05839438 -0.02940886 0.06772519
v 0.06588777 0.05494963 0.07039194
v 0.03462071 0.09069413 0.06472117
v 0.00950309 0.09185073 0.06545845
v -0.02546633 0.09260344 0.06650946
v 0.00482444 -0.09359107 0.07035272
v 0.07111163 -0.00574442 0.07073705
v -0.03336551 0.06302749 0.00464861
v -0.05176312 0.05217746 0.00992721
v -0.05254923 0.02333585 0.00271913
v -0.05290425 -0.00194416 0.00337798
v -0.05462863 -0.04954841 0.01765296
v -0.05803935 -0.05542321 0.06754479
v 0.06974227 0.02939424 0.07049390
v 0.06718106 0.04066652 0.05587382
v 0.06459449 0.04578861 0.03793597
v 0.06240098 0.06234821 0.05197565
v 0.05258723 0.08116594 0.06060338
v 0.03644652 0.05913543 0.00213872
v 0.00200964 0.06422080 0.00253874
v -0.04161971 -0.09017634 0.06700359
v -0.01903794 -0.09267314 0.06655652
v 0.02095246 -0.09278329 0.06861149
v 0.06169094 -0.06910049 0.06932524
v 0.06655978 -0.05296314 0.07050959
v 0.06966619 -0.02984947 0.07025860
v 0.06890544 -0.02458050 0.05587382
v 0.06979299 -0.00220118 0.05587382
v 0.07097216 0.01147610 0.07025076
v 0.00000632 0.01498262 -0.00889693
v 0.00001900 -0.01497887 -0.00890477
v -0.05254923 -0.02358913 0.00273482
v -0.05265067 -0.04214983 0.00386427
v -0.05214350 -0.05597398 0.01082920
v -0.05599800 -0.05795672 0.03941838
v -0.05569369 -0.07044068 0.05979552
v 0.06890544 0.02449245 0.05587382
v 0.06674996 0.02810913 0.03793597
v 0.06318709 0.01826883 0.01010761
v 0.05921848 0.04837720 0.01080568
v 0.05939599 0.05933738 0.02554341
v 0.05970029 0.03346989 0.00249952
v -0.03883027 -0.06456588 0.00523687
v 0.00432995 -0.09085561 0.06218775
v 0.04111249 -0.06467603 0.00489176
v 0.03552094 -0.09127787 0.06718399
v 0.05479342 -0.07758224 0.05670522
v 0.05762089 -0.05995783 0.01861770
v 0.06330121 -0.06078397 0.05385022
v 0.06285744 -0.05235730 0.03559080
v 0.06718106 -0.04066278 0.05587382
v 0.06474664 -0.02219386 0.01866476
v 0.06734589 0.00000187 0.03180244
v 0.06081607 -0.02880302 0.00366034
v 0.06532989 0.00000187 0.01713529
v 0.06227419 -0.01218834 0.00457017
v 0.05956082 -0.04527082 0.00831148
f 1 2 3
f 1 3 4
f 1 4 5
f 1 5 6
f 1 6 7
f 1 7 8
f 1 8 2
f 2 9 10
f 2 10 11
f 2 11 12
f 2 12 3
f 2 8 13
f 2 13 14
f 2 14 9
f 3 12 15
f 3 15 16
f 3 16 5
f 3 5 4
f 5 16 17
f 5 17 6
f 6 17 18
f 6 18 19
f 6 19 7
f 7 19 20
f 7 20 8
f 8 20 13
f 9 21 22
f 9 22 23
f 9 23 24
f 9 24 25
f 9 25 10
f 9 14 21
f 10 25 26
f 10 26 27
f 10 27 11
f 11 27 12
f 12 27 15
f 13 28 29
f 13 29 30
f 13 30 31
f 13 31 32
f 13 32 14
f 13 20 28
f 14 32 33
f 14 33 34
f 14 34 35
f 14 35 36
f 14 36 21
f 15 27 37
f 15 37 17
f 15 17 16
f 17 37 38
f 17 38 39
f 17 39 18
f 18 39 40
f 18 40 19
f 19 40 41
f 19 41 42
f 19 42 20
f 20 42 43
f 20 43 28
f 21 36 44
f 21 44 22
f 22 44 45
f 22 45 23
f 23 45 46
f 23 46 47
f 23 47 48
f 23 48 24
f 24 48 25
f 25 48 26
f 26 48 47
f 26 47 49
f 26 49 37
f 26 37 27
f 28 43 41
f 28 41 50
f 28 50 29
f 29 50 51
f 29 51 30
f 30 51 52
f 30 52 53
f 30 53 31
f 31 53 54
f 31 54 55
f 31 55 56
f 31 56 32
f 32 56 57
f 32 57 58
f 32 58 33
f 33 58 34
f 34 59 60
f 34 60 35
f 34 58 59
f 35 60 36
f 36 60 44
f 37 49 38
f 38 61 52
f 38 52 50
f 38 50 40
f 38 40 39
f 38 49 61
f 40 50 41
f 41 43 42
f 44 60 45
f 45 60 62
f 45 62 46
f 46 62 63
f 46 63 49
f 46 49 47
f 49 63 61
f 50 52 51
f 52 55 54
f 52 54 53
f 52 61 64
f 52 64 55
f 55 64 57
f 55 57 56
f 57 64 59
f 57 59 58
f 59 64 61
f 59 61 63
f 59 63 62
f 59 62 60

