# https://github.com/mikedh/trimesh
v -0.06648464 0.00000064 0.20278479
v -0.06645539 0.02279155 0.20888606
v -0.06540267 0.02279155 0.17806604
v -0.06540267 -0.02279027 0.17806604
v -0.06645539 -0.02279027 0.20888606
v -0.06616297 0.00000064 0.22981700
v -0.06585593 0.02634474 0.23147172
v -0.06478858 0.05479133 0.21690867
v -0.06532956 0.04575066 0.19122533
v -0.06448153 0.00000064 0.16157381
v -0.06363351 0.03742483 0.15423347
v -0.06370662 -0.02354717 0.15137105
v -0.06325336 -0.04574938 0.15137105
v -0.06451078 -0.04574938 0.17313327
v -0.06559274 -0.04585451 0.20364744
v -0.06587055 -0.02522915 0.23147172
v 0.05162513 0.09934294 0.23130703
v -0.06155730 0.07365060 0.22800545
v -0.06222988 0.07009740 0.19026857
v -0.06076776 0.07098045 0.15948777
v -0.03098445 0.09955319 0.15137105
v -0.02737302 -0.09946782 0.15137105
v -0.06085549 -0.07137865 0.15948777
v -0.06222988 -0.07009613 0.19026857
v -0.06176200 -0.07121044 0.22013968
v -0.04519622 -0.09946782 0.21979462
v -0.01735752 -0.10514451 0.22638994
v 0.05292641 -0.09738635 0.22980916
v 0.07320597 0.04408970 0.23014638
v 0.06446251 0.07915910 0.22795839
v 0.06713818 0.07829709 0.18562597
v 0.05845321 0.08603422 0.15137105
v 0.04728264 0.10157157 0.20447088
v 0.02526317 0.10514579 0.22639779
v -0.01738677 0.10514579 0.22639779
v 0.07317672 -0.04446687 0.22995032
v -0.05104468 0.09301446 0.21933193
v -0.05089848 0.09263602 0.16353437
v -0.04474296 0.09919576 0.19431517
v 0.00327294 0.10739545 0.21856339
v 0.03109701 0.09677791 0.15137105
v -0.04351479 -0.09929961 0.18837859
v 0.02400575 -0.09927859 0.15137105
v 0.00328756 -0.10739417 0.21855554
v 0.02529241 -0.10514451 0.22638994
v 0.04748734 -0.10171747 0.20729408
v 0.05346740 -0.09562027 0.18538286
v 0.06903893 -0.07518414 0.19120964
v 0.07001855 -0.06761520 0.21786542
v 0.07567694 0.01839736 0.22984837
v 0.08077973 0.01846043 0.20287890
v 0.07623255 0.05144838 0.20287890
v 0.07305976 0.05445494 0.15137105
v 0.07833800 -0.04211209 0.20298869
v 0.08077973 -0.01845916 0.20287890
v 0.07715368 -0.00895594 0.22366869
v 0.05316035 -0.09152043 0.15468048
v 0.06911204 -0.06753110 0.15137105
v 0.08133533 -0.03023306 0.17514873
v 0.08132071 0.03025536 0.17534479
v 0.08288518 -0.00037781 0.18344582
v 0.07791398 0.02289667 0.15137105
v 0.07611558 -0.03881119 0.15137105
v 0.07870353 -0.00731600 0.15137105
f 1 2 3
f 1 3 4
f 1 4 5
f 1 5 2
f 2 5 6
f 2 6 7
f 2 7 8
f 2 8 9
f 2 9 3
f 3 10 4
f 3 9 11
f 3 11 10
f 4 12 13
f 4 13 14
f 4 14 15
f 4 15 5
f 4 10 12
f 5 15 16
f 5 16 6
f 6 16 7
f 7 17 18
f 7 18 8
f 7 16 17
f 8 18 19
f 8 19 9
f 9 19 20
f 9 20 11
f 10 11 12
f 11 20 21
f 11 21 12
f 12 21 41
f 12 41 32
f 12 32 53
f 12 53 62
f 12 62 64
f 12 64 63
f 12 63 58
f 12 58 43
f 12 43 22
f 12 22 13
f 13 22 23
f 13 23 14
f 14 23 24
f 14 24 15
f 15 24 25
f 15 25 16
f 16 25 26
f 16 26 27
f 16 27 28
f 16 28 17
f 17 29 30
f 17 30 31
f 17 31 32
f 17 32 33
f 17 33 34
f 17 34 35
f 17 35 18
f 17 28 36
f 17 36 29
f 18 35 37
f 18 37 38
f 18 38 19
f 19 38 20
f 20 38 21
f 21 38 39
f 21 39 35
f 21 35 40
f 21 40 41
f 22 42 23
f 22 43 44
f 22 44 27
f 22 27 42
f 23 42 26
f 23 26 24
f 24 26 25
f 26 42 27
f 27 44 45
f 27 45 28
f 28 45 46
f 28 46 47
f 28 47 48
f 28 48 49
f 28 49 36
f 29 50 51
f 29 51 52
f 29 52 30
f 29 36 50
f 30 52 31
f 31 52 53
f 31 53 32
f 32 41 33
f 33 41 40
f 33 40 34
f 34 40 35
f 35 39 37
f 36 49 54
f 36 54 55
f 36 55 56
f 36 56 50
f 37 39 38
f 43 57 46
f 43 46 44
f 43 58 57
f 44 46 45
f 46 57 47
f 47 57 48
f 48 57 58
f 48 58 59
f 48 59 54
f 48 54 49
f 50 56 51
f 51 60 52
f 51 56 55
f 51 55 61
f 51 61 60
f 52 60 53
f 53 60 62
f 54 59 55
f 55 59 61
f 58 63 59
f 59 63 64
f 59 64 61
f 60 61 64
f 60 64 62

