# https://github.com/mikedh/trimesh
v -0.06547559 -0.00001947 0.23806620
v -0.06542051 0.02463320 0.23746462
v -0.06542051 -0.02406544 0.23741835
v -0.06240501 -0.04574523 0.25797230
v -0.06164770 -0.02657317 0.26263839
v -0.06083530 0.04940722 0.26293147
v -0.06452549 0.04825447 0.24020258
v -0.05021912 0.09412179 0.23656226
v -0.05897644 -0.08071198 0.23412509
v -0.06449796 -0.05161010 0.23649284
v -0.06178540 -0.06404767 0.25093074
v -0.05386801 -0.05654468 0.27760074
v -0.05616748 -0.02837308 0.28059321
v -0.05871482 0.02487589 0.27290380
v -0.05483186 0.04012455 0.28208173
v -0.05083873 0.06985337 0.27506331
v -0.05459777 0.08506158 0.25292058
v -0.06204701 0.06770966 0.24284799
v -0.04254957 0.09749915 0.25791060
v -0.02699018 0.10291910 0.24145972
v 0.04297201 0.10130120 0.23987865
v 0.06362607 0.07879224 0.23458013
v 0.07516481 0.01895035 0.23148739
v 0.03013895 -0.10368609 0.23148739
v -0.04480775 -0.09978293 0.23933877
v -0.05459777 -0.07961991 0.25991586
v -0.04455990 -0.07953902 0.27646700
v 0.00233859 -0.07456399 0.31027882
v -0.05543770 -0.00001947 0.28289155
v 0.00444530 0.07161282 0.31005516
v -0.04000224 0.08720530 0.27514815
v -0.01506590 0.09173539 0.28629279
v 0.02870694 0.09292860 0.28243651
v 0.04461057 0.09385889 0.26945629
v 0.07038684 0.04738485 0.23837470
v 0.05689285 0.08221004 0.25456335
v 0.07442127 -0.00942349 0.23478065
v 0.07268632 -0.04499695 0.23148739
v 0.06739888 0.02849593 0.25302084
v 0.06512694 -0.00001947 0.26081823
v -0.02715541 -0.10287715 0.24170653
v 0.06640749 -0.07128775 0.23385515
v 0.05971557 -0.08837676 0.23508916
v 0.04719921 -0.10152215 0.23715612
v 0.03655548 -0.10138059 0.25285116
v -0.04122771 -0.09772011 0.26014724
v -0.02628794 -0.09225971 0.28159584
v 0.04903054 -0.04896080 0.27945947
v 0.01982569 -0.01998025 0.30964639
v 0.01915099 0.02323777 0.30964639
v -0.00252200 -0.09139009 0.28754993
v 0.02245564 -0.09244172 0.28408700
v 0.04655205 -0.07929632 0.27389872
v 0.04868630 0.07080389 0.27470082
v 0.00934720 0.09205897 0.28536728
v 0.04819061 0.05041840 0.28083230
v 0.06022503 0.05691020 0.26168975
v 0.06854174 -0.02885845 0.24999752
v 0.06562263 -0.05686826 0.24908744
v 0.05580507 0.02784877 0.27524841
v 0.05495137 -0.00001947 0.27881161
v 0.05676893 -0.01832191 0.27517900
v 0.05481367 -0.08724424 0.25511865
v 0.03582571 -0.10038964 0.25654548
f 1 2 3
f 1 3 4
f 1 4 5
f 1 5 2
f 2 5 6
f 2 6 7
f 2 7 8
f 2 8 9
f 2 9 10
f 2 10 3
f 3 10 4
f 4 10 11
f 4 11 12
f 4 12 13
f 4 13 5
f 5 13 14
f 5 14 6
f 6 14 15
f 6 15 16
f 6 16 17
f 6 17 18
f 6 18 7
f 7 18 8
f 8 19 20
f 8 20 21
f 8 21 22
f 8 22 23
f 8 23 9
f 8 18 17
f 8 17 19
f 9 24 25
f 9 25 26
f 9 26 11
f 9 11 10
f 9 23 24
f 11 26 12
f 12 26 27
f 12 27 28
f 12 28 13
f 13 28 29
f 13 29 14
f 14 29 15
f 15 29 30
f 15 30 16
f 16 30 31
f 16 31 17
f 17 31 19
f 19 31 32
f 19 32 20
f 20 32 33
f 20 33 21
f 21 34 22
f 21 33 34
f 22 35 23
f 22 34 36
f 22 36 35
f 23 37 38
f 23 38 24
f 23 35 39
f 23 39 40
f 23 40 37
f 24 41 25
f 24 38 42
f 24 42 43
f 24 43 44
f 24 44 45
f 24 45 41
f 25 41 46
f 25 46 26
f 26 46 27
f 27 46 47
f 27 47 28
f 28 48 49
f 28 49 50
f 28 50 30
f 28 30 29
f 28 47 51
f 28 51 52
f 28 52 53
f 28 53 48
f 30 54 34
f 30 34 33
f 30 33 55
f 30 55 32
f 30 32 31
f 30 50 56
f 30 56 54
f 32 55 33
f 34 54 36
f 35 57 39
f 35 36 57
f 36 54 57
f 37 58 38
f 37 40 58
f 38 58 59
f 38 59 42
f 39 57 60
f 39 60 40
f 40 60 61
f 40 61 62
f 40 62 58
f 41 45 46
f 42 59 63
f 42 63 43
f 43 63 44
f 44 64 45
f 44 63 64
f 45 64 51
f 45 51 46
f 46 51 47
f 48 59 62
f 48 62 61
f 48 61 49
f 48 53 59
f 49 61 50
f 50 61 56
f 51 64 52
f 52 64 63
f 52 63 53
f 53 63 59
f 54 56 57
f 56 61 60
f 56 60 57
f 58 62 59

